<?xml version="1.0" encoding="UTF-8"?>
<!DOCTYPE svg PUBLIC "-//W3C//DTD SVG 1.1//EN" "http://www.w3.org/Graphics/SVG/1.1/DTD/svg11.dtd">
<!-- Creator: CorelDRAW 2018 (64-Bit) -->
<svg xmlns="http://www.w3.org/2000/svg" xml:space="preserve" width="1.70834in" height="1.70834in" version="1.1" style="shape-rendering:geometricPrecision; text-rendering:geometricPrecision; image-rendering:optimizeQuality; fill-rule:evenodd; clip-rule:evenodd"
viewBox="0 0 616.19 616.19"
 xmlns:xlink="http://www.w3.org/1999/xlink">
 <defs>
  <style type="text/css">
   <![CDATA[
    .str0 {stroke:#FB0501;stroke-width:15.03;stroke-linecap:square;stroke-miterlimit:2.61313}
    .str1 {stroke:white;stroke-width:10.02;stroke-linecap:square;stroke-miterlimit:2.61313}
    .fil0 {fill:none}
   ]]>
  </style>
 </defs>
 <g id="Layer_x0020_1">
  <metadata id="CorelCorpID_0Corel-Layer"/>
  <g id="_2423878208688">
   <g>
    <g>
     <line class="fil0 str0" x1="7.51" y1="7.51" x2="247.98" y2= "7.51" />
    </g>
    <g>
     <line class="fil0 str0" x1="308.09" y1="7.51" x2="608.67" y2= "7.51" />
    </g>
    <g>
     <line class="fil0 str0" x1="67.63" y1="67.63" x2="368.21" y2= "67.63" />
    </g>
    <g>
     <line class="fil0 str0" x1="488.44" y1="67.63" x2="608.67" y2= "67.63" />
    </g>
    <g>
     <line class="fil0 str0" x1="247.98" y1="127.75" x2="308.09" y2= "127.75" />
    </g>
    <g>
     <line class="fil0 str0" x1="428.33" y1="127.75" x2="548.56" y2= "127.75" />
    </g>
    <g>
     <line class="fil0 str0" x1="67.63" y1="187.86" x2="127.75" y2= "187.86" />
    </g>
    <g>
     <line class="fil0 str0" x1="308.09" y1="187.86" x2="428.33" y2= "187.86" />
    </g>
    <g>
     <line class="fil0 str0" x1="548.56" y1="187.86" x2="608.67" y2= "187.86" />
    </g>
    <g>
     <line class="fil0 str0" x1="7.51" y1="247.98" x2="67.63" y2= "247.98" />
    </g>
    <g>
     <line class="fil0 str0" x1="127.75" y1="247.98" x2="187.86" y2= "247.98" />
    </g>
    <g>
     <line class="fil0 str0" x1="308.09" y1="247.98" x2="368.21" y2= "247.98" />
    </g>
    <g>
     <line class="fil0 str0" x1="428.33" y1="247.98" x2="488.44" y2= "247.98" />
    </g>
    <g>
     <line class="fil0 str0" x1="67.63" y1="308.09" x2="127.75" y2= "308.09" />
    </g>
    <g>
     <line class="fil0 str0" x1="488.44" y1="308.09" x2="608.67" y2= "308.09" />
    </g>
    <g>
     <line class="fil0 str0" x1="7.51" y1="368.21" x2="67.63" y2= "368.21" />
    </g>
    <g>
     <line class="fil0 str0" x1="127.75" y1="368.21" x2="187.86" y2= "368.21" />
    </g>
    <g>
     <line class="fil0 str0" x1="247.98" y1="368.21" x2="308.09" y2= "368.21" />
    </g>
    <g>
     <line class="fil0 str0" x1="368.21" y1="368.21" x2="488.44" y2= "368.21" />
    </g>
    <g>
     <line class="fil0 str0" x1="127.75" y1="428.33" x2="247.98" y2= "428.33" />
    </g>
    <g>
     <line class="fil0 str0" x1="308.09" y1="428.33" x2="368.21" y2= "428.33" />
    </g>
    <g>
     <line class="fil0 str0" x1="67.63" y1="488.44" x2="127.75" y2= "488.44" />
    </g>
    <g>
     <line class="fil0 str0" x1="247.98" y1="488.44" x2="308.09" y2= "488.44" />
    </g>
    <g>
     <line class="fil0 str0" x1="428.33" y1="488.44" x2="488.44" y2= "488.44" />
    </g>
    <g>
     <line class="fil0 str0" x1="127.75" y1="548.56" x2="187.86" y2= "548.56" />
    </g>
    <g>
     <line class="fil0 str0" x1="308.09" y1="548.56" x2="368.21" y2= "548.56" />
    </g>
    <g>
     <line class="fil0 str0" x1="488.44" y1="548.56" x2="548.56" y2= "548.56" />
    </g>
    <g>
     <line class="fil0 str0" x1="7.51" y1="608.67" x2="308.09" y2= "608.67" />
    </g>
    <g>
     <line class="fil0 str0" x1="368.21" y1="608.67" x2="608.67" y2= "608.67" />
    </g>
    <g>
     <line class="fil0 str0" x1="7.51" y1="7.51" x2="7.51" y2= "608.67" />
    </g>
    <g>
     <line class="fil0 str0" x1="67.63" y1="67.63" x2="67.63" y2= "127.75" />
    </g>
    <g>
     <line class="fil0 str0" x1="67.63" y1="428.33" x2="67.63" y2= "608.67" />
    </g>
    <g>
     <line class="fil0 str0" x1="127.75" y1="127.75" x2="127.75" y2= "247.98" />
    </g>
    <g>
     <line class="fil0 str0" x1="127.75" y1="308.09" x2="127.75" y2= "368.21" />
    </g>
    <g>
     <line class="fil0 str0" x1="187.86" y1="67.63" x2="187.86" y2= "368.21" />
    </g>
    <g>
     <line class="fil0 str0" x1="187.86" y1="428.33" x2="187.86" y2= "548.56" />
    </g>
    <g>
     <line class="fil0 str0" x1="247.98" y1="7.51" x2="247.98" y2= "67.63" />
    </g>
    <g>
     <line class="fil0 str0" x1="247.98" y1="127.75" x2="247.98" y2= "308.09" />
    </g>
    <g>
     <line class="fil0 str0" x1="247.98" y1="368.21" x2="247.98" y2= "428.33" />
    </g>
    <g>
     <line class="fil0 str0" x1="247.98" y1="488.44" x2="247.98" y2= "608.67" />
    </g>
    <g>
     <line class="fil0 str0" x1="308.09" y1="127.75" x2="308.09" y2= "368.21" />
    </g>
    <g>
     <line class="fil0 str0" x1="308.09" y1="428.33" x2="308.09" y2= "488.44" />
    </g>
    <g>
     <line class="fil0 str0" x1="368.21" y1="67.63" x2="368.21" y2= "127.75" />
    </g>
    <g>
     <line class="fil0 str0" x1="368.21" y1="308.09" x2="368.21" y2= "548.56" />
    </g>
    <g>
     <line class="fil0 str0" x1="428.33" y1="7.51" x2="428.33" y2= "187.86" />
    </g>
    <g>
     <line class="fil0 str0" x1="428.33" y1="247.98" x2="428.33" y2= "308.09" />
    </g>
    <g>
     <line class="fil0 str0" x1="428.33" y1="428.33" x2="428.33" y2= "548.56" />
    </g>
    <g>
     <line class="fil0 str0" x1="488.44" y1="127.75" x2="488.44" y2= "247.98" />
    </g>
    <g>
     <line class="fil0 str0" x1="488.44" y1="368.21" x2="488.44" y2= "488.44" />
    </g>
    <g>
     <line class="fil0 str0" x1="488.44" y1="548.56" x2="488.44" y2= "608.67" />
    </g>
    <g>
     <line class="fil0 str0" x1="548.56" y1="187.86" x2="548.56" y2= "247.98" />
    </g>
    <g>
     <line class="fil0 str0" x1="548.56" y1="368.21" x2="548.56" y2= "548.56" />
    </g>
    <g>
     <line class="fil0 str0" x1="608.67" y1="7.51" x2="608.67" y2= "608.67" />
    </g>
   </g>
  </g>
  <g>
   <g>
    <g>
     <line class="fil0 str1" x1="7.51" y1="7.51" x2="247.98" y2= "7.51" />
    </g>
    <g>
     <line class="fil0 str1" x1="308.09" y1="7.51" x2="608.67" y2= "7.51" />
    </g>
    <g>
     <line class="fil0 str1" x1="67.63" y1="67.63" x2="368.21" y2= "67.63" />
    </g>
    <g>
     <line class="fil0 str1" x1="488.44" y1="67.63" x2="608.67" y2= "67.63" />
    </g>
    <g>
     <line class="fil0 str1" x1="247.98" y1="127.75" x2="308.09" y2= "127.75" />
    </g>
    <g>
     <line class="fil0 str1" x1="428.33" y1="127.75" x2="548.56" y2= "127.75" />
    </g>
    <g>
     <line class="fil0 str1" x1="67.63" y1="187.86" x2="127.75" y2= "187.86" />
    </g>
    <g>
     <line class="fil0 str1" x1="308.09" y1="187.86" x2="428.33" y2= "187.86" />
    </g>
    <g>
     <line class="fil0 str1" x1="548.56" y1="187.86" x2="608.67" y2= "187.86" />
    </g>
    <g>
     <line class="fil0 str1" x1="7.51" y1="247.98" x2="67.63" y2= "247.98" />
    </g>
    <g>
     <line class="fil0 str1" x1="127.75" y1="247.98" x2="187.86" y2= "247.98" />
    </g>
    <g>
     <line class="fil0 str1" x1="308.09" y1="247.98" x2="368.21" y2= "247.98" />
    </g>
    <g>
     <line class="fil0 str1" x1="428.33" y1="247.98" x2="488.44" y2= "247.98" />
    </g>
    <g>
     <line class="fil0 str1" x1="67.63" y1="308.09" x2="127.75" y2= "308.09" />
    </g>
    <g>
     <line class="fil0 str1" x1="488.44" y1="308.09" x2="608.67" y2= "308.09" />
    </g>
    <g>
     <line class="fil0 str1" x1="7.51" y1="368.21" x2="67.63" y2= "368.21" />
    </g>
    <g>
     <line class="fil0 str1" x1="127.75" y1="368.21" x2="187.86" y2= "368.21" />
    </g>
    <g>
     <line class="fil0 str1" x1="247.98" y1="368.21" x2="308.09" y2= "368.21" />
    </g>
    <g>
     <line class="fil0 str1" x1="368.21" y1="368.21" x2="488.44" y2= "368.21" />
    </g>
    <g>
     <line class="fil0 str1" x1="127.75" y1="428.33" x2="247.98" y2= "428.33" />
    </g>
    <g>
     <line class="fil0 str1" x1="308.09" y1="428.33" x2="368.21" y2= "428.33" />
    </g>
    <g>
     <line class="fil0 str1" x1="67.63" y1="488.44" x2="127.75" y2= "488.44" />
    </g>
    <g>
     <line class="fil0 str1" x1="247.98" y1="488.44" x2="308.09" y2= "488.44" />
    </g>
    <g>
     <line class="fil0 str1" x1="428.33" y1="488.44" x2="488.44" y2= "488.44" />
    </g>
    <g>
     <line class="fil0 str1" x1="127.75" y1="548.56" x2="187.86" y2= "548.56" />
    </g>
    <g>
     <line class="fil0 str1" x1="308.09" y1="548.56" x2="368.21" y2= "548.56" />
    </g>
    <g>
     <line class="fil0 str1" x1="488.44" y1="548.56" x2="548.56" y2= "548.56" />
    </g>
    <g>
     <line class="fil0 str1" x1="7.51" y1="608.67" x2="308.09" y2= "608.67" />
    </g>
    <g>
     <line class="fil0 str1" x1="368.21" y1="608.67" x2="608.67" y2= "608.67" />
    </g>
    <g>
     <line class="fil0 str1" x1="7.51" y1="7.51" x2="7.51" y2= "608.67" />
    </g>
    <g>
     <line class="fil0 str1" x1="67.63" y1="67.63" x2="67.63" y2= "127.75" />
    </g>
    <g>
     <line class="fil0 str1" x1="67.63" y1="428.33" x2="67.63" y2= "608.67" />
    </g>
    <g>
     <line class="fil0 str1" x1="127.75" y1="127.75" x2="127.75" y2= "247.98" />
    </g>
    <g>
     <line class="fil0 str1" x1="127.75" y1="308.09" x2="127.75" y2= "368.21" />
    </g>
    <g>
     <line class="fil0 str1" x1="187.86" y1="67.63" x2="187.86" y2= "368.21" />
    </g>
    <g>
     <line class="fil0 str1" x1="187.86" y1="428.33" x2="187.86" y2= "548.56" />
    </g>
    <g>
     <line class="fil0 str1" x1="247.98" y1="7.51" x2="247.98" y2= "67.63" />
    </g>
    <g>
     <line class="fil0 str1" x1="247.98" y1="127.75" x2="247.98" y2= "308.09" />
    </g>
    <g>
     <line class="fil0 str1" x1="247.98" y1="368.21" x2="247.98" y2= "428.33" />
    </g>
    <g>
     <line class="fil0 str1" x1="247.98" y1="488.44" x2="247.98" y2= "608.67" />
    </g>
    <g>
     <line class="fil0 str1" x1="308.09" y1="127.75" x2="308.09" y2= "368.21" />
    </g>
    <g>
     <line class="fil0 str1" x1="308.09" y1="428.33" x2="308.09" y2= "488.44" />
    </g>
    <g>
     <line class="fil0 str1" x1="368.21" y1="67.63" x2="368.21" y2= "127.75" />
    </g>
    <g>
     <line class="fil0 str1" x1="368.21" y1="308.09" x2="368.21" y2= "548.56" />
    </g>
    <g>
     <line class="fil0 str1" x1="428.33" y1="7.51" x2="428.33" y2= "187.86" />
    </g>
    <g>
     <line class="fil0 str1" x1="428.33" y1="247.98" x2="428.33" y2= "308.09" />
    </g>
    <g>
     <line class="fil0 str1" x1="428.33" y1="428.33" x2="428.33" y2= "548.56" />
    </g>
    <g>
     <line class="fil0 str1" x1="488.44" y1="127.75" x2="488.44" y2= "247.98" />
    </g>
    <g>
     <line class="fil0 str1" x1="488.44" y1="368.21" x2="488.44" y2= "488.44" />
    </g>
    <g>
     <line class="fil0 str1" x1="488.44" y1="548.56" x2="488.44" y2= "608.67" />
    </g>
    <g>
     <line class="fil0 str1" x1="548.56" y1="187.86" x2="548.56" y2= "247.98" />
    </g>
    <g>
     <line class="fil0 str1" x1="548.56" y1="368.21" x2="548.56" y2= "548.56" />
    </g>
    <g>
     <line class="fil0 str1" x1="608.67" y1="7.51" x2="608.67" y2= "608.67" />
    </g>
   </g>
  </g>
 </g>
</svg>
