<?xml version="1.0" encoding="UTF-8"?>
<!DOCTYPE svg PUBLIC "-//W3C//DTD SVG 1.1//EN" "http://www.w3.org/Graphics/SVG/1.1/DTD/svg11.dtd">
<!-- Creator: CorelDRAW 2018 (64-Bit) -->
<svg xmlns="http://www.w3.org/2000/svg" xml:space="preserve" width="2.30208in" height="2.69387in" version="1.1" style="shape-rendering:geometricPrecision; text-rendering:geometricPrecision; image-rendering:optimizeQuality; fill-rule:evenodd; clip-rule:evenodd"
viewBox="0 0 5669.13 6633.97"
 xmlns:xlink="http://www.w3.org/1999/xlink">
 <defs>
  <style type="text/css">
   <![CDATA[
    .str0 {stroke:#FB0501;stroke-width:102.61;stroke-linecap:round;stroke-linejoin:round;stroke-miterlimit:2.61313}
    .str1 {stroke:white;stroke-width:68.41;stroke-linecap:round;stroke-linejoin:round;stroke-miterlimit:2.61313}
    .fil0 {fill:none}
   ]]>
  </style>
 </defs>
 <g id="Layer_x0020_1">
  <metadata id="CorelCorpID_0Corel-Layer"/>
  <g id="_2423828071888">
   <g>
    <g>
     <polyline class="fil0 str0" points="230.87,984.36 51.3,673.34 230.87,362.32 590,362.32 769.56,673.34 "/>
    </g>
    <g>
     <polyline class="fil0 str0" points="590,362.32 769.56,51.31 1128.69,51.31 1308.26,362.32 1667.39,362.32 1846.95,51.31 2206.09,51.31 2385.65,362.32 2206.09,673.34 "/>
    </g>
    <g>
     <polyline class="fil0 str0" points="2924.34,673.34 2744.79,362.32 2924.34,51.31 3283.48,51.31 3463.05,362.32 3822.18,362.32 4001.74,673.34 "/>
    </g>
    <g>
     <polyline class="fil0 str0" points="3822.18,362.32 4001.74,51.31 4360.87,51.31 4540.44,362.32 4899.57,362.32 5079.13,673.34 "/>
    </g>
    <g>
     <polyline class="fil0 str0" points="4899.57,362.32 5079.13,51.31 5438.27,51.31 5617.83,362.32 5438.27,673.34 "/>
    </g>
    <g>
     <polyline class="fil0 str0" points="230.87,1606.39 51.3,1295.37 230.87,984.36 "/>
    </g>
    <g>
     <polyline class="fil0 str0" points="769.56,1295.37 590,984.36 769.56,673.34 "/>
    </g>
    <g>
     <polyline class="fil0 str0" points="1128.69,673.34 1308.26,984.36 1128.69,1295.37 "/>
    </g>
    <g>
     <polyline class="fil0 str0" points="1308.26,984.36 1667.39,984.36 1846.95,1295.37 "/>
    </g>
    <g>
     <line class="fil0 str0" x1="1667.39" y1="984.36" x2="1846.95" y2= "673.34" />
    </g>
    <g>
     <polyline class="fil0 str0" points="2206.09,1295.37 2385.65,984.36 2744.79,984.36 2924.34,673.34 "/>
    </g>
    <g>
     <polyline class="fil0 str0" points="3283.48,673.34 3463.05,984.36 3283.48,1295.37 "/>
    </g>
    <g>
     <polyline class="fil0 str0" points="3463.05,984.36 3822.18,984.36 4001.74,673.34 "/>
    </g>
    <g>
     <polyline class="fil0 str0" points="4360.87,673.34 4540.44,984.36 4360.87,1295.37 "/>
    </g>
    <g>
     <polyline class="fil0 str0" points="4540.44,984.36 4899.57,984.36 5079.13,1295.37 "/>
    </g>
    <g>
     <polyline class="fil0 str0" points="5438.27,673.34 5617.83,984.36 5438.27,1295.37 "/>
    </g>
    <g>
     <polyline class="fil0 str0" points="230.87,2228.42 51.3,1917.41 230.87,1606.39 "/>
    </g>
    <g>
     <polyline class="fil0 str0" points="769.56,1917.41 590,1606.39 769.56,1295.37 "/>
    </g>
    <g>
     <polyline class="fil0 str0" points="1128.69,1295.37 1308.26,1606.39 1667.39,1606.39 1846.95,1917.41 "/>
    </g>
    <g>
     <line class="fil0 str0" x1="1846.95" y1="1295.37" x2="2206.09" y2= "1295.37" />
    </g>
    <g>
     <polyline class="fil0 str0" points="2206.09,1917.41 2385.65,1606.39 2744.79,1606.39 2924.34,1917.41 "/>
    </g>
    <g>
     <polyline class="fil0 str0" points="2924.34,1295.37 3283.48,1295.37 3463.05,1606.39 3822.18,1606.39 4001.74,1917.41 "/>
    </g>
    <g>
     <line class="fil0 str0" x1="4001.74" y1="1295.37" x2="4360.87" y2= "1295.37" />
    </g>
    <g>
     <polyline class="fil0 str0" points="4360.87,1917.41 4540.44,1606.39 4899.57,1606.39 5079.13,1295.37 "/>
    </g>
    <g>
     <polyline class="fil0 str0" points="5438.27,1295.37 5617.83,1606.39 5438.27,1917.41 "/>
    </g>
    <g>
     <polyline class="fil0 str0" points="230.87,2850.46 51.3,2539.44 230.87,2228.42 "/>
    </g>
    <g>
     <polyline class="fil0 str0" points="590,2228.42 769.56,1917.41 1128.69,1917.41 1308.26,2228.42 1667.39,2228.42 1846.95,2539.44 "/>
    </g>
    <g>
     <line class="fil0 str0" x1="1846.95" y1="1917.41" x2="2206.09" y2= "1917.41" />
    </g>
    <g>
     <polyline class="fil0 str0" points="2206.09,2539.44 2385.65,2228.42 2744.79,2228.42 2924.34,2539.44 "/>
    </g>
    <g>
     <line class="fil0 str0" x1="2924.34" y1="1917.41" x2="3283.48" y2= "1917.41" />
    </g>
    <g>
     <line class="fil0 str0" x1="3283.48" y1="2539.44" x2="3463.05" y2= "2228.42" />
    </g>
    <g>
     <polyline class="fil0 str0" points="3822.18,2228.42 4001.74,1917.41 4360.87,1917.41 4540.44,2228.42 "/>
    </g>
    <g>
     <polyline class="fil0 str0" points="5079.13,2539.44 4899.57,2228.42 5079.13,1917.41 5438.27,1917.41 5617.83,2228.42 5438.27,2539.44 "/>
    </g>
    <g>
     <polyline class="fil0 str0" points="230.87,3472.49 51.3,3161.47 230.87,2850.46 590,2850.46 769.56,2539.44 1128.69,2539.44 1308.26,2850.46 1128.69,3161.47 "/>
    </g>
    <g>
     <polyline class="fil0 str0" points="1667.39,2850.46 1846.95,2539.44 2206.09,2539.44 "/>
    </g>
    <g>
     <polyline class="fil0 str0" points="2206.09,3161.47 2385.65,2850.46 2744.79,2850.46 "/>
    </g>
    <g>
     <polyline class="fil0 str0" points="2924.34,2539.44 3283.48,2539.44 3463.05,2850.46 3283.48,3161.47 "/>
    </g>
    <g>
     <polyline class="fil0 str0" points="3463.05,2850.46 3822.18,2850.46 4001.74,3161.47 "/>
    </g>
    <g>
     <polyline class="fil0 str0" points="3822.18,2850.46 4001.74,2539.44 4360.87,2539.44 4540.44,2850.46 4360.87,3161.47 "/>
    </g>
    <g>
     <line class="fil0 str0" x1="4540.44" y1="2850.46" x2="4899.57" y2= "2850.46" />
    </g>
    <g>
     <polyline class="fil0 str0" points="5438.27,2539.44 5617.83,2850.46 5438.27,3161.47 "/>
    </g>
    <g>
     <polyline class="fil0 str0" points="230.87,4094.53 51.3,3783.52 230.87,3472.49 590,3472.49 769.56,3161.47 "/>
    </g>
    <g>
     <polyline class="fil0 str0" points="1128.69,3161.47 1308.26,3472.49 1128.69,3783.52 "/>
    </g>
    <g>
     <polyline class="fil0 str0" points="1308.26,3472.49 1667.39,3472.49 1846.95,3161.47 2206.09,3161.47 2385.65,3472.49 2206.09,3783.52 "/>
    </g>
    <g>
     <line class="fil0 str0" x1="2744.79" y1="3472.49" x2="2924.34" y2= "3783.52" />
    </g>
    <g>
     <line class="fil0 str0" x1="2924.34" y1="3161.47" x2="3283.48" y2= "3161.47" />
    </g>
    <g>
     <line class="fil0 str0" x1="3283.48" y1="3783.52" x2="3463.05" y2= "3472.49" />
    </g>
    <g>
     <polyline class="fil0 str0" points="4001.74,3783.52 3822.18,3472.49 4001.74,3161.47 "/>
    </g>
    <g>
     <polyline class="fil0 str0" points="4540.44,3472.49 4899.57,3472.49 5079.13,3783.52 "/>
    </g>
    <g>
     <polyline class="fil0 str0" points="4899.57,3472.49 5079.13,3161.47 5438.27,3161.47 5617.83,3472.49 5438.27,3783.52 "/>
    </g>
    <g>
     <polyline class="fil0 str0" points="230.87,4716.57 51.3,4405.55 230.87,4094.53 590,4094.53 "/>
    </g>
    <g>
     <polyline class="fil0 str0" points="769.56,3783.52 1128.69,3783.52 1308.26,4094.53 1128.69,4405.55 "/>
    </g>
    <g>
     <polyline class="fil0 str0" points="1667.39,4094.53 1846.95,3783.52 2206.09,3783.52 2385.65,4094.53 2744.79,4094.53 2924.34,4405.55 "/>
    </g>
    <g>
     <polyline class="fil0 str0" points="2924.34,3783.52 3283.48,3783.52 3463.05,4094.53 3822.18,4094.53 4001.74,3783.52 4360.87,3783.52 "/>
    </g>
    <g>
     <polyline class="fil0 str0" points="4360.87,4405.55 4540.44,4094.53 4899.57,4094.53 5079.13,3783.52 "/>
    </g>
    <g>
     <polyline class="fil0 str0" points="5438.27,3783.52 5617.83,4094.53 5438.27,4405.55 "/>
    </g>
    <g>
     <polyline class="fil0 str0" points="230.87,5338.6 51.3,5027.58 230.87,4716.57 "/>
    </g>
    <g>
     <polyline class="fil0 str0" points="769.56,5027.58 590,4716.57 769.56,4405.55 1128.69,4405.55 "/>
    </g>
    <g>
     <polyline class="fil0 str0" points="1308.26,4716.57 1667.39,4716.57 1846.95,4405.55 2206.09,4405.55 2385.65,4716.57 2744.79,4716.57 2924.34,4405.55 3283.48,4405.55 3463.05,4716.57 3822.18,4716.57 4001.74,5027.58 "/>
    </g>
    <g>
     <line class="fil0 str0" x1="3822.18" y1="4716.57" x2="4001.74" y2= "4405.55" />
    </g>
    <g>
     <polyline class="fil0 str0" points="4360.87,4405.55 4540.44,4716.57 4360.87,5027.58 "/>
    </g>
    <g>
     <polyline class="fil0 str0" points="4899.57,4716.57 5079.13,4405.55 5438.27,4405.55 5617.83,4716.57 5438.27,5027.58 "/>
    </g>
    <g>
     <polyline class="fil0 str0" points="230.87,5960.63 51.3,5649.61 230.87,5338.6 590,5338.6 "/>
    </g>
    <g>
     <polyline class="fil0 str0" points="769.56,5027.58 1128.69,5027.58 1308.26,5338.6 1128.69,5649.61 "/>
    </g>
    <g>
     <polyline class="fil0 str0" points="1846.95,5649.61 1667.39,5338.6 1846.95,5027.58 2206.09,5027.58 2385.65,5338.6 2744.79,5338.6 2924.34,5649.61 "/>
    </g>
    <g>
     <polyline class="fil0 str0" points="2744.79,5338.6 2924.34,5027.58 3283.48,5027.58 "/>
    </g>
    <g>
     <line class="fil0 str0" x1="3283.48" y1="5649.61" x2="3463.05" y2= "5338.6" />
    </g>
    <g>
     <polyline class="fil0 str0" points="4001.74,5649.61 3822.18,5338.6 4001.74,5027.58 "/>
    </g>
    <g>
     <polyline class="fil0 str0" points="4360.87,5027.58 4540.44,5338.6 4899.57,5338.6 5079.13,5649.61 "/>
    </g>
    <g>
     <line class="fil0 str0" x1="4899.57" y1="5338.6" x2="5079.13" y2= "5027.58" />
    </g>
    <g>
     <polyline class="fil0 str0" points="5438.27,5027.58 5617.83,5338.6 5438.27,5649.61 "/>
    </g>
    <g>
     <polyline class="fil0 str0" points="230.87,6582.66 51.3,6271.65 230.87,5960.63 "/>
    </g>
    <g>
     <polyline class="fil0 str0" points="590,5960.63 769.56,5649.61 1128.69,5649.61 "/>
    </g>
    <g>
     <polyline class="fil0 str0" points="1308.26,5960.63 1667.39,5960.63 1846.95,5649.61 2206.09,5649.61 2385.65,5960.63 "/>
    </g>
    <g>
     <polyline class="fil0 str0" points="2924.34,6271.65 2744.79,5960.63 2924.34,5649.61 "/>
    </g>
    <g>
     <polyline class="fil0 str0" points="3283.48,5649.61 3463.05,5960.63 3822.18,5960.63 4001.74,6271.65 "/>
    </g>
    <g>
     <polyline class="fil0 str0" points="4001.74,5649.61 4360.87,5649.61 4540.44,5960.63 4899.57,5960.63 "/>
    </g>
    <g>
     <polyline class="fil0 str0" points="5438.27,5649.61 5617.83,5960.63 5438.27,6271.65 "/>
    </g>
    <g>
     <polyline class="fil0 str0" points="769.56,6271.65 590,6582.66 230.87,6582.66 "/>
    </g>
    <g>
     <line class="fil0 str0" x1="1128.69" y1="6271.65" x2="769.56" y2= "6271.65" />
    </g>
    <g>
     <polyline class="fil0 str0" points="1846.95,6271.65 1667.39,6582.66 1308.26,6582.66 1128.69,6271.65 "/>
    </g>
    <g>
     <line class="fil0 str0" x1="2206.09" y1="6271.65" x2="1846.95" y2= "6271.65" />
    </g>
    <g>
     <polyline class="fil0 str0" points="2924.34,6271.65 2744.79,6582.66 2385.65,6582.66 2206.09,6271.65 "/>
    </g>
    <g>
     <polyline class="fil0 str0" points="4001.74,6271.65 3822.18,6582.66 3463.05,6582.66 3283.48,6271.65 "/>
    </g>
    <g>
     <line class="fil0 str0" x1="4360.87" y1="6271.65" x2="4001.74" y2= "6271.65" />
    </g>
    <g>
     <polyline class="fil0 str0" points="5079.13,6271.65 4899.57,6582.66 4540.44,6582.66 4360.87,6271.65 "/>
    </g>
    <g>
     <line class="fil0 str0" x1="5438.27" y1="6271.65" x2="5079.13" y2= "6271.65" />
    </g>
   </g>
  </g>
  <g>
   <g>
    <g>
     <polyline class="fil0 str1" points="230.87,984.36 51.3,673.34 230.87,362.32 590,362.32 769.56,673.34 "/>
    </g>
    <g>
     <polyline class="fil0 str1" points="590,362.32 769.56,51.31 1128.69,51.31 1308.26,362.32 1667.39,362.32 1846.95,51.31 2206.09,51.31 2385.65,362.32 2206.09,673.34 "/>
    </g>
    <g>
     <polyline class="fil0 str1" points="2924.34,673.34 2744.79,362.32 2924.34,51.31 3283.48,51.31 3463.05,362.32 3822.18,362.32 4001.74,673.34 "/>
    </g>
    <g>
     <polyline class="fil0 str1" points="3822.18,362.32 4001.74,51.31 4360.87,51.31 4540.44,362.32 4899.57,362.32 5079.13,673.34 "/>
    </g>
    <g>
     <polyline class="fil0 str1" points="4899.57,362.32 5079.13,51.31 5438.27,51.31 5617.83,362.32 5438.27,673.34 "/>
    </g>
    <g>
     <polyline class="fil0 str1" points="230.87,1606.39 51.3,1295.37 230.87,984.36 "/>
    </g>
    <g>
     <polyline class="fil0 str1" points="769.56,1295.37 590,984.36 769.56,673.34 "/>
    </g>
    <g>
     <polyline class="fil0 str1" points="1128.69,673.34 1308.26,984.36 1128.69,1295.37 "/>
    </g>
    <g>
     <polyline class="fil0 str1" points="1308.26,984.36 1667.39,984.36 1846.95,1295.37 "/>
    </g>
    <g>
     <line class="fil0 str1" x1="1667.39" y1="984.36" x2="1846.95" y2= "673.34" />
    </g>
    <g>
     <polyline class="fil0 str1" points="2206.09,1295.37 2385.65,984.36 2744.79,984.36 2924.34,673.34 "/>
    </g>
    <g>
     <polyline class="fil0 str1" points="3283.48,673.34 3463.05,984.36 3283.48,1295.37 "/>
    </g>
    <g>
     <polyline class="fil0 str1" points="3463.05,984.36 3822.18,984.36 4001.74,673.34 "/>
    </g>
    <g>
     <polyline class="fil0 str1" points="4360.87,673.34 4540.44,984.36 4360.87,1295.37 "/>
    </g>
    <g>
     <polyline class="fil0 str1" points="4540.44,984.36 4899.57,984.36 5079.13,1295.37 "/>
    </g>
    <g>
     <polyline class="fil0 str1" points="5438.27,673.34 5617.83,984.36 5438.27,1295.37 "/>
    </g>
    <g>
     <polyline class="fil0 str1" points="230.87,2228.42 51.3,1917.41 230.87,1606.39 "/>
    </g>
    <g>
     <polyline class="fil0 str1" points="769.56,1917.41 590,1606.39 769.56,1295.37 "/>
    </g>
    <g>
     <polyline class="fil0 str1" points="1128.69,1295.37 1308.26,1606.39 1667.39,1606.39 1846.95,1917.41 "/>
    </g>
    <g>
     <line class="fil0 str1" x1="1846.95" y1="1295.37" x2="2206.09" y2= "1295.37" />
    </g>
    <g>
     <polyline class="fil0 str1" points="2206.09,1917.41 2385.65,1606.39 2744.79,1606.39 2924.34,1917.41 "/>
    </g>
    <g>
     <polyline class="fil0 str1" points="2924.34,1295.37 3283.48,1295.37 3463.05,1606.39 3822.18,1606.39 4001.74,1917.41 "/>
    </g>
    <g>
     <line class="fil0 str1" x1="4001.74" y1="1295.37" x2="4360.87" y2= "1295.37" />
    </g>
    <g>
     <polyline class="fil0 str1" points="4360.87,1917.41 4540.44,1606.39 4899.57,1606.39 5079.13,1295.37 "/>
    </g>
    <g>
     <polyline class="fil0 str1" points="5438.27,1295.37 5617.83,1606.39 5438.27,1917.41 "/>
    </g>
    <g>
     <polyline class="fil0 str1" points="230.87,2850.46 51.3,2539.44 230.87,2228.42 "/>
    </g>
    <g>
     <polyline class="fil0 str1" points="590,2228.42 769.56,1917.41 1128.69,1917.41 1308.26,2228.42 1667.39,2228.42 1846.95,2539.44 "/>
    </g>
    <g>
     <line class="fil0 str1" x1="1846.95" y1="1917.41" x2="2206.09" y2= "1917.41" />
    </g>
    <g>
     <polyline class="fil0 str1" points="2206.09,2539.44 2385.65,2228.42 2744.79,2228.42 2924.34,2539.44 "/>
    </g>
    <g>
     <line class="fil0 str1" x1="2924.34" y1="1917.41" x2="3283.48" y2= "1917.41" />
    </g>
    <g>
     <line class="fil0 str1" x1="3283.48" y1="2539.44" x2="3463.05" y2= "2228.42" />
    </g>
    <g>
     <polyline class="fil0 str1" points="3822.18,2228.42 4001.74,1917.41 4360.87,1917.41 4540.44,2228.42 "/>
    </g>
    <g>
     <polyline class="fil0 str1" points="5079.13,2539.44 4899.57,2228.42 5079.13,1917.41 5438.27,1917.41 5617.83,2228.42 5438.27,2539.44 "/>
    </g>
    <g>
     <polyline class="fil0 str1" points="230.87,3472.49 51.3,3161.47 230.87,2850.46 590,2850.46 769.56,2539.44 1128.69,2539.44 1308.26,2850.46 1128.69,3161.47 "/>
    </g>
    <g>
     <polyline class="fil0 str1" points="1667.39,2850.46 1846.95,2539.44 2206.09,2539.44 "/>
    </g>
    <g>
     <polyline class="fil0 str1" points="2206.09,3161.47 2385.65,2850.46 2744.79,2850.46 "/>
    </g>
    <g>
     <polyline class="fil0 str1" points="2924.34,2539.44 3283.48,2539.44 3463.05,2850.46 3283.48,3161.47 "/>
    </g>
    <g>
     <polyline class="fil0 str1" points="3463.05,2850.46 3822.18,2850.46 4001.74,3161.47 "/>
    </g>
    <g>
     <polyline class="fil0 str1" points="3822.18,2850.46 4001.74,2539.44 4360.87,2539.44 4540.44,2850.46 4360.87,3161.47 "/>
    </g>
    <g>
     <line class="fil0 str1" x1="4540.44" y1="2850.46" x2="4899.57" y2= "2850.46" />
    </g>
    <g>
     <polyline class="fil0 str1" points="5438.27,2539.44 5617.83,2850.46 5438.27,3161.47 "/>
    </g>
    <g>
     <polyline class="fil0 str1" points="230.87,4094.53 51.3,3783.52 230.87,3472.49 590,3472.49 769.56,3161.47 "/>
    </g>
    <g>
     <polyline class="fil0 str1" points="1128.69,3161.47 1308.26,3472.49 1128.69,3783.52 "/>
    </g>
    <g>
     <polyline class="fil0 str1" points="1308.26,3472.49 1667.39,3472.49 1846.95,3161.47 2206.09,3161.47 2385.65,3472.49 2206.09,3783.52 "/>
    </g>
    <g>
     <line class="fil0 str1" x1="2744.79" y1="3472.49" x2="2924.34" y2= "3783.52" />
    </g>
    <g>
     <line class="fil0 str1" x1="2924.34" y1="3161.47" x2="3283.48" y2= "3161.47" />
    </g>
    <g>
     <line class="fil0 str1" x1="3283.48" y1="3783.52" x2="3463.05" y2= "3472.49" />
    </g>
    <g>
     <polyline class="fil0 str1" points="4001.74,3783.52 3822.18,3472.49 4001.74,3161.47 "/>
    </g>
    <g>
     <polyline class="fil0 str1" points="4540.44,3472.49 4899.57,3472.49 5079.13,3783.52 "/>
    </g>
    <g>
     <polyline class="fil0 str1" points="4899.57,3472.49 5079.13,3161.47 5438.27,3161.47 5617.83,3472.49 5438.27,3783.52 "/>
    </g>
    <g>
     <polyline class="fil0 str1" points="230.87,4716.57 51.3,4405.55 230.87,4094.53 590,4094.53 "/>
    </g>
    <g>
     <polyline class="fil0 str1" points="769.56,3783.52 1128.69,3783.52 1308.26,4094.53 1128.69,4405.55 "/>
    </g>
    <g>
     <polyline class="fil0 str1" points="1667.39,4094.53 1846.95,3783.52 2206.09,3783.52 2385.65,4094.53 2744.79,4094.53 2924.34,4405.55 "/>
    </g>
    <g>
     <polyline class="fil0 str1" points="2924.34,3783.52 3283.48,3783.52 3463.05,4094.53 3822.18,4094.53 4001.74,3783.52 4360.87,3783.52 "/>
    </g>
    <g>
     <polyline class="fil0 str1" points="4360.87,4405.55 4540.44,4094.53 4899.57,4094.53 5079.13,3783.52 "/>
    </g>
    <g>
     <polyline class="fil0 str1" points="5438.27,3783.52 5617.83,4094.53 5438.27,4405.55 "/>
    </g>
    <g>
     <polyline class="fil0 str1" points="230.87,5338.6 51.3,5027.58 230.87,4716.57 "/>
    </g>
    <g>
     <polyline class="fil0 str1" points="769.56,5027.58 590,4716.57 769.56,4405.55 1128.69,4405.55 "/>
    </g>
    <g>
     <polyline class="fil0 str1" points="1308.26,4716.57 1667.39,4716.57 1846.95,4405.55 2206.09,4405.55 2385.65,4716.57 2744.79,4716.57 2924.34,4405.55 3283.48,4405.55 3463.05,4716.57 3822.18,4716.57 4001.74,5027.58 "/>
    </g>
    <g>
     <line class="fil0 str1" x1="3822.18" y1="4716.57" x2="4001.74" y2= "4405.55" />
    </g>
    <g>
     <polyline class="fil0 str1" points="4360.87,4405.55 4540.44,4716.57 4360.87,5027.58 "/>
    </g>
    <g>
     <polyline class="fil0 str1" points="4899.57,4716.57 5079.13,4405.55 5438.27,4405.55 5617.83,4716.57 5438.27,5027.58 "/>
    </g>
    <g>
     <polyline class="fil0 str1" points="230.87,5960.63 51.3,5649.61 230.87,5338.6 590,5338.6 "/>
    </g>
    <g>
     <polyline class="fil0 str1" points="769.56,5027.58 1128.69,5027.58 1308.26,5338.6 1128.69,5649.61 "/>
    </g>
    <g>
     <polyline class="fil0 str1" points="1846.95,5649.61 1667.39,5338.6 1846.95,5027.58 2206.09,5027.58 2385.65,5338.6 2744.79,5338.6 2924.34,5649.61 "/>
    </g>
    <g>
     <polyline class="fil0 str1" points="2744.79,5338.6 2924.34,5027.58 3283.48,5027.58 "/>
    </g>
    <g>
     <line class="fil0 str1" x1="3283.48" y1="5649.61" x2="3463.05" y2= "5338.6" />
    </g>
    <g>
     <polyline class="fil0 str1" points="4001.74,5649.61 3822.18,5338.6 4001.74,5027.58 "/>
    </g>
    <g>
     <polyline class="fil0 str1" points="4360.87,5027.58 4540.44,5338.6 4899.57,5338.6 5079.13,5649.61 "/>
    </g>
    <g>
     <line class="fil0 str1" x1="4899.57" y1="5338.6" x2="5079.13" y2= "5027.58" />
    </g>
    <g>
     <polyline class="fil0 str1" points="5438.27,5027.58 5617.83,5338.6 5438.27,5649.61 "/>
    </g>
    <g>
     <polyline class="fil0 str1" points="230.87,6582.66 51.3,6271.65 230.87,5960.63 "/>
    </g>
    <g>
     <polyline class="fil0 str1" points="590,5960.63 769.56,5649.61 1128.69,5649.61 "/>
    </g>
    <g>
     <polyline class="fil0 str1" points="1308.26,5960.63 1667.39,5960.63 1846.95,5649.61 2206.09,5649.61 2385.65,5960.63 "/>
    </g>
    <g>
     <polyline class="fil0 str1" points="2924.34,6271.65 2744.79,5960.63 2924.34,5649.61 "/>
    </g>
    <g>
     <polyline class="fil0 str1" points="3283.48,5649.61 3463.05,5960.63 3822.18,5960.63 4001.74,6271.65 "/>
    </g>
    <g>
     <polyline class="fil0 str1" points="4001.74,5649.61 4360.87,5649.61 4540.44,5960.63 4899.57,5960.63 "/>
    </g>
    <g>
     <polyline class="fil0 str1" points="5438.27,5649.61 5617.83,5960.63 5438.27,6271.65 "/>
    </g>
    <g>
     <polyline class="fil0 str1" points="769.56,6271.65 590,6582.66 230.87,6582.66 "/>
    </g>
    <g>
     <line class="fil0 str1" x1="1128.69" y1="6271.65" x2="769.56" y2= "6271.65" />
    </g>
    <g>
     <polyline class="fil0 str1" points="1846.95,6271.65 1667.39,6582.66 1308.26,6582.66 1128.69,6271.65 "/>
    </g>
    <g>
     <line class="fil0 str1" x1="2206.09" y1="6271.65" x2="1846.95" y2= "6271.65" />
    </g>
    <g>
     <polyline class="fil0 str1" points="2924.34,6271.65 2744.79,6582.66 2385.65,6582.66 2206.09,6271.65 "/>
    </g>
    <g>
     <polyline class="fil0 str1" points="4001.74,6271.65 3822.18,6582.66 3463.05,6582.66 3283.48,6271.65 "/>
    </g>
    <g>
     <line class="fil0 str1" x1="4360.87" y1="6271.65" x2="4001.74" y2= "6271.65" />
    </g>
    <g>
     <polyline class="fil0 str1" points="5079.13,6271.65 4899.57,6582.66 4540.44,6582.66 4360.87,6271.65 "/>
    </g>
    <g>
     <line class="fil0 str1" x1="5438.27" y1="6271.65" x2="5079.13" y2= "6271.65" />
    </g>
   </g>
  </g>
 </g>
</svg>
