<?xml version="1.0" encoding="UTF-8"?>
<!DOCTYPE svg PUBLIC "-//W3C//DTD SVG 1.1//EN" "http://www.w3.org/Graphics/SVG/1.1/DTD/svg11.dtd">
<!-- Creator: CorelDRAW 2018 (64-Bit) -->
<svg xmlns="http://www.w3.org/2000/svg" xml:space="preserve" width="1.30208in" height="2.02631in" version="1.1" style="shape-rendering:geometricPrecision; text-rendering:geometricPrecision; image-rendering:optimizeQuality; fill-rule:evenodd; clip-rule:evenodd"
viewBox="0 0 96.86 150.73"
 xmlns:xlink="http://www.w3.org/1999/xlink">
 <defs>
  <style type="text/css">
   <![CDATA[
    .str0 {stroke:#FB0501;stroke-width:3.1;stroke-linecap:round;stroke-linejoin:round;stroke-miterlimit:2.61313}
    .str1 {stroke:white;stroke-width:2.07;stroke-linecap:round;stroke-linejoin:round;stroke-miterlimit:2.61313}
    .fil0 {fill:none}
   ]]>
  </style>
 </defs>
 <g id="Layer_x0020_1">
  <metadata id="CorelCorpID_0Corel-Layer"/>
  <g id="_2423878268624">
   <g>
    <g>
     <line class="fil0 str0" x1="10.07" y1="1.55" x2="44.17" y2= "1.55" />
    </g>
    <g>
     <line class="fil0 str0" x1="61.21" y1="1.55" x2="95.31" y2= "1.55" />
    </g>
    <g>
     <line class="fil0 str0" x1="35.64" y1="16.31" x2="52.69" y2= "16.31" />
    </g>
    <g>
     <line class="fil0 str0" x1="69.74" y1="16.31" x2="86.78" y2= "16.31" />
    </g>
    <g>
     <line class="fil0 str0" x1="27.12" y1="31.08" x2="44.17" y2= "31.08" />
    </g>
    <g>
     <line class="fil0 str0" x1="35.64" y1="45.84" x2="52.69" y2= "45.84" />
    </g>
    <g>
     <line class="fil0 str0" x1="10.07" y1="60.6" x2="27.12" y2= "60.6" />
    </g>
    <g>
     <line class="fil0 str0" x1="69.74" y1="104.89" x2="86.78" y2= "104.89" />
    </g>
    <g>
     <line class="fil0 str0" x1="27.12" y1="119.65" x2="44.17" y2= "119.65" />
    </g>
    <g>
     <line class="fil0 str0" x1="61.21" y1="119.65" x2="78.26" y2= "119.65" />
    </g>
    <g>
     <line class="fil0 str0" x1="18.6" y1="134.42" x2="35.64" y2= "134.42" />
    </g>
    <g>
     <line class="fil0 str0" x1="10.07" y1="149.18" x2="44.17" y2= "149.18" />
    </g>
    <g>
     <line class="fil0 str0" x1="61.21" y1="149.18" x2="95.31" y2= "149.18" />
    </g>
    <g>
     <polyline class="fil0 str0" points="10.07,1.55 1.55,16.31 10.07,31.08 1.55,45.84 "/>
    </g>
    <g>
     <line class="fil0 str0" x1="1.55" y1="45.84" x2="10.07" y2= "60.6" />
    </g>
    <g>
     <line class="fil0 str0" x1="10.07" y1="60.6" x2="1.55" y2= "75.36" />
    </g>
    <g>
     <polyline class="fil0 str0" points="1.55,75.36 10.07,90.13 1.55,104.89 10.07,119.65 "/>
    </g>
    <g>
     <line class="fil0 str0" x1="10.07" y1="119.65" x2="1.55" y2= "134.42" />
    </g>
    <g>
     <line class="fil0 str0" x1="1.55" y1="134.42" x2="10.07" y2= "149.18" />
    </g>
    <g>
     <line class="fil0 str0" x1="18.6" y1="75.36" x2="10.07" y2= "90.13" />
    </g>
    <g>
     <line class="fil0 str0" x1="27.12" y1="1.55" x2="18.6" y2= "16.31" />
    </g>
    <g>
     <line class="fil0 str0" x1="27.12" y1="31.08" x2="18.6" y2= "45.84" />
    </g>
    <g>
     <line class="fil0 str0" x1="27.12" y1="90.13" x2="18.6" y2= "104.89" />
    </g>
    <g>
     <line class="fil0 str0" x1="27.12" y1="119.65" x2="18.6" y2= "134.42" />
    </g>
    <g>
     <line class="fil0 str0" x1="35.64" y1="16.31" x2="27.12" y2= "31.08" />
    </g>
    <g>
     <line class="fil0 str0" x1="27.12" y1="60.6" x2="35.64" y2= "75.36" />
    </g>
    <g>
     <line class="fil0 str0" x1="35.64" y1="75.36" x2="27.12" y2= "90.13" />
    </g>
    <g>
     <line class="fil0 str0" x1="35.64" y1="104.89" x2="27.12" y2= "119.65" />
    </g>
    <g>
     <line class="fil0 str0" x1="35.64" y1="45.84" x2="44.17" y2= "60.6" />
    </g>
    <g>
     <polyline class="fil0 str0" points="35.64,104.89 44.17,90.13 52.69,75.36 "/>
    </g>
    <g>
     <line class="fil0 str0" x1="44.17" y1="90.13" x2="52.69" y2= "104.89" />
    </g>
    <g>
     <line class="fil0 str0" x1="44.17" y1="119.65" x2="52.69" y2= "134.42" />
    </g>
    <g>
     <line class="fil0 str0" x1="52.69" y1="134.42" x2="44.17" y2= "149.18" />
    </g>
    <g>
     <polyline class="fil0 str0" points="61.21,1.55 52.69,16.31 61.21,31.08 52.69,45.84 "/>
    </g>
    <g>
     <line class="fil0 str0" x1="52.69" y1="45.84" x2="61.21" y2= "60.6" />
    </g>
    <g>
     <line class="fil0 str0" x1="52.69" y1="75.36" x2="61.21" y2= "90.13" />
    </g>
    <g>
     <line class="fil0 str0" x1="61.21" y1="31.08" x2="69.74" y2= "45.84" />
    </g>
    <g>
     <line class="fil0 str0" x1="61.21" y1="60.6" x2="69.74" y2= "75.36" />
    </g>
    <g>
     <line class="fil0 str0" x1="69.74" y1="134.42" x2="61.21" y2= "149.18" />
    </g>
    <g>
     <line class="fil0 str0" x1="78.26" y1="60.6" x2="69.74" y2= "75.36" />
    </g>
    <g>
     <line class="fil0 str0" x1="78.26" y1="31.08" x2="86.78" y2= "45.84" />
    </g>
    <g>
     <line class="fil0 str0" x1="86.78" y1="75.36" x2="78.26" y2= "90.13" />
    </g>
    <g>
     <line class="fil0 str0" x1="78.26" y1="119.65" x2="86.78" y2= "134.42" />
    </g>
    <g>
     <polyline class="fil0 str0" points="95.31,1.55 86.78,16.31 95.31,31.08 86.78,45.84 "/>
    </g>
    <g>
     <line class="fil0 str0" x1="86.78" y1="45.84" x2="95.31" y2= "60.6" />
    </g>
    <g>
     <line class="fil0 str0" x1="95.31" y1="60.6" x2="86.78" y2= "75.36" />
    </g>
    <g>
     <polyline class="fil0 str0" points="86.78,75.36 95.31,90.13 86.78,104.89 95.31,119.65 "/>
    </g>
    <g>
     <line class="fil0 str0" x1="95.31" y1="119.65" x2="86.78" y2= "134.42" />
    </g>
    <g>
     <line class="fil0 str0" x1="86.78" y1="134.42" x2="95.31" y2= "149.18" />
    </g>
   </g>
  </g>
  <g>
   <g>
    <g>
     <line class="fil0 str1" x1="10.07" y1="1.55" x2="44.17" y2= "1.55" />
    </g>
    <g>
     <line class="fil0 str1" x1="61.21" y1="1.55" x2="95.31" y2= "1.55" />
    </g>
    <g>
     <line class="fil0 str1" x1="35.64" y1="16.31" x2="52.69" y2= "16.31" />
    </g>
    <g>
     <line class="fil0 str1" x1="69.74" y1="16.31" x2="86.78" y2= "16.31" />
    </g>
    <g>
     <line class="fil0 str1" x1="27.12" y1="31.08" x2="44.17" y2= "31.08" />
    </g>
    <g>
     <line class="fil0 str1" x1="35.64" y1="45.84" x2="52.69" y2= "45.84" />
    </g>
    <g>
     <line class="fil0 str1" x1="10.07" y1="60.6" x2="27.12" y2= "60.6" />
    </g>
    <g>
     <line class="fil0 str1" x1="69.74" y1="104.89" x2="86.78" y2= "104.89" />
    </g>
    <g>
     <line class="fil0 str1" x1="27.12" y1="119.65" x2="44.17" y2= "119.65" />
    </g>
    <g>
     <line class="fil0 str1" x1="61.21" y1="119.65" x2="78.26" y2= "119.65" />
    </g>
    <g>
     <line class="fil0 str1" x1="18.6" y1="134.42" x2="35.64" y2= "134.42" />
    </g>
    <g>
     <line class="fil0 str1" x1="10.07" y1="149.18" x2="44.17" y2= "149.18" />
    </g>
    <g>
     <line class="fil0 str1" x1="61.21" y1="149.18" x2="95.31" y2= "149.18" />
    </g>
    <g>
     <polyline class="fil0 str1" points="10.07,1.55 1.55,16.31 10.07,31.08 1.55,45.84 "/>
    </g>
    <g>
     <line class="fil0 str1" x1="1.55" y1="45.84" x2="10.07" y2= "60.6" />
    </g>
    <g>
     <line class="fil0 str1" x1="10.07" y1="60.6" x2="1.55" y2= "75.36" />
    </g>
    <g>
     <polyline class="fil0 str1" points="1.55,75.36 10.07,90.13 1.55,104.89 10.07,119.65 "/>
    </g>
    <g>
     <line class="fil0 str1" x1="10.07" y1="119.65" x2="1.55" y2= "134.42" />
    </g>
    <g>
     <line class="fil0 str1" x1="1.55" y1="134.42" x2="10.07" y2= "149.18" />
    </g>
    <g>
     <line class="fil0 str1" x1="18.6" y1="75.36" x2="10.07" y2= "90.13" />
    </g>
    <g>
     <line class="fil0 str1" x1="27.12" y1="1.55" x2="18.6" y2= "16.31" />
    </g>
    <g>
     <line class="fil0 str1" x1="27.12" y1="31.08" x2="18.6" y2= "45.84" />
    </g>
    <g>
     <line class="fil0 str1" x1="27.12" y1="90.13" x2="18.6" y2= "104.89" />
    </g>
    <g>
     <line class="fil0 str1" x1="27.12" y1="119.65" x2="18.6" y2= "134.42" />
    </g>
    <g>
     <line class="fil0 str1" x1="35.64" y1="16.31" x2="27.12" y2= "31.08" />
    </g>
    <g>
     <line class="fil0 str1" x1="27.12" y1="60.6" x2="35.64" y2= "75.36" />
    </g>
    <g>
     <line class="fil0 str1" x1="35.64" y1="75.36" x2="27.12" y2= "90.13" />
    </g>
    <g>
     <line class="fil0 str1" x1="35.64" y1="104.89" x2="27.12" y2= "119.65" />
    </g>
    <g>
     <line class="fil0 str1" x1="35.64" y1="45.84" x2="44.17" y2= "60.6" />
    </g>
    <g>
     <polyline class="fil0 str1" points="35.64,104.89 44.17,90.13 52.69,75.36 "/>
    </g>
    <g>
     <line class="fil0 str1" x1="44.17" y1="90.13" x2="52.69" y2= "104.89" />
    </g>
    <g>
     <line class="fil0 str1" x1="44.17" y1="119.65" x2="52.69" y2= "134.42" />
    </g>
    <g>
     <line class="fil0 str1" x1="52.69" y1="134.42" x2="44.17" y2= "149.18" />
    </g>
    <g>
     <polyline class="fil0 str1" points="61.21,1.55 52.69,16.31 61.21,31.08 52.69,45.84 "/>
    </g>
    <g>
     <line class="fil0 str1" x1="52.69" y1="45.84" x2="61.21" y2= "60.6" />
    </g>
    <g>
     <line class="fil0 str1" x1="52.69" y1="75.36" x2="61.21" y2= "90.13" />
    </g>
    <g>
     <line class="fil0 str1" x1="61.21" y1="31.08" x2="69.74" y2= "45.84" />
    </g>
    <g>
     <line class="fil0 str1" x1="61.21" y1="60.6" x2="69.74" y2= "75.36" />
    </g>
    <g>
     <line class="fil0 str1" x1="69.74" y1="134.42" x2="61.21" y2= "149.18" />
    </g>
    <g>
     <line class="fil0 str1" x1="78.26" y1="60.6" x2="69.74" y2= "75.36" />
    </g>
    <g>
     <line class="fil0 str1" x1="78.26" y1="31.08" x2="86.78" y2= "45.84" />
    </g>
    <g>
     <line class="fil0 str1" x1="86.78" y1="75.36" x2="78.26" y2= "90.13" />
    </g>
    <g>
     <line class="fil0 str1" x1="78.26" y1="119.65" x2="86.78" y2= "134.42" />
    </g>
    <g>
     <polyline class="fil0 str1" points="95.31,1.55 86.78,16.31 95.31,31.08 86.78,45.84 "/>
    </g>
    <g>
     <line class="fil0 str1" x1="86.78" y1="45.84" x2="95.31" y2= "60.6" />
    </g>
    <g>
     <line class="fil0 str1" x1="95.31" y1="60.6" x2="86.78" y2= "75.36" />
    </g>
    <g>
     <polyline class="fil0 str1" points="86.78,75.36 95.31,90.13 86.78,104.89 95.31,119.65 "/>
    </g>
    <g>
     <line class="fil0 str1" x1="95.31" y1="119.65" x2="86.78" y2= "134.42" />
    </g>
    <g>
     <line class="fil0 str1" x1="86.78" y1="134.42" x2="95.31" y2= "149.18" />
    </g>
   </g>
  </g>
 </g>
</svg>
