<?xml version="1.0" encoding="UTF-8"?>
<!DOCTYPE svg PUBLIC "-//W3C//DTD SVG 1.1//EN" "http://www.w3.org/Graphics/SVG/1.1/DTD/svg11.dtd">
<!-- Creator: CorelDRAW 2018 (64-Bit) -->
<svg xmlns="http://www.w3.org/2000/svg" xml:space="preserve" width="1.70834in" height="1.70834in" version="1.1" style="shape-rendering:geometricPrecision; text-rendering:geometricPrecision; image-rendering:optimizeQuality; fill-rule:evenodd; clip-rule:evenodd"
viewBox="0 0 48.78 48.78"
 xmlns:xlink="http://www.w3.org/1999/xlink">
 <defs>
  <style type="text/css">
   <![CDATA[
    .str0 {stroke:#FB0501;stroke-width:1.19;stroke-linecap:square;stroke-miterlimit:2.61313}
    .str1 {stroke:white;stroke-width:0.79;stroke-linecap:square;stroke-miterlimit:2.61313}
    .fil0 {fill:none}
   ]]>
  </style>
 </defs>
 <g id="Layer_x0020_1">
  <metadata id="CorelCorpID_0Corel-Layer"/>
  <g id="_2423800805872">
   <g>
    <g>
     <line class="fil0 str0" x1="0.59" y1="0.59" x2="19.63" y2= "0.59" />
    </g>
    <g>
     <line class="fil0 str0" x1="24.39" y1="0.59" x2="48.18" y2= "0.59" />
    </g>
    <g>
     <line class="fil0 str0" x1="14.87" y1="5.35" x2="24.39" y2= "5.35" />
    </g>
    <g>
     <line class="fil0 str0" x1="33.91" y1="5.35" x2="38.67" y2= "5.35" />
    </g>
    <g>
     <line class="fil0 str0" x1="5.35" y1="10.11" x2="29.15" y2= "10.11" />
    </g>
    <g>
     <line class="fil0 str0" x1="0.59" y1="14.87" x2="19.63" y2= "14.87" />
    </g>
    <g>
     <line class="fil0 str0" x1="29.15" y1="14.87" x2="38.67" y2= "14.87" />
    </g>
    <g>
     <line class="fil0 str0" x1="5.35" y1="19.63" x2="14.87" y2= "19.63" />
    </g>
    <g>
     <line class="fil0 str0" x1="19.63" y1="19.63" x2="24.39" y2= "19.63" />
    </g>
    <g>
     <line class="fil0 str0" x1="38.67" y1="19.63" x2="43.42" y2= "19.63" />
    </g>
    <g>
     <line class="fil0 str0" x1="0.59" y1="24.39" x2="10.11" y2= "24.39" />
    </g>
    <g>
     <line class="fil0 str0" x1="14.87" y1="24.39" x2="19.63" y2= "24.39" />
    </g>
    <g>
     <line class="fil0 str0" x1="24.39" y1="24.39" x2="29.15" y2= "24.39" />
    </g>
    <g>
     <line class="fil0 str0" x1="38.67" y1="24.39" x2="43.42" y2= "24.39" />
    </g>
    <g>
     <line class="fil0 str0" x1="10.11" y1="29.15" x2="14.87" y2= "29.15" />
    </g>
    <g>
     <line class="fil0 str0" x1="19.63" y1="29.15" x2="24.39" y2= "29.15" />
    </g>
    <g>
     <line class="fil0 str0" x1="29.15" y1="29.15" x2="38.67" y2= "29.15" />
    </g>
    <g>
     <line class="fil0 str0" x1="0.59" y1="33.91" x2="10.11" y2= "33.91" />
    </g>
    <g>
     <line class="fil0 str0" x1="24.39" y1="33.91" x2="38.67" y2= "33.91" />
    </g>
    <g>
     <line class="fil0 str0" x1="5.35" y1="38.67" x2="14.87" y2= "38.67" />
    </g>
    <g>
     <line class="fil0 str0" x1="19.63" y1="38.67" x2="29.15" y2= "38.67" />
    </g>
    <g>
     <line class="fil0 str0" x1="33.91" y1="38.67" x2="43.42" y2= "38.67" />
    </g>
    <g>
     <line class="fil0 str0" x1="19.63" y1="43.42" x2="24.39" y2= "43.42" />
    </g>
    <g>
     <line class="fil0 str0" x1="29.15" y1="43.42" x2="33.91" y2= "43.42" />
    </g>
    <g>
     <line class="fil0 str0" x1="43.42" y1="43.42" x2="48.18" y2= "43.42" />
    </g>
    <g>
     <line class="fil0 str0" x1="0.59" y1="48.18" x2="24.39" y2= "48.18" />
    </g>
    <g>
     <line class="fil0 str0" x1="29.15" y1="48.18" x2="48.18" y2= "48.18" />
    </g>
    <g>
     <line class="fil0 str0" x1="0.59" y1="0.59" x2="0.59" y2= "48.18" />
    </g>
    <g>
     <line class="fil0 str0" x1="5.35" y1="5.35" x2="5.35" y2= "10.11" />
    </g>
    <g>
     <line class="fil0 str0" x1="5.35" y1="29.15" x2="5.35" y2= "33.91" />
    </g>
    <g>
     <line class="fil0 str0" x1="5.35" y1="38.67" x2="5.35" y2= "43.42" />
    </g>
    <g>
     <line class="fil0 str0" x1="10.11" y1="0.59" x2="10.11" y2= "5.35" />
    </g>
    <g>
     <line class="fil0 str0" x1="10.11" y1="24.39" x2="10.11" y2= "29.15" />
    </g>
    <g>
     <line class="fil0 str0" x1="10.11" y1="43.42" x2="10.11" y2= "48.18" />
    </g>
    <g>
     <line class="fil0 str0" x1="14.87" y1="5.35" x2="14.87" y2= "10.11" />
    </g>
    <g>
     <line class="fil0 str0" x1="14.87" y1="14.87" x2="14.87" y2= "24.39" />
    </g>
    <g>
     <line class="fil0 str0" x1="14.87" y1="29.15" x2="14.87" y2= "43.42" />
    </g>
    <g>
     <line class="fil0 str0" x1="19.63" y1="24.39" x2="19.63" y2= "29.15" />
    </g>
    <g>
     <line class="fil0 str0" x1="19.63" y1="33.91" x2="19.63" y2= "38.67" />
    </g>
    <g>
     <line class="fil0 str0" x1="24.39" y1="0.59" x2="24.39" y2= "5.35" />
    </g>
    <g>
     <line class="fil0 str0" x1="24.39" y1="10.11" x2="24.39" y2= "24.39" />
    </g>
    <g>
     <line class="fil0 str0" x1="24.39" y1="29.15" x2="24.39" y2= "33.91" />
    </g>
    <g>
     <line class="fil0 str0" x1="24.39" y1="43.42" x2="24.39" y2= "48.18" />
    </g>
    <g>
     <line class="fil0 str0" x1="29.15" y1="0.59" x2="29.15" y2= "5.35" />
    </g>
    <g>
     <line class="fil0 str0" x1="29.15" y1="10.11" x2="29.15" y2= "14.87" />
    </g>
    <g>
     <line class="fil0 str0" x1="29.15" y1="19.63" x2="29.15" y2= "29.15" />
    </g>
    <g>
     <line class="fil0 str0" x1="29.15" y1="33.91" x2="29.15" y2= "43.42" />
    </g>
    <g>
     <line class="fil0 str0" x1="33.91" y1="5.35" x2="33.91" y2= "10.11" />
    </g>
    <g>
     <line class="fil0 str0" x1="33.91" y1="14.87" x2="33.91" y2= "19.63" />
    </g>
    <g>
     <line class="fil0 str0" x1="33.91" y1="24.39" x2="33.91" y2= "29.15" />
    </g>
    <g>
     <line class="fil0 str0" x1="38.67" y1="0.59" x2="38.67" y2= "5.35" />
    </g>
    <g>
     <line class="fil0 str0" x1="38.67" y1="10.11" x2="38.67" y2= "14.87" />
    </g>
    <g>
     <line class="fil0 str0" x1="38.67" y1="19.63" x2="38.67" y2= "24.39" />
    </g>
    <g>
     <line class="fil0 str0" x1="38.67" y1="38.67" x2="38.67" y2= "48.18" />
    </g>
    <g>
     <line class="fil0 str0" x1="43.42" y1="5.35" x2="43.42" y2= "19.63" />
    </g>
    <g>
     <line class="fil0 str0" x1="43.42" y1="24.39" x2="43.42" y2= "38.67" />
    </g>
    <g>
     <line class="fil0 str0" x1="48.18" y1="0.59" x2="48.18" y2= "48.18" />
    </g>
   </g>
  </g>
  <g>
   <g>
    <g>
     <line class="fil0 str1" x1="0.59" y1="0.59" x2="19.63" y2= "0.59" />
    </g>
    <g>
     <line class="fil0 str1" x1="24.39" y1="0.59" x2="48.18" y2= "0.59" />
    </g>
    <g>
     <line class="fil0 str1" x1="14.87" y1="5.35" x2="24.39" y2= "5.35" />
    </g>
    <g>
     <line class="fil0 str1" x1="33.91" y1="5.35" x2="38.67" y2= "5.35" />
    </g>
    <g>
     <line class="fil0 str1" x1="5.35" y1="10.11" x2="29.15" y2= "10.11" />
    </g>
    <g>
     <line class="fil0 str1" x1="0.59" y1="14.87" x2="19.63" y2= "14.87" />
    </g>
    <g>
     <line class="fil0 str1" x1="29.15" y1="14.87" x2="38.67" y2= "14.87" />
    </g>
    <g>
     <line class="fil0 str1" x1="5.35" y1="19.63" x2="14.87" y2= "19.63" />
    </g>
    <g>
     <line class="fil0 str1" x1="19.63" y1="19.63" x2="24.39" y2= "19.63" />
    </g>
    <g>
     <line class="fil0 str1" x1="38.67" y1="19.63" x2="43.42" y2= "19.63" />
    </g>
    <g>
     <line class="fil0 str1" x1="0.59" y1="24.39" x2="10.11" y2= "24.39" />
    </g>
    <g>
     <line class="fil0 str1" x1="14.87" y1="24.39" x2="19.63" y2= "24.39" />
    </g>
    <g>
     <line class="fil0 str1" x1="24.39" y1="24.39" x2="29.15" y2= "24.39" />
    </g>
    <g>
     <line class="fil0 str1" x1="38.67" y1="24.39" x2="43.42" y2= "24.39" />
    </g>
    <g>
     <line class="fil0 str1" x1="10.11" y1="29.15" x2="14.87" y2= "29.15" />
    </g>
    <g>
     <line class="fil0 str1" x1="19.63" y1="29.15" x2="24.39" y2= "29.15" />
    </g>
    <g>
     <line class="fil0 str1" x1="29.15" y1="29.15" x2="38.67" y2= "29.15" />
    </g>
    <g>
     <line class="fil0 str1" x1="0.59" y1="33.91" x2="10.11" y2= "33.91" />
    </g>
    <g>
     <line class="fil0 str1" x1="24.39" y1="33.91" x2="38.67" y2= "33.91" />
    </g>
    <g>
     <line class="fil0 str1" x1="5.35" y1="38.67" x2="14.87" y2= "38.67" />
    </g>
    <g>
     <line class="fil0 str1" x1="19.63" y1="38.67" x2="29.15" y2= "38.67" />
    </g>
    <g>
     <line class="fil0 str1" x1="33.91" y1="38.67" x2="43.42" y2= "38.67" />
    </g>
    <g>
     <line class="fil0 str1" x1="19.63" y1="43.42" x2="24.39" y2= "43.42" />
    </g>
    <g>
     <line class="fil0 str1" x1="29.15" y1="43.42" x2="33.91" y2= "43.42" />
    </g>
    <g>
     <line class="fil0 str1" x1="43.42" y1="43.42" x2="48.18" y2= "43.42" />
    </g>
    <g>
     <line class="fil0 str1" x1="0.59" y1="48.18" x2="24.39" y2= "48.18" />
    </g>
    <g>
     <line class="fil0 str1" x1="29.15" y1="48.18" x2="48.18" y2= "48.18" />
    </g>
    <g>
     <line class="fil0 str1" x1="0.59" y1="0.59" x2="0.59" y2= "48.18" />
    </g>
    <g>
     <line class="fil0 str1" x1="5.35" y1="5.35" x2="5.35" y2= "10.11" />
    </g>
    <g>
     <line class="fil0 str1" x1="5.35" y1="29.15" x2="5.35" y2= "33.91" />
    </g>
    <g>
     <line class="fil0 str1" x1="5.35" y1="38.67" x2="5.35" y2= "43.42" />
    </g>
    <g>
     <line class="fil0 str1" x1="10.11" y1="0.59" x2="10.11" y2= "5.35" />
    </g>
    <g>
     <line class="fil0 str1" x1="10.11" y1="24.39" x2="10.11" y2= "29.15" />
    </g>
    <g>
     <line class="fil0 str1" x1="10.11" y1="43.42" x2="10.11" y2= "48.18" />
    </g>
    <g>
     <line class="fil0 str1" x1="14.87" y1="5.35" x2="14.87" y2= "10.11" />
    </g>
    <g>
     <line class="fil0 str1" x1="14.87" y1="14.87" x2="14.87" y2= "24.39" />
    </g>
    <g>
     <line class="fil0 str1" x1="14.87" y1="29.15" x2="14.87" y2= "43.42" />
    </g>
    <g>
     <line class="fil0 str1" x1="19.63" y1="24.39" x2="19.63" y2= "29.15" />
    </g>
    <g>
     <line class="fil0 str1" x1="19.63" y1="33.91" x2="19.63" y2= "38.67" />
    </g>
    <g>
     <line class="fil0 str1" x1="24.39" y1="0.59" x2="24.39" y2= "5.35" />
    </g>
    <g>
     <line class="fil0 str1" x1="24.39" y1="10.11" x2="24.39" y2= "24.39" />
    </g>
    <g>
     <line class="fil0 str1" x1="24.39" y1="29.15" x2="24.39" y2= "33.91" />
    </g>
    <g>
     <line class="fil0 str1" x1="24.39" y1="43.42" x2="24.39" y2= "48.18" />
    </g>
    <g>
     <line class="fil0 str1" x1="29.15" y1="0.59" x2="29.15" y2= "5.35" />
    </g>
    <g>
     <line class="fil0 str1" x1="29.15" y1="10.11" x2="29.15" y2= "14.87" />
    </g>
    <g>
     <line class="fil0 str1" x1="29.15" y1="19.63" x2="29.15" y2= "29.15" />
    </g>
    <g>
     <line class="fil0 str1" x1="29.15" y1="33.91" x2="29.15" y2= "43.42" />
    </g>
    <g>
     <line class="fil0 str1" x1="33.91" y1="5.35" x2="33.91" y2= "10.11" />
    </g>
    <g>
     <line class="fil0 str1" x1="33.91" y1="14.87" x2="33.91" y2= "19.63" />
    </g>
    <g>
     <line class="fil0 str1" x1="33.91" y1="24.39" x2="33.91" y2= "29.15" />
    </g>
    <g>
     <line class="fil0 str1" x1="38.67" y1="0.59" x2="38.67" y2= "5.35" />
    </g>
    <g>
     <line class="fil0 str1" x1="38.67" y1="10.11" x2="38.67" y2= "14.87" />
    </g>
    <g>
     <line class="fil0 str1" x1="38.67" y1="19.63" x2="38.67" y2= "24.39" />
    </g>
    <g>
     <line class="fil0 str1" x1="38.67" y1="38.67" x2="38.67" y2= "48.18" />
    </g>
    <g>
     <line class="fil0 str1" x1="43.42" y1="5.35" x2="43.42" y2= "19.63" />
    </g>
    <g>
     <line class="fil0 str1" x1="43.42" y1="24.39" x2="43.42" y2= "38.67" />
    </g>
    <g>
     <line class="fil0 str1" x1="48.18" y1="0.59" x2="48.18" y2= "48.18" />
    </g>
   </g>
  </g>
 </g>
</svg>
