<?xml version="1.0" encoding="UTF-8"?>
<!DOCTYPE svg PUBLIC "-//W3C//DTD SVG 1.1//EN" "http://www.w3.org/Graphics/SVG/1.1/DTD/svg11.dtd">
<!-- Creator: CorelDRAW 2018 (64-Bit) -->
<svg xmlns="http://www.w3.org/2000/svg" xml:space="preserve" width="1.70834in" height="1.70834in" version="1.1" style="shape-rendering:geometricPrecision; text-rendering:geometricPrecision; image-rendering:optimizeQuality; fill-rule:evenodd; clip-rule:evenodd"
viewBox="0 0 45.86 45.86"
 xmlns:xlink="http://www.w3.org/1999/xlink">
 <defs>
  <style type="text/css">
   <![CDATA[
    .str0 {stroke:#FB0501;stroke-width:1.12;stroke-linecap:square;stroke-miterlimit:2.61313}
    .str1 {stroke:white;stroke-width:0.75;stroke-linecap:square;stroke-miterlimit:2.61313}
    .fil0 {fill:none}
   ]]>
  </style>
 </defs>
 <g id="Layer_x0020_1">
  <metadata id="CorelCorpID_0Corel-Layer"/>
  <g id="_2423828074224">
   <g>
    <g>
     <line class="fil0 str0" x1="0.56" y1="0.56" x2="18.46" y2= "0.56" />
    </g>
    <g>
     <line class="fil0 str0" x1="22.93" y1="0.56" x2="45.3" y2= "0.56" />
    </g>
    <g>
     <line class="fil0 str0" x1="9.51" y1="5.03" x2="22.93" y2= "5.03" />
    </g>
    <g>
     <line class="fil0 str0" x1="31.88" y1="5.03" x2="36.36" y2= "5.03" />
    </g>
    <g>
     <line class="fil0 str0" x1="13.98" y1="9.51" x2="18.46" y2= "9.51" />
    </g>
    <g>
     <line class="fil0 str0" x1="27.41" y1="9.51" x2="31.88" y2= "9.51" />
    </g>
    <g>
     <line class="fil0 str0" x1="5.03" y1="13.98" x2="9.51" y2= "13.98" />
    </g>
    <g>
     <line class="fil0 str0" x1="18.46" y1="13.98" x2="27.41" y2= "13.98" />
    </g>
    <g>
     <line class="fil0 str0" x1="40.83" y1="13.98" x2="45.3" y2= "13.98" />
    </g>
    <g>
     <line class="fil0 str0" x1="0.56" y1="18.46" x2="5.03" y2= "18.46" />
    </g>
    <g>
     <line class="fil0 str0" x1="13.98" y1="18.46" x2="18.46" y2= "18.46" />
    </g>
    <g>
     <line class="fil0 str0" x1="27.41" y1="18.46" x2="40.83" y2= "18.46" />
    </g>
    <g>
     <line class="fil0 str0" x1="5.03" y1="22.93" x2="18.46" y2= "22.93" />
    </g>
    <g>
     <line class="fil0 str0" x1="40.83" y1="22.93" x2="45.3" y2= "22.93" />
    </g>
    <g>
     <line class="fil0 str0" x1="0.56" y1="27.41" x2="13.98" y2= "27.41" />
    </g>
    <g>
     <line class="fil0 str0" x1="22.93" y1="27.41" x2="31.88" y2= "27.41" />
    </g>
    <g>
     <line class="fil0 str0" x1="5.03" y1="31.88" x2="9.51" y2= "31.88" />
    </g>
    <g>
     <line class="fil0 str0" x1="13.98" y1="31.88" x2="22.93" y2= "31.88" />
    </g>
    <g>
     <line class="fil0 str0" x1="31.88" y1="31.88" x2="36.36" y2= "31.88" />
    </g>
    <g>
     <line class="fil0 str0" x1="9.51" y1="36.36" x2="13.98" y2= "36.36" />
    </g>
    <g>
     <line class="fil0 str0" x1="36.36" y1="36.36" x2="45.3" y2= "36.36" />
    </g>
    <g>
     <line class="fil0 str0" x1="5.03" y1="40.83" x2="9.51" y2= "40.83" />
    </g>
    <g>
     <line class="fil0 str0" x1="22.93" y1="40.83" x2="40.83" y2= "40.83" />
    </g>
    <g>
     <line class="fil0 str0" x1="0.56" y1="45.3" x2="22.93" y2= "45.3" />
    </g>
    <g>
     <line class="fil0 str0" x1="27.41" y1="45.3" x2="45.3" y2= "45.3" />
    </g>
    <g>
     <line class="fil0 str0" x1="0.56" y1="0.56" x2="0.56" y2= "45.3" />
    </g>
    <g>
     <line class="fil0 str0" x1="5.03" y1="0.56" x2="5.03" y2= "9.51" />
    </g>
    <g>
     <line class="fil0 str0" x1="5.03" y1="36.36" x2="5.03" y2= "40.83" />
    </g>
    <g>
     <line class="fil0 str0" x1="9.51" y1="5.03" x2="9.51" y2= "22.93" />
    </g>
    <g>
     <line class="fil0 str0" x1="9.51" y1="31.88" x2="9.51" y2= "36.36" />
    </g>
    <g>
     <line class="fil0 str0" x1="9.51" y1="40.83" x2="9.51" y2= "45.3" />
    </g>
    <g>
     <line class="fil0 str0" x1="13.98" y1="9.51" x2="13.98" y2= "18.46" />
    </g>
    <g>
     <line class="fil0 str0" x1="13.98" y1="31.88" x2="13.98" y2= "40.83" />
    </g>
    <g>
     <line class="fil0 str0" x1="18.46" y1="9.51" x2="18.46" y2= "13.98" />
    </g>
    <g>
     <line class="fil0 str0" x1="18.46" y1="22.93" x2="18.46" y2= "31.88" />
    </g>
    <g>
     <line class="fil0 str0" x1="18.46" y1="36.36" x2="18.46" y2= "45.3" />
    </g>
    <g>
     <line class="fil0 str0" x1="22.93" y1="5.03" x2="22.93" y2= "9.51" />
    </g>
    <g>
     <line class="fil0 str0" x1="22.93" y1="13.98" x2="22.93" y2= "22.93" />
    </g>
    <g>
     <line class="fil0 str0" x1="22.93" y1="31.88" x2="22.93" y2= "40.83" />
    </g>
    <g>
     <line class="fil0 str0" x1="27.41" y1="0.56" x2="27.41" y2= "13.98" />
    </g>
    <g>
     <line class="fil0 str0" x1="27.41" y1="18.46" x2="27.41" y2= "45.3" />
    </g>
    <g>
     <line class="fil0 str0" x1="31.88" y1="5.03" x2="31.88" y2= "9.51" />
    </g>
    <g>
     <line class="fil0 str0" x1="31.88" y1="13.98" x2="31.88" y2= "18.46" />
    </g>
    <g>
     <line class="fil0 str0" x1="31.88" y1="22.93" x2="31.88" y2= "27.41" />
    </g>
    <g>
     <line class="fil0 str0" x1="31.88" y1="31.88" x2="31.88" y2= "36.36" />
    </g>
    <g>
     <line class="fil0 str0" x1="36.36" y1="9.51" x2="36.36" y2= "31.88" />
    </g>
    <g>
     <line class="fil0 str0" x1="40.83" y1="0.56" x2="40.83" y2= "9.51" />
    </g>
    <g>
     <line class="fil0 str0" x1="40.83" y1="27.41" x2="40.83" y2= "36.36" />
    </g>
    <g>
     <line class="fil0 str0" x1="45.3" y1="0.56" x2="45.3" y2= "45.3" />
    </g>
   </g>
  </g>
  <g>
   <g>
    <g>
     <line class="fil0 str1" x1="0.56" y1="0.56" x2="18.46" y2= "0.56" />
    </g>
    <g>
     <line class="fil0 str1" x1="22.93" y1="0.56" x2="45.3" y2= "0.56" />
    </g>
    <g>
     <line class="fil0 str1" x1="9.51" y1="5.03" x2="22.93" y2= "5.03" />
    </g>
    <g>
     <line class="fil0 str1" x1="31.88" y1="5.03" x2="36.36" y2= "5.03" />
    </g>
    <g>
     <line class="fil0 str1" x1="13.98" y1="9.51" x2="18.46" y2= "9.51" />
    </g>
    <g>
     <line class="fil0 str1" x1="27.41" y1="9.51" x2="31.88" y2= "9.51" />
    </g>
    <g>
     <line class="fil0 str1" x1="5.03" y1="13.98" x2="9.51" y2= "13.98" />
    </g>
    <g>
     <line class="fil0 str1" x1="18.46" y1="13.98" x2="27.41" y2= "13.98" />
    </g>
    <g>
     <line class="fil0 str1" x1="40.83" y1="13.98" x2="45.3" y2= "13.98" />
    </g>
    <g>
     <line class="fil0 str1" x1="0.56" y1="18.46" x2="5.03" y2= "18.46" />
    </g>
    <g>
     <line class="fil0 str1" x1="13.98" y1="18.46" x2="18.46" y2= "18.46" />
    </g>
    <g>
     <line class="fil0 str1" x1="27.41" y1="18.46" x2="40.83" y2= "18.46" />
    </g>
    <g>
     <line class="fil0 str1" x1="5.03" y1="22.93" x2="18.46" y2= "22.93" />
    </g>
    <g>
     <line class="fil0 str1" x1="40.83" y1="22.93" x2="45.3" y2= "22.93" />
    </g>
    <g>
     <line class="fil0 str1" x1="0.56" y1="27.41" x2="13.98" y2= "27.41" />
    </g>
    <g>
     <line class="fil0 str1" x1="22.93" y1="27.41" x2="31.88" y2= "27.41" />
    </g>
    <g>
     <line class="fil0 str1" x1="5.03" y1="31.88" x2="9.51" y2= "31.88" />
    </g>
    <g>
     <line class="fil0 str1" x1="13.98" y1="31.88" x2="22.93" y2= "31.88" />
    </g>
    <g>
     <line class="fil0 str1" x1="31.88" y1="31.88" x2="36.36" y2= "31.88" />
    </g>
    <g>
     <line class="fil0 str1" x1="9.51" y1="36.36" x2="13.98" y2= "36.36" />
    </g>
    <g>
     <line class="fil0 str1" x1="36.36" y1="36.36" x2="45.3" y2= "36.36" />
    </g>
    <g>
     <line class="fil0 str1" x1="5.03" y1="40.83" x2="9.51" y2= "40.83" />
    </g>
    <g>
     <line class="fil0 str1" x1="22.93" y1="40.83" x2="40.83" y2= "40.83" />
    </g>
    <g>
     <line class="fil0 str1" x1="0.56" y1="45.3" x2="22.93" y2= "45.3" />
    </g>
    <g>
     <line class="fil0 str1" x1="27.41" y1="45.3" x2="45.3" y2= "45.3" />
    </g>
    <g>
     <line class="fil0 str1" x1="0.56" y1="0.56" x2="0.56" y2= "45.3" />
    </g>
    <g>
     <line class="fil0 str1" x1="5.03" y1="0.56" x2="5.03" y2= "9.51" />
    </g>
    <g>
     <line class="fil0 str1" x1="5.03" y1="36.36" x2="5.03" y2= "40.83" />
    </g>
    <g>
     <line class="fil0 str1" x1="9.51" y1="5.03" x2="9.51" y2= "22.93" />
    </g>
    <g>
     <line class="fil0 str1" x1="9.51" y1="31.88" x2="9.51" y2= "36.36" />
    </g>
    <g>
     <line class="fil0 str1" x1="9.51" y1="40.83" x2="9.51" y2= "45.3" />
    </g>
    <g>
     <line class="fil0 str1" x1="13.98" y1="9.51" x2="13.98" y2= "18.46" />
    </g>
    <g>
     <line class="fil0 str1" x1="13.98" y1="31.88" x2="13.98" y2= "40.83" />
    </g>
    <g>
     <line class="fil0 str1" x1="18.46" y1="9.51" x2="18.46" y2= "13.98" />
    </g>
    <g>
     <line class="fil0 str1" x1="18.46" y1="22.93" x2="18.46" y2= "31.88" />
    </g>
    <g>
     <line class="fil0 str1" x1="18.46" y1="36.36" x2="18.46" y2= "45.3" />
    </g>
    <g>
     <line class="fil0 str1" x1="22.93" y1="5.03" x2="22.93" y2= "9.51" />
    </g>
    <g>
     <line class="fil0 str1" x1="22.93" y1="13.98" x2="22.93" y2= "22.93" />
    </g>
    <g>
     <line class="fil0 str1" x1="22.93" y1="31.88" x2="22.93" y2= "40.83" />
    </g>
    <g>
     <line class="fil0 str1" x1="27.41" y1="0.56" x2="27.41" y2= "13.98" />
    </g>
    <g>
     <line class="fil0 str1" x1="27.41" y1="18.46" x2="27.41" y2= "45.3" />
    </g>
    <g>
     <line class="fil0 str1" x1="31.88" y1="5.03" x2="31.88" y2= "9.51" />
    </g>
    <g>
     <line class="fil0 str1" x1="31.88" y1="13.98" x2="31.88" y2= "18.46" />
    </g>
    <g>
     <line class="fil0 str1" x1="31.88" y1="22.93" x2="31.88" y2= "27.41" />
    </g>
    <g>
     <line class="fil0 str1" x1="31.88" y1="31.88" x2="31.88" y2= "36.36" />
    </g>
    <g>
     <line class="fil0 str1" x1="36.36" y1="9.51" x2="36.36" y2= "31.88" />
    </g>
    <g>
     <line class="fil0 str1" x1="40.83" y1="0.56" x2="40.83" y2= "9.51" />
    </g>
    <g>
     <line class="fil0 str1" x1="40.83" y1="27.41" x2="40.83" y2= "36.36" />
    </g>
    <g>
     <line class="fil0 str1" x1="45.3" y1="0.56" x2="45.3" y2= "45.3" />
    </g>
   </g>
  </g>
 </g>
</svg>
