<?xml version="1.0" encoding="UTF-8"?>
<!DOCTYPE svg PUBLIC "-//W3C//DTD SVG 1.1//EN" "http://www.w3.org/Graphics/SVG/1.1/DTD/svg11.dtd">
<!-- Creator: CorelDRAW 2018 (64-Bit) -->
<svg xmlns="http://www.w3.org/2000/svg" xml:space="preserve" width="1.30208in" height="2.02631in" version="1.1" style="shape-rendering:geometricPrecision; text-rendering:geometricPrecision; image-rendering:optimizeQuality; fill-rule:evenodd; clip-rule:evenodd"
viewBox="0 0 147.09 228.9"
 xmlns:xlink="http://www.w3.org/1999/xlink">
 <defs>
  <style type="text/css">
   <![CDATA[
    .str0 {stroke:#FB0501;stroke-width:4.71;stroke-linecap:round;stroke-linejoin:round;stroke-miterlimit:2.61313}
    .str1 {stroke:white;stroke-width:3.14;stroke-linecap:round;stroke-linejoin:round;stroke-miterlimit:2.61313}
    .fil0 {fill:none}
   ]]>
  </style>
 </defs>
 <g id="Layer_x0020_1">
  <metadata id="CorelCorpID_0Corel-Layer"/>
  <g id="_2423878216496">
   <g>
    <g>
     <line class="fil0 str0" x1="15.3" y1="2.35" x2="67.07" y2= "2.35" />
    </g>
    <g>
     <line class="fil0 str0" x1="92.96" y1="2.35" x2="144.73" y2= "2.35" />
    </g>
    <g>
     <line class="fil0 str0" x1="80.02" y1="24.77" x2="105.9" y2= "24.77" />
    </g>
    <g>
     <line class="fil0 str0" x1="67.07" y1="47.19" x2="118.85" y2= "47.19" />
    </g>
    <g>
     <line class="fil0 str0" x1="80.02" y1="69.61" x2="131.79" y2= "69.61" />
    </g>
    <g>
     <line class="fil0 str0" x1="15.3" y1="92.03" x2="41.18" y2= "92.03" />
    </g>
    <g>
     <line class="fil0 str0" x1="67.07" y1="92.03" x2="118.85" y2= "92.03" />
    </g>
    <g>
     <line class="fil0 str0" x1="28.24" y1="114.45" x2="54.13" y2= "114.45" />
    </g>
    <g>
     <line class="fil0 str0" x1="105.9" y1="114.45" x2="131.79" y2= "114.45" />
    </g>
    <g>
     <line class="fil0 str0" x1="41.18" y1="136.87" x2="67.07" y2= "136.87" />
    </g>
    <g>
     <line class="fil0 str0" x1="105.9" y1="159.29" x2="131.79" y2= "159.29" />
    </g>
    <g>
     <line class="fil0 str0" x1="92.96" y1="181.71" x2="118.85" y2= "181.71" />
    </g>
    <g>
     <line class="fil0 str0" x1="105.9" y1="204.13" x2="131.79" y2= "204.13" />
    </g>
    <g>
     <line class="fil0 str0" x1="15.3" y1="226.55" x2="67.07" y2= "226.55" />
    </g>
    <g>
     <line class="fil0 str0" x1="92.96" y1="226.55" x2="144.73" y2= "226.55" />
    </g>
    <g>
     <polyline class="fil0 str0" points="15.3,2.35 2.35,24.77 15.3,47.19 2.35,69.61 "/>
    </g>
    <g>
     <line class="fil0 str0" x1="2.35" y1="69.61" x2="15.3" y2= "92.03" />
    </g>
    <g>
     <line class="fil0 str0" x1="15.3" y1="92.03" x2="2.35" y2= "114.45" />
    </g>
    <g>
     <polyline class="fil0 str0" points="2.35,114.45 15.3,136.87 2.35,159.29 15.3,181.71 "/>
    </g>
    <g>
     <line class="fil0 str0" x1="15.3" y1="181.71" x2="2.35" y2= "204.13" />
    </g>
    <g>
     <line class="fil0 str0" x1="2.35" y1="204.13" x2="15.3" y2= "226.55" />
    </g>
    <g>
     <line class="fil0 str0" x1="15.3" y1="181.71" x2="28.24" y2= "204.13" />
    </g>
    <g>
     <line class="fil0 str0" x1="41.18" y1="2.35" x2="28.24" y2= "24.77" />
    </g>
    <g>
     <line class="fil0 str0" x1="28.24" y1="69.61" x2="41.18" y2= "92.03" />
    </g>
    <g>
     <polyline class="fil0 str0" points="41.18,136.87 28.24,159.29 41.18,181.71 "/>
    </g>
    <g>
     <polyline class="fil0 str0" points="54.13,24.77 41.18,47.19 54.13,69.61 "/>
    </g>
    <g>
     <line class="fil0 str0" x1="54.13" y1="159.29" x2="41.18" y2= "181.71" />
    </g>
    <g>
     <line class="fil0 str0" x1="41.18" y1="181.71" x2="54.13" y2= "204.13" />
    </g>
    <g>
     <line class="fil0 str0" x1="67.07" y1="2.35" x2="54.13" y2= "24.77" />
    </g>
    <g>
     <line class="fil0 str0" x1="67.07" y1="92.03" x2="54.13" y2= "114.45" />
    </g>
    <g>
     <line class="fil0 str0" x1="80.02" y1="24.77" x2="67.07" y2= "47.19" />
    </g>
    <g>
     <line class="fil0 str0" x1="67.07" y1="136.87" x2="80.02" y2= "159.29" />
    </g>
    <g>
     <line class="fil0 str0" x1="67.07" y1="181.71" x2="80.02" y2= "204.13" />
    </g>
    <g>
     <line class="fil0 str0" x1="80.02" y1="204.13" x2="67.07" y2= "226.55" />
    </g>
    <g>
     <polyline class="fil0 str0" points="80.02,114.45 92.96,136.87 80.02,159.29 92.96,181.71 "/>
    </g>
    <g>
     <line class="fil0 str0" x1="92.96" y1="181.71" x2="80.02" y2= "204.13" />
    </g>
    <g>
     <line class="fil0 str0" x1="92.96" y1="92.03" x2="105.9" y2= "114.45" />
    </g>
    <g>
     <line class="fil0 str0" x1="118.85" y1="2.35" x2="105.9" y2= "24.77" />
    </g>
    <g>
     <line class="fil0 str0" x1="118.85" y1="136.87" x2="105.9" y2= "159.29" />
    </g>
    <g>
     <polyline class="fil0 str0" points="144.73,2.35 131.79,24.77 144.73,47.19 131.79,69.61 "/>
    </g>
    <g>
     <line class="fil0 str0" x1="131.79" y1="69.61" x2="144.73" y2= "92.03" />
    </g>
    <g>
     <line class="fil0 str0" x1="144.73" y1="92.03" x2="131.79" y2= "114.45" />
    </g>
    <g>
     <polyline class="fil0 str0" points="131.79,114.45 144.73,136.87 131.79,159.29 144.73,181.71 "/>
    </g>
    <g>
     <line class="fil0 str0" x1="144.73" y1="181.71" x2="131.79" y2= "204.13" />
    </g>
    <g>
     <line class="fil0 str0" x1="131.79" y1="204.13" x2="144.73" y2= "226.55" />
    </g>
   </g>
  </g>
  <g>
   <g>
    <g>
     <line class="fil0 str1" x1="15.3" y1="2.35" x2="67.07" y2= "2.35" />
    </g>
    <g>
     <line class="fil0 str1" x1="92.96" y1="2.35" x2="144.73" y2= "2.35" />
    </g>
    <g>
     <line class="fil0 str1" x1="80.02" y1="24.77" x2="105.9" y2= "24.77" />
    </g>
    <g>
     <line class="fil0 str1" x1="67.07" y1="47.19" x2="118.85" y2= "47.19" />
    </g>
    <g>
     <line class="fil0 str1" x1="80.02" y1="69.61" x2="131.79" y2= "69.61" />
    </g>
    <g>
     <line class="fil0 str1" x1="15.3" y1="92.03" x2="41.18" y2= "92.03" />
    </g>
    <g>
     <line class="fil0 str1" x1="67.07" y1="92.03" x2="118.85" y2= "92.03" />
    </g>
    <g>
     <line class="fil0 str1" x1="28.24" y1="114.45" x2="54.13" y2= "114.45" />
    </g>
    <g>
     <line class="fil0 str1" x1="105.9" y1="114.45" x2="131.79" y2= "114.45" />
    </g>
    <g>
     <line class="fil0 str1" x1="41.18" y1="136.87" x2="67.07" y2= "136.87" />
    </g>
    <g>
     <line class="fil0 str1" x1="105.9" y1="159.29" x2="131.79" y2= "159.29" />
    </g>
    <g>
     <line class="fil0 str1" x1="92.96" y1="181.71" x2="118.85" y2= "181.71" />
    </g>
    <g>
     <line class="fil0 str1" x1="105.9" y1="204.13" x2="131.79" y2= "204.13" />
    </g>
    <g>
     <line class="fil0 str1" x1="15.3" y1="226.55" x2="67.07" y2= "226.55" />
    </g>
    <g>
     <line class="fil0 str1" x1="92.96" y1="226.55" x2="144.73" y2= "226.55" />
    </g>
    <g>
     <polyline class="fil0 str1" points="15.3,2.35 2.35,24.77 15.3,47.19 2.35,69.61 "/>
    </g>
    <g>
     <line class="fil0 str1" x1="2.35" y1="69.61" x2="15.3" y2= "92.03" />
    </g>
    <g>
     <line class="fil0 str1" x1="15.3" y1="92.03" x2="2.35" y2= "114.45" />
    </g>
    <g>
     <polyline class="fil0 str1" points="2.35,114.45 15.3,136.87 2.35,159.29 15.3,181.71 "/>
    </g>
    <g>
     <line class="fil0 str1" x1="15.3" y1="181.71" x2="2.35" y2= "204.13" />
    </g>
    <g>
     <line class="fil0 str1" x1="2.35" y1="204.13" x2="15.3" y2= "226.55" />
    </g>
    <g>
     <line class="fil0 str1" x1="15.3" y1="181.71" x2="28.24" y2= "204.13" />
    </g>
    <g>
     <line class="fil0 str1" x1="41.18" y1="2.35" x2="28.24" y2= "24.77" />
    </g>
    <g>
     <line class="fil0 str1" x1="28.24" y1="69.61" x2="41.18" y2= "92.03" />
    </g>
    <g>
     <polyline class="fil0 str1" points="41.18,136.87 28.24,159.29 41.18,181.71 "/>
    </g>
    <g>
     <polyline class="fil0 str1" points="54.13,24.77 41.18,47.19 54.13,69.61 "/>
    </g>
    <g>
     <line class="fil0 str1" x1="54.13" y1="159.29" x2="41.18" y2= "181.71" />
    </g>
    <g>
     <line class="fil0 str1" x1="41.18" y1="181.71" x2="54.13" y2= "204.13" />
    </g>
    <g>
     <line class="fil0 str1" x1="67.07" y1="2.35" x2="54.13" y2= "24.77" />
    </g>
    <g>
     <line class="fil0 str1" x1="67.07" y1="92.03" x2="54.13" y2= "114.45" />
    </g>
    <g>
     <line class="fil0 str1" x1="80.02" y1="24.77" x2="67.07" y2= "47.19" />
    </g>
    <g>
     <line class="fil0 str1" x1="67.07" y1="136.87" x2="80.02" y2= "159.29" />
    </g>
    <g>
     <line class="fil0 str1" x1="67.07" y1="181.71" x2="80.02" y2= "204.13" />
    </g>
    <g>
     <line class="fil0 str1" x1="80.02" y1="204.13" x2="67.07" y2= "226.55" />
    </g>
    <g>
     <polyline class="fil0 str1" points="80.02,114.45 92.96,136.87 80.02,159.29 92.96,181.71 "/>
    </g>
    <g>
     <line class="fil0 str1" x1="92.96" y1="181.71" x2="80.02" y2= "204.13" />
    </g>
    <g>
     <line class="fil0 str1" x1="92.96" y1="92.03" x2="105.9" y2= "114.45" />
    </g>
    <g>
     <line class="fil0 str1" x1="118.85" y1="2.35" x2="105.9" y2= "24.77" />
    </g>
    <g>
     <line class="fil0 str1" x1="118.85" y1="136.87" x2="105.9" y2= "159.29" />
    </g>
    <g>
     <polyline class="fil0 str1" points="144.73,2.35 131.79,24.77 144.73,47.19 131.79,69.61 "/>
    </g>
    <g>
     <line class="fil0 str1" x1="131.79" y1="69.61" x2="144.73" y2= "92.03" />
    </g>
    <g>
     <line class="fil0 str1" x1="144.73" y1="92.03" x2="131.79" y2= "114.45" />
    </g>
    <g>
     <polyline class="fil0 str1" points="131.79,114.45 144.73,136.87 131.79,159.29 144.73,181.71 "/>
    </g>
    <g>
     <line class="fil0 str1" x1="144.73" y1="181.71" x2="131.79" y2= "204.13" />
    </g>
    <g>
     <line class="fil0 str1" x1="131.79" y1="204.13" x2="144.73" y2= "226.55" />
    </g>
   </g>
  </g>
 </g>
</svg>
