<?xml version="1.0" encoding="UTF-8"?>
<!DOCTYPE svg PUBLIC "-//W3C//DTD SVG 1.1//EN" "http://www.w3.org/Graphics/SVG/1.1/DTD/svg11.dtd">
<!-- Creator: CorelDRAW 2018 (64-Bit) -->
<svg xmlns="http://www.w3.org/2000/svg" xml:space="preserve" width="2.30208in" height="2.69387in" version="1.1" style="shape-rendering:geometricPrecision; text-rendering:geometricPrecision; image-rendering:optimizeQuality; fill-rule:evenodd; clip-rule:evenodd"
viewBox="0 0 137.83 161.29"
 xmlns:xlink="http://www.w3.org/1999/xlink">
 <defs>
  <style type="text/css">
   <![CDATA[
    .str0 {stroke:#FB0501;stroke-width:2.49;stroke-linecap:round;stroke-linejoin:round;stroke-miterlimit:2.61313}
    .str1 {stroke:white;stroke-width:1.66;stroke-linecap:round;stroke-linejoin:round;stroke-miterlimit:2.61313}
    .fil0 {fill:none}
   ]]>
  </style>
 </defs>
 <g id="Layer_x0020_1">
  <metadata id="CorelCorpID_0Corel-Layer"/>
  <g id="_2423800814704">
   <g>
    <g>
     <polyline class="fil0 str0" points="5.61,23.93 1.25,16.37 5.61,8.81 14.34,8.81 18.71,16.37 "/>
    </g>
    <g>
     <polyline class="fil0 str0" points="14.34,8.81 18.71,1.25 27.44,1.25 31.81,8.81 40.54,8.81 44.91,1.25 53.64,1.25 58,8.81 "/>
    </g>
    <g>
     <polyline class="fil0 str0" points="71.1,16.37 66.73,8.81 71.1,1.25 79.83,1.25 84.2,8.81 79.83,16.37 "/>
    </g>
    <g>
     <polyline class="fil0 str0" points="84.2,8.81 92.93,8.81 97.29,16.37 "/>
    </g>
    <g>
     <polyline class="fil0 str0" points="92.93,8.81 97.29,1.25 106.03,1.25 110.39,8.81 119.12,8.81 123.49,1.25 132.22,1.25 136.59,8.81 132.22,16.37 "/>
    </g>
    <g>
     <polyline class="fil0 str0" points="5.61,39.06 1.25,31.49 5.61,23.93 "/>
    </g>
    <g>
     <line class="fil0 str0" x1="14.34" y1="23.93" x2="18.71" y2= "16.37" />
    </g>
    <g>
     <polyline class="fil0 str0" points="27.44,16.37 31.81,23.93 27.44,31.49 "/>
    </g>
    <g>
     <polyline class="fil0 str0" points="31.81,23.93 40.54,23.93 44.91,16.37 53.64,16.37 "/>
    </g>
    <g>
     <polyline class="fil0 str0" points="58,23.93 66.73,23.93 71.1,31.49 "/>
    </g>
    <g>
     <line class="fil0 str0" x1="66.73" y1="23.93" x2="71.1" y2= "16.37" />
    </g>
    <g>
     <polyline class="fil0 str0" points="79.83,31.49 84.2,23.93 92.93,23.93 97.29,31.49 "/>
    </g>
    <g>
     <line class="fil0 str0" x1="97.29" y1="16.37" x2="106.03" y2= "16.37" />
    </g>
    <g>
     <line class="fil0 str0" x1="106.03" y1="31.49" x2="110.39" y2= "23.93" />
    </g>
    <g>
     <polyline class="fil0 str0" points="123.49,31.49 119.12,23.93 123.49,16.37 "/>
    </g>
    <g>
     <polyline class="fil0 str0" points="132.22,16.37 136.59,23.93 132.22,31.49 "/>
    </g>
    <g>
     <polyline class="fil0 str0" points="5.61,54.18 1.25,46.62 5.61,39.06 14.34,39.06 18.71,31.49 27.44,31.49 "/>
    </g>
    <g>
     <polyline class="fil0 str0" points="27.44,46.62 31.81,39.06 40.54,39.06 44.91,31.49 53.64,31.49 58,39.06 "/>
    </g>
    <g>
     <polyline class="fil0 str0" points="71.1,46.62 66.73,39.06 71.1,31.49 "/>
    </g>
    <g>
     <line class="fil0 str0" x1="79.83" y1="46.62" x2="84.2" y2= "39.06" />
    </g>
    <g>
     <polyline class="fil0 str0" points="97.29,46.62 92.93,39.06 97.29,31.49 106.03,31.49 "/>
    </g>
    <g>
     <polyline class="fil0 str0" points="110.39,39.06 119.12,39.06 123.49,46.62 "/>
    </g>
    <g>
     <line class="fil0 str0" x1="119.12" y1="39.06" x2="123.49" y2= "31.49" />
    </g>
    <g>
     <polyline class="fil0 str0" points="132.22,31.49 136.59,39.06 132.22,46.62 "/>
    </g>
    <g>
     <polyline class="fil0 str0" points="5.61,69.3 1.25,61.74 5.61,54.18 "/>
    </g>
    <g>
     <polyline class="fil0 str0" points="18.71,61.74 14.34,54.18 18.71,46.62 "/>
    </g>
    <g>
     <polyline class="fil0 str0" points="27.44,46.62 31.81,54.18 27.44,61.74 "/>
    </g>
    <g>
     <polyline class="fil0 str0" points="44.91,61.74 40.54,54.18 44.91,46.62 "/>
    </g>
    <g>
     <polyline class="fil0 str0" points="53.64,46.62 58,54.18 66.73,54.18 71.1,46.62 79.83,46.62 84.2,54.18 79.83,61.74 "/>
    </g>
    <g>
     <polyline class="fil0 str0" points="97.29,61.74 92.93,54.18 97.29,46.62 106.03,46.62 110.39,54.18 106.03,61.74 "/>
    </g>
    <g>
     <line class="fil0 str0" x1="110.39" y1="54.18" x2="119.12" y2= "54.18" />
    </g>
    <g>
     <polyline class="fil0 str0" points="123.49,46.62 132.22,46.62 136.59,54.18 132.22,61.74 "/>
    </g>
    <g>
     <polyline class="fil0 str0" points="5.61,84.43 1.25,76.87 5.61,69.3 14.34,69.3 "/>
    </g>
    <g>
     <polyline class="fil0 str0" points="18.71,61.74 27.44,61.74 31.81,69.3 27.44,76.87 "/>
    </g>
    <g>
     <polyline class="fil0 str0" points="44.91,76.87 40.54,69.3 44.91,61.74 53.64,61.74 58,69.3 53.64,76.87 "/>
    </g>
    <g>
     <polyline class="fil0 str0" points="71.1,76.87 66.73,69.3 71.1,61.74 "/>
    </g>
    <g>
     <line class="fil0 str0" x1="79.83" y1="61.74" x2="84.2" y2= "69.3" />
    </g>
    <g>
     <line class="fil0 str0" x1="92.93" y1="69.3" x2="97.29" y2= "61.74" />
    </g>
    <g>
     <polyline class="fil0 str0" points="106.03,61.74 110.39,69.3 106.03,76.87 "/>
    </g>
    <g>
     <polyline class="fil0 str0" points="119.12,69.3 123.49,61.74 132.22,61.74 136.59,69.3 132.22,76.87 "/>
    </g>
    <g>
     <polyline class="fil0 str0" points="5.61,99.55 1.25,91.99 5.61,84.43 14.34,84.43 18.71,76.87 27.44,76.87 "/>
    </g>
    <g>
     <polyline class="fil0 str0" points="27.44,91.99 31.81,84.43 40.54,84.43 44.91,76.87 "/>
    </g>
    <g>
     <line class="fil0 str0" x1="53.64" y1="76.87" x2="58" y2= "84.43" />
    </g>
    <g>
     <polyline class="fil0 str0" points="71.1,91.99 66.73,84.43 71.1,76.87 79.83,76.87 84.2,84.43 79.83,91.99 "/>
    </g>
    <g>
     <polyline class="fil0 str0" points="92.93,84.43 97.29,76.87 106.03,76.87 110.39,84.43 106.03,91.99 "/>
    </g>
    <g>
     <polyline class="fil0 str0" points="110.39,84.43 119.12,84.43 123.49,91.99 "/>
    </g>
    <g>
     <line class="fil0 str0" x1="119.12" y1="84.43" x2="123.49" y2= "76.87" />
    </g>
    <g>
     <polyline class="fil0 str0" points="132.22,76.87 136.59,84.43 132.22,91.99 "/>
    </g>
    <g>
     <polyline class="fil0 str0" points="5.61,114.67 1.25,107.11 5.61,99.55 14.34,99.55 18.71,107.11 "/>
    </g>
    <g>
     <polyline class="fil0 str0" points="18.71,91.99 27.44,91.99 31.81,99.55 40.54,99.55 44.91,107.11 "/>
    </g>
    <g>
     <polyline class="fil0 str0" points="44.91,91.99 53.64,91.99 58,99.55 53.64,107.11 "/>
    </g>
    <g>
     <polyline class="fil0 str0" points="58,99.55 66.73,99.55 71.1,107.11 "/>
    </g>
    <g>
     <line class="fil0 str0" x1="66.73" y1="99.55" x2="71.1" y2= "91.99" />
    </g>
    <g>
     <polyline class="fil0 str0" points="79.83,91.99 84.2,99.55 92.93,99.55 97.29,91.99 "/>
    </g>
    <g>
     <polyline class="fil0 str0" points="106.03,91.99 110.39,99.55 106.03,107.11 "/>
    </g>
    <g>
     <line class="fil0 str0" x1="119.12" y1="99.55" x2="123.49" y2= "107.11" />
    </g>
    <g>
     <polyline class="fil0 str0" points="132.22,91.99 136.59,99.55 132.22,107.11 "/>
    </g>
    <g>
     <polyline class="fil0 str0" points="5.61,129.8 1.25,122.24 5.61,114.67 "/>
    </g>
    <g>
     <polyline class="fil0 str0" points="18.71,122.24 14.34,114.67 18.71,107.11 "/>
    </g>
    <g>
     <polyline class="fil0 str0" points="27.44,107.11 31.81,114.67 27.44,122.24 "/>
    </g>
    <g>
     <polyline class="fil0 str0" points="40.54,114.67 44.91,107.11 53.64,107.11 "/>
    </g>
    <g>
     <polyline class="fil0 str0" points="53.64,122.24 58,114.67 66.73,114.67 71.1,122.24 "/>
    </g>
    <g>
     <polyline class="fil0 str0" points="71.1,107.11 79.83,107.11 84.2,114.67 79.83,122.24 "/>
    </g>
    <g>
     <line class="fil0 str0" x1="84.2" y1="114.67" x2="92.93" y2= "114.67" />
    </g>
    <g>
     <polyline class="fil0 str0" points="97.29,107.11 106.03,107.11 110.39,114.67 106.03,122.24 "/>
    </g>
    <g>
     <polyline class="fil0 str0" points="123.49,122.24 119.12,114.67 123.49,107.11 132.22,107.11 136.59,114.67 132.22,122.24 "/>
    </g>
    <g>
     <polyline class="fil0 str0" points="5.61,144.92 1.25,137.36 5.61,129.8 "/>
    </g>
    <g>
     <polyline class="fil0 str0" points="18.71,137.36 14.34,129.8 18.71,122.24 "/>
    </g>
    <g>
     <polyline class="fil0 str0" points="27.44,122.24 31.81,129.8 27.44,137.36 "/>
    </g>
    <g>
     <line class="fil0 str0" x1="40.54" y1="129.8" x2="44.91" y2= "137.36" />
    </g>
    <g>
     <line class="fil0 str0" x1="44.91" y1="122.24" x2="53.64" y2= "122.24" />
    </g>
    <g>
     <polyline class="fil0 str0" points="53.64,137.36 58,129.8 66.73,129.8 71.1,122.24 "/>
    </g>
    <g>
     <polyline class="fil0 str0" points="79.83,122.24 84.2,129.8 79.83,137.36 "/>
    </g>
    <g>
     <polyline class="fil0 str0" points="97.29,137.36 92.93,129.8 97.29,122.24 106.03,122.24 "/>
    </g>
    <g>
     <polyline class="fil0 str0" points="110.39,129.8 119.12,129.8 123.49,122.24 "/>
    </g>
    <g>
     <polyline class="fil0 str0" points="132.22,122.24 136.59,129.8 132.22,137.36 "/>
    </g>
    <g>
     <polyline class="fil0 str0" points="5.61,160.04 1.25,152.48 5.61,144.92 "/>
    </g>
    <g>
     <line class="fil0 str0" x1="14.34" y1="144.92" x2="18.71" y2= "137.36" />
    </g>
    <g>
     <polyline class="fil0 str0" points="27.44,137.36 31.81,144.92 27.44,152.48 "/>
    </g>
    <g>
     <polyline class="fil0 str0" points="40.54,144.92 44.91,137.36 53.64,137.36 58,144.92 66.73,144.92 71.1,152.48 "/>
    </g>
    <g>
     <polyline class="fil0 str0" points="71.1,137.36 79.83,137.36 84.2,144.92 79.83,152.48 "/>
    </g>
    <g>
     <line class="fil0 str0" x1="92.93" y1="144.92" x2="97.29" y2= "152.48" />
    </g>
    <g>
     <polyline class="fil0 str0" points="97.29,137.36 106.03,137.36 110.39,144.92 119.12,144.92 123.49,137.36 132.22,137.36 136.59,144.92 132.22,152.48 "/>
    </g>
    <g>
     <polyline class="fil0 str0" points="18.71,152.48 14.34,160.04 5.61,160.04 "/>
    </g>
    <g>
     <line class="fil0 str0" x1="27.44" y1="152.48" x2="18.71" y2= "152.48" />
    </g>
    <g>
     <polyline class="fil0 str0" points="44.91,152.48 40.54,160.04 31.81,160.04 27.44,152.48 "/>
    </g>
    <g>
     <line class="fil0 str0" x1="53.64" y1="152.48" x2="44.91" y2= "152.48" />
    </g>
    <g>
     <polyline class="fil0 str0" points="71.1,152.48 66.73,160.04 58,160.04 53.64,152.48 "/>
    </g>
    <g>
     <polyline class="fil0 str0" points="97.29,152.48 92.93,160.04 84.2,160.04 79.83,152.48 "/>
    </g>
    <g>
     <line class="fil0 str0" x1="106.03" y1="152.48" x2="97.29" y2= "152.48" />
    </g>
    <g>
     <polyline class="fil0 str0" points="123.49,152.48 119.12,160.04 110.39,160.04 106.03,152.48 "/>
    </g>
    <g>
     <line class="fil0 str0" x1="132.22" y1="152.48" x2="123.49" y2= "152.48" />
    </g>
   </g>
  </g>
  <g>
   <g>
    <g>
     <polyline class="fil0 str1" points="5.61,23.93 1.25,16.37 5.61,8.81 14.34,8.81 18.71,16.37 "/>
    </g>
    <g>
     <polyline class="fil0 str1" points="14.34,8.81 18.71,1.25 27.44,1.25 31.81,8.81 40.54,8.81 44.91,1.25 53.64,1.25 58,8.81 "/>
    </g>
    <g>
     <polyline class="fil0 str1" points="71.1,16.37 66.73,8.81 71.1,1.25 79.83,1.25 84.2,8.81 79.83,16.37 "/>
    </g>
    <g>
     <polyline class="fil0 str1" points="84.2,8.81 92.93,8.81 97.29,16.37 "/>
    </g>
    <g>
     <polyline class="fil0 str1" points="92.93,8.81 97.29,1.25 106.03,1.25 110.39,8.81 119.12,8.81 123.49,1.25 132.22,1.25 136.59,8.81 132.22,16.37 "/>
    </g>
    <g>
     <polyline class="fil0 str1" points="5.61,39.06 1.25,31.49 5.61,23.93 "/>
    </g>
    <g>
     <line class="fil0 str1" x1="14.34" y1="23.93" x2="18.71" y2= "16.37" />
    </g>
    <g>
     <polyline class="fil0 str1" points="27.44,16.37 31.81,23.93 27.44,31.49 "/>
    </g>
    <g>
     <polyline class="fil0 str1" points="31.81,23.93 40.54,23.93 44.91,16.37 53.64,16.37 "/>
    </g>
    <g>
     <polyline class="fil0 str1" points="58,23.93 66.73,23.93 71.1,31.49 "/>
    </g>
    <g>
     <line class="fil0 str1" x1="66.73" y1="23.93" x2="71.1" y2= "16.37" />
    </g>
    <g>
     <polyline class="fil0 str1" points="79.83,31.49 84.2,23.93 92.93,23.93 97.29,31.49 "/>
    </g>
    <g>
     <line class="fil0 str1" x1="97.29" y1="16.37" x2="106.03" y2= "16.37" />
    </g>
    <g>
     <line class="fil0 str1" x1="106.03" y1="31.49" x2="110.39" y2= "23.93" />
    </g>
    <g>
     <polyline class="fil0 str1" points="123.49,31.49 119.12,23.93 123.49,16.37 "/>
    </g>
    <g>
     <polyline class="fil0 str1" points="132.22,16.37 136.59,23.93 132.22,31.49 "/>
    </g>
    <g>
     <polyline class="fil0 str1" points="5.61,54.18 1.25,46.62 5.61,39.06 14.34,39.06 18.71,31.49 27.44,31.49 "/>
    </g>
    <g>
     <polyline class="fil0 str1" points="27.44,46.62 31.81,39.06 40.54,39.06 44.91,31.49 53.64,31.49 58,39.06 "/>
    </g>
    <g>
     <polyline class="fil0 str1" points="71.1,46.62 66.73,39.06 71.1,31.49 "/>
    </g>
    <g>
     <line class="fil0 str1" x1="79.83" y1="46.62" x2="84.2" y2= "39.06" />
    </g>
    <g>
     <polyline class="fil0 str1" points="97.29,46.62 92.93,39.06 97.29,31.49 106.03,31.49 "/>
    </g>
    <g>
     <polyline class="fil0 str1" points="110.39,39.06 119.12,39.06 123.49,46.62 "/>
    </g>
    <g>
     <line class="fil0 str1" x1="119.12" y1="39.06" x2="123.49" y2= "31.49" />
    </g>
    <g>
     <polyline class="fil0 str1" points="132.22,31.49 136.59,39.06 132.22,46.62 "/>
    </g>
    <g>
     <polyline class="fil0 str1" points="5.61,69.3 1.25,61.74 5.61,54.18 "/>
    </g>
    <g>
     <polyline class="fil0 str1" points="18.71,61.74 14.34,54.18 18.71,46.62 "/>
    </g>
    <g>
     <polyline class="fil0 str1" points="27.44,46.62 31.81,54.18 27.44,61.74 "/>
    </g>
    <g>
     <polyline class="fil0 str1" points="44.91,61.74 40.54,54.18 44.91,46.62 "/>
    </g>
    <g>
     <polyline class="fil0 str1" points="53.64,46.62 58,54.18 66.73,54.18 71.1,46.62 79.83,46.62 84.2,54.18 79.83,61.74 "/>
    </g>
    <g>
     <polyline class="fil0 str1" points="97.29,61.74 92.93,54.18 97.29,46.62 106.03,46.62 110.39,54.18 106.03,61.74 "/>
    </g>
    <g>
     <line class="fil0 str1" x1="110.39" y1="54.18" x2="119.12" y2= "54.18" />
    </g>
    <g>
     <polyline class="fil0 str1" points="123.49,46.62 132.22,46.62 136.59,54.18 132.22,61.74 "/>
    </g>
    <g>
     <polyline class="fil0 str1" points="5.61,84.43 1.25,76.87 5.61,69.3 14.34,69.3 "/>
    </g>
    <g>
     <polyline class="fil0 str1" points="18.71,61.74 27.44,61.74 31.81,69.3 27.44,76.87 "/>
    </g>
    <g>
     <polyline class="fil0 str1" points="44.91,76.87 40.54,69.3 44.91,61.74 53.64,61.74 58,69.3 53.64,76.87 "/>
    </g>
    <g>
     <polyline class="fil0 str1" points="71.1,76.87 66.73,69.3 71.1,61.74 "/>
    </g>
    <g>
     <line class="fil0 str1" x1="79.83" y1="61.74" x2="84.2" y2= "69.3" />
    </g>
    <g>
     <line class="fil0 str1" x1="92.93" y1="69.3" x2="97.29" y2= "61.74" />
    </g>
    <g>
     <polyline class="fil0 str1" points="106.03,61.74 110.39,69.3 106.03,76.87 "/>
    </g>
    <g>
     <polyline class="fil0 str1" points="119.12,69.3 123.49,61.74 132.22,61.74 136.59,69.3 132.22,76.87 "/>
    </g>
    <g>
     <polyline class="fil0 str1" points="5.61,99.55 1.25,91.99 5.61,84.43 14.34,84.43 18.71,76.87 27.44,76.87 "/>
    </g>
    <g>
     <polyline class="fil0 str1" points="27.44,91.99 31.81,84.43 40.54,84.43 44.91,76.87 "/>
    </g>
    <g>
     <line class="fil0 str1" x1="53.64" y1="76.87" x2="58" y2= "84.43" />
    </g>
    <g>
     <polyline class="fil0 str1" points="71.1,91.99 66.73,84.43 71.1,76.87 79.83,76.87 84.2,84.43 79.83,91.99 "/>
    </g>
    <g>
     <polyline class="fil0 str1" points="92.93,84.43 97.29,76.87 106.03,76.87 110.39,84.43 106.03,91.99 "/>
    </g>
    <g>
     <polyline class="fil0 str1" points="110.39,84.43 119.12,84.43 123.49,91.99 "/>
    </g>
    <g>
     <line class="fil0 str1" x1="119.12" y1="84.43" x2="123.49" y2= "76.87" />
    </g>
    <g>
     <polyline class="fil0 str1" points="132.22,76.87 136.59,84.43 132.22,91.99 "/>
    </g>
    <g>
     <polyline class="fil0 str1" points="5.61,114.67 1.25,107.11 5.61,99.55 14.34,99.55 18.71,107.11 "/>
    </g>
    <g>
     <polyline class="fil0 str1" points="18.71,91.99 27.44,91.99 31.81,99.55 40.54,99.55 44.91,107.11 "/>
    </g>
    <g>
     <polyline class="fil0 str1" points="44.91,91.99 53.64,91.99 58,99.55 53.64,107.11 "/>
    </g>
    <g>
     <polyline class="fil0 str1" points="58,99.55 66.73,99.55 71.1,107.11 "/>
    </g>
    <g>
     <line class="fil0 str1" x1="66.73" y1="99.55" x2="71.1" y2= "91.99" />
    </g>
    <g>
     <polyline class="fil0 str1" points="79.83,91.99 84.2,99.55 92.93,99.55 97.29,91.99 "/>
    </g>
    <g>
     <polyline class="fil0 str1" points="106.03,91.99 110.39,99.55 106.03,107.11 "/>
    </g>
    <g>
     <line class="fil0 str1" x1="119.12" y1="99.55" x2="123.49" y2= "107.11" />
    </g>
    <g>
     <polyline class="fil0 str1" points="132.22,91.99 136.59,99.55 132.22,107.11 "/>
    </g>
    <g>
     <polyline class="fil0 str1" points="5.61,129.8 1.25,122.24 5.61,114.67 "/>
    </g>
    <g>
     <polyline class="fil0 str1" points="18.71,122.24 14.34,114.67 18.71,107.11 "/>
    </g>
    <g>
     <polyline class="fil0 str1" points="27.44,107.11 31.81,114.67 27.44,122.24 "/>
    </g>
    <g>
     <polyline class="fil0 str1" points="40.54,114.67 44.91,107.11 53.64,107.11 "/>
    </g>
    <g>
     <polyline class="fil0 str1" points="53.64,122.24 58,114.67 66.73,114.67 71.1,122.24 "/>
    </g>
    <g>
     <polyline class="fil0 str1" points="71.1,107.11 79.83,107.11 84.2,114.67 79.83,122.24 "/>
    </g>
    <g>
     <line class="fil0 str1" x1="84.2" y1="114.67" x2="92.93" y2= "114.67" />
    </g>
    <g>
     <polyline class="fil0 str1" points="97.29,107.11 106.03,107.11 110.39,114.67 106.03,122.24 "/>
    </g>
    <g>
     <polyline class="fil0 str1" points="123.49,122.24 119.12,114.67 123.49,107.11 132.22,107.11 136.59,114.67 132.22,122.24 "/>
    </g>
    <g>
     <polyline class="fil0 str1" points="5.61,144.92 1.25,137.36 5.61,129.8 "/>
    </g>
    <g>
     <polyline class="fil0 str1" points="18.71,137.36 14.34,129.8 18.71,122.24 "/>
    </g>
    <g>
     <polyline class="fil0 str1" points="27.44,122.24 31.81,129.8 27.44,137.36 "/>
    </g>
    <g>
     <line class="fil0 str1" x1="40.54" y1="129.8" x2="44.91" y2= "137.36" />
    </g>
    <g>
     <line class="fil0 str1" x1="44.91" y1="122.24" x2="53.64" y2= "122.24" />
    </g>
    <g>
     <polyline class="fil0 str1" points="53.64,137.36 58,129.8 66.73,129.8 71.1,122.24 "/>
    </g>
    <g>
     <polyline class="fil0 str1" points="79.83,122.24 84.2,129.8 79.83,137.36 "/>
    </g>
    <g>
     <polyline class="fil0 str1" points="97.29,137.36 92.93,129.8 97.29,122.24 106.03,122.24 "/>
    </g>
    <g>
     <polyline class="fil0 str1" points="110.39,129.8 119.12,129.8 123.49,122.24 "/>
    </g>
    <g>
     <polyline class="fil0 str1" points="132.22,122.24 136.59,129.8 132.22,137.36 "/>
    </g>
    <g>
     <polyline class="fil0 str1" points="5.61,160.04 1.25,152.48 5.61,144.92 "/>
    </g>
    <g>
     <line class="fil0 str1" x1="14.34" y1="144.92" x2="18.71" y2= "137.36" />
    </g>
    <g>
     <polyline class="fil0 str1" points="27.44,137.36 31.81,144.92 27.44,152.48 "/>
    </g>
    <g>
     <polyline class="fil0 str1" points="40.54,144.92 44.91,137.36 53.64,137.36 58,144.92 66.73,144.92 71.1,152.48 "/>
    </g>
    <g>
     <polyline class="fil0 str1" points="71.1,137.36 79.83,137.36 84.2,144.92 79.83,152.48 "/>
    </g>
    <g>
     <line class="fil0 str1" x1="92.93" y1="144.92" x2="97.29" y2= "152.48" />
    </g>
    <g>
     <polyline class="fil0 str1" points="97.29,137.36 106.03,137.36 110.39,144.92 119.12,144.92 123.49,137.36 132.22,137.36 136.59,144.92 132.22,152.48 "/>
    </g>
    <g>
     <polyline class="fil0 str1" points="18.71,152.48 14.34,160.04 5.61,160.04 "/>
    </g>
    <g>
     <line class="fil0 str1" x1="27.44" y1="152.48" x2="18.71" y2= "152.48" />
    </g>
    <g>
     <polyline class="fil0 str1" points="44.91,152.48 40.54,160.04 31.81,160.04 27.44,152.48 "/>
    </g>
    <g>
     <line class="fil0 str1" x1="53.64" y1="152.48" x2="44.91" y2= "152.48" />
    </g>
    <g>
     <polyline class="fil0 str1" points="71.1,152.48 66.73,160.04 58,160.04 53.64,152.48 "/>
    </g>
    <g>
     <polyline class="fil0 str1" points="97.29,152.48 92.93,160.04 84.2,160.04 79.83,152.48 "/>
    </g>
    <g>
     <line class="fil0 str1" x1="106.03" y1="152.48" x2="97.29" y2= "152.48" />
    </g>
    <g>
     <polyline class="fil0 str1" points="123.49,152.48 119.12,160.04 110.39,160.04 106.03,152.48 "/>
    </g>
    <g>
     <line class="fil0 str1" x1="132.22" y1="152.48" x2="123.49" y2= "152.48" />
    </g>
   </g>
  </g>
 </g>
</svg>
