<?xml version="1.0" encoding="UTF-8"?>
<!DOCTYPE svg PUBLIC "-//W3C//DTD SVG 1.1//EN" "http://www.w3.org/Graphics/SVG/1.1/DTD/svg11.dtd">
<!-- Creator: CorelDRAW 2018 (64-Bit) -->
<svg xmlns="http://www.w3.org/2000/svg" xml:space="preserve" width="1.70833in" height="1.70833in" version="1.1" style="shape-rendering:geometricPrecision; text-rendering:geometricPrecision; image-rendering:optimizeQuality; fill-rule:evenodd; clip-rule:evenodd"
viewBox="0 0 43.28 43.28"
 xmlns:xlink="http://www.w3.org/1999/xlink">
 <defs>
  <style type="text/css">
   <![CDATA[
    .str0 {stroke:#FB0501;stroke-width:1.06;stroke-linecap:square;stroke-miterlimit:2.61313}
    .str1 {stroke:white;stroke-width:0.7;stroke-linecap:square;stroke-miterlimit:2.61313}
    .fil0 {fill:none}
   ]]>
  </style>
 </defs>
 <g id="Layer_x0020_1">
  <metadata id="CorelCorpID_0Corel-Layer"/>
  <g id="_2423875426672">
   <g>
    <g>
     <line class="fil0 str0" x1="0.53" y1="0.53" x2="17.42" y2= "0.53" />
    </g>
    <g>
     <line class="fil0 str0" x1="21.64" y1="0.53" x2="42.75" y2= "0.53" />
    </g>
    <g>
     <line class="fil0 str0" x1="4.75" y1="4.75" x2="8.97" y2= "4.75" />
    </g>
    <g>
     <line class="fil0 str0" x1="13.19" y1="4.75" x2="25.86" y2= "4.75" />
    </g>
    <g>
     <line class="fil0 str0" x1="34.31" y1="4.75" x2="42.75" y2= "4.75" />
    </g>
    <g>
     <line class="fil0 str0" x1="4.75" y1="8.97" x2="8.97" y2= "8.97" />
    </g>
    <g>
     <line class="fil0 str0" x1="17.42" y1="8.97" x2="21.64" y2= "8.97" />
    </g>
    <g>
     <line class="fil0 str0" x1="34.31" y1="8.97" x2="38.53" y2= "8.97" />
    </g>
    <g>
     <line class="fil0 str0" x1="8.97" y1="13.19" x2="17.42" y2= "13.19" />
    </g>
    <g>
     <line class="fil0 str0" x1="25.86" y1="13.19" x2="38.53" y2= "13.19" />
    </g>
    <g>
     <line class="fil0 str0" x1="13.19" y1="17.42" x2="34.31" y2= "17.42" />
    </g>
    <g>
     <line class="fil0 str0" x1="0.53" y1="21.64" x2="4.75" y2= "21.64" />
    </g>
    <g>
     <line class="fil0 str0" x1="8.97" y1="21.64" x2="13.19" y2= "21.64" />
    </g>
    <g>
     <line class="fil0 str0" x1="25.86" y1="21.64" x2="34.31" y2= "21.64" />
    </g>
    <g>
     <line class="fil0 str0" x1="38.53" y1="21.64" x2="42.75" y2= "21.64" />
    </g>
    <g>
     <line class="fil0 str0" x1="4.75" y1="25.86" x2="8.97" y2= "25.86" />
    </g>
    <g>
     <line class="fil0 str0" x1="13.19" y1="25.86" x2="17.42" y2= "25.86" />
    </g>
    <g>
     <line class="fil0 str0" x1="21.64" y1="25.86" x2="25.86" y2= "25.86" />
    </g>
    <g>
     <line class="fil0 str0" x1="30.08" y1="25.86" x2="38.53" y2= "25.86" />
    </g>
    <g>
     <line class="fil0 str0" x1="13.19" y1="30.08" x2="38.53" y2= "30.08" />
    </g>
    <g>
     <line class="fil0 str0" x1="17.42" y1="34.31" x2="21.64" y2= "34.31" />
    </g>
    <g>
     <line class="fil0 str0" x1="13.19" y1="38.53" x2="17.42" y2= "38.53" />
    </g>
    <g>
     <line class="fil0 str0" x1="25.86" y1="38.53" x2="34.31" y2= "38.53" />
    </g>
    <g>
     <line class="fil0 str0" x1="0.53" y1="42.75" x2="21.64" y2= "42.75" />
    </g>
    <g>
     <line class="fil0 str0" x1="25.86" y1="42.75" x2="42.75" y2= "42.75" />
    </g>
    <g>
     <line class="fil0 str0" x1="0.53" y1="0.53" x2="0.53" y2= "42.75" />
    </g>
    <g>
     <line class="fil0 str0" x1="4.75" y1="8.97" x2="4.75" y2= "21.64" />
    </g>
    <g>
     <line class="fil0 str0" x1="4.75" y1="25.86" x2="4.75" y2= "38.53" />
    </g>
    <g>
     <line class="fil0 str0" x1="8.97" y1="0.53" x2="8.97" y2= "4.75" />
    </g>
    <g>
     <line class="fil0 str0" x1="8.97" y1="13.19" x2="8.97" y2= "17.42" />
    </g>
    <g>
     <line class="fil0 str0" x1="8.97" y1="21.64" x2="8.97" y2= "42.75" />
    </g>
    <g>
     <line class="fil0 str0" x1="13.19" y1="4.75" x2="13.19" y2= "13.19" />
    </g>
    <g>
     <line class="fil0 str0" x1="13.19" y1="17.42" x2="13.19" y2= "21.64" />
    </g>
    <g>
     <line class="fil0 str0" x1="13.19" y1="25.86" x2="13.19" y2= "38.53" />
    </g>
    <g>
     <line class="fil0 str0" x1="17.42" y1="21.64" x2="17.42" y2= "25.86" />
    </g>
    <g>
     <line class="fil0 str0" x1="21.64" y1="8.97" x2="21.64" y2= "17.42" />
    </g>
    <g>
     <line class="fil0 str0" x1="21.64" y1="21.64" x2="21.64" y2= "30.08" />
    </g>
    <g>
     <line class="fil0 str0" x1="21.64" y1="34.31" x2="21.64" y2= "42.75" />
    </g>
    <g>
     <line class="fil0 str0" x1="25.86" y1="4.75" x2="25.86" y2= "13.19" />
    </g>
    <g>
     <line class="fil0 str0" x1="25.86" y1="17.42" x2="25.86" y2= "21.64" />
    </g>
    <g>
     <line class="fil0 str0" x1="25.86" y1="30.08" x2="25.86" y2= "42.75" />
    </g>
    <g>
     <line class="fil0 str0" x1="30.08" y1="0.53" x2="30.08" y2= "8.97" />
    </g>
    <g>
     <line class="fil0 str0" x1="30.08" y1="21.64" x2="30.08" y2= "25.86" />
    </g>
    <g>
     <line class="fil0 str0" x1="30.08" y1="30.08" x2="30.08" y2= "34.31" />
    </g>
    <g>
     <line class="fil0 str0" x1="34.31" y1="8.97" x2="34.31" y2= "13.19" />
    </g>
    <g>
     <line class="fil0 str0" x1="34.31" y1="34.31" x2="34.31" y2= "38.53" />
    </g>
    <g>
     <line class="fil0 str0" x1="38.53" y1="13.19" x2="38.53" y2= "21.64" />
    </g>
    <g>
     <line class="fil0 str0" x1="38.53" y1="34.31" x2="38.53" y2= "42.75" />
    </g>
    <g>
     <line class="fil0 str0" x1="42.75" y1="0.53" x2="42.75" y2= "42.75" />
    </g>
   </g>
  </g>
  <g>
   <g>
    <g>
     <line class="fil0 str1" x1="0.53" y1="0.53" x2="17.42" y2= "0.53" />
    </g>
    <g>
     <line class="fil0 str1" x1="21.64" y1="0.53" x2="42.75" y2= "0.53" />
    </g>
    <g>
     <line class="fil0 str1" x1="4.75" y1="4.75" x2="8.97" y2= "4.75" />
    </g>
    <g>
     <line class="fil0 str1" x1="13.19" y1="4.75" x2="25.86" y2= "4.75" />
    </g>
    <g>
     <line class="fil0 str1" x1="34.31" y1="4.75" x2="42.75" y2= "4.75" />
    </g>
    <g>
     <line class="fil0 str1" x1="4.75" y1="8.97" x2="8.97" y2= "8.97" />
    </g>
    <g>
     <line class="fil0 str1" x1="17.42" y1="8.97" x2="21.64" y2= "8.97" />
    </g>
    <g>
     <line class="fil0 str1" x1="34.31" y1="8.97" x2="38.53" y2= "8.97" />
    </g>
    <g>
     <line class="fil0 str1" x1="8.97" y1="13.19" x2="17.42" y2= "13.19" />
    </g>
    <g>
     <line class="fil0 str1" x1="25.86" y1="13.19" x2="38.53" y2= "13.19" />
    </g>
    <g>
     <line class="fil0 str1" x1="13.19" y1="17.42" x2="34.31" y2= "17.42" />
    </g>
    <g>
     <line class="fil0 str1" x1="0.53" y1="21.64" x2="4.75" y2= "21.64" />
    </g>
    <g>
     <line class="fil0 str1" x1="8.97" y1="21.64" x2="13.19" y2= "21.64" />
    </g>
    <g>
     <line class="fil0 str1" x1="25.86" y1="21.64" x2="34.31" y2= "21.64" />
    </g>
    <g>
     <line class="fil0 str1" x1="38.53" y1="21.64" x2="42.75" y2= "21.64" />
    </g>
    <g>
     <line class="fil0 str1" x1="4.75" y1="25.86" x2="8.97" y2= "25.86" />
    </g>
    <g>
     <line class="fil0 str1" x1="13.19" y1="25.86" x2="17.42" y2= "25.86" />
    </g>
    <g>
     <line class="fil0 str1" x1="21.64" y1="25.86" x2="25.86" y2= "25.86" />
    </g>
    <g>
     <line class="fil0 str1" x1="30.08" y1="25.86" x2="38.53" y2= "25.86" />
    </g>
    <g>
     <line class="fil0 str1" x1="13.19" y1="30.08" x2="38.53" y2= "30.08" />
    </g>
    <g>
     <line class="fil0 str1" x1="17.42" y1="34.31" x2="21.64" y2= "34.31" />
    </g>
    <g>
     <line class="fil0 str1" x1="13.19" y1="38.53" x2="17.42" y2= "38.53" />
    </g>
    <g>
     <line class="fil0 str1" x1="25.86" y1="38.53" x2="34.31" y2= "38.53" />
    </g>
    <g>
     <line class="fil0 str1" x1="0.53" y1="42.75" x2="21.64" y2= "42.75" />
    </g>
    <g>
     <line class="fil0 str1" x1="25.86" y1="42.75" x2="42.75" y2= "42.75" />
    </g>
    <g>
     <line class="fil0 str1" x1="0.53" y1="0.53" x2="0.53" y2= "42.75" />
    </g>
    <g>
     <line class="fil0 str1" x1="4.75" y1="8.97" x2="4.75" y2= "21.64" />
    </g>
    <g>
     <line class="fil0 str1" x1="4.75" y1="25.86" x2="4.75" y2= "38.53" />
    </g>
    <g>
     <line class="fil0 str1" x1="8.97" y1="0.53" x2="8.97" y2= "4.75" />
    </g>
    <g>
     <line class="fil0 str1" x1="8.97" y1="13.19" x2="8.97" y2= "17.42" />
    </g>
    <g>
     <line class="fil0 str1" x1="8.97" y1="21.64" x2="8.97" y2= "42.75" />
    </g>
    <g>
     <line class="fil0 str1" x1="13.19" y1="4.75" x2="13.19" y2= "13.19" />
    </g>
    <g>
     <line class="fil0 str1" x1="13.19" y1="17.42" x2="13.19" y2= "21.64" />
    </g>
    <g>
     <line class="fil0 str1" x1="13.19" y1="25.86" x2="13.19" y2= "38.53" />
    </g>
    <g>
     <line class="fil0 str1" x1="17.42" y1="21.64" x2="17.42" y2= "25.86" />
    </g>
    <g>
     <line class="fil0 str1" x1="21.64" y1="8.97" x2="21.64" y2= "17.42" />
    </g>
    <g>
     <line class="fil0 str1" x1="21.64" y1="21.64" x2="21.64" y2= "30.08" />
    </g>
    <g>
     <line class="fil0 str1" x1="21.64" y1="34.31" x2="21.64" y2= "42.75" />
    </g>
    <g>
     <line class="fil0 str1" x1="25.86" y1="4.75" x2="25.86" y2= "13.19" />
    </g>
    <g>
     <line class="fil0 str1" x1="25.86" y1="17.42" x2="25.86" y2= "21.64" />
    </g>
    <g>
     <line class="fil0 str1" x1="25.86" y1="30.08" x2="25.86" y2= "42.75" />
    </g>
    <g>
     <line class="fil0 str1" x1="30.08" y1="0.53" x2="30.08" y2= "8.97" />
    </g>
    <g>
     <line class="fil0 str1" x1="30.08" y1="21.64" x2="30.08" y2= "25.86" />
    </g>
    <g>
     <line class="fil0 str1" x1="30.08" y1="30.08" x2="30.08" y2= "34.31" />
    </g>
    <g>
     <line class="fil0 str1" x1="34.31" y1="8.97" x2="34.31" y2= "13.19" />
    </g>
    <g>
     <line class="fil0 str1" x1="34.31" y1="34.31" x2="34.31" y2= "38.53" />
    </g>
    <g>
     <line class="fil0 str1" x1="38.53" y1="13.19" x2="38.53" y2= "21.64" />
    </g>
    <g>
     <line class="fil0 str1" x1="38.53" y1="34.31" x2="38.53" y2= "42.75" />
    </g>
    <g>
     <line class="fil0 str1" x1="42.75" y1="0.53" x2="42.75" y2= "42.75" />
    </g>
   </g>
  </g>
 </g>
</svg>
