<?xml version="1.0" encoding="UTF-8"?>
<!DOCTYPE svg PUBLIC "-//W3C//DTD SVG 1.1//EN" "http://www.w3.org/Graphics/SVG/1.1/DTD/svg11.dtd">
<!-- Creator: CorelDRAW 2018 (64-Bit) -->
<svg xmlns="http://www.w3.org/2000/svg" xml:space="preserve" width="1.30208in" height="2.02631in" version="1.1" style="shape-rendering:geometricPrecision; text-rendering:geometricPrecision; image-rendering:optimizeQuality; fill-rule:evenodd; clip-rule:evenodd"
viewBox="0 0 72.2 112.36"
 xmlns:xlink="http://www.w3.org/1999/xlink">
 <defs>
  <style type="text/css">
   <![CDATA[
    .str0 {stroke:#FB0501;stroke-width:2.31;stroke-linecap:round;stroke-linejoin:round;stroke-miterlimit:2.61313}
    .str1 {stroke:white;stroke-width:1.54;stroke-linecap:round;stroke-linejoin:round;stroke-miterlimit:2.61313}
    .fil0 {fill:none}
   ]]>
  </style>
 </defs>
 <g id="Layer_x0020_1">
  <metadata id="CorelCorpID_0Corel-Layer"/>
  <g id="_2423882341744">
   <g>
    <g>
     <line class="fil0 str0" x1="7.51" y1="1.16" x2="32.92" y2= "1.16" />
    </g>
    <g>
     <line class="fil0 str0" x1="45.63" y1="1.16" x2="71.05" y2= "1.16" />
    </g>
    <g>
     <line class="fil0 str0" x1="51.98" y1="12.16" x2="64.69" y2= "12.16" />
    </g>
    <g>
     <line class="fil0 str0" x1="32.92" y1="23.16" x2="58.34" y2= "23.16" />
    </g>
    <g>
     <line class="fil0 str0" x1="26.57" y1="34.17" x2="39.28" y2= "34.17" />
    </g>
    <g>
     <line class="fil0 str0" x1="51.98" y1="34.17" x2="64.69" y2= "34.17" />
    </g>
    <g>
     <line class="fil0 str0" x1="7.51" y1="45.17" x2="32.92" y2= "45.17" />
    </g>
    <g>
     <line class="fil0 str0" x1="13.86" y1="56.18" x2="26.57" y2= "56.18" />
    </g>
    <g>
     <line class="fil0 str0" x1="20.22" y1="67.18" x2="32.92" y2= "67.18" />
    </g>
    <g>
     <line class="fil0 str0" x1="26.57" y1="78.19" x2="39.28" y2= "78.19" />
    </g>
    <g>
     <line class="fil0 str0" x1="20.22" y1="89.19" x2="32.92" y2= "89.19" />
    </g>
    <g>
     <line class="fil0 str0" x1="13.86" y1="100.2" x2="26.57" y2= "100.2" />
    </g>
    <g>
     <line class="fil0 str0" x1="7.51" y1="111.2" x2="32.92" y2= "111.2" />
    </g>
    <g>
     <line class="fil0 str0" x1="45.63" y1="111.2" x2="71.05" y2= "111.2" />
    </g>
    <g>
     <polyline class="fil0 str0" points="7.51,1.16 1.16,12.16 7.51,23.16 1.16,34.17 "/>
    </g>
    <g>
     <line class="fil0 str0" x1="1.16" y1="34.17" x2="7.51" y2= "45.17" />
    </g>
    <g>
     <line class="fil0 str0" x1="7.51" y1="45.17" x2="1.16" y2= "56.18" />
    </g>
    <g>
     <polyline class="fil0 str0" points="1.16,56.18 7.51,67.18 1.16,78.19 7.51,89.19 "/>
    </g>
    <g>
     <line class="fil0 str0" x1="7.51" y1="89.19" x2="1.16" y2= "100.2" />
    </g>
    <g>
     <line class="fil0 str0" x1="1.16" y1="100.2" x2="7.51" y2= "111.2" />
    </g>
    <g>
     <line class="fil0 str0" x1="13.86" y1="12.16" x2="7.51" y2= "23.16" />
    </g>
    <g>
     <line class="fil0 str0" x1="13.86" y1="56.18" x2="7.51" y2= "67.18" />
    </g>
    <g>
     <line class="fil0 str0" x1="20.22" y1="23.16" x2="13.86" y2= "34.17" />
    </g>
    <g>
     <polyline class="fil0 str0" points="20.22,67.18 13.86,78.19 20.22,89.19 "/>
    </g>
    <g>
     <polyline class="fil0 str0" points="20.22,1.16 26.57,12.16 20.22,23.16 "/>
    </g>
    <g>
     <line class="fil0 str0" x1="26.57" y1="100.2" x2="32.92" y2= "111.2" />
    </g>
    <g>
     <line class="fil0 str0" x1="39.28" y1="56.18" x2="32.92" y2= "67.18" />
    </g>
    <g>
     <line class="fil0 str0" x1="39.28" y1="78.19" x2="32.92" y2= "89.19" />
    </g>
    <g>
     <line class="fil0 str0" x1="32.92" y1="89.19" x2="39.28" y2= "100.2" />
    </g>
    <g>
     <line class="fil0 str0" x1="45.63" y1="1.16" x2="39.28" y2= "12.16" />
    </g>
    <g>
     <line class="fil0 str0" x1="39.28" y1="34.17" x2="45.63" y2= "45.17" />
    </g>
    <g>
     <line class="fil0 str0" x1="45.63" y1="45.17" x2="39.28" y2= "56.18" />
    </g>
    <g>
     <line class="fil0 str0" x1="45.63" y1="67.18" x2="39.28" y2= "78.19" />
    </g>
    <g>
     <line class="fil0 str0" x1="39.28" y1="100.2" x2="45.63" y2= "111.2" />
    </g>
    <g>
     <line class="fil0 str0" x1="45.63" y1="23.16" x2="51.98" y2= "34.17" />
    </g>
    <g>
     <line class="fil0 str0" x1="45.63" y1="45.17" x2="51.98" y2= "56.18" />
    </g>
    <g>
     <line class="fil0 str0" x1="51.98" y1="78.19" x2="45.63" y2= "89.19" />
    </g>
    <g>
     <line class="fil0 str0" x1="45.63" y1="89.19" x2="51.98" y2= "100.2" />
    </g>
    <g>
     <polyline class="fil0 str0" points="51.98,56.18 58.34,67.18 51.98,78.19 "/>
    </g>
    <g>
     <line class="fil0 str0" x1="58.34" y1="45.17" x2="64.69" y2= "56.18" />
    </g>
    <g>
     <line class="fil0 str0" x1="58.34" y1="89.19" x2="64.69" y2= "100.2" />
    </g>
    <g>
     <polyline class="fil0 str0" points="71.05,1.16 64.69,12.16 71.05,23.16 64.69,34.17 "/>
    </g>
    <g>
     <line class="fil0 str0" x1="64.69" y1="34.17" x2="71.05" y2= "45.17" />
    </g>
    <g>
     <line class="fil0 str0" x1="71.05" y1="45.17" x2="64.69" y2= "56.18" />
    </g>
    <g>
     <polyline class="fil0 str0" points="64.69,56.18 71.05,67.18 64.69,78.19 71.05,89.19 "/>
    </g>
    <g>
     <line class="fil0 str0" x1="71.05" y1="89.19" x2="64.69" y2= "100.2" />
    </g>
    <g>
     <line class="fil0 str0" x1="64.69" y1="100.2" x2="71.05" y2= "111.2" />
    </g>
   </g>
  </g>
  <g>
   <g>
    <g>
     <line class="fil0 str1" x1="7.51" y1="1.16" x2="32.92" y2= "1.16" />
    </g>
    <g>
     <line class="fil0 str1" x1="45.63" y1="1.16" x2="71.05" y2= "1.16" />
    </g>
    <g>
     <line class="fil0 str1" x1="51.98" y1="12.16" x2="64.69" y2= "12.16" />
    </g>
    <g>
     <line class="fil0 str1" x1="32.92" y1="23.16" x2="58.34" y2= "23.16" />
    </g>
    <g>
     <line class="fil0 str1" x1="26.57" y1="34.17" x2="39.28" y2= "34.17" />
    </g>
    <g>
     <line class="fil0 str1" x1="51.98" y1="34.17" x2="64.69" y2= "34.17" />
    </g>
    <g>
     <line class="fil0 str1" x1="7.51" y1="45.17" x2="32.92" y2= "45.17" />
    </g>
    <g>
     <line class="fil0 str1" x1="13.86" y1="56.18" x2="26.57" y2= "56.18" />
    </g>
    <g>
     <line class="fil0 str1" x1="20.22" y1="67.18" x2="32.92" y2= "67.18" />
    </g>
    <g>
     <line class="fil0 str1" x1="26.57" y1="78.19" x2="39.28" y2= "78.19" />
    </g>
    <g>
     <line class="fil0 str1" x1="20.22" y1="89.19" x2="32.92" y2= "89.19" />
    </g>
    <g>
     <line class="fil0 str1" x1="13.86" y1="100.2" x2="26.57" y2= "100.2" />
    </g>
    <g>
     <line class="fil0 str1" x1="7.51" y1="111.2" x2="32.92" y2= "111.2" />
    </g>
    <g>
     <line class="fil0 str1" x1="45.63" y1="111.2" x2="71.05" y2= "111.2" />
    </g>
    <g>
     <polyline class="fil0 str1" points="7.51,1.16 1.16,12.16 7.51,23.16 1.16,34.17 "/>
    </g>
    <g>
     <line class="fil0 str1" x1="1.16" y1="34.17" x2="7.51" y2= "45.17" />
    </g>
    <g>
     <line class="fil0 str1" x1="7.51" y1="45.17" x2="1.16" y2= "56.18" />
    </g>
    <g>
     <polyline class="fil0 str1" points="1.16,56.18 7.51,67.18 1.16,78.19 7.51,89.19 "/>
    </g>
    <g>
     <line class="fil0 str1" x1="7.51" y1="89.19" x2="1.16" y2= "100.2" />
    </g>
    <g>
     <line class="fil0 str1" x1="1.16" y1="100.2" x2="7.51" y2= "111.2" />
    </g>
    <g>
     <line class="fil0 str1" x1="13.86" y1="12.16" x2="7.51" y2= "23.16" />
    </g>
    <g>
     <line class="fil0 str1" x1="13.86" y1="56.18" x2="7.51" y2= "67.18" />
    </g>
    <g>
     <line class="fil0 str1" x1="20.22" y1="23.16" x2="13.86" y2= "34.17" />
    </g>
    <g>
     <polyline class="fil0 str1" points="20.22,67.18 13.86,78.19 20.22,89.19 "/>
    </g>
    <g>
     <polyline class="fil0 str1" points="20.22,1.16 26.57,12.16 20.22,23.16 "/>
    </g>
    <g>
     <line class="fil0 str1" x1="26.57" y1="100.2" x2="32.92" y2= "111.2" />
    </g>
    <g>
     <line class="fil0 str1" x1="39.28" y1="56.18" x2="32.92" y2= "67.18" />
    </g>
    <g>
     <line class="fil0 str1" x1="39.28" y1="78.19" x2="32.92" y2= "89.19" />
    </g>
    <g>
     <line class="fil0 str1" x1="32.92" y1="89.19" x2="39.28" y2= "100.2" />
    </g>
    <g>
     <line class="fil0 str1" x1="45.63" y1="1.16" x2="39.28" y2= "12.16" />
    </g>
    <g>
     <line class="fil0 str1" x1="39.28" y1="34.17" x2="45.63" y2= "45.17" />
    </g>
    <g>
     <line class="fil0 str1" x1="45.63" y1="45.17" x2="39.28" y2= "56.18" />
    </g>
    <g>
     <line class="fil0 str1" x1="45.63" y1="67.18" x2="39.28" y2= "78.19" />
    </g>
    <g>
     <line class="fil0 str1" x1="39.28" y1="100.2" x2="45.63" y2= "111.2" />
    </g>
    <g>
     <line class="fil0 str1" x1="45.63" y1="23.16" x2="51.98" y2= "34.17" />
    </g>
    <g>
     <line class="fil0 str1" x1="45.63" y1="45.17" x2="51.98" y2= "56.18" />
    </g>
    <g>
     <line class="fil0 str1" x1="51.98" y1="78.19" x2="45.63" y2= "89.19" />
    </g>
    <g>
     <line class="fil0 str1" x1="45.63" y1="89.19" x2="51.98" y2= "100.2" />
    </g>
    <g>
     <polyline class="fil0 str1" points="51.98,56.18 58.34,67.18 51.98,78.19 "/>
    </g>
    <g>
     <line class="fil0 str1" x1="58.34" y1="45.17" x2="64.69" y2= "56.18" />
    </g>
    <g>
     <line class="fil0 str1" x1="58.34" y1="89.19" x2="64.69" y2= "100.2" />
    </g>
    <g>
     <polyline class="fil0 str1" points="71.05,1.16 64.69,12.16 71.05,23.16 64.69,34.17 "/>
    </g>
    <g>
     <line class="fil0 str1" x1="64.69" y1="34.17" x2="71.05" y2= "45.17" />
    </g>
    <g>
     <line class="fil0 str1" x1="71.05" y1="45.17" x2="64.69" y2= "56.18" />
    </g>
    <g>
     <polyline class="fil0 str1" points="64.69,56.18 71.05,67.18 64.69,78.19 71.05,89.19 "/>
    </g>
    <g>
     <line class="fil0 str1" x1="71.05" y1="89.19" x2="64.69" y2= "100.2" />
    </g>
    <g>
     <line class="fil0 str1" x1="64.69" y1="100.2" x2="71.05" y2= "111.2" />
    </g>
   </g>
  </g>
 </g>
</svg>
