<?xml version="1.0" encoding="UTF-8"?>
<!DOCTYPE svg PUBLIC "-//W3C//DTD SVG 1.1//EN" "http://www.w3.org/Graphics/SVG/1.1/DTD/svg11.dtd">
<!-- Creator: CorelDRAW 2018 (64-Bit) -->
<svg xmlns="http://www.w3.org/2000/svg" xml:space="preserve" width="1.70834in" height="1.70834in" version="1.1" style="shape-rendering:geometricPrecision; text-rendering:geometricPrecision; image-rendering:optimizeQuality; fill-rule:evenodd; clip-rule:evenodd"
viewBox="0 0 52.09 52.09"
 xmlns:xlink="http://www.w3.org/1999/xlink">
 <defs>
  <style type="text/css">
   <![CDATA[
    .str2 {stroke:black;stroke-width:0.64;stroke-linecap:square;stroke-linejoin:round;stroke-miterlimit:2.61313}
    .str0 {stroke:#FB0501;stroke-width:1.27;stroke-linecap:square;stroke-miterlimit:2.61313}
    .str1 {stroke:white;stroke-width:0.85;stroke-linecap:square;stroke-miterlimit:2.61313}
    .fil0 {fill:none}
   ]]>
  </style>
 </defs>
 <g id="Layer_x0020_1">
  <metadata id="CorelCorpID_0Corel-Layer"/>
  <g id="_2423636890848">
   <g>
    <g>
     <line class="fil0 str0" x1="0.64" y1="0.64" x2="20.96" y2= "0.64" />
    </g>
    <g>
     <line class="fil0 str0" x1="26.04" y1="0.64" x2="51.45" y2= "0.64" />
    </g>
    <g>
     <line class="fil0 str0" x1="5.72" y1="5.72" x2="10.8" y2= "5.72" />
    </g>
    <g>
     <line class="fil0 str0" x1="26.04" y1="5.72" x2="36.21" y2= "5.72" />
    </g>
    <g>
     <line class="fil0 str0" x1="15.88" y1="10.8" x2="46.37" y2= "10.8" />
    </g>
    <g>
     <line class="fil0 str0" x1="5.72" y1="15.88" x2="10.8" y2= "15.88" />
    </g>
    <g>
     <line class="fil0 str0" x1="20.96" y1="15.88" x2="26.04" y2= "15.88" />
    </g>
    <g>
     <line class="fil0 str0" x1="31.13" y1="15.88" x2="36.21" y2= "15.88" />
    </g>
    <g>
     <line class="fil0 str0" x1="46.37" y1="15.88" x2="51.45" y2= "15.88" />
    </g>
    <g>
     <line class="fil0 str0" x1="0.64" y1="20.96" x2="5.72" y2= "20.96" />
    </g>
    <g>
     <line class="fil0 str0" x1="41.29" y1="20.96" x2="46.37" y2= "20.96" />
    </g>
    <g>
     <line class="fil0 str0" x1="10.8" y1="26.04" x2="31.13" y2= "26.04" />
    </g>
    <g>
     <line class="fil0 str0" x1="36.21" y1="26.04" x2="46.37" y2= "26.04" />
    </g>
    <g>
     <line class="fil0 str0" x1="10.8" y1="31.13" x2="20.96" y2= "31.13" />
    </g>
    <g>
     <line class="fil0 str0" x1="31.13" y1="31.13" x2="36.21" y2= "31.13" />
    </g>
    <g>
     <line class="fil0 str0" x1="41.29" y1="31.13" x2="51.45" y2= "31.13" />
    </g>
    <g>
     <line class="fil0 str0" x1="5.72" y1="36.21" x2="15.88" y2= "36.21" />
    </g>
    <g>
     <line class="fil0 str0" x1="26.04" y1="36.21" x2="31.13" y2= "36.21" />
    </g>
    <g>
     <line class="fil0 str0" x1="46.37" y1="36.21" x2="51.45" y2= "36.21" />
    </g>
    <g>
     <line class="fil0 str0" x1="0.64" y1="41.29" x2="10.8" y2= "41.29" />
    </g>
    <g>
     <line class="fil0 str0" x1="26.04" y1="41.29" x2="46.37" y2= "41.29" />
    </g>
    <g>
     <line class="fil0 str0" x1="5.72" y1="46.37" x2="20.96" y2= "46.37" />
    </g>
    <g>
     <line class="fil0 str0" x1="31.13" y1="46.37" x2="51.45" y2= "46.37" />
    </g>
    <g>
     <line class="fil0 str0" x1="0.64" y1="51.45" x2="26.04" y2= "51.45" />
    </g>
    <g>
     <line class="fil0 str0" x1="31.13" y1="51.45" x2="51.45" y2= "51.45" />
    </g>
    <g>
     <line class="fil0 str0" x1="0.64" y1="0.64" x2="0.64" y2= "51.45" />
    </g>
    <g>
     <line class="fil0 str0" x1="5.72" y1="5.72" x2="5.72" y2= "10.8" />
    </g>
    <g>
     <line class="fil0 str0" x1="5.72" y1="20.96" x2="5.72" y2= "36.21" />
    </g>
    <g>
     <line class="fil0 str0" x1="10.8" y1="5.72" x2="10.8" y2= "31.13" />
    </g>
    <g>
     <line class="fil0 str0" x1="15.88" y1="5.72" x2="15.88" y2= "20.96" />
    </g>
    <g>
     <line class="fil0 str0" x1="15.88" y1="36.21" x2="15.88" y2= "46.37" />
    </g>
    <g>
     <line class="fil0 str0" x1="20.96" y1="0.64" x2="20.96" y2= "10.8" />
    </g>
    <g>
     <line class="fil0 str0" x1="20.96" y1="15.88" x2="20.96" y2= "26.04" />
    </g>
    <g>
     <line class="fil0 str0" x1="20.96" y1="31.13" x2="20.96" y2= "41.29" />
    </g>
    <g>
     <line class="fil0 str0" x1="26.04" y1="0.64" x2="26.04" y2= "5.72" />
    </g>
    <g>
     <line class="fil0 str0" x1="26.04" y1="15.88" x2="26.04" y2= "20.96" />
    </g>
    <g>
     <line class="fil0 str0" x1="26.04" y1="26.04" x2="26.04" y2= "41.29" />
    </g>
    <g>
     <line class="fil0 str0" x1="26.04" y1="46.37" x2="26.04" y2= "51.45" />
    </g>
    <g>
     <line class="fil0 str0" x1="31.13" y1="20.96" x2="31.13" y2= "26.04" />
    </g>
    <g>
     <line class="fil0 str0" x1="36.21" y1="15.88" x2="36.21" y2= "41.29" />
    </g>
    <g>
     <line class="fil0 str0" x1="41.29" y1="5.72" x2="41.29" y2= "20.96" />
    </g>
    <g>
     <line class="fil0 str0" x1="41.29" y1="31.13" x2="41.29" y2= "36.21" />
    </g>
    <g>
     <line class="fil0 str0" x1="46.37" y1="0.64" x2="46.37" y2= "5.72" />
    </g>
    <g>
     <line class="fil0 str0" x1="46.37" y1="20.96" x2="46.37" y2= "26.04" />
    </g>
    <g>
     <line class="fil0 str0" x1="51.45" y1="0.64" x2="51.45" y2= "51.45" />
    </g>
   </g>
  </g>
  <g>
   <g>
    <g>
     <line class="fil0 str1" x1="0.64" y1="0.64" x2="20.96" y2= "0.64" />
    </g>
    <g>
     <line class="fil0 str1" x1="26.04" y1="0.64" x2="51.45" y2= "0.64" />
    </g>
    <g>
     <line class="fil0 str1" x1="5.72" y1="5.72" x2="10.8" y2= "5.72" />
    </g>
    <g>
     <line class="fil0 str1" x1="26.04" y1="5.72" x2="36.21" y2= "5.72" />
    </g>
    <g>
     <line class="fil0 str1" x1="15.88" y1="10.8" x2="46.37" y2= "10.8" />
    </g>
    <g>
     <line class="fil0 str1" x1="5.72" y1="15.88" x2="10.8" y2= "15.88" />
    </g>
    <g>
     <line class="fil0 str1" x1="20.96" y1="15.88" x2="26.04" y2= "15.88" />
    </g>
    <g>
     <line class="fil0 str1" x1="31.13" y1="15.88" x2="36.21" y2= "15.88" />
    </g>
    <g>
     <line class="fil0 str1" x1="46.37" y1="15.88" x2="51.45" y2= "15.88" />
    </g>
    <g>
     <line class="fil0 str1" x1="0.64" y1="20.96" x2="5.72" y2= "20.96" />
    </g>
    <g>
     <line class="fil0 str1" x1="41.29" y1="20.96" x2="46.37" y2= "20.96" />
    </g>
    <g>
     <line class="fil0 str1" x1="10.8" y1="26.04" x2="31.13" y2= "26.04" />
    </g>
    <g>
     <line class="fil0 str1" x1="36.21" y1="26.04" x2="46.37" y2= "26.04" />
    </g>
    <g>
     <line class="fil0 str1" x1="10.8" y1="31.13" x2="20.96" y2= "31.13" />
    </g>
    <g>
     <line class="fil0 str1" x1="31.13" y1="31.13" x2="36.21" y2= "31.13" />
    </g>
    <g>
     <line class="fil0 str1" x1="41.29" y1="31.13" x2="51.45" y2= "31.13" />
    </g>
    <g>
     <line class="fil0 str1" x1="5.72" y1="36.21" x2="15.88" y2= "36.21" />
    </g>
    <g>
     <line class="fil0 str1" x1="26.04" y1="36.21" x2="31.13" y2= "36.21" />
    </g>
    <g>
     <line class="fil0 str1" x1="46.37" y1="36.21" x2="51.45" y2= "36.21" />
    </g>
    <g>
     <line class="fil0 str1" x1="0.64" y1="41.29" x2="10.8" y2= "41.29" />
    </g>
    <g>
     <line class="fil0 str1" x1="26.04" y1="41.29" x2="46.37" y2= "41.29" />
    </g>
    <g>
     <line class="fil0 str1" x1="5.72" y1="46.37" x2="20.96" y2= "46.37" />
    </g>
    <g>
     <line class="fil0 str1" x1="31.13" y1="46.37" x2="51.45" y2= "46.37" />
    </g>
    <g>
     <line class="fil0 str1" x1="0.64" y1="51.45" x2="26.04" y2= "51.45" />
    </g>
    <g>
     <line class="fil0 str1" x1="31.13" y1="51.45" x2="51.45" y2= "51.45" />
    </g>
    <g>
     <line class="fil0 str1" x1="0.64" y1="0.64" x2="0.64" y2= "51.45" />
    </g>
    <g>
     <line class="fil0 str1" x1="5.72" y1="5.72" x2="5.72" y2= "10.8" />
    </g>
    <g>
     <line class="fil0 str1" x1="5.72" y1="20.96" x2="5.72" y2= "36.21" />
    </g>
    <g>
     <line class="fil0 str1" x1="10.8" y1="5.72" x2="10.8" y2= "31.13" />
    </g>
    <g>
     <line class="fil0 str1" x1="15.88" y1="5.72" x2="15.88" y2= "20.96" />
    </g>
    <g>
     <line class="fil0 str1" x1="15.88" y1="36.21" x2="15.88" y2= "46.37" />
    </g>
    <g>
     <line class="fil0 str1" x1="20.96" y1="0.64" x2="20.96" y2= "10.8" />
    </g>
    <g>
     <line class="fil0 str1" x1="20.96" y1="15.88" x2="20.96" y2= "26.04" />
    </g>
    <g>
     <line class="fil0 str1" x1="20.96" y1="31.13" x2="20.96" y2= "41.29" />
    </g>
    <g>
     <line class="fil0 str1" x1="26.04" y1="0.64" x2="26.04" y2= "5.72" />
    </g>
    <g>
     <line class="fil0 str1" x1="26.04" y1="15.88" x2="26.04" y2= "20.96" />
    </g>
    <g>
     <line class="fil0 str1" x1="26.04" y1="26.04" x2="26.04" y2= "41.29" />
    </g>
    <g>
     <line class="fil0 str1" x1="26.04" y1="46.37" x2="26.04" y2= "51.45" />
    </g>
    <g>
     <line class="fil0 str1" x1="31.13" y1="20.96" x2="31.13" y2= "26.04" />
    </g>
    <g>
     <line class="fil0 str1" x1="36.21" y1="15.88" x2="36.21" y2= "41.29" />
    </g>
    <g>
     <line class="fil0 str1" x1="41.29" y1="5.72" x2="41.29" y2= "20.96" />
    </g>
    <g>
     <line class="fil0 str1" x1="41.29" y1="31.13" x2="41.29" y2= "36.21" />
    </g>
    <g>
     <line class="fil0 str1" x1="46.37" y1="0.64" x2="46.37" y2= "5.72" />
    </g>
    <g>
     <line class="fil0 str1" x1="46.37" y1="20.96" x2="46.37" y2= "26.04" />
    </g>
    <g>
     <line class="fil0 str1" x1="51.45" y1="0.64" x2="51.45" y2= "51.45" />
    </g>
   </g>
  </g>
  <polyline class="fil0 str2" points="28.58,51.45 28.58,43.83 48.91,43.83 48.91,38.75 38.75,38.75 38.75,28.58 48.91,28.58 48.91,18.42 43.83,18.42 43.83,13.34 48.91,13.34 48.91,8.26 43.83,8.26 43.83,3.18 38.75,3.18 38.75,8.26 23.5,8.26 23.5,0.64 "/>
 </g>
</svg>
