<?xml version="1.0" encoding="UTF-8"?>
<!DOCTYPE svg PUBLIC "-//W3C//DTD SVG 1.1//EN" "http://www.w3.org/Graphics/SVG/1.1/DTD/svg11.dtd">
<!-- Creator: CorelDRAW 2018 (64-Bit) -->
<svg xmlns="http://www.w3.org/2000/svg" xml:space="preserve" width="1.70833in" height="1.70833in" version="1.1" style="shape-rendering:geometricPrecision; text-rendering:geometricPrecision; image-rendering:optimizeQuality; fill-rule:evenodd; clip-rule:evenodd"
viewBox="0 0 43.28 43.28"
 xmlns:xlink="http://www.w3.org/1999/xlink">
 <defs>
  <style type="text/css">
   <![CDATA[
    .str0 {stroke:black;stroke-width:0.53;stroke-linecap:square;stroke-linejoin:round;stroke-miterlimit:2.61313}
    .str1 {stroke:#FB0501;stroke-width:1.06;stroke-linecap:square;stroke-miterlimit:2.61313}
    .str2 {stroke:white;stroke-width:0.7;stroke-linecap:square;stroke-miterlimit:2.61313}
    .fil0 {fill:none}
   ]]>
  </style>
 </defs>
 <g id="Layer_x0020_1">
  <metadata id="CorelCorpID_0Corel-Layer"/>
  <polyline class="fil0 str0" points="19.88,0.69 19.88,2.8 11.44,2.8 11.44,11.25 7.22,11.25 7.22,19.69 11.44,19.69 11.44,15.47 19.88,15.47 19.88,11.25 15.66,11.25 15.66,7.02 24.1,7.02 24.1,15.47 36.77,15.47 36.77,23.91 40.99,23.91 40.99,28.14 28.33,28.14 28.33,23.91 24.1,23.91 24.1,19.69 15.66,19.69 15.66,23.91 11.44,23.91 11.44,40.8 19.88,40.8 19.88,36.58 15.66,36.58 15.66,32.36 24.1,32.36 24.1,42.91 "/>
  <g id="_2423984226544">
   <g>
    <g>
     <line class="fil0 str1" x1="0.53" y1="0.53" x2="17.42" y2= "0.53" />
    </g>
    <g>
     <line class="fil0 str1" x1="21.64" y1="0.53" x2="42.75" y2= "0.53" />
    </g>
    <g>
     <line class="fil0 str1" x1="4.75" y1="4.75" x2="8.97" y2= "4.75" />
    </g>
    <g>
     <line class="fil0 str1" x1="13.19" y1="4.75" x2="25.86" y2= "4.75" />
    </g>
    <g>
     <line class="fil0 str1" x1="34.31" y1="4.75" x2="42.75" y2= "4.75" />
    </g>
    <g>
     <line class="fil0 str1" x1="4.75" y1="8.97" x2="8.97" y2= "8.97" />
    </g>
    <g>
     <line class="fil0 str1" x1="17.42" y1="8.97" x2="21.64" y2= "8.97" />
    </g>
    <g>
     <line class="fil0 str1" x1="34.31" y1="8.97" x2="38.53" y2= "8.97" />
    </g>
    <g>
     <line class="fil0 str1" x1="8.97" y1="13.19" x2="17.42" y2= "13.19" />
    </g>
    <g>
     <line class="fil0 str1" x1="25.86" y1="13.19" x2="38.53" y2= "13.19" />
    </g>
    <g>
     <line class="fil0 str1" x1="13.19" y1="17.42" x2="34.31" y2= "17.42" />
    </g>
    <g>
     <line class="fil0 str1" x1="0.53" y1="21.64" x2="4.75" y2= "21.64" />
    </g>
    <g>
     <line class="fil0 str1" x1="8.97" y1="21.64" x2="13.19" y2= "21.64" />
    </g>
    <g>
     <line class="fil0 str1" x1="25.86" y1="21.64" x2="34.31" y2= "21.64" />
    </g>
    <g>
     <line class="fil0 str1" x1="38.53" y1="21.64" x2="42.75" y2= "21.64" />
    </g>
    <g>
     <line class="fil0 str1" x1="4.75" y1="25.86" x2="8.97" y2= "25.86" />
    </g>
    <g>
     <line class="fil0 str1" x1="13.19" y1="25.86" x2="17.42" y2= "25.86" />
    </g>
    <g>
     <line class="fil0 str1" x1="21.64" y1="25.86" x2="25.86" y2= "25.86" />
    </g>
    <g>
     <line class="fil0 str1" x1="30.08" y1="25.86" x2="38.53" y2= "25.86" />
    </g>
    <g>
     <line class="fil0 str1" x1="13.19" y1="30.08" x2="38.53" y2= "30.08" />
    </g>
    <g>
     <line class="fil0 str1" x1="17.42" y1="34.31" x2="21.64" y2= "34.31" />
    </g>
    <g>
     <line class="fil0 str1" x1="13.19" y1="38.53" x2="17.42" y2= "38.53" />
    </g>
    <g>
     <line class="fil0 str1" x1="25.86" y1="38.53" x2="34.31" y2= "38.53" />
    </g>
    <g>
     <line class="fil0 str1" x1="0.53" y1="42.75" x2="21.64" y2= "42.75" />
    </g>
    <g>
     <line class="fil0 str1" x1="25.86" y1="42.75" x2="42.75" y2= "42.75" />
    </g>
    <g>
     <line class="fil0 str1" x1="0.53" y1="0.53" x2="0.53" y2= "42.75" />
    </g>
    <g>
     <line class="fil0 str1" x1="4.75" y1="8.97" x2="4.75" y2= "21.64" />
    </g>
    <g>
     <line class="fil0 str1" x1="4.75" y1="25.86" x2="4.75" y2= "38.53" />
    </g>
    <g>
     <line class="fil0 str1" x1="8.97" y1="0.53" x2="8.97" y2= "4.75" />
    </g>
    <g>
     <line class="fil0 str1" x1="8.97" y1="13.19" x2="8.97" y2= "17.42" />
    </g>
    <g>
     <line class="fil0 str1" x1="8.97" y1="21.64" x2="8.97" y2= "42.75" />
    </g>
    <g>
     <line class="fil0 str1" x1="13.19" y1="4.75" x2="13.19" y2= "13.19" />
    </g>
    <g>
     <line class="fil0 str1" x1="13.19" y1="17.42" x2="13.19" y2= "21.64" />
    </g>
    <g>
     <line class="fil0 str1" x1="13.19" y1="25.86" x2="13.19" y2= "38.53" />
    </g>
    <g>
     <line class="fil0 str1" x1="17.42" y1="21.64" x2="17.42" y2= "25.86" />
    </g>
    <g>
     <line class="fil0 str1" x1="21.64" y1="8.97" x2="21.64" y2= "17.42" />
    </g>
    <g>
     <line class="fil0 str1" x1="21.64" y1="21.64" x2="21.64" y2= "30.08" />
    </g>
    <g>
     <line class="fil0 str1" x1="21.64" y1="34.31" x2="21.64" y2= "42.75" />
    </g>
    <g>
     <line class="fil0 str1" x1="25.86" y1="4.75" x2="25.86" y2= "13.19" />
    </g>
    <g>
     <line class="fil0 str1" x1="25.86" y1="17.42" x2="25.86" y2= "21.64" />
    </g>
    <g>
     <line class="fil0 str1" x1="25.86" y1="30.08" x2="25.86" y2= "42.75" />
    </g>
    <g>
     <line class="fil0 str1" x1="30.08" y1="0.53" x2="30.08" y2= "8.97" />
    </g>
    <g>
     <line class="fil0 str1" x1="30.08" y1="21.64" x2="30.08" y2= "25.86" />
    </g>
    <g>
     <line class="fil0 str1" x1="30.08" y1="30.08" x2="30.08" y2= "34.31" />
    </g>
    <g>
     <line class="fil0 str1" x1="34.31" y1="8.97" x2="34.31" y2= "13.19" />
    </g>
    <g>
     <line class="fil0 str1" x1="34.31" y1="34.31" x2="34.31" y2= "38.53" />
    </g>
    <g>
     <line class="fil0 str1" x1="38.53" y1="13.19" x2="38.53" y2= "21.64" />
    </g>
    <g>
     <line class="fil0 str1" x1="38.53" y1="34.31" x2="38.53" y2= "42.75" />
    </g>
    <g>
     <line class="fil0 str1" x1="42.75" y1="0.53" x2="42.75" y2= "42.75" />
    </g>
   </g>
  </g>
  <g>
   <g>
    <g>
     <line class="fil0 str2" x1="0.53" y1="0.53" x2="17.42" y2= "0.53" />
    </g>
    <g>
     <line class="fil0 str2" x1="21.64" y1="0.53" x2="42.75" y2= "0.53" />
    </g>
    <g>
     <line class="fil0 str2" x1="4.75" y1="4.75" x2="8.97" y2= "4.75" />
    </g>
    <g>
     <line class="fil0 str2" x1="13.19" y1="4.75" x2="25.86" y2= "4.75" />
    </g>
    <g>
     <line class="fil0 str2" x1="34.31" y1="4.75" x2="42.75" y2= "4.75" />
    </g>
    <g>
     <line class="fil0 str2" x1="4.75" y1="8.97" x2="8.97" y2= "8.97" />
    </g>
    <g>
     <line class="fil0 str2" x1="17.42" y1="8.97" x2="21.64" y2= "8.97" />
    </g>
    <g>
     <line class="fil0 str2" x1="34.31" y1="8.97" x2="38.53" y2= "8.97" />
    </g>
    <g>
     <line class="fil0 str2" x1="8.97" y1="13.19" x2="17.42" y2= "13.19" />
    </g>
    <g>
     <line class="fil0 str2" x1="25.86" y1="13.19" x2="38.53" y2= "13.19" />
    </g>
    <g>
     <line class="fil0 str2" x1="13.19" y1="17.42" x2="34.31" y2= "17.42" />
    </g>
    <g>
     <line class="fil0 str2" x1="0.53" y1="21.64" x2="4.75" y2= "21.64" />
    </g>
    <g>
     <line class="fil0 str2" x1="8.97" y1="21.64" x2="13.19" y2= "21.64" />
    </g>
    <g>
     <line class="fil0 str2" x1="25.86" y1="21.64" x2="34.31" y2= "21.64" />
    </g>
    <g>
     <line class="fil0 str2" x1="38.53" y1="21.64" x2="42.75" y2= "21.64" />
    </g>
    <g>
     <line class="fil0 str2" x1="4.75" y1="25.86" x2="8.97" y2= "25.86" />
    </g>
    <g>
     <line class="fil0 str2" x1="13.19" y1="25.86" x2="17.42" y2= "25.86" />
    </g>
    <g>
     <line class="fil0 str2" x1="21.64" y1="25.86" x2="25.86" y2= "25.86" />
    </g>
    <g>
     <line class="fil0 str2" x1="30.08" y1="25.86" x2="38.53" y2= "25.86" />
    </g>
    <g>
     <line class="fil0 str2" x1="13.19" y1="30.08" x2="38.53" y2= "30.08" />
    </g>
    <g>
     <line class="fil0 str2" x1="17.42" y1="34.31" x2="21.64" y2= "34.31" />
    </g>
    <g>
     <line class="fil0 str2" x1="13.19" y1="38.53" x2="17.42" y2= "38.53" />
    </g>
    <g>
     <line class="fil0 str2" x1="25.86" y1="38.53" x2="34.31" y2= "38.53" />
    </g>
    <g>
     <line class="fil0 str2" x1="0.53" y1="42.75" x2="21.64" y2= "42.75" />
    </g>
    <g>
     <line class="fil0 str2" x1="25.86" y1="42.75" x2="42.75" y2= "42.75" />
    </g>
    <g>
     <line class="fil0 str2" x1="0.53" y1="0.53" x2="0.53" y2= "42.75" />
    </g>
    <g>
     <line class="fil0 str2" x1="4.75" y1="8.97" x2="4.75" y2= "21.64" />
    </g>
    <g>
     <line class="fil0 str2" x1="4.75" y1="25.86" x2="4.75" y2= "38.53" />
    </g>
    <g>
     <line class="fil0 str2" x1="8.97" y1="0.53" x2="8.97" y2= "4.75" />
    </g>
    <g>
     <line class="fil0 str2" x1="8.97" y1="13.19" x2="8.97" y2= "17.42" />
    </g>
    <g>
     <line class="fil0 str2" x1="8.97" y1="21.64" x2="8.97" y2= "42.75" />
    </g>
    <g>
     <line class="fil0 str2" x1="13.19" y1="4.75" x2="13.19" y2= "13.19" />
    </g>
    <g>
     <line class="fil0 str2" x1="13.19" y1="17.42" x2="13.19" y2= "21.64" />
    </g>
    <g>
     <line class="fil0 str2" x1="13.19" y1="25.86" x2="13.19" y2= "38.53" />
    </g>
    <g>
     <line class="fil0 str2" x1="17.42" y1="21.64" x2="17.42" y2= "25.86" />
    </g>
    <g>
     <line class="fil0 str2" x1="21.64" y1="8.97" x2="21.64" y2= "17.42" />
    </g>
    <g>
     <line class="fil0 str2" x1="21.64" y1="21.64" x2="21.64" y2= "30.08" />
    </g>
    <g>
     <line class="fil0 str2" x1="21.64" y1="34.31" x2="21.64" y2= "42.75" />
    </g>
    <g>
     <line class="fil0 str2" x1="25.86" y1="4.75" x2="25.86" y2= "13.19" />
    </g>
    <g>
     <line class="fil0 str2" x1="25.86" y1="17.42" x2="25.86" y2= "21.64" />
    </g>
    <g>
     <line class="fil0 str2" x1="25.86" y1="30.08" x2="25.86" y2= "42.75" />
    </g>
    <g>
     <line class="fil0 str2" x1="30.08" y1="0.53" x2="30.08" y2= "8.97" />
    </g>
    <g>
     <line class="fil0 str2" x1="30.08" y1="21.64" x2="30.08" y2= "25.86" />
    </g>
    <g>
     <line class="fil0 str2" x1="30.08" y1="30.08" x2="30.08" y2= "34.31" />
    </g>
    <g>
     <line class="fil0 str2" x1="34.31" y1="8.97" x2="34.31" y2= "13.19" />
    </g>
    <g>
     <line class="fil0 str2" x1="34.31" y1="34.31" x2="34.31" y2= "38.53" />
    </g>
    <g>
     <line class="fil0 str2" x1="38.53" y1="13.19" x2="38.53" y2= "21.64" />
    </g>
    <g>
     <line class="fil0 str2" x1="38.53" y1="34.31" x2="38.53" y2= "42.75" />
    </g>
    <g>
     <line class="fil0 str2" x1="42.75" y1="0.53" x2="42.75" y2= "42.75" />
    </g>
   </g>
  </g>
 </g>
</svg>
