<?xml version="1.0" encoding="UTF-8"?>
<!DOCTYPE svg PUBLIC "-//W3C//DTD SVG 1.1//EN" "http://www.w3.org/Graphics/SVG/1.1/DTD/svg11.dtd">
<!-- Creator: CorelDRAW 2018 (64-Bit) -->
<svg xmlns="http://www.w3.org/2000/svg" xml:space="preserve" width="1.30208in" height="2.03438in" version="1.1" style="shape-rendering:geometricPrecision; text-rendering:geometricPrecision; image-rendering:optimizeQuality; fill-rule:evenodd; clip-rule:evenodd"
viewBox="0 0 72.2 112.81"
 xmlns:xlink="http://www.w3.org/1999/xlink">
 <defs>
  <style type="text/css">
   <![CDATA[
    .str2 {stroke:black;stroke-width:1.16;stroke-linecap:square;stroke-linejoin:round;stroke-miterlimit:2.61313}
    .str0 {stroke:#FB0501;stroke-width:2.31;stroke-linecap:round;stroke-linejoin:round;stroke-miterlimit:2.61313}
    .str1 {stroke:white;stroke-width:1.54;stroke-linecap:round;stroke-linejoin:round;stroke-miterlimit:2.61313}
    .fil0 {fill:none}
   ]]>
  </style>
 </defs>
 <g id="Layer_x0020_1">
  <metadata id="CorelCorpID_0Corel-Layer"/>
  <g id="_2423988049200">
   <g>
    <g>
     <line class="fil0 str0" x1="7.51" y1="1.6" x2="32.92" y2= "1.6" />
    </g>
    <g>
     <line class="fil0 str0" x1="45.63" y1="1.6" x2="71.05" y2= "1.6" />
    </g>
    <g>
     <line class="fil0 str0" x1="51.98" y1="12.61" x2="64.69" y2= "12.61" />
    </g>
    <g>
     <line class="fil0 str0" x1="32.92" y1="23.61" x2="58.34" y2= "23.61" />
    </g>
    <g>
     <line class="fil0 str0" x1="26.57" y1="34.62" x2="39.28" y2= "34.62" />
    </g>
    <g>
     <line class="fil0 str0" x1="51.98" y1="34.62" x2="64.69" y2= "34.62" />
    </g>
    <g>
     <line class="fil0 str0" x1="7.51" y1="45.62" x2="32.92" y2= "45.62" />
    </g>
    <g>
     <line class="fil0 str0" x1="13.86" y1="56.63" x2="26.57" y2= "56.63" />
    </g>
    <g>
     <line class="fil0 str0" x1="20.22" y1="67.63" x2="32.92" y2= "67.63" />
    </g>
    <g>
     <line class="fil0 str0" x1="26.57" y1="78.64" x2="39.28" y2= "78.64" />
    </g>
    <g>
     <line class="fil0 str0" x1="20.22" y1="89.64" x2="32.92" y2= "89.64" />
    </g>
    <g>
     <line class="fil0 str0" x1="13.86" y1="100.65" x2="26.57" y2= "100.65" />
    </g>
    <g>
     <line class="fil0 str0" x1="7.51" y1="111.65" x2="32.92" y2= "111.65" />
    </g>
    <g>
     <line class="fil0 str0" x1="45.63" y1="111.65" x2="71.05" y2= "111.65" />
    </g>
    <g>
     <polyline class="fil0 str0" points="7.51,1.6 1.16,12.61 7.51,23.61 1.16,34.62 "/>
    </g>
    <g>
     <line class="fil0 str0" x1="1.16" y1="34.62" x2="7.51" y2= "45.62" />
    </g>
    <g>
     <line class="fil0 str0" x1="7.51" y1="45.62" x2="1.16" y2= "56.63" />
    </g>
    <g>
     <polyline class="fil0 str0" points="1.16,56.63 7.51,67.63 1.16,78.64 7.51,89.64 "/>
    </g>
    <g>
     <line class="fil0 str0" x1="7.51" y1="89.64" x2="1.16" y2= "100.65" />
    </g>
    <g>
     <line class="fil0 str0" x1="1.16" y1="100.65" x2="7.51" y2= "111.65" />
    </g>
    <g>
     <line class="fil0 str0" x1="13.86" y1="12.61" x2="7.51" y2= "23.61" />
    </g>
    <g>
     <line class="fil0 str0" x1="13.86" y1="56.63" x2="7.51" y2= "67.63" />
    </g>
    <g>
     <line class="fil0 str0" x1="20.22" y1="23.61" x2="13.86" y2= "34.62" />
    </g>
    <g>
     <polyline class="fil0 str0" points="20.22,67.63 13.86,78.64 20.22,89.64 "/>
    </g>
    <g>
     <polyline class="fil0 str0" points="20.22,1.6 26.57,12.61 20.22,23.61 "/>
    </g>
    <g>
     <line class="fil0 str0" x1="26.57" y1="100.65" x2="32.92" y2= "111.65" />
    </g>
    <g>
     <line class="fil0 str0" x1="39.28" y1="56.63" x2="32.92" y2= "67.63" />
    </g>
    <g>
     <line class="fil0 str0" x1="39.28" y1="78.64" x2="32.92" y2= "89.64" />
    </g>
    <g>
     <line class="fil0 str0" x1="32.92" y1="89.64" x2="39.28" y2= "100.65" />
    </g>
    <g>
     <line class="fil0 str0" x1="45.63" y1="1.6" x2="39.28" y2= "12.61" />
    </g>
    <g>
     <line class="fil0 str0" x1="39.28" y1="34.62" x2="45.63" y2= "45.62" />
    </g>
    <g>
     <line class="fil0 str0" x1="45.63" y1="45.62" x2="39.28" y2= "56.63" />
    </g>
    <g>
     <line class="fil0 str0" x1="45.63" y1="67.63" x2="39.28" y2= "78.64" />
    </g>
    <g>
     <line class="fil0 str0" x1="39.28" y1="100.65" x2="45.63" y2= "111.65" />
    </g>
    <g>
     <line class="fil0 str0" x1="45.63" y1="23.61" x2="51.98" y2= "34.62" />
    </g>
    <g>
     <line class="fil0 str0" x1="45.63" y1="45.62" x2="51.98" y2= "56.63" />
    </g>
    <g>
     <line class="fil0 str0" x1="51.98" y1="78.64" x2="45.63" y2= "89.64" />
    </g>
    <g>
     <line class="fil0 str0" x1="45.63" y1="89.64" x2="51.98" y2= "100.65" />
    </g>
    <g>
     <polyline class="fil0 str0" points="51.98,56.63 58.34,67.63 51.98,78.64 "/>
    </g>
    <g>
     <line class="fil0 str0" x1="58.34" y1="45.62" x2="64.69" y2= "56.63" />
    </g>
    <g>
     <line class="fil0 str0" x1="58.34" y1="89.64" x2="64.69" y2= "100.65" />
    </g>
    <g>
     <polyline class="fil0 str0" points="71.05,1.6 64.69,12.61 71.05,23.61 64.69,34.62 "/>
    </g>
    <g>
     <line class="fil0 str0" x1="64.69" y1="34.62" x2="71.05" y2= "45.62" />
    </g>
    <g>
     <line class="fil0 str0" x1="71.05" y1="45.62" x2="64.69" y2= "56.63" />
    </g>
    <g>
     <polyline class="fil0 str0" points="64.69,56.63 71.05,67.63 64.69,78.64 71.05,89.64 "/>
    </g>
    <g>
     <line class="fil0 str0" x1="71.05" y1="89.64" x2="64.69" y2= "100.65" />
    </g>
    <g>
     <line class="fil0 str0" x1="64.69" y1="100.65" x2="71.05" y2= "111.65" />
    </g>
   </g>
  </g>
  <g>
   <g>
    <g>
     <line class="fil0 str1" x1="7.51" y1="1.6" x2="32.92" y2= "1.6" />
    </g>
    <g>
     <line class="fil0 str1" x1="45.63" y1="1.6" x2="71.05" y2= "1.6" />
    </g>
    <g>
     <line class="fil0 str1" x1="51.98" y1="12.61" x2="64.69" y2= "12.61" />
    </g>
    <g>
     <line class="fil0 str1" x1="32.92" y1="23.61" x2="58.34" y2= "23.61" />
    </g>
    <g>
     <line class="fil0 str1" x1="26.57" y1="34.62" x2="39.28" y2= "34.62" />
    </g>
    <g>
     <line class="fil0 str1" x1="51.98" y1="34.62" x2="64.69" y2= "34.62" />
    </g>
    <g>
     <line class="fil0 str1" x1="7.51" y1="45.62" x2="32.92" y2= "45.62" />
    </g>
    <g>
     <line class="fil0 str1" x1="13.86" y1="56.63" x2="26.57" y2= "56.63" />
    </g>
    <g>
     <line class="fil0 str1" x1="20.22" y1="67.63" x2="32.92" y2= "67.63" />
    </g>
    <g>
     <line class="fil0 str1" x1="26.57" y1="78.64" x2="39.28" y2= "78.64" />
    </g>
    <g>
     <line class="fil0 str1" x1="20.22" y1="89.64" x2="32.92" y2= "89.64" />
    </g>
    <g>
     <line class="fil0 str1" x1="13.86" y1="100.65" x2="26.57" y2= "100.65" />
    </g>
    <g>
     <line class="fil0 str1" x1="7.51" y1="111.65" x2="32.92" y2= "111.65" />
    </g>
    <g>
     <line class="fil0 str1" x1="45.63" y1="111.65" x2="71.05" y2= "111.65" />
    </g>
    <g>
     <polyline class="fil0 str1" points="7.51,1.6 1.16,12.61 7.51,23.61 1.16,34.62 "/>
    </g>
    <g>
     <line class="fil0 str1" x1="1.16" y1="34.62" x2="7.51" y2= "45.62" />
    </g>
    <g>
     <line class="fil0 str1" x1="7.51" y1="45.62" x2="1.16" y2= "56.63" />
    </g>
    <g>
     <polyline class="fil0 str1" points="1.16,56.63 7.51,67.63 1.16,78.64 7.51,89.64 "/>
    </g>
    <g>
     <line class="fil0 str1" x1="7.51" y1="89.64" x2="1.16" y2= "100.65" />
    </g>
    <g>
     <line class="fil0 str1" x1="1.16" y1="100.65" x2="7.51" y2= "111.65" />
    </g>
    <g>
     <line class="fil0 str1" x1="13.86" y1="12.61" x2="7.51" y2= "23.61" />
    </g>
    <g>
     <line class="fil0 str1" x1="13.86" y1="56.63" x2="7.51" y2= "67.63" />
    </g>
    <g>
     <line class="fil0 str1" x1="20.22" y1="23.61" x2="13.86" y2= "34.62" />
    </g>
    <g>
     <polyline class="fil0 str1" points="20.22,67.63 13.86,78.64 20.22,89.64 "/>
    </g>
    <g>
     <polyline class="fil0 str1" points="20.22,1.6 26.57,12.61 20.22,23.61 "/>
    </g>
    <g>
     <line class="fil0 str1" x1="26.57" y1="100.65" x2="32.92" y2= "111.65" />
    </g>
    <g>
     <line class="fil0 str1" x1="39.28" y1="56.63" x2="32.92" y2= "67.63" />
    </g>
    <g>
     <line class="fil0 str1" x1="39.28" y1="78.64" x2="32.92" y2= "89.64" />
    </g>
    <g>
     <line class="fil0 str1" x1="32.92" y1="89.64" x2="39.28" y2= "100.65" />
    </g>
    <g>
     <line class="fil0 str1" x1="45.63" y1="1.6" x2="39.28" y2= "12.61" />
    </g>
    <g>
     <line class="fil0 str1" x1="39.28" y1="34.62" x2="45.63" y2= "45.62" />
    </g>
    <g>
     <line class="fil0 str1" x1="45.63" y1="45.62" x2="39.28" y2= "56.63" />
    </g>
    <g>
     <line class="fil0 str1" x1="45.63" y1="67.63" x2="39.28" y2= "78.64" />
    </g>
    <g>
     <line class="fil0 str1" x1="39.28" y1="100.65" x2="45.63" y2= "111.65" />
    </g>
    <g>
     <line class="fil0 str1" x1="45.63" y1="23.61" x2="51.98" y2= "34.62" />
    </g>
    <g>
     <line class="fil0 str1" x1="45.63" y1="45.62" x2="51.98" y2= "56.63" />
    </g>
    <g>
     <line class="fil0 str1" x1="51.98" y1="78.64" x2="45.63" y2= "89.64" />
    </g>
    <g>
     <line class="fil0 str1" x1="45.63" y1="89.64" x2="51.98" y2= "100.65" />
    </g>
    <g>
     <polyline class="fil0 str1" points="51.98,56.63 58.34,67.63 51.98,78.64 "/>
    </g>
    <g>
     <line class="fil0 str1" x1="58.34" y1="45.62" x2="64.69" y2= "56.63" />
    </g>
    <g>
     <line class="fil0 str1" x1="58.34" y1="89.64" x2="64.69" y2= "100.65" />
    </g>
    <g>
     <polyline class="fil0 str1" points="71.05,1.6 64.69,12.61 71.05,23.61 64.69,34.62 "/>
    </g>
    <g>
     <line class="fil0 str1" x1="64.69" y1="34.62" x2="71.05" y2= "45.62" />
    </g>
    <g>
     <line class="fil0 str1" x1="71.05" y1="45.62" x2="64.69" y2= "56.63" />
    </g>
    <g>
     <polyline class="fil0 str1" points="64.69,56.63 71.05,67.63 64.69,78.64 71.05,89.64 "/>
    </g>
    <g>
     <line class="fil0 str1" x1="71.05" y1="89.64" x2="64.69" y2= "100.65" />
    </g>
    <g>
     <line class="fil0 str1" x1="64.69" y1="100.65" x2="71.05" y2= "111.65" />
    </g>
   </g>
  </g>
  <polyline class="fil0 str2" points="39.18,0.79 20.12,33.8 23.3,39.31 36.01,39.31 39.18,44.81 29.65,61.32 16.95,61.32 7.42,77.82 16.95,94.33 29.65,94.33 39.18,110.84 "/>
 </g>
</svg>
