<?xml version="1.0" encoding="UTF-8"?>
<!DOCTYPE svg PUBLIC "-//W3C//DTD SVG 1.1//EN" "http://www.w3.org/Graphics/SVG/1.1/DTD/svg11.dtd">
<!-- Creator: CorelDRAW 2018 (64-Bit) -->
<svg xmlns="http://www.w3.org/2000/svg" xml:space="preserve" width="2.30208in" height="2.69387in" version="1.1" style="shape-rendering:geometricPrecision; text-rendering:geometricPrecision; image-rendering:optimizeQuality; fill-rule:evenodd; clip-rule:evenodd"
viewBox="0 0 122 142.77"
 xmlns:xlink="http://www.w3.org/1999/xlink">
 <defs>
  <style type="text/css">
   <![CDATA[
    .str2 {stroke:black;stroke-width:1.1;stroke-linecap:square;stroke-linejoin:round;stroke-miterlimit:2.61313}
    .str0 {stroke:#FB0501;stroke-width:2.21;stroke-linecap:round;stroke-linejoin:round;stroke-miterlimit:2.61313}
    .str1 {stroke:white;stroke-width:1.47;stroke-linecap:round;stroke-linejoin:round;stroke-miterlimit:2.61313}
    .fil0 {fill:none}
   ]]>
  </style>
 </defs>
 <g id="Layer_x0020_1">
  <metadata id="CorelCorpID_0Corel-Layer"/>
  <g id="_2423989484864">
   <g>
    <g>
     <polyline class="fil0 str0" points="4.97,21.18 1.1,14.49 4.97,7.8 12.7,7.8 16.56,1.1 24.29,1.1 28.15,7.8 35.88,7.8 39.75,14.49 "/>
    </g>
    <g>
     <polyline class="fil0 str0" points="35.88,7.8 39.75,1.1 47.48,1.1 51.34,7.8 "/>
    </g>
    <g>
     <polyline class="fil0 str0" points="62.93,14.49 59.07,7.8 62.93,1.1 70.66,1.1 74.53,7.8 82.26,7.8 86.12,1.1 93.85,1.1 97.71,7.8 93.85,14.49 "/>
    </g>
    <g>
     <polyline class="fil0 str0" points="97.71,7.8 105.44,7.8 109.31,14.49 "/>
    </g>
    <g>
     <polyline class="fil0 str0" points="105.44,7.8 109.31,1.1 117.04,1.1 120.9,7.8 117.04,14.49 "/>
    </g>
    <g>
     <polyline class="fil0 str0" points="4.97,34.57 1.1,27.88 4.97,21.18 12.7,21.18 16.56,14.49 24.29,14.49 28.15,21.18 "/>
    </g>
    <g>
     <polyline class="fil0 str0" points="39.75,27.88 35.88,21.18 39.75,14.49 "/>
    </g>
    <g>
     <polyline class="fil0 str0" points="47.48,14.49 51.34,21.18 47.48,27.88 "/>
    </g>
    <g>
     <polyline class="fil0 str0" points="51.34,21.18 59.07,21.18 62.93,27.88 "/>
    </g>
    <g>
     <line class="fil0 str0" x1="59.07" y1="21.18" x2="62.93" y2= "14.49" />
    </g>
    <g>
     <polyline class="fil0 str0" points="70.66,14.49 74.53,21.18 82.26,21.18 86.12,27.88 "/>
    </g>
    <g>
     <line class="fil0 str0" x1="82.26" y1="21.18" x2="86.12" y2= "14.49" />
    </g>
    <g>
     <polyline class="fil0 str0" points="93.85,27.88 97.71,21.18 105.44,21.18 "/>
    </g>
    <g>
     <polyline class="fil0 str0" points="117.04,14.49 120.9,21.18 117.04,27.88 "/>
    </g>
    <g>
     <polyline class="fil0 str0" points="4.97,47.96 1.1,41.26 4.97,34.57 12.7,34.57 "/>
    </g>
    <g>
     <polyline class="fil0 str0" points="16.56,27.88 24.29,27.88 28.15,34.57 24.29,41.26 "/>
    </g>
    <g>
     <polyline class="fil0 str0" points="28.15,34.57 35.88,34.57 39.75,41.26 "/>
    </g>
    <g>
     <line class="fil0 str0" x1="35.88" y1="34.57" x2="39.75" y2= "27.88" />
    </g>
    <g>
     <line class="fil0 str0" x1="47.48" y1="41.26" x2="51.34" y2= "34.57" />
    </g>
    <g>
     <polyline class="fil0 str0" points="62.93,41.26 59.07,34.57 62.93,27.88 70.66,27.88 "/>
    </g>
    <g>
     <polyline class="fil0 str0" points="74.53,34.57 82.26,34.57 86.12,41.26 "/>
    </g>
    <g>
     <polyline class="fil0 str0" points="82.26,34.57 86.12,27.88 93.85,27.88 97.71,34.57 105.44,34.57 109.31,27.88 117.04,27.88 120.9,34.57 117.04,41.26 "/>
    </g>
    <g>
     <polyline class="fil0 str0" points="4.97,61.34 1.1,54.65 4.97,47.96 12.7,47.96 16.56,54.65 "/>
    </g>
    <g>
     <polyline class="fil0 str0" points="16.56,41.26 24.29,41.26 28.15,47.96 "/>
    </g>
    <g>
     <line class="fil0 str0" x1="35.88" y1="47.96" x2="39.75" y2= "54.65" />
    </g>
    <g>
     <polyline class="fil0 str0" points="39.75,41.26 47.48,41.26 51.34,47.96 59.07,47.96 62.93,54.65 "/>
    </g>
    <g>
     <polyline class="fil0 str0" points="62.93,41.26 70.66,41.26 74.53,47.96 82.26,47.96 86.12,54.65 "/>
    </g>
    <g>
     <polyline class="fil0 str0" points="93.85,41.26 97.71,47.96 93.85,54.65 "/>
    </g>
    <g>
     <polyline class="fil0 str0" points="97.71,47.96 105.44,47.96 109.31,54.65 "/>
    </g>
    <g>
     <line class="fil0 str0" x1="105.44" y1="47.96" x2="109.31" y2= "41.26" />
    </g>
    <g>
     <polyline class="fil0 str0" points="117.04,41.26 120.9,47.96 117.04,54.65 "/>
    </g>
    <g>
     <polyline class="fil0 str0" points="4.97,74.73 1.1,68.04 4.97,61.34 "/>
    </g>
    <g>
     <line class="fil0 str0" x1="12.7" y1="61.34" x2="16.56" y2= "68.04" />
    </g>
    <g>
     <polyline class="fil0 str0" points="16.56,54.65 24.29,54.65 28.15,61.34 24.29,68.04 "/>
    </g>
    <g>
     <polyline class="fil0 str0" points="28.15,61.34 35.88,61.34 39.75,68.04 "/>
    </g>
    <g>
     <line class="fil0 str0" x1="35.88" y1="61.34" x2="39.75" y2= "54.65" />
    </g>
    <g>
     <polyline class="fil0 str0" points="47.48,54.65 51.34,61.34 47.48,68.04 "/>
    </g>
    <g>
     <polyline class="fil0 str0" points="59.07,61.34 62.93,54.65 70.66,54.65 74.53,61.34 70.66,68.04 "/>
    </g>
    <g>
     <line class="fil0 str0" x1="74.53" y1="61.34" x2="82.26" y2= "61.34" />
    </g>
    <g>
     <polyline class="fil0 str0" points="86.12,54.65 93.85,54.65 97.71,61.34 93.85,68.04 "/>
    </g>
    <g>
     <line class="fil0 str0" x1="105.44" y1="61.34" x2="109.31" y2= "54.65" />
    </g>
    <g>
     <polyline class="fil0 str0" points="117.04,54.65 120.9,61.34 117.04,68.04 "/>
    </g>
    <g>
     <polyline class="fil0 str0" points="4.97,88.12 1.1,81.42 4.97,74.73 "/>
    </g>
    <g>
     <polyline class="fil0 str0" points="16.56,81.42 12.7,74.73 16.56,68.04 24.29,68.04 "/>
    </g>
    <g>
     <line class="fil0 str0" x1="24.29" y1="81.42" x2="28.15" y2= "74.73" />
    </g>
    <g>
     <line class="fil0 str0" x1="35.88" y1="74.73" x2="39.75" y2= "81.42" />
    </g>
    <g>
     <polyline class="fil0 str0" points="47.48,68.04 51.34,74.73 47.48,81.42 "/>
    </g>
    <g>
     <polyline class="fil0 str0" points="51.34,74.73 59.07,74.73 62.93,81.42 "/>
    </g>
    <g>
     <polyline class="fil0 str0" points="59.07,74.73 62.93,68.04 70.66,68.04 "/>
    </g>
    <g>
     <polyline class="fil0 str0" points="70.66,81.42 74.53,74.73 82.26,74.73 86.12,68.04 93.85,68.04 97.71,74.73 93.85,81.42 "/>
    </g>
    <g>
     <polyline class="fil0 str0" points="97.71,74.73 105.44,74.73 109.31,81.42 "/>
    </g>
    <g>
     <polyline class="fil0 str0" points="109.31,68.04 117.04,68.04 120.9,74.73 117.04,81.42 "/>
    </g>
    <g>
     <polyline class="fil0 str0" points="4.97,101.5 1.1,94.81 4.97,88.12 "/>
    </g>
    <g>
     <polyline class="fil0 str0" points="16.56,94.81 12.7,88.12 16.56,81.42 "/>
    </g>
    <g>
     <polyline class="fil0 str0" points="24.29,81.42 28.15,88.12 24.29,94.81 "/>
    </g>
    <g>
     <polyline class="fil0 str0" points="39.75,94.81 35.88,88.12 39.75,81.42 47.48,81.42 "/>
    </g>
    <g>
     <line class="fil0 str0" x1="47.48" y1="94.81" x2="51.34" y2= "88.12" />
    </g>
    <g>
     <polyline class="fil0 str0" points="62.93,94.81 59.07,88.12 62.93,81.42 "/>
    </g>
    <g>
     <polyline class="fil0 str0" points="70.66,81.42 74.53,88.12 70.66,94.81 "/>
    </g>
    <g>
     <polyline class="fil0 str0" points="74.53,88.12 82.26,88.12 86.12,94.81 "/>
    </g>
    <g>
     <line class="fil0 str0" x1="82.26" y1="88.12" x2="86.12" y2= "81.42" />
    </g>
    <g>
     <polyline class="fil0 str0" points="93.85,81.42 97.71,88.12 93.85,94.81 "/>
    </g>
    <g>
     <polyline class="fil0 str0" points="97.71,88.12 105.44,88.12 109.31,94.81 "/>
    </g>
    <g>
     <polyline class="fil0 str0" points="117.04,81.42 120.9,88.12 117.04,94.81 "/>
    </g>
    <g>
     <polyline class="fil0 str0" points="4.97,114.89 1.1,108.2 4.97,101.5 "/>
    </g>
    <g>
     <polyline class="fil0 str0" points="16.56,108.2 12.7,101.5 16.56,94.81 "/>
    </g>
    <g>
     <polyline class="fil0 str0" points="24.29,94.81 28.15,101.5 24.29,108.2 "/>
    </g>
    <g>
     <polyline class="fil0 str0" points="35.88,101.5 39.75,94.81 47.48,94.81 51.34,101.5 "/>
    </g>
    <g>
     <polyline class="fil0 str0" points="62.93,108.2 59.07,101.5 62.93,94.81 "/>
    </g>
    <g>
     <line class="fil0 str0" x1="70.66" y1="108.2" x2="74.53" y2= "101.5" />
    </g>
    <g>
     <polyline class="fil0 str0" points="86.12,108.2 82.26,101.5 86.12,94.81 "/>
    </g>
    <g>
     <polyline class="fil0 str0" points="97.71,101.5 105.44,101.5 109.31,108.2 "/>
    </g>
    <g>
     <polyline class="fil0 str0" points="117.04,94.81 120.9,101.5 117.04,108.2 "/>
    </g>
    <g>
     <polyline class="fil0 str0" points="4.97,128.28 1.1,121.58 4.97,114.89 "/>
    </g>
    <g>
     <polyline class="fil0 str0" points="16.56,121.58 12.7,114.89 16.56,108.2 "/>
    </g>
    <g>
     <polyline class="fil0 str0" points="24.29,108.2 28.15,114.89 35.88,114.89 39.75,121.58 "/>
    </g>
    <g>
     <polyline class="fil0 str0" points="35.88,114.89 39.75,108.2 47.48,108.2 "/>
    </g>
    <g>
     <polyline class="fil0 str0" points="47.48,121.58 51.34,114.89 59.07,114.89 62.93,121.58 "/>
    </g>
    <g>
     <polyline class="fil0 str0" points="62.93,108.2 70.66,108.2 74.53,114.89 70.66,121.58 "/>
    </g>
    <g>
     <line class="fil0 str0" x1="74.53" y1="114.89" x2="82.26" y2= "114.89" />
    </g>
    <g>
     <polyline class="fil0 str0" points="86.12,108.2 93.85,108.2 97.71,114.89 93.85,121.58 "/>
    </g>
    <g>
     <polyline class="fil0 str0" points="109.31,121.58 105.44,114.89 109.31,108.2 "/>
    </g>
    <g>
     <polyline class="fil0 str0" points="117.04,108.2 120.9,114.89 117.04,121.58 "/>
    </g>
    <g>
     <polyline class="fil0 str0" points="4.97,141.66 1.1,134.97 4.97,128.28 "/>
    </g>
    <g>
     <line class="fil0 str0" x1="12.7" y1="128.28" x2="16.56" y2= "134.97" />
    </g>
    <g>
     <line class="fil0 str0" x1="16.56" y1="121.58" x2="24.29" y2= "121.58" />
    </g>
    <g>
     <polyline class="fil0 str0" points="28.15,128.28 35.88,128.28 39.75,121.58 47.48,121.58 "/>
    </g>
    <g>
     <line class="fil0 str0" x1="47.48" y1="134.97" x2="51.34" y2= "128.28" />
    </g>
    <g>
     <polyline class="fil0 str0" points="62.93,134.97 59.07,128.28 62.93,121.58 "/>
    </g>
    <g>
     <polyline class="fil0 str0" points="74.53,128.28 82.26,128.28 86.12,121.58 93.85,121.58 "/>
    </g>
    <g>
     <polyline class="fil0 str0" points="93.85,134.97 97.71,128.28 105.44,128.28 "/>
    </g>
    <g>
     <polyline class="fil0 str0" points="109.31,121.58 117.04,121.58 120.9,128.28 117.04,134.97 "/>
    </g>
    <g>
     <polyline class="fil0 str0" points="16.56,134.97 12.7,141.66 4.97,141.66 "/>
    </g>
    <g>
     <line class="fil0 str0" x1="24.29" y1="134.97" x2="16.56" y2= "134.97" />
    </g>
    <g>
     <polyline class="fil0 str0" points="39.75,134.97 35.88,141.66 28.15,141.66 24.29,134.97 "/>
    </g>
    <g>
     <line class="fil0 str0" x1="47.48" y1="134.97" x2="39.75" y2= "134.97" />
    </g>
    <g>
     <polyline class="fil0 str0" points="62.93,134.97 59.07,141.66 51.34,141.66 47.48,134.97 "/>
    </g>
    <g>
     <polyline class="fil0 str0" points="86.12,134.97 82.26,141.66 74.53,141.66 70.66,134.97 "/>
    </g>
    <g>
     <line class="fil0 str0" x1="93.85" y1="134.97" x2="86.12" y2= "134.97" />
    </g>
    <g>
     <polyline class="fil0 str0" points="109.31,134.97 105.44,141.66 97.71,141.66 93.85,134.97 "/>
    </g>
    <g>
     <line class="fil0 str0" x1="117.04" y1="134.97" x2="109.31" y2= "134.97" />
    </g>
   </g>
  </g>
  <g>
   <g>
    <g>
     <polyline class="fil0 str1" points="4.97,21.18 1.1,14.49 4.97,7.8 12.7,7.8 16.56,1.1 24.29,1.1 28.15,7.8 35.88,7.8 39.75,14.49 "/>
    </g>
    <g>
     <polyline class="fil0 str1" points="35.88,7.8 39.75,1.1 47.48,1.1 51.34,7.8 "/>
    </g>
    <g>
     <polyline class="fil0 str1" points="62.93,14.49 59.07,7.8 62.93,1.1 70.66,1.1 74.53,7.8 82.26,7.8 86.12,1.1 93.85,1.1 97.71,7.8 93.85,14.49 "/>
    </g>
    <g>
     <polyline class="fil0 str1" points="97.71,7.8 105.44,7.8 109.31,14.49 "/>
    </g>
    <g>
     <polyline class="fil0 str1" points="105.44,7.8 109.31,1.1 117.04,1.1 120.9,7.8 117.04,14.49 "/>
    </g>
    <g>
     <polyline class="fil0 str1" points="4.97,34.57 1.1,27.88 4.97,21.18 12.7,21.18 16.56,14.49 24.29,14.49 28.15,21.18 "/>
    </g>
    <g>
     <polyline class="fil0 str1" points="39.75,27.88 35.88,21.18 39.75,14.49 "/>
    </g>
    <g>
     <polyline class="fil0 str1" points="47.48,14.49 51.34,21.18 47.48,27.88 "/>
    </g>
    <g>
     <polyline class="fil0 str1" points="51.34,21.18 59.07,21.18 62.93,27.88 "/>
    </g>
    <g>
     <line class="fil0 str1" x1="59.07" y1="21.18" x2="62.93" y2= "14.49" />
    </g>
    <g>
     <polyline class="fil0 str1" points="70.66,14.49 74.53,21.18 82.26,21.18 86.12,27.88 "/>
    </g>
    <g>
     <line class="fil0 str1" x1="82.26" y1="21.18" x2="86.12" y2= "14.49" />
    </g>
    <g>
     <polyline class="fil0 str1" points="93.85,27.88 97.71,21.18 105.44,21.18 "/>
    </g>
    <g>
     <polyline class="fil0 str1" points="117.04,14.49 120.9,21.18 117.04,27.88 "/>
    </g>
    <g>
     <polyline class="fil0 str1" points="4.97,47.96 1.1,41.26 4.97,34.57 12.7,34.57 "/>
    </g>
    <g>
     <polyline class="fil0 str1" points="16.56,27.88 24.29,27.88 28.15,34.57 24.29,41.26 "/>
    </g>
    <g>
     <polyline class="fil0 str1" points="28.15,34.57 35.88,34.57 39.75,41.26 "/>
    </g>
    <g>
     <line class="fil0 str1" x1="35.88" y1="34.57" x2="39.75" y2= "27.88" />
    </g>
    <g>
     <line class="fil0 str1" x1="47.48" y1="41.26" x2="51.34" y2= "34.57" />
    </g>
    <g>
     <polyline class="fil0 str1" points="62.93,41.26 59.07,34.57 62.93,27.88 70.66,27.88 "/>
    </g>
    <g>
     <polyline class="fil0 str1" points="74.53,34.57 82.26,34.57 86.12,41.26 "/>
    </g>
    <g>
     <polyline class="fil0 str1" points="82.26,34.57 86.12,27.88 93.85,27.88 97.71,34.57 105.44,34.57 109.31,27.88 117.04,27.88 120.9,34.57 117.04,41.26 "/>
    </g>
    <g>
     <polyline class="fil0 str1" points="4.97,61.34 1.1,54.65 4.97,47.96 12.7,47.96 16.56,54.65 "/>
    </g>
    <g>
     <polyline class="fil0 str1" points="16.56,41.26 24.29,41.26 28.15,47.96 "/>
    </g>
    <g>
     <line class="fil0 str1" x1="35.88" y1="47.96" x2="39.75" y2= "54.65" />
    </g>
    <g>
     <polyline class="fil0 str1" points="39.75,41.26 47.48,41.26 51.34,47.96 59.07,47.96 62.93,54.65 "/>
    </g>
    <g>
     <polyline class="fil0 str1" points="62.93,41.26 70.66,41.26 74.53,47.96 82.26,47.96 86.12,54.65 "/>
    </g>
    <g>
     <polyline class="fil0 str1" points="93.85,41.26 97.71,47.96 93.85,54.65 "/>
    </g>
    <g>
     <polyline class="fil0 str1" points="97.71,47.96 105.44,47.96 109.31,54.65 "/>
    </g>
    <g>
     <line class="fil0 str1" x1="105.44" y1="47.96" x2="109.31" y2= "41.26" />
    </g>
    <g>
     <polyline class="fil0 str1" points="117.04,41.26 120.9,47.96 117.04,54.65 "/>
    </g>
    <g>
     <polyline class="fil0 str1" points="4.97,74.73 1.1,68.04 4.97,61.34 "/>
    </g>
    <g>
     <line class="fil0 str1" x1="12.7" y1="61.34" x2="16.56" y2= "68.04" />
    </g>
    <g>
     <polyline class="fil0 str1" points="16.56,54.65 24.29,54.65 28.15,61.34 24.29,68.04 "/>
    </g>
    <g>
     <polyline class="fil0 str1" points="28.15,61.34 35.88,61.34 39.75,68.04 "/>
    </g>
    <g>
     <line class="fil0 str1" x1="35.88" y1="61.34" x2="39.75" y2= "54.65" />
    </g>
    <g>
     <polyline class="fil0 str1" points="47.48,54.65 51.34,61.34 47.48,68.04 "/>
    </g>
    <g>
     <polyline class="fil0 str1" points="59.07,61.34 62.93,54.65 70.66,54.65 74.53,61.34 70.66,68.04 "/>
    </g>
    <g>
     <line class="fil0 str1" x1="74.53" y1="61.34" x2="82.26" y2= "61.34" />
    </g>
    <g>
     <polyline class="fil0 str1" points="86.12,54.65 93.85,54.65 97.71,61.34 93.85,68.04 "/>
    </g>
    <g>
     <line class="fil0 str1" x1="105.44" y1="61.34" x2="109.31" y2= "54.65" />
    </g>
    <g>
     <polyline class="fil0 str1" points="117.04,54.65 120.9,61.34 117.04,68.04 "/>
    </g>
    <g>
     <polyline class="fil0 str1" points="4.97,88.12 1.1,81.42 4.97,74.73 "/>
    </g>
    <g>
     <polyline class="fil0 str1" points="16.56,81.42 12.7,74.73 16.56,68.04 24.29,68.04 "/>
    </g>
    <g>
     <line class="fil0 str1" x1="24.29" y1="81.42" x2="28.15" y2= "74.73" />
    </g>
    <g>
     <line class="fil0 str1" x1="35.88" y1="74.73" x2="39.75" y2= "81.42" />
    </g>
    <g>
     <polyline class="fil0 str1" points="47.48,68.04 51.34,74.73 47.48,81.42 "/>
    </g>
    <g>
     <polyline class="fil0 str1" points="51.34,74.73 59.07,74.73 62.93,81.42 "/>
    </g>
    <g>
     <polyline class="fil0 str1" points="59.07,74.73 62.93,68.04 70.66,68.04 "/>
    </g>
    <g>
     <polyline class="fil0 str1" points="70.66,81.42 74.53,74.73 82.26,74.73 86.12,68.04 93.85,68.04 97.71,74.73 93.85,81.42 "/>
    </g>
    <g>
     <polyline class="fil0 str1" points="97.71,74.73 105.44,74.73 109.31,81.42 "/>
    </g>
    <g>
     <polyline class="fil0 str1" points="109.31,68.04 117.04,68.04 120.9,74.73 117.04,81.42 "/>
    </g>
    <g>
     <polyline class="fil0 str1" points="4.97,101.5 1.1,94.81 4.97,88.12 "/>
    </g>
    <g>
     <polyline class="fil0 str1" points="16.56,94.81 12.7,88.12 16.56,81.42 "/>
    </g>
    <g>
     <polyline class="fil0 str1" points="24.29,81.42 28.15,88.12 24.29,94.81 "/>
    </g>
    <g>
     <polyline class="fil0 str1" points="39.75,94.81 35.88,88.12 39.75,81.42 47.48,81.42 "/>
    </g>
    <g>
     <line class="fil0 str1" x1="47.48" y1="94.81" x2="51.34" y2= "88.12" />
    </g>
    <g>
     <polyline class="fil0 str1" points="62.93,94.81 59.07,88.12 62.93,81.42 "/>
    </g>
    <g>
     <polyline class="fil0 str1" points="70.66,81.42 74.53,88.12 70.66,94.81 "/>
    </g>
    <g>
     <polyline class="fil0 str1" points="74.53,88.12 82.26,88.12 86.12,94.81 "/>
    </g>
    <g>
     <line class="fil0 str1" x1="82.26" y1="88.12" x2="86.12" y2= "81.42" />
    </g>
    <g>
     <polyline class="fil0 str1" points="93.85,81.42 97.71,88.12 93.85,94.81 "/>
    </g>
    <g>
     <polyline class="fil0 str1" points="97.71,88.12 105.44,88.12 109.31,94.81 "/>
    </g>
    <g>
     <polyline class="fil0 str1" points="117.04,81.42 120.9,88.12 117.04,94.81 "/>
    </g>
    <g>
     <polyline class="fil0 str1" points="4.97,114.89 1.1,108.2 4.97,101.5 "/>
    </g>
    <g>
     <polyline class="fil0 str1" points="16.56,108.2 12.7,101.5 16.56,94.81 "/>
    </g>
    <g>
     <polyline class="fil0 str1" points="24.29,94.81 28.15,101.5 24.29,108.2 "/>
    </g>
    <g>
     <polyline class="fil0 str1" points="35.88,101.5 39.75,94.81 47.48,94.81 51.34,101.5 "/>
    </g>
    <g>
     <polyline class="fil0 str1" points="62.93,108.2 59.07,101.5 62.93,94.81 "/>
    </g>
    <g>
     <line class="fil0 str1" x1="70.66" y1="108.2" x2="74.53" y2= "101.5" />
    </g>
    <g>
     <polyline class="fil0 str1" points="86.12,108.2 82.26,101.5 86.12,94.81 "/>
    </g>
    <g>
     <polyline class="fil0 str1" points="97.71,101.5 105.44,101.5 109.31,108.2 "/>
    </g>
    <g>
     <polyline class="fil0 str1" points="117.04,94.81 120.9,101.5 117.04,108.2 "/>
    </g>
    <g>
     <polyline class="fil0 str1" points="4.97,128.28 1.1,121.58 4.97,114.89 "/>
    </g>
    <g>
     <polyline class="fil0 str1" points="16.56,121.58 12.7,114.89 16.56,108.2 "/>
    </g>
    <g>
     <polyline class="fil0 str1" points="24.29,108.2 28.15,114.89 35.88,114.89 39.75,121.58 "/>
    </g>
    <g>
     <polyline class="fil0 str1" points="35.88,114.89 39.75,108.2 47.48,108.2 "/>
    </g>
    <g>
     <polyline class="fil0 str1" points="47.48,121.58 51.34,114.89 59.07,114.89 62.93,121.58 "/>
    </g>
    <g>
     <polyline class="fil0 str1" points="62.93,108.2 70.66,108.2 74.53,114.89 70.66,121.58 "/>
    </g>
    <g>
     <line class="fil0 str1" x1="74.53" y1="114.89" x2="82.26" y2= "114.89" />
    </g>
    <g>
     <polyline class="fil0 str1" points="86.12,108.2 93.85,108.2 97.71,114.89 93.85,121.58 "/>
    </g>
    <g>
     <polyline class="fil0 str1" points="109.31,121.58 105.44,114.89 109.31,108.2 "/>
    </g>
    <g>
     <polyline class="fil0 str1" points="117.04,108.2 120.9,114.89 117.04,121.58 "/>
    </g>
    <g>
     <polyline class="fil0 str1" points="4.97,141.66 1.1,134.97 4.97,128.28 "/>
    </g>
    <g>
     <line class="fil0 str1" x1="12.7" y1="128.28" x2="16.56" y2= "134.97" />
    </g>
    <g>
     <line class="fil0 str1" x1="16.56" y1="121.58" x2="24.29" y2= "121.58" />
    </g>
    <g>
     <polyline class="fil0 str1" points="28.15,128.28 35.88,128.28 39.75,121.58 47.48,121.58 "/>
    </g>
    <g>
     <line class="fil0 str1" x1="47.48" y1="134.97" x2="51.34" y2= "128.28" />
    </g>
    <g>
     <polyline class="fil0 str1" points="62.93,134.97 59.07,128.28 62.93,121.58 "/>
    </g>
    <g>
     <polyline class="fil0 str1" points="74.53,128.28 82.26,128.28 86.12,121.58 93.85,121.58 "/>
    </g>
    <g>
     <polyline class="fil0 str1" points="93.85,134.97 97.71,128.28 105.44,128.28 "/>
    </g>
    <g>
     <polyline class="fil0 str1" points="109.31,121.58 117.04,121.58 120.9,128.28 117.04,134.97 "/>
    </g>
    <g>
     <polyline class="fil0 str1" points="16.56,134.97 12.7,141.66 4.97,141.66 "/>
    </g>
    <g>
     <line class="fil0 str1" x1="24.29" y1="134.97" x2="16.56" y2= "134.97" />
    </g>
    <g>
     <polyline class="fil0 str1" points="39.75,134.97 35.88,141.66 28.15,141.66 24.29,134.97 "/>
    </g>
    <g>
     <line class="fil0 str1" x1="47.48" y1="134.97" x2="39.75" y2= "134.97" />
    </g>
    <g>
     <polyline class="fil0 str1" points="62.93,134.97 59.07,141.66 51.34,141.66 47.48,134.97 "/>
    </g>
    <g>
     <polyline class="fil0 str1" points="86.12,134.97 82.26,141.66 74.53,141.66 70.66,134.97 "/>
    </g>
    <g>
     <line class="fil0 str1" x1="93.85" y1="134.97" x2="86.12" y2= "134.97" />
    </g>
    <g>
     <polyline class="fil0 str1" points="109.31,134.97 105.44,141.66 97.71,141.66 93.85,134.97 "/>
    </g>
    <g>
     <line class="fil0 str1" x1="117.04" y1="134.97" x2="109.31" y2= "134.97" />
    </g>
   </g>
  </g>
  <polyline class="fil0 str2" points="66.53,134.97 66.53,128.28 89.72,114.89 78.13,108.2 78.13,94.81 66.53,101.5 66.53,74.73 89.72,61.34 54.94,41.26 54.94,27.88 43.35,34.57 43.35,7.8 54.94,14.49 54.94,7.8 "/>
 </g>
</svg>
