<?xml version="1.0" encoding="UTF-8"?>
<!DOCTYPE svg PUBLIC "-//W3C//DTD SVG 1.1//EN" "http://www.w3.org/Graphics/SVG/1.1/DTD/svg11.dtd">
<!-- Creator: CorelDRAW 2018 (64-Bit) -->
<svg xmlns="http://www.w3.org/2000/svg" xml:space="preserve" width="2.30208in" height="2.69387in" version="1.1" style="shape-rendering:geometricPrecision; text-rendering:geometricPrecision; image-rendering:optimizeQuality; fill-rule:evenodd; clip-rule:evenodd"
viewBox="0 0 1307.22 1529.69"
 xmlns:xlink="http://www.w3.org/1999/xlink">
 <defs>
  <style type="text/css">
   <![CDATA[
    .str2 {stroke:black;stroke-width:11.83;stroke-linecap:square;stroke-linejoin:round;stroke-miterlimit:2.61313}
    .str0 {stroke:#FB0501;stroke-width:23.66;stroke-linecap:round;stroke-linejoin:round;stroke-miterlimit:2.61313}
    .str1 {stroke:white;stroke-width:15.77;stroke-linecap:round;stroke-linejoin:round;stroke-miterlimit:2.61313}
    .fil0 {fill:none}
   ]]>
  </style>
 </defs>
 <g id="Layer_x0020_1">
  <metadata id="CorelCorpID_0Corel-Layer"/>
  <g id="_2423859219824">
   <g>
    <g>
     <polyline class="fil0 str0" points="53.23,226.98 11.83,155.26 53.23,83.55 136.04,83.55 177.45,11.83 260.26,11.83 301.66,83.55 260.26,155.26 "/>
    </g>
    <g>
     <polyline class="fil0 str0" points="301.66,83.55 384.48,83.55 425.88,11.83 508.69,11.83 550.1,83.55 508.69,155.26 "/>
    </g>
    <g>
     <polyline class="fil0 str0" points="674.31,155.26 632.91,83.55 674.31,11.83 757.12,11.83 798.53,83.55 881.34,83.55 922.74,155.26 "/>
    </g>
    <g>
     <polyline class="fil0 str0" points="881.34,83.55 922.74,11.83 1005.55,11.83 1046.96,83.55 1129.77,83.55 1171.17,155.26 "/>
    </g>
    <g>
     <polyline class="fil0 str0" points="1129.77,83.55 1171.17,11.83 1253.98,11.83 1295.39,83.55 1253.98,155.26 "/>
    </g>
    <g>
     <polyline class="fil0 str0" points="53.23,370.41 11.83,298.69 53.23,226.98 "/>
    </g>
    <g>
     <polyline class="fil0 str0" points="177.45,298.69 136.04,226.98 177.45,155.26 "/>
    </g>
    <g>
     <line class="fil0 str0" x1="260.26" y1="298.69" x2="301.66" y2= "226.98" />
    </g>
    <g>
     <polyline class="fil0 str0" points="425.88,298.69 384.48,226.98 425.88,155.26 508.69,155.26 550.1,226.98 632.91,226.98 "/>
    </g>
    <g>
     <line class="fil0 str0" x1="674.31" y1="155.26" x2="757.12" y2= "155.26" />
    </g>
    <g>
     <polyline class="fil0 str0" points="757.12,298.69 798.53,226.98 881.34,226.98 922.74,298.69 "/>
    </g>
    <g>
     <line class="fil0 str0" x1="881.34" y1="226.98" x2="922.74" y2= "155.26" />
    </g>
    <g>
     <polyline class="fil0 str0" points="1005.55,155.26 1046.96,226.98 1129.77,226.98 1171.17,298.69 "/>
    </g>
    <g>
     <polyline class="fil0 str0" points="1253.98,155.26 1295.39,226.98 1253.98,298.69 "/>
    </g>
    <g>
     <polyline class="fil0 str0" points="53.23,513.84 11.83,442.12 53.23,370.41 "/>
    </g>
    <g>
     <polyline class="fil0 str0" points="177.45,442.12 136.04,370.41 177.45,298.69 260.26,298.69 "/>
    </g>
    <g>
     <polyline class="fil0 str0" points="301.66,370.41 384.48,370.41 425.88,442.12 "/>
    </g>
    <g>
     <line class="fil0 str0" x1="384.48" y1="370.41" x2="425.88" y2= "298.69" />
    </g>
    <g>
     <polyline class="fil0 str0" points="508.69,298.69 550.1,370.41 508.69,442.12 "/>
    </g>
    <g>
     <polyline class="fil0 str0" points="550.1,370.41 632.91,370.41 674.31,298.69 757.12,298.69 "/>
    </g>
    <g>
     <polyline class="fil0 str0" points="757.12,442.12 798.53,370.41 881.34,370.41 922.74,442.12 "/>
    </g>
    <g>
     <polyline class="fil0 str0" points="881.34,370.41 922.74,298.69 1005.55,298.69 1046.96,370.41 1129.77,370.41 1171.17,442.12 "/>
    </g>
    <g>
     <polyline class="fil0 str0" points="1171.17,298.69 1253.98,298.69 1295.39,370.41 1253.98,442.12 "/>
    </g>
    <g>
     <polyline class="fil0 str0" points="53.23,657.27 11.83,585.56 53.23,513.84 "/>
    </g>
    <g>
     <polyline class="fil0 str0" points="136.04,513.84 177.45,442.12 260.26,442.12 301.66,513.84 384.48,513.84 425.88,442.12 "/>
    </g>
    <g>
     <polyline class="fil0 str0" points="508.69,442.12 550.1,513.84 508.69,585.56 "/>
    </g>
    <g>
     <polyline class="fil0 str0" points="550.1,513.84 632.91,513.84 674.31,585.56 "/>
    </g>
    <g>
     <line class="fil0 str0" x1="674.31" y1="442.12" x2="757.12" y2= "442.12" />
    </g>
    <g>
     <line class="fil0 str0" x1="757.12" y1="585.56" x2="798.53" y2= "513.84" />
    </g>
    <g>
     <line class="fil0 str0" x1="881.34" y1="513.84" x2="922.74" y2= "442.12" />
    </g>
    <g>
     <polyline class="fil0 str0" points="1005.55,442.12 1046.96,513.84 1005.55,585.56 "/>
    </g>
    <g>
     <line class="fil0 str0" x1="1129.77" y1="513.84" x2="1171.17" y2= "585.56" />
    </g>
    <g>
     <polyline class="fil0 str0" points="1253.98,442.12 1295.39,513.84 1253.98,585.56 "/>
    </g>
    <g>
     <polyline class="fil0 str0" points="53.23,800.7 11.83,728.99 53.23,657.27 "/>
    </g>
    <g>
     <polyline class="fil0 str0" points="177.45,728.99 136.04,657.27 177.45,585.56 260.26,585.56 301.66,657.27 384.48,657.27 425.88,728.99 "/>
    </g>
    <g>
     <polyline class="fil0 str0" points="384.48,657.27 425.88,585.56 508.69,585.56 "/>
    </g>
    <g>
     <line class="fil0 str0" x1="508.69" y1="728.99" x2="550.1" y2= "657.27" />
    </g>
    <g>
     <polyline class="fil0 str0" points="632.91,657.27 674.31,585.56 757.12,585.56 798.53,657.27 757.12,728.99 "/>
    </g>
    <g>
     <polyline class="fil0 str0" points="798.53,657.27 881.34,657.27 922.74,585.56 1005.55,585.56 "/>
    </g>
    <g>
     <polyline class="fil0 str0" points="1005.55,728.99 1046.96,657.27 1129.77,657.27 1171.17,728.99 "/>
    </g>
    <g>
     <polyline class="fil0 str0" points="1129.77,657.27 1171.17,585.56 1253.98,585.56 1295.39,657.27 1253.98,728.99 "/>
    </g>
    <g>
     <polyline class="fil0 str0" points="53.23,944.14 11.83,872.42 53.23,800.7 136.04,800.7 177.45,872.42 "/>
    </g>
    <g>
     <polyline class="fil0 str0" points="260.26,728.99 301.66,800.7 260.26,872.42 "/>
    </g>
    <g>
     <polyline class="fil0 str0" points="301.66,800.7 384.48,800.7 425.88,872.42 "/>
    </g>
    <g>
     <polyline class="fil0 str0" points="508.69,728.99 550.1,800.7 508.69,872.42 "/>
    </g>
    <g>
     <polyline class="fil0 str0" points="550.1,800.7 632.91,800.7 674.31,872.42 "/>
    </g>
    <g>
     <line class="fil0 str0" x1="632.91" y1="800.7" x2="674.31" y2= "728.99" />
    </g>
    <g>
     <polyline class="fil0 str0" points="757.12,728.99 798.53,800.7 881.34,800.7 "/>
    </g>
    <g>
     <line class="fil0 str0" x1="922.74" y1="728.99" x2="1005.55" y2= "728.99" />
    </g>
    <g>
     <polyline class="fil0 str0" points="1005.55,872.42 1046.96,800.7 1129.77,800.7 1171.17,872.42 "/>
    </g>
    <g>
     <polyline class="fil0 str0" points="1253.98,728.99 1295.39,800.7 1253.98,872.42 "/>
    </g>
    <g>
     <polyline class="fil0 str0" points="53.23,1087.57 11.83,1015.85 53.23,944.14 "/>
    </g>
    <g>
     <polyline class="fil0 str0" points="136.04,944.14 177.45,872.42 260.26,872.42 "/>
    </g>
    <g>
     <polyline class="fil0 str0" points="260.26,1015.85 301.66,944.14 384.48,944.14 "/>
    </g>
    <g>
     <line class="fil0 str0" x1="425.88" y1="872.42" x2="508.69" y2= "872.42" />
    </g>
    <g>
     <polyline class="fil0 str0" points="508.69,1015.85 550.1,944.14 632.91,944.14 674.31,872.42 757.12,872.42 798.53,944.14 881.34,944.14 922.74,1015.85 "/>
    </g>
    <g>
     <line class="fil0 str0" x1="922.74" y1="872.42" x2="1005.55" y2= "872.42" />
    </g>
    <g>
     <line class="fil0 str0" x1="1005.55" y1="1015.85" x2="1046.96" y2= "944.14" />
    </g>
    <g>
     <polyline class="fil0 str0" points="1171.17,1015.85 1129.77,944.14 1171.17,872.42 1253.98,872.42 1295.39,944.14 1253.98,1015.85 "/>
    </g>
    <g>
     <polyline class="fil0 str0" points="53.23,1231 11.83,1159.28 53.23,1087.57 136.04,1087.57 177.45,1159.28 "/>
    </g>
    <g>
     <line class="fil0 str0" x1="136.04" y1="1087.57" x2="177.45" y2= "1015.85" />
    </g>
    <g>
     <polyline class="fil0 str0" points="260.26,1015.85 301.66,1087.57 384.48,1087.57 425.88,1159.28 "/>
    </g>
    <g>
     <line class="fil0 str0" x1="425.88" y1="1015.85" x2="508.69" y2= "1015.85" />
    </g>
    <g>
     <line class="fil0 str0" x1="508.69" y1="1159.28" x2="550.1" y2= "1087.57" />
    </g>
    <g>
     <polyline class="fil0 str0" points="674.31,1159.28 632.91,1087.57 674.31,1015.85 757.12,1015.85 798.53,1087.57 757.12,1159.28 "/>
    </g>
    <g>
     <polyline class="fil0 str0" points="922.74,1159.28 881.34,1087.57 922.74,1015.85 1005.55,1015.85 1046.96,1087.57 1129.77,1087.57 1171.17,1159.28 "/>
    </g>
    <g>
     <polyline class="fil0 str0" points="1253.98,1015.85 1295.39,1087.57 1253.98,1159.28 "/>
    </g>
    <g>
     <polyline class="fil0 str0" points="53.23,1374.43 11.83,1302.72 53.23,1231 "/>
    </g>
    <g>
     <polyline class="fil0 str0" points="136.04,1231 177.45,1159.28 260.26,1159.28 301.66,1231 260.26,1302.72 "/>
    </g>
    <g>
     <polyline class="fil0 str0" points="301.66,1231 384.48,1231 425.88,1302.72 "/>
    </g>
    <g>
     <polyline class="fil0 str0" points="425.88,1159.28 508.69,1159.28 550.1,1231 508.69,1302.72 "/>
    </g>
    <g>
     <line class="fil0 str0" x1="550.1" y1="1231" x2="632.91" y2= "1231" />
    </g>
    <g>
     <polyline class="fil0 str0" points="757.12,1159.28 798.53,1231 757.12,1302.72 "/>
    </g>
    <g>
     <polyline class="fil0 str0" points="798.53,1231 881.34,1231 922.74,1302.72 "/>
    </g>
    <g>
     <polyline class="fil0 str0" points="922.74,1159.28 1005.55,1159.28 1046.96,1231 "/>
    </g>
    <g>
     <line class="fil0 str0" x1="1129.77" y1="1231" x2="1171.17" y2= "1302.72" />
    </g>
    <g>
     <polyline class="fil0 str0" points="1253.98,1159.28 1295.39,1231 1253.98,1302.72 "/>
    </g>
    <g>
     <polyline class="fil0 str0" points="53.23,1517.86 11.83,1446.15 53.23,1374.43 "/>
    </g>
    <g>
     <polyline class="fil0 str0" points="177.45,1446.15 136.04,1374.43 177.45,1302.72 "/>
    </g>
    <g>
     <line class="fil0 str0" x1="260.26" y1="1302.72" x2="301.66" y2= "1374.43" />
    </g>
    <g>
     <line class="fil0 str0" x1="384.48" y1="1374.43" x2="425.88" y2= "1446.15" />
    </g>
    <g>
     <polyline class="fil0 str0" points="508.69,1302.72 550.1,1374.43 632.91,1374.43 674.31,1446.15 "/>
    </g>
    <g>
     <polyline class="fil0 str0" points="674.31,1302.72 757.12,1302.72 798.53,1374.43 "/>
    </g>
    <g>
     <polyline class="fil0 str0" points="922.74,1446.15 881.34,1374.43 922.74,1302.72 "/>
    </g>
    <g>
     <polyline class="fil0 str0" points="1005.55,1302.72 1046.96,1374.43 1129.77,1374.43 1171.17,1302.72 1253.98,1302.72 1295.39,1374.43 1253.98,1446.15 "/>
    </g>
    <g>
     <polyline class="fil0 str0" points="177.45,1446.15 136.04,1517.86 53.23,1517.86 "/>
    </g>
    <g>
     <line class="fil0 str0" x1="260.26" y1="1446.15" x2="177.45" y2= "1446.15" />
    </g>
    <g>
     <polyline class="fil0 str0" points="425.88,1446.15 384.48,1517.86 301.66,1517.86 260.26,1446.15 "/>
    </g>
    <g>
     <line class="fil0 str0" x1="508.69" y1="1446.15" x2="425.88" y2= "1446.15" />
    </g>
    <g>
     <polyline class="fil0 str0" points="674.31,1446.15 632.91,1517.86 550.1,1517.86 508.69,1446.15 "/>
    </g>
    <g>
     <polyline class="fil0 str0" points="922.74,1446.15 881.34,1517.86 798.53,1517.86 757.12,1446.15 "/>
    </g>
    <g>
     <line class="fil0 str0" x1="1005.55" y1="1446.15" x2="922.74" y2= "1446.15" />
    </g>
    <g>
     <polyline class="fil0 str0" points="1171.17,1446.15 1129.77,1517.86 1046.96,1517.86 1005.55,1446.15 "/>
    </g>
    <g>
     <line class="fil0 str0" x1="1253.98" y1="1446.15" x2="1171.17" y2= "1446.15" />
    </g>
   </g>
  </g>
  <g>
   <g>
    <g>
     <polyline class="fil0 str1" points="53.23,226.98 11.83,155.26 53.23,83.55 136.04,83.55 177.45,11.83 260.26,11.83 301.66,83.55 260.26,155.26 "/>
    </g>
    <g>
     <polyline class="fil0 str1" points="301.66,83.55 384.48,83.55 425.88,11.83 508.69,11.83 550.1,83.55 508.69,155.26 "/>
    </g>
    <g>
     <polyline class="fil0 str1" points="674.31,155.26 632.91,83.55 674.31,11.83 757.12,11.83 798.53,83.55 881.34,83.55 922.74,155.26 "/>
    </g>
    <g>
     <polyline class="fil0 str1" points="881.34,83.55 922.74,11.83 1005.55,11.83 1046.96,83.55 1129.77,83.55 1171.17,155.26 "/>
    </g>
    <g>
     <polyline class="fil0 str1" points="1129.77,83.55 1171.17,11.83 1253.98,11.83 1295.39,83.55 1253.98,155.26 "/>
    </g>
    <g>
     <polyline class="fil0 str1" points="53.23,370.41 11.83,298.69 53.23,226.98 "/>
    </g>
    <g>
     <polyline class="fil0 str1" points="177.45,298.69 136.04,226.98 177.45,155.26 "/>
    </g>
    <g>
     <line class="fil0 str1" x1="260.26" y1="298.69" x2="301.66" y2= "226.98" />
    </g>
    <g>
     <polyline class="fil0 str1" points="425.88,298.69 384.48,226.98 425.88,155.26 508.69,155.26 550.1,226.98 632.91,226.98 "/>
    </g>
    <g>
     <line class="fil0 str1" x1="674.31" y1="155.26" x2="757.12" y2= "155.26" />
    </g>
    <g>
     <polyline class="fil0 str1" points="757.12,298.69 798.53,226.98 881.34,226.98 922.74,298.69 "/>
    </g>
    <g>
     <line class="fil0 str1" x1="881.34" y1="226.98" x2="922.74" y2= "155.26" />
    </g>
    <g>
     <polyline class="fil0 str1" points="1005.55,155.26 1046.96,226.98 1129.77,226.98 1171.17,298.69 "/>
    </g>
    <g>
     <polyline class="fil0 str1" points="1253.98,155.26 1295.39,226.98 1253.98,298.69 "/>
    </g>
    <g>
     <polyline class="fil0 str1" points="53.23,513.84 11.83,442.12 53.23,370.41 "/>
    </g>
    <g>
     <polyline class="fil0 str1" points="177.45,442.12 136.04,370.41 177.45,298.69 260.26,298.69 "/>
    </g>
    <g>
     <polyline class="fil0 str1" points="301.66,370.41 384.48,370.41 425.88,442.12 "/>
    </g>
    <g>
     <line class="fil0 str1" x1="384.48" y1="370.41" x2="425.88" y2= "298.69" />
    </g>
    <g>
     <polyline class="fil0 str1" points="508.69,298.69 550.1,370.41 508.69,442.12 "/>
    </g>
    <g>
     <polyline class="fil0 str1" points="550.1,370.41 632.91,370.41 674.31,298.69 757.12,298.69 "/>
    </g>
    <g>
     <polyline class="fil0 str1" points="757.12,442.12 798.53,370.41 881.34,370.41 922.74,442.12 "/>
    </g>
    <g>
     <polyline class="fil0 str1" points="881.34,370.41 922.74,298.69 1005.55,298.69 1046.96,370.41 1129.77,370.41 1171.17,442.12 "/>
    </g>
    <g>
     <polyline class="fil0 str1" points="1171.17,298.69 1253.98,298.69 1295.39,370.41 1253.98,442.12 "/>
    </g>
    <g>
     <polyline class="fil0 str1" points="53.23,657.27 11.83,585.56 53.23,513.84 "/>
    </g>
    <g>
     <polyline class="fil0 str1" points="136.04,513.84 177.45,442.12 260.26,442.12 301.66,513.84 384.48,513.84 425.88,442.12 "/>
    </g>
    <g>
     <polyline class="fil0 str1" points="508.69,442.12 550.1,513.84 508.69,585.56 "/>
    </g>
    <g>
     <polyline class="fil0 str1" points="550.1,513.84 632.91,513.84 674.31,585.56 "/>
    </g>
    <g>
     <line class="fil0 str1" x1="674.31" y1="442.12" x2="757.12" y2= "442.12" />
    </g>
    <g>
     <line class="fil0 str1" x1="757.12" y1="585.56" x2="798.53" y2= "513.84" />
    </g>
    <g>
     <line class="fil0 str1" x1="881.34" y1="513.84" x2="922.74" y2= "442.12" />
    </g>
    <g>
     <polyline class="fil0 str1" points="1005.55,442.12 1046.96,513.84 1005.55,585.56 "/>
    </g>
    <g>
     <line class="fil0 str1" x1="1129.77" y1="513.84" x2="1171.17" y2= "585.56" />
    </g>
    <g>
     <polyline class="fil0 str1" points="1253.98,442.12 1295.39,513.84 1253.98,585.56 "/>
    </g>
    <g>
     <polyline class="fil0 str1" points="53.23,800.7 11.83,728.99 53.23,657.27 "/>
    </g>
    <g>
     <polyline class="fil0 str1" points="177.45,728.99 136.04,657.27 177.45,585.56 260.26,585.56 301.66,657.27 384.48,657.27 425.88,728.99 "/>
    </g>
    <g>
     <polyline class="fil0 str1" points="384.48,657.27 425.88,585.56 508.69,585.56 "/>
    </g>
    <g>
     <line class="fil0 str1" x1="508.69" y1="728.99" x2="550.1" y2= "657.27" />
    </g>
    <g>
     <polyline class="fil0 str1" points="632.91,657.27 674.31,585.56 757.12,585.56 798.53,657.27 757.12,728.99 "/>
    </g>
    <g>
     <polyline class="fil0 str1" points="798.53,657.27 881.34,657.27 922.74,585.56 1005.55,585.56 "/>
    </g>
    <g>
     <polyline class="fil0 str1" points="1005.55,728.99 1046.96,657.27 1129.77,657.27 1171.17,728.99 "/>
    </g>
    <g>
     <polyline class="fil0 str1" points="1129.77,657.27 1171.17,585.56 1253.98,585.56 1295.39,657.27 1253.98,728.99 "/>
    </g>
    <g>
     <polyline class="fil0 str1" points="53.23,944.14 11.83,872.42 53.23,800.7 136.04,800.7 177.45,872.42 "/>
    </g>
    <g>
     <polyline class="fil0 str1" points="260.26,728.99 301.66,800.7 260.26,872.42 "/>
    </g>
    <g>
     <polyline class="fil0 str1" points="301.66,800.7 384.48,800.7 425.88,872.42 "/>
    </g>
    <g>
     <polyline class="fil0 str1" points="508.69,728.99 550.1,800.7 508.69,872.42 "/>
    </g>
    <g>
     <polyline class="fil0 str1" points="550.1,800.7 632.91,800.7 674.31,872.42 "/>
    </g>
    <g>
     <line class="fil0 str1" x1="632.91" y1="800.7" x2="674.31" y2= "728.99" />
    </g>
    <g>
     <polyline class="fil0 str1" points="757.12,728.99 798.53,800.7 881.34,800.7 "/>
    </g>
    <g>
     <line class="fil0 str1" x1="922.74" y1="728.99" x2="1005.55" y2= "728.99" />
    </g>
    <g>
     <polyline class="fil0 str1" points="1005.55,872.42 1046.96,800.7 1129.77,800.7 1171.17,872.42 "/>
    </g>
    <g>
     <polyline class="fil0 str1" points="1253.98,728.99 1295.39,800.7 1253.98,872.42 "/>
    </g>
    <g>
     <polyline class="fil0 str1" points="53.23,1087.57 11.83,1015.85 53.23,944.14 "/>
    </g>
    <g>
     <polyline class="fil0 str1" points="136.04,944.14 177.45,872.42 260.26,872.42 "/>
    </g>
    <g>
     <polyline class="fil0 str1" points="260.26,1015.85 301.66,944.14 384.48,944.14 "/>
    </g>
    <g>
     <line class="fil0 str1" x1="425.88" y1="872.42" x2="508.69" y2= "872.42" />
    </g>
    <g>
     <polyline class="fil0 str1" points="508.69,1015.85 550.1,944.14 632.91,944.14 674.31,872.42 757.12,872.42 798.53,944.14 881.34,944.14 922.74,1015.85 "/>
    </g>
    <g>
     <line class="fil0 str1" x1="922.74" y1="872.42" x2="1005.55" y2= "872.42" />
    </g>
    <g>
     <line class="fil0 str1" x1="1005.55" y1="1015.85" x2="1046.96" y2= "944.14" />
    </g>
    <g>
     <polyline class="fil0 str1" points="1171.17,1015.85 1129.77,944.14 1171.17,872.42 1253.98,872.42 1295.39,944.14 1253.98,1015.85 "/>
    </g>
    <g>
     <polyline class="fil0 str1" points="53.23,1231 11.83,1159.28 53.23,1087.57 136.04,1087.57 177.45,1159.28 "/>
    </g>
    <g>
     <line class="fil0 str1" x1="136.04" y1="1087.57" x2="177.45" y2= "1015.85" />
    </g>
    <g>
     <polyline class="fil0 str1" points="260.26,1015.85 301.66,1087.57 384.48,1087.57 425.88,1159.28 "/>
    </g>
    <g>
     <line class="fil0 str1" x1="425.88" y1="1015.85" x2="508.69" y2= "1015.85" />
    </g>
    <g>
     <line class="fil0 str1" x1="508.69" y1="1159.28" x2="550.1" y2= "1087.57" />
    </g>
    <g>
     <polyline class="fil0 str1" points="674.31,1159.28 632.91,1087.57 674.31,1015.85 757.12,1015.85 798.53,1087.57 757.12,1159.28 "/>
    </g>
    <g>
     <polyline class="fil0 str1" points="922.74,1159.28 881.34,1087.57 922.74,1015.85 1005.55,1015.85 1046.96,1087.57 1129.77,1087.57 1171.17,1159.28 "/>
    </g>
    <g>
     <polyline class="fil0 str1" points="1253.98,1015.85 1295.39,1087.57 1253.98,1159.28 "/>
    </g>
    <g>
     <polyline class="fil0 str1" points="53.23,1374.43 11.83,1302.72 53.23,1231 "/>
    </g>
    <g>
     <polyline class="fil0 str1" points="136.04,1231 177.45,1159.28 260.26,1159.28 301.66,1231 260.26,1302.72 "/>
    </g>
    <g>
     <polyline class="fil0 str1" points="301.66,1231 384.48,1231 425.88,1302.72 "/>
    </g>
    <g>
     <polyline class="fil0 str1" points="425.88,1159.28 508.69,1159.28 550.1,1231 508.69,1302.72 "/>
    </g>
    <g>
     <line class="fil0 str1" x1="550.1" y1="1231" x2="632.91" y2= "1231" />
    </g>
    <g>
     <polyline class="fil0 str1" points="757.12,1159.28 798.53,1231 757.12,1302.72 "/>
    </g>
    <g>
     <polyline class="fil0 str1" points="798.53,1231 881.34,1231 922.74,1302.72 "/>
    </g>
    <g>
     <polyline class="fil0 str1" points="922.74,1159.28 1005.55,1159.28 1046.96,1231 "/>
    </g>
    <g>
     <line class="fil0 str1" x1="1129.77" y1="1231" x2="1171.17" y2= "1302.72" />
    </g>
    <g>
     <polyline class="fil0 str1" points="1253.98,1159.28 1295.39,1231 1253.98,1302.72 "/>
    </g>
    <g>
     <polyline class="fil0 str1" points="53.23,1517.86 11.83,1446.15 53.23,1374.43 "/>
    </g>
    <g>
     <polyline class="fil0 str1" points="177.45,1446.15 136.04,1374.43 177.45,1302.72 "/>
    </g>
    <g>
     <line class="fil0 str1" x1="260.26" y1="1302.72" x2="301.66" y2= "1374.43" />
    </g>
    <g>
     <line class="fil0 str1" x1="384.48" y1="1374.43" x2="425.88" y2= "1446.15" />
    </g>
    <g>
     <polyline class="fil0 str1" points="508.69,1302.72 550.1,1374.43 632.91,1374.43 674.31,1446.15 "/>
    </g>
    <g>
     <polyline class="fil0 str1" points="674.31,1302.72 757.12,1302.72 798.53,1374.43 "/>
    </g>
    <g>
     <polyline class="fil0 str1" points="922.74,1446.15 881.34,1374.43 922.74,1302.72 "/>
    </g>
    <g>
     <polyline class="fil0 str1" points="1005.55,1302.72 1046.96,1374.43 1129.77,1374.43 1171.17,1302.72 1253.98,1302.72 1295.39,1374.43 1253.98,1446.15 "/>
    </g>
    <g>
     <polyline class="fil0 str1" points="177.45,1446.15 136.04,1517.86 53.23,1517.86 "/>
    </g>
    <g>
     <line class="fil0 str1" x1="260.26" y1="1446.15" x2="177.45" y2= "1446.15" />
    </g>
    <g>
     <polyline class="fil0 str1" points="425.88,1446.15 384.48,1517.86 301.66,1517.86 260.26,1446.15 "/>
    </g>
    <g>
     <line class="fil0 str1" x1="508.69" y1="1446.15" x2="425.88" y2= "1446.15" />
    </g>
    <g>
     <polyline class="fil0 str1" points="674.31,1446.15 632.91,1517.86 550.1,1517.86 508.69,1446.15 "/>
    </g>
    <g>
     <polyline class="fil0 str1" points="922.74,1446.15 881.34,1517.86 798.53,1517.86 757.12,1446.15 "/>
    </g>
    <g>
     <line class="fil0 str1" x1="1005.55" y1="1446.15" x2="922.74" y2= "1446.15" />
    </g>
    <g>
     <polyline class="fil0 str1" points="1171.17,1446.15 1129.77,1517.86 1046.96,1517.86 1005.55,1446.15 "/>
    </g>
    <g>
     <line class="fil0 str1" x1="1253.98" y1="1446.15" x2="1171.17" y2= "1446.15" />
    </g>
   </g>
  </g>
  <polyline class="fil0 str2" points="703.41,1446.15 703.41,1374.43 579.19,1302.72 703.41,1231 579.19,1159.28 579.19,1015.85 703.41,944.14 827.62,1015.85 827.62,1159.28 1076.05,1302.72 1076.05,1159.28 1200.27,1231 1200.27,1087.57 1076.05,1015.85 1076.05,872.42 951.84,944.14 703.41,800.7 703.41,657.27 579.19,728.99 579.19,585.56 454.98,657.27 454.98,800.7 206.54,657.27 206.54,800.7 82.33,728.99 82.33,585.56 206.54,513.84 330.76,585.56 454.98,513.84 454.98,226.98 579.19,298.69 703.41,226.98 579.19,155.26 579.19,83.55 "/>
 </g>
</svg>
