<?xml version="1.0" encoding="UTF-8"?>
<!DOCTYPE svg PUBLIC "-//W3C//DTD SVG 1.1//EN" "http://www.w3.org/Graphics/SVG/1.1/DTD/svg11.dtd">
<!-- Creator: CorelDRAW 2018 (64-Bit) -->
<svg xmlns="http://www.w3.org/2000/svg" xml:space="preserve" width="1.30208in" height="2.02631in" version="1.1" style="shape-rendering:geometricPrecision; text-rendering:geometricPrecision; image-rendering:optimizeQuality; fill-rule:evenodd; clip-rule:evenodd"
viewBox="0 0 116.8 181.77"
 xmlns:xlink="http://www.w3.org/1999/xlink">
 <defs>
  <style type="text/css">
   <![CDATA[
    .str2 {stroke:black;stroke-width:1.87;stroke-linecap:square;stroke-linejoin:round;stroke-miterlimit:2.61313}
    .str0 {stroke:#FB0501;stroke-width:3.74;stroke-linecap:round;stroke-linejoin:round;stroke-miterlimit:2.61313}
    .str1 {stroke:white;stroke-width:2.49;stroke-linecap:round;stroke-linejoin:round;stroke-miterlimit:2.61313}
    .fil0 {fill:none}
   ]]>
  </style>
 </defs>
 <g id="Layer_x0020_1">
  <metadata id="CorelCorpID_0Corel-Layer"/>
  <g id="_2423984271280">
   <g>
    <g>
     <line class="fil0 str0" x1="12.15" y1="1.87" x2="53.26" y2= "1.87" />
    </g>
    <g>
     <line class="fil0 str0" x1="73.82" y1="1.87" x2="114.93" y2= "1.87" />
    </g>
    <g>
     <line class="fil0 str0" x1="42.98" y1="19.67" x2="84.1" y2= "19.67" />
    </g>
    <g>
     <line class="fil0 str0" x1="12.15" y1="37.47" x2="94.38" y2= "37.47" />
    </g>
    <g>
     <line class="fil0 str0" x1="22.43" y1="55.28" x2="63.54" y2= "55.28" />
    </g>
    <g>
     <line class="fil0 str0" x1="84.1" y1="55.28" x2="104.65" y2= "55.28" />
    </g>
    <g>
     <line class="fil0 str0" x1="12.15" y1="73.08" x2="32.7" y2= "73.08" />
    </g>
    <g>
     <line class="fil0 str0" x1="22.43" y1="90.88" x2="63.54" y2= "90.88" />
    </g>
    <g>
     <line class="fil0 str0" x1="84.1" y1="90.88" x2="104.65" y2= "90.88" />
    </g>
    <g>
     <line class="fil0 str0" x1="12.15" y1="144.29" x2="53.26" y2= "144.29" />
    </g>
    <g>
     <line class="fil0 str0" x1="73.82" y1="144.29" x2="94.38" y2= "144.29" />
    </g>
    <g>
     <line class="fil0 str0" x1="42.98" y1="162.09" x2="63.54" y2= "162.09" />
    </g>
    <g>
     <line class="fil0 str0" x1="84.1" y1="162.09" x2="104.65" y2= "162.09" />
    </g>
    <g>
     <line class="fil0 str0" x1="12.15" y1="179.9" x2="53.26" y2= "179.9" />
    </g>
    <g>
     <line class="fil0 str0" x1="73.82" y1="179.9" x2="114.93" y2= "179.9" />
    </g>
    <g>
     <polyline class="fil0 str0" points="12.15,1.87 1.87,19.67 12.15,37.47 1.87,55.28 "/>
    </g>
    <g>
     <line class="fil0 str0" x1="1.87" y1="55.28" x2="12.15" y2= "73.08" />
    </g>
    <g>
     <line class="fil0 str0" x1="12.15" y1="73.08" x2="1.87" y2= "90.88" />
    </g>
    <g>
     <polyline class="fil0 str0" points="1.87,90.88 12.15,108.69 1.87,126.49 12.15,144.29 "/>
    </g>
    <g>
     <line class="fil0 str0" x1="12.15" y1="144.29" x2="1.87" y2= "162.09" />
    </g>
    <g>
     <line class="fil0 str0" x1="1.87" y1="162.09" x2="12.15" y2= "179.9" />
    </g>
    <g>
     <line class="fil0 str0" x1="22.43" y1="19.67" x2="32.7" y2= "37.47" />
    </g>
    <g>
     <polyline class="fil0 str0" points="32.7,108.69 22.43,126.49 32.7,144.29 "/>
    </g>
    <g>
     <line class="fil0 str0" x1="22.43" y1="162.09" x2="32.7" y2= "179.9" />
    </g>
    <g>
     <line class="fil0 str0" x1="42.98" y1="55.28" x2="53.26" y2= "73.08" />
    </g>
    <g>
     <polyline class="fil0 str0" points="42.98,90.88 53.26,108.69 42.98,126.49 "/>
    </g>
    <g>
     <line class="fil0 str0" x1="53.26" y1="108.69" x2="63.54" y2= "126.49" />
    </g>
    <g>
     <line class="fil0 str0" x1="63.54" y1="55.28" x2="73.82" y2= "73.08" />
    </g>
    <g>
     <line class="fil0 str0" x1="73.82" y1="73.08" x2="63.54" y2= "90.88" />
    </g>
    <g>
     <line class="fil0 str0" x1="63.54" y1="90.88" x2="73.82" y2= "108.69" />
    </g>
    <g>
     <line class="fil0 str0" x1="63.54" y1="126.49" x2="73.82" y2= "144.29" />
    </g>
    <g>
     <line class="fil0 str0" x1="73.82" y1="144.29" x2="63.54" y2= "162.09" />
    </g>
    <g>
     <line class="fil0 str0" x1="63.54" y1="162.09" x2="73.82" y2= "179.9" />
    </g>
    <g>
     <line class="fil0 str0" x1="73.82" y1="108.69" x2="84.1" y2= "126.49" />
    </g>
    <g>
     <line class="fil0 str0" x1="94.38" y1="1.87" x2="84.1" y2= "19.67" />
    </g>
    <g>
     <line class="fil0 str0" x1="84.1" y1="55.28" x2="94.38" y2= "73.08" />
    </g>
    <g>
     <line class="fil0 str0" x1="94.38" y1="108.69" x2="104.65" y2= "126.49" />
    </g>
    <g>
     <polyline class="fil0 str0" points="114.93,1.87 104.65,19.67 114.93,37.47 104.65,55.28 "/>
    </g>
    <g>
     <line class="fil0 str0" x1="104.65" y1="55.28" x2="114.93" y2= "73.08" />
    </g>
    <g>
     <line class="fil0 str0" x1="114.93" y1="73.08" x2="104.65" y2= "90.88" />
    </g>
    <g>
     <polyline class="fil0 str0" points="104.65,90.88 114.93,108.69 104.65,126.49 114.93,144.29 "/>
    </g>
    <g>
     <line class="fil0 str0" x1="114.93" y1="144.29" x2="104.65" y2= "162.09" />
    </g>
    <g>
     <line class="fil0 str0" x1="104.65" y1="162.09" x2="114.93" y2= "179.9" />
    </g>
   </g>
  </g>
  <g>
   <g>
    <g>
     <line class="fil0 str1" x1="12.15" y1="1.87" x2="53.26" y2= "1.87" />
    </g>
    <g>
     <line class="fil0 str1" x1="73.82" y1="1.87" x2="114.93" y2= "1.87" />
    </g>
    <g>
     <line class="fil0 str1" x1="42.98" y1="19.67" x2="84.1" y2= "19.67" />
    </g>
    <g>
     <line class="fil0 str1" x1="12.15" y1="37.47" x2="94.38" y2= "37.47" />
    </g>
    <g>
     <line class="fil0 str1" x1="22.43" y1="55.28" x2="63.54" y2= "55.28" />
    </g>
    <g>
     <line class="fil0 str1" x1="84.1" y1="55.28" x2="104.65" y2= "55.28" />
    </g>
    <g>
     <line class="fil0 str1" x1="12.15" y1="73.08" x2="32.7" y2= "73.08" />
    </g>
    <g>
     <line class="fil0 str1" x1="22.43" y1="90.88" x2="63.54" y2= "90.88" />
    </g>
    <g>
     <line class="fil0 str1" x1="84.1" y1="90.88" x2="104.65" y2= "90.88" />
    </g>
    <g>
     <line class="fil0 str1" x1="12.15" y1="144.29" x2="53.26" y2= "144.29" />
    </g>
    <g>
     <line class="fil0 str1" x1="73.82" y1="144.29" x2="94.38" y2= "144.29" />
    </g>
    <g>
     <line class="fil0 str1" x1="42.98" y1="162.09" x2="63.54" y2= "162.09" />
    </g>
    <g>
     <line class="fil0 str1" x1="84.1" y1="162.09" x2="104.65" y2= "162.09" />
    </g>
    <g>
     <line class="fil0 str1" x1="12.15" y1="179.9" x2="53.26" y2= "179.9" />
    </g>
    <g>
     <line class="fil0 str1" x1="73.82" y1="179.9" x2="114.93" y2= "179.9" />
    </g>
    <g>
     <polyline class="fil0 str1" points="12.15,1.87 1.87,19.67 12.15,37.47 1.87,55.28 "/>
    </g>
    <g>
     <line class="fil0 str1" x1="1.87" y1="55.28" x2="12.15" y2= "73.08" />
    </g>
    <g>
     <line class="fil0 str1" x1="12.15" y1="73.08" x2="1.87" y2= "90.88" />
    </g>
    <g>
     <polyline class="fil0 str1" points="1.87,90.88 12.15,108.69 1.87,126.49 12.15,144.29 "/>
    </g>
    <g>
     <line class="fil0 str1" x1="12.15" y1="144.29" x2="1.87" y2= "162.09" />
    </g>
    <g>
     <line class="fil0 str1" x1="1.87" y1="162.09" x2="12.15" y2= "179.9" />
    </g>
    <g>
     <line class="fil0 str1" x1="22.43" y1="19.67" x2="32.7" y2= "37.47" />
    </g>
    <g>
     <polyline class="fil0 str1" points="32.7,108.69 22.43,126.49 32.7,144.29 "/>
    </g>
    <g>
     <line class="fil0 str1" x1="22.43" y1="162.09" x2="32.7" y2= "179.9" />
    </g>
    <g>
     <line class="fil0 str1" x1="42.98" y1="55.28" x2="53.26" y2= "73.08" />
    </g>
    <g>
     <polyline class="fil0 str1" points="42.98,90.88 53.26,108.69 42.98,126.49 "/>
    </g>
    <g>
     <line class="fil0 str1" x1="53.26" y1="108.69" x2="63.54" y2= "126.49" />
    </g>
    <g>
     <line class="fil0 str1" x1="63.54" y1="55.28" x2="73.82" y2= "73.08" />
    </g>
    <g>
     <line class="fil0 str1" x1="73.82" y1="73.08" x2="63.54" y2= "90.88" />
    </g>
    <g>
     <line class="fil0 str1" x1="63.54" y1="90.88" x2="73.82" y2= "108.69" />
    </g>
    <g>
     <line class="fil0 str1" x1="63.54" y1="126.49" x2="73.82" y2= "144.29" />
    </g>
    <g>
     <line class="fil0 str1" x1="73.82" y1="144.29" x2="63.54" y2= "162.09" />
    </g>
    <g>
     <line class="fil0 str1" x1="63.54" y1="162.09" x2="73.82" y2= "179.9" />
    </g>
    <g>
     <line class="fil0 str1" x1="73.82" y1="108.69" x2="84.1" y2= "126.49" />
    </g>
    <g>
     <line class="fil0 str1" x1="94.38" y1="1.87" x2="84.1" y2= "19.67" />
    </g>
    <g>
     <line class="fil0 str1" x1="84.1" y1="55.28" x2="94.38" y2= "73.08" />
    </g>
    <g>
     <line class="fil0 str1" x1="94.38" y1="108.69" x2="104.65" y2= "126.49" />
    </g>
    <g>
     <polyline class="fil0 str1" points="114.93,1.87 104.65,19.67 114.93,37.47 104.65,55.28 "/>
    </g>
    <g>
     <line class="fil0 str1" x1="104.65" y1="55.28" x2="114.93" y2= "73.08" />
    </g>
    <g>
     <line class="fil0 str1" x1="114.93" y1="73.08" x2="104.65" y2= "90.88" />
    </g>
    <g>
     <polyline class="fil0 str1" points="104.65,90.88 114.93,108.69 104.65,126.49 114.93,144.29 "/>
    </g>
    <g>
     <line class="fil0 str1" x1="114.93" y1="144.29" x2="104.65" y2= "162.09" />
    </g>
    <g>
     <line class="fil0 str1" x1="104.65" y1="162.09" x2="114.93" y2= "179.9" />
    </g>
   </g>
  </g>
  <polyline class="fil0 str2" points="64.42,1.87 59.28,10.77 38.73,10.77 33.59,19.67 38.73,28.57 100.4,28.57 105.54,37.47 100.4,46.38 18.17,46.38 13.03,55.28 18.17,64.18 38.73,64.18 43.86,73.08 38.73,81.98 18.17,81.98 13.03,90.88 18.17,99.78 38.73,99.78 43.86,108.69 33.59,126.49 38.73,135.39 59.28,135.39 64.42,144.29 59.28,153.19 38.73,153.19 33.59,162.09 38.73,171 59.28,171 64.42,179.9 "/>
 </g>
</svg>
