<?xml version="1.0" encoding="UTF-8"?>
<!DOCTYPE svg PUBLIC "-//W3C//DTD SVG 1.1//EN" "http://www.w3.org/Graphics/SVG/1.1/DTD/svg11.dtd">
<!-- Creator: CorelDRAW 2018 (64-Bit) -->
<svg xmlns="http://www.w3.org/2000/svg" xml:space="preserve" width="1.30208in" height="2.03584in" version="1.1" style="shape-rendering:geometricPrecision; text-rendering:geometricPrecision; image-rendering:optimizeQuality; fill-rule:evenodd; clip-rule:evenodd"
viewBox="0 0 187.48 293.14"
 xmlns:xlink="http://www.w3.org/1999/xlink">
 <defs>
  <style type="text/css">
   <![CDATA[
    .str2 {stroke:black;stroke-width:3;stroke-linecap:square;stroke-linejoin:round;stroke-miterlimit:2.61313}
    .str0 {stroke:#FB0501;stroke-width:6;stroke-linecap:round;stroke-linejoin:round;stroke-miterlimit:2.61313}
    .str1 {stroke:white;stroke-width:4;stroke-linecap:round;stroke-linejoin:round;stroke-miterlimit:2.61313}
    .fil0 {fill:none}
   ]]>
  </style>
 </defs>
 <g id="Layer_x0020_1">
  <metadata id="CorelCorpID_0Corel-Layer"/>
  <g id="_2423875503488">
   <g>
    <g>
     <line class="fil0 str0" x1="19.5" y1="3" x2="85.49" y2= "3" />
    </g>
    <g>
     <line class="fil0 str0" x1="118.49" y1="3" x2="184.48" y2= "3" />
    </g>
    <g>
     <line class="fil0 str0" x1="85.49" y1="60.15" x2="118.49" y2= "60.15" />
    </g>
    <g>
     <line class="fil0 str0" x1="36" y1="88.73" x2="101.99" y2= "88.73" />
    </g>
    <g>
     <line class="fil0 str0" x1="101.99" y1="145.88" x2="134.99" y2= "145.88" />
    </g>
    <g>
     <line class="fil0 str0" x1="52.5" y1="174.46" x2="85.49" y2= "174.46" />
    </g>
    <g>
     <line class="fil0 str0" x1="68.99" y1="203.03" x2="101.99" y2= "203.03" />
    </g>
    <g>
     <line class="fil0 str0" x1="19.5" y1="288.76" x2="85.49" y2= "288.76" />
    </g>
    <g>
     <line class="fil0 str0" x1="118.49" y1="288.76" x2="184.48" y2= "288.76" />
    </g>
    <g>
     <polyline class="fil0 str0" points="19.5,3 3,31.58 19.5,60.15 3,88.73 "/>
    </g>
    <g>
     <line class="fil0 str0" x1="3" y1="88.73" x2="19.5" y2= "117.31" />
    </g>
    <g>
     <line class="fil0 str0" x1="19.5" y1="117.31" x2="3" y2= "145.88" />
    </g>
    <g>
     <polyline class="fil0 str0" points="3,145.88 19.5,174.46 3,203.03 19.5,231.61 "/>
    </g>
    <g>
     <line class="fil0 str0" x1="19.5" y1="231.61" x2="3" y2= "260.19" />
    </g>
    <g>
     <line class="fil0 str0" x1="3" y1="260.19" x2="19.5" y2= "288.76" />
    </g>
    <g>
     <line class="fil0 str0" x1="36" y1="145.88" x2="19.5" y2= "174.46" />
    </g>
    <g>
     <line class="fil0 str0" x1="19.5" y1="231.61" x2="36" y2= "260.19" />
    </g>
    <g>
     <line class="fil0 str0" x1="52.5" y1="3" x2="36" y2= "31.58" />
    </g>
    <g>
     <line class="fil0 str0" x1="36" y1="88.73" x2="52.5" y2= "117.31" />
    </g>
    <g>
     <line class="fil0 str0" x1="52.5" y1="174.46" x2="36" y2= "203.03" />
    </g>
    <g>
     <line class="fil0 str0" x1="68.99" y1="31.58" x2="52.5" y2= "60.15" />
    </g>
    <g>
     <line class="fil0 str0" x1="52.5" y1="117.31" x2="68.99" y2= "145.88" />
    </g>
    <g>
     <line class="fil0 str0" x1="68.99" y1="203.03" x2="52.5" y2= "231.61" />
    </g>
    <g>
     <line class="fil0 str0" x1="52.5" y1="231.61" x2="68.99" y2= "260.19" />
    </g>
    <g>
     <polyline class="fil0 str0" points="85.49,3 68.99,31.58 85.49,60.15 "/>
    </g>
    <g>
     <line class="fil0 str0" x1="101.99" y1="88.73" x2="85.49" y2= "117.31" />
    </g>
    <g>
     <line class="fil0 str0" x1="85.49" y1="117.31" x2="101.99" y2= "145.88" />
    </g>
    <g>
     <line class="fil0 str0" x1="101.99" y1="145.88" x2="85.49" y2= "174.46" />
    </g>
    <g>
     <line class="fil0 str0" x1="85.49" y1="231.61" x2="101.99" y2= "260.19" />
    </g>
    <g>
     <line class="fil0 str0" x1="101.99" y1="260.19" x2="85.49" y2= "288.76" />
    </g>
    <g>
     <line class="fil0 str0" x1="118.49" y1="3" x2="101.99" y2= "31.58" />
    </g>
    <g>
     <polyline class="fil0 str0" points="118.49,174.46 101.99,203.03 118.49,231.61 "/>
    </g>
    <g>
     <polyline class="fil0 str0" points="134.99,31.58 118.49,60.15 134.99,88.73 "/>
    </g>
    <g>
     <line class="fil0 str0" x1="134.99" y1="88.73" x2="118.49" y2= "117.31" />
    </g>
    <g>
     <line class="fil0 str0" x1="118.49" y1="231.61" x2="134.99" y2= "260.19" />
    </g>
    <g>
     <line class="fil0 str0" x1="151.49" y1="117.31" x2="134.99" y2= "145.88" />
    </g>
    <g>
     <polyline class="fil0 str0" points="134.99,145.88 151.49,174.46 134.99,203.03 151.49,231.61 "/>
    </g>
    <g>
     <line class="fil0 str0" x1="134.99" y1="260.19" x2="151.49" y2= "288.76" />
    </g>
    <g>
     <line class="fil0 str0" x1="167.99" y1="31.58" x2="151.49" y2= "60.15" />
    </g>
    <g>
     <line class="fil0 str0" x1="167.99" y1="88.73" x2="151.49" y2= "117.31" />
    </g>
    <g>
     <polyline class="fil0 str0" points="184.48,3 167.99,31.58 184.48,60.15 167.99,88.73 "/>
    </g>
    <g>
     <line class="fil0 str0" x1="167.99" y1="88.73" x2="184.48" y2= "117.31" />
    </g>
    <g>
     <line class="fil0 str0" x1="184.48" y1="117.31" x2="167.99" y2= "145.88" />
    </g>
    <g>
     <polyline class="fil0 str0" points="167.99,145.88 184.48,174.46 167.99,203.03 184.48,231.61 "/>
    </g>
    <g>
     <line class="fil0 str0" x1="184.48" y1="231.61" x2="167.99" y2= "260.19" />
    </g>
    <g>
     <line class="fil0 str0" x1="167.99" y1="260.19" x2="184.48" y2= "288.76" />
    </g>
   </g>
  </g>
  <g>
   <g>
    <g>
     <line class="fil0 str1" x1="19.5" y1="3" x2="85.49" y2= "3" />
    </g>
    <g>
     <line class="fil0 str1" x1="118.49" y1="3" x2="184.48" y2= "3" />
    </g>
    <g>
     <line class="fil0 str1" x1="85.49" y1="60.15" x2="118.49" y2= "60.15" />
    </g>
    <g>
     <line class="fil0 str1" x1="36" y1="88.73" x2="101.99" y2= "88.73" />
    </g>
    <g>
     <line class="fil0 str1" x1="101.99" y1="145.88" x2="134.99" y2= "145.88" />
    </g>
    <g>
     <line class="fil0 str1" x1="52.5" y1="174.46" x2="85.49" y2= "174.46" />
    </g>
    <g>
     <line class="fil0 str1" x1="68.99" y1="203.03" x2="101.99" y2= "203.03" />
    </g>
    <g>
     <line class="fil0 str1" x1="19.5" y1="288.76" x2="85.49" y2= "288.76" />
    </g>
    <g>
     <line class="fil0 str1" x1="118.49" y1="288.76" x2="184.48" y2= "288.76" />
    </g>
    <g>
     <polyline class="fil0 str1" points="19.5,3 3,31.58 19.5,60.15 3,88.73 "/>
    </g>
    <g>
     <line class="fil0 str1" x1="3" y1="88.73" x2="19.5" y2= "117.31" />
    </g>
    <g>
     <line class="fil0 str1" x1="19.5" y1="117.31" x2="3" y2= "145.88" />
    </g>
    <g>
     <polyline class="fil0 str1" points="3,145.88 19.5,174.46 3,203.03 19.5,231.61 "/>
    </g>
    <g>
     <line class="fil0 str1" x1="19.5" y1="231.61" x2="3" y2= "260.19" />
    </g>
    <g>
     <line class="fil0 str1" x1="3" y1="260.19" x2="19.5" y2= "288.76" />
    </g>
    <g>
     <line class="fil0 str1" x1="36" y1="145.88" x2="19.5" y2= "174.46" />
    </g>
    <g>
     <line class="fil0 str1" x1="19.5" y1="231.61" x2="36" y2= "260.19" />
    </g>
    <g>
     <line class="fil0 str1" x1="52.5" y1="3" x2="36" y2= "31.58" />
    </g>
    <g>
     <line class="fil0 str1" x1="36" y1="88.73" x2="52.5" y2= "117.31" />
    </g>
    <g>
     <line class="fil0 str1" x1="52.5" y1="174.46" x2="36" y2= "203.03" />
    </g>
    <g>
     <line class="fil0 str1" x1="68.99" y1="31.58" x2="52.5" y2= "60.15" />
    </g>
    <g>
     <line class="fil0 str1" x1="52.5" y1="117.31" x2="68.99" y2= "145.88" />
    </g>
    <g>
     <line class="fil0 str1" x1="68.99" y1="203.03" x2="52.5" y2= "231.61" />
    </g>
    <g>
     <line class="fil0 str1" x1="52.5" y1="231.61" x2="68.99" y2= "260.19" />
    </g>
    <g>
     <polyline class="fil0 str1" points="85.49,3 68.99,31.58 85.49,60.15 "/>
    </g>
    <g>
     <line class="fil0 str1" x1="101.99" y1="88.73" x2="85.49" y2= "117.31" />
    </g>
    <g>
     <line class="fil0 str1" x1="85.49" y1="117.31" x2="101.99" y2= "145.88" />
    </g>
    <g>
     <line class="fil0 str1" x1="101.99" y1="145.88" x2="85.49" y2= "174.46" />
    </g>
    <g>
     <line class="fil0 str1" x1="85.49" y1="231.61" x2="101.99" y2= "260.19" />
    </g>
    <g>
     <line class="fil0 str1" x1="101.99" y1="260.19" x2="85.49" y2= "288.76" />
    </g>
    <g>
     <line class="fil0 str1" x1="118.49" y1="3" x2="101.99" y2= "31.58" />
    </g>
    <g>
     <polyline class="fil0 str1" points="118.49,174.46 101.99,203.03 118.49,231.61 "/>
    </g>
    <g>
     <polyline class="fil0 str1" points="134.99,31.58 118.49,60.15 134.99,88.73 "/>
    </g>
    <g>
     <line class="fil0 str1" x1="134.99" y1="88.73" x2="118.49" y2= "117.31" />
    </g>
    <g>
     <line class="fil0 str1" x1="118.49" y1="231.61" x2="134.99" y2= "260.19" />
    </g>
    <g>
     <line class="fil0 str1" x1="151.49" y1="117.31" x2="134.99" y2= "145.88" />
    </g>
    <g>
     <polyline class="fil0 str1" points="134.99,145.88 151.49,174.46 134.99,203.03 151.49,231.61 "/>
    </g>
    <g>
     <line class="fil0 str1" x1="134.99" y1="260.19" x2="151.49" y2= "288.76" />
    </g>
    <g>
     <line class="fil0 str1" x1="167.99" y1="31.58" x2="151.49" y2= "60.15" />
    </g>
    <g>
     <line class="fil0 str1" x1="167.99" y1="88.73" x2="151.49" y2= "117.31" />
    </g>
    <g>
     <polyline class="fil0 str1" points="184.48,3 167.99,31.58 184.48,60.15 167.99,88.73 "/>
    </g>
    <g>
     <line class="fil0 str1" x1="167.99" y1="88.73" x2="184.48" y2= "117.31" />
    </g>
    <g>
     <line class="fil0 str1" x1="184.48" y1="117.31" x2="167.99" y2= "145.88" />
    </g>
    <g>
     <polyline class="fil0 str1" points="167.99,145.88 184.48,174.46 167.99,203.03 184.48,231.61 "/>
    </g>
    <g>
     <line class="fil0 str1" x1="184.48" y1="231.61" x2="167.99" y2= "260.19" />
    </g>
    <g>
     <line class="fil0 str1" x1="167.99" y1="260.19" x2="184.48" y2= "288.76" />
    </g>
   </g>
  </g>
  <polyline class="fil0 str2" points="100.72,291.09 117.22,262.51 92.47,219.65 75.98,219.65 67.73,233.93 84.22,262.51 75.98,276.8 59.48,276.8 18.23,205.36 51.23,148.21 18.23,91.05 26.48,76.76 108.97,76.76 117.22,91.05 100.72,119.63 108.97,133.92 125.47,133.92 150.22,91.05 133.72,62.48 150.22,33.9 141.97,19.61 125.47,19.61 108.97,48.19 92.47,48.19 84.22,33.9 100.72,5.32 "/>
 </g>
</svg>
