<?xml version="1.0" encoding="UTF-8"?>
<!DOCTYPE svg PUBLIC "-//W3C//DTD SVG 1.1//EN" "http://www.w3.org/Graphics/SVG/1.1/DTD/svg11.dtd">
<!-- Creator: CorelDRAW 2018 (64-Bit) -->
<svg xmlns="http://www.w3.org/2000/svg" xml:space="preserve" width="1.30208in" height="2.02631in" version="1.1" style="shape-rendering:geometricPrecision; text-rendering:geometricPrecision; image-rendering:optimizeQuality; fill-rule:evenodd; clip-rule:evenodd"
viewBox="0 0 82.73 128.75"
 xmlns:xlink="http://www.w3.org/1999/xlink">
 <defs>
  <style type="text/css">
   <![CDATA[
    .str2 {stroke:black;stroke-width:1.32;stroke-linecap:square;stroke-linejoin:round;stroke-miterlimit:2.61313}
    .str0 {stroke:#FB0501;stroke-width:2.65;stroke-linecap:round;stroke-linejoin:round;stroke-miterlimit:2.61313}
    .str1 {stroke:white;stroke-width:1.77;stroke-linecap:round;stroke-linejoin:round;stroke-miterlimit:2.61313}
    .fil0 {fill:none}
   ]]>
  </style>
 </defs>
 <g id="Layer_x0020_1">
  <metadata id="CorelCorpID_0Corel-Layer"/>
  <g id="_2423989460512">
   <g>
    <g>
     <line class="fil0 str0" x1="8.6" y1="1.32" x2="37.73" y2= "1.32" />
    </g>
    <g>
     <line class="fil0 str0" x1="52.29" y1="1.32" x2="81.41" y2= "1.32" />
    </g>
    <g>
     <line class="fil0 str0" x1="15.88" y1="13.93" x2="59.57" y2= "13.93" />
    </g>
    <g>
     <line class="fil0 str0" x1="52.29" y1="26.54" x2="66.85" y2= "26.54" />
    </g>
    <g>
     <line class="fil0 str0" x1="45.01" y1="39.15" x2="74.13" y2= "39.15" />
    </g>
    <g>
     <line class="fil0 str0" x1="15.88" y1="64.37" x2="30.44" y2= "64.37" />
    </g>
    <g>
     <line class="fil0 str0" x1="45.01" y1="64.37" x2="59.57" y2= "64.37" />
    </g>
    <g>
     <line class="fil0 str0" x1="37.73" y1="76.98" x2="66.85" y2= "76.98" />
    </g>
    <g>
     <line class="fil0 str0" x1="30.44" y1="89.59" x2="45.01" y2= "89.59" />
    </g>
    <g>
     <line class="fil0 str0" x1="59.57" y1="89.59" x2="74.13" y2= "89.59" />
    </g>
    <g>
     <line class="fil0 str0" x1="8.6" y1="102.2" x2="23.16" y2= "102.2" />
    </g>
    <g>
     <line class="fil0 str0" x1="52.29" y1="102.2" x2="66.85" y2= "102.2" />
    </g>
    <g>
     <line class="fil0 str0" x1="15.88" y1="114.81" x2="30.44" y2= "114.81" />
    </g>
    <g>
     <line class="fil0 str0" x1="59.57" y1="114.81" x2="74.13" y2= "114.81" />
    </g>
    <g>
     <line class="fil0 str0" x1="8.6" y1="127.42" x2="37.73" y2= "127.42" />
    </g>
    <g>
     <line class="fil0 str0" x1="52.29" y1="127.42" x2="81.41" y2= "127.42" />
    </g>
    <g>
     <polyline class="fil0 str0" points="8.6,1.32 1.32,13.93 8.6,26.54 1.32,39.15 "/>
    </g>
    <g>
     <line class="fil0 str0" x1="1.32" y1="39.15" x2="8.6" y2= "51.76" />
    </g>
    <g>
     <line class="fil0 str0" x1="8.6" y1="51.76" x2="1.32" y2= "64.37" />
    </g>
    <g>
     <polyline class="fil0 str0" points="1.32,64.37 8.6,76.98 1.32,89.59 8.6,102.2 "/>
    </g>
    <g>
     <line class="fil0 str0" x1="8.6" y1="102.2" x2="1.32" y2= "114.81" />
    </g>
    <g>
     <line class="fil0 str0" x1="1.32" y1="114.81" x2="8.6" y2= "127.42" />
    </g>
    <g>
     <line class="fil0 str0" x1="15.88" y1="39.15" x2="8.6" y2= "51.76" />
    </g>
    <g>
     <polyline class="fil0 str0" points="15.88,64.37 8.6,76.98 15.88,89.59 "/>
    </g>
    <g>
     <polyline class="fil0 str0" points="30.44,13.93 23.16,26.54 30.44,39.15 "/>
    </g>
    <g>
     <line class="fil0 str0" x1="30.44" y1="39.15" x2="23.16" y2= "51.76" />
    </g>
    <g>
     <line class="fil0 str0" x1="23.16" y1="76.98" x2="30.44" y2= "89.59" />
    </g>
    <g>
     <line class="fil0 str0" x1="23.16" y1="102.2" x2="30.44" y2= "114.81" />
    </g>
    <g>
     <line class="fil0 str0" x1="30.44" y1="64.37" x2="37.73" y2= "76.98" />
    </g>
    <g>
     <line class="fil0 str0" x1="37.73" y1="1.32" x2="45.01" y2= "13.93" />
    </g>
    <g>
     <line class="fil0 str0" x1="37.73" y1="26.54" x2="45.01" y2= "39.15" />
    </g>
    <g>
     <line class="fil0 str0" x1="45.01" y1="39.15" x2="37.73" y2= "51.76" />
    </g>
    <g>
     <line class="fil0 str0" x1="37.73" y1="51.76" x2="45.01" y2= "64.37" />
    </g>
    <g>
     <line class="fil0 str0" x1="37.73" y1="102.2" x2="45.01" y2= "114.81" />
    </g>
    <g>
     <line class="fil0 str0" x1="45.01" y1="114.81" x2="37.73" y2= "127.42" />
    </g>
    <g>
     <line class="fil0 str0" x1="45.01" y1="89.59" x2="52.29" y2= "102.2" />
    </g>
    <g>
     <line class="fil0 str0" x1="59.57" y1="39.15" x2="52.29" y2= "51.76" />
    </g>
    <g>
     <line class="fil0 str0" x1="52.29" y1="102.2" x2="59.57" y2= "114.81" />
    </g>
    <g>
     <line class="fil0 str0" x1="59.57" y1="13.93" x2="66.85" y2= "26.54" />
    </g>
    <g>
     <line class="fil0 str0" x1="66.85" y1="51.76" x2="74.13" y2= "64.37" />
    </g>
    <g>
     <polyline class="fil0 str0" points="81.41,1.32 74.13,13.93 81.41,26.54 74.13,39.15 "/>
    </g>
    <g>
     <line class="fil0 str0" x1="74.13" y1="39.15" x2="81.41" y2= "51.76" />
    </g>
    <g>
     <line class="fil0 str0" x1="81.41" y1="51.76" x2="74.13" y2= "64.37" />
    </g>
    <g>
     <polyline class="fil0 str0" points="74.13,64.37 81.41,76.98 74.13,89.59 81.41,102.2 "/>
    </g>
    <g>
     <line class="fil0 str0" x1="81.41" y1="102.2" x2="74.13" y2= "114.81" />
    </g>
    <g>
     <line class="fil0 str0" x1="74.13" y1="114.81" x2="81.41" y2= "127.42" />
    </g>
   </g>
  </g>
  <g>
   <g>
    <g>
     <line class="fil0 str1" x1="8.6" y1="1.32" x2="37.73" y2= "1.32" />
    </g>
    <g>
     <line class="fil0 str1" x1="52.29" y1="1.32" x2="81.41" y2= "1.32" />
    </g>
    <g>
     <line class="fil0 str1" x1="15.88" y1="13.93" x2="59.57" y2= "13.93" />
    </g>
    <g>
     <line class="fil0 str1" x1="52.29" y1="26.54" x2="66.85" y2= "26.54" />
    </g>
    <g>
     <line class="fil0 str1" x1="45.01" y1="39.15" x2="74.13" y2= "39.15" />
    </g>
    <g>
     <line class="fil0 str1" x1="15.88" y1="64.37" x2="30.44" y2= "64.37" />
    </g>
    <g>
     <line class="fil0 str1" x1="45.01" y1="64.37" x2="59.57" y2= "64.37" />
    </g>
    <g>
     <line class="fil0 str1" x1="37.73" y1="76.98" x2="66.85" y2= "76.98" />
    </g>
    <g>
     <line class="fil0 str1" x1="30.44" y1="89.59" x2="45.01" y2= "89.59" />
    </g>
    <g>
     <line class="fil0 str1" x1="59.57" y1="89.59" x2="74.13" y2= "89.59" />
    </g>
    <g>
     <line class="fil0 str1" x1="8.6" y1="102.2" x2="23.16" y2= "102.2" />
    </g>
    <g>
     <line class="fil0 str1" x1="52.29" y1="102.2" x2="66.85" y2= "102.2" />
    </g>
    <g>
     <line class="fil0 str1" x1="15.88" y1="114.81" x2="30.44" y2= "114.81" />
    </g>
    <g>
     <line class="fil0 str1" x1="59.57" y1="114.81" x2="74.13" y2= "114.81" />
    </g>
    <g>
     <line class="fil0 str1" x1="8.6" y1="127.42" x2="37.73" y2= "127.42" />
    </g>
    <g>
     <line class="fil0 str1" x1="52.29" y1="127.42" x2="81.41" y2= "127.42" />
    </g>
    <g>
     <polyline class="fil0 str1" points="8.6,1.32 1.32,13.93 8.6,26.54 1.32,39.15 "/>
    </g>
    <g>
     <line class="fil0 str1" x1="1.32" y1="39.15" x2="8.6" y2= "51.76" />
    </g>
    <g>
     <line class="fil0 str1" x1="8.6" y1="51.76" x2="1.32" y2= "64.37" />
    </g>
    <g>
     <polyline class="fil0 str1" points="1.32,64.37 8.6,76.98 1.32,89.59 8.6,102.2 "/>
    </g>
    <g>
     <line class="fil0 str1" x1="8.6" y1="102.2" x2="1.32" y2= "114.81" />
    </g>
    <g>
     <line class="fil0 str1" x1="1.32" y1="114.81" x2="8.6" y2= "127.42" />
    </g>
    <g>
     <line class="fil0 str1" x1="15.88" y1="39.15" x2="8.6" y2= "51.76" />
    </g>
    <g>
     <polyline class="fil0 str1" points="15.88,64.37 8.6,76.98 15.88,89.59 "/>
    </g>
    <g>
     <polyline class="fil0 str1" points="30.44,13.93 23.16,26.54 30.44,39.15 "/>
    </g>
    <g>
     <line class="fil0 str1" x1="30.44" y1="39.15" x2="23.16" y2= "51.76" />
    </g>
    <g>
     <line class="fil0 str1" x1="23.16" y1="76.98" x2="30.44" y2= "89.59" />
    </g>
    <g>
     <line class="fil0 str1" x1="23.16" y1="102.2" x2="30.44" y2= "114.81" />
    </g>
    <g>
     <line class="fil0 str1" x1="30.44" y1="64.37" x2="37.73" y2= "76.98" />
    </g>
    <g>
     <line class="fil0 str1" x1="37.73" y1="1.32" x2="45.01" y2= "13.93" />
    </g>
    <g>
     <line class="fil0 str1" x1="37.73" y1="26.54" x2="45.01" y2= "39.15" />
    </g>
    <g>
     <line class="fil0 str1" x1="45.01" y1="39.15" x2="37.73" y2= "51.76" />
    </g>
    <g>
     <line class="fil0 str1" x1="37.73" y1="51.76" x2="45.01" y2= "64.37" />
    </g>
    <g>
     <line class="fil0 str1" x1="37.73" y1="102.2" x2="45.01" y2= "114.81" />
    </g>
    <g>
     <line class="fil0 str1" x1="45.01" y1="114.81" x2="37.73" y2= "127.42" />
    </g>
    <g>
     <line class="fil0 str1" x1="45.01" y1="89.59" x2="52.29" y2= "102.2" />
    </g>
    <g>
     <line class="fil0 str1" x1="59.57" y1="39.15" x2="52.29" y2= "51.76" />
    </g>
    <g>
     <line class="fil0 str1" x1="52.29" y1="102.2" x2="59.57" y2= "114.81" />
    </g>
    <g>
     <line class="fil0 str1" x1="59.57" y1="13.93" x2="66.85" y2= "26.54" />
    </g>
    <g>
     <line class="fil0 str1" x1="66.85" y1="51.76" x2="74.13" y2= "64.37" />
    </g>
    <g>
     <polyline class="fil0 str1" points="81.41,1.32 74.13,13.93 81.41,26.54 74.13,39.15 "/>
    </g>
    <g>
     <line class="fil0 str1" x1="74.13" y1="39.15" x2="81.41" y2= "51.76" />
    </g>
    <g>
     <line class="fil0 str1" x1="81.41" y1="51.76" x2="74.13" y2= "64.37" />
    </g>
    <g>
     <polyline class="fil0 str1" points="74.13,64.37 81.41,76.98 74.13,89.59 81.41,102.2 "/>
    </g>
    <g>
     <line class="fil0 str1" x1="81.41" y1="102.2" x2="74.13" y2= "114.81" />
    </g>
    <g>
     <line class="fil0 str1" x1="74.13" y1="114.81" x2="81.41" y2= "127.42" />
    </g>
   </g>
  </g>
  <polyline class="fil0 str2" points="45.88,127.42 53.16,114.81 42.24,95.9 27.68,95.9 16.76,76.98 20.4,70.68 27.68,70.68 34.96,83.29 71.36,83.29 75,76.98 71.36,70.68 42.24,70.68 31.32,51.76 38.6,39.15 31.32,26.54 34.96,20.24 42.24,20.24 49.52,32.85 71.36,32.85 75,26.54 64.08,7.63 49.52,7.63 45.88,1.32 "/>
 </g>
</svg>
