<?xml version="1.0" encoding="UTF-8"?>
<!DOCTYPE svg PUBLIC "-//W3C//DTD SVG 1.1//EN" "http://www.w3.org/Graphics/SVG/1.1/DTD/svg11.dtd">
<!-- Creator: CorelDRAW 2018 (64-Bit) -->
<svg xmlns="http://www.w3.org/2000/svg" xml:space="preserve" width="1.70834in" height="1.70834in" version="1.1" style="shape-rendering:geometricPrecision; text-rendering:geometricPrecision; image-rendering:optimizeQuality; fill-rule:evenodd; clip-rule:evenodd"
viewBox="0 0 341.83 341.83"
 xmlns:xlink="http://www.w3.org/1999/xlink">
 <defs>
  <style type="text/css">
   <![CDATA[
    .str2 {stroke:black;stroke-width:4.17;stroke-linecap:square;stroke-linejoin:round;stroke-miterlimit:2.61313}
    .str0 {stroke:#FB0501;stroke-width:8.34;stroke-linecap:square;stroke-miterlimit:2.61313}
    .str1 {stroke:white;stroke-width:5.56;stroke-linecap:square;stroke-miterlimit:2.61313}
    .fil0 {fill:none}
   ]]>
  </style>
 </defs>
 <g id="Layer_x0020_1">
  <metadata id="CorelCorpID_0Corel-Layer"/>
  <g id="_2423988094032">
   <g>
    <g>
     <line class="fil0 str0" x1="4.17" y1="4.17" x2="137.57" y2= "4.17" />
    </g>
    <g>
     <line class="fil0 str0" x1="170.91" y1="4.17" x2="337.66" y2= "4.17" />
    </g>
    <g>
     <line class="fil0 str0" x1="70.87" y1="37.52" x2="170.91" y2= "37.52" />
    </g>
    <g>
     <line class="fil0 str0" x1="237.61" y1="37.52" x2="270.96" y2= "37.52" />
    </g>
    <g>
     <line class="fil0 str0" x1="37.52" y1="70.87" x2="237.61" y2= "70.87" />
    </g>
    <g>
     <line class="fil0 str0" x1="270.96" y1="70.87" x2="304.31" y2= "70.87" />
    </g>
    <g>
     <line class="fil0 str0" x1="4.17" y1="104.22" x2="137.57" y2= "104.22" />
    </g>
    <g>
     <line class="fil0 str0" x1="204.26" y1="104.22" x2="237.61" y2= "104.22" />
    </g>
    <g>
     <line class="fil0 str0" x1="304.31" y1="104.22" x2="337.66" y2= "104.22" />
    </g>
    <g>
     <line class="fil0 str0" x1="37.52" y1="137.57" x2="104.22" y2= "137.57" />
    </g>
    <g>
     <line class="fil0 str0" x1="170.91" y1="137.57" x2="204.26" y2= "137.57" />
    </g>
    <g>
     <line class="fil0 str0" x1="237.61" y1="137.57" x2="270.96" y2= "137.57" />
    </g>
    <g>
     <line class="fil0 str0" x1="304.31" y1="137.57" x2="337.66" y2= "137.57" />
    </g>
    <g>
     <line class="fil0 str0" x1="104.22" y1="170.91" x2="137.57" y2= "170.91" />
    </g>
    <g>
     <line class="fil0 str0" x1="170.91" y1="170.91" x2="237.61" y2= "170.91" />
    </g>
    <g>
     <line class="fil0 str0" x1="270.96" y1="170.91" x2="304.31" y2= "170.91" />
    </g>
    <g>
     <line class="fil0 str0" x1="70.87" y1="204.26" x2="104.22" y2= "204.26" />
    </g>
    <g>
     <line class="fil0 str0" x1="204.26" y1="204.26" x2="304.31" y2= "204.26" />
    </g>
    <g>
     <line class="fil0 str0" x1="37.52" y1="237.61" x2="70.87" y2= "237.61" />
    </g>
    <g>
     <line class="fil0 str0" x1="304.31" y1="237.61" x2="337.66" y2= "237.61" />
    </g>
    <g>
     <line class="fil0 str0" x1="4.17" y1="270.96" x2="37.52" y2= "270.96" />
    </g>
    <g>
     <line class="fil0 str0" x1="70.87" y1="270.96" x2="170.91" y2= "270.96" />
    </g>
    <g>
     <line class="fil0 str0" x1="137.57" y1="304.31" x2="204.26" y2= "304.31" />
    </g>
    <g>
     <line class="fil0 str0" x1="4.17" y1="337.66" x2="170.91" y2= "337.66" />
    </g>
    <g>
     <line class="fil0 str0" x1="204.26" y1="337.66" x2="337.66" y2= "337.66" />
    </g>
    <g>
     <line class="fil0 str0" x1="4.17" y1="4.17" x2="4.17" y2= "337.66" />
    </g>
    <g>
     <line class="fil0 str0" x1="37.52" y1="4.17" x2="37.52" y2= "37.52" />
    </g>
    <g>
     <line class="fil0 str0" x1="37.52" y1="137.57" x2="37.52" y2= "237.61" />
    </g>
    <g>
     <line class="fil0 str0" x1="37.52" y1="270.96" x2="37.52" y2= "304.31" />
    </g>
    <g>
     <line class="fil0 str0" x1="70.87" y1="37.52" x2="70.87" y2= "70.87" />
    </g>
    <g>
     <line class="fil0 str0" x1="70.87" y1="137.57" x2="70.87" y2= "204.26" />
    </g>
    <g>
     <line class="fil0 str0" x1="70.87" y1="237.61" x2="70.87" y2= "270.96" />
    </g>
    <g>
     <line class="fil0 str0" x1="70.87" y1="304.31" x2="70.87" y2= "337.66" />
    </g>
    <g>
     <line class="fil0 str0" x1="104.22" y1="204.26" x2="104.22" y2= "237.61" />
    </g>
    <g>
     <line class="fil0 str0" x1="104.22" y1="270.96" x2="104.22" y2= "304.31" />
    </g>
    <g>
     <line class="fil0 str0" x1="137.57" y1="104.22" x2="137.57" y2= "237.61" />
    </g>
    <g>
     <line class="fil0 str0" x1="170.91" y1="70.87" x2="170.91" y2= "270.96" />
    </g>
    <g>
     <line class="fil0 str0" x1="170.91" y1="304.31" x2="170.91" y2= "337.66" />
    </g>
    <g>
     <line class="fil0 str0" x1="204.26" y1="4.17" x2="204.26" y2= "70.87" />
    </g>
    <g>
     <line class="fil0 str0" x1="204.26" y1="204.26" x2="204.26" y2= "304.31" />
    </g>
    <g>
     <line class="fil0 str0" x1="237.61" y1="70.87" x2="237.61" y2= "104.22" />
    </g>
    <g>
     <line class="fil0 str0" x1="237.61" y1="237.61" x2="237.61" y2= "337.66" />
    </g>
    <g>
     <line class="fil0 str0" x1="270.96" y1="37.52" x2="270.96" y2= "170.91" />
    </g>
    <g>
     <line class="fil0 str0" x1="270.96" y1="204.26" x2="270.96" y2= "304.31" />
    </g>
    <g>
     <line class="fil0 str0" x1="304.31" y1="37.52" x2="304.31" y2= "70.87" />
    </g>
    <g>
     <line class="fil0 str0" x1="304.31" y1="170.91" x2="304.31" y2= "204.26" />
    </g>
    <g>
     <line class="fil0 str0" x1="304.31" y1="270.96" x2="304.31" y2= "337.66" />
    </g>
    <g>
     <line class="fil0 str0" x1="337.66" y1="4.17" x2="337.66" y2= "337.66" />
    </g>
   </g>
  </g>
  <g>
   <g>
    <g>
     <line class="fil0 str1" x1="4.17" y1="4.17" x2="137.57" y2= "4.17" />
    </g>
    <g>
     <line class="fil0 str1" x1="170.91" y1="4.17" x2="337.66" y2= "4.17" />
    </g>
    <g>
     <line class="fil0 str1" x1="70.87" y1="37.52" x2="170.91" y2= "37.52" />
    </g>
    <g>
     <line class="fil0 str1" x1="237.61" y1="37.52" x2="270.96" y2= "37.52" />
    </g>
    <g>
     <line class="fil0 str1" x1="37.52" y1="70.87" x2="237.61" y2= "70.87" />
    </g>
    <g>
     <line class="fil0 str1" x1="270.96" y1="70.87" x2="304.31" y2= "70.87" />
    </g>
    <g>
     <line class="fil0 str1" x1="4.17" y1="104.22" x2="137.57" y2= "104.22" />
    </g>
    <g>
     <line class="fil0 str1" x1="204.26" y1="104.22" x2="237.61" y2= "104.22" />
    </g>
    <g>
     <line class="fil0 str1" x1="304.31" y1="104.22" x2="337.66" y2= "104.22" />
    </g>
    <g>
     <line class="fil0 str1" x1="37.52" y1="137.57" x2="104.22" y2= "137.57" />
    </g>
    <g>
     <line class="fil0 str1" x1="170.91" y1="137.57" x2="204.26" y2= "137.57" />
    </g>
    <g>
     <line class="fil0 str1" x1="237.61" y1="137.57" x2="270.96" y2= "137.57" />
    </g>
    <g>
     <line class="fil0 str1" x1="304.31" y1="137.57" x2="337.66" y2= "137.57" />
    </g>
    <g>
     <line class="fil0 str1" x1="104.22" y1="170.91" x2="137.57" y2= "170.91" />
    </g>
    <g>
     <line class="fil0 str1" x1="170.91" y1="170.91" x2="237.61" y2= "170.91" />
    </g>
    <g>
     <line class="fil0 str1" x1="270.96" y1="170.91" x2="304.31" y2= "170.91" />
    </g>
    <g>
     <line class="fil0 str1" x1="70.87" y1="204.26" x2="104.22" y2= "204.26" />
    </g>
    <g>
     <line class="fil0 str1" x1="204.26" y1="204.26" x2="304.31" y2= "204.26" />
    </g>
    <g>
     <line class="fil0 str1" x1="37.52" y1="237.61" x2="70.87" y2= "237.61" />
    </g>
    <g>
     <line class="fil0 str1" x1="304.31" y1="237.61" x2="337.66" y2= "237.61" />
    </g>
    <g>
     <line class="fil0 str1" x1="4.17" y1="270.96" x2="37.52" y2= "270.96" />
    </g>
    <g>
     <line class="fil0 str1" x1="70.87" y1="270.96" x2="170.91" y2= "270.96" />
    </g>
    <g>
     <line class="fil0 str1" x1="137.57" y1="304.31" x2="204.26" y2= "304.31" />
    </g>
    <g>
     <line class="fil0 str1" x1="4.17" y1="337.66" x2="170.91" y2= "337.66" />
    </g>
    <g>
     <line class="fil0 str1" x1="204.26" y1="337.66" x2="337.66" y2= "337.66" />
    </g>
    <g>
     <line class="fil0 str1" x1="4.17" y1="4.17" x2="4.17" y2= "337.66" />
    </g>
    <g>
     <line class="fil0 str1" x1="37.52" y1="4.17" x2="37.52" y2= "37.52" />
    </g>
    <g>
     <line class="fil0 str1" x1="37.52" y1="137.57" x2="37.52" y2= "237.61" />
    </g>
    <g>
     <line class="fil0 str1" x1="37.52" y1="270.96" x2="37.52" y2= "304.31" />
    </g>
    <g>
     <line class="fil0 str1" x1="70.87" y1="37.52" x2="70.87" y2= "70.87" />
    </g>
    <g>
     <line class="fil0 str1" x1="70.87" y1="137.57" x2="70.87" y2= "204.26" />
    </g>
    <g>
     <line class="fil0 str1" x1="70.87" y1="237.61" x2="70.87" y2= "270.96" />
    </g>
    <g>
     <line class="fil0 str1" x1="70.87" y1="304.31" x2="70.87" y2= "337.66" />
    </g>
    <g>
     <line class="fil0 str1" x1="104.22" y1="204.26" x2="104.22" y2= "237.61" />
    </g>
    <g>
     <line class="fil0 str1" x1="104.22" y1="270.96" x2="104.22" y2= "304.31" />
    </g>
    <g>
     <line class="fil0 str1" x1="137.57" y1="104.22" x2="137.57" y2= "237.61" />
    </g>
    <g>
     <line class="fil0 str1" x1="170.91" y1="70.87" x2="170.91" y2= "270.96" />
    </g>
    <g>
     <line class="fil0 str1" x1="170.91" y1="304.31" x2="170.91" y2= "337.66" />
    </g>
    <g>
     <line class="fil0 str1" x1="204.26" y1="4.17" x2="204.26" y2= "70.87" />
    </g>
    <g>
     <line class="fil0 str1" x1="204.26" y1="204.26" x2="204.26" y2= "304.31" />
    </g>
    <g>
     <line class="fil0 str1" x1="237.61" y1="70.87" x2="237.61" y2= "104.22" />
    </g>
    <g>
     <line class="fil0 str1" x1="237.61" y1="237.61" x2="237.61" y2= "337.66" />
    </g>
    <g>
     <line class="fil0 str1" x1="270.96" y1="37.52" x2="270.96" y2= "170.91" />
    </g>
    <g>
     <line class="fil0 str1" x1="270.96" y1="204.26" x2="270.96" y2= "304.31" />
    </g>
    <g>
     <line class="fil0 str1" x1="304.31" y1="37.52" x2="304.31" y2= "70.87" />
    </g>
    <g>
     <line class="fil0 str1" x1="304.31" y1="170.91" x2="304.31" y2= "204.26" />
    </g>
    <g>
     <line class="fil0 str1" x1="304.31" y1="270.96" x2="304.31" y2= "337.66" />
    </g>
    <g>
     <line class="fil0 str1" x1="337.66" y1="4.17" x2="337.66" y2= "337.66" />
    </g>
   </g>
  </g>
  <polyline class="fil0 str2" points="155.51,4.17 155.51,20.84 55.46,20.84 55.46,54.19 22.11,54.19 22.11,87.54 155.51,87.54 155.51,254.29 122.16,254.29 122.16,187.59 88.81,187.59 88.81,154.24 122.16,154.24 122.16,120.89 22.11,120.89 22.11,254.29 55.46,254.29 55.46,287.64 88.81,287.64 88.81,320.99 122.16,320.99 122.16,287.64 188.86,287.64 188.86,187.59 255.55,187.59 255.55,154.24 222.2,154.24 222.2,120.89 255.55,120.89 255.55,54.19 222.2,54.19 222.2,20.84 322.25,20.84 322.25,87.54 288.9,87.54 288.9,154.24 322.25,154.24 322.25,220.94 288.9,220.94 288.9,320.99 255.55,320.99 255.55,220.94 222.2,220.94 222.2,320.99 188.86,320.99 188.86,337.66 "/>
 </g>
</svg>
