<?xml version="1.0" encoding="UTF-8"?>
<!DOCTYPE svg PUBLIC "-//W3C//DTD SVG 1.1//EN" "http://www.w3.org/Graphics/SVG/1.1/DTD/svg11.dtd">
<!-- Creator: CorelDRAW 2018 (64-Bit) -->
<svg xmlns="http://www.w3.org/2000/svg" xml:space="preserve" width="1.70834in" height="1.70834in" version="1.1" style="shape-rendering:geometricPrecision; text-rendering:geometricPrecision; image-rendering:optimizeQuality; fill-rule:evenodd; clip-rule:evenodd"
viewBox="0 0 55.88 55.88"
 xmlns:xlink="http://www.w3.org/1999/xlink">
 <defs>
  <style type="text/css">
   <![CDATA[
    .str2 {stroke:black;stroke-width:0.68;stroke-linecap:square;stroke-linejoin:round;stroke-miterlimit:2.61313}
    .str0 {stroke:#FB0501;stroke-width:1.36;stroke-linecap:square;stroke-miterlimit:2.61313}
    .str1 {stroke:white;stroke-width:0.91;stroke-linecap:square;stroke-miterlimit:2.61313}
    .fil0 {fill:none}
   ]]>
  </style>
 </defs>
 <g id="Layer_x0020_1">
  <metadata id="CorelCorpID_0Corel-Layer"/>
  <g id="_2423636884832">
   <g>
    <g>
     <line class="fil0 str0" x1="0.68" y1="0.68" x2="22.49" y2= "0.68" />
    </g>
    <g>
     <line class="fil0 str0" x1="27.94" y1="0.68" x2="55.2" y2= "0.68" />
    </g>
    <g>
     <line class="fil0 str0" x1="6.13" y1="6.13" x2="27.94" y2= "6.13" />
    </g>
    <g>
     <line class="fil0 str0" x1="33.39" y1="6.13" x2="38.84" y2= "6.13" />
    </g>
    <g>
     <line class="fil0 str0" x1="0.68" y1="11.58" x2="6.13" y2= "11.58" />
    </g>
    <g>
     <line class="fil0 str0" x1="38.84" y1="11.58" x2="55.2" y2= "11.58" />
    </g>
    <g>
     <line class="fil0 str0" x1="17.04" y1="17.04" x2="49.75" y2= "17.04" />
    </g>
    <g>
     <line class="fil0 str0" x1="11.58" y1="22.49" x2="22.49" y2= "22.49" />
    </g>
    <g>
     <line class="fil0 str0" x1="27.94" y1="22.49" x2="38.84" y2= "22.49" />
    </g>
    <g>
     <line class="fil0 str0" x1="22.49" y1="27.94" x2="27.94" y2= "27.94" />
    </g>
    <g>
     <line class="fil0 str0" x1="0.68" y1="33.39" x2="11.58" y2= "33.39" />
    </g>
    <g>
     <line class="fil0 str0" x1="17.04" y1="33.39" x2="27.94" y2= "33.39" />
    </g>
    <g>
     <line class="fil0 str0" x1="44.29" y1="33.39" x2="49.75" y2= "33.39" />
    </g>
    <g>
     <line class="fil0 str0" x1="27.94" y1="38.84" x2="33.39" y2= "38.84" />
    </g>
    <g>
     <line class="fil0 str0" x1="6.13" y1="44.29" x2="17.04" y2= "44.29" />
    </g>
    <g>
     <line class="fil0 str0" x1="22.49" y1="44.29" x2="38.84" y2= "44.29" />
    </g>
    <g>
     <line class="fil0 str0" x1="17.04" y1="49.75" x2="22.49" y2= "49.75" />
    </g>
    <g>
     <line class="fil0 str0" x1="38.84" y1="49.75" x2="44.29" y2= "49.75" />
    </g>
    <g>
     <line class="fil0 str0" x1="0.68" y1="55.2" x2="27.94" y2= "55.2" />
    </g>
    <g>
     <line class="fil0 str0" x1="33.39" y1="55.2" x2="55.2" y2= "55.2" />
    </g>
    <g>
     <line class="fil0 str0" x1="0.68" y1="0.68" x2="0.68" y2= "55.2" />
    </g>
    <g>
     <line class="fil0 str0" x1="6.13" y1="11.58" x2="6.13" y2= "27.94" />
    </g>
    <g>
     <line class="fil0 str0" x1="6.13" y1="38.84" x2="6.13" y2= "49.75" />
    </g>
    <g>
     <line class="fil0 str0" x1="11.58" y1="6.13" x2="11.58" y2= "38.84" />
    </g>
    <g>
     <line class="fil0 str0" x1="11.58" y1="49.75" x2="11.58" y2= "55.2" />
    </g>
    <g>
     <line class="fil0 str0" x1="17.04" y1="11.58" x2="17.04" y2= "17.04" />
    </g>
    <g>
     <line class="fil0 str0" x1="17.04" y1="27.94" x2="17.04" y2= "49.75" />
    </g>
    <g>
     <line class="fil0 str0" x1="22.49" y1="6.13" x2="22.49" y2= "11.58" />
    </g>
    <g>
     <line class="fil0 str0" x1="22.49" y1="22.49" x2="22.49" y2= "27.94" />
    </g>
    <g>
     <line class="fil0 str0" x1="22.49" y1="38.84" x2="22.49" y2= "44.29" />
    </g>
    <g>
     <line class="fil0 str0" x1="27.94" y1="11.58" x2="27.94" y2= "17.04" />
    </g>
    <g>
     <line class="fil0 str0" x1="27.94" y1="33.39" x2="27.94" y2= "38.84" />
    </g>
    <g>
     <line class="fil0 str0" x1="27.94" y1="44.29" x2="27.94" y2= "55.2" />
    </g>
    <g>
     <line class="fil0 str0" x1="33.39" y1="6.13" x2="33.39" y2= "17.04" />
    </g>
    <g>
     <line class="fil0 str0" x1="33.39" y1="22.49" x2="33.39" y2= "38.84" />
    </g>
    <g>
     <line class="fil0 str0" x1="33.39" y1="49.75" x2="33.39" y2= "55.2" />
    </g>
    <g>
     <line class="fil0 str0" x1="38.84" y1="0.68" x2="38.84" y2= "6.13" />
    </g>
    <g>
     <line class="fil0 str0" x1="38.84" y1="17.04" x2="38.84" y2= "22.49" />
    </g>
    <g>
     <line class="fil0 str0" x1="38.84" y1="27.94" x2="38.84" y2= "49.75" />
    </g>
    <g>
     <line class="fil0 str0" x1="44.29" y1="6.13" x2="44.29" y2= "11.58" />
    </g>
    <g>
     <line class="fil0 str0" x1="44.29" y1="22.49" x2="44.29" y2= "33.39" />
    </g>
    <g>
     <line class="fil0 str0" x1="44.29" y1="38.84" x2="44.29" y2= "49.75" />
    </g>
    <g>
     <line class="fil0 str0" x1="49.75" y1="0.68" x2="49.75" y2= "6.13" />
    </g>
    <g>
     <line class="fil0 str0" x1="49.75" y1="17.04" x2="49.75" y2= "27.94" />
    </g>
    <g>
     <line class="fil0 str0" x1="49.75" y1="33.39" x2="49.75" y2= "55.2" />
    </g>
    <g>
     <line class="fil0 str0" x1="55.2" y1="0.68" x2="55.2" y2= "55.2" />
    </g>
   </g>
  </g>
  <g>
   <g>
    <g>
     <line class="fil0 str1" x1="0.68" y1="0.68" x2="22.49" y2= "0.68" />
    </g>
    <g>
     <line class="fil0 str1" x1="27.94" y1="0.68" x2="55.2" y2= "0.68" />
    </g>
    <g>
     <line class="fil0 str1" x1="6.13" y1="6.13" x2="27.94" y2= "6.13" />
    </g>
    <g>
     <line class="fil0 str1" x1="33.39" y1="6.13" x2="38.84" y2= "6.13" />
    </g>
    <g>
     <line class="fil0 str1" x1="0.68" y1="11.58" x2="6.13" y2= "11.58" />
    </g>
    <g>
     <line class="fil0 str1" x1="38.84" y1="11.58" x2="55.2" y2= "11.58" />
    </g>
    <g>
     <line class="fil0 str1" x1="17.04" y1="17.04" x2="49.75" y2= "17.04" />
    </g>
    <g>
     <line class="fil0 str1" x1="11.58" y1="22.49" x2="22.49" y2= "22.49" />
    </g>
    <g>
     <line class="fil0 str1" x1="27.94" y1="22.49" x2="38.84" y2= "22.49" />
    </g>
    <g>
     <line class="fil0 str1" x1="22.49" y1="27.94" x2="27.94" y2= "27.94" />
    </g>
    <g>
     <line class="fil0 str1" x1="0.68" y1="33.39" x2="11.58" y2= "33.39" />
    </g>
    <g>
     <line class="fil0 str1" x1="17.04" y1="33.39" x2="27.94" y2= "33.39" />
    </g>
    <g>
     <line class="fil0 str1" x1="44.29" y1="33.39" x2="49.75" y2= "33.39" />
    </g>
    <g>
     <line class="fil0 str1" x1="27.94" y1="38.84" x2="33.39" y2= "38.84" />
    </g>
    <g>
     <line class="fil0 str1" x1="6.13" y1="44.29" x2="17.04" y2= "44.29" />
    </g>
    <g>
     <line class="fil0 str1" x1="22.49" y1="44.29" x2="38.84" y2= "44.29" />
    </g>
    <g>
     <line class="fil0 str1" x1="17.04" y1="49.75" x2="22.49" y2= "49.75" />
    </g>
    <g>
     <line class="fil0 str1" x1="38.84" y1="49.75" x2="44.29" y2= "49.75" />
    </g>
    <g>
     <line class="fil0 str1" x1="0.68" y1="55.2" x2="27.94" y2= "55.2" />
    </g>
    <g>
     <line class="fil0 str1" x1="33.39" y1="55.2" x2="55.2" y2= "55.2" />
    </g>
    <g>
     <line class="fil0 str1" x1="0.68" y1="0.68" x2="0.68" y2= "55.2" />
    </g>
    <g>
     <line class="fil0 str1" x1="6.13" y1="11.58" x2="6.13" y2= "27.94" />
    </g>
    <g>
     <line class="fil0 str1" x1="6.13" y1="38.84" x2="6.13" y2= "49.75" />
    </g>
    <g>
     <line class="fil0 str1" x1="11.58" y1="6.13" x2="11.58" y2= "38.84" />
    </g>
    <g>
     <line class="fil0 str1" x1="11.58" y1="49.75" x2="11.58" y2= "55.2" />
    </g>
    <g>
     <line class="fil0 str1" x1="17.04" y1="11.58" x2="17.04" y2= "17.04" />
    </g>
    <g>
     <line class="fil0 str1" x1="17.04" y1="27.94" x2="17.04" y2= "49.75" />
    </g>
    <g>
     <line class="fil0 str1" x1="22.49" y1="6.13" x2="22.49" y2= "11.58" />
    </g>
    <g>
     <line class="fil0 str1" x1="22.49" y1="22.49" x2="22.49" y2= "27.94" />
    </g>
    <g>
     <line class="fil0 str1" x1="22.49" y1="38.84" x2="22.49" y2= "44.29" />
    </g>
    <g>
     <line class="fil0 str1" x1="27.94" y1="11.58" x2="27.94" y2= "17.04" />
    </g>
    <g>
     <line class="fil0 str1" x1="27.94" y1="33.39" x2="27.94" y2= "38.84" />
    </g>
    <g>
     <line class="fil0 str1" x1="27.94" y1="44.29" x2="27.94" y2= "55.2" />
    </g>
    <g>
     <line class="fil0 str1" x1="33.39" y1="6.13" x2="33.39" y2= "17.04" />
    </g>
    <g>
     <line class="fil0 str1" x1="33.39" y1="22.49" x2="33.39" y2= "38.84" />
    </g>
    <g>
     <line class="fil0 str1" x1="33.39" y1="49.75" x2="33.39" y2= "55.2" />
    </g>
    <g>
     <line class="fil0 str1" x1="38.84" y1="0.68" x2="38.84" y2= "6.13" />
    </g>
    <g>
     <line class="fil0 str1" x1="38.84" y1="17.04" x2="38.84" y2= "22.49" />
    </g>
    <g>
     <line class="fil0 str1" x1="38.84" y1="27.94" x2="38.84" y2= "49.75" />
    </g>
    <g>
     <line class="fil0 str1" x1="44.29" y1="6.13" x2="44.29" y2= "11.58" />
    </g>
    <g>
     <line class="fil0 str1" x1="44.29" y1="22.49" x2="44.29" y2= "33.39" />
    </g>
    <g>
     <line class="fil0 str1" x1="44.29" y1="38.84" x2="44.29" y2= "49.75" />
    </g>
    <g>
     <line class="fil0 str1" x1="49.75" y1="0.68" x2="49.75" y2= "6.13" />
    </g>
    <g>
     <line class="fil0 str1" x1="49.75" y1="17.04" x2="49.75" y2= "27.94" />
    </g>
    <g>
     <line class="fil0 str1" x1="49.75" y1="33.39" x2="49.75" y2= "55.2" />
    </g>
    <g>
     <line class="fil0 str1" x1="55.2" y1="0.68" x2="55.2" y2= "55.2" />
    </g>
   </g>
  </g>
  <polyline class="fil0 str2" points="24.89,0.68 24.89,3.41 30.34,3.41 30.34,8.86 24.89,8.86 24.89,14.31 19.43,14.31 19.43,8.86 13.98,8.86 13.98,19.76 24.89,19.76 24.89,25.21 30.34,25.21 30.34,30.66 19.43,30.66 19.43,25.21 13.98,25.21 13.98,41.57 8.53,41.57 8.53,36.12 3.08,36.12 3.08,52.47 8.53,52.47 8.53,47.02 13.98,47.02 13.98,52.47 24.89,52.47 24.89,47.02 19.43,47.02 19.43,36.12 24.89,36.12 24.89,41.57 35.79,41.57 35.79,25.21 41.24,25.21 41.24,36.12 46.69,36.12 46.69,52.47 35.79,52.47 35.79,47.02 30.34,47.02 30.34,55.2 "/>
 </g>
</svg>
