<?xml version="1.0" encoding="UTF-8"?>
<!DOCTYPE svg PUBLIC "-//W3C//DTD SVG 1.1//EN" "http://www.w3.org/Graphics/SVG/1.1/DTD/svg11.dtd">
<!-- Creator: CorelDRAW 2018 (64-Bit) -->
<svg xmlns="http://www.w3.org/2000/svg" xml:space="preserve" width="3.70833in" height="3.21709in" version="1.1" style="shape-rendering:geometricPrecision; text-rendering:geometricPrecision; image-rendering:optimizeQuality; fill-rule:evenodd; clip-rule:evenodd"
viewBox="0 0 363.55 315.39"
 xmlns:xlink="http://www.w3.org/1999/xlink">
 <defs>
  <style type="text/css">
   <![CDATA[
    .str2 {stroke:red;stroke-width:2.04;stroke-linecap:square;stroke-linejoin:round;stroke-miterlimit:2.61313}
    .str0 {stroke:black;stroke-width:4.08;stroke-linecap:round;stroke-linejoin:round;stroke-miterlimit:2.61313}
    .str1 {stroke:yellow;stroke-width:2.72;stroke-linecap:round;stroke-linejoin:round;stroke-miterlimit:2.61313}
    .fil0 {fill:none}
   ]]>
  </style>
 </defs>
 <g id="Layer_x0020_1">
  <metadata id="CorelCorpID_0Corel-Layer"/>
  <g id="hex10.svg">
   <g>
    <g>
     <line class="fil0 str0" x1="91.91" y1="2.04" x2="181.77" y2= "2.04" />
    </g>
    <g>
     <line class="fil0 str0" x1="204.24" y1="2.04" x2="271.64" y2= "2.04" />
    </g>
    <g>
     <line class="fil0 str0" x1="80.67" y1="21.5" x2="103.14" y2= "21.5" />
    </g>
    <g>
     <line class="fil0 str0" x1="148.07" y1="21.5" x2="170.54" y2= "21.5" />
    </g>
    <g>
     <line class="fil0 str0" x1="193.01" y1="21.5" x2="237.94" y2= "21.5" />
    </g>
    <g>
     <line class="fil0 str0" x1="91.91" y1="40.96" x2="114.37" y2= "40.96" />
    </g>
    <g>
     <line class="fil0 str0" x1="136.84" y1="40.96" x2="159.31" y2= "40.96" />
    </g>
    <g>
     <line class="fil0 str0" x1="181.77" y1="40.96" x2="204.24" y2= "40.96" />
    </g>
    <g>
     <line class="fil0 str0" x1="271.64" y1="40.96" x2="294.1" y2= "40.96" />
    </g>
    <g>
     <line class="fil0 str0" x1="193.01" y1="60.41" x2="215.47" y2= "60.41" />
    </g>
    <g>
     <line class="fil0 str0" x1="69.44" y1="79.87" x2="91.91" y2= "79.87" />
    </g>
    <g>
     <line class="fil0 str0" x1="204.24" y1="79.87" x2="226.71" y2= "79.87" />
    </g>
    <g>
     <line class="fil0 str0" x1="271.64" y1="79.87" x2="294.1" y2= "79.87" />
    </g>
    <g>
     <line class="fil0 str0" x1="170.54" y1="99.32" x2="193.01" y2= "99.32" />
    </g>
    <g>
     <line class="fil0 str0" x1="282.87" y1="99.32" x2="305.34" y2= "99.32" />
    </g>
    <g>
     <line class="fil0 str0" x1="91.91" y1="118.78" x2="114.37" y2= "118.78" />
    </g>
    <g>
     <line class="fil0 str0" x1="136.84" y1="118.78" x2="204.24" y2= "118.78" />
    </g>
    <g>
     <line class="fil0 str0" x1="271.64" y1="118.78" x2="294.1" y2= "118.78" />
    </g>
    <g>
     <line class="fil0 str0" x1="13.28" y1="138.24" x2="35.74" y2= "138.24" />
    </g>
    <g>
     <line class="fil0 str0" x1="58.21" y1="138.24" x2="125.61" y2= "138.24" />
    </g>
    <g>
     <line class="fil0 str0" x1="260.4" y1="138.24" x2="282.87" y2= "138.24" />
    </g>
    <g>
     <line class="fil0 str0" x1="69.44" y1="157.69" x2="114.37" y2= "157.69" />
    </g>
    <g>
     <line class="fil0 str0" x1="226.71" y1="157.69" x2="249.17" y2= "157.69" />
    </g>
    <g>
     <line class="fil0 str0" x1="271.64" y1="157.69" x2="294.1" y2= "157.69" />
    </g>
    <g>
     <line class="fil0 str0" x1="58.21" y1="177.15" x2="103.14" y2= "177.15" />
    </g>
    <g>
     <line class="fil0 str0" x1="46.97" y1="196.61" x2="91.91" y2= "196.61" />
    </g>
    <g>
     <line class="fil0 str0" x1="181.77" y1="196.61" x2="226.71" y2= "196.61" />
    </g>
    <g>
     <line class="fil0 str0" x1="58.21" y1="216.06" x2="103.14" y2= "216.06" />
    </g>
    <g>
     <line class="fil0 str0" x1="193.01" y1="216.06" x2="215.47" y2= "216.06" />
    </g>
    <g>
     <line class="fil0 str0" x1="282.87" y1="216.06" x2="305.34" y2= "216.06" />
    </g>
    <g>
     <line class="fil0 str0" x1="46.97" y1="235.52" x2="91.91" y2= "235.52" />
    </g>
    <g>
     <line class="fil0 str0" x1="181.77" y1="235.52" x2="204.24" y2= "235.52" />
    </g>
    <g>
     <line class="fil0 str0" x1="226.71" y1="274.43" x2="249.17" y2= "274.43" />
    </g>
    <g>
     <line class="fil0 str0" x1="148.07" y1="293.89" x2="170.54" y2= "293.89" />
    </g>
    <g>
     <line class="fil0 str0" x1="91.91" y1="313.34" x2="271.64" y2= "313.34" />
    </g>
    <g>
     <line class="fil0 str0" x1="13.28" y1="138.24" x2="2.04" y2= "157.69" />
    </g>
    <g>
     <line class="fil0 str0" x1="2.04" y1="157.69" x2="13.28" y2= "177.15" />
    </g>
    <g>
     <line class="fil0 str0" x1="24.51" y1="118.78" x2="13.28" y2= "138.24" />
    </g>
    <g>
     <line class="fil0 str0" x1="13.28" y1="177.15" x2="24.51" y2= "196.61" />
    </g>
    <g>
     <line class="fil0 str0" x1="35.74" y1="99.32" x2="24.51" y2= "118.78" />
    </g>
    <g>
     <line class="fil0 str0" x1="24.51" y1="157.69" x2="35.74" y2= "177.15" />
    </g>
    <g>
     <polyline class="fil0 str0" points="35.74,177.15 24.51,196.61 35.74,216.06 "/>
    </g>
    <g>
     <line class="fil0 str0" x1="46.97" y1="79.87" x2="35.74" y2= "99.32" />
    </g>
    <g>
     <polyline class="fil0 str0" points="46.97,118.78 35.74,138.24 46.97,157.69 "/>
    </g>
    <g>
     <line class="fil0 str0" x1="35.74" y1="216.06" x2="46.97" y2= "235.52" />
    </g>
    <g>
     <line class="fil0 str0" x1="58.21" y1="60.41" x2="46.97" y2= "79.87" />
    </g>
    <g>
     <line class="fil0 str0" x1="58.21" y1="138.24" x2="46.97" y2= "157.69" />
    </g>
    <g>
     <line class="fil0 str0" x1="46.97" y1="157.69" x2="58.21" y2= "177.15" />
    </g>
    <g>
     <line class="fil0 str0" x1="46.97" y1="235.52" x2="58.21" y2= "254.98" />
    </g>
    <g>
     <line class="fil0 str0" x1="69.44" y1="40.96" x2="58.21" y2= "60.41" />
    </g>
    <g>
     <line class="fil0 str0" x1="58.21" y1="60.41" x2="69.44" y2= "79.87" />
    </g>
    <g>
     <line class="fil0 str0" x1="69.44" y1="79.87" x2="58.21" y2= "99.32" />
    </g>
    <g>
     <line class="fil0 str0" x1="58.21" y1="99.32" x2="69.44" y2= "118.78" />
    </g>
    <g>
     <line class="fil0 str0" x1="58.21" y1="254.98" x2="69.44" y2= "274.43" />
    </g>
    <g>
     <line class="fil0 str0" x1="80.67" y1="21.5" x2="69.44" y2= "40.96" />
    </g>
    <g>
     <line class="fil0 str0" x1="69.44" y1="274.43" x2="80.67" y2= "293.89" />
    </g>
    <g>
     <line class="fil0 str0" x1="91.91" y1="2.04" x2="80.67" y2= "21.5" />
    </g>
    <g>
     <line class="fil0 str0" x1="91.91" y1="40.96" x2="80.67" y2= "60.41" />
    </g>
    <g>
     <line class="fil0 str0" x1="91.91" y1="79.87" x2="80.67" y2= "99.32" />
    </g>
    <g>
     <line class="fil0 str0" x1="80.67" y1="99.32" x2="91.91" y2= "118.78" />
    </g>
    <g>
     <line class="fil0 str0" x1="91.91" y1="235.52" x2="80.67" y2= "254.98" />
    </g>
    <g>
     <line class="fil0 str0" x1="80.67" y1="254.98" x2="91.91" y2= "274.43" />
    </g>
    <g>
     <line class="fil0 str0" x1="80.67" y1="293.89" x2="91.91" y2= "313.34" />
    </g>
    <g>
     <line class="fil0 str0" x1="103.14" y1="60.41" x2="91.91" y2= "79.87" />
    </g>
    <g>
     <polyline class="fil0 str0" points="103.14,177.15 91.91,196.61 103.14,216.06 "/>
    </g>
    <g>
     <line class="fil0 str0" x1="91.91" y1="274.43" x2="103.14" y2= "293.89" />
    </g>
    <g>
     <line class="fil0 str0" x1="103.14" y1="99.32" x2="114.37" y2= "118.78" />
    </g>
    <g>
     <line class="fil0 str0" x1="103.14" y1="216.06" x2="114.37" y2= "235.52" />
    </g>
    <g>
     <line class="fil0 str0" x1="114.37" y1="235.52" x2="103.14" y2= "254.98" />
    </g>
    <g>
     <line class="fil0 str0" x1="114.37" y1="2.04" x2="125.61" y2= "21.5" />
    </g>
    <g>
     <line class="fil0 str0" x1="114.37" y1="40.96" x2="125.61" y2= "60.41" />
    </g>
    <g>
     <line class="fil0 str0" x1="125.61" y1="60.41" x2="114.37" y2= "79.87" />
    </g>
    <g>
     <line class="fil0 str0" x1="114.37" y1="79.87" x2="125.61" y2= "99.32" />
    </g>
    <g>
     <line class="fil0 str0" x1="125.61" y1="138.24" x2="114.37" y2= "157.69" />
    </g>
    <g>
     <line class="fil0 str0" x1="114.37" y1="157.69" x2="125.61" y2= "177.15" />
    </g>
    <g>
     <polyline class="fil0 str0" points="125.61,177.15 114.37,196.61 125.61,216.06 "/>
    </g>
    <g>
     <polyline class="fil0 str0" points="114.37,274.43 125.61,293.89 114.37,313.34 "/>
    </g>
    <g>
     <line class="fil0 str0" x1="125.61" y1="21.5" x2="136.84" y2= "40.96" />
    </g>
    <g>
     <line class="fil0 str0" x1="125.61" y1="99.32" x2="136.84" y2= "118.78" />
    </g>
    <g>
     <line class="fil0 str0" x1="125.61" y1="177.15" x2="136.84" y2= "196.61" />
    </g>
    <g>
     <line class="fil0 str0" x1="125.61" y1="216.06" x2="136.84" y2= "235.52" />
    </g>
    <g>
     <line class="fil0 str0" x1="136.84" y1="235.52" x2="125.61" y2= "254.98" />
    </g>
    <g>
     <line class="fil0 str0" x1="136.84" y1="40.96" x2="148.07" y2= "60.41" />
    </g>
    <g>
     <line class="fil0 str0" x1="148.07" y1="60.41" x2="136.84" y2= "79.87" />
    </g>
    <g>
     <line class="fil0 str0" x1="136.84" y1="79.87" x2="148.07" y2= "99.32" />
    </g>
    <g>
     <line class="fil0 str0" x1="148.07" y1="138.24" x2="136.84" y2= "157.69" />
    </g>
    <g>
     <line class="fil0 str0" x1="136.84" y1="157.69" x2="148.07" y2= "177.15" />
    </g>
    <g>
     <polyline class="fil0 str0" points="148.07,254.98 136.84,274.43 148.07,293.89 "/>
    </g>
    <g>
     <line class="fil0 str0" x1="159.31" y1="118.78" x2="148.07" y2= "138.24" />
    </g>
    <g>
     <polyline class="fil0 str0" points="148.07,177.15 159.31,196.61 148.07,216.06 "/>
    </g>
    <g>
     <line class="fil0 str0" x1="159.31" y1="235.52" x2="148.07" y2= "254.98" />
    </g>
    <g>
     <line class="fil0 str0" x1="159.31" y1="40.96" x2="170.54" y2= "60.41" />
    </g>
    <g>
     <line class="fil0 str0" x1="159.31" y1="79.87" x2="170.54" y2= "99.32" />
    </g>
    <g>
     <line class="fil0 str0" x1="159.31" y1="196.61" x2="170.54" y2= "216.06" />
    </g>
    <g>
     <line class="fil0 str0" x1="170.54" y1="216.06" x2="159.31" y2= "235.52" />
    </g>
    <g>
     <line class="fil0 str0" x1="170.54" y1="254.98" x2="159.31" y2= "274.43" />
    </g>
    <g>
     <line class="fil0 str0" x1="170.54" y1="21.5" x2="181.77" y2= "40.96" />
    </g>
    <g>
     <line class="fil0 str0" x1="181.77" y1="235.52" x2="170.54" y2= "254.98" />
    </g>
    <g>
     <polyline class="fil0 str0" points="181.77,274.43 170.54,293.89 181.77,313.34 "/>
    </g>
    <g>
     <line class="fil0 str0" x1="193.01" y1="60.41" x2="181.77" y2= "79.87" />
    </g>
    <g>
     <line class="fil0 str0" x1="181.77" y1="196.61" x2="193.01" y2= "216.06" />
    </g>
    <g>
     <line class="fil0 str0" x1="193.01" y1="216.06" x2="181.77" y2= "235.52" />
    </g>
    <g>
     <line class="fil0 str0" x1="193.01" y1="254.98" x2="181.77" y2= "274.43" />
    </g>
    <g>
     <line class="fil0 str0" x1="204.24" y1="79.87" x2="193.01" y2= "99.32" />
    </g>
    <g>
     <line class="fil0 str0" x1="193.01" y1="99.32" x2="204.24" y2= "118.78" />
    </g>
    <g>
     <polyline class="fil0 str0" points="193.01,254.98 204.24,274.43 193.01,293.89 "/>
    </g>
    <g>
     <line class="fil0 str0" x1="215.47" y1="21.5" x2="204.24" y2= "40.96" />
    </g>
    <g>
     <line class="fil0 str0" x1="204.24" y1="118.78" x2="215.47" y2= "138.24" />
    </g>
    <g>
     <line class="fil0 str0" x1="215.47" y1="177.15" x2="204.24" y2= "196.61" />
    </g>
    <g>
     <line class="fil0 str0" x1="215.47" y1="293.89" x2="204.24" y2= "313.34" />
    </g>
    <g>
     <line class="fil0 str0" x1="226.71" y1="40.96" x2="215.47" y2= "60.41" />
    </g>
    <g>
     <polyline class="fil0 str0" points="215.47,99.32 226.71,118.78 215.47,138.24 226.71,157.69 "/>
    </g>
    <g>
     <line class="fil0 str0" x1="226.71" y1="157.69" x2="215.47" y2= "177.15" />
    </g>
    <g>
     <polyline class="fil0 str0" points="215.47,254.98 226.71,274.43 215.47,293.89 "/>
    </g>
    <g>
     <line class="fil0 str0" x1="237.94" y1="21.5" x2="226.71" y2= "40.96" />
    </g>
    <g>
     <line class="fil0 str0" x1="237.94" y1="60.41" x2="226.71" y2= "79.87" />
    </g>
    <g>
     <line class="fil0 str0" x1="226.71" y1="196.61" x2="237.94" y2= "216.06" />
    </g>
    <g>
     <line class="fil0 str0" x1="237.94" y1="216.06" x2="226.71" y2= "235.52" />
    </g>
    <g>
     <line class="fil0 str0" x1="226.71" y1="235.52" x2="237.94" y2= "254.98" />
    </g>
    <g>
     <line class="fil0 str0" x1="249.17" y1="2.04" x2="237.94" y2= "21.5" />
    </g>
    <g>
     <line class="fil0 str0" x1="249.17" y1="79.87" x2="237.94" y2= "99.32" />
    </g>
    <g>
     <polyline class="fil0 str0" points="237.94,99.32 249.17,118.78 237.94,138.24 "/>
    </g>
    <g>
     <polyline class="fil0 str0" points="237.94,177.15 249.17,196.61 237.94,216.06 "/>
    </g>
    <g>
     <line class="fil0 str0" x1="237.94" y1="293.89" x2="249.17" y2= "313.34" />
    </g>
    <g>
     <polyline class="fil0 str0" points="260.4,21.5 249.17,40.96 260.4,60.41 "/>
    </g>
    <g>
     <line class="fil0 str0" x1="260.4" y1="60.41" x2="249.17" y2= "79.87" />
    </g>
    <g>
     <line class="fil0 str0" x1="260.4" y1="99.32" x2="249.17" y2= "118.78" />
    </g>
    <g>
     <line class="fil0 str0" x1="260.4" y1="138.24" x2="249.17" y2= "157.69" />
    </g>
    <g>
     <line class="fil0 str0" x1="260.4" y1="177.15" x2="249.17" y2= "196.61" />
    </g>
    <g>
     <line class="fil0 str0" x1="260.4" y1="216.06" x2="249.17" y2= "235.52" />
    </g>
    <g>
     <line class="fil0 str0" x1="249.17" y1="235.52" x2="260.4" y2= "254.98" />
    </g>
    <g>
     <polyline class="fil0 str0" points="260.4,254.98 249.17,274.43 260.4,293.89 "/>
    </g>
    <g>
     <line class="fil0 str0" x1="271.64" y1="79.87" x2="260.4" y2= "99.32" />
    </g>
    <g>
     <line class="fil0 str0" x1="271.64" y1="196.61" x2="260.4" y2= "216.06" />
    </g>
    <g>
     <line class="fil0 str0" x1="260.4" y1="216.06" x2="271.64" y2= "235.52" />
    </g>
    <g>
     <line class="fil0 str0" x1="271.64" y1="274.43" x2="260.4" y2= "293.89" />
    </g>
    <g>
     <line class="fil0 str0" x1="271.64" y1="2.04" x2="282.87" y2= "21.5" />
    </g>
    <g>
     <line class="fil0 str0" x1="282.87" y1="60.41" x2="271.64" y2= "79.87" />
    </g>
    <g>
     <polyline class="fil0 str0" points="282.87,177.15 271.64,196.61 282.87,216.06 "/>
    </g>
    <g>
     <line class="fil0 str0" x1="271.64" y1="235.52" x2="282.87" y2= "254.98" />
    </g>
    <g>
     <line class="fil0 str0" x1="282.87" y1="293.89" x2="271.64" y2= "313.34" />
    </g>
    <g>
     <line class="fil0 str0" x1="282.87" y1="21.5" x2="294.1" y2= "40.96" />
    </g>
    <g>
     <line class="fil0 str0" x1="294.1" y1="118.78" x2="282.87" y2= "138.24" />
    </g>
    <g>
     <line class="fil0 str0" x1="294.1" y1="274.43" x2="282.87" y2= "293.89" />
    </g>
    <g>
     <line class="fil0 str0" x1="294.1" y1="40.96" x2="305.34" y2= "60.41" />
    </g>
    <g>
     <line class="fil0 str0" x1="305.34" y1="60.41" x2="294.1" y2= "79.87" />
    </g>
    <g>
     <line class="fil0 str0" x1="305.34" y1="138.24" x2="294.1" y2= "157.69" />
    </g>
    <g>
     <line class="fil0 str0" x1="294.1" y1="157.69" x2="305.34" y2= "177.15" />
    </g>
    <g>
     <line class="fil0 str0" x1="305.34" y1="177.15" x2="294.1" y2= "196.61" />
    </g>
    <g>
     <line class="fil0 str0" x1="294.1" y1="235.52" x2="305.34" y2= "254.98" />
    </g>
    <g>
     <line class="fil0 str0" x1="305.34" y1="254.98" x2="294.1" y2= "274.43" />
    </g>
    <g>
     <line class="fil0 str0" x1="305.34" y1="60.41" x2="316.57" y2= "79.87" />
    </g>
    <g>
     <polyline class="fil0 str0" points="305.34,99.32 316.57,118.78 305.34,138.24 "/>
    </g>
    <g>
     <polyline class="fil0 str0" points="305.34,177.15 316.57,196.61 305.34,216.06 "/>
    </g>
    <g>
     <line class="fil0 str0" x1="316.57" y1="235.52" x2="305.34" y2= "254.98" />
    </g>
    <g>
     <line class="fil0 str0" x1="316.57" y1="79.87" x2="327.8" y2= "99.32" />
    </g>
    <g>
     <line class="fil0 str0" x1="316.57" y1="157.69" x2="327.8" y2= "177.15" />
    </g>
    <g>
     <line class="fil0 str0" x1="327.8" y1="216.06" x2="316.57" y2= "235.52" />
    </g>
    <g>
     <line class="fil0 str0" x1="327.8" y1="99.32" x2="339.04" y2= "118.78" />
    </g>
    <g>
     <line class="fil0 str0" x1="327.8" y1="138.24" x2="339.04" y2= "157.69" />
    </g>
    <g>
     <polyline class="fil0 str0" points="327.8,177.15 339.04,196.61 327.8,216.06 "/>
    </g>
    <g>
     <line class="fil0 str0" x1="339.04" y1="118.78" x2="350.27" y2= "138.24" />
    </g>
    <g>
     <line class="fil0 str0" x1="339.04" y1="157.69" x2="350.27" y2= "177.15" />
    </g>
    <g>
     <line class="fil0 str0" x1="350.27" y1="177.15" x2="339.04" y2= "196.61" />
    </g>
    <g>
     <line class="fil0 str0" x1="350.27" y1="138.24" x2="361.5" y2= "157.69" />
    </g>
    <g>
     <line class="fil0 str0" x1="361.5" y1="157.69" x2="350.27" y2= "177.15" />
    </g>
   </g>
  </g>
  <g id="hex10.svg_0">
   <g>
    <g>
     <line class="fil0 str1" x1="91.91" y1="2.04" x2="181.77" y2= "2.04" />
    </g>
    <g>
     <line class="fil0 str1" x1="204.24" y1="2.04" x2="271.64" y2= "2.04" />
    </g>
    <g>
     <line class="fil0 str1" x1="80.67" y1="21.5" x2="103.14" y2= "21.5" />
    </g>
    <g>
     <line class="fil0 str1" x1="148.07" y1="21.5" x2="170.54" y2= "21.5" />
    </g>
    <g>
     <line class="fil0 str1" x1="193.01" y1="21.5" x2="237.94" y2= "21.5" />
    </g>
    <g>
     <line class="fil0 str1" x1="91.91" y1="40.96" x2="114.37" y2= "40.96" />
    </g>
    <g>
     <line class="fil0 str1" x1="136.84" y1="40.96" x2="159.31" y2= "40.96" />
    </g>
    <g>
     <line class="fil0 str1" x1="181.77" y1="40.96" x2="204.24" y2= "40.96" />
    </g>
    <g>
     <line class="fil0 str1" x1="271.64" y1="40.96" x2="294.1" y2= "40.96" />
    </g>
    <g>
     <line class="fil0 str1" x1="193.01" y1="60.41" x2="215.47" y2= "60.41" />
    </g>
    <g>
     <line class="fil0 str1" x1="69.44" y1="79.87" x2="91.91" y2= "79.87" />
    </g>
    <g>
     <line class="fil0 str1" x1="204.24" y1="79.87" x2="226.71" y2= "79.87" />
    </g>
    <g>
     <line class="fil0 str1" x1="271.64" y1="79.87" x2="294.1" y2= "79.87" />
    </g>
    <g>
     <line class="fil0 str1" x1="170.54" y1="99.32" x2="193.01" y2= "99.32" />
    </g>
    <g>
     <line class="fil0 str1" x1="282.87" y1="99.32" x2="305.34" y2= "99.32" />
    </g>
    <g>
     <line class="fil0 str1" x1="91.91" y1="118.78" x2="114.37" y2= "118.78" />
    </g>
    <g>
     <line class="fil0 str1" x1="136.84" y1="118.78" x2="204.24" y2= "118.78" />
    </g>
    <g>
     <line class="fil0 str1" x1="271.64" y1="118.78" x2="294.1" y2= "118.78" />
    </g>
    <g>
     <line class="fil0 str1" x1="13.28" y1="138.24" x2="35.74" y2= "138.24" />
    </g>
    <g>
     <line class="fil0 str1" x1="58.21" y1="138.24" x2="125.61" y2= "138.24" />
    </g>
    <g>
     <line class="fil0 str1" x1="260.4" y1="138.24" x2="282.87" y2= "138.24" />
    </g>
    <g>
     <line class="fil0 str1" x1="69.44" y1="157.69" x2="114.37" y2= "157.69" />
    </g>
    <g>
     <line class="fil0 str1" x1="226.71" y1="157.69" x2="249.17" y2= "157.69" />
    </g>
    <g>
     <line class="fil0 str1" x1="271.64" y1="157.69" x2="294.1" y2= "157.69" />
    </g>
    <g>
     <line class="fil0 str1" x1="58.21" y1="177.15" x2="103.14" y2= "177.15" />
    </g>
    <g>
     <line class="fil0 str1" x1="46.97" y1="196.61" x2="91.91" y2= "196.61" />
    </g>
    <g>
     <line class="fil0 str1" x1="181.77" y1="196.61" x2="226.71" y2= "196.61" />
    </g>
    <g>
     <line class="fil0 str1" x1="58.21" y1="216.06" x2="103.14" y2= "216.06" />
    </g>
    <g>
     <line class="fil0 str1" x1="193.01" y1="216.06" x2="215.47" y2= "216.06" />
    </g>
    <g>
     <line class="fil0 str1" x1="282.87" y1="216.06" x2="305.34" y2= "216.06" />
    </g>
    <g>
     <line class="fil0 str1" x1="46.97" y1="235.52" x2="91.91" y2= "235.52" />
    </g>
    <g>
     <line class="fil0 str1" x1="181.77" y1="235.52" x2="204.24" y2= "235.52" />
    </g>
    <g>
     <line class="fil0 str1" x1="226.71" y1="274.43" x2="249.17" y2= "274.43" />
    </g>
    <g>
     <line class="fil0 str1" x1="148.07" y1="293.89" x2="170.54" y2= "293.89" />
    </g>
    <g>
     <line class="fil0 str1" x1="91.91" y1="313.34" x2="271.64" y2= "313.34" />
    </g>
    <g>
     <line class="fil0 str1" x1="13.28" y1="138.24" x2="2.04" y2= "157.69" />
    </g>
    <g>
     <line class="fil0 str1" x1="2.04" y1="157.69" x2="13.28" y2= "177.15" />
    </g>
    <g>
     <line class="fil0 str1" x1="24.51" y1="118.78" x2="13.28" y2= "138.24" />
    </g>
    <g>
     <line class="fil0 str1" x1="13.28" y1="177.15" x2="24.51" y2= "196.61" />
    </g>
    <g>
     <line class="fil0 str1" x1="35.74" y1="99.32" x2="24.51" y2= "118.78" />
    </g>
    <g>
     <line class="fil0 str1" x1="24.51" y1="157.69" x2="35.74" y2= "177.15" />
    </g>
    <g>
     <polyline class="fil0 str1" points="35.74,177.15 24.51,196.61 35.74,216.06 "/>
    </g>
    <g>
     <line class="fil0 str1" x1="46.97" y1="79.87" x2="35.74" y2= "99.32" />
    </g>
    <g>
     <polyline class="fil0 str1" points="46.97,118.78 35.74,138.24 46.97,157.69 "/>
    </g>
    <g>
     <line class="fil0 str1" x1="35.74" y1="216.06" x2="46.97" y2= "235.52" />
    </g>
    <g>
     <line class="fil0 str1" x1="58.21" y1="60.41" x2="46.97" y2= "79.87" />
    </g>
    <g>
     <line class="fil0 str1" x1="58.21" y1="138.24" x2="46.97" y2= "157.69" />
    </g>
    <g>
     <line class="fil0 str1" x1="46.97" y1="157.69" x2="58.21" y2= "177.15" />
    </g>
    <g>
     <line class="fil0 str1" x1="46.97" y1="235.52" x2="58.21" y2= "254.98" />
    </g>
    <g>
     <line class="fil0 str1" x1="69.44" y1="40.96" x2="58.21" y2= "60.41" />
    </g>
    <g>
     <line class="fil0 str1" x1="58.21" y1="60.41" x2="69.44" y2= "79.87" />
    </g>
    <g>
     <line class="fil0 str1" x1="69.44" y1="79.87" x2="58.21" y2= "99.32" />
    </g>
    <g>
     <line class="fil0 str1" x1="58.21" y1="99.32" x2="69.44" y2= "118.78" />
    </g>
    <g>
     <line class="fil0 str1" x1="58.21" y1="254.98" x2="69.44" y2= "274.43" />
    </g>
    <g>
     <line class="fil0 str1" x1="80.67" y1="21.5" x2="69.44" y2= "40.96" />
    </g>
    <g>
     <line class="fil0 str1" x1="69.44" y1="274.43" x2="80.67" y2= "293.89" />
    </g>
    <g>
     <line class="fil0 str1" x1="91.91" y1="2.04" x2="80.67" y2= "21.5" />
    </g>
    <g>
     <line class="fil0 str1" x1="91.91" y1="40.96" x2="80.67" y2= "60.41" />
    </g>
    <g>
     <line class="fil0 str1" x1="91.91" y1="79.87" x2="80.67" y2= "99.32" />
    </g>
    <g>
     <line class="fil0 str1" x1="80.67" y1="99.32" x2="91.91" y2= "118.78" />
    </g>
    <g>
     <line class="fil0 str1" x1="91.91" y1="235.52" x2="80.67" y2= "254.98" />
    </g>
    <g>
     <line class="fil0 str1" x1="80.67" y1="254.98" x2="91.91" y2= "274.43" />
    </g>
    <g>
     <line class="fil0 str1" x1="80.67" y1="293.89" x2="91.91" y2= "313.34" />
    </g>
    <g>
     <line class="fil0 str1" x1="103.14" y1="60.41" x2="91.91" y2= "79.87" />
    </g>
    <g>
     <polyline class="fil0 str1" points="103.14,177.15 91.91,196.61 103.14,216.06 "/>
    </g>
    <g>
     <line class="fil0 str1" x1="91.91" y1="274.43" x2="103.14" y2= "293.89" />
    </g>
    <g>
     <line class="fil0 str1" x1="103.14" y1="99.32" x2="114.37" y2= "118.78" />
    </g>
    <g>
     <line class="fil0 str1" x1="103.14" y1="216.06" x2="114.37" y2= "235.52" />
    </g>
    <g>
     <line class="fil0 str1" x1="114.37" y1="235.52" x2="103.14" y2= "254.98" />
    </g>
    <g>
     <line class="fil0 str1" x1="114.37" y1="2.04" x2="125.61" y2= "21.5" />
    </g>
    <g>
     <line class="fil0 str1" x1="114.37" y1="40.96" x2="125.61" y2= "60.41" />
    </g>
    <g>
     <line class="fil0 str1" x1="125.61" y1="60.41" x2="114.37" y2= "79.87" />
    </g>
    <g>
     <line class="fil0 str1" x1="114.37" y1="79.87" x2="125.61" y2= "99.32" />
    </g>
    <g>
     <line class="fil0 str1" x1="125.61" y1="138.24" x2="114.37" y2= "157.69" />
    </g>
    <g>
     <line class="fil0 str1" x1="114.37" y1="157.69" x2="125.61" y2= "177.15" />
    </g>
    <g>
     <polyline class="fil0 str1" points="125.61,177.15 114.37,196.61 125.61,216.06 "/>
    </g>
    <g>
     <polyline class="fil0 str1" points="114.37,274.43 125.61,293.89 114.37,313.34 "/>
    </g>
    <g>
     <line class="fil0 str1" x1="125.61" y1="21.5" x2="136.84" y2= "40.96" />
    </g>
    <g>
     <line class="fil0 str1" x1="125.61" y1="99.32" x2="136.84" y2= "118.78" />
    </g>
    <g>
     <line class="fil0 str1" x1="125.61" y1="177.15" x2="136.84" y2= "196.61" />
    </g>
    <g>
     <line class="fil0 str1" x1="125.61" y1="216.06" x2="136.84" y2= "235.52" />
    </g>
    <g>
     <line class="fil0 str1" x1="136.84" y1="235.52" x2="125.61" y2= "254.98" />
    </g>
    <g>
     <line class="fil0 str1" x1="136.84" y1="40.96" x2="148.07" y2= "60.41" />
    </g>
    <g>
     <line class="fil0 str1" x1="148.07" y1="60.41" x2="136.84" y2= "79.87" />
    </g>
    <g>
     <line class="fil0 str1" x1="136.84" y1="79.87" x2="148.07" y2= "99.32" />
    </g>
    <g>
     <line class="fil0 str1" x1="148.07" y1="138.24" x2="136.84" y2= "157.69" />
    </g>
    <g>
     <line class="fil0 str1" x1="136.84" y1="157.69" x2="148.07" y2= "177.15" />
    </g>
    <g>
     <polyline class="fil0 str1" points="148.07,254.98 136.84,274.43 148.07,293.89 "/>
    </g>
    <g>
     <line class="fil0 str1" x1="159.31" y1="118.78" x2="148.07" y2= "138.24" />
    </g>
    <g>
     <polyline class="fil0 str1" points="148.07,177.15 159.31,196.61 148.07,216.06 "/>
    </g>
    <g>
     <line class="fil0 str1" x1="159.31" y1="235.52" x2="148.07" y2= "254.98" />
    </g>
    <g>
     <line class="fil0 str1" x1="159.31" y1="40.96" x2="170.54" y2= "60.41" />
    </g>
    <g>
     <line class="fil0 str1" x1="159.31" y1="79.87" x2="170.54" y2= "99.32" />
    </g>
    <g>
     <line class="fil0 str1" x1="159.31" y1="196.61" x2="170.54" y2= "216.06" />
    </g>
    <g>
     <line class="fil0 str1" x1="170.54" y1="216.06" x2="159.31" y2= "235.52" />
    </g>
    <g>
     <line class="fil0 str1" x1="170.54" y1="254.98" x2="159.31" y2= "274.43" />
    </g>
    <g>
     <line class="fil0 str1" x1="170.54" y1="21.5" x2="181.77" y2= "40.96" />
    </g>
    <g>
     <line class="fil0 str1" x1="181.77" y1="235.52" x2="170.54" y2= "254.98" />
    </g>
    <g>
     <polyline class="fil0 str1" points="181.77,274.43 170.54,293.89 181.77,313.34 "/>
    </g>
    <g>
     <line class="fil0 str1" x1="193.01" y1="60.41" x2="181.77" y2= "79.87" />
    </g>
    <g>
     <line class="fil0 str1" x1="181.77" y1="196.61" x2="193.01" y2= "216.06" />
    </g>
    <g>
     <line class="fil0 str1" x1="193.01" y1="216.06" x2="181.77" y2= "235.52" />
    </g>
    <g>
     <line class="fil0 str1" x1="193.01" y1="254.98" x2="181.77" y2= "274.43" />
    </g>
    <g>
     <line class="fil0 str1" x1="204.24" y1="79.87" x2="193.01" y2= "99.32" />
    </g>
    <g>
     <line class="fil0 str1" x1="193.01" y1="99.32" x2="204.24" y2= "118.78" />
    </g>
    <g>
     <polyline class="fil0 str1" points="193.01,254.98 204.24,274.43 193.01,293.89 "/>
    </g>
    <g>
     <line class="fil0 str1" x1="215.47" y1="21.5" x2="204.24" y2= "40.96" />
    </g>
    <g>
     <line class="fil0 str1" x1="204.24" y1="118.78" x2="215.47" y2= "138.24" />
    </g>
    <g>
     <line class="fil0 str1" x1="215.47" y1="177.15" x2="204.24" y2= "196.61" />
    </g>
    <g>
     <line class="fil0 str1" x1="215.47" y1="293.89" x2="204.24" y2= "313.34" />
    </g>
    <g>
     <line class="fil0 str1" x1="226.71" y1="40.96" x2="215.47" y2= "60.41" />
    </g>
    <g>
     <polyline class="fil0 str1" points="215.47,99.32 226.71,118.78 215.47,138.24 226.71,157.69 "/>
    </g>
    <g>
     <line class="fil0 str1" x1="226.71" y1="157.69" x2="215.47" y2= "177.15" />
    </g>
    <g>
     <polyline class="fil0 str1" points="215.47,254.98 226.71,274.43 215.47,293.89 "/>
    </g>
    <g>
     <line class="fil0 str1" x1="237.94" y1="21.5" x2="226.71" y2= "40.96" />
    </g>
    <g>
     <line class="fil0 str1" x1="237.94" y1="60.41" x2="226.71" y2= "79.87" />
    </g>
    <g>
     <line class="fil0 str1" x1="226.71" y1="196.61" x2="237.94" y2= "216.06" />
    </g>
    <g>
     <line class="fil0 str1" x1="237.94" y1="216.06" x2="226.71" y2= "235.52" />
    </g>
    <g>
     <line class="fil0 str1" x1="226.71" y1="235.52" x2="237.94" y2= "254.98" />
    </g>
    <g>
     <line class="fil0 str1" x1="249.17" y1="2.04" x2="237.94" y2= "21.5" />
    </g>
    <g>
     <line class="fil0 str1" x1="249.17" y1="79.87" x2="237.94" y2= "99.32" />
    </g>
    <g>
     <polyline class="fil0 str1" points="237.94,99.32 249.17,118.78 237.94,138.24 "/>
    </g>
    <g>
     <polyline class="fil0 str1" points="237.94,177.15 249.17,196.61 237.94,216.06 "/>
    </g>
    <g>
     <line class="fil0 str1" x1="237.94" y1="293.89" x2="249.17" y2= "313.34" />
    </g>
    <g>
     <polyline class="fil0 str1" points="260.4,21.5 249.17,40.96 260.4,60.41 "/>
    </g>
    <g>
     <line class="fil0 str1" x1="260.4" y1="60.41" x2="249.17" y2= "79.87" />
    </g>
    <g>
     <line class="fil0 str1" x1="260.4" y1="99.32" x2="249.17" y2= "118.78" />
    </g>
    <g>
     <line class="fil0 str1" x1="260.4" y1="138.24" x2="249.17" y2= "157.69" />
    </g>
    <g>
     <line class="fil0 str1" x1="260.4" y1="177.15" x2="249.17" y2= "196.61" />
    </g>
    <g>
     <line class="fil0 str1" x1="260.4" y1="216.06" x2="249.17" y2= "235.52" />
    </g>
    <g>
     <line class="fil0 str1" x1="249.17" y1="235.52" x2="260.4" y2= "254.98" />
    </g>
    <g>
     <polyline class="fil0 str1" points="260.4,254.98 249.17,274.43 260.4,293.89 "/>
    </g>
    <g>
     <line class="fil0 str1" x1="271.64" y1="79.87" x2="260.4" y2= "99.32" />
    </g>
    <g>
     <line class="fil0 str1" x1="271.64" y1="196.61" x2="260.4" y2= "216.06" />
    </g>
    <g>
     <line class="fil0 str1" x1="260.4" y1="216.06" x2="271.64" y2= "235.52" />
    </g>
    <g>
     <line class="fil0 str1" x1="271.64" y1="274.43" x2="260.4" y2= "293.89" />
    </g>
    <g>
     <line class="fil0 str1" x1="271.64" y1="2.04" x2="282.87" y2= "21.5" />
    </g>
    <g>
     <line class="fil0 str1" x1="282.87" y1="60.41" x2="271.64" y2= "79.87" />
    </g>
    <g>
     <polyline class="fil0 str1" points="282.87,177.15 271.64,196.61 282.87,216.06 "/>
    </g>
    <g>
     <line class="fil0 str1" x1="271.64" y1="235.52" x2="282.87" y2= "254.98" />
    </g>
    <g>
     <line class="fil0 str1" x1="282.87" y1="293.89" x2="271.64" y2= "313.34" />
    </g>
    <g>
     <line class="fil0 str1" x1="282.87" y1="21.5" x2="294.1" y2= "40.96" />
    </g>
    <g>
     <line class="fil0 str1" x1="294.1" y1="118.78" x2="282.87" y2= "138.24" />
    </g>
    <g>
     <line class="fil0 str1" x1="294.1" y1="274.43" x2="282.87" y2= "293.89" />
    </g>
    <g>
     <line class="fil0 str1" x1="294.1" y1="40.96" x2="305.34" y2= "60.41" />
    </g>
    <g>
     <line class="fil0 str1" x1="305.34" y1="60.41" x2="294.1" y2= "79.87" />
    </g>
    <g>
     <line class="fil0 str1" x1="305.34" y1="138.24" x2="294.1" y2= "157.69" />
    </g>
    <g>
     <line class="fil0 str1" x1="294.1" y1="157.69" x2="305.34" y2= "177.15" />
    </g>
    <g>
     <line class="fil0 str1" x1="305.34" y1="177.15" x2="294.1" y2= "196.61" />
    </g>
    <g>
     <line class="fil0 str1" x1="294.1" y1="235.52" x2="305.34" y2= "254.98" />
    </g>
    <g>
     <line class="fil0 str1" x1="305.34" y1="254.98" x2="294.1" y2= "274.43" />
    </g>
    <g>
     <line class="fil0 str1" x1="305.34" y1="60.41" x2="316.57" y2= "79.87" />
    </g>
    <g>
     <polyline class="fil0 str1" points="305.34,99.32 316.57,118.78 305.34,138.24 "/>
    </g>
    <g>
     <polyline class="fil0 str1" points="305.34,177.15 316.57,196.61 305.34,216.06 "/>
    </g>
    <g>
     <line class="fil0 str1" x1="316.57" y1="235.52" x2="305.34" y2= "254.98" />
    </g>
    <g>
     <line class="fil0 str1" x1="316.57" y1="79.87" x2="327.8" y2= "99.32" />
    </g>
    <g>
     <line class="fil0 str1" x1="316.57" y1="157.69" x2="327.8" y2= "177.15" />
    </g>
    <g>
     <line class="fil0 str1" x1="327.8" y1="216.06" x2="316.57" y2= "235.52" />
    </g>
    <g>
     <line class="fil0 str1" x1="327.8" y1="99.32" x2="339.04" y2= "118.78" />
    </g>
    <g>
     <line class="fil0 str1" x1="327.8" y1="138.24" x2="339.04" y2= "157.69" />
    </g>
    <g>
     <polyline class="fil0 str1" points="327.8,177.15 339.04,196.61 327.8,216.06 "/>
    </g>
    <g>
     <line class="fil0 str1" x1="339.04" y1="118.78" x2="350.27" y2= "138.24" />
    </g>
    <g>
     <line class="fil0 str1" x1="339.04" y1="157.69" x2="350.27" y2= "177.15" />
    </g>
    <g>
     <line class="fil0 str1" x1="350.27" y1="177.15" x2="339.04" y2= "196.61" />
    </g>
    <g>
     <line class="fil0 str1" x1="350.27" y1="138.24" x2="361.5" y2= "157.69" />
    </g>
    <g>
     <line class="fil0 str1" x1="361.5" y1="157.69" x2="350.27" y2= "177.15" />
    </g>
   </g>
  </g>
  <polyline class="fil0 str2" points="192.58,2.04 186.96,11.77 142.03,11.77 136.41,21.5 142.03,31.23 164.5,31.23 181.35,60.41 170.11,79.87 175.73,89.6 186.96,89.6 198.2,70.14 220.66,70.14 231.9,50.68 243.13,50.68 248.74,60.41 226.28,99.32 237.51,118.78 226.28,138.24 231.9,147.96 243.13,147.96 265.59,109.05 299.29,109.05 304.91,118.78 288.06,147.96 265.59,147.96 259.98,157.69 271.21,177.15 237.51,235.52 248.74,254.97 243.13,264.7 231.9,264.7 220.66,245.25 186.96,245.25 164.5,284.16 153.26,284.16 147.65,274.43 181.35,216.06 170.11,196.61 "/>
 </g>
</svg>
