<?xml version="1.0" encoding="UTF-8"?>
<!DOCTYPE svg PUBLIC "-//W3C//DTD SVG 1.1//EN" "http://www.w3.org/Graphics/SVG/1.1/DTD/svg11.dtd">
<!-- Creator: CorelDRAW 2018 (64-Bit) -->
<svg xmlns="http://www.w3.org/2000/svg" xml:space="preserve" width="3.39583in" height="3.83053in" version="1.1" style="shape-rendering:geometricPrecision; text-rendering:geometricPrecision; image-rendering:optimizeQuality; fill-rule:evenodd; clip-rule:evenodd"
viewBox="0 0 229.15 258.48"
 xmlns:xlink="http://www.w3.org/1999/xlink">
 <defs>
  <style type="text/css">
   <![CDATA[
    .str2 {stroke:red;stroke-width:1.41;stroke-linecap:square;stroke-linejoin:round;stroke-miterlimit:2.61313}
    .str0 {stroke:black;stroke-width:2.81;stroke-linecap:round;stroke-linejoin:round;stroke-miterlimit:2.61313}
    .str1 {stroke:yellow;stroke-width:1.87;stroke-linecap:round;stroke-linejoin:round;stroke-miterlimit:2.61313}
    .fil0 {fill:none}
   ]]>
  </style>
 </defs>
 <g id="Layer_x0020_1">
  <metadata id="CorelCorpID_0Corel-Layer"/>
  <g id="hex1.svg">
   <g>
    <g>
     <polyline class="fil0 str0" points="89.97,18.45 94.89,9.93 104.73,9.93 109.65,18.45 "/>
    </g>
    <g>
     <line class="fil0 str0" x1="104.73" y1="9.93" x2="109.65" y2= "1.41" />
    </g>
    <g>
     <polyline class="fil0 str0" points="119.49,1.41 124.41,9.93 134.25,9.93 139.17,18.45 "/>
    </g>
    <g>
     <polyline class="fil0 str0" points="60.45,35.49 65.37,26.97 75.21,26.97 80.13,18.45 89.97,18.45 "/>
    </g>
    <g>
     <polyline class="fil0 str0" points="89.97,35.49 94.89,26.97 104.73,26.97 109.65,35.49 "/>
    </g>
    <g>
     <polyline class="fil0 str0" points="109.65,18.45 119.49,18.45 124.41,26.97 119.49,35.49 "/>
    </g>
    <g>
     <polyline class="fil0 str0" points="139.17,35.49 134.25,26.97 139.17,18.45 149.01,18.45 153.94,26.97 163.78,26.97 168.7,35.49 "/>
    </g>
    <g>
     <polyline class="fil0 str0" points="30.93,52.54 35.85,44.02 45.69,44.02 50.61,52.54 "/>
    </g>
    <g>
     <polyline class="fil0 str0" points="45.69,44.02 50.61,35.49 60.45,35.49 "/>
    </g>
    <g>
     <polyline class="fil0 str0" points="65.37,44.02 75.21,44.02 80.13,52.54 "/>
    </g>
    <g>
     <polyline class="fil0 str0" points="75.21,44.02 80.13,35.49 89.97,35.49 "/>
    </g>
    <g>
     <line class="fil0 str0" x1="89.97" y1="52.54" x2="94.89" y2= "44.02" />
    </g>
    <g>
     <polyline class="fil0 str0" points="109.65,52.54 104.73,44.02 109.65,35.49 119.49,35.49 "/>
    </g>
    <g>
     <polyline class="fil0 str0" points="124.41,44.02 134.25,44.02 139.17,52.54 "/>
    </g>
    <g>
     <polyline class="fil0 str0" points="134.25,44.02 139.17,35.49 149.01,35.49 "/>
    </g>
    <g>
     <polyline class="fil0 str0" points="153.94,44.02 163.78,44.02 168.7,52.54 "/>
    </g>
    <g>
     <polyline class="fil0 str0" points="163.78,44.02 168.7,35.49 178.54,35.49 183.46,44.02 193.3,44.02 198.22,52.54 "/>
    </g>
    <g>
     <polyline class="fil0 str0" points="6.33,78.11 1.41,69.58 6.33,61.06 16.17,61.06 21.09,52.54 30.93,52.54 "/>
    </g>
    <g>
     <line class="fil0 str0" x1="30.93" y1="69.58" x2="35.85" y2= "61.06" />
    </g>
    <g>
     <polyline class="fil0 str0" points="50.61,69.58 45.69,61.06 50.61,52.54 60.45,52.54 "/>
    </g>
    <g>
     <polyline class="fil0 str0" points="65.37,61.06 75.21,61.06 80.13,69.58 "/>
    </g>
    <g>
     <line class="fil0 str0" x1="75.21" y1="61.06" x2="80.13" y2= "52.54" />
    </g>
    <g>
     <polyline class="fil0 str0" points="89.97,52.54 94.89,61.06 89.97,69.58 "/>
    </g>
    <g>
     <line class="fil0 str0" x1="94.89" y1="61.06" x2="104.73" y2= "61.06" />
    </g>
    <g>
     <polyline class="fil0 str0" points="109.65,52.54 119.49,52.54 124.41,61.06 119.49,69.58 "/>
    </g>
    <g>
     <polyline class="fil0 str0" points="139.17,69.58 134.25,61.06 139.17,52.54 149.01,52.54 153.94,61.06 149.01,69.58 "/>
    </g>
    <g>
     <polyline class="fil0 str0" points="153.94,61.06 163.78,61.06 168.7,69.58 "/>
    </g>
    <g>
     <line class="fil0 str0" x1="168.7" y1="52.54" x2="178.54" y2= "52.54" />
    </g>
    <g>
     <line class="fil0 str0" x1="178.54" y1="69.58" x2="183.46" y2= "61.06" />
    </g>
    <g>
     <polyline class="fil0 str0" points="193.3,61.06 198.22,52.54 208.06,52.54 212.98,61.06 222.82,61.06 227.74,69.58 222.82,78.11 "/>
    </g>
    <g>
     <polyline class="fil0 str0" points="6.33,95.15 1.41,86.63 6.33,78.11 "/>
    </g>
    <g>
     <polyline class="fil0 str0" points="16.17,78.11 21.09,69.58 30.93,69.58 35.85,78.11 30.93,86.63 "/>
    </g>
    <g>
     <polyline class="fil0 str0" points="35.85,78.11 45.69,78.11 50.61,69.58 60.45,69.58 65.37,78.11 "/>
    </g>
    <g>
     <polyline class="fil0 str0" points="80.13,86.63 75.21,78.11 80.13,69.58 "/>
    </g>
    <g>
     <polyline class="fil0 str0" points="89.97,69.58 94.89,78.11 104.73,78.11 109.65,86.63 "/>
    </g>
    <g>
     <line class="fil0 str0" x1="109.65" y1="69.58" x2="119.49" y2= "69.58" />
    </g>
    <g>
     <polyline class="fil0 str0" points="119.49,86.63 124.41,78.11 134.25,78.11 139.17,86.63 "/>
    </g>
    <g>
     <line class="fil0 str0" x1="134.25" y1="78.11" x2="139.17" y2= "69.58" />
    </g>
    <g>
     <polyline class="fil0 str0" points="149.01,86.63 153.94,78.11 163.78,78.11 168.7,86.63 "/>
    </g>
    <g>
     <polyline class="fil0 str0" points="178.54,69.58 183.46,78.11 193.3,78.11 198.22,86.63 "/>
    </g>
    <g>
     <polyline class="fil0 str0" points="198.22,69.58 208.06,69.58 212.98,78.11 222.82,78.11 227.74,86.63 222.82,95.15 "/>
    </g>
    <g>
     <polyline class="fil0 str0" points="6.33,112.19 1.41,103.67 6.33,95.15 "/>
    </g>
    <g>
     <polyline class="fil0 str0" points="21.09,103.67 16.17,95.15 21.09,86.63 "/>
    </g>
    <g>
     <polyline class="fil0 str0" points="30.93,86.63 35.85,95.15 30.93,103.67 "/>
    </g>
    <g>
     <polyline class="fil0 str0" points="35.85,95.15 45.69,95.15 50.61,103.67 "/>
    </g>
    <g>
     <polyline class="fil0 str0" points="50.61,86.63 60.45,86.63 65.37,95.15 60.45,103.67 "/>
    </g>
    <g>
     <polyline class="fil0 str0" points="65.37,95.15 75.21,95.15 80.13,103.67 "/>
    </g>
    <g>
     <polyline class="fil0 str0" points="80.13,86.63 89.97,86.63 94.89,95.15 104.73,95.15 109.65,103.67 "/>
    </g>
    <g>
     <polyline class="fil0 str0" points="109.65,86.63 119.49,86.63 124.41,95.15 "/>
    </g>
    <g>
     <line class="fil0 str0" x1="134.25" y1="95.15" x2="139.17" y2= "103.67" />
    </g>
    <g>
     <polyline class="fil0 str0" points="139.17,86.63 149.01,86.63 153.94,95.15 149.01,103.67 "/>
    </g>
    <g>
     <line class="fil0 str0" x1="163.78" y1="95.15" x2="168.7" y2= "103.67" />
    </g>
    <g>
     <polyline class="fil0 str0" points="168.7,86.63 178.54,86.63 183.46,95.15 178.54,103.67 "/>
    </g>
    <g>
     <polyline class="fil0 str0" points="183.46,95.15 193.3,95.15 198.22,86.63 208.06,86.63 212.98,95.15 "/>
    </g>
    <g>
     <polyline class="fil0 str0" points="222.82,95.15 227.74,103.67 222.82,112.19 "/>
    </g>
    <g>
     <polyline class="fil0 str0" points="6.33,129.24 1.41,120.72 6.33,112.19 16.17,112.19 21.09,120.72 "/>
    </g>
    <g>
     <line class="fil0 str0" x1="16.17" y1="112.19" x2="21.09" y2= "103.67" />
    </g>
    <g>
     <line class="fil0 str0" x1="30.93" y1="120.72" x2="35.85" y2= "112.19" />
    </g>
    <g>
     <polyline class="fil0 str0" points="50.61,120.72 45.69,112.19 50.61,103.67 "/>
    </g>
    <g>
     <polyline class="fil0 str0" points="60.45,103.67 65.37,112.19 75.21,112.19 80.13,120.72 "/>
    </g>
    <g>
     <polyline class="fil0 str0" points="89.97,103.67 94.89,112.19 89.97,120.72 "/>
    </g>
    <g>
     <polyline class="fil0 str0" points="94.89,112.19 104.73,112.19 109.65,103.67 119.49,103.67 124.41,112.19 134.25,112.19 139.17,120.72 "/>
    </g>
    <g>
     <line class="fil0 str0" x1="134.25" y1="112.19" x2="139.17" y2= "103.67" />
    </g>
    <g>
     <polyline class="fil0 str0" points="149.01,120.72 153.94,112.19 163.78,112.19 168.7,120.72 "/>
    </g>
    <g>
     <line class="fil0 str0" x1="163.78" y1="112.19" x2="168.7" y2= "103.67" />
    </g>
    <g>
     <line class="fil0 str0" x1="178.54" y1="103.67" x2="183.46" y2= "112.19" />
    </g>
    <g>
     <line class="fil0 str0" x1="193.3" y1="112.19" x2="198.22" y2= "120.72" />
    </g>
    <g>
     <polyline class="fil0 str0" points="198.22,103.67 208.06,103.67 212.98,112.19 208.06,120.72 "/>
    </g>
    <g>
     <polyline class="fil0 str0" points="212.98,112.19 222.82,112.19 227.74,120.72 222.82,129.24 "/>
    </g>
    <g>
     <polyline class="fil0 str0" points="6.33,146.28 1.41,137.76 6.33,129.24 "/>
    </g>
    <g>
     <line class="fil0 str0" x1="16.17" y1="129.24" x2="21.09" y2= "137.76" />
    </g>
    <g>
     <line class="fil0 str0" x1="21.09" y1="120.72" x2="30.93" y2= "120.72" />
    </g>
    <g>
     <polyline class="fil0 str0" points="35.85,129.24 45.69,129.24 50.61,137.76 "/>
    </g>
    <g>
     <polyline class="fil0 str0" points="45.69,129.24 50.61,120.72 60.45,120.72 65.37,129.24 "/>
    </g>
    <g>
     <polyline class="fil0 str0" points="80.13,137.76 75.21,129.24 80.13,120.72 "/>
    </g>
    <g>
     <polyline class="fil0 str0" points="89.97,120.72 94.89,129.24 89.97,137.76 "/>
    </g>
    <g>
     <polyline class="fil0 str0" points="139.17,137.76 134.25,129.24 139.17,120.72 149.01,120.72 "/>
    </g>
    <g>
     <polyline class="fil0 str0" points="149.01,137.76 153.94,129.24 163.78,129.24 "/>
    </g>
    <g>
     <polyline class="fil0 str0" points="168.7,120.72 178.54,120.72 183.46,129.24 193.3,129.24 198.22,137.76 "/>
    </g>
    <g>
     <line class="fil0 str0" x1="193.3" y1="129.24" x2="198.22" y2= "120.72" />
    </g>
    <g>
     <line class="fil0 str0" x1="208.06" y1="137.76" x2="212.98" y2= "129.24" />
    </g>
    <g>
     <polyline class="fil0 str0" points="222.82,129.24 227.74,137.76 222.82,146.28 "/>
    </g>
    <g>
     <polyline class="fil0 str0" points="6.33,163.33 1.41,154.81 6.33,146.28 "/>
    </g>
    <g>
     <polyline class="fil0 str0" points="16.17,146.28 21.09,137.76 30.93,137.76 35.85,146.28 30.93,154.81 "/>
    </g>
    <g>
     <polyline class="fil0 str0" points="35.85,146.28 45.69,146.28 50.61,154.81 "/>
    </g>
    <g>
     <polyline class="fil0 str0" points="60.45,137.76 65.37,146.28 60.45,154.81 "/>
    </g>
    <g>
     <polyline class="fil0 str0" points="65.37,146.28 75.21,146.28 80.13,137.76 "/>
    </g>
    <g>
     <polyline class="fil0 str0" points="89.97,137.76 94.89,146.28 89.97,154.81 "/>
    </g>
    <g>
     <polyline class="fil0 str0" points="94.89,146.28 104.73,146.28 109.65,154.81 "/>
    </g>
    <g>
     <polyline class="fil0 str0" points="119.49,154.81 124.41,146.28 134.25,146.28 139.17,137.76 149.01,137.76 153.94,146.28 "/>
    </g>
    <g>
     <polyline class="fil0 str0" points="168.7,154.81 163.78,146.28 168.7,137.76 178.54,137.76 "/>
    </g>
    <g>
     <polyline class="fil0 str0" points="178.54,154.81 183.46,146.28 193.3,146.28 198.22,154.81 "/>
    </g>
    <g>
     <polyline class="fil0 str0" points="193.3,146.28 198.22,137.76 208.06,137.76 "/>
    </g>
    <g>
     <polyline class="fil0 str0" points="212.98,146.28 222.82,146.28 227.74,154.81 222.82,163.33 "/>
    </g>
    <g>
     <polyline class="fil0 str0" points="6.33,180.37 1.41,171.85 6.33,163.33 16.17,163.33 21.09,154.81 "/>
    </g>
    <g>
     <polyline class="fil0 str0" points="30.93,154.81 35.85,163.33 30.93,171.85 "/>
    </g>
    <g>
     <line class="fil0 str0" x1="45.69" y1="163.33" x2="50.61" y2= "171.85" />
    </g>
    <g>
     <line class="fil0 str0" x1="50.61" y1="154.81" x2="60.45" y2= "154.81" />
    </g>
    <g>
     <polyline class="fil0 str0" points="60.45,171.85 65.37,163.33 75.21,163.33 80.13,171.85 "/>
    </g>
    <g>
     <polyline class="fil0 str0" points="75.21,163.33 80.13,154.81 89.97,154.81 "/>
    </g>
    <g>
     <line class="fil0 str0" x1="89.97" y1="171.85" x2="94.89" y2= "163.33" />
    </g>
    <g>
     <line class="fil0 str0" x1="104.73" y1="163.33" x2="109.65" y2= "171.85" />
    </g>
    <g>
     <polyline class="fil0 str0" points="119.49,171.85 124.41,163.33 134.25,163.33 139.17,171.85 "/>
    </g>
    <g>
     <polyline class="fil0 str0" points="134.25,163.33 139.17,154.81 149.01,154.81 "/>
    </g>
    <g>
     <polyline class="fil0 str0" points="149.01,171.85 153.94,163.33 163.78,163.33 168.7,154.81 "/>
    </g>
    <g>
     <polyline class="fil0 str0" points="178.54,154.81 183.46,163.33 178.54,171.85 "/>
    </g>
    <g>
     <line class="fil0 str0" x1="183.46" y1="163.33" x2="193.3" y2= "163.33" />
    </g>
    <g>
     <polyline class="fil0 str0" points="198.22,154.81 208.06,154.81 212.98,163.33 "/>
    </g>
    <g>
     <polyline class="fil0 str0" points="222.82,163.33 227.74,171.85 222.82,180.37 "/>
    </g>
    <g>
     <polyline class="fil0 str0" points="6.33,197.42 1.41,188.89 6.33,180.37 "/>
    </g>
    <g>
     <polyline class="fil0 str0" points="16.17,180.37 21.09,171.85 30.93,171.85 35.85,180.37 45.69,180.37 50.61,188.89 "/>
    </g>
    <g>
     <line class="fil0 str0" x1="50.61" y1="171.85" x2="60.45" y2= "171.85" />
    </g>
    <g>
     <polyline class="fil0 str0" points="60.45,188.89 65.37,180.37 75.21,180.37 80.13,171.85 "/>
    </g>
    <g>
     <polyline class="fil0 str0" points="89.97,171.85 94.89,180.37 89.97,188.89 "/>
    </g>
    <g>
     <polyline class="fil0 str0" points="94.89,180.37 104.73,180.37 109.65,188.89 "/>
    </g>
    <g>
     <polyline class="fil0 str0" points="109.65,171.85 119.49,171.85 124.41,180.37 119.49,188.89 "/>
    </g>
    <g>
     <polyline class="fil0 str0" points="139.17,188.89 134.25,180.37 139.17,171.85 "/>
    </g>
    <g>
     <polyline class="fil0 str0" points="149.01,171.85 153.94,180.37 163.78,180.37 168.7,188.89 "/>
    </g>
    <g>
     <polyline class="fil0 str0" points="168.7,171.85 178.54,171.85 183.46,180.37 178.54,188.89 "/>
    </g>
    <g>
     <polyline class="fil0 str0" points="183.46,180.37 193.3,180.37 198.22,188.89 "/>
    </g>
    <g>
     <polyline class="fil0 str0" points="198.22,171.85 208.06,171.85 212.98,180.37 222.82,180.37 227.74,188.89 222.82,197.42 "/>
    </g>
    <g>
     <polyline class="fil0 str0" points="6.33,197.42 16.17,197.42 21.09,205.94 "/>
    </g>
    <g>
     <polyline class="fil0 str0" points="16.17,197.42 21.09,188.89 30.93,188.89 "/>
    </g>
    <g>
     <line class="fil0 str0" x1="30.93" y1="205.94" x2="35.85" y2= "197.42" />
    </g>
    <g>
     <polyline class="fil0 str0" points="50.61,205.94 45.69,197.42 50.61,188.89 60.45,188.89 "/>
    </g>
    <g>
     <polyline class="fil0 str0" points="65.37,197.42 75.21,197.42 80.13,205.94 "/>
    </g>
    <g>
     <polyline class="fil0 str0" points="75.21,197.42 80.13,188.89 89.97,188.89 "/>
    </g>
    <g>
     <line class="fil0 str0" x1="89.97" y1="205.94" x2="94.89" y2= "197.42" />
    </g>
    <g>
     <line class="fil0 str0" x1="104.73" y1="197.42" x2="109.65" y2= "205.94" />
    </g>
    <g>
     <polyline class="fil0 str0" points="119.49,205.94 124.41,197.42 134.25,197.42 139.17,205.94 "/>
    </g>
    <g>
     <polyline class="fil0 str0" points="134.25,197.42 139.17,188.89 149.01,188.89 "/>
    </g>
    <g>
     <polyline class="fil0 str0" points="153.94,197.42 163.78,197.42 168.7,205.94 "/>
    </g>
    <g>
     <polyline class="fil0 str0" points="163.78,197.42 168.7,188.89 178.54,188.89 "/>
    </g>
    <g>
     <polyline class="fil0 str0" points="183.46,197.42 193.3,197.42 198.22,205.94 "/>
    </g>
    <g>
     <line class="fil0 str0" x1="198.22" y1="188.89" x2="208.06" y2= "188.89" />
    </g>
    <g>
     <polyline class="fil0 str0" points="208.06,205.94 212.98,197.42 222.82,197.42 "/>
    </g>
    <g>
     <polyline class="fil0 str0" points="21.09,205.94 30.93,205.94 35.85,214.46 45.69,214.46 50.61,222.98 "/>
    </g>
    <g>
     <line class="fil0 str0" x1="50.61" y1="205.94" x2="60.45" y2= "205.94" />
    </g>
    <g>
     <polyline class="fil0 str0" points="60.45,222.98 65.37,214.46 75.21,214.46 80.13,222.98 "/>
    </g>
    <g>
     <line class="fil0 str0" x1="75.21" y1="214.46" x2="80.13" y2= "205.94" />
    </g>
    <g>
     <polyline class="fil0 str0" points="89.97,205.94 94.89,214.46 89.97,222.98 "/>
    </g>
    <g>
     <polyline class="fil0 str0" points="109.65,222.98 104.73,214.46 109.65,205.94 119.49,205.94 "/>
    </g>
    <g>
     <polyline class="fil0 str0" points="124.41,214.46 134.25,214.46 139.17,222.98 "/>
    </g>
    <g>
     <polyline class="fil0 str0" points="139.17,205.94 149.01,205.94 153.94,214.46 149.01,222.98 "/>
    </g>
    <g>
     <polyline class="fil0 str0" points="163.78,214.46 168.7,205.94 178.54,205.94 "/>
    </g>
    <g>
     <polyline class="fil0 str0" points="178.54,222.98 183.46,214.46 193.3,214.46 198.22,205.94 208.06,205.94 "/>
    </g>
    <g>
     <polyline class="fil0 str0" points="50.61,222.98 60.45,222.98 65.37,231.51 75.21,231.51 80.13,240.03 "/>
    </g>
    <g>
     <polyline class="fil0 str0" points="89.97,222.98 94.89,231.51 89.97,240.03 "/>
    </g>
    <g>
     <line class="fil0 str0" x1="94.89" y1="231.51" x2="104.73" y2= "231.51" />
    </g>
    <g>
     <polyline class="fil0 str0" points="109.65,222.98 119.49,222.98 124.41,231.51 119.49,240.03 "/>
    </g>
    <g>
     <polyline class="fil0 str0" points="139.17,240.03 134.25,231.51 139.17,222.98 "/>
    </g>
    <g>
     <polyline class="fil0 str0" points="149.01,222.98 153.94,231.51 149.01,240.03 "/>
    </g>
    <g>
     <polyline class="fil0 str0" points="153.94,231.51 163.78,231.51 168.7,222.98 178.54,222.98 "/>
    </g>
    <g>
     <polyline class="fil0 str0" points="80.13,240.03 89.97,240.03 94.89,248.55 104.73,248.55 109.65,257.07 "/>
    </g>
    <g>
     <line class="fil0 str0" x1="104.73" y1="248.55" x2="109.65" y2= "240.03" />
    </g>
    <g>
     <polyline class="fil0 str0" points="119.49,257.07 124.41,248.55 134.25,248.55 139.17,240.03 149.01,240.03 "/>
    </g>
    <g>
     <line class="fil0 str0" x1="119.49" y1="257.07" x2="109.65" y2= "257.07" />
    </g>
   </g>
  </g>
  <g id="hex1.svg_0">
   <g>
    <g>
     <polyline class="fil0 str1" points="89.97,18.45 94.89,9.93 104.73,9.93 109.65,18.45 "/>
    </g>
    <g>
     <line class="fil0 str1" x1="104.73" y1="9.93" x2="109.65" y2= "1.41" />
    </g>
    <g>
     <polyline class="fil0 str1" points="119.49,1.41 124.41,9.93 134.25,9.93 139.17,18.45 "/>
    </g>
    <g>
     <polyline class="fil0 str1" points="60.45,35.49 65.37,26.97 75.21,26.97 80.13,18.45 89.97,18.45 "/>
    </g>
    <g>
     <polyline class="fil0 str1" points="89.97,35.49 94.89,26.97 104.73,26.97 109.65,35.49 "/>
    </g>
    <g>
     <polyline class="fil0 str1" points="109.65,18.45 119.49,18.45 124.41,26.97 119.49,35.49 "/>
    </g>
    <g>
     <polyline class="fil0 str1" points="139.17,35.49 134.25,26.97 139.17,18.45 149.01,18.45 153.94,26.97 163.78,26.97 168.7,35.49 "/>
    </g>
    <g>
     <polyline class="fil0 str1" points="30.93,52.54 35.85,44.02 45.69,44.02 50.61,52.54 "/>
    </g>
    <g>
     <polyline class="fil0 str1" points="45.69,44.02 50.61,35.49 60.45,35.49 "/>
    </g>
    <g>
     <polyline class="fil0 str1" points="65.37,44.02 75.21,44.02 80.13,52.54 "/>
    </g>
    <g>
     <polyline class="fil0 str1" points="75.21,44.02 80.13,35.49 89.97,35.49 "/>
    </g>
    <g>
     <line class="fil0 str1" x1="89.97" y1="52.54" x2="94.89" y2= "44.02" />
    </g>
    <g>
     <polyline class="fil0 str1" points="109.65,52.54 104.73,44.02 109.65,35.49 119.49,35.49 "/>
    </g>
    <g>
     <polyline class="fil0 str1" points="124.41,44.02 134.25,44.02 139.17,52.54 "/>
    </g>
    <g>
     <polyline class="fil0 str1" points="134.25,44.02 139.17,35.49 149.01,35.49 "/>
    </g>
    <g>
     <polyline class="fil0 str1" points="153.94,44.02 163.78,44.02 168.7,52.54 "/>
    </g>
    <g>
     <polyline class="fil0 str1" points="163.78,44.02 168.7,35.49 178.54,35.49 183.46,44.02 193.3,44.02 198.22,52.54 "/>
    </g>
    <g>
     <polyline class="fil0 str1" points="6.33,78.11 1.41,69.58 6.33,61.06 16.17,61.06 21.09,52.54 30.93,52.54 "/>
    </g>
    <g>
     <line class="fil0 str1" x1="30.93" y1="69.58" x2="35.85" y2= "61.06" />
    </g>
    <g>
     <polyline class="fil0 str1" points="50.61,69.58 45.69,61.06 50.61,52.54 60.45,52.54 "/>
    </g>
    <g>
     <polyline class="fil0 str1" points="65.37,61.06 75.21,61.06 80.13,69.58 "/>
    </g>
    <g>
     <line class="fil0 str1" x1="75.21" y1="61.06" x2="80.13" y2= "52.54" />
    </g>
    <g>
     <polyline class="fil0 str1" points="89.97,52.54 94.89,61.06 89.97,69.58 "/>
    </g>
    <g>
     <line class="fil0 str1" x1="94.89" y1="61.06" x2="104.73" y2= "61.06" />
    </g>
    <g>
     <polyline class="fil0 str1" points="109.65,52.54 119.49,52.54 124.41,61.06 119.49,69.58 "/>
    </g>
    <g>
     <polyline class="fil0 str1" points="139.17,69.58 134.25,61.06 139.17,52.54 149.01,52.54 153.94,61.06 149.01,69.58 "/>
    </g>
    <g>
     <polyline class="fil0 str1" points="153.94,61.06 163.78,61.06 168.7,69.58 "/>
    </g>
    <g>
     <line class="fil0 str1" x1="168.7" y1="52.54" x2="178.54" y2= "52.54" />
    </g>
    <g>
     <line class="fil0 str1" x1="178.54" y1="69.58" x2="183.46" y2= "61.06" />
    </g>
    <g>
     <polyline class="fil0 str1" points="193.3,61.06 198.22,52.54 208.06,52.54 212.98,61.06 222.82,61.06 227.74,69.58 222.82,78.11 "/>
    </g>
    <g>
     <polyline class="fil0 str1" points="6.33,95.15 1.41,86.63 6.33,78.11 "/>
    </g>
    <g>
     <polyline class="fil0 str1" points="16.17,78.11 21.09,69.58 30.93,69.58 35.85,78.11 30.93,86.63 "/>
    </g>
    <g>
     <polyline class="fil0 str1" points="35.85,78.11 45.69,78.11 50.61,69.58 60.45,69.58 65.37,78.11 "/>
    </g>
    <g>
     <polyline class="fil0 str1" points="80.13,86.63 75.21,78.11 80.13,69.58 "/>
    </g>
    <g>
     <polyline class="fil0 str1" points="89.97,69.58 94.89,78.11 104.73,78.11 109.65,86.63 "/>
    </g>
    <g>
     <line class="fil0 str1" x1="109.65" y1="69.58" x2="119.49" y2= "69.58" />
    </g>
    <g>
     <polyline class="fil0 str1" points="119.49,86.63 124.41,78.11 134.25,78.11 139.17,86.63 "/>
    </g>
    <g>
     <line class="fil0 str1" x1="134.25" y1="78.11" x2="139.17" y2= "69.58" />
    </g>
    <g>
     <polyline class="fil0 str1" points="149.01,86.63 153.94,78.11 163.78,78.11 168.7,86.63 "/>
    </g>
    <g>
     <polyline class="fil0 str1" points="178.54,69.58 183.46,78.11 193.3,78.11 198.22,86.63 "/>
    </g>
    <g>
     <polyline class="fil0 str1" points="198.22,69.58 208.06,69.58 212.98,78.11 222.82,78.11 227.74,86.63 222.82,95.15 "/>
    </g>
    <g>
     <polyline class="fil0 str1" points="6.33,112.19 1.41,103.67 6.33,95.15 "/>
    </g>
    <g>
     <polyline class="fil0 str1" points="21.09,103.67 16.17,95.15 21.09,86.63 "/>
    </g>
    <g>
     <polyline class="fil0 str1" points="30.93,86.63 35.85,95.15 30.93,103.67 "/>
    </g>
    <g>
     <polyline class="fil0 str1" points="35.85,95.15 45.69,95.15 50.61,103.67 "/>
    </g>
    <g>
     <polyline class="fil0 str1" points="50.61,86.63 60.45,86.63 65.37,95.15 60.45,103.67 "/>
    </g>
    <g>
     <polyline class="fil0 str1" points="65.37,95.15 75.21,95.15 80.13,103.67 "/>
    </g>
    <g>
     <polyline class="fil0 str1" points="80.13,86.63 89.97,86.63 94.89,95.15 104.73,95.15 109.65,103.67 "/>
    </g>
    <g>
     <polyline class="fil0 str1" points="109.65,86.63 119.49,86.63 124.41,95.15 "/>
    </g>
    <g>
     <line class="fil0 str1" x1="134.25" y1="95.15" x2="139.17" y2= "103.67" />
    </g>
    <g>
     <polyline class="fil0 str1" points="139.17,86.63 149.01,86.63 153.94,95.15 149.01,103.67 "/>
    </g>
    <g>
     <line class="fil0 str1" x1="163.78" y1="95.15" x2="168.7" y2= "103.67" />
    </g>
    <g>
     <polyline class="fil0 str1" points="168.7,86.63 178.54,86.63 183.46,95.15 178.54,103.67 "/>
    </g>
    <g>
     <polyline class="fil0 str1" points="183.46,95.15 193.3,95.15 198.22,86.63 208.06,86.63 212.98,95.15 "/>
    </g>
    <g>
     <polyline class="fil0 str1" points="222.82,95.15 227.74,103.67 222.82,112.19 "/>
    </g>
    <g>
     <polyline class="fil0 str1" points="6.33,129.24 1.41,120.72 6.33,112.19 16.17,112.19 21.09,120.72 "/>
    </g>
    <g>
     <line class="fil0 str1" x1="16.17" y1="112.19" x2="21.09" y2= "103.67" />
    </g>
    <g>
     <line class="fil0 str1" x1="30.93" y1="120.72" x2="35.85" y2= "112.19" />
    </g>
    <g>
     <polyline class="fil0 str1" points="50.61,120.72 45.69,112.19 50.61,103.67 "/>
    </g>
    <g>
     <polyline class="fil0 str1" points="60.45,103.67 65.37,112.19 75.21,112.19 80.13,120.72 "/>
    </g>
    <g>
     <polyline class="fil0 str1" points="89.97,103.67 94.89,112.19 89.97,120.72 "/>
    </g>
    <g>
     <polyline class="fil0 str1" points="94.89,112.19 104.73,112.19 109.65,103.67 119.49,103.67 124.41,112.19 134.25,112.19 139.17,120.72 "/>
    </g>
    <g>
     <line class="fil0 str1" x1="134.25" y1="112.19" x2="139.17" y2= "103.67" />
    </g>
    <g>
     <polyline class="fil0 str1" points="149.01,120.72 153.94,112.19 163.78,112.19 168.7,120.72 "/>
    </g>
    <g>
     <line class="fil0 str1" x1="163.78" y1="112.19" x2="168.7" y2= "103.67" />
    </g>
    <g>
     <line class="fil0 str1" x1="178.54" y1="103.67" x2="183.46" y2= "112.19" />
    </g>
    <g>
     <line class="fil0 str1" x1="193.3" y1="112.19" x2="198.22" y2= "120.72" />
    </g>
    <g>
     <polyline class="fil0 str1" points="198.22,103.67 208.06,103.67 212.98,112.19 208.06,120.72 "/>
    </g>
    <g>
     <polyline class="fil0 str1" points="212.98,112.19 222.82,112.19 227.74,120.72 222.82,129.24 "/>
    </g>
    <g>
     <polyline class="fil0 str1" points="6.33,146.28 1.41,137.76 6.33,129.24 "/>
    </g>
    <g>
     <line class="fil0 str1" x1="16.17" y1="129.24" x2="21.09" y2= "137.76" />
    </g>
    <g>
     <line class="fil0 str1" x1="21.09" y1="120.72" x2="30.93" y2= "120.72" />
    </g>
    <g>
     <polyline class="fil0 str1" points="35.85,129.24 45.69,129.24 50.61,137.76 "/>
    </g>
    <g>
     <polyline class="fil0 str1" points="45.69,129.24 50.61,120.72 60.45,120.72 65.37,129.24 "/>
    </g>
    <g>
     <polyline class="fil0 str1" points="80.13,137.76 75.21,129.24 80.13,120.72 "/>
    </g>
    <g>
     <polyline class="fil0 str1" points="89.97,120.72 94.89,129.24 89.97,137.76 "/>
    </g>
    <g>
     <polyline class="fil0 str1" points="139.17,137.76 134.25,129.24 139.17,120.72 149.01,120.72 "/>
    </g>
    <g>
     <polyline class="fil0 str1" points="149.01,137.76 153.94,129.24 163.78,129.24 "/>
    </g>
    <g>
     <polyline class="fil0 str1" points="168.7,120.72 178.54,120.72 183.46,129.24 193.3,129.24 198.22,137.76 "/>
    </g>
    <g>
     <line class="fil0 str1" x1="193.3" y1="129.24" x2="198.22" y2= "120.72" />
    </g>
    <g>
     <line class="fil0 str1" x1="208.06" y1="137.76" x2="212.98" y2= "129.24" />
    </g>
    <g>
     <polyline class="fil0 str1" points="222.82,129.24 227.74,137.76 222.82,146.28 "/>
    </g>
    <g>
     <polyline class="fil0 str1" points="6.33,163.33 1.41,154.81 6.33,146.28 "/>
    </g>
    <g>
     <polyline class="fil0 str1" points="16.17,146.28 21.09,137.76 30.93,137.76 35.85,146.28 30.93,154.81 "/>
    </g>
    <g>
     <polyline class="fil0 str1" points="35.85,146.28 45.69,146.28 50.61,154.81 "/>
    </g>
    <g>
     <polyline class="fil0 str1" points="60.45,137.76 65.37,146.28 60.45,154.81 "/>
    </g>
    <g>
     <polyline class="fil0 str1" points="65.37,146.28 75.21,146.28 80.13,137.76 "/>
    </g>
    <g>
     <polyline class="fil0 str1" points="89.97,137.76 94.89,146.28 89.97,154.81 "/>
    </g>
    <g>
     <polyline class="fil0 str1" points="94.89,146.28 104.73,146.28 109.65,154.81 "/>
    </g>
    <g>
     <polyline class="fil0 str1" points="119.49,154.81 124.41,146.28 134.25,146.28 139.17,137.76 149.01,137.76 153.94,146.28 "/>
    </g>
    <g>
     <polyline class="fil0 str1" points="168.7,154.81 163.78,146.28 168.7,137.76 178.54,137.76 "/>
    </g>
    <g>
     <polyline class="fil0 str1" points="178.54,154.81 183.46,146.28 193.3,146.28 198.22,154.81 "/>
    </g>
    <g>
     <polyline class="fil0 str1" points="193.3,146.28 198.22,137.76 208.06,137.76 "/>
    </g>
    <g>
     <polyline class="fil0 str1" points="212.98,146.28 222.82,146.28 227.74,154.81 222.82,163.33 "/>
    </g>
    <g>
     <polyline class="fil0 str1" points="6.33,180.37 1.41,171.85 6.33,163.33 16.17,163.33 21.09,154.81 "/>
    </g>
    <g>
     <polyline class="fil0 str1" points="30.93,154.81 35.85,163.33 30.93,171.85 "/>
    </g>
    <g>
     <line class="fil0 str1" x1="45.69" y1="163.33" x2="50.61" y2= "171.85" />
    </g>
    <g>
     <line class="fil0 str1" x1="50.61" y1="154.81" x2="60.45" y2= "154.81" />
    </g>
    <g>
     <polyline class="fil0 str1" points="60.45,171.85 65.37,163.33 75.21,163.33 80.13,171.85 "/>
    </g>
    <g>
     <polyline class="fil0 str1" points="75.21,163.33 80.13,154.81 89.97,154.81 "/>
    </g>
    <g>
     <line class="fil0 str1" x1="89.97" y1="171.85" x2="94.89" y2= "163.33" />
    </g>
    <g>
     <line class="fil0 str1" x1="104.73" y1="163.33" x2="109.65" y2= "171.85" />
    </g>
    <g>
     <polyline class="fil0 str1" points="119.49,171.85 124.41,163.33 134.25,163.33 139.17,171.85 "/>
    </g>
    <g>
     <polyline class="fil0 str1" points="134.25,163.33 139.17,154.81 149.01,154.81 "/>
    </g>
    <g>
     <polyline class="fil0 str1" points="149.01,171.85 153.94,163.33 163.78,163.33 168.7,154.81 "/>
    </g>
    <g>
     <polyline class="fil0 str1" points="178.54,154.81 183.46,163.33 178.54,171.85 "/>
    </g>
    <g>
     <line class="fil0 str1" x1="183.46" y1="163.33" x2="193.3" y2= "163.33" />
    </g>
    <g>
     <polyline class="fil0 str1" points="198.22,154.81 208.06,154.81 212.98,163.33 "/>
    </g>
    <g>
     <polyline class="fil0 str1" points="222.82,163.33 227.74,171.85 222.82,180.37 "/>
    </g>
    <g>
     <polyline class="fil0 str1" points="6.33,197.42 1.41,188.89 6.33,180.37 "/>
    </g>
    <g>
     <polyline class="fil0 str1" points="16.17,180.37 21.09,171.85 30.93,171.85 35.85,180.37 45.69,180.37 50.61,188.89 "/>
    </g>
    <g>
     <line class="fil0 str1" x1="50.61" y1="171.85" x2="60.45" y2= "171.85" />
    </g>
    <g>
     <polyline class="fil0 str1" points="60.45,188.89 65.37,180.37 75.21,180.37 80.13,171.85 "/>
    </g>
    <g>
     <polyline class="fil0 str1" points="89.97,171.85 94.89,180.37 89.97,188.89 "/>
    </g>
    <g>
     <polyline class="fil0 str1" points="94.89,180.37 104.73,180.37 109.65,188.89 "/>
    </g>
    <g>
     <polyline class="fil0 str1" points="109.65,171.85 119.49,171.85 124.41,180.37 119.49,188.89 "/>
    </g>
    <g>
     <polyline class="fil0 str1" points="139.17,188.89 134.25,180.37 139.17,171.85 "/>
    </g>
    <g>
     <polyline class="fil0 str1" points="149.01,171.85 153.94,180.37 163.78,180.37 168.7,188.89 "/>
    </g>
    <g>
     <polyline class="fil0 str1" points="168.7,171.85 178.54,171.85 183.46,180.37 178.54,188.89 "/>
    </g>
    <g>
     <polyline class="fil0 str1" points="183.46,180.37 193.3,180.37 198.22,188.89 "/>
    </g>
    <g>
     <polyline class="fil0 str1" points="198.22,171.85 208.06,171.85 212.98,180.37 222.82,180.37 227.74,188.89 222.82,197.42 "/>
    </g>
    <g>
     <polyline class="fil0 str1" points="6.33,197.42 16.17,197.42 21.09,205.94 "/>
    </g>
    <g>
     <polyline class="fil0 str1" points="16.17,197.42 21.09,188.89 30.93,188.89 "/>
    </g>
    <g>
     <line class="fil0 str1" x1="30.93" y1="205.94" x2="35.85" y2= "197.42" />
    </g>
    <g>
     <polyline class="fil0 str1" points="50.61,205.94 45.69,197.42 50.61,188.89 60.45,188.89 "/>
    </g>
    <g>
     <polyline class="fil0 str1" points="65.37,197.42 75.21,197.42 80.13,205.94 "/>
    </g>
    <g>
     <polyline class="fil0 str1" points="75.21,197.42 80.13,188.89 89.97,188.89 "/>
    </g>
    <g>
     <line class="fil0 str1" x1="89.97" y1="205.94" x2="94.89" y2= "197.42" />
    </g>
    <g>
     <line class="fil0 str1" x1="104.73" y1="197.42" x2="109.65" y2= "205.94" />
    </g>
    <g>
     <polyline class="fil0 str1" points="119.49,205.94 124.41,197.42 134.25,197.42 139.17,205.94 "/>
    </g>
    <g>
     <polyline class="fil0 str1" points="134.25,197.42 139.17,188.89 149.01,188.89 "/>
    </g>
    <g>
     <polyline class="fil0 str1" points="153.94,197.42 163.78,197.42 168.7,205.94 "/>
    </g>
    <g>
     <polyline class="fil0 str1" points="163.78,197.42 168.7,188.89 178.54,188.89 "/>
    </g>
    <g>
     <polyline class="fil0 str1" points="183.46,197.42 193.3,197.42 198.22,205.94 "/>
    </g>
    <g>
     <line class="fil0 str1" x1="198.22" y1="188.89" x2="208.06" y2= "188.89" />
    </g>
    <g>
     <polyline class="fil0 str1" points="208.06,205.94 212.98,197.42 222.82,197.42 "/>
    </g>
    <g>
     <polyline class="fil0 str1" points="21.09,205.94 30.93,205.94 35.85,214.46 45.69,214.46 50.61,222.98 "/>
    </g>
    <g>
     <line class="fil0 str1" x1="50.61" y1="205.94" x2="60.45" y2= "205.94" />
    </g>
    <g>
     <polyline class="fil0 str1" points="60.45,222.98 65.37,214.46 75.21,214.46 80.13,222.98 "/>
    </g>
    <g>
     <line class="fil0 str1" x1="75.21" y1="214.46" x2="80.13" y2= "205.94" />
    </g>
    <g>
     <polyline class="fil0 str1" points="89.97,205.94 94.89,214.46 89.97,222.98 "/>
    </g>
    <g>
     <polyline class="fil0 str1" points="109.65,222.98 104.73,214.46 109.65,205.94 119.49,205.94 "/>
    </g>
    <g>
     <polyline class="fil0 str1" points="124.41,214.46 134.25,214.46 139.17,222.98 "/>
    </g>
    <g>
     <polyline class="fil0 str1" points="139.17,205.94 149.01,205.94 153.94,214.46 149.01,222.98 "/>
    </g>
    <g>
     <polyline class="fil0 str1" points="163.78,214.46 168.7,205.94 178.54,205.94 "/>
    </g>
    <g>
     <polyline class="fil0 str1" points="178.54,222.98 183.46,214.46 193.3,214.46 198.22,205.94 208.06,205.94 "/>
    </g>
    <g>
     <polyline class="fil0 str1" points="50.61,222.98 60.45,222.98 65.37,231.51 75.21,231.51 80.13,240.03 "/>
    </g>
    <g>
     <polyline class="fil0 str1" points="89.97,222.98 94.89,231.51 89.97,240.03 "/>
    </g>
    <g>
     <line class="fil0 str1" x1="94.89" y1="231.51" x2="104.73" y2= "231.51" />
    </g>
    <g>
     <polyline class="fil0 str1" points="109.65,222.98 119.49,222.98 124.41,231.51 119.49,240.03 "/>
    </g>
    <g>
     <polyline class="fil0 str1" points="139.17,240.03 134.25,231.51 139.17,222.98 "/>
    </g>
    <g>
     <polyline class="fil0 str1" points="149.01,222.98 153.94,231.51 149.01,240.03 "/>
    </g>
    <g>
     <polyline class="fil0 str1" points="153.94,231.51 163.78,231.51 168.7,222.98 178.54,222.98 "/>
    </g>
    <g>
     <polyline class="fil0 str1" points="80.13,240.03 89.97,240.03 94.89,248.55 104.73,248.55 109.65,257.07 "/>
    </g>
    <g>
     <line class="fil0 str1" x1="104.73" y1="248.55" x2="109.65" y2= "240.03" />
    </g>
    <g>
     <polyline class="fil0 str1" points="119.49,257.07 124.41,248.55 134.25,248.55 139.17,240.03 149.01,240.03 "/>
    </g>
    <g>
     <line class="fil0 str1" x1="119.49" y1="257.07" x2="109.65" y2= "257.07" />
    </g>
   </g>
  </g>
  <polyline class="fil0 str2" points="114.65,154.81 114.65,163.33 144.17,146.28 158.93,154.81 144.17,163.33 144.17,180.37 158.93,188.89 144.17,197.42 158.93,205.94 158.93,222.98 188.45,205.94 173.69,197.42 188.45,188.89 203.21,197.42 217.98,188.89 188.45,171.85 203.21,163.33 217.98,171.85 217.98,154.81 203.21,146.28 217.98,137.76 217.98,120.72 203.21,129.24 203.21,112.19 188.45,103.67 188.45,120.72 173.69,112.19 173.69,95.15 158.93,86.63 158.93,103.67 144.17,112.19 144.17,95.15 129.41,86.63 129.41,103.67 85.13,78.11 85.13,44.02 99.89,35.49 99.89,52.54 114.65,61.06 99.89,69.58 114.65,78.11 129.41,69.58 129.41,52.54 114.65,44.02 129.41,35.49 129.41,18.45 114.65,9.93 114.65,1.41 "/>
 </g>
</svg>
