<?xml version="1.0" encoding="UTF-8"?>
<!DOCTYPE svg PUBLIC "-//W3C//DTD SVG 1.1//EN" "http://www.w3.org/Graphics/SVG/1.1/DTD/svg11.dtd">
<!-- Creator: CorelDRAW 2018 (64-Bit) -->
<svg xmlns="http://www.w3.org/2000/svg" xml:space="preserve" width="3.39583in" height="3.83053in" version="1.1" style="shape-rendering:geometricPrecision; text-rendering:geometricPrecision; image-rendering:optimizeQuality; fill-rule:evenodd; clip-rule:evenodd"
viewBox="0 0 529.6 597.4"
 xmlns:xlink="http://www.w3.org/1999/xlink">
 <defs>
  <style type="text/css">
   <![CDATA[
    .str2 {stroke:red;stroke-width:3.25;stroke-linecap:square;stroke-linejoin:round;stroke-miterlimit:2.61313}
    .str0 {stroke:black;stroke-width:6.5;stroke-linecap:round;stroke-linejoin:round;stroke-miterlimit:2.61313}
    .str1 {stroke:yellow;stroke-width:4.33;stroke-linecap:round;stroke-linejoin:round;stroke-miterlimit:2.61313}
    .fil0 {fill:none}
   ]]>
  </style>
 </defs>
 <g id="Layer_x0020_1">
  <metadata id="CorelCorpID_0Corel-Layer"/>
  <g id="hex4.svg">
   <g>
    <g>
     <polyline class="fil0 str0" points="207.94,42.64 219.31,22.95 242.06,22.95 253.43,42.64 "/>
    </g>
    <g>
     <line class="fil0 str0" x1="242.06" y1="22.95" x2="253.43" y2= "3.25" />
    </g>
    <g>
     <polyline class="fil0 str0" points="276.17,3.25 287.54,22.95 310.29,22.95 321.66,42.64 "/>
    </g>
    <g>
     <polyline class="fil0 str0" points="139.71,82.03 151.08,62.34 173.83,62.34 185.2,42.64 207.94,42.64 219.31,62.34 207.94,82.03 "/>
    </g>
    <g>
     <line class="fil0 str0" x1="242.06" y1="62.34" x2="253.43" y2= "82.03" />
    </g>
    <g>
     <polyline class="fil0 str0" points="276.17,42.64 287.54,62.34 276.17,82.03 "/>
    </g>
    <g>
     <polyline class="fil0 str0" points="287.54,62.34 310.29,62.34 321.66,82.03 "/>
    </g>
    <g>
     <polyline class="fil0 str0" points="321.66,42.64 344.4,42.64 355.78,62.34 344.4,82.03 "/>
    </g>
    <g>
     <polyline class="fil0 str0" points="355.78,62.34 378.52,62.34 389.89,82.03 "/>
    </g>
    <g>
     <polyline class="fil0 str0" points="71.48,121.43 82.85,101.73 105.59,101.73 116.97,82.03 139.71,82.03 "/>
    </g>
    <g>
     <polyline class="fil0 str0" points="139.71,121.43 151.08,101.73 173.83,101.73 185.2,82.03 "/>
    </g>
    <g>
     <polyline class="fil0 str0" points="207.94,82.03 219.31,101.73 207.94,121.43 "/>
    </g>
    <g>
     <polyline class="fil0 str0" points="219.31,101.73 242.06,101.73 253.43,121.43 "/>
    </g>
    <g>
     <polyline class="fil0 str0" points="253.43,82.03 276.17,82.03 287.54,101.73 "/>
    </g>
    <g>
     <polyline class="fil0 str0" points="321.66,121.43 310.29,101.73 321.66,82.03 "/>
    </g>
    <g>
     <polyline class="fil0 str0" points="344.4,82.03 355.78,101.73 344.4,121.43 "/>
    </g>
    <g>
     <line class="fil0 str0" x1="355.78" y1="101.73" x2="378.52" y2= "101.73" />
    </g>
    <g>
     <polyline class="fil0 str0" points="389.89,82.03 412.63,82.03 424.01,101.73 446.75,101.73 458.12,121.43 "/>
    </g>
    <g>
     <polyline class="fil0 str0" points="14.62,180.52 3.25,160.82 14.62,141.12 37.36,141.12 48.74,160.82 "/>
    </g>
    <g>
     <polyline class="fil0 str0" points="37.36,141.12 48.74,121.43 71.48,121.43 "/>
    </g>
    <g>
     <polyline class="fil0 str0" points="71.48,160.82 82.85,141.12 105.59,141.12 116.97,121.43 139.71,121.43 151.08,141.12 173.83,141.12 185.2,160.82 "/>
    </g>
    <g>
     <line class="fil0 str0" x1="173.83" y1="141.12" x2="185.2" y2= "121.43" />
    </g>
    <g>
     <polyline class="fil0 str0" points="207.94,160.82 219.31,141.12 242.06,141.12 253.43,160.82 "/>
    </g>
    <g>
     <polyline class="fil0 str0" points="253.43,121.43 276.17,121.43 287.54,141.12 310.29,141.12 321.66,160.82 "/>
    </g>
    <g>
     <line class="fil0 str0" x1="310.29" y1="141.12" x2="321.66" y2= "121.43" />
    </g>
    <g>
     <polyline class="fil0 str0" points="344.4,121.43 355.78,141.12 344.4,160.82 "/>
    </g>
    <g>
     <polyline class="fil0 str0" points="389.89,160.82 378.52,141.12 389.89,121.43 412.63,121.43 "/>
    </g>
    <g>
     <polyline class="fil0 str0" points="412.63,160.82 424.01,141.12 446.75,141.12 458.12,121.43 480.87,121.43 492.24,141.12 480.87,160.82 "/>
    </g>
    <g>
     <polyline class="fil0 str0" points="492.24,141.12 514.98,141.12 526.35,160.82 514.98,180.52 "/>
    </g>
    <g>
     <polyline class="fil0 str0" points="14.62,219.91 3.25,200.21 14.62,180.52 37.36,180.52 48.74,200.21 "/>
    </g>
    <g>
     <line class="fil0 str0" x1="71.48" y1="200.21" x2="82.85" y2= "180.52" />
    </g>
    <g>
     <polyline class="fil0 str0" points="105.59,180.52 116.97,160.82 139.71,160.82 151.08,180.52 139.71,200.21 "/>
    </g>
    <g>
     <polyline class="fil0 str0" points="185.2,200.21 173.83,180.52 185.2,160.82 207.94,160.82 "/>
    </g>
    <g>
     <polyline class="fil0 str0" points="219.31,180.52 242.06,180.52 253.43,200.21 "/>
    </g>
    <g>
     <polyline class="fil0 str0" points="253.43,160.82 276.17,160.82 287.54,180.52 276.17,200.21 "/>
    </g>
    <g>
     <line class="fil0 str0" x1="287.54" y1="180.52" x2="310.29" y2= "180.52" />
    </g>
    <g>
     <line class="fil0 str0" x1="344.4" y1="160.82" x2="355.78" y2= "180.52" />
    </g>
    <g>
     <polyline class="fil0 str0" points="389.89,200.21 378.52,180.52 389.89,160.82 "/>
    </g>
    <g>
     <polyline class="fil0 str0" points="412.63,160.82 424.01,180.52 412.63,200.21 "/>
    </g>
    <g>
     <polyline class="fil0 str0" points="458.12,200.21 446.75,180.52 458.12,160.82 "/>
    </g>
    <g>
     <line class="fil0 str0" x1="480.87" y1="200.21" x2="492.24" y2= "180.52" />
    </g>
    <g>
     <polyline class="fil0 str0" points="514.98,180.52 526.35,200.21 514.98,219.91 "/>
    </g>
    <g>
     <polyline class="fil0 str0" points="14.62,259.3 3.25,239.61 14.62,219.91 "/>
    </g>
    <g>
     <line class="fil0 str0" x1="37.36" y1="219.91" x2="48.74" y2= "239.61" />
    </g>
    <g>
     <polyline class="fil0 str0" points="48.74,200.21 71.48,200.21 82.85,219.91 105.59,219.91 116.97,239.61 "/>
    </g>
    <g>
     <polyline class="fil0 str0" points="105.59,219.91 116.97,200.21 139.71,200.21 "/>
    </g>
    <g>
     <polyline class="fil0 str0" points="151.08,219.91 173.83,219.91 185.2,239.61 "/>
    </g>
    <g>
     <line class="fil0 str0" x1="173.83" y1="219.91" x2="185.2" y2= "200.21" />
    </g>
    <g>
     <polyline class="fil0 str0" points="207.94,200.21 219.31,219.91 242.06,219.91 253.43,239.61 "/>
    </g>
    <g>
     <line class="fil0 str0" x1="253.43" y1="200.21" x2="276.17" y2= "200.21" />
    </g>
    <g>
     <line class="fil0 str0" x1="276.17" y1="239.61" x2="287.54" y2= "219.91" />
    </g>
    <g>
     <polyline class="fil0 str0" points="310.29,219.91 321.66,200.21 344.4,200.21 355.78,219.91 378.52,219.91 389.89,239.61 "/>
    </g>
    <g>
     <line class="fil0 str0" x1="378.52" y1="219.91" x2="389.89" y2= "200.21" />
    </g>
    <g>
     <polyline class="fil0 str0" points="412.63,200.21 424.01,219.91 446.75,219.91 "/>
    </g>
    <g>
     <polyline class="fil0 str0" points="458.12,200.21 480.87,200.21 492.24,219.91 480.87,239.61 "/>
    </g>
    <g>
     <polyline class="fil0 str0" points="492.24,219.91 514.98,219.91 526.35,239.61 514.98,259.3 "/>
    </g>
    <g>
     <polyline class="fil0 str0" points="14.62,298.7 3.25,279 14.62,259.3 "/>
    </g>
    <g>
     <polyline class="fil0 str0" points="48.74,279 37.36,259.3 48.74,239.61 71.48,239.61 82.85,259.3 71.48,279 "/>
    </g>
    <g>
     <polyline class="fil0 str0" points="82.85,259.3 105.59,259.3 116.97,279 "/>
    </g>
    <g>
     <polyline class="fil0 str0" points="116.97,239.61 139.71,239.61 151.08,259.3 173.83,259.3 185.2,279 "/>
    </g>
    <g>
     <polyline class="fil0 str0" points="185.2,239.61 207.94,239.61 219.31,259.3 207.94,279 "/>
    </g>
    <g>
     <polyline class="fil0 str0" points="219.31,259.3 242.06,259.3 253.43,239.61 276.17,239.61 287.54,259.3 310.29,259.3 321.66,279 "/>
    </g>
    <g>
     <line class="fil0 str0" x1="310.29" y1="259.3" x2="321.66" y2= "239.61" />
    </g>
    <g>
     <polyline class="fil0 str0" points="344.4,239.61 355.78,259.3 344.4,279 "/>
    </g>
    <g>
     <line class="fil0 str0" x1="378.52" y1="259.3" x2="389.89" y2= "279" />
    </g>
    <g>
     <polyline class="fil0 str0" points="389.89,239.61 412.63,239.61 424.01,259.3 412.63,279 "/>
    </g>
    <g>
     <polyline class="fil0 str0" points="424.01,259.3 446.75,259.3 458.12,239.61 480.87,239.61 "/>
    </g>
    <g>
     <line class="fil0 str0" x1="480.87" y1="279" x2="492.24" y2= "259.3" />
    </g>
    <g>
     <polyline class="fil0 str0" points="514.98,259.3 526.35,279 514.98,298.7 "/>
    </g>
    <g>
     <polyline class="fil0 str0" points="14.62,338.09 3.25,318.39 14.62,298.7 "/>
    </g>
    <g>
     <polyline class="fil0 str0" points="48.74,318.39 37.36,298.7 48.74,279 "/>
    </g>
    <g>
     <polyline class="fil0 str0" points="71.48,318.39 82.85,298.7 105.59,298.7 "/>
    </g>
    <g>
     <polyline class="fil0 str0" points="116.97,279 139.71,279 151.08,298.7 173.83,298.7 "/>
    </g>
    <g>
     <polyline class="fil0 str0" points="207.94,279 219.31,298.7 207.94,318.39 "/>
    </g>
    <g>
     <polyline class="fil0 str0" points="321.66,318.39 310.29,298.7 321.66,279 "/>
    </g>
    <g>
     <polyline class="fil0 str0" points="344.4,279 355.78,298.7 344.4,318.39 "/>
    </g>
    <g>
     <polyline class="fil0 str0" points="389.89,318.39 378.52,298.7 389.89,279 "/>
    </g>
    <g>
     <polyline class="fil0 str0" points="412.63,279 424.01,298.7 412.63,318.39 "/>
    </g>
    <g>
     <line class="fil0 str0" x1="424.01" y1="298.7" x2="446.75" y2= "298.7" />
    </g>
    <g>
     <polyline class="fil0 str0" points="458.12,279 480.87,279 492.24,298.7 480.87,318.39 "/>
    </g>
    <g>
     <polyline class="fil0 str0" points="514.98,298.7 526.35,318.39 514.98,338.09 "/>
    </g>
    <g>
     <polyline class="fil0 str0" points="14.62,377.48 3.25,357.79 14.62,338.09 37.36,338.09 48.74,357.79 "/>
    </g>
    <g>
     <polyline class="fil0 str0" points="48.74,318.39 71.48,318.39 82.85,338.09 71.48,357.79 "/>
    </g>
    <g>
     <polyline class="fil0 str0" points="82.85,338.09 105.59,338.09 116.97,357.79 "/>
    </g>
    <g>
     <polyline class="fil0 str0" points="116.97,318.39 139.71,318.39 151.08,338.09 173.83,338.09 185.2,318.39 207.94,318.39 219.31,338.09 207.94,357.79 "/>
    </g>
    <g>
     <polyline class="fil0 str0" points="219.31,338.09 242.06,338.09 253.43,357.79 "/>
    </g>
    <g>
     <polyline class="fil0 str0" points="276.17,357.79 287.54,338.09 310.29,338.09 321.66,357.79 "/>
    </g>
    <g>
     <line class="fil0 str0" x1="310.29" y1="338.09" x2="321.66" y2= "318.39" />
    </g>
    <g>
     <polyline class="fil0 str0" points="344.4,318.39 355.78,338.09 378.52,338.09 389.89,357.79 "/>
    </g>
    <g>
     <line class="fil0 str0" x1="378.52" y1="338.09" x2="389.89" y2= "318.39" />
    </g>
    <g>
     <polyline class="fil0 str0" points="412.63,357.79 424.01,338.09 446.75,338.09 458.12,357.79 "/>
    </g>
    <g>
     <polyline class="fil0 str0" points="446.75,338.09 458.12,318.39 480.87,318.39 "/>
    </g>
    <g>
     <line class="fil0 str0" x1="480.87" y1="357.79" x2="492.24" y2= "338.09" />
    </g>
    <g>
     <polyline class="fil0 str0" points="514.98,338.09 526.35,357.79 514.98,377.48 "/>
    </g>
    <g>
     <polyline class="fil0 str0" points="14.62,416.88 3.25,397.18 14.62,377.48 "/>
    </g>
    <g>
     <line class="fil0 str0" x1="37.36" y1="377.48" x2="48.74" y2= "397.18" />
    </g>
    <g>
     <polyline class="fil0 str0" points="71.48,357.79 82.85,377.48 71.48,397.18 "/>
    </g>
    <g>
     <line class="fil0 str0" x1="105.59" y1="377.48" x2="116.97" y2= "397.18" />
    </g>
    <g>
     <polyline class="fil0 str0" points="116.97,357.79 139.71,357.79 151.08,377.48 "/>
    </g>
    <g>
     <polyline class="fil0 str0" points="185.2,397.18 173.83,377.48 185.2,357.79 "/>
    </g>
    <g>
     <polyline class="fil0 str0" points="207.94,397.18 219.31,377.48 242.06,377.48 253.43,397.18 "/>
    </g>
    <g>
     <line class="fil0 str0" x1="242.06" y1="377.48" x2="253.43" y2= "357.79" />
    </g>
    <g>
     <polyline class="fil0 str0" points="276.17,357.79 287.54,377.48 276.17,397.18 "/>
    </g>
    <g>
     <line class="fil0 str0" x1="287.54" y1="377.48" x2="310.29" y2= "377.48" />
    </g>
    <g>
     <polyline class="fil0 str0" points="321.66,357.79 344.4,357.79 355.78,377.48 344.4,397.18 "/>
    </g>
    <g>
     <polyline class="fil0 str0" points="355.78,377.48 378.52,377.48 389.89,397.18 "/>
    </g>
    <g>
     <line class="fil0 str0" x1="389.89" y1="357.79" x2="412.63" y2= "357.79" />
    </g>
    <g>
     <line class="fil0 str0" x1="412.63" y1="397.18" x2="424.01" y2= "377.48" />
    </g>
    <g>
     <polyline class="fil0 str0" points="458.12,397.18 446.75,377.48 458.12,357.79 "/>
    </g>
    <g>
     <polyline class="fil0 str0" points="480.87,357.79 492.24,377.48 514.98,377.48 526.35,397.18 514.98,416.88 "/>
    </g>
    <g>
     <polyline class="fil0 str0" points="14.62,456.27 3.25,436.57 14.62,416.88 37.36,416.88 48.74,397.18 "/>
    </g>
    <g>
     <polyline class="fil0 str0" points="71.48,397.18 82.85,416.88 71.48,436.57 "/>
    </g>
    <g>
     <polyline class="fil0 str0" points="82.85,416.88 105.59,416.88 116.97,436.57 "/>
    </g>
    <g>
     <polyline class="fil0 str0" points="116.97,397.18 139.71,397.18 151.08,416.88 173.83,416.88 185.2,436.57 "/>
    </g>
    <g>
     <polyline class="fil0 str0" points="173.83,416.88 185.2,397.18 207.94,397.18 "/>
    </g>
    <g>
     <polyline class="fil0 str0" points="219.31,416.88 242.06,416.88 253.43,436.57 "/>
    </g>
    <g>
     <polyline class="fil0 str0" points="276.17,397.18 287.54,416.88 276.17,436.57 "/>
    </g>
    <g>
     <polyline class="fil0 str0" points="321.66,436.57 310.29,416.88 321.66,397.18 344.4,397.18 "/>
    </g>
    <g>
     <polyline class="fil0 str0" points="355.78,416.88 378.52,416.88 389.89,436.57 "/>
    </g>
    <g>
     <polyline class="fil0 str0" points="389.89,397.18 412.63,397.18 424.01,416.88 412.63,436.57 "/>
    </g>
    <g>
     <line class="fil0 str0" x1="424.01" y1="416.88" x2="446.75" y2= "416.88" />
    </g>
    <g>
     <polyline class="fil0 str0" points="458.12,397.18 480.87,397.18 492.24,416.88 480.87,436.57 "/>
    </g>
    <g>
     <polyline class="fil0 str0" points="514.98,416.88 526.35,436.57 514.98,456.27 "/>
    </g>
    <g>
     <polyline class="fil0 str0" points="14.62,456.27 37.36,456.27 48.74,475.97 "/>
    </g>
    <g>
     <polyline class="fil0 str0" points="48.74,436.57 71.48,436.57 82.85,456.27 "/>
    </g>
    <g>
     <line class="fil0 str0" x1="105.59" y1="456.27" x2="116.97" y2= "475.97" />
    </g>
    <g>
     <polyline class="fil0 str0" points="116.97,436.57 139.71,436.57 151.08,456.27 139.71,475.97 "/>
    </g>
    <g>
     <polyline class="fil0 str0" points="185.2,475.97 173.83,456.27 185.2,436.57 207.94,436.57 "/>
    </g>
    <g>
     <polyline class="fil0 str0" points="219.31,456.27 242.06,456.27 253.43,475.97 "/>
    </g>
    <g>
     <polyline class="fil0 str0" points="242.06,456.27 253.43,436.57 276.17,436.57 "/>
    </g>
    <g>
     <polyline class="fil0 str0" points="276.17,475.97 287.54,456.27 310.29,456.27 321.66,436.57 344.4,436.57 355.78,456.27 378.52,456.27 "/>
    </g>
    <g>
     <polyline class="fil0 str0" points="389.89,436.57 412.63,436.57 424.01,456.27 412.63,475.97 "/>
    </g>
    <g>
     <polyline class="fil0 str0" points="458.12,475.97 446.75,456.27 458.12,436.57 480.87,436.57 "/>
    </g>
    <g>
     <polyline class="fil0 str0" points="480.87,475.97 492.24,456.27 514.98,456.27 "/>
    </g>
    <g>
     <polyline class="fil0 str0" points="48.74,475.97 71.48,475.97 82.85,495.66 105.59,495.66 116.97,515.36 "/>
    </g>
    <g>
     <line class="fil0 str0" x1="105.59" y1="495.66" x2="116.97" y2= "475.97" />
    </g>
    <g>
     <polyline class="fil0 str0" points="139.71,475.97 151.08,495.66 173.83,495.66 185.2,515.36 "/>
    </g>
    <g>
     <polyline class="fil0 str0" points="173.83,495.66 185.2,475.97 207.94,475.97 "/>
    </g>
    <g>
     <polyline class="fil0 str0" points="219.31,495.66 242.06,495.66 253.43,515.36 "/>
    </g>
    <g>
     <line class="fil0 str0" x1="242.06" y1="495.66" x2="253.43" y2= "475.97" />
    </g>
    <g>
     <polyline class="fil0 str0" points="287.54,495.66 310.29,495.66 321.66,515.36 "/>
    </g>
    <g>
     <polyline class="fil0 str0" points="321.66,475.97 344.4,475.97 355.78,495.66 378.52,495.66 389.89,475.97 412.63,475.97 "/>
    </g>
    <g>
     <polyline class="fil0 str0" points="412.63,515.36 424.01,495.66 446.75,495.66 458.12,475.97 480.87,475.97 "/>
    </g>
    <g>
     <polyline class="fil0 str0" points="116.97,515.36 139.71,515.36 151.08,535.06 173.83,535.06 185.2,554.75 "/>
    </g>
    <g>
     <line class="fil0 str0" x1="185.2" y1="515.36" x2="207.94" y2= "515.36" />
    </g>
    <g>
     <polyline class="fil0 str0" points="207.94,554.75 219.31,535.06 242.06,535.06 253.43,554.75 "/>
    </g>
    <g>
     <polyline class="fil0 str0" points="242.06,535.06 253.43,515.36 276.17,515.36 "/>
    </g>
    <g>
     <polyline class="fil0 str0" points="287.54,535.06 310.29,535.06 321.66,554.75 "/>
    </g>
    <g>
     <polyline class="fil0 str0" points="321.66,515.36 344.4,515.36 355.78,535.06 344.4,554.75 "/>
    </g>
    <g>
     <polyline class="fil0 str0" points="355.78,535.06 378.52,535.06 389.89,515.36 412.63,515.36 "/>
    </g>
    <g>
     <polyline class="fil0 str0" points="185.2,554.75 207.94,554.75 219.31,574.45 242.06,574.45 253.43,594.15 "/>
    </g>
    <g>
     <line class="fil0 str0" x1="253.43" y1="554.75" x2="276.17" y2= "554.75" />
    </g>
    <g>
     <polyline class="fil0 str0" points="276.17,594.15 287.54,574.45 310.29,574.45 321.66,554.75 344.4,554.75 "/>
    </g>
    <g>
     <line class="fil0 str0" x1="276.17" y1="594.15" x2="253.43" y2= "594.15" />
    </g>
   </g>
  </g>
  <g id="hex4.svg_0">
   <g>
    <g>
     <polyline class="fil0 str1" points="207.94,42.64 219.31,22.95 242.06,22.95 253.43,42.64 "/>
    </g>
    <g>
     <line class="fil0 str1" x1="242.06" y1="22.95" x2="253.43" y2= "3.25" />
    </g>
    <g>
     <polyline class="fil0 str1" points="276.17,3.25 287.54,22.95 310.29,22.95 321.66,42.64 "/>
    </g>
    <g>
     <polyline class="fil0 str1" points="139.71,82.03 151.08,62.34 173.83,62.34 185.2,42.64 207.94,42.64 219.31,62.34 207.94,82.03 "/>
    </g>
    <g>
     <line class="fil0 str1" x1="242.06" y1="62.34" x2="253.43" y2= "82.03" />
    </g>
    <g>
     <polyline class="fil0 str1" points="276.17,42.64 287.54,62.34 276.17,82.03 "/>
    </g>
    <g>
     <polyline class="fil0 str1" points="287.54,62.34 310.29,62.34 321.66,82.03 "/>
    </g>
    <g>
     <polyline class="fil0 str1" points="321.66,42.64 344.4,42.64 355.78,62.34 344.4,82.03 "/>
    </g>
    <g>
     <polyline class="fil0 str1" points="355.78,62.34 378.52,62.34 389.89,82.03 "/>
    </g>
    <g>
     <polyline class="fil0 str1" points="71.48,121.43 82.85,101.73 105.59,101.73 116.97,82.03 139.71,82.03 "/>
    </g>
    <g>
     <polyline class="fil0 str1" points="139.71,121.43 151.08,101.73 173.83,101.73 185.2,82.03 "/>
    </g>
    <g>
     <polyline class="fil0 str1" points="207.94,82.03 219.31,101.73 207.94,121.43 "/>
    </g>
    <g>
     <polyline class="fil0 str1" points="219.31,101.73 242.06,101.73 253.43,121.43 "/>
    </g>
    <g>
     <polyline class="fil0 str1" points="253.43,82.03 276.17,82.03 287.54,101.73 "/>
    </g>
    <g>
     <polyline class="fil0 str1" points="321.66,121.43 310.29,101.73 321.66,82.03 "/>
    </g>
    <g>
     <polyline class="fil0 str1" points="344.4,82.03 355.78,101.73 344.4,121.43 "/>
    </g>
    <g>
     <line class="fil0 str1" x1="355.78" y1="101.73" x2="378.52" y2= "101.73" />
    </g>
    <g>
     <polyline class="fil0 str1" points="389.89,82.03 412.63,82.03 424.01,101.73 446.75,101.73 458.12,121.43 "/>
    </g>
    <g>
     <polyline class="fil0 str1" points="14.62,180.52 3.25,160.82 14.62,141.12 37.36,141.12 48.74,160.82 "/>
    </g>
    <g>
     <polyline class="fil0 str1" points="37.36,141.12 48.74,121.43 71.48,121.43 "/>
    </g>
    <g>
     <polyline class="fil0 str1" points="71.48,160.82 82.85,141.12 105.59,141.12 116.97,121.43 139.71,121.43 151.08,141.12 173.83,141.12 185.2,160.82 "/>
    </g>
    <g>
     <line class="fil0 str1" x1="173.83" y1="141.12" x2="185.2" y2= "121.43" />
    </g>
    <g>
     <polyline class="fil0 str1" points="207.94,160.82 219.31,141.12 242.06,141.12 253.43,160.82 "/>
    </g>
    <g>
     <polyline class="fil0 str1" points="253.43,121.43 276.17,121.43 287.54,141.12 310.29,141.12 321.66,160.82 "/>
    </g>
    <g>
     <line class="fil0 str1" x1="310.29" y1="141.12" x2="321.66" y2= "121.43" />
    </g>
    <g>
     <polyline class="fil0 str1" points="344.4,121.43 355.78,141.12 344.4,160.82 "/>
    </g>
    <g>
     <polyline class="fil0 str1" points="389.89,160.82 378.52,141.12 389.89,121.43 412.63,121.43 "/>
    </g>
    <g>
     <polyline class="fil0 str1" points="412.63,160.82 424.01,141.12 446.75,141.12 458.12,121.43 480.87,121.43 492.24,141.12 480.87,160.82 "/>
    </g>
    <g>
     <polyline class="fil0 str1" points="492.24,141.12 514.98,141.12 526.35,160.82 514.98,180.52 "/>
    </g>
    <g>
     <polyline class="fil0 str1" points="14.62,219.91 3.25,200.21 14.62,180.52 37.36,180.52 48.74,200.21 "/>
    </g>
    <g>
     <line class="fil0 str1" x1="71.48" y1="200.21" x2="82.85" y2= "180.52" />
    </g>
    <g>
     <polyline class="fil0 str1" points="105.59,180.52 116.97,160.82 139.71,160.82 151.08,180.52 139.71,200.21 "/>
    </g>
    <g>
     <polyline class="fil0 str1" points="185.2,200.21 173.83,180.52 185.2,160.82 207.94,160.82 "/>
    </g>
    <g>
     <polyline class="fil0 str1" points="219.31,180.52 242.06,180.52 253.43,200.21 "/>
    </g>
    <g>
     <polyline class="fil0 str1" points="253.43,160.82 276.17,160.82 287.54,180.52 276.17,200.21 "/>
    </g>
    <g>
     <line class="fil0 str1" x1="287.54" y1="180.52" x2="310.29" y2= "180.52" />
    </g>
    <g>
     <line class="fil0 str1" x1="344.4" y1="160.82" x2="355.78" y2= "180.52" />
    </g>
    <g>
     <polyline class="fil0 str1" points="389.89,200.21 378.52,180.52 389.89,160.82 "/>
    </g>
    <g>
     <polyline class="fil0 str1" points="412.63,160.82 424.01,180.52 412.63,200.21 "/>
    </g>
    <g>
     <polyline class="fil0 str1" points="458.12,200.21 446.75,180.52 458.12,160.82 "/>
    </g>
    <g>
     <line class="fil0 str1" x1="480.87" y1="200.21" x2="492.24" y2= "180.52" />
    </g>
    <g>
     <polyline class="fil0 str1" points="514.98,180.52 526.35,200.21 514.98,219.91 "/>
    </g>
    <g>
     <polyline class="fil0 str1" points="14.62,259.3 3.25,239.61 14.62,219.91 "/>
    </g>
    <g>
     <line class="fil0 str1" x1="37.36" y1="219.91" x2="48.74" y2= "239.61" />
    </g>
    <g>
     <polyline class="fil0 str1" points="48.74,200.21 71.48,200.21 82.85,219.91 105.59,219.91 116.97,239.61 "/>
    </g>
    <g>
     <polyline class="fil0 str1" points="105.59,219.91 116.97,200.21 139.71,200.21 "/>
    </g>
    <g>
     <polyline class="fil0 str1" points="151.08,219.91 173.83,219.91 185.2,239.61 "/>
    </g>
    <g>
     <line class="fil0 str1" x1="173.83" y1="219.91" x2="185.2" y2= "200.21" />
    </g>
    <g>
     <polyline class="fil0 str1" points="207.94,200.21 219.31,219.91 242.06,219.91 253.43,239.61 "/>
    </g>
    <g>
     <line class="fil0 str1" x1="253.43" y1="200.21" x2="276.17" y2= "200.21" />
    </g>
    <g>
     <line class="fil0 str1" x1="276.17" y1="239.61" x2="287.54" y2= "219.91" />
    </g>
    <g>
     <polyline class="fil0 str1" points="310.29,219.91 321.66,200.21 344.4,200.21 355.78,219.91 378.52,219.91 389.89,239.61 "/>
    </g>
    <g>
     <line class="fil0 str1" x1="378.52" y1="219.91" x2="389.89" y2= "200.21" />
    </g>
    <g>
     <polyline class="fil0 str1" points="412.63,200.21 424.01,219.91 446.75,219.91 "/>
    </g>
    <g>
     <polyline class="fil0 str1" points="458.12,200.21 480.87,200.21 492.24,219.91 480.87,239.61 "/>
    </g>
    <g>
     <polyline class="fil0 str1" points="492.24,219.91 514.98,219.91 526.35,239.61 514.98,259.3 "/>
    </g>
    <g>
     <polyline class="fil0 str1" points="14.62,298.7 3.25,279 14.62,259.3 "/>
    </g>
    <g>
     <polyline class="fil0 str1" points="48.74,279 37.36,259.3 48.74,239.61 71.48,239.61 82.85,259.3 71.48,279 "/>
    </g>
    <g>
     <polyline class="fil0 str1" points="82.85,259.3 105.59,259.3 116.97,279 "/>
    </g>
    <g>
     <polyline class="fil0 str1" points="116.97,239.61 139.71,239.61 151.08,259.3 173.83,259.3 185.2,279 "/>
    </g>
    <g>
     <polyline class="fil0 str1" points="185.2,239.61 207.94,239.61 219.31,259.3 207.94,279 "/>
    </g>
    <g>
     <polyline class="fil0 str1" points="219.31,259.3 242.06,259.3 253.43,239.61 276.17,239.61 287.54,259.3 310.29,259.3 321.66,279 "/>
    </g>
    <g>
     <line class="fil0 str1" x1="310.29" y1="259.3" x2="321.66" y2= "239.61" />
    </g>
    <g>
     <polyline class="fil0 str1" points="344.4,239.61 355.78,259.3 344.4,279 "/>
    </g>
    <g>
     <line class="fil0 str1" x1="378.52" y1="259.3" x2="389.89" y2= "279" />
    </g>
    <g>
     <polyline class="fil0 str1" points="389.89,239.61 412.63,239.61 424.01,259.3 412.63,279 "/>
    </g>
    <g>
     <polyline class="fil0 str1" points="424.01,259.3 446.75,259.3 458.12,239.61 480.87,239.61 "/>
    </g>
    <g>
     <line class="fil0 str1" x1="480.87" y1="279" x2="492.24" y2= "259.3" />
    </g>
    <g>
     <polyline class="fil0 str1" points="514.98,259.3 526.35,279 514.98,298.7 "/>
    </g>
    <g>
     <polyline class="fil0 str1" points="14.62,338.09 3.25,318.39 14.62,298.7 "/>
    </g>
    <g>
     <polyline class="fil0 str1" points="48.74,318.39 37.36,298.7 48.74,279 "/>
    </g>
    <g>
     <polyline class="fil0 str1" points="71.48,318.39 82.85,298.7 105.59,298.7 "/>
    </g>
    <g>
     <polyline class="fil0 str1" points="116.97,279 139.71,279 151.08,298.7 173.83,298.7 "/>
    </g>
    <g>
     <polyline class="fil0 str1" points="207.94,279 219.31,298.7 207.94,318.39 "/>
    </g>
    <g>
     <polyline class="fil0 str1" points="321.66,318.39 310.29,298.7 321.66,279 "/>
    </g>
    <g>
     <polyline class="fil0 str1" points="344.4,279 355.78,298.7 344.4,318.39 "/>
    </g>
    <g>
     <polyline class="fil0 str1" points="389.89,318.39 378.52,298.7 389.89,279 "/>
    </g>
    <g>
     <polyline class="fil0 str1" points="412.63,279 424.01,298.7 412.63,318.39 "/>
    </g>
    <g>
     <line class="fil0 str1" x1="424.01" y1="298.7" x2="446.75" y2= "298.7" />
    </g>
    <g>
     <polyline class="fil0 str1" points="458.12,279 480.87,279 492.24,298.7 480.87,318.39 "/>
    </g>
    <g>
     <polyline class="fil0 str1" points="514.98,298.7 526.35,318.39 514.98,338.09 "/>
    </g>
    <g>
     <polyline class="fil0 str1" points="14.62,377.48 3.25,357.79 14.62,338.09 37.36,338.09 48.74,357.79 "/>
    </g>
    <g>
     <polyline class="fil0 str1" points="48.74,318.39 71.48,318.39 82.85,338.09 71.48,357.79 "/>
    </g>
    <g>
     <polyline class="fil0 str1" points="82.85,338.09 105.59,338.09 116.97,357.79 "/>
    </g>
    <g>
     <polyline class="fil0 str1" points="116.97,318.39 139.71,318.39 151.08,338.09 173.83,338.09 185.2,318.39 207.94,318.39 219.31,338.09 207.94,357.79 "/>
    </g>
    <g>
     <polyline class="fil0 str1" points="219.31,338.09 242.06,338.09 253.43,357.79 "/>
    </g>
    <g>
     <polyline class="fil0 str1" points="276.17,357.79 287.54,338.09 310.29,338.09 321.66,357.79 "/>
    </g>
    <g>
     <line class="fil0 str1" x1="310.29" y1="338.09" x2="321.66" y2= "318.39" />
    </g>
    <g>
     <polyline class="fil0 str1" points="344.4,318.39 355.78,338.09 378.52,338.09 389.89,357.79 "/>
    </g>
    <g>
     <line class="fil0 str1" x1="378.52" y1="338.09" x2="389.89" y2= "318.39" />
    </g>
    <g>
     <polyline class="fil0 str1" points="412.63,357.79 424.01,338.09 446.75,338.09 458.12,357.79 "/>
    </g>
    <g>
     <polyline class="fil0 str1" points="446.75,338.09 458.12,318.39 480.87,318.39 "/>
    </g>
    <g>
     <line class="fil0 str1" x1="480.87" y1="357.79" x2="492.24" y2= "338.09" />
    </g>
    <g>
     <polyline class="fil0 str1" points="514.98,338.09 526.35,357.79 514.98,377.48 "/>
    </g>
    <g>
     <polyline class="fil0 str1" points="14.62,416.88 3.25,397.18 14.62,377.48 "/>
    </g>
    <g>
     <line class="fil0 str1" x1="37.36" y1="377.48" x2="48.74" y2= "397.18" />
    </g>
    <g>
     <polyline class="fil0 str1" points="71.48,357.79 82.85,377.48 71.48,397.18 "/>
    </g>
    <g>
     <line class="fil0 str1" x1="105.59" y1="377.48" x2="116.97" y2= "397.18" />
    </g>
    <g>
     <polyline class="fil0 str1" points="116.97,357.79 139.71,357.79 151.08,377.48 "/>
    </g>
    <g>
     <polyline class="fil0 str1" points="185.2,397.18 173.83,377.48 185.2,357.79 "/>
    </g>
    <g>
     <polyline class="fil0 str1" points="207.94,397.18 219.31,377.48 242.06,377.48 253.43,397.18 "/>
    </g>
    <g>
     <line class="fil0 str1" x1="242.06" y1="377.48" x2="253.43" y2= "357.79" />
    </g>
    <g>
     <polyline class="fil0 str1" points="276.17,357.79 287.54,377.48 276.17,397.18 "/>
    </g>
    <g>
     <line class="fil0 str1" x1="287.54" y1="377.48" x2="310.29" y2= "377.48" />
    </g>
    <g>
     <polyline class="fil0 str1" points="321.66,357.79 344.4,357.79 355.78,377.48 344.4,397.18 "/>
    </g>
    <g>
     <polyline class="fil0 str1" points="355.78,377.48 378.52,377.48 389.89,397.18 "/>
    </g>
    <g>
     <line class="fil0 str1" x1="389.89" y1="357.79" x2="412.63" y2= "357.79" />
    </g>
    <g>
     <line class="fil0 str1" x1="412.63" y1="397.18" x2="424.01" y2= "377.48" />
    </g>
    <g>
     <polyline class="fil0 str1" points="458.12,397.18 446.75,377.48 458.12,357.79 "/>
    </g>
    <g>
     <polyline class="fil0 str1" points="480.87,357.79 492.24,377.48 514.98,377.48 526.35,397.18 514.98,416.88 "/>
    </g>
    <g>
     <polyline class="fil0 str1" points="14.62,456.27 3.25,436.57 14.62,416.88 37.36,416.88 48.74,397.18 "/>
    </g>
    <g>
     <polyline class="fil0 str1" points="71.48,397.18 82.85,416.88 71.48,436.57 "/>
    </g>
    <g>
     <polyline class="fil0 str1" points="82.85,416.88 105.59,416.88 116.97,436.57 "/>
    </g>
    <g>
     <polyline class="fil0 str1" points="116.97,397.18 139.71,397.18 151.08,416.88 173.83,416.88 185.2,436.57 "/>
    </g>
    <g>
     <polyline class="fil0 str1" points="173.83,416.88 185.2,397.18 207.94,397.18 "/>
    </g>
    <g>
     <polyline class="fil0 str1" points="219.31,416.88 242.06,416.88 253.43,436.57 "/>
    </g>
    <g>
     <polyline class="fil0 str1" points="276.17,397.18 287.54,416.88 276.17,436.57 "/>
    </g>
    <g>
     <polyline class="fil0 str1" points="321.66,436.57 310.29,416.88 321.66,397.18 344.4,397.18 "/>
    </g>
    <g>
     <polyline class="fil0 str1" points="355.78,416.88 378.52,416.88 389.89,436.57 "/>
    </g>
    <g>
     <polyline class="fil0 str1" points="389.89,397.18 412.63,397.18 424.01,416.88 412.63,436.57 "/>
    </g>
    <g>
     <line class="fil0 str1" x1="424.01" y1="416.88" x2="446.75" y2= "416.88" />
    </g>
    <g>
     <polyline class="fil0 str1" points="458.12,397.18 480.87,397.18 492.24,416.88 480.87,436.57 "/>
    </g>
    <g>
     <polyline class="fil0 str1" points="514.98,416.88 526.35,436.57 514.98,456.27 "/>
    </g>
    <g>
     <polyline class="fil0 str1" points="14.62,456.27 37.36,456.27 48.74,475.97 "/>
    </g>
    <g>
     <polyline class="fil0 str1" points="48.74,436.57 71.48,436.57 82.85,456.27 "/>
    </g>
    <g>
     <line class="fil0 str1" x1="105.59" y1="456.27" x2="116.97" y2= "475.97" />
    </g>
    <g>
     <polyline class="fil0 str1" points="116.97,436.57 139.71,436.57 151.08,456.27 139.71,475.97 "/>
    </g>
    <g>
     <polyline class="fil0 str1" points="185.2,475.97 173.83,456.27 185.2,436.57 207.94,436.57 "/>
    </g>
    <g>
     <polyline class="fil0 str1" points="219.31,456.27 242.06,456.27 253.43,475.97 "/>
    </g>
    <g>
     <polyline class="fil0 str1" points="242.06,456.27 253.43,436.57 276.17,436.57 "/>
    </g>
    <g>
     <polyline class="fil0 str1" points="276.17,475.97 287.54,456.27 310.29,456.27 321.66,436.57 344.4,436.57 355.78,456.27 378.52,456.27 "/>
    </g>
    <g>
     <polyline class="fil0 str1" points="389.89,436.57 412.63,436.57 424.01,456.27 412.63,475.97 "/>
    </g>
    <g>
     <polyline class="fil0 str1" points="458.12,475.97 446.75,456.27 458.12,436.57 480.87,436.57 "/>
    </g>
    <g>
     <polyline class="fil0 str1" points="480.87,475.97 492.24,456.27 514.98,456.27 "/>
    </g>
    <g>
     <polyline class="fil0 str1" points="48.74,475.97 71.48,475.97 82.85,495.66 105.59,495.66 116.97,515.36 "/>
    </g>
    <g>
     <line class="fil0 str1" x1="105.59" y1="495.66" x2="116.97" y2= "475.97" />
    </g>
    <g>
     <polyline class="fil0 str1" points="139.71,475.97 151.08,495.66 173.83,495.66 185.2,515.36 "/>
    </g>
    <g>
     <polyline class="fil0 str1" points="173.83,495.66 185.2,475.97 207.94,475.97 "/>
    </g>
    <g>
     <polyline class="fil0 str1" points="219.31,495.66 242.06,495.66 253.43,515.36 "/>
    </g>
    <g>
     <line class="fil0 str1" x1="242.06" y1="495.66" x2="253.43" y2= "475.97" />
    </g>
    <g>
     <polyline class="fil0 str1" points="287.54,495.66 310.29,495.66 321.66,515.36 "/>
    </g>
    <g>
     <polyline class="fil0 str1" points="321.66,475.97 344.4,475.97 355.78,495.66 378.52,495.66 389.89,475.97 412.63,475.97 "/>
    </g>
    <g>
     <polyline class="fil0 str1" points="412.63,515.36 424.01,495.66 446.75,495.66 458.12,475.97 480.87,475.97 "/>
    </g>
    <g>
     <polyline class="fil0 str1" points="116.97,515.36 139.71,515.36 151.08,535.06 173.83,535.06 185.2,554.75 "/>
    </g>
    <g>
     <line class="fil0 str1" x1="185.2" y1="515.36" x2="207.94" y2= "515.36" />
    </g>
    <g>
     <polyline class="fil0 str1" points="207.94,554.75 219.31,535.06 242.06,535.06 253.43,554.75 "/>
    </g>
    <g>
     <polyline class="fil0 str1" points="242.06,535.06 253.43,515.36 276.17,515.36 "/>
    </g>
    <g>
     <polyline class="fil0 str1" points="287.54,535.06 310.29,535.06 321.66,554.75 "/>
    </g>
    <g>
     <polyline class="fil0 str1" points="321.66,515.36 344.4,515.36 355.78,535.06 344.4,554.75 "/>
    </g>
    <g>
     <polyline class="fil0 str1" points="355.78,535.06 378.52,535.06 389.89,515.36 412.63,515.36 "/>
    </g>
    <g>
     <polyline class="fil0 str1" points="185.2,554.75 207.94,554.75 219.31,574.45 242.06,574.45 253.43,594.15 "/>
    </g>
    <g>
     <line class="fil0 str1" x1="253.43" y1="554.75" x2="276.17" y2= "554.75" />
    </g>
    <g>
     <polyline class="fil0 str1" points="276.17,594.15 287.54,574.45 310.29,574.45 321.66,554.75 344.4,554.75 "/>
    </g>
    <g>
     <line class="fil0 str1" x1="276.17" y1="594.15" x2="253.43" y2= "594.15" />
    </g>
   </g>
  </g>
  <polyline class="fil0 str2" points="265.58,3.25 265.58,22.95 333.81,62.34 333.81,180.52 231.46,121.43 197.35,141.12 197.35,62.34 60.88,141.12 60.88,180.52 129.11,141.12 163.23,160.82 163.23,200.21 129.11,219.91 197.35,259.3 197.35,298.7 26.77,200.21 26.77,318.39 60.88,338.09 60.88,416.88 26.77,436.57 95,475.97 95,436.57 129.11,456.27 129.11,495.66 197.35,535.06 231.46,515.36 197.35,495.66 231.46,475.97 197.35,456.27 231.46,436.57 197.35,416.88 231.46,397.18 265.58,416.88 265.58,357.79 "/>
 </g>
</svg>
