<?xml version="1.0" encoding="UTF-8"?>
<!DOCTYPE svg PUBLIC "-//W3C//DTD SVG 1.1//EN" "http://www.w3.org/Graphics/SVG/1.1/DTD/svg11.dtd">
<!-- Creator: CorelDRAW 2018 (64-Bit) -->
<svg xmlns="http://www.w3.org/2000/svg" xml:space="preserve" width="3.39583in" height="3.83053in" version="1.1" style="shape-rendering:geometricPrecision; text-rendering:geometricPrecision; image-rendering:optimizeQuality; fill-rule:evenodd; clip-rule:evenodd"
viewBox="0 0 940.79 1061.22"
 xmlns:xlink="http://www.w3.org/1999/xlink">
 <defs>
  <style type="text/css">
   <![CDATA[
    .str2 {stroke:red;stroke-width:5.77;stroke-linecap:square;stroke-linejoin:round;stroke-miterlimit:2.61313}
    .str0 {stroke:black;stroke-width:11.54;stroke-linecap:round;stroke-linejoin:round;stroke-miterlimit:2.61313}
    .str1 {stroke:yellow;stroke-width:7.7;stroke-linecap:round;stroke-linejoin:round;stroke-miterlimit:2.61313}
    .fil0 {fill:none}
   ]]>
  </style>
 </defs>
 <g id="Layer_x0020_1">
  <metadata id="CorelCorpID_0Corel-Layer"/>
  <g id="hex5.svg">
   <g>
    <g>
     <polyline class="fil0 str0" points="369.39,75.75 389.59,40.76 429.99,40.76 450.19,75.75 "/>
    </g>
    <g>
     <line class="fil0 str0" x1="429.99" y1="40.76" x2="450.19" y2= "5.77" />
    </g>
    <g>
     <polyline class="fil0 str0" points="490.6,5.77 510.8,40.76 551.2,40.76 571.4,75.75 "/>
    </g>
    <g>
     <polyline class="fil0 str0" points="248.18,145.73 268.38,110.74 308.79,110.74 328.99,75.75 369.39,75.75 "/>
    </g>
    <g>
     <line class="fil0 str0" x1="369.39" y1="145.73" x2="389.59" y2= "110.74" />
    </g>
    <g>
     <polyline class="fil0 str0" points="450.19,145.73 429.99,110.74 450.19,75.75 "/>
    </g>
    <g>
     <polyline class="fil0 str0" points="490.6,75.75 510.8,110.74 490.6,145.73 "/>
    </g>
    <g>
     <polyline class="fil0 str0" points="571.4,145.73 551.2,110.74 571.4,75.75 611.8,75.75 632,110.74 672.41,110.74 692.61,145.73 "/>
    </g>
    <g>
     <polyline class="fil0 str0" points="126.98,215.71 147.18,180.72 187.58,180.72 207.78,145.73 248.18,145.73 268.38,180.72 "/>
    </g>
    <g>
     <polyline class="fil0 str0" points="328.99,215.71 308.79,180.72 328.99,145.73 369.39,145.73 "/>
    </g>
    <g>
     <polyline class="fil0 str0" points="389.59,180.72 429.99,180.72 450.19,215.71 "/>
    </g>
    <g>
     <line class="fil0 str0" x1="429.99" y1="180.72" x2="450.19" y2= "145.73" />
    </g>
    <g>
     <polyline class="fil0 str0" points="490.6,145.73 510.8,180.72 551.2,180.72 571.4,215.71 "/>
    </g>
    <g>
     <line class="fil0 str0" x1="551.2" y1="180.72" x2="571.4" y2= "145.73" />
    </g>
    <g>
     <polyline class="fil0 str0" points="611.8,145.73 632,180.72 611.8,215.71 "/>
    </g>
    <g>
     <line class="fil0 str0" x1="632" y1="180.72" x2="672.41" y2= "180.72" />
    </g>
    <g>
     <polyline class="fil0 str0" points="692.61,145.73 733.01,145.73 753.21,180.72 733.01,215.71 "/>
    </g>
    <g>
     <polyline class="fil0 str0" points="753.21,180.72 793.61,180.72 813.81,215.71 "/>
    </g>
    <g>
     <polyline class="fil0 str0" points="25.97,320.67 5.77,285.68 25.97,250.7 66.37,250.7 86.57,215.71 126.98,215.71 147.18,250.7 126.98,285.68 "/>
    </g>
    <g>
     <polyline class="fil0 str0" points="187.58,250.7 207.78,215.71 248.18,215.71 268.38,250.7 248.18,285.68 "/>
    </g>
    <g>
     <polyline class="fil0 str0" points="268.38,250.7 308.79,250.7 328.99,285.68 "/>
    </g>
    <g>
     <polyline class="fil0 str0" points="308.79,250.7 328.99,215.71 369.39,215.71 "/>
    </g>
    <g>
     <polyline class="fil0 str0" points="389.59,250.7 429.99,250.7 450.19,215.71 490.6,215.71 "/>
    </g>
    <g>
     <polyline class="fil0 str0" points="490.6,285.68 510.8,250.7 551.2,250.7 571.4,285.68 "/>
    </g>
    <g>
     <polyline class="fil0 str0" points="611.8,215.71 632,250.7 611.8,285.68 "/>
    </g>
    <g>
     <polyline class="fil0 str0" points="632,250.7 672.41,250.7 692.61,285.68 "/>
    </g>
    <g>
     <line class="fil0 str0" x1="692.61" y1="215.71" x2="733.01" y2= "215.71" />
    </g>
    <g>
     <line class="fil0 str0" x1="733.01" y1="285.68" x2="753.21" y2= "250.7" />
    </g>
    <g>
     <polyline class="fil0 str0" points="813.81,285.68 793.61,250.7 813.81,215.71 854.22,215.71 874.42,250.7 914.82,250.7 935.02,285.68 914.82,320.67 "/>
    </g>
    <g>
     <polyline class="fil0 str0" points="25.97,390.65 5.77,355.66 25.97,320.67 66.37,320.67 86.57,285.68 "/>
    </g>
    <g>
     <polyline class="fil0 str0" points="126.98,285.68 147.18,320.67 126.98,355.66 "/>
    </g>
    <g>
     <polyline class="fil0 str0" points="147.18,320.67 187.58,320.67 207.78,355.66 "/>
    </g>
    <g>
     <line class="fil0 str0" x1="187.58" y1="320.67" x2="207.78" y2= "285.68" />
    </g>
    <g>
     <polyline class="fil0 str0" points="248.18,355.66 268.38,320.67 308.79,320.67 328.99,355.66 "/>
    </g>
    <g>
     <polyline class="fil0 str0" points="328.99,285.68 369.39,285.68 389.59,320.67 369.39,355.66 "/>
    </g>
    <g>
     <polyline class="fil0 str0" points="389.59,320.67 429.99,320.67 450.19,285.68 490.6,285.68 510.8,320.67 490.6,355.66 "/>
    </g>
    <g>
     <line class="fil0 str0" x1="551.2" y1="320.67" x2="571.4" y2= "355.66" />
    </g>
    <g>
     <line class="fil0 str0" x1="571.4" y1="285.68" x2="611.8" y2= "285.68" />
    </g>
    <g>
     <polyline class="fil0 str0" points="611.8,355.66 632,320.67 672.41,320.67 692.61,355.66 "/>
    </g>
    <g>
     <line class="fil0 str0" x1="692.61" y1="285.68" x2="733.01" y2= "285.68" />
    </g>
    <g>
     <polyline class="fil0 str0" points="733.01,355.66 753.21,320.67 793.61,320.67 813.81,285.68 854.22,285.68 "/>
    </g>
    <g>
     <polyline class="fil0 str0" points="874.42,320.67 914.82,320.67 935.02,355.66 914.82,390.65 "/>
    </g>
    <g>
     <polyline class="fil0 str0" points="25.97,460.63 5.77,425.64 25.97,390.65 "/>
    </g>
    <g>
     <polyline class="fil0 str0" points="86.57,425.64 66.37,390.65 86.57,355.66 126.98,355.66 "/>
    </g>
    <g>
     <line class="fil0 str0" x1="126.98" y1="425.64" x2="147.18" y2= "390.65" />
    </g>
    <g>
     <polyline class="fil0 str0" points="207.78,425.64 187.58,390.65 207.78,355.66 248.18,355.66 268.38,390.65 "/>
    </g>
    <g>
     <line class="fil0 str0" x1="308.79" y1="390.65" x2="328.99" y2= "425.64" />
    </g>
    <g>
     <polyline class="fil0 str0" points="369.39,355.66 389.59,390.65 369.39,425.64 "/>
    </g>
    <g>
     <polyline class="fil0 str0" points="450.19,425.64 429.99,390.65 450.19,355.66 "/>
    </g>
    <g>
     <polyline class="fil0 str0" points="490.6,355.66 510.8,390.65 490.6,425.64 "/>
    </g>
    <g>
     <polyline class="fil0 str0" points="551.2,390.65 571.4,355.66 611.8,355.66 632,390.65 672.41,390.65 692.61,425.64 "/>
    </g>
    <g>
     <polyline class="fil0 str0" points="692.61,355.66 733.01,355.66 753.21,390.65 733.01,425.64 "/>
    </g>
    <g>
     <polyline class="fil0 str0" points="753.21,390.65 793.61,390.65 813.81,425.64 "/>
    </g>
    <g>
     <polyline class="fil0 str0" points="813.81,355.66 854.22,355.66 874.42,390.65 854.22,425.64 "/>
    </g>
    <g>
     <polyline class="fil0 str0" points="914.82,390.65 935.02,425.64 914.82,460.63 "/>
    </g>
    <g>
     <polyline class="fil0 str0" points="25.97,530.61 5.77,495.62 25.97,460.63 66.37,460.63 86.57,495.62 "/>
    </g>
    <g>
     <polyline class="fil0 str0" points="126.98,425.64 147.18,460.63 126.98,495.62 "/>
    </g>
    <g>
     <polyline class="fil0 str0" points="147.18,460.63 187.58,460.63 207.78,495.62 "/>
    </g>
    <g>
     <line class="fil0 str0" x1="207.78" y1="425.64" x2="248.18" y2= "425.64" />
    </g>
    <g>
     <polyline class="fil0 str0" points="248.18,495.62 268.38,460.63 308.79,460.63 328.99,425.64 "/>
    </g>
    <g>
     <polyline class="fil0 str0" points="369.39,495.62 389.59,460.63 429.99,460.63 450.19,425.64 490.6,425.64 510.8,460.63 551.2,460.63 571.4,495.62 "/>
    </g>
    <g>
     <polyline class="fil0 str0" points="551.2,460.63 571.4,425.64 611.8,425.64 "/>
    </g>
    <g>
     <polyline class="fil0 str0" points="611.8,495.62 632,460.63 672.41,460.63 692.61,495.62 "/>
    </g>
    <g>
     <line class="fil0 str0" x1="672.41" y1="460.63" x2="692.61" y2= "425.64" />
    </g>
    <g>
     <polyline class="fil0 str0" points="733.01,425.64 753.21,460.63 733.01,495.62 "/>
    </g>
    <g>
     <line class="fil0 str0" x1="793.61" y1="460.63" x2="813.81" y2= "495.62" />
    </g>
    <g>
     <polyline class="fil0 str0" points="854.22,425.64 874.42,460.63 854.22,495.62 "/>
    </g>
    <g>
     <polyline class="fil0 str0" points="914.82,460.63 935.02,495.62 914.82,530.61 "/>
    </g>
    <g>
     <polyline class="fil0 str0" points="25.97,600.59 5.77,565.6 25.97,530.61 66.37,530.61 "/>
    </g>
    <g>
     <polyline class="fil0 str0" points="86.57,495.62 126.98,495.62 147.18,530.61 126.98,565.6 "/>
    </g>
    <g>
     <line class="fil0 str0" x1="187.58" y1="530.61" x2="207.78" y2= "565.6" />
    </g>
    <g>
     <polyline class="fil0 str0" points="207.78,495.62 248.18,495.62 268.38,530.61 248.18,565.6 "/>
    </g>
    <g>
     <polyline class="fil0 str0" points="308.79,530.61 328.99,495.62 369.39,495.62 389.59,530.61 369.39,565.6 "/>
    </g>
    <g>
     <polyline class="fil0 str0" points="571.4,565.6 551.2,530.61 571.4,495.62 "/>
    </g>
    <g>
     <polyline class="fil0 str0" points="611.8,495.62 632,530.61 611.8,565.6 "/>
    </g>
    <g>
     <line class="fil0 str0" x1="672.41" y1="530.61" x2="692.61" y2= "565.6" />
    </g>
    <g>
     <polyline class="fil0 str0" points="733.01,495.62 753.21,530.61 733.01,565.6 "/>
    </g>
    <g>
     <polyline class="fil0 str0" points="813.81,565.6 793.61,530.61 813.81,495.62 854.22,495.62 "/>
    </g>
    <g>
     <polyline class="fil0 str0" points="874.42,530.61 914.82,530.61 935.02,565.6 914.82,600.59 "/>
    </g>
    <g>
     <polyline class="fil0 str0" points="25.97,670.57 5.77,635.58 25.97,600.59 "/>
    </g>
    <g>
     <line class="fil0 str0" x1="66.37" y1="600.59" x2="86.57" y2= "635.58" />
    </g>
    <g>
     <polyline class="fil0 str0" points="86.57,565.6 126.98,565.6 147.18,600.59 126.98,635.58 "/>
    </g>
    <g>
     <polyline class="fil0 str0" points="207.78,635.58 187.58,600.59 207.78,565.6 "/>
    </g>
    <g>
     <polyline class="fil0 str0" points="248.18,565.6 268.38,600.59 248.18,635.58 "/>
    </g>
    <g>
     <polyline class="fil0 str0" points="268.38,600.59 308.79,600.59 328.99,565.6 "/>
    </g>
    <g>
     <polyline class="fil0 str0" points="369.39,565.6 389.59,600.59 369.39,635.58 "/>
    </g>
    <g>
     <polyline class="fil0 str0" points="389.59,600.59 429.99,600.59 450.19,635.58 "/>
    </g>
    <g>
     <polyline class="fil0 str0" points="490.6,635.58 510.8,600.59 551.2,600.59 571.4,565.6 "/>
    </g>
    <g>
     <polyline class="fil0 str0" points="611.8,565.6 632,600.59 611.8,635.58 "/>
    </g>
    <g>
     <polyline class="fil0 str0" points="692.61,635.58 672.41,600.59 692.61,565.6 "/>
    </g>
    <g>
     <polyline class="fil0 str0" points="733.01,565.6 753.21,600.59 793.61,600.59 813.81,635.58 "/>
    </g>
    <g>
     <polyline class="fil0 str0" points="793.61,600.59 813.81,565.6 854.22,565.6 874.42,600.59 "/>
    </g>
    <g>
     <polyline class="fil0 str0" points="914.82,600.59 935.02,635.58 914.82,670.57 "/>
    </g>
    <g>
     <polyline class="fil0 str0" points="25.97,740.55 5.77,705.56 25.97,670.57 "/>
    </g>
    <g>
     <polyline class="fil0 str0" points="86.57,705.56 66.37,670.57 86.57,635.58 "/>
    </g>
    <g>
     <polyline class="fil0 str0" points="126.98,635.58 147.18,670.57 126.98,705.56 "/>
    </g>
    <g>
     <polyline class="fil0 str0" points="207.78,705.56 187.58,670.57 207.78,635.58 "/>
    </g>
    <g>
     <polyline class="fil0 str0" points="248.18,705.56 268.38,670.57 308.79,670.57 328.99,635.58 369.39,635.58 "/>
    </g>
    <g>
     <line class="fil0 str0" x1="369.39" y1="705.56" x2="389.59" y2= "670.57" />
    </g>
    <g>
     <polyline class="fil0 str0" points="450.19,705.56 429.99,670.57 450.19,635.58 "/>
    </g>
    <g>
     <line class="fil0 str0" x1="490.6" y1="635.58" x2="510.8" y2= "670.57" />
    </g>
    <g>
     <polyline class="fil0 str0" points="571.4,705.56 551.2,670.57 571.4,635.58 611.8,635.58 632,670.57 611.8,705.56 "/>
    </g>
    <g>
     <polyline class="fil0 str0" points="692.61,705.56 672.41,670.57 692.61,635.58 733.01,635.58 "/>
    </g>
    <g>
     <polyline class="fil0 str0" points="753.21,670.57 793.61,670.57 813.81,635.58 "/>
    </g>
    <g>
     <polyline class="fil0 str0" points="854.22,635.58 874.42,670.57 854.22,705.56 "/>
    </g>
    <g>
     <polyline class="fil0 str0" points="914.82,670.57 935.02,705.56 914.82,740.55 "/>
    </g>
    <g>
     <polyline class="fil0 str0" points="25.97,810.52 5.77,775.54 25.97,740.55 66.37,740.55 86.57,775.54 "/>
    </g>
    <g>
     <line class="fil0 str0" x1="86.57" y1="705.56" x2="126.98" y2= "705.56" />
    </g>
    <g>
     <polyline class="fil0 str0" points="126.98,775.54 147.18,740.55 187.58,740.55 "/>
    </g>
    <g>
     <polyline class="fil0 str0" points="207.78,705.56 248.18,705.56 268.38,740.55 248.18,775.54 "/>
    </g>
    <g>
     <polyline class="fil0 str0" points="268.38,740.55 308.79,740.55 328.99,705.56 369.39,705.56 389.59,740.55 369.39,775.54 "/>
    </g>
    <g>
     <line class="fil0 str0" x1="389.59" y1="740.55" x2="429.99" y2= "740.55" />
    </g>
    <g>
     <polyline class="fil0 str0" points="450.19,705.56 490.6,705.56 510.8,740.55 490.6,775.54 "/>
    </g>
    <g>
     <polyline class="fil0 str0" points="510.8,740.55 551.2,740.55 571.4,705.56 "/>
    </g>
    <g>
     <polyline class="fil0 str0" points="611.8,775.54 632,740.55 672.41,740.55 692.61,705.56 733.01,705.56 753.21,740.55 733.01,775.54 "/>
    </g>
    <g>
     <polyline class="fil0 str0" points="753.21,740.55 793.61,740.55 813.81,775.54 "/>
    </g>
    <g>
     <polyline class="fil0 str0" points="793.61,740.55 813.81,705.56 854.22,705.56 "/>
    </g>
    <g>
     <polyline class="fil0 str0" points="874.42,740.55 914.82,740.55 935.02,775.54 914.82,810.52 "/>
    </g>
    <g>
     <polyline class="fil0 str0" points="25.97,810.52 66.37,810.52 86.57,845.51 "/>
    </g>
    <g>
     <polyline class="fil0 str0" points="86.57,775.54 126.98,775.54 147.18,810.52 187.58,810.52 "/>
    </g>
    <g>
     <polyline class="fil0 str0" points="207.78,775.54 248.18,775.54 268.38,810.52 248.18,845.51 "/>
    </g>
    <g>
     <polyline class="fil0 str0" points="328.99,845.51 308.79,810.52 328.99,775.54 "/>
    </g>
    <g>
     <polyline class="fil0 str0" points="369.39,845.51 389.59,810.52 429.99,810.52 450.19,845.51 "/>
    </g>
    <g>
     <polyline class="fil0 str0" points="429.99,810.52 450.19,775.54 490.6,775.54 510.8,810.52 551.2,810.52 "/>
    </g>
    <g>
     <polyline class="fil0 str0" points="571.4,775.54 611.8,775.54 632,810.52 611.8,845.51 "/>
    </g>
    <g>
     <polyline class="fil0 str0" points="672.41,810.52 692.61,775.54 733.01,775.54 753.21,810.52 733.01,845.51 "/>
    </g>
    <g>
     <line class="fil0 str0" x1="793.61" y1="810.52" x2="813.81" y2= "845.51" />
    </g>
    <g>
     <line class="fil0 str0" x1="813.81" y1="775.54" x2="854.22" y2= "775.54" />
    </g>
    <g>
     <polyline class="fil0 str0" points="854.22,845.51 874.42,810.52 914.82,810.52 "/>
    </g>
    <g>
     <polyline class="fil0 str0" points="86.57,845.51 126.98,845.51 147.18,880.5 187.58,880.5 207.78,915.49 "/>
    </g>
    <g>
     <polyline class="fil0 str0" points="207.78,845.51 248.18,845.51 268.38,880.5 308.79,880.5 328.99,845.51 "/>
    </g>
    <g>
     <polyline class="fil0 str0" points="369.39,845.51 389.59,880.5 369.39,915.49 "/>
    </g>
    <g>
     <line class="fil0 str0" x1="429.99" y1="880.5" x2="450.19" y2= "915.49" />
    </g>
    <g>
     <polyline class="fil0 str0" points="490.6,845.51 510.8,880.5 551.2,880.5 571.4,915.49 "/>
    </g>
    <g>
     <polyline class="fil0 str0" points="551.2,880.5 571.4,845.51 611.8,845.51 632,880.5 672.41,880.5 692.61,915.49 "/>
    </g>
    <g>
     <line class="fil0 str0" x1="672.41" y1="880.5" x2="692.61" y2= "845.51" />
    </g>
    <g>
     <polyline class="fil0 str0" points="733.01,915.49 753.21,880.5 793.61,880.5 813.81,845.51 854.22,845.51 "/>
    </g>
    <g>
     <polyline class="fil0 str0" points="207.78,915.49 248.18,915.49 268.38,950.48 308.79,950.48 328.99,985.47 "/>
    </g>
    <g>
     <line class="fil0 str0" x1="308.79" y1="950.48" x2="328.99" y2= "915.49" />
    </g>
    <g>
     <polyline class="fil0 str0" points="369.39,915.49 389.59,950.48 429.99,950.48 450.19,985.47 "/>
    </g>
    <g>
     <polyline class="fil0 str0" points="429.99,950.48 450.19,915.49 490.6,915.49 510.8,950.48 "/>
    </g>
    <g>
     <line class="fil0 str0" x1="551.2" y1="950.48" x2="571.4" y2= "985.47" />
    </g>
    <g>
     <line class="fil0 str0" x1="571.4" y1="915.49" x2="611.8" y2= "915.49" />
    </g>
    <g>
     <polyline class="fil0 str0" points="611.8,985.47 632,950.48 672.41,950.48 692.61,915.49 733.01,915.49 "/>
    </g>
    <g>
     <polyline class="fil0 str0" points="328.99,985.47 369.39,985.47 389.59,1020.46 429.99,1020.46 450.19,1055.45 "/>
    </g>
    <g>
     <polyline class="fil0 str0" points="490.6,985.47 510.8,1020.46 490.6,1055.45 "/>
    </g>
    <g>
     <polyline class="fil0 str0" points="510.8,1020.46 551.2,1020.46 571.4,985.47 611.8,985.47 "/>
    </g>
    <g>
     <line class="fil0 str0" x1="490.6" y1="1055.45" x2="450.19" y2= "1055.45" />
    </g>
   </g>
  </g>
  <g id="hex5.svg_0">
   <g>
    <g>
     <polyline class="fil0 str1" points="369.39,75.75 389.59,40.76 429.99,40.76 450.19,75.75 "/>
    </g>
    <g>
     <line class="fil0 str1" x1="429.99" y1="40.76" x2="450.19" y2= "5.77" />
    </g>
    <g>
     <polyline class="fil0 str1" points="490.6,5.77 510.8,40.76 551.2,40.76 571.4,75.75 "/>
    </g>
    <g>
     <polyline class="fil0 str1" points="248.18,145.73 268.38,110.74 308.79,110.74 328.99,75.75 369.39,75.75 "/>
    </g>
    <g>
     <line class="fil0 str1" x1="369.39" y1="145.73" x2="389.59" y2= "110.74" />
    </g>
    <g>
     <polyline class="fil0 str1" points="450.19,145.73 429.99,110.74 450.19,75.75 "/>
    </g>
    <g>
     <polyline class="fil0 str1" points="490.6,75.75 510.8,110.74 490.6,145.73 "/>
    </g>
    <g>
     <polyline class="fil0 str1" points="571.4,145.73 551.2,110.74 571.4,75.75 611.8,75.75 632,110.74 672.41,110.74 692.61,145.73 "/>
    </g>
    <g>
     <polyline class="fil0 str1" points="126.98,215.71 147.18,180.72 187.58,180.72 207.78,145.73 248.18,145.73 268.38,180.72 "/>
    </g>
    <g>
     <polyline class="fil0 str1" points="328.99,215.71 308.79,180.72 328.99,145.73 369.39,145.73 "/>
    </g>
    <g>
     <polyline class="fil0 str1" points="389.59,180.72 429.99,180.72 450.19,215.71 "/>
    </g>
    <g>
     <line class="fil0 str1" x1="429.99" y1="180.72" x2="450.19" y2= "145.73" />
    </g>
    <g>
     <polyline class="fil0 str1" points="490.6,145.73 510.8,180.72 551.2,180.72 571.4,215.71 "/>
    </g>
    <g>
     <line class="fil0 str1" x1="551.2" y1="180.72" x2="571.4" y2= "145.73" />
    </g>
    <g>
     <polyline class="fil0 str1" points="611.8,145.73 632,180.72 611.8,215.71 "/>
    </g>
    <g>
     <line class="fil0 str1" x1="632" y1="180.72" x2="672.41" y2= "180.72" />
    </g>
    <g>
     <polyline class="fil0 str1" points="692.61,145.73 733.01,145.73 753.21,180.72 733.01,215.71 "/>
    </g>
    <g>
     <polyline class="fil0 str1" points="753.21,180.72 793.61,180.72 813.81,215.71 "/>
    </g>
    <g>
     <polyline class="fil0 str1" points="25.97,320.67 5.77,285.68 25.97,250.7 66.37,250.7 86.57,215.71 126.98,215.71 147.18,250.7 126.98,285.68 "/>
    </g>
    <g>
     <polyline class="fil0 str1" points="187.58,250.7 207.78,215.71 248.18,215.71 268.38,250.7 248.18,285.68 "/>
    </g>
    <g>
     <polyline class="fil0 str1" points="268.38,250.7 308.79,250.7 328.99,285.68 "/>
    </g>
    <g>
     <polyline class="fil0 str1" points="308.79,250.7 328.99,215.71 369.39,215.71 "/>
    </g>
    <g>
     <polyline class="fil0 str1" points="389.59,250.7 429.99,250.7 450.19,215.71 490.6,215.71 "/>
    </g>
    <g>
     <polyline class="fil0 str1" points="490.6,285.68 510.8,250.7 551.2,250.7 571.4,285.68 "/>
    </g>
    <g>
     <polyline class="fil0 str1" points="611.8,215.71 632,250.7 611.8,285.68 "/>
    </g>
    <g>
     <polyline class="fil0 str1" points="632,250.7 672.41,250.7 692.61,285.68 "/>
    </g>
    <g>
     <line class="fil0 str1" x1="692.61" y1="215.71" x2="733.01" y2= "215.71" />
    </g>
    <g>
     <line class="fil0 str1" x1="733.01" y1="285.68" x2="753.21" y2= "250.7" />
    </g>
    <g>
     <polyline class="fil0 str1" points="813.81,285.68 793.61,250.7 813.81,215.71 854.22,215.71 874.42,250.7 914.82,250.7 935.02,285.68 914.82,320.67 "/>
    </g>
    <g>
     <polyline class="fil0 str1" points="25.97,390.65 5.77,355.66 25.97,320.67 66.37,320.67 86.57,285.68 "/>
    </g>
    <g>
     <polyline class="fil0 str1" points="126.98,285.68 147.18,320.67 126.98,355.66 "/>
    </g>
    <g>
     <polyline class="fil0 str1" points="147.18,320.67 187.58,320.67 207.78,355.66 "/>
    </g>
    <g>
     <line class="fil0 str1" x1="187.58" y1="320.67" x2="207.78" y2= "285.68" />
    </g>
    <g>
     <polyline class="fil0 str1" points="248.18,355.66 268.38,320.67 308.79,320.67 328.99,355.66 "/>
    </g>
    <g>
     <polyline class="fil0 str1" points="328.99,285.68 369.39,285.68 389.59,320.67 369.39,355.66 "/>
    </g>
    <g>
     <polyline class="fil0 str1" points="389.59,320.67 429.99,320.67 450.19,285.68 490.6,285.68 510.8,320.67 490.6,355.66 "/>
    </g>
    <g>
     <line class="fil0 str1" x1="551.2" y1="320.67" x2="571.4" y2= "355.66" />
    </g>
    <g>
     <line class="fil0 str1" x1="571.4" y1="285.68" x2="611.8" y2= "285.68" />
    </g>
    <g>
     <polyline class="fil0 str1" points="611.8,355.66 632,320.67 672.41,320.67 692.61,355.66 "/>
    </g>
    <g>
     <line class="fil0 str1" x1="692.61" y1="285.68" x2="733.01" y2= "285.68" />
    </g>
    <g>
     <polyline class="fil0 str1" points="733.01,355.66 753.21,320.67 793.61,320.67 813.81,285.68 854.22,285.68 "/>
    </g>
    <g>
     <polyline class="fil0 str1" points="874.42,320.67 914.82,320.67 935.02,355.66 914.82,390.65 "/>
    </g>
    <g>
     <polyline class="fil0 str1" points="25.97,460.63 5.77,425.64 25.97,390.65 "/>
    </g>
    <g>
     <polyline class="fil0 str1" points="86.57,425.64 66.37,390.65 86.57,355.66 126.98,355.66 "/>
    </g>
    <g>
     <line class="fil0 str1" x1="126.98" y1="425.64" x2="147.18" y2= "390.65" />
    </g>
    <g>
     <polyline class="fil0 str1" points="207.78,425.64 187.58,390.65 207.78,355.66 248.18,355.66 268.38,390.65 "/>
    </g>
    <g>
     <line class="fil0 str1" x1="308.79" y1="390.65" x2="328.99" y2= "425.64" />
    </g>
    <g>
     <polyline class="fil0 str1" points="369.39,355.66 389.59,390.65 369.39,425.64 "/>
    </g>
    <g>
     <polyline class="fil0 str1" points="450.19,425.64 429.99,390.65 450.19,355.66 "/>
    </g>
    <g>
     <polyline class="fil0 str1" points="490.6,355.66 510.8,390.65 490.6,425.64 "/>
    </g>
    <g>
     <polyline class="fil0 str1" points="551.2,390.65 571.4,355.66 611.8,355.66 632,390.65 672.41,390.65 692.61,425.64 "/>
    </g>
    <g>
     <polyline class="fil0 str1" points="692.61,355.66 733.01,355.66 753.21,390.65 733.01,425.64 "/>
    </g>
    <g>
     <polyline class="fil0 str1" points="753.21,390.65 793.61,390.65 813.81,425.64 "/>
    </g>
    <g>
     <polyline class="fil0 str1" points="813.81,355.66 854.22,355.66 874.42,390.65 854.22,425.64 "/>
    </g>
    <g>
     <polyline class="fil0 str1" points="914.82,390.65 935.02,425.64 914.82,460.63 "/>
    </g>
    <g>
     <polyline class="fil0 str1" points="25.97,530.61 5.77,495.62 25.97,460.63 66.37,460.63 86.57,495.62 "/>
    </g>
    <g>
     <polyline class="fil0 str1" points="126.98,425.64 147.18,460.63 126.98,495.62 "/>
    </g>
    <g>
     <polyline class="fil0 str1" points="147.18,460.63 187.58,460.63 207.78,495.62 "/>
    </g>
    <g>
     <line class="fil0 str1" x1="207.78" y1="425.64" x2="248.18" y2= "425.64" />
    </g>
    <g>
     <polyline class="fil0 str1" points="248.18,495.62 268.38,460.63 308.79,460.63 328.99,425.64 "/>
    </g>
    <g>
     <polyline class="fil0 str1" points="369.39,495.62 389.59,460.63 429.99,460.63 450.19,425.64 490.6,425.64 510.8,460.63 551.2,460.63 571.4,495.62 "/>
    </g>
    <g>
     <polyline class="fil0 str1" points="551.2,460.63 571.4,425.64 611.8,425.64 "/>
    </g>
    <g>
     <polyline class="fil0 str1" points="611.8,495.62 632,460.63 672.41,460.63 692.61,495.62 "/>
    </g>
    <g>
     <line class="fil0 str1" x1="672.41" y1="460.63" x2="692.61" y2= "425.64" />
    </g>
    <g>
     <polyline class="fil0 str1" points="733.01,425.64 753.21,460.63 733.01,495.62 "/>
    </g>
    <g>
     <line class="fil0 str1" x1="793.61" y1="460.63" x2="813.81" y2= "495.62" />
    </g>
    <g>
     <polyline class="fil0 str1" points="854.22,425.64 874.42,460.63 854.22,495.62 "/>
    </g>
    <g>
     <polyline class="fil0 str1" points="914.82,460.63 935.02,495.62 914.82,530.61 "/>
    </g>
    <g>
     <polyline class="fil0 str1" points="25.97,600.59 5.77,565.6 25.97,530.61 66.37,530.61 "/>
    </g>
    <g>
     <polyline class="fil0 str1" points="86.57,495.62 126.98,495.62 147.18,530.61 126.98,565.6 "/>
    </g>
    <g>
     <line class="fil0 str1" x1="187.58" y1="530.61" x2="207.78" y2= "565.6" />
    </g>
    <g>
     <polyline class="fil0 str1" points="207.78,495.62 248.18,495.62 268.38,530.61 248.18,565.6 "/>
    </g>
    <g>
     <polyline class="fil0 str1" points="308.79,530.61 328.99,495.62 369.39,495.62 389.59,530.61 369.39,565.6 "/>
    </g>
    <g>
     <polyline class="fil0 str1" points="571.4,565.6 551.2,530.61 571.4,495.62 "/>
    </g>
    <g>
     <polyline class="fil0 str1" points="611.8,495.62 632,530.61 611.8,565.6 "/>
    </g>
    <g>
     <line class="fil0 str1" x1="672.41" y1="530.61" x2="692.61" y2= "565.6" />
    </g>
    <g>
     <polyline class="fil0 str1" points="733.01,495.62 753.21,530.61 733.01,565.6 "/>
    </g>
    <g>
     <polyline class="fil0 str1" points="813.81,565.6 793.61,530.61 813.81,495.62 854.22,495.62 "/>
    </g>
    <g>
     <polyline class="fil0 str1" points="874.42,530.61 914.82,530.61 935.02,565.6 914.82,600.59 "/>
    </g>
    <g>
     <polyline class="fil0 str1" points="25.97,670.57 5.77,635.58 25.97,600.59 "/>
    </g>
    <g>
     <line class="fil0 str1" x1="66.37" y1="600.59" x2="86.57" y2= "635.58" />
    </g>
    <g>
     <polyline class="fil0 str1" points="86.57,565.6 126.98,565.6 147.18,600.59 126.98,635.58 "/>
    </g>
    <g>
     <polyline class="fil0 str1" points="207.78,635.58 187.58,600.59 207.78,565.6 "/>
    </g>
    <g>
     <polyline class="fil0 str1" points="248.18,565.6 268.38,600.59 248.18,635.58 "/>
    </g>
    <g>
     <polyline class="fil0 str1" points="268.38,600.59 308.79,600.59 328.99,565.6 "/>
    </g>
    <g>
     <polyline class="fil0 str1" points="369.39,565.6 389.59,600.59 369.39,635.58 "/>
    </g>
    <g>
     <polyline class="fil0 str1" points="389.59,600.59 429.99,600.59 450.19,635.58 "/>
    </g>
    <g>
     <polyline class="fil0 str1" points="490.6,635.58 510.8,600.59 551.2,600.59 571.4,565.6 "/>
    </g>
    <g>
     <polyline class="fil0 str1" points="611.8,565.6 632,600.59 611.8,635.58 "/>
    </g>
    <g>
     <polyline class="fil0 str1" points="692.61,635.58 672.41,600.59 692.61,565.6 "/>
    </g>
    <g>
     <polyline class="fil0 str1" points="733.01,565.6 753.21,600.59 793.61,600.59 813.81,635.58 "/>
    </g>
    <g>
     <polyline class="fil0 str1" points="793.61,600.59 813.81,565.6 854.22,565.6 874.42,600.59 "/>
    </g>
    <g>
     <polyline class="fil0 str1" points="914.82,600.59 935.02,635.58 914.82,670.57 "/>
    </g>
    <g>
     <polyline class="fil0 str1" points="25.97,740.55 5.77,705.56 25.97,670.57 "/>
    </g>
    <g>
     <polyline class="fil0 str1" points="86.57,705.56 66.37,670.57 86.57,635.58 "/>
    </g>
    <g>
     <polyline class="fil0 str1" points="126.98,635.58 147.18,670.57 126.98,705.56 "/>
    </g>
    <g>
     <polyline class="fil0 str1" points="207.78,705.56 187.58,670.57 207.78,635.58 "/>
    </g>
    <g>
     <polyline class="fil0 str1" points="248.18,705.56 268.38,670.57 308.79,670.57 328.99,635.58 369.39,635.58 "/>
    </g>
    <g>
     <line class="fil0 str1" x1="369.39" y1="705.56" x2="389.59" y2= "670.57" />
    </g>
    <g>
     <polyline class="fil0 str1" points="450.19,705.56 429.99,670.57 450.19,635.58 "/>
    </g>
    <g>
     <line class="fil0 str1" x1="490.6" y1="635.58" x2="510.8" y2= "670.57" />
    </g>
    <g>
     <polyline class="fil0 str1" points="571.4,705.56 551.2,670.57 571.4,635.58 611.8,635.58 632,670.57 611.8,705.56 "/>
    </g>
    <g>
     <polyline class="fil0 str1" points="692.61,705.56 672.41,670.57 692.61,635.58 733.01,635.58 "/>
    </g>
    <g>
     <polyline class="fil0 str1" points="753.21,670.57 793.61,670.57 813.81,635.58 "/>
    </g>
    <g>
     <polyline class="fil0 str1" points="854.22,635.58 874.42,670.57 854.22,705.56 "/>
    </g>
    <g>
     <polyline class="fil0 str1" points="914.82,670.57 935.02,705.56 914.82,740.55 "/>
    </g>
    <g>
     <polyline class="fil0 str1" points="25.97,810.52 5.77,775.54 25.97,740.55 66.37,740.55 86.57,775.54 "/>
    </g>
    <g>
     <line class="fil0 str1" x1="86.57" y1="705.56" x2="126.98" y2= "705.56" />
    </g>
    <g>
     <polyline class="fil0 str1" points="126.98,775.54 147.18,740.55 187.58,740.55 "/>
    </g>
    <g>
     <polyline class="fil0 str1" points="207.78,705.56 248.18,705.56 268.38,740.55 248.18,775.54 "/>
    </g>
    <g>
     <polyline class="fil0 str1" points="268.38,740.55 308.79,740.55 328.99,705.56 369.39,705.56 389.59,740.55 369.39,775.54 "/>
    </g>
    <g>
     <line class="fil0 str1" x1="389.59" y1="740.55" x2="429.99" y2= "740.55" />
    </g>
    <g>
     <polyline class="fil0 str1" points="450.19,705.56 490.6,705.56 510.8,740.55 490.6,775.54 "/>
    </g>
    <g>
     <polyline class="fil0 str1" points="510.8,740.55 551.2,740.55 571.4,705.56 "/>
    </g>
    <g>
     <polyline class="fil0 str1" points="611.8,775.54 632,740.55 672.41,740.55 692.61,705.56 733.01,705.56 753.21,740.55 733.01,775.54 "/>
    </g>
    <g>
     <polyline class="fil0 str1" points="753.21,740.55 793.61,740.55 813.81,775.54 "/>
    </g>
    <g>
     <polyline class="fil0 str1" points="793.61,740.55 813.81,705.56 854.22,705.56 "/>
    </g>
    <g>
     <polyline class="fil0 str1" points="874.42,740.55 914.82,740.55 935.02,775.54 914.82,810.52 "/>
    </g>
    <g>
     <polyline class="fil0 str1" points="25.97,810.52 66.37,810.52 86.57,845.51 "/>
    </g>
    <g>
     <polyline class="fil0 str1" points="86.57,775.54 126.98,775.54 147.18,810.52 187.58,810.52 "/>
    </g>
    <g>
     <polyline class="fil0 str1" points="207.78,775.54 248.18,775.54 268.38,810.52 248.18,845.51 "/>
    </g>
    <g>
     <polyline class="fil0 str1" points="328.99,845.51 308.79,810.52 328.99,775.54 "/>
    </g>
    <g>
     <polyline class="fil0 str1" points="369.39,845.51 389.59,810.52 429.99,810.52 450.19,845.51 "/>
    </g>
    <g>
     <polyline class="fil0 str1" points="429.99,810.52 450.19,775.54 490.6,775.54 510.8,810.52 551.2,810.52 "/>
    </g>
    <g>
     <polyline class="fil0 str1" points="571.4,775.54 611.8,775.54 632,810.52 611.8,845.51 "/>
    </g>
    <g>
     <polyline class="fil0 str1" points="672.41,810.52 692.61,775.54 733.01,775.54 753.21,810.52 733.01,845.51 "/>
    </g>
    <g>
     <line class="fil0 str1" x1="793.61" y1="810.52" x2="813.81" y2= "845.51" />
    </g>
    <g>
     <line class="fil0 str1" x1="813.81" y1="775.54" x2="854.22" y2= "775.54" />
    </g>
    <g>
     <polyline class="fil0 str1" points="854.22,845.51 874.42,810.52 914.82,810.52 "/>
    </g>
    <g>
     <polyline class="fil0 str1" points="86.57,845.51 126.98,845.51 147.18,880.5 187.58,880.5 207.78,915.49 "/>
    </g>
    <g>
     <polyline class="fil0 str1" points="207.78,845.51 248.18,845.51 268.38,880.5 308.79,880.5 328.99,845.51 "/>
    </g>
    <g>
     <polyline class="fil0 str1" points="369.39,845.51 389.59,880.5 369.39,915.49 "/>
    </g>
    <g>
     <line class="fil0 str1" x1="429.99" y1="880.5" x2="450.19" y2= "915.49" />
    </g>
    <g>
     <polyline class="fil0 str1" points="490.6,845.51 510.8,880.5 551.2,880.5 571.4,915.49 "/>
    </g>
    <g>
     <polyline class="fil0 str1" points="551.2,880.5 571.4,845.51 611.8,845.51 632,880.5 672.41,880.5 692.61,915.49 "/>
    </g>
    <g>
     <line class="fil0 str1" x1="672.41" y1="880.5" x2="692.61" y2= "845.51" />
    </g>
    <g>
     <polyline class="fil0 str1" points="733.01,915.49 753.21,880.5 793.61,880.5 813.81,845.51 854.22,845.51 "/>
    </g>
    <g>
     <polyline class="fil0 str1" points="207.78,915.49 248.18,915.49 268.38,950.48 308.79,950.48 328.99,985.47 "/>
    </g>
    <g>
     <line class="fil0 str1" x1="308.79" y1="950.48" x2="328.99" y2= "915.49" />
    </g>
    <g>
     <polyline class="fil0 str1" points="369.39,915.49 389.59,950.48 429.99,950.48 450.19,985.47 "/>
    </g>
    <g>
     <polyline class="fil0 str1" points="429.99,950.48 450.19,915.49 490.6,915.49 510.8,950.48 "/>
    </g>
    <g>
     <line class="fil0 str1" x1="551.2" y1="950.48" x2="571.4" y2= "985.47" />
    </g>
    <g>
     <line class="fil0 str1" x1="571.4" y1="915.49" x2="611.8" y2= "915.49" />
    </g>
    <g>
     <polyline class="fil0 str1" points="611.8,985.47 632,950.48 672.41,950.48 692.61,915.49 733.01,915.49 "/>
    </g>
    <g>
     <polyline class="fil0 str1" points="328.99,985.47 369.39,985.47 389.59,1020.46 429.99,1020.46 450.19,1055.45 "/>
    </g>
    <g>
     <polyline class="fil0 str1" points="490.6,985.47 510.8,1020.46 490.6,1055.45 "/>
    </g>
    <g>
     <polyline class="fil0 str1" points="510.8,1020.46 551.2,1020.46 571.4,985.47 611.8,985.47 "/>
    </g>
    <g>
     <line class="fil0 str1" x1="490.6" y1="1055.45" x2="450.19" y2= "1055.45" />
    </g>
   </g>
  </g>
  <polyline class="fil0 str2" points="470.4,5.77 470.4,180.72 591.6,250.7 591.6,110.74 712.81,180.72 652.21,215.71 712.81,250.7 773.41,215.71 773.41,285.68 712.81,320.67 652.21,285.68 591.6,320.67 531,285.68 531,425.64 591.6,390.65 652.21,425.64 591.6,460.63 591.6,600.59 531,635.58 531,705.56 470.4,670.57 470.4,635.58 "/>
 </g>
</svg>
