<?xml version="1.0" encoding="UTF-8"?>
<!DOCTYPE svg PUBLIC "-//W3C//DTD SVG 1.1//EN" "http://www.w3.org/Graphics/SVG/1.1/DTD/svg11.dtd">
<!-- Creator: CorelDRAW 2018 (64-Bit) -->
<svg xmlns="http://www.w3.org/2000/svg" xml:space="preserve" width="3.70833in" height="3.21709in" version="1.1" style="shape-rendering:geometricPrecision; text-rendering:geometricPrecision; image-rendering:optimizeQuality; fill-rule:evenodd; clip-rule:evenodd"
viewBox="0 0 1858.03 1611.9"
 xmlns:xlink="http://www.w3.org/1999/xlink">
 <defs>
  <style type="text/css">
   <![CDATA[
    .str2 {stroke:red;stroke-width:10.44;stroke-linecap:square;stroke-linejoin:round;stroke-miterlimit:2.61313}
    .str0 {stroke:black;stroke-width:20.88;stroke-linecap:round;stroke-linejoin:round;stroke-miterlimit:2.61313}
    .str1 {stroke:yellow;stroke-width:13.92;stroke-linecap:round;stroke-linejoin:round;stroke-miterlimit:2.61313}
    .fil0 {fill:none}
   ]]>
  </style>
 </defs>
 <g id="Layer_x0020_1">
  <metadata id="CorelCorpID_0Corel-Layer"/>
  <g id="hex7.svg">
   <g>
    <g>
     <line class="fil0 str0" x1="469.73" y1="10.44" x2="929.01" y2= "10.44" />
    </g>
    <g>
     <line class="fil0 str0" x1="1043.84" y1="10.44" x2="1388.3" y2= "10.44" />
    </g>
    <g>
     <line class="fil0 str0" x1="412.31" y1="109.88" x2="527.14" y2= "109.88" />
    </g>
    <g>
     <line class="fil0 str0" x1="469.73" y1="209.32" x2="584.55" y2= "209.32" />
    </g>
    <g>
     <line class="fil0 str0" x1="527.14" y1="308.76" x2="641.96" y2= "308.76" />
    </g>
    <g>
     <line class="fil0 str0" x1="1330.89" y1="308.76" x2="1445.72" y2= "308.76" />
    </g>
    <g>
     <line class="fil0 str0" x1="354.9" y1="408.19" x2="469.73" y2= "408.19" />
    </g>
    <g>
     <line class="fil0 str0" x1="929.01" y1="408.19" x2="1273.48" y2= "408.19" />
    </g>
    <g>
     <line class="fil0 str0" x1="1503.13" y1="408.19" x2="1617.95" y2= "408.19" />
    </g>
    <g>
     <line class="fil0 str0" x1="412.31" y1="507.63" x2="527.14" y2= "507.63" />
    </g>
    <g>
     <line class="fil0 str0" x1="641.96" y1="507.63" x2="756.78" y2= "507.63" />
    </g>
    <g>
     <line class="fil0 str0" x1="871.6" y1="507.63" x2="986.43" y2= "507.63" />
    </g>
    <g>
     <line class="fil0 str0" x1="1101.25" y1="507.63" x2="1330.89" y2= "507.63" />
    </g>
    <g>
     <line class="fil0 str0" x1="1445.72" y1="507.63" x2="1560.54" y2= "507.63" />
    </g>
    <g>
     <line class="fil0 str0" x1="125.26" y1="607.07" x2="240.08" y2= "607.07" />
    </g>
    <g>
     <line class="fil0 str0" x1="354.9" y1="607.07" x2="584.55" y2= "607.07" />
    </g>
    <g>
     <line class="fil0 str0" x1="814.19" y1="607.07" x2="1043.84" y2= "607.07" />
    </g>
    <g>
     <line class="fil0 str0" x1="1158.66" y1="607.07" x2="1388.3" y2= "607.07" />
    </g>
    <g>
     <line class="fil0 str0" x1="1503.13" y1="607.07" x2="1617.95" y2= "607.07" />
    </g>
    <g>
     <line class="fil0 str0" x1="182.67" y1="706.51" x2="412.31" y2= "706.51" />
    </g>
    <g>
     <line class="fil0 str0" x1="527.14" y1="706.51" x2="641.96" y2= "706.51" />
    </g>
    <g>
     <line class="fil0 str0" x1="1445.72" y1="706.51" x2="1675.36" y2= "706.51" />
    </g>
    <g>
     <line class="fil0 str0" x1="125.26" y1="805.95" x2="240.08" y2= "805.95" />
    </g>
    <g>
     <line class="fil0 str0" x1="354.9" y1="805.95" x2="469.73" y2= "805.95" />
    </g>
    <g>
     <line class="fil0 str0" x1="1158.66" y1="805.95" x2="1388.3" y2= "805.95" />
    </g>
    <g>
     <line class="fil0 str0" x1="1503.13" y1="805.95" x2="1617.95" y2= "805.95" />
    </g>
    <g>
     <line class="fil0 str0" x1="67.85" y1="905.39" x2="182.67" y2= "905.39" />
    </g>
    <g>
     <line class="fil0 str0" x1="412.31" y1="905.39" x2="527.14" y2= "905.39" />
    </g>
    <g>
     <line class="fil0 str0" x1="1216.07" y1="905.39" x2="1330.89" y2= "905.39" />
    </g>
    <g>
     <line class="fil0 str0" x1="240.08" y1="1004.83" x2="354.9" y2= "1004.83" />
    </g>
    <g>
     <line class="fil0 str0" x1="469.73" y1="1004.83" x2="584.55" y2= "1004.83" />
    </g>
    <g>
     <line class="fil0 str0" x1="929.01" y1="1004.83" x2="1043.84" y2= "1004.83" />
    </g>
    <g>
     <line class="fil0 str0" x1="1273.48" y1="1004.83" x2="1388.3" y2= "1004.83" />
    </g>
    <g>
     <line class="fil0 str0" x1="182.67" y1="1104.27" x2="412.31" y2= "1104.27" />
    </g>
    <g>
     <line class="fil0 str0" x1="641.96" y1="1104.27" x2="756.78" y2= "1104.27" />
    </g>
    <g>
     <line class="fil0 str0" x1="986.43" y1="1104.27" x2="1445.72" y2= "1104.27" />
    </g>
    <g>
     <line class="fil0 str0" x1="699.37" y1="1203.71" x2="929.01" y2= "1203.71" />
    </g>
    <g>
     <line class="fil0 str0" x1="1043.84" y1="1203.71" x2="1273.48" y2= "1203.71" />
    </g>
    <g>
     <line class="fil0 str0" x1="641.96" y1="1303.14" x2="756.78" y2= "1303.14" />
    </g>
    <g>
     <line class="fil0 str0" x1="1445.72" y1="1303.14" x2="1560.54" y2= "1303.14" />
    </g>
    <g>
     <line class="fil0 str0" x1="354.9" y1="1402.58" x2="469.73" y2= "1402.58" />
    </g>
    <g>
     <line class="fil0 str0" x1="699.37" y1="1402.58" x2="814.19" y2= "1402.58" />
    </g>
    <g>
     <line class="fil0 str0" x1="929.01" y1="1402.58" x2="1043.84" y2= "1402.58" />
    </g>
    <g>
     <line class="fil0 str0" x1="527.14" y1="1502.02" x2="986.43" y2= "1502.02" />
    </g>
    <g>
     <line class="fil0 str0" x1="1330.89" y1="1502.02" x2="1445.72" y2= "1502.02" />
    </g>
    <g>
     <line class="fil0 str0" x1="469.73" y1="1601.46" x2="1388.3" y2= "1601.46" />
    </g>
    <g>
     <line class="fil0 str0" x1="67.85" y1="706.51" x2="10.44" y2= "805.95" />
    </g>
    <g>
     <line class="fil0 str0" x1="10.44" y1="805.95" x2="67.85" y2= "905.39" />
    </g>
    <g>
     <line class="fil0 str0" x1="125.26" y1="607.07" x2="67.85" y2= "706.51" />
    </g>
    <g>
     <line class="fil0 str0" x1="67.85" y1="905.39" x2="125.26" y2= "1004.83" />
    </g>
    <g>
     <line class="fil0 str0" x1="182.67" y1="507.63" x2="125.26" y2= "607.07" />
    </g>
    <g>
     <line class="fil0 str0" x1="125.26" y1="1004.83" x2="182.67" y2= "1104.27" />
    </g>
    <g>
     <line class="fil0 str0" x1="240.08" y1="408.19" x2="182.67" y2= "507.63" />
    </g>
    <g>
     <line class="fil0 str0" x1="182.67" y1="905.39" x2="240.08" y2= "1004.83" />
    </g>
    <g>
     <line class="fil0 str0" x1="182.67" y1="1104.27" x2="240.08" y2= "1203.71" />
    </g>
    <g>
     <line class="fil0 str0" x1="297.49" y1="308.76" x2="240.08" y2= "408.19" />
    </g>
    <g>
     <line class="fil0 str0" x1="297.49" y1="706.51" x2="240.08" y2= "805.95" />
    </g>
    <g>
     <line class="fil0 str0" x1="240.08" y1="805.95" x2="297.49" y2= "905.39" />
    </g>
    <g>
     <line class="fil0 str0" x1="240.08" y1="1203.71" x2="297.49" y2= "1303.14" />
    </g>
    <g>
     <line class="fil0 str0" x1="354.9" y1="209.32" x2="297.49" y2= "308.76" />
    </g>
    <g>
     <line class="fil0 str0" x1="354.9" y1="408.19" x2="297.49" y2= "507.63" />
    </g>
    <g>
     <line class="fil0 str0" x1="297.49" y1="507.63" x2="354.9" y2= "607.07" />
    </g>
    <g>
     <line class="fil0 str0" x1="354.9" y1="805.95" x2="297.49" y2= "905.39" />
    </g>
    <g>
     <line class="fil0 str0" x1="297.49" y1="1104.27" x2="354.9" y2= "1203.71" />
    </g>
    <g>
     <line class="fil0 str0" x1="297.49" y1="1303.14" x2="354.9" y2= "1402.58" />
    </g>
    <g>
     <polyline class="fil0 str0" points="412.31,109.88 354.9,209.32 412.31,308.76 "/>
    </g>
    <g>
     <line class="fil0 str0" x1="354.9" y1="1203.71" x2="412.31" y2= "1303.14" />
    </g>
    <g>
     <line class="fil0 str0" x1="354.9" y1="1402.58" x2="412.31" y2= "1502.02" />
    </g>
    <g>
     <line class="fil0 str0" x1="469.73" y1="10.44" x2="412.31" y2= "109.88" />
    </g>
    <g>
     <polyline class="fil0 str0" points="412.31,905.39 469.73,1004.83 412.31,1104.27 "/>
    </g>
    <g>
     <line class="fil0 str0" x1="469.73" y1="1203.71" x2="412.31" y2= "1303.14" />
    </g>
    <g>
     <line class="fil0 str0" x1="412.31" y1="1502.02" x2="469.73" y2= "1601.46" />
    </g>
    <g>
     <line class="fil0 str0" x1="469.73" y1="209.32" x2="527.14" y2= "308.76" />
    </g>
    <g>
     <polyline class="fil0 str0" points="469.73,607.07 527.14,706.51 469.73,805.95 "/>
    </g>
    <g>
     <line class="fil0 str0" x1="527.14" y1="1303.14" x2="469.73" y2= "1402.58" />
    </g>
    <g>
     <line class="fil0 str0" x1="584.55" y1="408.19" x2="527.14" y2= "507.63" />
    </g>
    <g>
     <line class="fil0 str0" x1="584.55" y1="805.95" x2="527.14" y2= "905.39" />
    </g>
    <g>
     <line class="fil0 str0" x1="584.55" y1="1004.83" x2="527.14" y2= "1104.27" />
    </g>
    <g>
     <line class="fil0 str0" x1="527.14" y1="1104.27" x2="584.55" y2= "1203.71" />
    </g>
    <g>
     <line class="fil0 str0" x1="641.96" y1="109.88" x2="584.55" y2= "209.32" />
    </g>
    <g>
     <line class="fil0 str0" x1="584.55" y1="408.19" x2="641.96" y2= "507.63" />
    </g>
    <g>
     <line class="fil0 str0" x1="584.55" y1="805.95" x2="641.96" y2= "905.39" />
    </g>
    <g>
     <line class="fil0 str0" x1="584.55" y1="1203.71" x2="641.96" y2= "1303.14" />
    </g>
    <g>
     <line class="fil0 str0" x1="641.96" y1="1303.14" x2="584.55" y2= "1402.58" />
    </g>
    <g>
     <line class="fil0 str0" x1="699.37" y1="209.32" x2="641.96" y2= "308.76" />
    </g>
    <g>
     <line class="fil0 str0" x1="641.96" y1="308.76" x2="699.37" y2= "408.19" />
    </g>
    <g>
     <polyline class="fil0 str0" points="699.37,607.07 641.96,706.51 699.37,805.95 "/>
    </g>
    <g>
     <line class="fil0 str0" x1="641.96" y1="905.39" x2="699.37" y2= "1004.83" />
    </g>
    <g>
     <line class="fil0 str0" x1="756.78" y1="109.88" x2="699.37" y2= "209.32" />
    </g>
    <g>
     <line class="fil0 str0" x1="756.78" y1="308.76" x2="699.37" y2= "408.19" />
    </g>
    <g>
     <line class="fil0 str0" x1="756.78" y1="706.51" x2="699.37" y2= "805.95" />
    </g>
    <g>
     <line class="fil0 str0" x1="699.37" y1="805.95" x2="756.78" y2= "905.39" />
    </g>
    <g>
     <line class="fil0 str0" x1="699.37" y1="1004.83" x2="756.78" y2= "1104.27" />
    </g>
    <g>
     <line class="fil0 str0" x1="756.78" y1="109.88" x2="814.19" y2= "209.32" />
    </g>
    <g>
     <line class="fil0 str0" x1="814.19" y1="408.19" x2="756.78" y2= "507.63" />
    </g>
    <g>
     <polyline class="fil0 str0" points="756.78,507.63 814.19,607.07 756.78,706.51 "/>
    </g>
    <g>
     <line class="fil0 str0" x1="756.78" y1="905.39" x2="814.19" y2= "1004.83" />
    </g>
    <g>
     <line class="fil0 str0" x1="756.78" y1="1104.27" x2="814.19" y2= "1203.71" />
    </g>
    <g>
     <line class="fil0 str0" x1="814.19" y1="10.44" x2="871.6" y2= "109.88" />
    </g>
    <g>
     <line class="fil0 str0" x1="814.19" y1="209.32" x2="871.6" y2= "308.76" />
    </g>
    <g>
     <line class="fil0 str0" x1="814.19" y1="1004.83" x2="871.6" y2= "1104.27" />
    </g>
    <g>
     <line class="fil0 str0" x1="814.19" y1="1203.71" x2="871.6" y2= "1303.14" />
    </g>
    <g>
     <polyline class="fil0 str0" points="871.6,1303.14 814.19,1402.58 871.6,1502.02 "/>
    </g>
    <g>
     <line class="fil0 str0" x1="871.6" y1="109.88" x2="929.01" y2= "209.32" />
    </g>
    <g>
     <line class="fil0 str0" x1="871.6" y1="308.76" x2="929.01" y2= "408.19" />
    </g>
    <g>
     <line class="fil0 str0" x1="929.01" y1="209.32" x2="986.43" y2= "308.76" />
    </g>
    <g>
     <line class="fil0 str0" x1="929.01" y1="1004.83" x2="986.43" y2= "1104.27" />
    </g>
    <g>
     <line class="fil0 str0" x1="986.43" y1="1104.27" x2="929.01" y2= "1203.71" />
    </g>
    <g>
     <line class="fil0 str0" x1="986.43" y1="1303.14" x2="929.01" y2= "1402.58" />
    </g>
    <g>
     <line class="fil0 str0" x1="1043.84" y1="10.44" x2="986.43" y2= "109.88" />
    </g>
    <g>
     <line class="fil0 str0" x1="1043.84" y1="209.32" x2="986.43" y2= "308.76" />
    </g>
    <g>
     <line class="fil0 str0" x1="1043.84" y1="408.19" x2="986.43" y2= "507.63" />
    </g>
    <g>
     <line class="fil0 str0" x1="1043.84" y1="1203.71" x2="986.43" y2= "1303.14" />
    </g>
    <g>
     <line class="fil0 str0" x1="1101.25" y1="308.76" x2="1043.84" y2= "408.19" />
    </g>
    <g>
     <polyline class="fil0 str0" points="1101.25,507.63 1043.84,607.07 1101.25,706.51 "/>
    </g>
    <g>
     <line class="fil0 str0" x1="1101.25" y1="905.39" x2="1043.84" y2= "1004.83" />
    </g>
    <g>
     <polyline class="fil0 str0" points="1101.25,1303.14 1043.84,1402.58 1101.25,1502.02 "/>
    </g>
    <g>
     <line class="fil0 str0" x1="1158.66" y1="10.44" x2="1101.25" y2= "109.88" />
    </g>
    <g>
     <line class="fil0 str0" x1="1158.66" y1="209.32" x2="1101.25" y2= "308.76" />
    </g>
    <g>
     <line class="fil0 str0" x1="1101.25" y1="706.51" x2="1158.66" y2= "805.95" />
    </g>
    <g>
     <line class="fil0 str0" x1="1158.66" y1="805.95" x2="1101.25" y2= "905.39" />
    </g>
    <g>
     <line class="fil0 str0" x1="1101.25" y1="905.39" x2="1158.66" y2= "1004.83" />
    </g>
    <g>
     <line class="fil0 str0" x1="1216.07" y1="109.88" x2="1158.66" y2= "209.32" />
    </g>
    <g>
     <line class="fil0 str0" x1="1158.66" y1="1203.71" x2="1216.07" y2= "1303.14" />
    </g>
    <g>
     <line class="fil0 str0" x1="1216.07" y1="1303.14" x2="1158.66" y2= "1402.58" />
    </g>
    <g>
     <line class="fil0 str0" x1="1216.07" y1="1502.02" x2="1158.66" y2= "1601.46" />
    </g>
    <g>
     <line class="fil0 str0" x1="1273.48" y1="209.32" x2="1216.07" y2= "308.76" />
    </g>
    <g>
     <line class="fil0 str0" x1="1216.07" y1="706.51" x2="1273.48" y2= "805.95" />
    </g>
    <g>
     <line class="fil0 str0" x1="1216.07" y1="905.39" x2="1273.48" y2= "1004.83" />
    </g>
    <g>
     <polyline class="fil0 str0" points="1216.07,1303.14 1273.48,1402.58 1216.07,1502.02 "/>
    </g>
    <g>
     <polyline class="fil0 str0" points="1273.48,10.44 1330.89,109.88 1273.48,209.32 "/>
    </g>
    <g>
     <line class="fil0 str0" x1="1330.89" y1="308.76" x2="1273.48" y2= "408.19" />
    </g>
    <g>
     <line class="fil0 str0" x1="1273.48" y1="607.07" x2="1330.89" y2= "706.51" />
    </g>
    <g>
     <line class="fil0 str0" x1="1273.48" y1="1203.71" x2="1330.89" y2= "1303.14" />
    </g>
    <g>
     <line class="fil0 str0" x1="1388.3" y1="408.19" x2="1330.89" y2= "507.63" />
    </g>
    <g>
     <line class="fil0 str0" x1="1330.89" y1="1303.14" x2="1388.3" y2= "1402.58" />
    </g>
    <g>
     <line class="fil0 str0" x1="1388.3" y1="10.44" x2="1445.72" y2= "109.88" />
    </g>
    <g>
     <line class="fil0 str0" x1="1388.3" y1="209.32" x2="1445.72" y2= "308.76" />
    </g>
    <g>
     <line class="fil0 str0" x1="1388.3" y1="408.19" x2="1445.72" y2= "507.63" />
    </g>
    <g>
     <line class="fil0 str0" x1="1445.72" y1="507.63" x2="1388.3" y2= "607.07" />
    </g>
    <g>
     <line class="fil0 str0" x1="1445.72" y1="905.39" x2="1388.3" y2= "1004.83" />
    </g>
    <g>
     <line class="fil0 str0" x1="1388.3" y1="1203.71" x2="1445.72" y2= "1303.14" />
    </g>
    <g>
     <line class="fil0 str0" x1="1445.72" y1="1502.02" x2="1388.3" y2= "1601.46" />
    </g>
    <g>
     <line class="fil0 str0" x1="1445.72" y1="109.88" x2="1503.13" y2= "209.32" />
    </g>
    <g>
     <line class="fil0 str0" x1="1445.72" y1="308.76" x2="1503.13" y2= "408.19" />
    </g>
    <g>
     <line class="fil0 str0" x1="1445.72" y1="706.51" x2="1503.13" y2= "805.95" />
    </g>
    <g>
     <line class="fil0 str0" x1="1503.13" y1="805.95" x2="1445.72" y2= "905.39" />
    </g>
    <g>
     <line class="fil0 str0" x1="1503.13" y1="1004.83" x2="1445.72" y2= "1104.27" />
    </g>
    <g>
     <line class="fil0 str0" x1="1445.72" y1="1104.27" x2="1503.13" y2= "1203.71" />
    </g>
    <g>
     <line class="fil0 str0" x1="1503.13" y1="1402.58" x2="1445.72" y2= "1502.02" />
    </g>
    <g>
     <line class="fil0 str0" x1="1503.13" y1="209.32" x2="1560.54" y2= "308.76" />
    </g>
    <g>
     <polyline class="fil0 str0" points="1560.54,905.39 1503.13,1004.83 1560.54,1104.27 "/>
    </g>
    <g>
     <line class="fil0 str0" x1="1560.54" y1="1303.14" x2="1503.13" y2= "1402.58" />
    </g>
    <g>
     <line class="fil0 str0" x1="1560.54" y1="308.76" x2="1617.95" y2= "408.19" />
    </g>
    <g>
     <line class="fil0 str0" x1="1560.54" y1="507.63" x2="1617.95" y2= "607.07" />
    </g>
    <g>
     <line class="fil0 str0" x1="1617.95" y1="1203.71" x2="1560.54" y2= "1303.14" />
    </g>
    <g>
     <line class="fil0 str0" x1="1617.95" y1="408.19" x2="1675.36" y2= "507.63" />
    </g>
    <g>
     <line class="fil0 str0" x1="1617.95" y1="805.95" x2="1675.36" y2= "905.39" />
    </g>
    <g>
     <line class="fil0 str0" x1="1675.36" y1="905.39" x2="1617.95" y2= "1004.83" />
    </g>
    <g>
     <line class="fil0 str0" x1="1675.36" y1="1104.27" x2="1617.95" y2= "1203.71" />
    </g>
    <g>
     <polyline class="fil0 str0" points="1675.36,507.63 1732.77,607.07 1675.36,706.51 "/>
    </g>
    <g>
     <line class="fil0 str0" x1="1732.77" y1="1004.83" x2="1675.36" y2= "1104.27" />
    </g>
    <g>
     <line class="fil0 str0" x1="1732.77" y1="607.07" x2="1790.18" y2= "706.51" />
    </g>
    <g>
     <line class="fil0 str0" x1="1732.77" y1="805.95" x2="1790.18" y2= "905.39" />
    </g>
    <g>
     <line class="fil0 str0" x1="1790.18" y1="905.39" x2="1732.77" y2= "1004.83" />
    </g>
    <g>
     <line class="fil0 str0" x1="1790.18" y1="706.51" x2="1847.59" y2= "805.95" />
    </g>
    <g>
     <line class="fil0 str0" x1="1847.59" y1="805.95" x2="1790.18" y2= "905.39" />
    </g>
   </g>
  </g>
  <g id="hex7.svg_0">
   <g>
    <g>
     <line class="fil0 str1" x1="469.73" y1="10.44" x2="929.01" y2= "10.44" />
    </g>
    <g>
     <line class="fil0 str1" x1="1043.84" y1="10.44" x2="1388.3" y2= "10.44" />
    </g>
    <g>
     <line class="fil0 str1" x1="412.31" y1="109.88" x2="527.14" y2= "109.88" />
    </g>
    <g>
     <line class="fil0 str1" x1="469.73" y1="209.32" x2="584.55" y2= "209.32" />
    </g>
    <g>
     <line class="fil0 str1" x1="527.14" y1="308.76" x2="641.96" y2= "308.76" />
    </g>
    <g>
     <line class="fil0 str1" x1="1330.89" y1="308.76" x2="1445.72" y2= "308.76" />
    </g>
    <g>
     <line class="fil0 str1" x1="354.9" y1="408.19" x2="469.73" y2= "408.19" />
    </g>
    <g>
     <line class="fil0 str1" x1="929.01" y1="408.19" x2="1273.48" y2= "408.19" />
    </g>
    <g>
     <line class="fil0 str1" x1="1503.13" y1="408.19" x2="1617.95" y2= "408.19" />
    </g>
    <g>
     <line class="fil0 str1" x1="412.31" y1="507.63" x2="527.14" y2= "507.63" />
    </g>
    <g>
     <line class="fil0 str1" x1="641.96" y1="507.63" x2="756.78" y2= "507.63" />
    </g>
    <g>
     <line class="fil0 str1" x1="871.6" y1="507.63" x2="986.43" y2= "507.63" />
    </g>
    <g>
     <line class="fil0 str1" x1="1101.25" y1="507.63" x2="1330.89" y2= "507.63" />
    </g>
    <g>
     <line class="fil0 str1" x1="1445.72" y1="507.63" x2="1560.54" y2= "507.63" />
    </g>
    <g>
     <line class="fil0 str1" x1="125.26" y1="607.07" x2="240.08" y2= "607.07" />
    </g>
    <g>
     <line class="fil0 str1" x1="354.9" y1="607.07" x2="584.55" y2= "607.07" />
    </g>
    <g>
     <line class="fil0 str1" x1="814.19" y1="607.07" x2="1043.84" y2= "607.07" />
    </g>
    <g>
     <line class="fil0 str1" x1="1158.66" y1="607.07" x2="1388.3" y2= "607.07" />
    </g>
    <g>
     <line class="fil0 str1" x1="1503.13" y1="607.07" x2="1617.95" y2= "607.07" />
    </g>
    <g>
     <line class="fil0 str1" x1="182.67" y1="706.51" x2="412.31" y2= "706.51" />
    </g>
    <g>
     <line class="fil0 str1" x1="527.14" y1="706.51" x2="641.96" y2= "706.51" />
    </g>
    <g>
     <line class="fil0 str1" x1="1445.72" y1="706.51" x2="1675.36" y2= "706.51" />
    </g>
    <g>
     <line class="fil0 str1" x1="125.26" y1="805.95" x2="240.08" y2= "805.95" />
    </g>
    <g>
     <line class="fil0 str1" x1="354.9" y1="805.95" x2="469.73" y2= "805.95" />
    </g>
    <g>
     <line class="fil0 str1" x1="1158.66" y1="805.95" x2="1388.3" y2= "805.95" />
    </g>
    <g>
     <line class="fil0 str1" x1="1503.13" y1="805.95" x2="1617.95" y2= "805.95" />
    </g>
    <g>
     <line class="fil0 str1" x1="67.85" y1="905.39" x2="182.67" y2= "905.39" />
    </g>
    <g>
     <line class="fil0 str1" x1="412.31" y1="905.39" x2="527.14" y2= "905.39" />
    </g>
    <g>
     <line class="fil0 str1" x1="1216.07" y1="905.39" x2="1330.89" y2= "905.39" />
    </g>
    <g>
     <line class="fil0 str1" x1="240.08" y1="1004.83" x2="354.9" y2= "1004.83" />
    </g>
    <g>
     <line class="fil0 str1" x1="469.73" y1="1004.83" x2="584.55" y2= "1004.83" />
    </g>
    <g>
     <line class="fil0 str1" x1="929.01" y1="1004.83" x2="1043.84" y2= "1004.83" />
    </g>
    <g>
     <line class="fil0 str1" x1="1273.48" y1="1004.83" x2="1388.3" y2= "1004.83" />
    </g>
    <g>
     <line class="fil0 str1" x1="182.67" y1="1104.27" x2="412.31" y2= "1104.27" />
    </g>
    <g>
     <line class="fil0 str1" x1="641.96" y1="1104.27" x2="756.78" y2= "1104.27" />
    </g>
    <g>
     <line class="fil0 str1" x1="986.43" y1="1104.27" x2="1445.72" y2= "1104.27" />
    </g>
    <g>
     <line class="fil0 str1" x1="699.37" y1="1203.71" x2="929.01" y2= "1203.71" />
    </g>
    <g>
     <line class="fil0 str1" x1="1043.84" y1="1203.71" x2="1273.48" y2= "1203.71" />
    </g>
    <g>
     <line class="fil0 str1" x1="641.96" y1="1303.14" x2="756.78" y2= "1303.14" />
    </g>
    <g>
     <line class="fil0 str1" x1="1445.72" y1="1303.14" x2="1560.54" y2= "1303.14" />
    </g>
    <g>
     <line class="fil0 str1" x1="354.9" y1="1402.58" x2="469.73" y2= "1402.58" />
    </g>
    <g>
     <line class="fil0 str1" x1="699.37" y1="1402.58" x2="814.19" y2= "1402.58" />
    </g>
    <g>
     <line class="fil0 str1" x1="929.01" y1="1402.58" x2="1043.84" y2= "1402.58" />
    </g>
    <g>
     <line class="fil0 str1" x1="527.14" y1="1502.02" x2="986.43" y2= "1502.02" />
    </g>
    <g>
     <line class="fil0 str1" x1="1330.89" y1="1502.02" x2="1445.72" y2= "1502.02" />
    </g>
    <g>
     <line class="fil0 str1" x1="469.73" y1="1601.46" x2="1388.3" y2= "1601.46" />
    </g>
    <g>
     <line class="fil0 str1" x1="67.85" y1="706.51" x2="10.44" y2= "805.95" />
    </g>
    <g>
     <line class="fil0 str1" x1="10.44" y1="805.95" x2="67.85" y2= "905.39" />
    </g>
    <g>
     <line class="fil0 str1" x1="125.26" y1="607.07" x2="67.85" y2= "706.51" />
    </g>
    <g>
     <line class="fil0 str1" x1="67.85" y1="905.39" x2="125.26" y2= "1004.83" />
    </g>
    <g>
     <line class="fil0 str1" x1="182.67" y1="507.63" x2="125.26" y2= "607.07" />
    </g>
    <g>
     <line class="fil0 str1" x1="125.26" y1="1004.83" x2="182.67" y2= "1104.27" />
    </g>
    <g>
     <line class="fil0 str1" x1="240.08" y1="408.19" x2="182.67" y2= "507.63" />
    </g>
    <g>
     <line class="fil0 str1" x1="182.67" y1="905.39" x2="240.08" y2= "1004.83" />
    </g>
    <g>
     <line class="fil0 str1" x1="182.67" y1="1104.27" x2="240.08" y2= "1203.71" />
    </g>
    <g>
     <line class="fil0 str1" x1="297.49" y1="308.76" x2="240.08" y2= "408.19" />
    </g>
    <g>
     <line class="fil0 str1" x1="297.49" y1="706.51" x2="240.08" y2= "805.95" />
    </g>
    <g>
     <line class="fil0 str1" x1="240.08" y1="805.95" x2="297.49" y2= "905.39" />
    </g>
    <g>
     <line class="fil0 str1" x1="240.08" y1="1203.71" x2="297.49" y2= "1303.14" />
    </g>
    <g>
     <line class="fil0 str1" x1="354.9" y1="209.32" x2="297.49" y2= "308.76" />
    </g>
    <g>
     <line class="fil0 str1" x1="354.9" y1="408.19" x2="297.49" y2= "507.63" />
    </g>
    <g>
     <line class="fil0 str1" x1="297.49" y1="507.63" x2="354.9" y2= "607.07" />
    </g>
    <g>
     <line class="fil0 str1" x1="354.9" y1="805.95" x2="297.49" y2= "905.39" />
    </g>
    <g>
     <line class="fil0 str1" x1="297.49" y1="1104.27" x2="354.9" y2= "1203.71" />
    </g>
    <g>
     <line class="fil0 str1" x1="297.49" y1="1303.14" x2="354.9" y2= "1402.58" />
    </g>
    <g>
     <polyline class="fil0 str1" points="412.31,109.88 354.9,209.32 412.31,308.76 "/>
    </g>
    <g>
     <line class="fil0 str1" x1="354.9" y1="1203.71" x2="412.31" y2= "1303.14" />
    </g>
    <g>
     <line class="fil0 str1" x1="354.9" y1="1402.58" x2="412.31" y2= "1502.02" />
    </g>
    <g>
     <line class="fil0 str1" x1="469.73" y1="10.44" x2="412.31" y2= "109.88" />
    </g>
    <g>
     <polyline class="fil0 str1" points="412.31,905.39 469.73,1004.83 412.31,1104.27 "/>
    </g>
    <g>
     <line class="fil0 str1" x1="469.73" y1="1203.71" x2="412.31" y2= "1303.14" />
    </g>
    <g>
     <line class="fil0 str1" x1="412.31" y1="1502.02" x2="469.73" y2= "1601.46" />
    </g>
    <g>
     <line class="fil0 str1" x1="469.73" y1="209.32" x2="527.14" y2= "308.76" />
    </g>
    <g>
     <polyline class="fil0 str1" points="469.73,607.07 527.14,706.51 469.73,805.95 "/>
    </g>
    <g>
     <line class="fil0 str1" x1="527.14" y1="1303.14" x2="469.73" y2= "1402.58" />
    </g>
    <g>
     <line class="fil0 str1" x1="584.55" y1="408.19" x2="527.14" y2= "507.63" />
    </g>
    <g>
     <line class="fil0 str1" x1="584.55" y1="805.95" x2="527.14" y2= "905.39" />
    </g>
    <g>
     <line class="fil0 str1" x1="584.55" y1="1004.83" x2="527.14" y2= "1104.27" />
    </g>
    <g>
     <line class="fil0 str1" x1="527.14" y1="1104.27" x2="584.55" y2= "1203.71" />
    </g>
    <g>
     <line class="fil0 str1" x1="641.96" y1="109.88" x2="584.55" y2= "209.32" />
    </g>
    <g>
     <line class="fil0 str1" x1="584.55" y1="408.19" x2="641.96" y2= "507.63" />
    </g>
    <g>
     <line class="fil0 str1" x1="584.55" y1="805.95" x2="641.96" y2= "905.39" />
    </g>
    <g>
     <line class="fil0 str1" x1="584.55" y1="1203.71" x2="641.96" y2= "1303.14" />
    </g>
    <g>
     <line class="fil0 str1" x1="641.96" y1="1303.14" x2="584.55" y2= "1402.58" />
    </g>
    <g>
     <line class="fil0 str1" x1="699.37" y1="209.32" x2="641.96" y2= "308.76" />
    </g>
    <g>
     <line class="fil0 str1" x1="641.96" y1="308.76" x2="699.37" y2= "408.19" />
    </g>
    <g>
     <polyline class="fil0 str1" points="699.37,607.07 641.96,706.51 699.37,805.95 "/>
    </g>
    <g>
     <line class="fil0 str1" x1="641.96" y1="905.39" x2="699.37" y2= "1004.83" />
    </g>
    <g>
     <line class="fil0 str1" x1="756.78" y1="109.88" x2="699.37" y2= "209.32" />
    </g>
    <g>
     <line class="fil0 str1" x1="756.78" y1="308.76" x2="699.37" y2= "408.19" />
    </g>
    <g>
     <line class="fil0 str1" x1="756.78" y1="706.51" x2="699.37" y2= "805.95" />
    </g>
    <g>
     <line class="fil0 str1" x1="699.37" y1="805.95" x2="756.78" y2= "905.39" />
    </g>
    <g>
     <line class="fil0 str1" x1="699.37" y1="1004.83" x2="756.78" y2= "1104.27" />
    </g>
    <g>
     <line class="fil0 str1" x1="756.78" y1="109.88" x2="814.19" y2= "209.32" />
    </g>
    <g>
     <line class="fil0 str1" x1="814.19" y1="408.19" x2="756.78" y2= "507.63" />
    </g>
    <g>
     <polyline class="fil0 str1" points="756.78,507.63 814.19,607.07 756.78,706.51 "/>
    </g>
    <g>
     <line class="fil0 str1" x1="756.78" y1="905.39" x2="814.19" y2= "1004.83" />
    </g>
    <g>
     <line class="fil0 str1" x1="756.78" y1="1104.27" x2="814.19" y2= "1203.71" />
    </g>
    <g>
     <line class="fil0 str1" x1="814.19" y1="10.44" x2="871.6" y2= "109.88" />
    </g>
    <g>
     <line class="fil0 str1" x1="814.19" y1="209.32" x2="871.6" y2= "308.76" />
    </g>
    <g>
     <line class="fil0 str1" x1="814.19" y1="1004.83" x2="871.6" y2= "1104.27" />
    </g>
    <g>
     <line class="fil0 str1" x1="814.19" y1="1203.71" x2="871.6" y2= "1303.14" />
    </g>
    <g>
     <polyline class="fil0 str1" points="871.6,1303.14 814.19,1402.58 871.6,1502.02 "/>
    </g>
    <g>
     <line class="fil0 str1" x1="871.6" y1="109.88" x2="929.01" y2= "209.32" />
    </g>
    <g>
     <line class="fil0 str1" x1="871.6" y1="308.76" x2="929.01" y2= "408.19" />
    </g>
    <g>
     <line class="fil0 str1" x1="929.01" y1="209.32" x2="986.43" y2= "308.76" />
    </g>
    <g>
     <line class="fil0 str1" x1="929.01" y1="1004.83" x2="986.43" y2= "1104.27" />
    </g>
    <g>
     <line class="fil0 str1" x1="986.43" y1="1104.27" x2="929.01" y2= "1203.71" />
    </g>
    <g>
     <line class="fil0 str1" x1="986.43" y1="1303.14" x2="929.01" y2= "1402.58" />
    </g>
    <g>
     <line class="fil0 str1" x1="1043.84" y1="10.44" x2="986.43" y2= "109.88" />
    </g>
    <g>
     <line class="fil0 str1" x1="1043.84" y1="209.32" x2="986.43" y2= "308.76" />
    </g>
    <g>
     <line class="fil0 str1" x1="1043.84" y1="408.19" x2="986.43" y2= "507.63" />
    </g>
    <g>
     <line class="fil0 str1" x1="1043.84" y1="1203.71" x2="986.43" y2= "1303.14" />
    </g>
    <g>
     <line class="fil0 str1" x1="1101.25" y1="308.76" x2="1043.84" y2= "408.19" />
    </g>
    <g>
     <polyline class="fil0 str1" points="1101.25,507.63 1043.84,607.07 1101.25,706.51 "/>
    </g>
    <g>
     <line class="fil0 str1" x1="1101.25" y1="905.39" x2="1043.84" y2= "1004.83" />
    </g>
    <g>
     <polyline class="fil0 str1" points="1101.25,1303.14 1043.84,1402.58 1101.25,1502.02 "/>
    </g>
    <g>
     <line class="fil0 str1" x1="1158.66" y1="10.44" x2="1101.25" y2= "109.88" />
    </g>
    <g>
     <line class="fil0 str1" x1="1158.66" y1="209.32" x2="1101.25" y2= "308.76" />
    </g>
    <g>
     <line class="fil0 str1" x1="1101.25" y1="706.51" x2="1158.66" y2= "805.95" />
    </g>
    <g>
     <line class="fil0 str1" x1="1158.66" y1="805.95" x2="1101.25" y2= "905.39" />
    </g>
    <g>
     <line class="fil0 str1" x1="1101.25" y1="905.39" x2="1158.66" y2= "1004.83" />
    </g>
    <g>
     <line class="fil0 str1" x1="1216.07" y1="109.88" x2="1158.66" y2= "209.32" />
    </g>
    <g>
     <line class="fil0 str1" x1="1158.66" y1="1203.71" x2="1216.07" y2= "1303.14" />
    </g>
    <g>
     <line class="fil0 str1" x1="1216.07" y1="1303.14" x2="1158.66" y2= "1402.58" />
    </g>
    <g>
     <line class="fil0 str1" x1="1216.07" y1="1502.02" x2="1158.66" y2= "1601.46" />
    </g>
    <g>
     <line class="fil0 str1" x1="1273.48" y1="209.32" x2="1216.07" y2= "308.76" />
    </g>
    <g>
     <line class="fil0 str1" x1="1216.07" y1="706.51" x2="1273.48" y2= "805.95" />
    </g>
    <g>
     <line class="fil0 str1" x1="1216.07" y1="905.39" x2="1273.48" y2= "1004.83" />
    </g>
    <g>
     <polyline class="fil0 str1" points="1216.07,1303.14 1273.48,1402.58 1216.07,1502.02 "/>
    </g>
    <g>
     <polyline class="fil0 str1" points="1273.48,10.44 1330.89,109.88 1273.48,209.32 "/>
    </g>
    <g>
     <line class="fil0 str1" x1="1330.89" y1="308.76" x2="1273.48" y2= "408.19" />
    </g>
    <g>
     <line class="fil0 str1" x1="1273.48" y1="607.07" x2="1330.89" y2= "706.51" />
    </g>
    <g>
     <line class="fil0 str1" x1="1273.48" y1="1203.71" x2="1330.89" y2= "1303.14" />
    </g>
    <g>
     <line class="fil0 str1" x1="1388.3" y1="408.19" x2="1330.89" y2= "507.63" />
    </g>
    <g>
     <line class="fil0 str1" x1="1330.89" y1="1303.14" x2="1388.3" y2= "1402.58" />
    </g>
    <g>
     <line class="fil0 str1" x1="1388.3" y1="10.44" x2="1445.72" y2= "109.88" />
    </g>
    <g>
     <line class="fil0 str1" x1="1388.3" y1="209.32" x2="1445.72" y2= "308.76" />
    </g>
    <g>
     <line class="fil0 str1" x1="1388.3" y1="408.19" x2="1445.72" y2= "507.63" />
    </g>
    <g>
     <line class="fil0 str1" x1="1445.72" y1="507.63" x2="1388.3" y2= "607.07" />
    </g>
    <g>
     <line class="fil0 str1" x1="1445.72" y1="905.39" x2="1388.3" y2= "1004.83" />
    </g>
    <g>
     <line class="fil0 str1" x1="1388.3" y1="1203.71" x2="1445.72" y2= "1303.14" />
    </g>
    <g>
     <line class="fil0 str1" x1="1445.72" y1="1502.02" x2="1388.3" y2= "1601.46" />
    </g>
    <g>
     <line class="fil0 str1" x1="1445.72" y1="109.88" x2="1503.13" y2= "209.32" />
    </g>
    <g>
     <line class="fil0 str1" x1="1445.72" y1="308.76" x2="1503.13" y2= "408.19" />
    </g>
    <g>
     <line class="fil0 str1" x1="1445.72" y1="706.51" x2="1503.13" y2= "805.95" />
    </g>
    <g>
     <line class="fil0 str1" x1="1503.13" y1="805.95" x2="1445.72" y2= "905.39" />
    </g>
    <g>
     <line class="fil0 str1" x1="1503.13" y1="1004.83" x2="1445.72" y2= "1104.27" />
    </g>
    <g>
     <line class="fil0 str1" x1="1445.72" y1="1104.27" x2="1503.13" y2= "1203.71" />
    </g>
    <g>
     <line class="fil0 str1" x1="1503.13" y1="1402.58" x2="1445.72" y2= "1502.02" />
    </g>
    <g>
     <line class="fil0 str1" x1="1503.13" y1="209.32" x2="1560.54" y2= "308.76" />
    </g>
    <g>
     <polyline class="fil0 str1" points="1560.54,905.39 1503.13,1004.83 1560.54,1104.27 "/>
    </g>
    <g>
     <line class="fil0 str1" x1="1560.54" y1="1303.14" x2="1503.13" y2= "1402.58" />
    </g>
    <g>
     <line class="fil0 str1" x1="1560.54" y1="308.76" x2="1617.95" y2= "408.19" />
    </g>
    <g>
     <line class="fil0 str1" x1="1560.54" y1="507.63" x2="1617.95" y2= "607.07" />
    </g>
    <g>
     <line class="fil0 str1" x1="1617.95" y1="1203.71" x2="1560.54" y2= "1303.14" />
    </g>
    <g>
     <line class="fil0 str1" x1="1617.95" y1="408.19" x2="1675.36" y2= "507.63" />
    </g>
    <g>
     <line class="fil0 str1" x1="1617.95" y1="805.95" x2="1675.36" y2= "905.39" />
    </g>
    <g>
     <line class="fil0 str1" x1="1675.36" y1="905.39" x2="1617.95" y2= "1004.83" />
    </g>
    <g>
     <line class="fil0 str1" x1="1675.36" y1="1104.27" x2="1617.95" y2= "1203.71" />
    </g>
    <g>
     <polyline class="fil0 str1" points="1675.36,507.63 1732.77,607.07 1675.36,706.51 "/>
    </g>
    <g>
     <line class="fil0 str1" x1="1732.77" y1="1004.83" x2="1675.36" y2= "1104.27" />
    </g>
    <g>
     <line class="fil0 str1" x1="1732.77" y1="607.07" x2="1790.18" y2= "706.51" />
    </g>
    <g>
     <line class="fil0 str1" x1="1732.77" y1="805.95" x2="1790.18" y2= "905.39" />
    </g>
    <g>
     <line class="fil0 str1" x1="1790.18" y1="905.39" x2="1732.77" y2= "1004.83" />
    </g>
    <g>
     <line class="fil0 str1" x1="1790.18" y1="706.51" x2="1847.59" y2= "805.95" />
    </g>
    <g>
     <line class="fil0 str1" x1="1847.59" y1="805.95" x2="1790.18" y2= "905.39" />
    </g>
   </g>
  </g>
  <polyline class="fil0 str2" points="980.73,10.44 923.32,109.88 952.03,159.6 1066.85,159.6 1095.56,209.32 1009.44,358.47 952.03,358.47 779.8,60.16 607.56,60.16 550.15,159.6 435.33,159.6 406.62,209.32 464.04,308.76 435.33,358.47 320.51,358.47 234.39,507.63 291.8,607.07 263.1,656.79 148.27,656.79 62.16,805.95 90.86,855.67 205.69,855.67 263.1,955.11 320.51,955.11 377.92,855.67 492.74,855.67 550.15,756.23 607.56,756.23 837.21,1153.99 894.62,1153.99 923.32,1104.27 865.91,1004.83 "/>
 </g>
</svg>
