<?xml version="1.0" encoding="UTF-8"?>
<!DOCTYPE svg PUBLIC "-//W3C//DTD SVG 1.1//EN" "http://www.w3.org/Graphics/SVG/1.1/DTD/svg11.dtd">
<!-- Creator: CorelDRAW 2018 (64-Bit) -->
<svg xmlns="http://www.w3.org/2000/svg" xml:space="preserve" width="3.39583in" height="3.83053in" version="1.1" style="shape-rendering:geometricPrecision; text-rendering:geometricPrecision; image-rendering:optimizeQuality; fill-rule:evenodd; clip-rule:evenodd"
viewBox="0 0 282.58 318.76"
 xmlns:xlink="http://www.w3.org/1999/xlink">
 <defs>
  <style type="text/css">
   <![CDATA[
    .str0 {stroke:black;stroke-width:3.47;stroke-linecap:round;stroke-linejoin:round;stroke-miterlimit:2.61313}
    .str1 {stroke:yellow;stroke-width:2.31;stroke-linecap:round;stroke-linejoin:round;stroke-miterlimit:2.61313}
    .fil0 {fill:none}
   ]]>
  </style>
 </defs>
 <g id="Layer_x0020_1">
  <metadata id="CorelCorpID_0Corel-Layer"/>
  <g id="hex2.svg">
   <g>
    <g>
     <polyline class="fil0 str0" points="110.95,22.75 117.02,12.24 129.16,12.24 135.22,1.73 "/>
    </g>
    <g>
     <polyline class="fil0 str0" points="147.36,1.73 153.43,12.24 165.56,12.24 171.63,22.75 "/>
    </g>
    <g>
     <polyline class="fil0 str0" points="74.55,43.77 80.61,33.26 92.75,33.26 98.82,22.75 110.95,22.75 "/>
    </g>
    <g>
     <polyline class="fil0 str0" points="110.95,43.77 117.02,33.26 129.16,33.26 135.22,22.75 147.36,22.75 153.43,33.26 165.56,33.26 171.63,43.77 "/>
    </g>
    <g>
     <polyline class="fil0 str0" points="171.63,22.75 183.77,22.75 189.83,33.26 201.97,33.26 208.04,43.77 "/>
    </g>
    <g>
     <polyline class="fil0 str0" points="38.14,64.79 44.21,54.28 56.34,54.28 62.41,43.77 74.55,43.77 "/>
    </g>
    <g>
     <polyline class="fil0 str0" points="74.55,64.79 80.61,54.28 92.75,54.28 98.82,64.79 "/>
    </g>
    <g>
     <line class="fil0 str0" x1="98.82" y1="43.77" x2="110.95" y2= "43.77" />
    </g>
    <g>
     <polyline class="fil0 str0" points="110.95,64.79 117.02,54.28 129.16,54.28 135.22,43.77 147.36,43.77 "/>
    </g>
    <g>
     <polyline class="fil0 str0" points="147.36,64.79 153.43,54.28 165.56,54.28 171.63,64.79 "/>
    </g>
    <g>
     <polyline class="fil0 str0" points="165.56,54.28 171.63,43.77 183.77,43.77 "/>
    </g>
    <g>
     <polyline class="fil0 str0" points="189.83,54.28 201.97,54.28 208.04,64.79 "/>
    </g>
    <g>
     <polyline class="fil0 str0" points="201.97,54.28 208.04,43.77 220.17,43.77 226.24,54.28 238.38,54.28 244.44,64.79 "/>
    </g>
    <g>
     <polyline class="fil0 str0" points="7.8,96.32 1.73,85.81 7.8,75.3 19.94,75.3 26,85.81 "/>
    </g>
    <g>
     <polyline class="fil0 str0" points="19.94,75.3 26,64.79 38.14,64.79 "/>
    </g>
    <g>
     <polyline class="fil0 str0" points="44.21,75.3 56.34,75.3 62.41,85.81 "/>
    </g>
    <g>
     <polyline class="fil0 str0" points="56.34,75.3 62.41,64.79 74.55,64.79 "/>
    </g>
    <g>
     <line class="fil0 str0" x1="74.55" y1="85.81" x2="80.61" y2= "75.3" />
    </g>
    <g>
     <polyline class="fil0 str0" points="98.82,85.81 92.75,75.3 98.82,64.79 110.95,64.79 "/>
    </g>
    <g>
     <polyline class="fil0 str0" points="110.95,85.81 117.02,75.3 129.16,75.3 135.22,85.81 "/>
    </g>
    <g>
     <line class="fil0 str0" x1="129.16" y1="75.3" x2="135.22" y2= "64.79" />
    </g>
    <g>
     <polyline class="fil0 str0" points="147.36,64.79 153.43,75.3 147.36,85.81 "/>
    </g>
    <g>
     <line class="fil0 str0" x1="153.43" y1="75.3" x2="165.56" y2= "75.3" />
    </g>
    <g>
     <polyline class="fil0 str0" points="171.63,64.79 183.77,64.79 189.83,75.3 183.77,85.81 "/>
    </g>
    <g>
     <line class="fil0 str0" x1="201.97" y1="75.3" x2="208.04" y2= "64.79" />
    </g>
    <g>
     <polyline class="fil0 str0" points="220.17,64.79 226.24,75.3 220.17,85.81 "/>
    </g>
    <g>
     <polyline class="fil0 str0" points="226.24,75.3 238.38,75.3 244.44,85.81 "/>
    </g>
    <g>
     <polyline class="fil0 str0" points="244.44,64.79 256.58,64.79 262.65,75.3 274.78,75.3 280.85,85.81 274.78,96.32 "/>
    </g>
    <g>
     <polyline class="fil0 str0" points="7.8,117.34 1.73,106.83 7.8,96.32 "/>
    </g>
    <g>
     <line class="fil0 str0" x1="19.94" y1="96.32" x2="26" y2= "106.83" />
    </g>
    <g>
     <polyline class="fil0 str0" points="26,85.81 38.14,85.81 44.21,96.32 "/>
    </g>
    <g>
     <polyline class="fil0 str0" points="62.41,106.83 56.34,96.32 62.41,85.81 "/>
    </g>
    <g>
     <polyline class="fil0 str0" points="74.55,85.81 80.61,96.32 74.55,106.83 "/>
    </g>
    <g>
     <polyline class="fil0 str0" points="80.61,96.32 92.75,96.32 98.82,106.83 "/>
    </g>
    <g>
     <line class="fil0 str0" x1="98.82" y1="85.81" x2="110.95" y2= "85.81" />
    </g>
    <g>
     <line class="fil0 str0" x1="110.95" y1="106.83" x2="117.02" y2= "96.32" />
    </g>
    <g>
     <line class="fil0 str0" x1="129.16" y1="96.32" x2="135.22" y2= "106.83" />
    </g>
    <g>
     <polyline class="fil0 str0" points="147.36,85.81 153.43,96.32 147.36,106.83 "/>
    </g>
    <g>
     <polyline class="fil0 str0" points="171.63,106.83 165.56,96.32 171.63,85.81 183.77,85.81 189.83,96.32 183.77,106.83 "/>
    </g>
    <g>
     <polyline class="fil0 str0" points="189.83,96.32 201.97,96.32 208.04,106.83 "/>
    </g>
    <g>
     <polyline class="fil0 str0" points="201.97,96.32 208.04,85.81 220.17,85.81 "/>
    </g>
    <g>
     <line class="fil0 str0" x1="220.17" y1="106.83" x2="226.24" y2= "96.32" />
    </g>
    <g>
     <polyline class="fil0 str0" points="238.38,96.32 244.44,85.81 256.58,85.81 "/>
    </g>
    <g>
     <polyline class="fil0 str0" points="262.65,96.32 274.78,96.32 280.85,106.83 274.78,117.34 "/>
    </g>
    <g>
     <polyline class="fil0 str0" points="7.8,138.36 1.73,127.85 7.8,117.34 19.94,117.34 "/>
    </g>
    <g>
     <polyline class="fil0 str0" points="26,106.83 38.14,106.83 44.21,117.34 38.14,127.85 "/>
    </g>
    <g>
     <polyline class="fil0 str0" points="44.21,117.34 56.34,117.34 62.41,127.85 "/>
    </g>
    <g>
     <line class="fil0 str0" x1="56.34" y1="117.34" x2="62.41" y2= "106.83" />
    </g>
    <g>
     <polyline class="fil0 str0" points="74.55,106.83 80.61,117.34 74.55,127.85 "/>
    </g>
    <g>
     <line class="fil0 str0" x1="92.75" y1="117.34" x2="98.82" y2= "127.85" />
    </g>
    <g>
     <polyline class="fil0 str0" points="98.82,106.83 110.95,106.83 117.02,117.34 "/>
    </g>
    <g>
     <polyline class="fil0 str0" points="129.16,117.34 135.22,106.83 147.36,106.83 153.43,117.34 147.36,127.85 "/>
    </g>
    <g>
     <line class="fil0 str0" x1="165.56" y1="117.34" x2="171.63" y2= "106.83" />
    </g>
    <g>
     <polyline class="fil0 str0" points="183.77,106.83 189.83,117.34 183.77,127.85 "/>
    </g>
    <g>
     <line class="fil0 str0" x1="201.97" y1="117.34" x2="208.04" y2= "127.85" />
    </g>
    <g>
     <line class="fil0 str0" x1="208.04" y1="106.83" x2="220.17" y2= "106.83" />
    </g>
    <g>
     <polyline class="fil0 str0" points="220.17,127.85 226.24,117.34 238.38,117.34 244.44,106.83 256.58,106.83 262.65,117.34 256.58,127.85 "/>
    </g>
    <g>
     <polyline class="fil0 str0" points="262.65,117.34 274.78,117.34 280.85,127.85 274.78,138.36 "/>
    </g>
    <g>
     <polyline class="fil0 str0" points="7.8,159.38 1.73,148.87 7.8,138.36 "/>
    </g>
    <g>
     <polyline class="fil0 str0" points="26,148.87 19.94,138.36 26,127.85 38.14,127.85 "/>
    </g>
    <g>
     <line class="fil0 str0" x1="38.14" y1="148.87" x2="44.21" y2= "138.36" />
    </g>
    <g>
     <line class="fil0 str0" x1="56.34" y1="138.36" x2="62.41" y2= "127.85" />
    </g>
    <g>
     <polyline class="fil0 str0" points="74.55,127.85 80.61,138.36 74.55,148.87 "/>
    </g>
    <g>
     <line class="fil0 str0" x1="80.61" y1="138.36" x2="92.75" y2= "138.36" />
    </g>
    <g>
     <polyline class="fil0 str0" points="98.82,127.85 110.95,127.85 117.02,138.36 110.95,148.87 "/>
    </g>
    <g>
     <polyline class="fil0 str0" points="117.02,138.36 129.16,138.36 135.22,127.85 147.36,127.85 153.43,138.36 165.56,138.36 171.63,148.87 "/>
    </g>
    <g>
     <line class="fil0 str0" x1="165.56" y1="138.36" x2="171.63" y2= "127.85" />
    </g>
    <g>
     <polyline class="fil0 str0" points="183.77,148.87 189.83,138.36 201.97,138.36 208.04,148.87 "/>
    </g>
    <g>
     <line class="fil0 str0" x1="201.97" y1="138.36" x2="208.04" y2= "127.85" />
    </g>
    <g>
     <polyline class="fil0 str0" points="220.17,127.85 226.24,138.36 220.17,148.87 "/>
    </g>
    <g>
     <polyline class="fil0 str0" points="244.44,148.87 238.38,138.36 244.44,127.85 "/>
    </g>
    <g>
     <line class="fil0 str0" x1="256.58" y1="148.87" x2="262.65" y2= "138.36" />
    </g>
    <g>
     <polyline class="fil0 str0" points="274.78,138.36 280.85,148.87 274.78,159.38 "/>
    </g>
    <g>
     <polyline class="fil0 str0" points="7.8,180.4 1.73,169.89 7.8,159.38 "/>
    </g>
    <g>
     <polyline class="fil0 str0" points="19.94,159.38 26,148.87 38.14,148.87 44.21,159.38 56.34,159.38 62.41,169.89 "/>
    </g>
    <g>
     <polyline class="fil0 str0" points="56.34,159.38 62.41,148.87 74.55,148.87 80.61,159.38 92.75,159.38 98.82,169.89 "/>
    </g>
    <g>
     <line class="fil0 str0" x1="92.75" y1="159.38" x2="98.82" y2= "148.87" />
    </g>
    <g>
     <polyline class="fil0 str0" points="110.95,148.87 117.02,159.38 110.95,169.89 "/>
    </g>
    <g>
     <polyline class="fil0 str0" points="171.63,169.89 165.56,159.38 171.63,148.87 183.77,148.87 "/>
    </g>
    <g>
     <polyline class="fil0 str0" points="183.77,169.89 189.83,159.38 201.97,159.38 208.04,169.89 "/>
    </g>
    <g>
     <line class="fil0 str0" x1="208.04" y1="148.87" x2="220.17" y2= "148.87" />
    </g>
    <g>
     <polyline class="fil0 str0" points="220.17,169.89 226.24,159.38 238.38,159.38 244.44,169.89 "/>
    </g>
    <g>
     <polyline class="fil0 str0" points="238.38,159.38 244.44,148.87 256.58,148.87 262.65,159.38 "/>
    </g>
    <g>
     <polyline class="fil0 str0" points="274.78,159.38 280.85,169.89 274.78,180.4 "/>
    </g>
    <g>
     <polyline class="fil0 str0" points="7.8,201.42 1.73,190.91 7.8,180.4 "/>
    </g>
    <g>
     <polyline class="fil0 str0" points="26,190.91 19.94,180.4 26,169.89 38.14,169.89 "/>
    </g>
    <g>
     <polyline class="fil0 str0" points="38.14,190.91 44.21,180.4 56.34,180.4 62.41,169.89 "/>
    </g>
    <g>
     <polyline class="fil0 str0" points="74.55,169.89 80.61,180.4 74.55,190.91 "/>
    </g>
    <g>
     <polyline class="fil0 str0" points="98.82,190.91 92.75,180.4 98.82,169.89 "/>
    </g>
    <g>
     <polyline class="fil0 str0" points="110.95,169.89 117.02,180.4 129.16,180.4 135.22,190.91 "/>
    </g>
    <g>
     <polyline class="fil0 str0" points="147.36,190.91 153.43,180.4 165.56,180.4 171.63,169.89 "/>
    </g>
    <g>
     <line class="fil0 str0" x1="183.77" y1="190.91" x2="189.83" y2= "180.4" />
    </g>
    <g>
     <polyline class="fil0 str0" points="208.04,190.91 201.97,180.4 208.04,169.89 220.17,169.89 "/>
    </g>
    <g>
     <line class="fil0 str0" x1="220.17" y1="190.91" x2="226.24" y2= "180.4" />
    </g>
    <g>
     <line class="fil0 str0" x1="238.38" y1="180.4" x2="244.44" y2= "190.91" />
    </g>
    <g>
     <polyline class="fil0 str0" points="256.58,169.89 262.65,180.4 274.78,180.4 280.85,190.91 274.78,201.42 "/>
    </g>
    <g>
     <polyline class="fil0 str0" points="7.8,222.44 1.73,211.93 7.8,201.42 "/>
    </g>
    <g>
     <polyline class="fil0 str0" points="26,211.93 19.94,201.42 26,190.91 "/>
    </g>
    <g>
     <polyline class="fil0 str0" points="38.14,190.91 44.21,201.42 38.14,211.93 "/>
    </g>
    <g>
     <polyline class="fil0 str0" points="44.21,201.42 56.34,201.42 62.41,211.93 "/>
    </g>
    <g>
     <polyline class="fil0 str0" points="62.41,190.91 74.55,190.91 80.61,201.42 74.55,211.93 "/>
    </g>
    <g>
     <line class="fil0 str0" x1="80.61" y1="201.42" x2="92.75" y2= "201.42" />
    </g>
    <g>
     <polyline class="fil0 str0" points="98.82,190.91 110.95,190.91 117.02,201.42 110.95,211.93 "/>
    </g>
    <g>
     <polyline class="fil0 str0" points="117.02,201.42 129.16,201.42 135.22,211.93 "/>
    </g>
    <g>
     <line class="fil0 str0" x1="129.16" y1="201.42" x2="135.22" y2= "190.91" />
    </g>
    <g>
     <polyline class="fil0 str0" points="147.36,190.91 153.43,201.42 165.56,201.42 171.63,211.93 "/>
    </g>
    <g>
     <polyline class="fil0 str0" points="165.56,201.42 171.63,190.91 183.77,190.91 "/>
    </g>
    <g>
     <polyline class="fil0 str0" points="189.83,201.42 201.97,201.42 208.04,211.93 "/>
    </g>
    <g>
     <polyline class="fil0 str0" points="201.97,201.42 208.04,190.91 220.17,190.91 226.24,201.42 238.38,201.42 "/>
    </g>
    <g>
     <polyline class="fil0 str0" points="244.44,190.91 256.58,190.91 262.65,201.42 256.58,211.93 "/>
    </g>
    <g>
     <polyline class="fil0 str0" points="262.65,201.42 274.78,201.42 280.85,211.93 274.78,222.44 "/>
    </g>
    <g>
     <polyline class="fil0 str0" points="7.8,243.46 1.73,232.95 7.8,222.44 "/>
    </g>
    <g>
     <polyline class="fil0 str0" points="26,232.95 19.94,222.44 26,211.93 "/>
    </g>
    <g>
     <polyline class="fil0 str0" points="38.14,232.95 44.21,222.44 56.34,222.44 62.41,232.95 "/>
    </g>
    <g>
     <polyline class="fil0 str0" points="74.55,211.93 80.61,222.44 74.55,232.95 "/>
    </g>
    <g>
     <polyline class="fil0 str0" points="80.61,222.44 92.75,222.44 98.82,232.95 "/>
    </g>
    <g>
     <line class="fil0 str0" x1="98.82" y1="211.93" x2="110.95" y2= "211.93" />
    </g>
    <g>
     <polyline class="fil0 str0" points="110.95,232.95 117.02,222.44 129.16,222.44 135.22,232.95 "/>
    </g>
    <g>
     <polyline class="fil0 str0" points="135.22,211.93 147.36,211.93 153.43,222.44 165.56,222.44 171.63,232.95 "/>
    </g>
    <g>
     <line class="fil0 str0" x1="171.63" y1="211.93" x2="183.77" y2= "211.93" />
    </g>
    <g>
     <polyline class="fil0 str0" points="183.77,232.95 189.83,222.44 201.97,222.44 208.04,211.93 "/>
    </g>
    <g>
     <polyline class="fil0 str0" points="220.17,211.93 226.24,222.44 220.17,232.95 "/>
    </g>
    <g>
     <polyline class="fil0 str0" points="226.24,222.44 238.38,222.44 244.44,232.95 "/>
    </g>
    <g>
     <polyline class="fil0 str0" points="238.38,222.44 244.44,211.93 256.58,211.93 "/>
    </g>
    <g>
     <line class="fil0 str0" x1="256.58" y1="232.95" x2="262.65" y2= "222.44" />
    </g>
    <g>
     <polyline class="fil0 str0" points="274.78,222.44 280.85,232.95 274.78,243.46 "/>
    </g>
    <g>
     <polyline class="fil0 str0" points="7.8,243.46 19.94,243.46 26,253.97 "/>
    </g>
    <g>
     <polyline class="fil0 str0" points="26,232.95 38.14,232.95 44.21,243.46 "/>
    </g>
    <g>
     <polyline class="fil0 str0" points="56.34,243.46 62.41,232.95 74.55,232.95 "/>
    </g>
    <g>
     <polyline class="fil0 str0" points="80.61,243.46 92.75,243.46 98.82,232.95 110.95,232.95 117.02,243.46 110.95,253.97 "/>
    </g>
    <g>
     <polyline class="fil0 str0" points="135.22,253.97 129.16,243.46 135.22,232.95 "/>
    </g>
    <g>
     <polyline class="fil0 str0" points="147.36,232.95 153.43,243.46 147.36,253.97 "/>
    </g>
    <g>
     <polyline class="fil0 str0" points="153.43,243.46 165.56,243.46 171.63,232.95 183.77,232.95 "/>
    </g>
    <g>
     <polyline class="fil0 str0" points="183.77,253.97 189.83,243.46 201.97,243.46 208.04,232.95 "/>
    </g>
    <g>
     <polyline class="fil0 str0" points="220.17,232.95 226.24,243.46 220.17,253.97 "/>
    </g>
    <g>
     <line class="fil0 str0" x1="238.38" y1="243.46" x2="244.44" y2= "253.97" />
    </g>
    <g>
     <line class="fil0 str0" x1="244.44" y1="232.95" x2="256.58" y2= "232.95" />
    </g>
    <g>
     <polyline class="fil0 str0" points="256.58,253.97 262.65,243.46 274.78,243.46 "/>
    </g>
    <g>
     <polyline class="fil0 str0" points="26,253.97 38.14,253.97 44.21,264.48 56.34,264.48 62.41,274.99 "/>
    </g>
    <g>
     <polyline class="fil0 str0" points="56.34,264.48 62.41,253.97 74.55,253.97 "/>
    </g>
    <g>
     <polyline class="fil0 str0" points="80.61,264.48 92.75,264.48 98.82,274.99 "/>
    </g>
    <g>
     <line class="fil0 str0" x1="92.75" y1="264.48" x2="98.82" y2= "253.97" />
    </g>
    <g>
     <line class="fil0 str0" x1="110.95" y1="253.97" x2="117.02" y2= "264.48" />
    </g>
    <g>
     <polyline class="fil0 str0" points="135.22,274.99 129.16,264.48 135.22,253.97 "/>
    </g>
    <g>
     <polyline class="fil0 str0" points="147.36,253.97 153.43,264.48 147.36,274.99 "/>
    </g>
    <g>
     <polyline class="fil0 str0" points="171.63,274.99 165.56,264.48 171.63,253.97 183.77,253.97 "/>
    </g>
    <g>
     <polyline class="fil0 str0" points="189.83,264.48 201.97,264.48 208.04,253.97 220.17,253.97 "/>
    </g>
    <g>
     <polyline class="fil0 str0" points="220.17,274.99 226.24,264.48 238.38,264.48 244.44,253.97 256.58,253.97 "/>
    </g>
    <g>
     <polyline class="fil0 str0" points="62.41,274.99 74.55,274.99 80.61,285.49 92.75,285.49 98.82,296 "/>
    </g>
    <g>
     <polyline class="fil0 str0" points="98.82,274.99 110.95,274.99 117.02,285.49 129.16,285.49 135.22,296 "/>
    </g>
    <g>
     <line class="fil0 str0" x1="129.16" y1="285.49" x2="135.22" y2= "274.99" />
    </g>
    <g>
     <line class="fil0 str0" x1="147.36" y1="274.99" x2="153.43" y2= "285.49" />
    </g>
    <g>
     <polyline class="fil0 str0" points="165.56,285.49 171.63,274.99 183.77,274.99 189.83,285.49 183.77,296 "/>
    </g>
    <g>
     <polyline class="fil0 str0" points="189.83,285.49 201.97,285.49 208.04,274.99 220.17,274.99 "/>
    </g>
    <g>
     <polyline class="fil0 str0" points="98.82,296 110.95,296 117.02,306.51 129.16,306.51 135.22,317.02 "/>
    </g>
    <g>
     <polyline class="fil0 str0" points="135.22,296 147.36,296 153.43,306.51 147.36,317.02 "/>
    </g>
    <g>
     <polyline class="fil0 str0" points="153.43,306.51 165.56,306.51 171.63,296 183.77,296 "/>
    </g>
    <g>
     <line class="fil0 str0" x1="147.36" y1="317.02" x2="135.22" y2= "317.02" />
    </g>
   </g>
  </g>
  <g id="hex2.svg_0">
   <g>
    <g>
     <polyline class="fil0 str1" points="110.95,22.75 117.02,12.24 129.16,12.24 135.22,1.73 "/>
    </g>
    <g>
     <polyline class="fil0 str1" points="147.36,1.73 153.43,12.24 165.56,12.24 171.63,22.75 "/>
    </g>
    <g>
     <polyline class="fil0 str1" points="74.55,43.77 80.61,33.26 92.75,33.26 98.82,22.75 110.95,22.75 "/>
    </g>
    <g>
     <polyline class="fil0 str1" points="110.95,43.77 117.02,33.26 129.16,33.26 135.22,22.75 147.36,22.75 153.43,33.26 165.56,33.26 171.63,43.77 "/>
    </g>
    <g>
     <polyline class="fil0 str1" points="171.63,22.75 183.77,22.75 189.83,33.26 201.97,33.26 208.04,43.77 "/>
    </g>
    <g>
     <polyline class="fil0 str1" points="38.14,64.79 44.21,54.28 56.34,54.28 62.41,43.77 74.55,43.77 "/>
    </g>
    <g>
     <polyline class="fil0 str1" points="74.55,64.79 80.61,54.28 92.75,54.28 98.82,64.79 "/>
    </g>
    <g>
     <line class="fil0 str1" x1="98.82" y1="43.77" x2="110.95" y2= "43.77" />
    </g>
    <g>
     <polyline class="fil0 str1" points="110.95,64.79 117.02,54.28 129.16,54.28 135.22,43.77 147.36,43.77 "/>
    </g>
    <g>
     <polyline class="fil0 str1" points="147.36,64.79 153.43,54.28 165.56,54.28 171.63,64.79 "/>
    </g>
    <g>
     <polyline class="fil0 str1" points="165.56,54.28 171.63,43.77 183.77,43.77 "/>
    </g>
    <g>
     <polyline class="fil0 str1" points="189.83,54.28 201.97,54.28 208.04,64.79 "/>
    </g>
    <g>
     <polyline class="fil0 str1" points="201.97,54.28 208.04,43.77 220.17,43.77 226.24,54.28 238.38,54.28 244.44,64.79 "/>
    </g>
    <g>
     <polyline class="fil0 str1" points="7.8,96.32 1.73,85.81 7.8,75.3 19.94,75.3 26,85.81 "/>
    </g>
    <g>
     <polyline class="fil0 str1" points="19.94,75.3 26,64.79 38.14,64.79 "/>
    </g>
    <g>
     <polyline class="fil0 str1" points="44.21,75.3 56.34,75.3 62.41,85.81 "/>
    </g>
    <g>
     <polyline class="fil0 str1" points="56.34,75.3 62.41,64.79 74.55,64.79 "/>
    </g>
    <g>
     <line class="fil0 str1" x1="74.55" y1="85.81" x2="80.61" y2= "75.3" />
    </g>
    <g>
     <polyline class="fil0 str1" points="98.82,85.81 92.75,75.3 98.82,64.79 110.95,64.79 "/>
    </g>
    <g>
     <polyline class="fil0 str1" points="110.95,85.81 117.02,75.3 129.16,75.3 135.22,85.81 "/>
    </g>
    <g>
     <line class="fil0 str1" x1="129.16" y1="75.3" x2="135.22" y2= "64.79" />
    </g>
    <g>
     <polyline class="fil0 str1" points="147.36,64.79 153.43,75.3 147.36,85.81 "/>
    </g>
    <g>
     <line class="fil0 str1" x1="153.43" y1="75.3" x2="165.56" y2= "75.3" />
    </g>
    <g>
     <polyline class="fil0 str1" points="171.63,64.79 183.77,64.79 189.83,75.3 183.77,85.81 "/>
    </g>
    <g>
     <line class="fil0 str1" x1="201.97" y1="75.3" x2="208.04" y2= "64.79" />
    </g>
    <g>
     <polyline class="fil0 str1" points="220.17,64.79 226.24,75.3 220.17,85.81 "/>
    </g>
    <g>
     <polyline class="fil0 str1" points="226.24,75.3 238.38,75.3 244.44,85.81 "/>
    </g>
    <g>
     <polyline class="fil0 str1" points="244.44,64.79 256.58,64.79 262.65,75.3 274.78,75.3 280.85,85.81 274.78,96.32 "/>
    </g>
    <g>
     <polyline class="fil0 str1" points="7.8,117.34 1.73,106.83 7.8,96.32 "/>
    </g>
    <g>
     <line class="fil0 str1" x1="19.94" y1="96.32" x2="26" y2= "106.83" />
    </g>
    <g>
     <polyline class="fil0 str1" points="26,85.81 38.14,85.81 44.21,96.32 "/>
    </g>
    <g>
     <polyline class="fil0 str1" points="62.41,106.83 56.34,96.32 62.41,85.81 "/>
    </g>
    <g>
     <polyline class="fil0 str1" points="74.55,85.81 80.61,96.32 74.55,106.83 "/>
    </g>
    <g>
     <polyline class="fil0 str1" points="80.61,96.32 92.75,96.32 98.82,106.83 "/>
    </g>
    <g>
     <line class="fil0 str1" x1="98.82" y1="85.81" x2="110.95" y2= "85.81" />
    </g>
    <g>
     <line class="fil0 str1" x1="110.95" y1="106.83" x2="117.02" y2= "96.32" />
    </g>
    <g>
     <line class="fil0 str1" x1="129.16" y1="96.32" x2="135.22" y2= "106.83" />
    </g>
    <g>
     <polyline class="fil0 str1" points="147.36,85.81 153.43,96.32 147.36,106.83 "/>
    </g>
    <g>
     <polyline class="fil0 str1" points="171.63,106.83 165.56,96.32 171.63,85.81 183.77,85.81 189.83,96.32 183.77,106.83 "/>
    </g>
    <g>
     <polyline class="fil0 str1" points="189.83,96.32 201.97,96.32 208.04,106.83 "/>
    </g>
    <g>
     <polyline class="fil0 str1" points="201.97,96.32 208.04,85.81 220.17,85.81 "/>
    </g>
    <g>
     <line class="fil0 str1" x1="220.17" y1="106.83" x2="226.24" y2= "96.32" />
    </g>
    <g>
     <polyline class="fil0 str1" points="238.38,96.32 244.44,85.81 256.58,85.81 "/>
    </g>
    <g>
     <polyline class="fil0 str1" points="262.65,96.32 274.78,96.32 280.85,106.83 274.78,117.34 "/>
    </g>
    <g>
     <polyline class="fil0 str1" points="7.8,138.36 1.73,127.85 7.8,117.34 19.94,117.34 "/>
    </g>
    <g>
     <polyline class="fil0 str1" points="26,106.83 38.14,106.83 44.21,117.34 38.14,127.85 "/>
    </g>
    <g>
     <polyline class="fil0 str1" points="44.21,117.34 56.34,117.34 62.41,127.85 "/>
    </g>
    <g>
     <line class="fil0 str1" x1="56.34" y1="117.34" x2="62.41" y2= "106.83" />
    </g>
    <g>
     <polyline class="fil0 str1" points="74.55,106.83 80.61,117.34 74.55,127.85 "/>
    </g>
    <g>
     <line class="fil0 str1" x1="92.75" y1="117.34" x2="98.82" y2= "127.85" />
    </g>
    <g>
     <polyline class="fil0 str1" points="98.82,106.83 110.95,106.83 117.02,117.34 "/>
    </g>
    <g>
     <polyline class="fil0 str1" points="129.16,117.34 135.22,106.83 147.36,106.83 153.43,117.34 147.36,127.85 "/>
    </g>
    <g>
     <line class="fil0 str1" x1="165.56" y1="117.34" x2="171.63" y2= "106.83" />
    </g>
    <g>
     <polyline class="fil0 str1" points="183.77,106.83 189.83,117.34 183.77,127.85 "/>
    </g>
    <g>
     <line class="fil0 str1" x1="201.97" y1="117.34" x2="208.04" y2= "127.85" />
    </g>
    <g>
     <line class="fil0 str1" x1="208.04" y1="106.83" x2="220.17" y2= "106.83" />
    </g>
    <g>
     <polyline class="fil0 str1" points="220.17,127.85 226.24,117.34 238.38,117.34 244.44,106.83 256.58,106.83 262.65,117.34 256.58,127.85 "/>
    </g>
    <g>
     <polyline class="fil0 str1" points="262.65,117.34 274.78,117.34 280.85,127.85 274.78,138.36 "/>
    </g>
    <g>
     <polyline class="fil0 str1" points="7.8,159.38 1.73,148.87 7.8,138.36 "/>
    </g>
    <g>
     <polyline class="fil0 str1" points="26,148.87 19.94,138.36 26,127.85 38.14,127.85 "/>
    </g>
    <g>
     <line class="fil0 str1" x1="38.14" y1="148.87" x2="44.21" y2= "138.36" />
    </g>
    <g>
     <line class="fil0 str1" x1="56.34" y1="138.36" x2="62.41" y2= "127.85" />
    </g>
    <g>
     <polyline class="fil0 str1" points="74.55,127.85 80.61,138.36 74.55,148.87 "/>
    </g>
    <g>
     <line class="fil0 str1" x1="80.61" y1="138.36" x2="92.75" y2= "138.36" />
    </g>
    <g>
     <polyline class="fil0 str1" points="98.82,127.85 110.95,127.85 117.02,138.36 110.95,148.87 "/>
    </g>
    <g>
     <polyline class="fil0 str1" points="117.02,138.36 129.16,138.36 135.22,127.85 147.36,127.85 153.43,138.36 165.56,138.36 171.63,148.87 "/>
    </g>
    <g>
     <line class="fil0 str1" x1="165.56" y1="138.36" x2="171.63" y2= "127.85" />
    </g>
    <g>
     <polyline class="fil0 str1" points="183.77,148.87 189.83,138.36 201.97,138.36 208.04,148.87 "/>
    </g>
    <g>
     <line class="fil0 str1" x1="201.97" y1="138.36" x2="208.04" y2= "127.85" />
    </g>
    <g>
     <polyline class="fil0 str1" points="220.17,127.85 226.24,138.36 220.17,148.87 "/>
    </g>
    <g>
     <polyline class="fil0 str1" points="244.44,148.87 238.38,138.36 244.44,127.85 "/>
    </g>
    <g>
     <line class="fil0 str1" x1="256.58" y1="148.87" x2="262.65" y2= "138.36" />
    </g>
    <g>
     <polyline class="fil0 str1" points="274.78,138.36 280.85,148.87 274.78,159.38 "/>
    </g>
    <g>
     <polyline class="fil0 str1" points="7.8,180.4 1.73,169.89 7.8,159.38 "/>
    </g>
    <g>
     <polyline class="fil0 str1" points="19.94,159.38 26,148.87 38.14,148.87 44.21,159.38 56.34,159.38 62.41,169.89 "/>
    </g>
    <g>
     <polyline class="fil0 str1" points="56.34,159.38 62.41,148.87 74.55,148.87 80.61,159.38 92.75,159.38 98.82,169.89 "/>
    </g>
    <g>
     <line class="fil0 str1" x1="92.75" y1="159.38" x2="98.82" y2= "148.87" />
    </g>
    <g>
     <polyline class="fil0 str1" points="110.95,148.87 117.02,159.38 110.95,169.89 "/>
    </g>
    <g>
     <polyline class="fil0 str1" points="171.63,169.89 165.56,159.38 171.63,148.87 183.77,148.87 "/>
    </g>
    <g>
     <polyline class="fil0 str1" points="183.77,169.89 189.83,159.38 201.97,159.38 208.04,169.89 "/>
    </g>
    <g>
     <line class="fil0 str1" x1="208.04" y1="148.87" x2="220.17" y2= "148.87" />
    </g>
    <g>
     <polyline class="fil0 str1" points="220.17,169.89 226.24,159.38 238.38,159.38 244.44,169.89 "/>
    </g>
    <g>
     <polyline class="fil0 str1" points="238.38,159.38 244.44,148.87 256.58,148.87 262.65,159.38 "/>
    </g>
    <g>
     <polyline class="fil0 str1" points="274.78,159.38 280.85,169.89 274.78,180.4 "/>
    </g>
    <g>
     <polyline class="fil0 str1" points="7.8,201.42 1.73,190.91 7.8,180.4 "/>
    </g>
    <g>
     <polyline class="fil0 str1" points="26,190.91 19.94,180.4 26,169.89 38.14,169.89 "/>
    </g>
    <g>
     <polyline class="fil0 str1" points="38.14,190.91 44.21,180.4 56.34,180.4 62.41,169.89 "/>
    </g>
    <g>
     <polyline class="fil0 str1" points="74.55,169.89 80.61,180.4 74.55,190.91 "/>
    </g>
    <g>
     <polyline class="fil0 str1" points="98.82,190.91 92.75,180.4 98.82,169.89 "/>
    </g>
    <g>
     <polyline class="fil0 str1" points="110.95,169.89 117.02,180.4 129.16,180.4 135.22,190.91 "/>
    </g>
    <g>
     <polyline class="fil0 str1" points="147.36,190.91 153.43,180.4 165.56,180.4 171.63,169.89 "/>
    </g>
    <g>
     <line class="fil0 str1" x1="183.77" y1="190.91" x2="189.83" y2= "180.4" />
    </g>
    <g>
     <polyline class="fil0 str1" points="208.04,190.91 201.97,180.4 208.04,169.89 220.17,169.89 "/>
    </g>
    <g>
     <line class="fil0 str1" x1="220.17" y1="190.91" x2="226.24" y2= "180.4" />
    </g>
    <g>
     <line class="fil0 str1" x1="238.38" y1="180.4" x2="244.44" y2= "190.91" />
    </g>
    <g>
     <polyline class="fil0 str1" points="256.58,169.89 262.65,180.4 274.78,180.4 280.85,190.91 274.78,201.42 "/>
    </g>
    <g>
     <polyline class="fil0 str1" points="7.8,222.44 1.73,211.93 7.8,201.42 "/>
    </g>
    <g>
     <polyline class="fil0 str1" points="26,211.93 19.94,201.42 26,190.91 "/>
    </g>
    <g>
     <polyline class="fil0 str1" points="38.14,190.91 44.21,201.42 38.14,211.93 "/>
    </g>
    <g>
     <polyline class="fil0 str1" points="44.21,201.42 56.34,201.42 62.41,211.93 "/>
    </g>
    <g>
     <polyline class="fil0 str1" points="62.41,190.91 74.55,190.91 80.61,201.42 74.55,211.93 "/>
    </g>
    <g>
     <line class="fil0 str1" x1="80.61" y1="201.42" x2="92.75" y2= "201.42" />
    </g>
    <g>
     <polyline class="fil0 str1" points="98.82,190.91 110.95,190.91 117.02,201.42 110.95,211.93 "/>
    </g>
    <g>
     <polyline class="fil0 str1" points="117.02,201.42 129.16,201.42 135.22,211.93 "/>
    </g>
    <g>
     <line class="fil0 str1" x1="129.16" y1="201.42" x2="135.22" y2= "190.91" />
    </g>
    <g>
     <polyline class="fil0 str1" points="147.36,190.91 153.43,201.42 165.56,201.42 171.63,211.93 "/>
    </g>
    <g>
     <polyline class="fil0 str1" points="165.56,201.42 171.63,190.91 183.77,190.91 "/>
    </g>
    <g>
     <polyline class="fil0 str1" points="189.83,201.42 201.97,201.42 208.04,211.93 "/>
    </g>
    <g>
     <polyline class="fil0 str1" points="201.97,201.42 208.04,190.91 220.17,190.91 226.24,201.42 238.38,201.42 "/>
    </g>
    <g>
     <polyline class="fil0 str1" points="244.44,190.91 256.58,190.91 262.65,201.42 256.58,211.93 "/>
    </g>
    <g>
     <polyline class="fil0 str1" points="262.65,201.42 274.78,201.42 280.85,211.93 274.78,222.44 "/>
    </g>
    <g>
     <polyline class="fil0 str1" points="7.8,243.46 1.73,232.95 7.8,222.44 "/>
    </g>
    <g>
     <polyline class="fil0 str1" points="26,232.95 19.94,222.44 26,211.93 "/>
    </g>
    <g>
     <polyline class="fil0 str1" points="38.14,232.95 44.21,222.44 56.34,222.44 62.41,232.95 "/>
    </g>
    <g>
     <polyline class="fil0 str1" points="74.55,211.93 80.61,222.44 74.55,232.95 "/>
    </g>
    <g>
     <polyline class="fil0 str1" points="80.61,222.44 92.75,222.44 98.82,232.95 "/>
    </g>
    <g>
     <line class="fil0 str1" x1="98.82" y1="211.93" x2="110.95" y2= "211.93" />
    </g>
    <g>
     <polyline class="fil0 str1" points="110.95,232.95 117.02,222.44 129.16,222.44 135.22,232.95 "/>
    </g>
    <g>
     <polyline class="fil0 str1" points="135.22,211.93 147.36,211.93 153.43,222.44 165.56,222.44 171.63,232.95 "/>
    </g>
    <g>
     <line class="fil0 str1" x1="171.63" y1="211.93" x2="183.77" y2= "211.93" />
    </g>
    <g>
     <polyline class="fil0 str1" points="183.77,232.95 189.83,222.44 201.97,222.44 208.04,211.93 "/>
    </g>
    <g>
     <polyline class="fil0 str1" points="220.17,211.93 226.24,222.44 220.17,232.95 "/>
    </g>
    <g>
     <polyline class="fil0 str1" points="226.24,222.44 238.38,222.44 244.44,232.95 "/>
    </g>
    <g>
     <polyline class="fil0 str1" points="238.38,222.44 244.44,211.93 256.58,211.93 "/>
    </g>
    <g>
     <line class="fil0 str1" x1="256.58" y1="232.95" x2="262.65" y2= "222.44" />
    </g>
    <g>
     <polyline class="fil0 str1" points="274.78,222.44 280.85,232.95 274.78,243.46 "/>
    </g>
    <g>
     <polyline class="fil0 str1" points="7.8,243.46 19.94,243.46 26,253.97 "/>
    </g>
    <g>
     <polyline class="fil0 str1" points="26,232.95 38.14,232.95 44.21,243.46 "/>
    </g>
    <g>
     <polyline class="fil0 str1" points="56.34,243.46 62.41,232.95 74.55,232.95 "/>
    </g>
    <g>
     <polyline class="fil0 str1" points="80.61,243.46 92.75,243.46 98.82,232.95 110.95,232.95 117.02,243.46 110.95,253.97 "/>
    </g>
    <g>
     <polyline class="fil0 str1" points="135.22,253.97 129.16,243.46 135.22,232.95 "/>
    </g>
    <g>
     <polyline class="fil0 str1" points="147.36,232.95 153.43,243.46 147.36,253.97 "/>
    </g>
    <g>
     <polyline class="fil0 str1" points="153.43,243.46 165.56,243.46 171.63,232.95 183.77,232.95 "/>
    </g>
    <g>
     <polyline class="fil0 str1" points="183.77,253.97 189.83,243.46 201.97,243.46 208.04,232.95 "/>
    </g>
    <g>
     <polyline class="fil0 str1" points="220.17,232.95 226.24,243.46 220.17,253.97 "/>
    </g>
    <g>
     <line class="fil0 str1" x1="238.38" y1="243.46" x2="244.44" y2= "253.97" />
    </g>
    <g>
     <line class="fil0 str1" x1="244.44" y1="232.95" x2="256.58" y2= "232.95" />
    </g>
    <g>
     <polyline class="fil0 str1" points="256.58,253.97 262.65,243.46 274.78,243.46 "/>
    </g>
    <g>
     <polyline class="fil0 str1" points="26,253.97 38.14,253.97 44.21,264.48 56.34,264.48 62.41,274.99 "/>
    </g>
    <g>
     <polyline class="fil0 str1" points="56.34,264.48 62.41,253.97 74.55,253.97 "/>
    </g>
    <g>
     <polyline class="fil0 str1" points="80.61,264.48 92.75,264.48 98.82,274.99 "/>
    </g>
    <g>
     <line class="fil0 str1" x1="92.75" y1="264.48" x2="98.82" y2= "253.97" />
    </g>
    <g>
     <line class="fil0 str1" x1="110.95" y1="253.97" x2="117.02" y2= "264.48" />
    </g>
    <g>
     <polyline class="fil0 str1" points="135.22,274.99 129.16,264.48 135.22,253.97 "/>
    </g>
    <g>
     <polyline class="fil0 str1" points="147.36,253.97 153.43,264.48 147.36,274.99 "/>
    </g>
    <g>
     <polyline class="fil0 str1" points="171.63,274.99 165.56,264.48 171.63,253.97 183.77,253.97 "/>
    </g>
    <g>
     <polyline class="fil0 str1" points="189.83,264.48 201.97,264.48 208.04,253.97 220.17,253.97 "/>
    </g>
    <g>
     <polyline class="fil0 str1" points="220.17,274.99 226.24,264.48 238.38,264.48 244.44,253.97 256.58,253.97 "/>
    </g>
    <g>
     <polyline class="fil0 str1" points="62.41,274.99 74.55,274.99 80.61,285.49 92.75,285.49 98.82,296 "/>
    </g>
    <g>
     <polyline class="fil0 str1" points="98.82,274.99 110.95,274.99 117.02,285.49 129.16,285.49 135.22,296 "/>
    </g>
    <g>
     <line class="fil0 str1" x1="129.16" y1="285.49" x2="135.22" y2= "274.99" />
    </g>
    <g>
     <line class="fil0 str1" x1="147.36" y1="274.99" x2="153.43" y2= "285.49" />
    </g>
    <g>
     <polyline class="fil0 str1" points="165.56,285.49 171.63,274.99 183.77,274.99 189.83,285.49 183.77,296 "/>
    </g>
    <g>
     <polyline class="fil0 str1" points="189.83,285.49 201.97,285.49 208.04,274.99 220.17,274.99 "/>
    </g>
    <g>
     <polyline class="fil0 str1" points="98.82,296 110.95,296 117.02,306.51 129.16,306.51 135.22,317.02 "/>
    </g>
    <g>
     <polyline class="fil0 str1" points="135.22,296 147.36,296 153.43,306.51 147.36,317.02 "/>
    </g>
    <g>
     <polyline class="fil0 str1" points="153.43,306.51 165.56,306.51 171.63,296 183.77,296 "/>
    </g>
    <g>
     <line class="fil0 str1" x1="147.36" y1="317.02" x2="135.22" y2= "317.02" />
    </g>
   </g>
  </g>
 </g>
</svg>
