<?xml version="1.0" encoding="UTF-8"?>
<!DOCTYPE svg PUBLIC "-//W3C//DTD SVG 1.1//EN" "http://www.w3.org/Graphics/SVG/1.1/DTD/svg11.dtd">
<!-- Creator: CorelDRAW 2018 (64-Bit) -->
<svg xmlns="http://www.w3.org/2000/svg" xml:space="preserve" width="3.39583in" height="3.83053in" version="1.1" style="shape-rendering:geometricPrecision; text-rendering:geometricPrecision; image-rendering:optimizeQuality; fill-rule:evenodd; clip-rule:evenodd"
viewBox="0 0 368.53 415.7"
 xmlns:xlink="http://www.w3.org/1999/xlink">
 <defs>
  <style type="text/css">
   <![CDATA[
    .str0 {stroke:black;stroke-width:4.52;stroke-linecap:round;stroke-linejoin:round;stroke-miterlimit:2.61313}
    .str1 {stroke:yellow;stroke-width:3.01;stroke-linecap:round;stroke-linejoin:round;stroke-miterlimit:2.61313}
    .fil0 {fill:none}
   ]]>
  </style>
 </defs>
 <g id="Layer_x0020_1">
  <metadata id="CorelCorpID_0Corel-Layer"/>
  <g id="hex3.svg">
   <g>
    <g>
     <polyline class="fil0 str0" points="144.7,29.67 152.61,15.97 168.44,15.97 176.35,2.26 "/>
    </g>
    <g>
     <polyline class="fil0 str0" points="192.18,2.26 200.09,15.97 215.92,15.97 223.83,29.67 "/>
    </g>
    <g>
     <polyline class="fil0 str0" points="97.22,57.08 105.13,43.38 120.96,43.38 128.87,29.67 144.7,29.67 152.61,43.38 144.7,57.08 "/>
    </g>
    <g>
     <polyline class="fil0 str0" points="152.61,43.38 168.44,43.38 176.35,29.67 "/>
    </g>
    <g>
     <polyline class="fil0 str0" points="192.18,29.67 200.09,43.38 192.18,57.08 "/>
    </g>
    <g>
     <polyline class="fil0 str0" points="200.09,43.38 215.92,43.38 223.83,29.67 239.66,29.67 247.57,43.38 239.66,57.08 "/>
    </g>
    <g>
     <polyline class="fil0 str0" points="247.57,43.38 263.4,43.38 271.31,57.08 "/>
    </g>
    <g>
     <polyline class="fil0 str0" points="49.74,84.5 57.65,70.79 73.48,70.79 81.39,57.08 97.22,57.08 "/>
    </g>
    <g>
     <polyline class="fil0 str0" points="97.22,84.5 105.13,70.79 120.96,70.79 128.87,84.5 "/>
    </g>
    <g>
     <line class="fil0 str0" x1="120.96" y1="70.79" x2="128.87" y2= "57.08" />
    </g>
    <g>
     <polyline class="fil0 str0" points="144.7,84.5 152.61,70.79 168.44,70.79 176.35,57.08 192.18,57.08 "/>
    </g>
    <g>
     <polyline class="fil0 str0" points="192.18,84.5 200.09,70.79 215.92,70.79 223.83,84.5 "/>
    </g>
    <g>
     <line class="fil0 str0" x1="215.92" y1="70.79" x2="223.83" y2= "57.08" />
    </g>
    <g>
     <line class="fil0 str0" x1="239.66" y1="84.5" x2="247.57" y2= "70.79" />
    </g>
    <g>
     <polyline class="fil0 str0" points="263.4,70.79 271.31,57.08 287.14,57.08 295.05,70.79 310.88,70.79 318.79,84.5 "/>
    </g>
    <g>
     <polyline class="fil0 str0" points="10.17,125.62 2.26,111.91 10.17,98.2 26,98.2 33.91,111.91 "/>
    </g>
    <g>
     <polyline class="fil0 str0" points="26,98.2 33.91,84.5 49.74,84.5 "/>
    </g>
    <g>
     <polyline class="fil0 str0" points="57.65,98.2 73.48,98.2 81.39,84.5 97.22,84.5 "/>
    </g>
    <g>
     <polyline class="fil0 str0" points="105.13,98.2 120.96,98.2 128.87,111.91 "/>
    </g>
    <g>
     <line class="fil0 str0" x1="128.87" y1="84.5" x2="144.7" y2= "84.5" />
    </g>
    <g>
     <line class="fil0 str0" x1="144.7" y1="111.91" x2="152.61" y2= "98.2" />
    </g>
    <g>
     <polyline class="fil0 str0" points="168.44,98.2 176.35,84.5 192.18,84.5 "/>
    </g>
    <g>
     <polyline class="fil0 str0" points="192.18,111.91 200.09,98.2 215.92,98.2 223.83,111.91 "/>
    </g>
    <g>
     <line class="fil0 str0" x1="215.92" y1="98.2" x2="223.83" y2= "84.5" />
    </g>
    <g>
     <polyline class="fil0 str0" points="239.66,84.5 247.57,98.2 263.4,98.2 271.31,111.91 "/>
    </g>
    <g>
     <line class="fil0 str0" x1="263.4" y1="98.2" x2="271.31" y2= "84.5" />
    </g>
    <g>
     <polyline class="fil0 str0" points="287.14,84.5 295.05,98.2 287.14,111.91 "/>
    </g>
    <g>
     <polyline class="fil0 str0" points="295.05,98.2 310.88,98.2 318.79,111.91 "/>
    </g>
    <g>
     <polyline class="fil0 str0" points="318.79,84.5 334.62,84.5 342.53,98.2 358.35,98.2 366.27,111.91 358.35,125.62 "/>
    </g>
    <g>
     <polyline class="fil0 str0" points="10.17,153.03 2.26,139.32 10.17,125.62 "/>
    </g>
    <g>
     <line class="fil0 str0" x1="26" y1="125.62" x2="33.91" y2= "139.32" />
    </g>
    <g>
     <polyline class="fil0 str0" points="33.91,111.91 49.74,111.91 57.65,125.62 73.48,125.62 81.39,139.32 "/>
    </g>
    <g>
     <polyline class="fil0 str0" points="73.48,125.62 81.39,111.91 97.22,111.91 105.13,125.62 120.96,125.62 "/>
    </g>
    <g>
     <polyline class="fil0 str0" points="128.87,111.91 144.7,111.91 152.61,125.62 144.7,139.32 "/>
    </g>
    <g>
     <polyline class="fil0 str0" points="152.61,125.62 168.44,125.62 176.35,111.91 192.18,111.91 200.09,125.62 192.18,139.32 "/>
    </g>
    <g>
     <line class="fil0 str0" x1="215.92" y1="125.62" x2="223.83" y2= "139.32" />
    </g>
    <g>
     <polyline class="fil0 str0" points="223.83,111.91 239.66,111.91 247.57,125.62 "/>
    </g>
    <g>
     <polyline class="fil0 str0" points="271.31,139.32 263.4,125.62 271.31,111.91 "/>
    </g>
    <g>
     <polyline class="fil0 str0" points="295.05,125.62 310.88,125.62 318.79,139.32 "/>
    </g>
    <g>
     <polyline class="fil0 str0" points="310.88,125.62 318.79,111.91 334.62,111.91 342.53,125.62 358.35,125.62 366.27,139.32 358.35,153.03 "/>
    </g>
    <g>
     <polyline class="fil0 str0" points="10.17,180.44 2.26,166.73 10.17,153.03 "/>
    </g>
    <g>
     <polyline class="fil0 str0" points="33.91,166.73 26,153.03 33.91,139.32 49.74,139.32 "/>
    </g>
    <g>
     <polyline class="fil0 str0" points="49.74,166.73 57.65,153.03 73.48,153.03 81.39,166.73 "/>
    </g>
    <g>
     <line class="fil0 str0" x1="73.48" y1="153.03" x2="81.39" y2= "139.32" />
    </g>
    <g>
     <polyline class="fil0 str0" points="97.22,139.32 105.13,153.03 97.22,166.73 "/>
    </g>
    <g>
     <polyline class="fil0 str0" points="105.13,153.03 120.96,153.03 128.87,166.73 "/>
    </g>
    <g>
     <line class="fil0 str0" x1="120.96" y1="153.03" x2="128.87" y2= "139.32" />
    </g>
    <g>
     <polyline class="fil0 str0" points="144.7,139.32 152.61,153.03 168.44,153.03 "/>
    </g>
    <g>
     <polyline class="fil0 str0" points="176.35,139.32 192.18,139.32 200.09,153.03 192.18,166.73 "/>
    </g>
    <g>
     <polyline class="fil0 str0" points="215.92,153.03 223.83,139.32 239.66,139.32 247.57,153.03 263.4,153.03 271.31,166.73 "/>
    </g>
    <g>
     <polyline class="fil0 str0" points="263.4,153.03 271.31,139.32 287.14,139.32 "/>
    </g>
    <g>
     <polyline class="fil0 str0" points="287.14,166.73 295.05,153.03 310.88,153.03 318.79,139.32 "/>
    </g>
    <g>
     <polyline class="fil0 str0" points="334.62,139.32 342.53,153.03 334.62,166.73 "/>
    </g>
    <g>
     <polyline class="fil0 str0" points="358.35,153.03 366.27,166.73 358.35,180.44 "/>
    </g>
    <g>
     <polyline class="fil0 str0" points="10.17,207.85 2.26,194.15 10.17,180.44 "/>
    </g>
    <g>
     <polyline class="fil0 str0" points="33.91,194.15 26,180.44 33.91,166.73 "/>
    </g>
    <g>
     <line class="fil0 str0" x1="49.74" y1="194.15" x2="57.65" y2= "180.44" />
    </g>
    <g>
     <polyline class="fil0 str0" points="81.39,194.15 73.48,180.44 81.39,166.73 "/>
    </g>
    <g>
     <line class="fil0 str0" x1="97.22" y1="194.15" x2="105.13" y2= "180.44" />
    </g>
    <g>
     <line class="fil0 str0" x1="120.96" y1="180.44" x2="128.87" y2= "194.15" />
    </g>
    <g>
     <polyline class="fil0 str0" points="128.87,166.73 144.7,166.73 152.61,180.44 144.7,194.15 "/>
    </g>
    <g>
     <polyline class="fil0 str0" points="152.61,180.44 168.44,180.44 176.35,166.73 192.18,166.73 200.09,180.44 215.92,180.44 223.83,194.15 "/>
    </g>
    <g>
     <line class="fil0 str0" x1="215.92" y1="180.44" x2="223.83" y2= "166.73" />
    </g>
    <g>
     <polyline class="fil0 str0" points="239.66,166.73 247.57,180.44 239.66,194.15 "/>
    </g>
    <g>
     <polyline class="fil0 str0" points="271.31,194.15 263.4,180.44 271.31,166.73 "/>
    </g>
    <g>
     <polyline class="fil0 str0" points="287.14,166.73 295.05,180.44 287.14,194.15 "/>
    </g>
    <g>
     <line class="fil0 str0" x1="295.05" y1="180.44" x2="310.88" y2= "180.44" />
    </g>
    <g>
     <polyline class="fil0 str0" points="318.79,166.73 334.62,166.73 342.53,180.44 334.62,194.15 "/>
    </g>
    <g>
     <polyline class="fil0 str0" points="358.35,180.44 366.27,194.15 358.35,207.85 "/>
    </g>
    <g>
     <polyline class="fil0 str0" points="10.17,235.26 2.26,221.56 10.17,207.85 26,207.85 "/>
    </g>
    <g>
     <polyline class="fil0 str0" points="33.91,194.15 49.74,194.15 57.65,207.85 49.74,221.56 "/>
    </g>
    <g>
     <polyline class="fil0 str0" points="81.39,221.56 73.48,207.85 81.39,194.15 97.22,194.15 "/>
    </g>
    <g>
     <polyline class="fil0 str0" points="105.13,207.85 120.96,207.85 128.87,221.56 "/>
    </g>
    <g>
     <line class="fil0 str0" x1="120.96" y1="207.85" x2="128.87" y2= "194.15" />
    </g>
    <g>
     <polyline class="fil0 str0" points="144.7,194.15 152.61,207.85 144.7,221.56 "/>
    </g>
    <g>
     <polyline class="fil0 str0" points="223.83,221.56 215.92,207.85 223.83,194.15 "/>
    </g>
    <g>
     <polyline class="fil0 str0" points="239.66,194.15 247.57,207.85 239.66,221.56 "/>
    </g>
    <g>
     <polyline class="fil0 str0" points="263.4,207.85 271.31,194.15 287.14,194.15 "/>
    </g>
    <g>
     <polyline class="fil0 str0" points="287.14,221.56 295.05,207.85 310.88,207.85 318.79,221.56 "/>
    </g>
    <g>
     <polyline class="fil0 str0" points="318.79,194.15 334.62,194.15 342.53,207.85 334.62,221.56 "/>
    </g>
    <g>
     <polyline class="fil0 str0" points="358.35,207.85 366.27,221.56 358.35,235.26 "/>
    </g>
    <g>
     <polyline class="fil0 str0" points="10.17,262.68 2.26,248.97 10.17,235.26 "/>
    </g>
    <g>
     <polyline class="fil0 str0" points="33.91,248.97 26,235.26 33.91,221.56 49.74,221.56 "/>
    </g>
    <g>
     <polyline class="fil0 str0" points="57.65,235.26 73.48,235.26 81.39,221.56 97.22,221.56 "/>
    </g>
    <g>
     <polyline class="fil0 str0" points="97.22,248.97 105.13,235.26 120.96,235.26 128.87,248.97 "/>
    </g>
    <g>
     <line class="fil0 str0" x1="120.96" y1="235.26" x2="128.87" y2= "221.56" />
    </g>
    <g>
     <polyline class="fil0 str0" points="144.7,221.56 152.61,235.26 144.7,248.97 "/>
    </g>
    <g>
     <polyline class="fil0 str0" points="152.61,235.26 168.44,235.26 176.35,248.97 "/>
    </g>
    <g>
     <polyline class="fil0 str0" points="192.18,248.97 200.09,235.26 215.92,235.26 223.83,248.97 "/>
    </g>
    <g>
     <line class="fil0 str0" x1="215.92" y1="235.26" x2="223.83" y2= "221.56" />
    </g>
    <g>
     <polyline class="fil0 str0" points="239.66,221.56 247.57,235.26 263.4,235.26 271.31,248.97 "/>
    </g>
    <g>
     <line class="fil0 str0" x1="263.4" y1="235.26" x2="271.31" y2= "221.56" />
    </g>
    <g>
     <polyline class="fil0 str0" points="287.14,221.56 295.05,235.26 287.14,248.97 "/>
    </g>
    <g>
     <polyline class="fil0 str0" points="318.79,248.97 310.88,235.26 318.79,221.56 "/>
    </g>
    <g>
     <polyline class="fil0 str0" points="334.62,221.56 342.53,235.26 334.62,248.97 "/>
    </g>
    <g>
     <polyline class="fil0 str0" points="342.53,235.26 358.35,235.26 366.27,248.97 358.35,262.68 "/>
    </g>
    <g>
     <polyline class="fil0 str0" points="10.17,290.09 2.26,276.38 10.17,262.68 26,262.68 33.91,276.38 "/>
    </g>
    <g>
     <polyline class="fil0 str0" points="33.91,248.97 49.74,248.97 57.65,262.68 49.74,276.38 "/>
    </g>
    <g>
     <polyline class="fil0 str0" points="57.65,262.68 73.48,262.68 81.39,276.38 "/>
    </g>
    <g>
     <polyline class="fil0 str0" points="73.48,262.68 81.39,248.97 97.22,248.97 "/>
    </g>
    <g>
     <polyline class="fil0 str0" points="105.13,262.68 120.96,262.68 128.87,276.38 "/>
    </g>
    <g>
     <polyline class="fil0 str0" points="144.7,248.97 152.61,262.68 144.7,276.38 "/>
    </g>
    <g>
     <polyline class="fil0 str0" points="176.35,276.38 168.44,262.68 176.35,248.97 "/>
    </g>
    <g>
     <line class="fil0 str0" x1="192.18" y1="248.97" x2="200.09" y2= "262.68" />
    </g>
    <g>
     <line class="fil0 str0" x1="215.92" y1="262.68" x2="223.83" y2= "276.38" />
    </g>
    <g>
     <polyline class="fil0 str0" points="223.83,248.97 239.66,248.97 247.57,262.68 239.66,276.38 "/>
    </g>
    <g>
     <polyline class="fil0 str0" points="247.57,262.68 263.4,262.68 271.31,248.97 "/>
    </g>
    <g>
     <polyline class="fil0 str0" points="287.14,248.97 295.05,262.68 287.14,276.38 "/>
    </g>
    <g>
     <polyline class="fil0 str0" points="318.79,276.38 310.88,262.68 318.79,248.97 "/>
    </g>
    <g>
     <line class="fil0 str0" x1="334.62" y1="276.38" x2="342.53" y2= "262.68" />
    </g>
    <g>
     <polyline class="fil0 str0" points="358.35,262.68 366.27,276.38 358.35,290.09 "/>
    </g>
    <g>
     <polyline class="fil0 str0" points="10.17,317.5 2.26,303.79 10.17,290.09 "/>
    </g>
    <g>
     <polyline class="fil0 str0" points="33.91,303.79 26,290.09 33.91,276.38 "/>
    </g>
    <g>
     <line class="fil0 str0" x1="49.74" y1="303.79" x2="57.65" y2= "290.09" />
    </g>
    <g>
     <polyline class="fil0 str0" points="81.39,303.79 73.48,290.09 81.39,276.38 97.22,276.38 105.13,290.09 120.96,290.09 128.87,303.79 "/>
    </g>
    <g>
     <polyline class="fil0 str0" points="128.87,276.38 144.7,276.38 152.61,290.09 144.7,303.79 "/>
    </g>
    <g>
     <line class="fil0 str0" x1="152.61" y1="290.09" x2="168.44" y2= "290.09" />
    </g>
    <g>
     <polyline class="fil0 str0" points="176.35,276.38 192.18,276.38 200.09,290.09 192.18,303.79 "/>
    </g>
    <g>
     <polyline class="fil0 str0" points="200.09,290.09 215.92,290.09 223.83,303.79 "/>
    </g>
    <g>
     <line class="fil0 str0" x1="215.92" y1="290.09" x2="223.83" y2= "276.38" />
    </g>
    <g>
     <polyline class="fil0 str0" points="239.66,276.38 247.57,290.09 263.4,290.09 271.31,303.79 "/>
    </g>
    <g>
     <line class="fil0 str0" x1="271.31" y1="276.38" x2="287.14" y2= "276.38" />
    </g>
    <g>
     <polyline class="fil0 str0" points="287.14,303.79 295.05,290.09 310.88,290.09 318.79,276.38 334.62,276.38 "/>
    </g>
    <g>
     <line class="fil0 str0" x1="334.62" y1="303.79" x2="342.53" y2= "290.09" />
    </g>
    <g>
     <polyline class="fil0 str0" points="358.35,290.09 366.27,303.79 358.35,317.5 "/>
    </g>
    <g>
     <polyline class="fil0 str0" points="10.17,317.5 26,317.5 33.91,331.21 "/>
    </g>
    <g>
     <polyline class="fil0 str0" points="33.91,303.79 49.74,303.79 57.65,317.5 "/>
    </g>
    <g>
     <polyline class="fil0 str0" points="81.39,331.21 73.48,317.5 81.39,303.79 "/>
    </g>
    <g>
     <polyline class="fil0 str0" points="97.22,303.79 105.13,317.5 97.22,331.21 "/>
    </g>
    <g>
     <line class="fil0 str0" x1="120.96" y1="317.5" x2="128.87" y2= "303.79" />
    </g>
    <g>
     <polyline class="fil0 str0" points="144.7,303.79 152.61,317.5 144.7,331.21 "/>
    </g>
    <g>
     <polyline class="fil0 str0" points="176.35,331.21 168.44,317.5 176.35,303.79 192.18,303.79 "/>
    </g>
    <g>
     <polyline class="fil0 str0" points="192.18,331.21 200.09,317.5 215.92,317.5 223.83,303.79 239.66,303.79 247.57,317.5 239.66,331.21 "/>
    </g>
    <g>
     <polyline class="fil0 str0" points="247.57,317.5 263.4,317.5 271.31,331.21 "/>
    </g>
    <g>
     <polyline class="fil0 str0" points="271.31,303.79 287.14,303.79 295.05,317.5 "/>
    </g>
    <g>
     <polyline class="fil0 str0" points="318.79,331.21 310.88,317.5 318.79,303.79 334.62,303.79 "/>
    </g>
    <g>
     <polyline class="fil0 str0" points="334.62,331.21 342.53,317.5 358.35,317.5 "/>
    </g>
    <g>
     <polyline class="fil0 str0" points="33.91,331.21 49.74,331.21 57.65,344.91 73.48,344.91 81.39,358.62 "/>
    </g>
    <g>
     <line class="fil0 str0" x1="73.48" y1="344.91" x2="81.39" y2= "331.21" />
    </g>
    <g>
     <polyline class="fil0 str0" points="97.22,331.21 105.13,344.91 120.96,344.91 128.87,358.62 "/>
    </g>
    <g>
     <polyline class="fil0 str0" points="120.96,344.91 128.87,331.21 144.7,331.21 "/>
    </g>
    <g>
     <polyline class="fil0 str0" points="152.61,344.91 168.44,344.91 176.35,358.62 "/>
    </g>
    <g>
     <line class="fil0 str0" x1="168.44" y1="344.91" x2="176.35" y2= "331.21" />
    </g>
    <g>
     <polyline class="fil0 str0" points="192.18,358.62 200.09,344.91 215.92,344.91 223.83,331.21 "/>
    </g>
    <g>
     <line class="fil0 str0" x1="239.66" y1="358.62" x2="247.57" y2= "344.91" />
    </g>
    <g>
     <line class="fil0 str0" x1="263.4" y1="344.91" x2="271.31" y2= "358.62" />
    </g>
    <g>
     <polyline class="fil0 str0" points="271.31,331.21 287.14,331.21 295.05,344.91 287.14,358.62 "/>
    </g>
    <g>
     <polyline class="fil0 str0" points="295.05,344.91 310.88,344.91 318.79,331.21 334.62,331.21 "/>
    </g>
    <g>
     <polyline class="fil0 str0" points="81.39,358.62 97.22,358.62 105.13,372.32 120.96,372.32 128.87,386.03 "/>
    </g>
    <g>
     <polyline class="fil0 str0" points="144.7,358.62 152.61,372.32 144.7,386.03 "/>
    </g>
    <g>
     <line class="fil0 str0" x1="152.61" y1="372.32" x2="168.44" y2= "372.32" />
    </g>
    <g>
     <polyline class="fil0 str0" points="176.35,358.62 192.18,358.62 200.09,372.32 192.18,386.03 "/>
    </g>
    <g>
     <polyline class="fil0 str0" points="200.09,372.32 215.92,372.32 223.83,358.62 239.66,358.62 "/>
    </g>
    <g>
     <polyline class="fil0 str0" points="239.66,386.03 247.57,372.32 263.4,372.32 271.31,358.62 287.14,358.62 "/>
    </g>
    <g>
     <polyline class="fil0 str0" points="128.87,386.03 144.7,386.03 152.61,399.74 168.44,399.74 176.35,413.44 "/>
    </g>
    <g>
     <line class="fil0 str0" x1="176.35" y1="386.03" x2="192.18" y2= "386.03" />
    </g>
    <g>
     <polyline class="fil0 str0" points="192.18,413.44 200.09,399.74 215.92,399.74 223.83,386.03 239.66,386.03 "/>
    </g>
    <g>
     <line class="fil0 str0" x1="192.18" y1="413.44" x2="176.35" y2= "413.44" />
    </g>
   </g>
  </g>
  <g id="hex3.svg_0">
   <g>
    <g>
     <polyline class="fil0 str1" points="144.7,29.67 152.61,15.97 168.44,15.97 176.35,2.26 "/>
    </g>
    <g>
     <polyline class="fil0 str1" points="192.18,2.26 200.09,15.97 215.92,15.97 223.83,29.67 "/>
    </g>
    <g>
     <polyline class="fil0 str1" points="97.22,57.08 105.13,43.38 120.96,43.38 128.87,29.67 144.7,29.67 152.61,43.38 144.7,57.08 "/>
    </g>
    <g>
     <polyline class="fil0 str1" points="152.61,43.38 168.44,43.38 176.35,29.67 "/>
    </g>
    <g>
     <polyline class="fil0 str1" points="192.18,29.67 200.09,43.38 192.18,57.08 "/>
    </g>
    <g>
     <polyline class="fil0 str1" points="200.09,43.38 215.92,43.38 223.83,29.67 239.66,29.67 247.57,43.38 239.66,57.08 "/>
    </g>
    <g>
     <polyline class="fil0 str1" points="247.57,43.38 263.4,43.38 271.31,57.08 "/>
    </g>
    <g>
     <polyline class="fil0 str1" points="49.74,84.5 57.65,70.79 73.48,70.79 81.39,57.08 97.22,57.08 "/>
    </g>
    <g>
     <polyline class="fil0 str1" points="97.22,84.5 105.13,70.79 120.96,70.79 128.87,84.5 "/>
    </g>
    <g>
     <line class="fil0 str1" x1="120.96" y1="70.79" x2="128.87" y2= "57.08" />
    </g>
    <g>
     <polyline class="fil0 str1" points="144.7,84.5 152.61,70.79 168.44,70.79 176.35,57.08 192.18,57.08 "/>
    </g>
    <g>
     <polyline class="fil0 str1" points="192.18,84.5 200.09,70.79 215.92,70.79 223.83,84.5 "/>
    </g>
    <g>
     <line class="fil0 str1" x1="215.92" y1="70.79" x2="223.83" y2= "57.08" />
    </g>
    <g>
     <line class="fil0 str1" x1="239.66" y1="84.5" x2="247.57" y2= "70.79" />
    </g>
    <g>
     <polyline class="fil0 str1" points="263.4,70.79 271.31,57.08 287.14,57.08 295.05,70.79 310.88,70.79 318.79,84.5 "/>
    </g>
    <g>
     <polyline class="fil0 str1" points="10.17,125.62 2.26,111.91 10.17,98.2 26,98.2 33.91,111.91 "/>
    </g>
    <g>
     <polyline class="fil0 str1" points="26,98.2 33.91,84.5 49.74,84.5 "/>
    </g>
    <g>
     <polyline class="fil0 str1" points="57.65,98.2 73.48,98.2 81.39,84.5 97.22,84.5 "/>
    </g>
    <g>
     <polyline class="fil0 str1" points="105.13,98.2 120.96,98.2 128.87,111.91 "/>
    </g>
    <g>
     <line class="fil0 str1" x1="128.87" y1="84.5" x2="144.7" y2= "84.5" />
    </g>
    <g>
     <line class="fil0 str1" x1="144.7" y1="111.91" x2="152.61" y2= "98.2" />
    </g>
    <g>
     <polyline class="fil0 str1" points="168.44,98.2 176.35,84.5 192.18,84.5 "/>
    </g>
    <g>
     <polyline class="fil0 str1" points="192.18,111.91 200.09,98.2 215.92,98.2 223.83,111.91 "/>
    </g>
    <g>
     <line class="fil0 str1" x1="215.92" y1="98.2" x2="223.83" y2= "84.5" />
    </g>
    <g>
     <polyline class="fil0 str1" points="239.66,84.5 247.57,98.2 263.4,98.2 271.31,111.91 "/>
    </g>
    <g>
     <line class="fil0 str1" x1="263.4" y1="98.2" x2="271.31" y2= "84.5" />
    </g>
    <g>
     <polyline class="fil0 str1" points="287.14,84.5 295.05,98.2 287.14,111.91 "/>
    </g>
    <g>
     <polyline class="fil0 str1" points="295.05,98.2 310.88,98.2 318.79,111.91 "/>
    </g>
    <g>
     <polyline class="fil0 str1" points="318.79,84.5 334.62,84.5 342.53,98.2 358.35,98.2 366.27,111.91 358.35,125.62 "/>
    </g>
    <g>
     <polyline class="fil0 str1" points="10.17,153.03 2.26,139.32 10.17,125.62 "/>
    </g>
    <g>
     <line class="fil0 str1" x1="26" y1="125.62" x2="33.91" y2= "139.32" />
    </g>
    <g>
     <polyline class="fil0 str1" points="33.91,111.91 49.74,111.91 57.65,125.62 73.48,125.62 81.39,139.32 "/>
    </g>
    <g>
     <polyline class="fil0 str1" points="73.48,125.62 81.39,111.91 97.22,111.91 105.13,125.62 120.96,125.62 "/>
    </g>
    <g>
     <polyline class="fil0 str1" points="128.87,111.91 144.7,111.91 152.61,125.62 144.7,139.32 "/>
    </g>
    <g>
     <polyline class="fil0 str1" points="152.61,125.62 168.44,125.62 176.35,111.91 192.18,111.91 200.09,125.62 192.18,139.32 "/>
    </g>
    <g>
     <line class="fil0 str1" x1="215.92" y1="125.62" x2="223.83" y2= "139.32" />
    </g>
    <g>
     <polyline class="fil0 str1" points="223.83,111.91 239.66,111.91 247.57,125.62 "/>
    </g>
    <g>
     <polyline class="fil0 str1" points="271.31,139.32 263.4,125.62 271.31,111.91 "/>
    </g>
    <g>
     <polyline class="fil0 str1" points="295.05,125.62 310.88,125.62 318.79,139.32 "/>
    </g>
    <g>
     <polyline class="fil0 str1" points="310.88,125.62 318.79,111.91 334.62,111.91 342.53,125.62 358.35,125.62 366.27,139.32 358.35,153.03 "/>
    </g>
    <g>
     <polyline class="fil0 str1" points="10.17,180.44 2.26,166.73 10.17,153.03 "/>
    </g>
    <g>
     <polyline class="fil0 str1" points="33.91,166.73 26,153.03 33.91,139.32 49.74,139.32 "/>
    </g>
    <g>
     <polyline class="fil0 str1" points="49.74,166.73 57.65,153.03 73.48,153.03 81.39,166.73 "/>
    </g>
    <g>
     <line class="fil0 str1" x1="73.48" y1="153.03" x2="81.39" y2= "139.32" />
    </g>
    <g>
     <polyline class="fil0 str1" points="97.22,139.32 105.13,153.03 97.22,166.73 "/>
    </g>
    <g>
     <polyline class="fil0 str1" points="105.13,153.03 120.96,153.03 128.87,166.73 "/>
    </g>
    <g>
     <line class="fil0 str1" x1="120.96" y1="153.03" x2="128.87" y2= "139.32" />
    </g>
    <g>
     <polyline class="fil0 str1" points="144.7,139.32 152.61,153.03 168.44,153.03 "/>
    </g>
    <g>
     <polyline class="fil0 str1" points="176.35,139.32 192.18,139.32 200.09,153.03 192.18,166.73 "/>
    </g>
    <g>
     <polyline class="fil0 str1" points="215.92,153.03 223.83,139.32 239.66,139.32 247.57,153.03 263.4,153.03 271.31,166.73 "/>
    </g>
    <g>
     <polyline class="fil0 str1" points="263.4,153.03 271.31,139.32 287.14,139.32 "/>
    </g>
    <g>
     <polyline class="fil0 str1" points="287.14,166.73 295.05,153.03 310.88,153.03 318.79,139.32 "/>
    </g>
    <g>
     <polyline class="fil0 str1" points="334.62,139.32 342.53,153.03 334.62,166.73 "/>
    </g>
    <g>
     <polyline class="fil0 str1" points="358.35,153.03 366.27,166.73 358.35,180.44 "/>
    </g>
    <g>
     <polyline class="fil0 str1" points="10.17,207.85 2.26,194.15 10.17,180.44 "/>
    </g>
    <g>
     <polyline class="fil0 str1" points="33.91,194.15 26,180.44 33.91,166.73 "/>
    </g>
    <g>
     <line class="fil0 str1" x1="49.74" y1="194.15" x2="57.65" y2= "180.44" />
    </g>
    <g>
     <polyline class="fil0 str1" points="81.39,194.15 73.48,180.44 81.39,166.73 "/>
    </g>
    <g>
     <line class="fil0 str1" x1="97.22" y1="194.15" x2="105.13" y2= "180.44" />
    </g>
    <g>
     <line class="fil0 str1" x1="120.96" y1="180.44" x2="128.87" y2= "194.15" />
    </g>
    <g>
     <polyline class="fil0 str1" points="128.87,166.73 144.7,166.73 152.61,180.44 144.7,194.15 "/>
    </g>
    <g>
     <polyline class="fil0 str1" points="152.61,180.44 168.44,180.44 176.35,166.73 192.18,166.73 200.09,180.44 215.92,180.44 223.83,194.15 "/>
    </g>
    <g>
     <line class="fil0 str1" x1="215.92" y1="180.44" x2="223.83" y2= "166.73" />
    </g>
    <g>
     <polyline class="fil0 str1" points="239.66,166.73 247.57,180.44 239.66,194.15 "/>
    </g>
    <g>
     <polyline class="fil0 str1" points="271.31,194.15 263.4,180.44 271.31,166.73 "/>
    </g>
    <g>
     <polyline class="fil0 str1" points="287.14,166.73 295.05,180.44 287.14,194.15 "/>
    </g>
    <g>
     <line class="fil0 str1" x1="295.05" y1="180.44" x2="310.88" y2= "180.44" />
    </g>
    <g>
     <polyline class="fil0 str1" points="318.79,166.73 334.62,166.73 342.53,180.44 334.62,194.15 "/>
    </g>
    <g>
     <polyline class="fil0 str1" points="358.35,180.44 366.27,194.15 358.35,207.85 "/>
    </g>
    <g>
     <polyline class="fil0 str1" points="10.17,235.26 2.26,221.56 10.17,207.85 26,207.85 "/>
    </g>
    <g>
     <polyline class="fil0 str1" points="33.91,194.15 49.74,194.15 57.65,207.85 49.74,221.56 "/>
    </g>
    <g>
     <polyline class="fil0 str1" points="81.39,221.56 73.48,207.85 81.39,194.15 97.22,194.15 "/>
    </g>
    <g>
     <polyline class="fil0 str1" points="105.13,207.85 120.96,207.85 128.87,221.56 "/>
    </g>
    <g>
     <line class="fil0 str1" x1="120.96" y1="207.85" x2="128.87" y2= "194.15" />
    </g>
    <g>
     <polyline class="fil0 str1" points="144.7,194.15 152.61,207.85 144.7,221.56 "/>
    </g>
    <g>
     <polyline class="fil0 str1" points="223.83,221.56 215.92,207.85 223.83,194.15 "/>
    </g>
    <g>
     <polyline class="fil0 str1" points="239.66,194.15 247.57,207.85 239.66,221.56 "/>
    </g>
    <g>
     <polyline class="fil0 str1" points="263.4,207.85 271.31,194.15 287.14,194.15 "/>
    </g>
    <g>
     <polyline class="fil0 str1" points="287.14,221.56 295.05,207.85 310.88,207.85 318.79,221.56 "/>
    </g>
    <g>
     <polyline class="fil0 str1" points="318.79,194.15 334.62,194.15 342.53,207.85 334.62,221.56 "/>
    </g>
    <g>
     <polyline class="fil0 str1" points="358.35,207.85 366.27,221.56 358.35,235.26 "/>
    </g>
    <g>
     <polyline class="fil0 str1" points="10.17,262.68 2.26,248.97 10.17,235.26 "/>
    </g>
    <g>
     <polyline class="fil0 str1" points="33.91,248.97 26,235.26 33.91,221.56 49.74,221.56 "/>
    </g>
    <g>
     <polyline class="fil0 str1" points="57.65,235.26 73.48,235.26 81.39,221.56 97.22,221.56 "/>
    </g>
    <g>
     <polyline class="fil0 str1" points="97.22,248.97 105.13,235.26 120.96,235.26 128.87,248.97 "/>
    </g>
    <g>
     <line class="fil0 str1" x1="120.96" y1="235.26" x2="128.87" y2= "221.56" />
    </g>
    <g>
     <polyline class="fil0 str1" points="144.7,221.56 152.61,235.26 144.7,248.97 "/>
    </g>
    <g>
     <polyline class="fil0 str1" points="152.61,235.26 168.44,235.26 176.35,248.97 "/>
    </g>
    <g>
     <polyline class="fil0 str1" points="192.18,248.97 200.09,235.26 215.92,235.26 223.83,248.97 "/>
    </g>
    <g>
     <line class="fil0 str1" x1="215.92" y1="235.26" x2="223.83" y2= "221.56" />
    </g>
    <g>
     <polyline class="fil0 str1" points="239.66,221.56 247.57,235.26 263.4,235.26 271.31,248.97 "/>
    </g>
    <g>
     <line class="fil0 str1" x1="263.4" y1="235.26" x2="271.31" y2= "221.56" />
    </g>
    <g>
     <polyline class="fil0 str1" points="287.14,221.56 295.05,235.26 287.14,248.97 "/>
    </g>
    <g>
     <polyline class="fil0 str1" points="318.79,248.97 310.88,235.26 318.79,221.56 "/>
    </g>
    <g>
     <polyline class="fil0 str1" points="334.62,221.56 342.53,235.26 334.62,248.97 "/>
    </g>
    <g>
     <polyline class="fil0 str1" points="342.53,235.26 358.35,235.26 366.27,248.97 358.35,262.68 "/>
    </g>
    <g>
     <polyline class="fil0 str1" points="10.17,290.09 2.26,276.38 10.17,262.68 26,262.68 33.91,276.38 "/>
    </g>
    <g>
     <polyline class="fil0 str1" points="33.91,248.97 49.74,248.97 57.65,262.68 49.74,276.38 "/>
    </g>
    <g>
     <polyline class="fil0 str1" points="57.65,262.68 73.48,262.68 81.39,276.38 "/>
    </g>
    <g>
     <polyline class="fil0 str1" points="73.48,262.68 81.39,248.97 97.22,248.97 "/>
    </g>
    <g>
     <polyline class="fil0 str1" points="105.13,262.68 120.96,262.68 128.87,276.38 "/>
    </g>
    <g>
     <polyline class="fil0 str1" points="144.7,248.97 152.61,262.68 144.7,276.38 "/>
    </g>
    <g>
     <polyline class="fil0 str1" points="176.35,276.38 168.44,262.68 176.35,248.97 "/>
    </g>
    <g>
     <line class="fil0 str1" x1="192.18" y1="248.97" x2="200.09" y2= "262.68" />
    </g>
    <g>
     <line class="fil0 str1" x1="215.92" y1="262.68" x2="223.83" y2= "276.38" />
    </g>
    <g>
     <polyline class="fil0 str1" points="223.83,248.97 239.66,248.97 247.57,262.68 239.66,276.38 "/>
    </g>
    <g>
     <polyline class="fil0 str1" points="247.57,262.68 263.4,262.68 271.31,248.97 "/>
    </g>
    <g>
     <polyline class="fil0 str1" points="287.14,248.97 295.05,262.68 287.14,276.38 "/>
    </g>
    <g>
     <polyline class="fil0 str1" points="318.79,276.38 310.88,262.68 318.79,248.97 "/>
    </g>
    <g>
     <line class="fil0 str1" x1="334.62" y1="276.38" x2="342.53" y2= "262.68" />
    </g>
    <g>
     <polyline class="fil0 str1" points="358.35,262.68 366.27,276.38 358.35,290.09 "/>
    </g>
    <g>
     <polyline class="fil0 str1" points="10.17,317.5 2.26,303.79 10.17,290.09 "/>
    </g>
    <g>
     <polyline class="fil0 str1" points="33.91,303.79 26,290.09 33.91,276.38 "/>
    </g>
    <g>
     <line class="fil0 str1" x1="49.74" y1="303.79" x2="57.65" y2= "290.09" />
    </g>
    <g>
     <polyline class="fil0 str1" points="81.39,303.79 73.48,290.09 81.39,276.38 97.22,276.38 105.13,290.09 120.96,290.09 128.87,303.79 "/>
    </g>
    <g>
     <polyline class="fil0 str1" points="128.87,276.38 144.7,276.38 152.61,290.09 144.7,303.79 "/>
    </g>
    <g>
     <line class="fil0 str1" x1="152.61" y1="290.09" x2="168.44" y2= "290.09" />
    </g>
    <g>
     <polyline class="fil0 str1" points="176.35,276.38 192.18,276.38 200.09,290.09 192.18,303.79 "/>
    </g>
    <g>
     <polyline class="fil0 str1" points="200.09,290.09 215.92,290.09 223.83,303.79 "/>
    </g>
    <g>
     <line class="fil0 str1" x1="215.92" y1="290.09" x2="223.83" y2= "276.38" />
    </g>
    <g>
     <polyline class="fil0 str1" points="239.66,276.38 247.57,290.09 263.4,290.09 271.31,303.79 "/>
    </g>
    <g>
     <line class="fil0 str1" x1="271.31" y1="276.38" x2="287.14" y2= "276.38" />
    </g>
    <g>
     <polyline class="fil0 str1" points="287.14,303.79 295.05,290.09 310.88,290.09 318.79,276.38 334.62,276.38 "/>
    </g>
    <g>
     <line class="fil0 str1" x1="334.62" y1="303.79" x2="342.53" y2= "290.09" />
    </g>
    <g>
     <polyline class="fil0 str1" points="358.35,290.09 366.27,303.79 358.35,317.5 "/>
    </g>
    <g>
     <polyline class="fil0 str1" points="10.17,317.5 26,317.5 33.91,331.21 "/>
    </g>
    <g>
     <polyline class="fil0 str1" points="33.91,303.79 49.74,303.79 57.65,317.5 "/>
    </g>
    <g>
     <polyline class="fil0 str1" points="81.39,331.21 73.48,317.5 81.39,303.79 "/>
    </g>
    <g>
     <polyline class="fil0 str1" points="97.22,303.79 105.13,317.5 97.22,331.21 "/>
    </g>
    <g>
     <line class="fil0 str1" x1="120.96" y1="317.5" x2="128.87" y2= "303.79" />
    </g>
    <g>
     <polyline class="fil0 str1" points="144.7,303.79 152.61,317.5 144.7,331.21 "/>
    </g>
    <g>
     <polyline class="fil0 str1" points="176.35,331.21 168.44,317.5 176.35,303.79 192.18,303.79 "/>
    </g>
    <g>
     <polyline class="fil0 str1" points="192.18,331.21 200.09,317.5 215.92,317.5 223.83,303.79 239.66,303.79 247.57,317.5 239.66,331.21 "/>
    </g>
    <g>
     <polyline class="fil0 str1" points="247.57,317.5 263.4,317.5 271.31,331.21 "/>
    </g>
    <g>
     <polyline class="fil0 str1" points="271.31,303.79 287.14,303.79 295.05,317.5 "/>
    </g>
    <g>
     <polyline class="fil0 str1" points="318.79,331.21 310.88,317.5 318.79,303.79 334.62,303.79 "/>
    </g>
    <g>
     <polyline class="fil0 str1" points="334.62,331.21 342.53,317.5 358.35,317.5 "/>
    </g>
    <g>
     <polyline class="fil0 str1" points="33.91,331.21 49.74,331.21 57.65,344.91 73.48,344.91 81.39,358.62 "/>
    </g>
    <g>
     <line class="fil0 str1" x1="73.48" y1="344.91" x2="81.39" y2= "331.21" />
    </g>
    <g>
     <polyline class="fil0 str1" points="97.22,331.21 105.13,344.91 120.96,344.91 128.87,358.62 "/>
    </g>
    <g>
     <polyline class="fil0 str1" points="120.96,344.91 128.87,331.21 144.7,331.21 "/>
    </g>
    <g>
     <polyline class="fil0 str1" points="152.61,344.91 168.44,344.91 176.35,358.62 "/>
    </g>
    <g>
     <line class="fil0 str1" x1="168.44" y1="344.91" x2="176.35" y2= "331.21" />
    </g>
    <g>
     <polyline class="fil0 str1" points="192.18,358.62 200.09,344.91 215.92,344.91 223.83,331.21 "/>
    </g>
    <g>
     <line class="fil0 str1" x1="239.66" y1="358.62" x2="247.57" y2= "344.91" />
    </g>
    <g>
     <line class="fil0 str1" x1="263.4" y1="344.91" x2="271.31" y2= "358.62" />
    </g>
    <g>
     <polyline class="fil0 str1" points="271.31,331.21 287.14,331.21 295.05,344.91 287.14,358.62 "/>
    </g>
    <g>
     <polyline class="fil0 str1" points="295.05,344.91 310.88,344.91 318.79,331.21 334.62,331.21 "/>
    </g>
    <g>
     <polyline class="fil0 str1" points="81.39,358.62 97.22,358.62 105.13,372.32 120.96,372.32 128.87,386.03 "/>
    </g>
    <g>
     <polyline class="fil0 str1" points="144.7,358.62 152.61,372.32 144.7,386.03 "/>
    </g>
    <g>
     <line class="fil0 str1" x1="152.61" y1="372.32" x2="168.44" y2= "372.32" />
    </g>
    <g>
     <polyline class="fil0 str1" points="176.35,358.62 192.18,358.62 200.09,372.32 192.18,386.03 "/>
    </g>
    <g>
     <polyline class="fil0 str1" points="200.09,372.32 215.92,372.32 223.83,358.62 239.66,358.62 "/>
    </g>
    <g>
     <polyline class="fil0 str1" points="239.66,386.03 247.57,372.32 263.4,372.32 271.31,358.62 287.14,358.62 "/>
    </g>
    <g>
     <polyline class="fil0 str1" points="128.87,386.03 144.7,386.03 152.61,399.74 168.44,399.74 176.35,413.44 "/>
    </g>
    <g>
     <line class="fil0 str1" x1="176.35" y1="386.03" x2="192.18" y2= "386.03" />
    </g>
    <g>
     <polyline class="fil0 str1" points="192.18,413.44 200.09,399.74 215.92,399.74 223.83,386.03 239.66,386.03 "/>
    </g>
    <g>
     <line class="fil0 str1" x1="192.18" y1="413.44" x2="176.35" y2= "413.44" />
    </g>
   </g>
  </g>
 </g>
</svg>
