<?xml version="1.0" encoding="UTF-8"?>
<!DOCTYPE svg PUBLIC "-//W3C//DTD SVG 1.1//EN" "http://www.w3.org/Graphics/SVG/1.1/DTD/svg11.dtd">
<!-- Creator: CorelDRAW 2018 (64-Bit) -->
<svg xmlns="http://www.w3.org/2000/svg" xml:space="preserve" width="3.70833in" height="3.21709in" version="1.1" style="shape-rendering:geometricPrecision; text-rendering:geometricPrecision; image-rendering:optimizeQuality; fill-rule:evenodd; clip-rule:evenodd"
viewBox="0 0 5017.81 4353.11"
 xmlns:xlink="http://www.w3.org/1999/xlink">
 <defs>
  <style type="text/css">
   <![CDATA[
    .str0 {stroke:black;stroke-width:56.38;stroke-linecap:round;stroke-linejoin:round;stroke-miterlimit:2.61313}
    .str1 {stroke:yellow;stroke-width:37.59;stroke-linecap:round;stroke-linejoin:round;stroke-miterlimit:2.61313}
    .fil0 {fill:none}
   ]]>
  </style>
 </defs>
 <g id="Layer_x0020_1">
  <metadata id="CorelCorpID_0Corel-Layer"/>
  <g id="hex6.svg">
   <g>
    <g>
     <line class="fil0 str0" x1="1268.55" y1="28.19" x2="2508.9" y2= "28.19" />
    </g>
    <g>
     <line class="fil0 str0" x1="2818.99" y1="28.19" x2="3749.26" y2= "28.19" />
    </g>
    <g>
     <line class="fil0 str0" x1="2043.77" y1="296.74" x2="2974.04" y2= "296.74" />
    </g>
    <g>
     <line class="fil0 str0" x1="3284.13" y1="296.74" x2="3594.22" y2= "296.74" />
    </g>
    <g>
     <line class="fil0 str0" x1="2508.9" y1="565.28" x2="3129.08" y2= "565.28" />
    </g>
    <g>
     <line class="fil0 str0" x1="1113.5" y1="833.83" x2="1423.59" y2= "833.83" />
    </g>
    <g>
     <line class="fil0 str0" x1="1733.68" y1="833.83" x2="2043.77" y2= "833.83" />
    </g>
    <g>
     <line class="fil0 str0" x1="2353.86" y1="833.83" x2="2663.95" y2= "833.83" />
    </g>
    <g>
     <line class="fil0 str0" x1="2974.04" y1="833.83" x2="3284.13" y2= "833.83" />
    </g>
    <g>
     <line class="fil0 str0" x1="648.37" y1="1102.37" x2="958.45" y2= "1102.37" />
    </g>
    <g>
     <line class="fil0 str0" x1="1268.55" y1="1102.37" x2="1578.64" y2= "1102.37" />
    </g>
    <g>
     <line class="fil0 str0" x1="1888.72" y1="1102.37" x2="2198.82" y2= "1102.37" />
    </g>
    <g>
     <line class="fil0 str0" x1="3129.08" y1="1102.37" x2="3439.17" y2= "1102.37" />
    </g>
    <g>
     <line class="fil0 str0" x1="803.41" y1="1370.92" x2="1113.5" y2= "1370.92" />
    </g>
    <g>
     <line class="fil0 str0" x1="1423.59" y1="1370.92" x2="1733.68" y2= "1370.92" />
    </g>
    <g>
     <line class="fil0 str0" x1="2353.86" y1="1370.92" x2="2663.95" y2= "1370.92" />
    </g>
    <g>
     <line class="fil0 str0" x1="3284.13" y1="1370.92" x2="3594.22" y2= "1370.92" />
    </g>
    <g>
     <line class="fil0 str0" x1="338.28" y1="1639.46" x2="648.37" y2= "1639.46" />
    </g>
    <g>
     <line class="fil0 str0" x1="2198.82" y1="1639.46" x2="2818.99" y2= "1639.46" />
    </g>
    <g>
     <line class="fil0 str0" x1="3129.08" y1="1639.46" x2="3439.17" y2= "1639.46" />
    </g>
    <g>
     <line class="fil0 str0" x1="3749.26" y1="1639.46" x2="4059.35" y2= "1639.46" />
    </g>
    <g>
     <line class="fil0 str0" x1="4369.44" y1="1639.46" x2="4679.53" y2= "1639.46" />
    </g>
    <g>
     <line class="fil0 str0" x1="803.41" y1="1908.01" x2="1113.5" y2= "1908.01" />
    </g>
    <g>
     <line class="fil0 str0" x1="1733.68" y1="1908.01" x2="2043.77" y2= "1908.01" />
    </g>
    <g>
     <line class="fil0 str0" x1="2974.04" y1="1908.01" x2="3284.13" y2= "1908.01" />
    </g>
    <g>
     <line class="fil0 str0" x1="3594.22" y1="1908.01" x2="3904.31" y2= "1908.01" />
    </g>
    <g>
     <line class="fil0 str0" x1="4214.4" y1="1908.01" x2="4524.48" y2= "1908.01" />
    </g>
    <g>
     <line class="fil0 str0" x1="648.37" y1="2176.55" x2="1268.55" y2= "2176.55" />
    </g>
    <g>
     <line class="fil0 str0" x1="3439.17" y1="2176.55" x2="3749.26" y2= "2176.55" />
    </g>
    <g>
     <line class="fil0 str0" x1="4059.35" y1="2176.55" x2="4679.53" y2= "2176.55" />
    </g>
    <g>
     <line class="fil0 str0" x1="493.32" y1="2445.1" x2="1113.5" y2= "2445.1" />
    </g>
    <g>
     <line class="fil0 str0" x1="3904.31" y1="2445.1" x2="4524.48" y2= "2445.1" />
    </g>
    <g>
     <line class="fil0 str0" x1="648.37" y1="2713.65" x2="958.45" y2= "2713.65" />
    </g>
    <g>
     <line class="fil0 str0" x1="2508.9" y1="2713.65" x2="3129.08" y2= "2713.65" />
    </g>
    <g>
     <line class="fil0 str0" x1="4369.44" y1="2713.65" x2="4679.53" y2= "2713.65" />
    </g>
    <g>
     <line class="fil0 str0" x1="1733.68" y1="2982.19" x2="2043.77" y2= "2982.19" />
    </g>
    <g>
     <line class="fil0 str0" x1="2353.86" y1="2982.19" x2="2974.04" y2= "2982.19" />
    </g>
    <g>
     <line class="fil0 str0" x1="958.45" y1="3250.74" x2="1268.55" y2= "3250.74" />
    </g>
    <g>
     <line class="fil0 str0" x1="2198.82" y1="3250.74" x2="2508.9" y2= "3250.74" />
    </g>
    <g>
     <line class="fil0 str0" x1="2818.99" y1="3250.74" x2="3129.08" y2= "3250.74" />
    </g>
    <g>
     <line class="fil0 str0" x1="3439.17" y1="3250.74" x2="4059.35" y2= "3250.74" />
    </g>
    <g>
     <line class="fil0 str0" x1="1113.5" y1="3519.28" x2="1733.68" y2= "3519.28" />
    </g>
    <g>
     <line class="fil0 str0" x1="2353.86" y1="3519.28" x2="2663.95" y2= "3519.28" />
    </g>
    <g>
     <line class="fil0 str0" x1="2974.04" y1="3519.28" x2="3284.13" y2= "3519.28" />
    </g>
    <g>
     <line class="fil0 str0" x1="3904.31" y1="3519.28" x2="4214.4" y2= "3519.28" />
    </g>
    <g>
     <line class="fil0 str0" x1="958.45" y1="3787.82" x2="1268.55" y2= "3787.82" />
    </g>
    <g>
     <line class="fil0 str0" x1="1578.64" y1="3787.82" x2="1888.72" y2= "3787.82" />
    </g>
    <g>
     <line class="fil0 str0" x1="2198.82" y1="3787.82" x2="2508.9" y2= "3787.82" />
    </g>
    <g>
     <line class="fil0 str0" x1="1423.59" y1="4056.37" x2="1733.68" y2= "4056.37" />
    </g>
    <g>
     <line class="fil0 str0" x1="2043.77" y1="4056.37" x2="2353.86" y2= "4056.37" />
    </g>
    <g>
     <line class="fil0 str0" x1="2663.95" y1="4056.37" x2="3284.13" y2= "4056.37" />
    </g>
    <g>
     <line class="fil0 str0" x1="1268.55" y1="4324.92" x2="3749.26" y2= "4324.92" />
    </g>
    <g>
     <line class="fil0 str0" x1="183.23" y1="1908.01" x2="28.19" y2= "2176.55" />
    </g>
    <g>
     <line class="fil0 str0" x1="28.19" y1="2176.55" x2="183.23" y2= "2445.1" />
    </g>
    <g>
     <line class="fil0 str0" x1="338.28" y1="1639.46" x2="183.23" y2= "1908.01" />
    </g>
    <g>
     <line class="fil0 str0" x1="183.23" y1="2445.1" x2="338.28" y2= "2713.65" />
    </g>
    <g>
     <line class="fil0 str0" x1="493.32" y1="1370.92" x2="338.28" y2= "1639.46" />
    </g>
    <g>
     <line class="fil0 str0" x1="493.32" y1="1908.01" x2="338.28" y2= "2176.55" />
    </g>
    <g>
     <line class="fil0 str0" x1="338.28" y1="2176.55" x2="493.32" y2= "2445.1" />
    </g>
    <g>
     <polyline class="fil0 str0" points="493.32,2445.1 338.28,2713.65 493.32,2982.19 "/>
    </g>
    <g>
     <line class="fil0 str0" x1="648.37" y1="1102.37" x2="493.32" y2= "1370.92" />
    </g>
    <g>
     <line class="fil0 str0" x1="648.37" y1="2713.65" x2="493.32" y2= "2982.19" />
    </g>
    <g>
     <line class="fil0 str0" x1="493.32" y1="2982.19" x2="648.37" y2= "3250.74" />
    </g>
    <g>
     <line class="fil0 str0" x1="803.41" y1="833.83" x2="648.37" y2= "1102.37" />
    </g>
    <g>
     <polyline class="fil0 str0" points="803.41,1370.92 648.37,1639.46 803.41,1908.01 "/>
    </g>
    <g>
     <line class="fil0 str0" x1="648.37" y1="3250.74" x2="803.41" y2= "3519.28" />
    </g>
    <g>
     <line class="fil0 str0" x1="958.45" y1="565.28" x2="803.41" y2= "833.83" />
    </g>
    <g>
     <line class="fil0 str0" x1="803.41" y1="2982.19" x2="958.45" y2= "3250.74" />
    </g>
    <g>
     <line class="fil0 str0" x1="803.41" y1="3519.28" x2="958.45" y2= "3787.82" />
    </g>
    <g>
     <line class="fil0 str0" x1="1113.5" y1="296.74" x2="958.45" y2= "565.28" />
    </g>
    <g>
     <line class="fil0 str0" x1="1113.5" y1="833.83" x2="958.45" y2= "1102.37" />
    </g>
    <g>
     <line class="fil0 str0" x1="1113.5" y1="1370.92" x2="958.45" y2= "1639.46" />
    </g>
    <g>
     <line class="fil0 str0" x1="958.45" y1="2713.65" x2="1113.5" y2= "2982.19" />
    </g>
    <g>
     <line class="fil0 str0" x1="958.45" y1="3787.82" x2="1113.5" y2= "4056.37" />
    </g>
    <g>
     <line class="fil0 str0" x1="1268.55" y1="28.19" x2="1113.5" y2= "296.74" />
    </g>
    <g>
     <line class="fil0 str0" x1="1268.55" y1="2176.55" x2="1113.5" y2= "2445.1" />
    </g>
    <g>
     <line class="fil0 str0" x1="1113.5" y1="2445.1" x2="1268.55" y2= "2713.65" />
    </g>
    <g>
     <line class="fil0 str0" x1="1113.5" y1="4056.37" x2="1268.55" y2= "4324.92" />
    </g>
    <g>
     <line class="fil0 str0" x1="1268.55" y1="565.28" x2="1423.59" y2= "833.83" />
    </g>
    <g>
     <line class="fil0 str0" x1="1268.55" y1="1102.37" x2="1423.59" y2= "1370.92" />
    </g>
    <g>
     <polyline class="fil0 str0" points="1268.55,1639.46 1423.59,1908.01 1268.55,2176.55 "/>
    </g>
    <g>
     <polyline class="fil0 str0" points="1423.59,2445.1 1268.55,2713.65 1423.59,2982.19 "/>
    </g>
    <g>
     <line class="fil0 str0" x1="1423.59" y1="2982.19" x2="1268.55" y2= "3250.74" />
    </g>
    <g>
     <line class="fil0 str0" x1="1423.59" y1="3519.28" x2="1268.55" y2= "3787.82" />
    </g>
    <g>
     <line class="fil0 str0" x1="1423.59" y1="296.74" x2="1578.64" y2= "565.28" />
    </g>
    <g>
     <line class="fil0 str0" x1="1578.64" y1="2176.55" x2="1423.59" y2= "2445.1" />
    </g>
    <g>
     <line class="fil0 str0" x1="1578.64" y1="3250.74" x2="1423.59" y2= "3519.28" />
    </g>
    <g>
     <line class="fil0 str0" x1="1578.64" y1="28.19" x2="1733.68" y2= "296.74" />
    </g>
    <g>
     <line class="fil0 str0" x1="1578.64" y1="565.28" x2="1733.68" y2= "833.83" />
    </g>
    <g>
     <line class="fil0 str0" x1="1733.68" y1="833.83" x2="1578.64" y2= "1102.37" />
    </g>
    <g>
     <line class="fil0 str0" x1="1578.64" y1="1639.46" x2="1733.68" y2= "1908.01" />
    </g>
    <g>
     <polyline class="fil0 str0" points="1733.68,2445.1 1578.64,2713.65 1733.68,2982.19 "/>
    </g>
    <g>
     <line class="fil0 str0" x1="1733.68" y1="296.74" x2="1888.72" y2= "565.28" />
    </g>
    <g>
     <line class="fil0 str0" x1="1888.72" y1="1102.37" x2="1733.68" y2= "1370.92" />
    </g>
    <g>
     <line class="fil0 str0" x1="1733.68" y1="1370.92" x2="1888.72" y2= "1639.46" />
    </g>
    <g>
     <line class="fil0 str0" x1="1888.72" y1="3250.74" x2="1733.68" y2= "3519.28" />
    </g>
    <g>
     <line class="fil0 str0" x1="1733.68" y1="3519.28" x2="1888.72" y2= "3787.82" />
    </g>
    <g>
     <line class="fil0 str0" x1="1733.68" y1="4056.37" x2="1888.72" y2= "4324.92" />
    </g>
    <g>
     <line class="fil0 str0" x1="2043.77" y1="1370.92" x2="1888.72" y2= "1639.46" />
    </g>
    <g>
     <line class="fil0 str0" x1="2043.77" y1="1908.01" x2="1888.72" y2= "2176.55" />
    </g>
    <g>
     <line class="fil0 str0" x1="1888.72" y1="2176.55" x2="2043.77" y2= "2445.1" />
    </g>
    <g>
     <line class="fil0 str0" x1="2043.77" y1="2445.1" x2="1888.72" y2= "2713.65" />
    </g>
    <g>
     <line class="fil0 str0" x1="2043.77" y1="2982.19" x2="1888.72" y2= "3250.74" />
    </g>
    <g>
     <line class="fil0 str0" x1="1888.72" y1="3787.82" x2="2043.77" y2= "4056.37" />
    </g>
    <g>
     <line class="fil0 str0" x1="2198.82" y1="565.28" x2="2043.77" y2= "833.83" />
    </g>
    <g>
     <line class="fil0 str0" x1="2198.82" y1="1639.46" x2="2043.77" y2= "1908.01" />
    </g>
    <g>
     <line class="fil0 str0" x1="2043.77" y1="2445.1" x2="2198.82" y2= "2713.65" />
    </g>
    <g>
     <line class="fil0 str0" x1="2198.82" y1="3250.74" x2="2043.77" y2= "3519.28" />
    </g>
    <g>
     <line class="fil0 str0" x1="2043.77" y1="3519.28" x2="2198.82" y2= "3787.82" />
    </g>
    <g>
     <line class="fil0 str0" x1="2353.86" y1="296.74" x2="2198.82" y2= "565.28" />
    </g>
    <g>
     <line class="fil0 str0" x1="2353.86" y1="833.83" x2="2198.82" y2= "1102.37" />
    </g>
    <g>
     <line class="fil0 str0" x1="2353.86" y1="1370.92" x2="2198.82" y2= "1639.46" />
    </g>
    <g>
     <line class="fil0 str0" x1="2198.82" y1="2713.65" x2="2353.86" y2= "2982.19" />
    </g>
    <g>
     <line class="fil0 str0" x1="2508.9" y1="1102.37" x2="2353.86" y2= "1370.92" />
    </g>
    <g>
     <polyline class="fil0 str0" points="2508.9,3787.82 2663.95,4056.37 2508.9,4324.92 "/>
    </g>
    <g>
     <line class="fil0 str0" x1="2663.95" y1="833.83" x2="2818.99" y2= "1102.37" />
    </g>
    <g>
     <line class="fil0 str0" x1="2818.99" y1="3250.74" x2="2663.95" y2= "3519.28" />
    </g>
    <g>
     <line class="fil0 str0" x1="2663.95" y1="3519.28" x2="2818.99" y2= "3787.82" />
    </g>
    <g>
     <line class="fil0 str0" x1="2818.99" y1="565.28" x2="2974.04" y2= "833.83" />
    </g>
    <g>
     <line class="fil0 str0" x1="2818.99" y1="1102.37" x2="2974.04" y2= "1370.92" />
    </g>
    <g>
     <polyline class="fil0 str0" points="2974.04,1370.92 2818.99,1639.46 2974.04,1908.01 "/>
    </g>
    <g>
     <line class="fil0 str0" x1="2974.04" y1="2445.1" x2="2818.99" y2= "2713.65" />
    </g>
    <g>
     <line class="fil0 str0" x1="2974.04" y1="1370.92" x2="3129.08" y2= "1639.46" />
    </g>
    <g>
     <line class="fil0 str0" x1="2974.04" y1="1908.01" x2="3129.08" y2= "2176.55" />
    </g>
    <g>
     <line class="fil0 str0" x1="3129.08" y1="2176.55" x2="2974.04" y2= "2445.1" />
    </g>
    <g>
     <line class="fil0 str0" x1="2974.04" y1="2982.19" x2="3129.08" y2= "3250.74" />
    </g>
    <g>
     <polyline class="fil0 str0" points="2974.04,3519.28 3129.08,3787.82 2974.04,4056.37 "/>
    </g>
    <g>
     <polyline class="fil0 str0" points="3129.08,28.19 3284.13,296.74 3129.08,565.28 "/>
    </g>
    <g>
     <line class="fil0 str0" x1="3129.08" y1="2713.65" x2="3284.13" y2= "2982.19" />
    </g>
    <g>
     <line class="fil0 str0" x1="3439.17" y1="565.28" x2="3284.13" y2= "833.83" />
    </g>
    <g>
     <line class="fil0 str0" x1="3284.13" y1="833.83" x2="3439.17" y2= "1102.37" />
    </g>
    <g>
     <line class="fil0 str0" x1="3439.17" y1="2176.55" x2="3284.13" y2= "2445.1" />
    </g>
    <g>
     <line class="fil0 str0" x1="3284.13" y1="2445.1" x2="3439.17" y2= "2713.65" />
    </g>
    <g>
     <line class="fil0 str0" x1="3284.13" y1="2982.19" x2="3439.17" y2= "3250.74" />
    </g>
    <g>
     <line class="fil0 str0" x1="3439.17" y1="3250.74" x2="3284.13" y2= "3519.28" />
    </g>
    <g>
     <polyline class="fil0 str0" points="3594.22,1370.92 3439.17,1639.46 3594.22,1908.01 "/>
    </g>
    <g>
     <line class="fil0 str0" x1="3439.17" y1="2713.65" x2="3594.22" y2= "2982.19" />
    </g>
    <g>
     <polyline class="fil0 str0" points="3594.22,3519.28 3439.17,3787.82 3594.22,4056.37 3439.17,4324.92 "/>
    </g>
    <g>
     <line class="fil0 str0" x1="3749.26" y1="565.28" x2="3594.22" y2= "833.83" />
    </g>
    <g>
     <line class="fil0 str0" x1="3594.22" y1="833.83" x2="3749.26" y2= "1102.37" />
    </g>
    <g>
     <polyline class="fil0 str0" points="3594.22,2445.1 3749.26,2713.65 3594.22,2982.19 "/>
    </g>
    <g>
     <polyline class="fil0 str0" points="3749.26,28.19 3904.31,296.74 3749.26,565.28 "/>
    </g>
    <g>
     <line class="fil0 str0" x1="3749.26" y1="1102.37" x2="3904.31" y2= "1370.92" />
    </g>
    <g>
     <line class="fil0 str0" x1="3904.31" y1="1370.92" x2="3749.26" y2= "1639.46" />
    </g>
    <g>
     <line class="fil0 str0" x1="3904.31" y1="1908.01" x2="3749.26" y2= "2176.55" />
    </g>
    <g>
     <line class="fil0 str0" x1="3749.26" y1="2176.55" x2="3904.31" y2= "2445.1" />
    </g>
    <g>
     <line class="fil0 str0" x1="3904.31" y1="3519.28" x2="3749.26" y2= "3787.82" />
    </g>
    <g>
     <line class="fil0 str0" x1="3904.31" y1="4056.37" x2="3749.26" y2= "4324.92" />
    </g>
    <g>
     <polyline class="fil0 str0" points="3904.31,296.74 4059.35,565.28 3904.31,833.83 "/>
    </g>
    <g>
     <polyline class="fil0 str0" points="3904.31,2445.1 4059.35,2713.65 3904.31,2982.19 "/>
    </g>
    <g>
     <line class="fil0 str0" x1="4059.35" y1="3787.82" x2="3904.31" y2= "4056.37" />
    </g>
    <g>
     <line class="fil0 str0" x1="4059.35" y1="565.28" x2="4214.4" y2= "833.83" />
    </g>
    <g>
     <line class="fil0 str0" x1="4214.4" y1="833.83" x2="4059.35" y2= "1102.37" />
    </g>
    <g>
     <polyline class="fil0 str0" points="4214.4,1370.92 4059.35,1639.46 4214.4,1908.01 "/>
    </g>
    <g>
     <line class="fil0 str0" x1="4214.4" y1="2982.19" x2="4059.35" y2= "3250.74" />
    </g>
    <g>
     <line class="fil0 str0" x1="4214.4" y1="3519.28" x2="4059.35" y2= "3787.82" />
    </g>
    <g>
     <line class="fil0 str0" x1="4214.4" y1="833.83" x2="4369.44" y2= "1102.37" />
    </g>
    <g>
     <line class="fil0 str0" x1="4369.44" y1="3250.74" x2="4214.4" y2= "3519.28" />
    </g>
    <g>
     <line class="fil0 str0" x1="4369.44" y1="1102.37" x2="4524.48" y2= "1370.92" />
    </g>
    <g>
     <line class="fil0 str0" x1="4524.48" y1="2982.19" x2="4369.44" y2= "3250.74" />
    </g>
    <g>
     <line class="fil0 str0" x1="4524.48" y1="1370.92" x2="4679.53" y2= "1639.46" />
    </g>
    <g>
     <line class="fil0 str0" x1="4679.53" y1="2713.65" x2="4524.48" y2= "2982.19" />
    </g>
    <g>
     <polyline class="fil0 str0" points="4679.53,1639.46 4834.58,1908.01 4679.53,2176.55 "/>
    </g>
    <g>
     <line class="fil0 str0" x1="4834.58" y1="2445.1" x2="4679.53" y2= "2713.65" />
    </g>
    <g>
     <line class="fil0 str0" x1="4834.58" y1="1908.01" x2="4989.62" y2= "2176.55" />
    </g>
    <g>
     <line class="fil0 str0" x1="4989.62" y1="2176.55" x2="4834.58" y2= "2445.1" />
    </g>
   </g>
  </g>
  <g id="hex6.svg_0">
   <g>
    <g>
     <line class="fil0 str1" x1="1268.55" y1="28.19" x2="2508.9" y2= "28.19" />
    </g>
    <g>
     <line class="fil0 str1" x1="2818.99" y1="28.19" x2="3749.26" y2= "28.19" />
    </g>
    <g>
     <line class="fil0 str1" x1="2043.77" y1="296.74" x2="2974.04" y2= "296.74" />
    </g>
    <g>
     <line class="fil0 str1" x1="3284.13" y1="296.74" x2="3594.22" y2= "296.74" />
    </g>
    <g>
     <line class="fil0 str1" x1="2508.9" y1="565.28" x2="3129.08" y2= "565.28" />
    </g>
    <g>
     <line class="fil0 str1" x1="1113.5" y1="833.83" x2="1423.59" y2= "833.83" />
    </g>
    <g>
     <line class="fil0 str1" x1="1733.68" y1="833.83" x2="2043.77" y2= "833.83" />
    </g>
    <g>
     <line class="fil0 str1" x1="2353.86" y1="833.83" x2="2663.95" y2= "833.83" />
    </g>
    <g>
     <line class="fil0 str1" x1="2974.04" y1="833.83" x2="3284.13" y2= "833.83" />
    </g>
    <g>
     <line class="fil0 str1" x1="648.37" y1="1102.37" x2="958.45" y2= "1102.37" />
    </g>
    <g>
     <line class="fil0 str1" x1="1268.55" y1="1102.37" x2="1578.64" y2= "1102.37" />
    </g>
    <g>
     <line class="fil0 str1" x1="1888.72" y1="1102.37" x2="2198.82" y2= "1102.37" />
    </g>
    <g>
     <line class="fil0 str1" x1="3129.08" y1="1102.37" x2="3439.17" y2= "1102.37" />
    </g>
    <g>
     <line class="fil0 str1" x1="803.41" y1="1370.92" x2="1113.5" y2= "1370.92" />
    </g>
    <g>
     <line class="fil0 str1" x1="1423.59" y1="1370.92" x2="1733.68" y2= "1370.92" />
    </g>
    <g>
     <line class="fil0 str1" x1="2353.86" y1="1370.92" x2="2663.95" y2= "1370.92" />
    </g>
    <g>
     <line class="fil0 str1" x1="3284.13" y1="1370.92" x2="3594.22" y2= "1370.92" />
    </g>
    <g>
     <line class="fil0 str1" x1="338.28" y1="1639.46" x2="648.37" y2= "1639.46" />
    </g>
    <g>
     <line class="fil0 str1" x1="2198.82" y1="1639.46" x2="2818.99" y2= "1639.46" />
    </g>
    <g>
     <line class="fil0 str1" x1="3129.08" y1="1639.46" x2="3439.17" y2= "1639.46" />
    </g>
    <g>
     <line class="fil0 str1" x1="3749.26" y1="1639.46" x2="4059.35" y2= "1639.46" />
    </g>
    <g>
     <line class="fil0 str1" x1="4369.44" y1="1639.46" x2="4679.53" y2= "1639.46" />
    </g>
    <g>
     <line class="fil0 str1" x1="803.41" y1="1908.01" x2="1113.5" y2= "1908.01" />
    </g>
    <g>
     <line class="fil0 str1" x1="1733.68" y1="1908.01" x2="2043.77" y2= "1908.01" />
    </g>
    <g>
     <line class="fil0 str1" x1="2974.04" y1="1908.01" x2="3284.13" y2= "1908.01" />
    </g>
    <g>
     <line class="fil0 str1" x1="3594.22" y1="1908.01" x2="3904.31" y2= "1908.01" />
    </g>
    <g>
     <line class="fil0 str1" x1="4214.4" y1="1908.01" x2="4524.48" y2= "1908.01" />
    </g>
    <g>
     <line class="fil0 str1" x1="648.37" y1="2176.55" x2="1268.55" y2= "2176.55" />
    </g>
    <g>
     <line class="fil0 str1" x1="3439.17" y1="2176.55" x2="3749.26" y2= "2176.55" />
    </g>
    <g>
     <line class="fil0 str1" x1="4059.35" y1="2176.55" x2="4679.53" y2= "2176.55" />
    </g>
    <g>
     <line class="fil0 str1" x1="493.32" y1="2445.1" x2="1113.5" y2= "2445.1" />
    </g>
    <g>
     <line class="fil0 str1" x1="3904.31" y1="2445.1" x2="4524.48" y2= "2445.1" />
    </g>
    <g>
     <line class="fil0 str1" x1="648.37" y1="2713.65" x2="958.45" y2= "2713.65" />
    </g>
    <g>
     <line class="fil0 str1" x1="2508.9" y1="2713.65" x2="3129.08" y2= "2713.65" />
    </g>
    <g>
     <line class="fil0 str1" x1="4369.44" y1="2713.65" x2="4679.53" y2= "2713.65" />
    </g>
    <g>
     <line class="fil0 str1" x1="1733.68" y1="2982.19" x2="2043.77" y2= "2982.19" />
    </g>
    <g>
     <line class="fil0 str1" x1="2353.86" y1="2982.19" x2="2974.04" y2= "2982.19" />
    </g>
    <g>
     <line class="fil0 str1" x1="958.45" y1="3250.74" x2="1268.55" y2= "3250.74" />
    </g>
    <g>
     <line class="fil0 str1" x1="2198.82" y1="3250.74" x2="2508.9" y2= "3250.74" />
    </g>
    <g>
     <line class="fil0 str1" x1="2818.99" y1="3250.74" x2="3129.08" y2= "3250.74" />
    </g>
    <g>
     <line class="fil0 str1" x1="3439.17" y1="3250.74" x2="4059.35" y2= "3250.74" />
    </g>
    <g>
     <line class="fil0 str1" x1="1113.5" y1="3519.28" x2="1733.68" y2= "3519.28" />
    </g>
    <g>
     <line class="fil0 str1" x1="2353.86" y1="3519.28" x2="2663.95" y2= "3519.28" />
    </g>
    <g>
     <line class="fil0 str1" x1="2974.04" y1="3519.28" x2="3284.13" y2= "3519.28" />
    </g>
    <g>
     <line class="fil0 str1" x1="3904.31" y1="3519.28" x2="4214.4" y2= "3519.28" />
    </g>
    <g>
     <line class="fil0 str1" x1="958.45" y1="3787.82" x2="1268.55" y2= "3787.82" />
    </g>
    <g>
     <line class="fil0 str1" x1="1578.64" y1="3787.82" x2="1888.72" y2= "3787.82" />
    </g>
    <g>
     <line class="fil0 str1" x1="2198.82" y1="3787.82" x2="2508.9" y2= "3787.82" />
    </g>
    <g>
     <line class="fil0 str1" x1="1423.59" y1="4056.37" x2="1733.68" y2= "4056.37" />
    </g>
    <g>
     <line class="fil0 str1" x1="2043.77" y1="4056.37" x2="2353.86" y2= "4056.37" />
    </g>
    <g>
     <line class="fil0 str1" x1="2663.95" y1="4056.37" x2="3284.13" y2= "4056.37" />
    </g>
    <g>
     <line class="fil0 str1" x1="1268.55" y1="4324.92" x2="3749.26" y2= "4324.92" />
    </g>
    <g>
     <line class="fil0 str1" x1="183.23" y1="1908.01" x2="28.19" y2= "2176.55" />
    </g>
    <g>
     <line class="fil0 str1" x1="28.19" y1="2176.55" x2="183.23" y2= "2445.1" />
    </g>
    <g>
     <line class="fil0 str1" x1="338.28" y1="1639.46" x2="183.23" y2= "1908.01" />
    </g>
    <g>
     <line class="fil0 str1" x1="183.23" y1="2445.1" x2="338.28" y2= "2713.65" />
    </g>
    <g>
     <line class="fil0 str1" x1="493.32" y1="1370.92" x2="338.28" y2= "1639.46" />
    </g>
    <g>
     <line class="fil0 str1" x1="493.32" y1="1908.01" x2="338.28" y2= "2176.55" />
    </g>
    <g>
     <line class="fil0 str1" x1="338.28" y1="2176.55" x2="493.32" y2= "2445.1" />
    </g>
    <g>
     <polyline class="fil0 str1" points="493.32,2445.1 338.28,2713.65 493.32,2982.19 "/>
    </g>
    <g>
     <line class="fil0 str1" x1="648.37" y1="1102.37" x2="493.32" y2= "1370.92" />
    </g>
    <g>
     <line class="fil0 str1" x1="648.37" y1="2713.65" x2="493.32" y2= "2982.19" />
    </g>
    <g>
     <line class="fil0 str1" x1="493.32" y1="2982.19" x2="648.37" y2= "3250.74" />
    </g>
    <g>
     <line class="fil0 str1" x1="803.41" y1="833.83" x2="648.37" y2= "1102.37" />
    </g>
    <g>
     <polyline class="fil0 str1" points="803.41,1370.92 648.37,1639.46 803.41,1908.01 "/>
    </g>
    <g>
     <line class="fil0 str1" x1="648.37" y1="3250.74" x2="803.41" y2= "3519.28" />
    </g>
    <g>
     <line class="fil0 str1" x1="958.45" y1="565.28" x2="803.41" y2= "833.83" />
    </g>
    <g>
     <line class="fil0 str1" x1="803.41" y1="2982.19" x2="958.45" y2= "3250.74" />
    </g>
    <g>
     <line class="fil0 str1" x1="803.41" y1="3519.28" x2="958.45" y2= "3787.82" />
    </g>
    <g>
     <line class="fil0 str1" x1="1113.5" y1="296.74" x2="958.45" y2= "565.28" />
    </g>
    <g>
     <line class="fil0 str1" x1="1113.5" y1="833.83" x2="958.45" y2= "1102.37" />
    </g>
    <g>
     <line class="fil0 str1" x1="1113.5" y1="1370.92" x2="958.45" y2= "1639.46" />
    </g>
    <g>
     <line class="fil0 str1" x1="958.45" y1="2713.65" x2="1113.5" y2= "2982.19" />
    </g>
    <g>
     <line class="fil0 str1" x1="958.45" y1="3787.82" x2="1113.5" y2= "4056.37" />
    </g>
    <g>
     <line class="fil0 str1" x1="1268.55" y1="28.19" x2="1113.5" y2= "296.74" />
    </g>
    <g>
     <line class="fil0 str1" x1="1268.55" y1="2176.55" x2="1113.5" y2= "2445.1" />
    </g>
    <g>
     <line class="fil0 str1" x1="1113.5" y1="2445.1" x2="1268.55" y2= "2713.65" />
    </g>
    <g>
     <line class="fil0 str1" x1="1113.5" y1="4056.37" x2="1268.55" y2= "4324.92" />
    </g>
    <g>
     <line class="fil0 str1" x1="1268.55" y1="565.28" x2="1423.59" y2= "833.83" />
    </g>
    <g>
     <line class="fil0 str1" x1="1268.55" y1="1102.37" x2="1423.59" y2= "1370.92" />
    </g>
    <g>
     <polyline class="fil0 str1" points="1268.55,1639.46 1423.59,1908.01 1268.55,2176.55 "/>
    </g>
    <g>
     <polyline class="fil0 str1" points="1423.59,2445.1 1268.55,2713.65 1423.59,2982.19 "/>
    </g>
    <g>
     <line class="fil0 str1" x1="1423.59" y1="2982.19" x2="1268.55" y2= "3250.74" />
    </g>
    <g>
     <line class="fil0 str1" x1="1423.59" y1="3519.28" x2="1268.55" y2= "3787.82" />
    </g>
    <g>
     <line class="fil0 str1" x1="1423.59" y1="296.74" x2="1578.64" y2= "565.28" />
    </g>
    <g>
     <line class="fil0 str1" x1="1578.64" y1="2176.55" x2="1423.59" y2= "2445.1" />
    </g>
    <g>
     <line class="fil0 str1" x1="1578.64" y1="3250.74" x2="1423.59" y2= "3519.28" />
    </g>
    <g>
     <line class="fil0 str1" x1="1578.64" y1="28.19" x2="1733.68" y2= "296.74" />
    </g>
    <g>
     <line class="fil0 str1" x1="1578.64" y1="565.28" x2="1733.68" y2= "833.83" />
    </g>
    <g>
     <line class="fil0 str1" x1="1733.68" y1="833.83" x2="1578.64" y2= "1102.37" />
    </g>
    <g>
     <line class="fil0 str1" x1="1578.64" y1="1639.46" x2="1733.68" y2= "1908.01" />
    </g>
    <g>
     <polyline class="fil0 str1" points="1733.68,2445.1 1578.64,2713.65 1733.68,2982.19 "/>
    </g>
    <g>
     <line class="fil0 str1" x1="1733.68" y1="296.74" x2="1888.72" y2= "565.28" />
    </g>
    <g>
     <line class="fil0 str1" x1="1888.72" y1="1102.37" x2="1733.68" y2= "1370.92" />
    </g>
    <g>
     <line class="fil0 str1" x1="1733.68" y1="1370.92" x2="1888.72" y2= "1639.46" />
    </g>
    <g>
     <line class="fil0 str1" x1="1888.72" y1="3250.74" x2="1733.68" y2= "3519.28" />
    </g>
    <g>
     <line class="fil0 str1" x1="1733.68" y1="3519.28" x2="1888.72" y2= "3787.82" />
    </g>
    <g>
     <line class="fil0 str1" x1="1733.68" y1="4056.37" x2="1888.72" y2= "4324.92" />
    </g>
    <g>
     <line class="fil0 str1" x1="2043.77" y1="1370.92" x2="1888.72" y2= "1639.46" />
    </g>
    <g>
     <line class="fil0 str1" x1="2043.77" y1="1908.01" x2="1888.72" y2= "2176.55" />
    </g>
    <g>
     <line class="fil0 str1" x1="1888.72" y1="2176.55" x2="2043.77" y2= "2445.1" />
    </g>
    <g>
     <line class="fil0 str1" x1="2043.77" y1="2445.1" x2="1888.72" y2= "2713.65" />
    </g>
    <g>
     <line class="fil0 str1" x1="2043.77" y1="2982.19" x2="1888.72" y2= "3250.74" />
    </g>
    <g>
     <line class="fil0 str1" x1="1888.72" y1="3787.82" x2="2043.77" y2= "4056.37" />
    </g>
    <g>
     <line class="fil0 str1" x1="2198.82" y1="565.28" x2="2043.77" y2= "833.83" />
    </g>
    <g>
     <line class="fil0 str1" x1="2198.82" y1="1639.46" x2="2043.77" y2= "1908.01" />
    </g>
    <g>
     <line class="fil0 str1" x1="2043.77" y1="2445.1" x2="2198.82" y2= "2713.65" />
    </g>
    <g>
     <line class="fil0 str1" x1="2198.82" y1="3250.74" x2="2043.77" y2= "3519.28" />
    </g>
    <g>
     <line class="fil0 str1" x1="2043.77" y1="3519.28" x2="2198.82" y2= "3787.82" />
    </g>
    <g>
     <line class="fil0 str1" x1="2353.86" y1="296.74" x2="2198.82" y2= "565.28" />
    </g>
    <g>
     <line class="fil0 str1" x1="2353.86" y1="833.83" x2="2198.82" y2= "1102.37" />
    </g>
    <g>
     <line class="fil0 str1" x1="2353.86" y1="1370.92" x2="2198.82" y2= "1639.46" />
    </g>
    <g>
     <line class="fil0 str1" x1="2198.82" y1="2713.65" x2="2353.86" y2= "2982.19" />
    </g>
    <g>
     <line class="fil0 str1" x1="2508.9" y1="1102.37" x2="2353.86" y2= "1370.92" />
    </g>
    <g>
     <polyline class="fil0 str1" points="2508.9,3787.82 2663.95,4056.37 2508.9,4324.92 "/>
    </g>
    <g>
     <line class="fil0 str1" x1="2663.95" y1="833.83" x2="2818.99" y2= "1102.37" />
    </g>
    <g>
     <line class="fil0 str1" x1="2818.99" y1="3250.74" x2="2663.95" y2= "3519.28" />
    </g>
    <g>
     <line class="fil0 str1" x1="2663.95" y1="3519.28" x2="2818.99" y2= "3787.82" />
    </g>
    <g>
     <line class="fil0 str1" x1="2818.99" y1="565.28" x2="2974.04" y2= "833.83" />
    </g>
    <g>
     <line class="fil0 str1" x1="2818.99" y1="1102.37" x2="2974.04" y2= "1370.92" />
    </g>
    <g>
     <polyline class="fil0 str1" points="2974.04,1370.92 2818.99,1639.46 2974.04,1908.01 "/>
    </g>
    <g>
     <line class="fil0 str1" x1="2974.04" y1="2445.1" x2="2818.99" y2= "2713.65" />
    </g>
    <g>
     <line class="fil0 str1" x1="2974.04" y1="1370.92" x2="3129.08" y2= "1639.46" />
    </g>
    <g>
     <line class="fil0 str1" x1="2974.04" y1="1908.01" x2="3129.08" y2= "2176.55" />
    </g>
    <g>
     <line class="fil0 str1" x1="3129.08" y1="2176.55" x2="2974.04" y2= "2445.1" />
    </g>
    <g>
     <line class="fil0 str1" x1="2974.04" y1="2982.19" x2="3129.08" y2= "3250.74" />
    </g>
    <g>
     <polyline class="fil0 str1" points="2974.04,3519.28 3129.08,3787.82 2974.04,4056.37 "/>
    </g>
    <g>
     <polyline class="fil0 str1" points="3129.08,28.19 3284.13,296.74 3129.08,565.28 "/>
    </g>
    <g>
     <line class="fil0 str1" x1="3129.08" y1="2713.65" x2="3284.13" y2= "2982.19" />
    </g>
    <g>
     <line class="fil0 str1" x1="3439.17" y1="565.28" x2="3284.13" y2= "833.83" />
    </g>
    <g>
     <line class="fil0 str1" x1="3284.13" y1="833.83" x2="3439.17" y2= "1102.37" />
    </g>
    <g>
     <line class="fil0 str1" x1="3439.17" y1="2176.55" x2="3284.13" y2= "2445.1" />
    </g>
    <g>
     <line class="fil0 str1" x1="3284.13" y1="2445.1" x2="3439.17" y2= "2713.65" />
    </g>
    <g>
     <line class="fil0 str1" x1="3284.13" y1="2982.19" x2="3439.17" y2= "3250.74" />
    </g>
    <g>
     <line class="fil0 str1" x1="3439.17" y1="3250.74" x2="3284.13" y2= "3519.28" />
    </g>
    <g>
     <polyline class="fil0 str1" points="3594.22,1370.92 3439.17,1639.46 3594.22,1908.01 "/>
    </g>
    <g>
     <line class="fil0 str1" x1="3439.17" y1="2713.65" x2="3594.22" y2= "2982.19" />
    </g>
    <g>
     <polyline class="fil0 str1" points="3594.22,3519.28 3439.17,3787.82 3594.22,4056.37 3439.17,4324.92 "/>
    </g>
    <g>
     <line class="fil0 str1" x1="3749.26" y1="565.28" x2="3594.22" y2= "833.83" />
    </g>
    <g>
     <line class="fil0 str1" x1="3594.22" y1="833.83" x2="3749.26" y2= "1102.37" />
    </g>
    <g>
     <polyline class="fil0 str1" points="3594.22,2445.1 3749.26,2713.65 3594.22,2982.19 "/>
    </g>
    <g>
     <polyline class="fil0 str1" points="3749.26,28.19 3904.31,296.74 3749.26,565.28 "/>
    </g>
    <g>
     <line class="fil0 str1" x1="3749.26" y1="1102.37" x2="3904.31" y2= "1370.92" />
    </g>
    <g>
     <line class="fil0 str1" x1="3904.31" y1="1370.92" x2="3749.26" y2= "1639.46" />
    </g>
    <g>
     <line class="fil0 str1" x1="3904.31" y1="1908.01" x2="3749.26" y2= "2176.55" />
    </g>
    <g>
     <line class="fil0 str1" x1="3749.26" y1="2176.55" x2="3904.31" y2= "2445.1" />
    </g>
    <g>
     <line class="fil0 str1" x1="3904.31" y1="3519.28" x2="3749.26" y2= "3787.82" />
    </g>
    <g>
     <line class="fil0 str1" x1="3904.31" y1="4056.37" x2="3749.26" y2= "4324.92" />
    </g>
    <g>
     <polyline class="fil0 str1" points="3904.31,296.74 4059.35,565.28 3904.31,833.83 "/>
    </g>
    <g>
     <polyline class="fil0 str1" points="3904.31,2445.1 4059.35,2713.65 3904.31,2982.19 "/>
    </g>
    <g>
     <line class="fil0 str1" x1="4059.35" y1="3787.82" x2="3904.31" y2= "4056.37" />
    </g>
    <g>
     <line class="fil0 str1" x1="4059.35" y1="565.28" x2="4214.4" y2= "833.83" />
    </g>
    <g>
     <line class="fil0 str1" x1="4214.4" y1="833.83" x2="4059.35" y2= "1102.37" />
    </g>
    <g>
     <polyline class="fil0 str1" points="4214.4,1370.92 4059.35,1639.46 4214.4,1908.01 "/>
    </g>
    <g>
     <line class="fil0 str1" x1="4214.4" y1="2982.19" x2="4059.35" y2= "3250.74" />
    </g>
    <g>
     <line class="fil0 str1" x1="4214.4" y1="3519.28" x2="4059.35" y2= "3787.82" />
    </g>
    <g>
     <line class="fil0 str1" x1="4214.4" y1="833.83" x2="4369.44" y2= "1102.37" />
    </g>
    <g>
     <line class="fil0 str1" x1="4369.44" y1="3250.74" x2="4214.4" y2= "3519.28" />
    </g>
    <g>
     <line class="fil0 str1" x1="4369.44" y1="1102.37" x2="4524.48" y2= "1370.92" />
    </g>
    <g>
     <line class="fil0 str1" x1="4524.48" y1="2982.19" x2="4369.44" y2= "3250.74" />
    </g>
    <g>
     <line class="fil0 str1" x1="4524.48" y1="1370.92" x2="4679.53" y2= "1639.46" />
    </g>
    <g>
     <line class="fil0 str1" x1="4679.53" y1="2713.65" x2="4524.48" y2= "2982.19" />
    </g>
    <g>
     <polyline class="fil0 str1" points="4679.53,1639.46 4834.58,1908.01 4679.53,2176.55 "/>
    </g>
    <g>
     <line class="fil0 str1" x1="4834.58" y1="2445.1" x2="4679.53" y2= "2713.65" />
    </g>
    <g>
     <line class="fil0 str1" x1="4834.58" y1="1908.01" x2="4989.62" y2= "2176.55" />
    </g>
    <g>
     <line class="fil0 str1" x1="4989.62" y1="2176.55" x2="4834.58" y2= "2445.1" />
    </g>
   </g>
  </g>
 </g>
</svg>
