<?xml version="1.0" encoding="UTF-8"?>
<!DOCTYPE svg PUBLIC "-//W3C//DTD SVG 1.1//EN" "http://www.w3.org/Graphics/SVG/1.1/DTD/svg11.dtd">
<!-- Creator: CorelDRAW 2018 (64-Bit) -->
<svg xmlns="http://www.w3.org/2000/svg" xml:space="preserve" width="3.70833in" height="3.21709in" version="1.1" style="shape-rendering:geometricPrecision; text-rendering:geometricPrecision; image-rendering:optimizeQuality; fill-rule:evenodd; clip-rule:evenodd"
viewBox="0 0 783.88 680.04"
 xmlns:xlink="http://www.w3.org/1999/xlink">
 <defs>
  <style type="text/css">
   <![CDATA[
    .str0 {stroke:black;stroke-width:8.81;stroke-linecap:round;stroke-linejoin:round;stroke-miterlimit:2.61313}
    .str1 {stroke:yellow;stroke-width:5.87;stroke-linecap:round;stroke-linejoin:round;stroke-miterlimit:2.61313}
    .fil0 {fill:none}
   ]]>
  </style>
 </defs>
 <g id="Layer_x0020_1">
  <metadata id="CorelCorpID_0Corel-Layer"/>
  <g id="hex8.svg">
   <g>
    <g>
     <line class="fil0 str0" x1="198.17" y1="4.4" x2="391.94" y2= "4.4" />
    </g>
    <g>
     <line class="fil0 str0" x1="440.38" y1="4.4" x2="585.71" y2= "4.4" />
    </g>
    <g>
     <line class="fil0 str0" x1="222.39" y1="46.36" x2="367.72" y2= "46.36" />
    </g>
    <g>
     <line class="fil0 str0" x1="416.16" y1="46.36" x2="513.05" y2= "46.36" />
    </g>
    <g>
     <line class="fil0 str0" x1="246.62" y1="88.31" x2="295.06" y2= "88.31" />
    </g>
    <g>
     <line class="fil0 str0" x1="585.71" y1="88.31" x2="634.15" y2= "88.31" />
    </g>
    <g>
     <line class="fil0 str0" x1="125.51" y1="130.26" x2="173.95" y2= "130.26" />
    </g>
    <g>
     <line class="fil0 str0" x1="222.39" y1="130.26" x2="270.84" y2= "130.26" />
    </g>
    <g>
     <line class="fil0 str0" x1="367.72" y1="130.26" x2="416.16" y2= "130.26" />
    </g>
    <g>
     <line class="fil0 str0" x1="246.62" y1="172.21" x2="295.06" y2= "172.21" />
    </g>
    <g>
     <line class="fil0 str0" x1="488.83" y1="172.21" x2="537.27" y2= "172.21" />
    </g>
    <g>
     <line class="fil0 str0" x1="585.71" y1="172.21" x2="634.15" y2= "172.21" />
    </g>
    <g>
     <line class="fil0 str0" x1="77.07" y1="214.16" x2="125.51" y2= "214.16" />
    </g>
    <g>
     <line class="fil0 str0" x1="561.49" y1="214.16" x2="658.37" y2= "214.16" />
    </g>
    <g>
     <line class="fil0 str0" x1="343.5" y1="256.12" x2="440.38" y2= "256.12" />
    </g>
    <g>
     <line class="fil0 str0" x1="537.27" y1="256.12" x2="634.15" y2= "256.12" />
    </g>
    <g>
     <line class="fil0 str0" x1="125.51" y1="298.07" x2="222.39" y2= "298.07" />
    </g>
    <g>
     <line class="fil0 str0" x1="561.49" y1="298.07" x2="609.93" y2= "298.07" />
    </g>
    <g>
     <line class="fil0 str0" x1="488.83" y1="340.02" x2="585.71" y2= "340.02" />
    </g>
    <g>
     <line class="fil0 str0" x1="391.94" y1="423.93" x2="440.38" y2= "423.93" />
    </g>
    <g>
     <line class="fil0 str0" x1="537.27" y1="423.93" x2="634.15" y2= "423.93" />
    </g>
    <g>
     <line class="fil0 str0" x1="682.6" y1="423.93" x2="731.04" y2= "423.93" />
    </g>
    <g>
     <line class="fil0 str0" x1="125.51" y1="465.88" x2="173.95" y2= "465.88" />
    </g>
    <g>
     <line class="fil0 str0" x1="367.72" y1="465.88" x2="464.61" y2= "465.88" />
    </g>
    <g>
     <line class="fil0 str0" x1="561.49" y1="465.88" x2="609.93" y2= "465.88" />
    </g>
    <g>
     <line class="fil0 str0" x1="149.73" y1="507.83" x2="246.62" y2= "507.83" />
    </g>
    <g>
     <line class="fil0 str0" x1="391.94" y1="507.83" x2="440.38" y2= "507.83" />
    </g>
    <g>
     <line class="fil0 str0" x1="488.83" y1="507.83" x2="634.15" y2= "507.83" />
    </g>
    <g>
     <line class="fil0 str0" x1="319.28" y1="549.78" x2="416.16" y2= "549.78" />
    </g>
    <g>
     <line class="fil0 str0" x1="149.73" y1="591.74" x2="198.17" y2= "591.74" />
    </g>
    <g>
     <line class="fil0 str0" x1="343.5" y1="591.74" x2="440.38" y2= "591.74" />
    </g>
    <g>
     <line class="fil0 str0" x1="173.95" y1="633.69" x2="222.39" y2= "633.69" />
    </g>
    <g>
     <line class="fil0 str0" x1="198.17" y1="675.64" x2="585.71" y2= "675.64" />
    </g>
    <g>
     <line class="fil0 str0" x1="28.62" y1="298.07" x2="4.4" y2= "340.02" />
    </g>
    <g>
     <line class="fil0 str0" x1="4.4" y1="340.02" x2="28.62" y2= "381.97" />
    </g>
    <g>
     <line class="fil0 str0" x1="52.85" y1="256.12" x2="28.62" y2= "298.07" />
    </g>
    <g>
     <line class="fil0 str0" x1="28.62" y1="381.97" x2="52.85" y2= "423.93" />
    </g>
    <g>
     <line class="fil0 str0" x1="77.07" y1="214.16" x2="52.85" y2= "256.12" />
    </g>
    <g>
     <line class="fil0 str0" x1="77.07" y1="298.07" x2="52.85" y2= "340.02" />
    </g>
    <g>
     <line class="fil0 str0" x1="52.85" y1="423.93" x2="77.07" y2= "465.88" />
    </g>
    <g>
     <line class="fil0 str0" x1="101.29" y1="172.21" x2="77.07" y2= "214.16" />
    </g>
    <g>
     <line class="fil0 str0" x1="101.29" y1="256.12" x2="77.07" y2= "298.07" />
    </g>
    <g>
     <line class="fil0 str0" x1="101.29" y1="340.02" x2="77.07" y2= "381.97" />
    </g>
    <g>
     <line class="fil0 str0" x1="77.07" y1="381.97" x2="101.29" y2= "423.93" />
    </g>
    <g>
     <line class="fil0 str0" x1="77.07" y1="465.88" x2="101.29" y2= "507.83" />
    </g>
    <g>
     <line class="fil0 str0" x1="125.51" y1="130.26" x2="101.29" y2= "172.21" />
    </g>
    <g>
     <line class="fil0 str0" x1="101.29" y1="256.12" x2="125.51" y2= "298.07" />
    </g>
    <g>
     <polyline class="fil0 str0" points="125.51,381.97 101.29,423.93 125.51,465.88 "/>
    </g>
    <g>
     <line class="fil0 str0" x1="125.51" y1="465.88" x2="101.29" y2= "507.83" />
    </g>
    <g>
     <line class="fil0 str0" x1="101.29" y1="507.83" x2="125.51" y2= "549.78" />
    </g>
    <g>
     <line class="fil0 str0" x1="149.73" y1="88.31" x2="125.51" y2= "130.26" />
    </g>
    <g>
     <line class="fil0 str0" x1="149.73" y1="172.21" x2="125.51" y2= "214.16" />
    </g>
    <g>
     <line class="fil0 str0" x1="125.51" y1="214.16" x2="149.73" y2= "256.12" />
    </g>
    <g>
     <line class="fil0 str0" x1="125.51" y1="298.07" x2="149.73" y2= "340.02" />
    </g>
    <g>
     <line class="fil0 str0" x1="149.73" y1="340.02" x2="125.51" y2= "381.97" />
    </g>
    <g>
     <line class="fil0 str0" x1="125.51" y1="549.78" x2="149.73" y2= "591.74" />
    </g>
    <g>
     <line class="fil0 str0" x1="173.95" y1="46.36" x2="149.73" y2= "88.31" />
    </g>
    <g>
     <line class="fil0 str0" x1="173.95" y1="381.97" x2="149.73" y2= "423.93" />
    </g>
    <g>
     <line class="fil0 str0" x1="149.73" y1="591.74" x2="173.95" y2= "633.69" />
    </g>
    <g>
     <line class="fil0 str0" x1="198.17" y1="4.4" x2="173.95" y2= "46.36" />
    </g>
    <g>
     <line class="fil0 str0" x1="198.17" y1="88.31" x2="173.95" y2= "130.26" />
    </g>
    <g>
     <polyline class="fil0 str0" points="173.95,214.16 198.17,256.12 173.95,298.07 "/>
    </g>
    <g>
     <line class="fil0 str0" x1="198.17" y1="340.02" x2="173.95" y2= "381.97" />
    </g>
    <g>
     <line class="fil0 str0" x1="198.17" y1="423.93" x2="173.95" y2= "465.88" />
    </g>
    <g>
     <line class="fil0 str0" x1="198.17" y1="507.83" x2="173.95" y2= "549.78" />
    </g>
    <g>
     <line class="fil0 str0" x1="173.95" y1="633.69" x2="198.17" y2= "675.64" />
    </g>
    <g>
     <line class="fil0 str0" x1="222.39" y1="130.26" x2="198.17" y2= "172.21" />
    </g>
    <g>
     <line class="fil0 str0" x1="198.17" y1="340.02" x2="222.39" y2= "381.97" />
    </g>
    <g>
     <line class="fil0 str0" x1="222.39" y1="549.78" x2="198.17" y2= "591.74" />
    </g>
    <g>
     <polyline class="fil0 str0" points="222.39,46.36 246.62,88.31 222.39,130.26 "/>
    </g>
    <g>
     <line class="fil0 str0" x1="246.62" y1="172.21" x2="222.39" y2= "214.16" />
    </g>
    <g>
     <line class="fil0 str0" x1="222.39" y1="214.16" x2="246.62" y2= "256.12" />
    </g>
    <g>
     <polyline class="fil0 str0" points="222.39,381.97 246.62,423.93 222.39,465.88 "/>
    </g>
    <g>
     <line class="fil0 str0" x1="222.39" y1="465.88" x2="246.62" y2= "507.83" />
    </g>
    <g>
     <line class="fil0 str0" x1="246.62" y1="591.74" x2="222.39" y2= "633.69" />
    </g>
    <g>
     <line class="fil0 str0" x1="270.84" y1="298.07" x2="246.62" y2= "340.02" />
    </g>
    <g>
     <line class="fil0 str0" x1="246.62" y1="340.02" x2="270.84" y2= "381.97" />
    </g>
    <g>
     <line class="fil0 str0" x1="246.62" y1="507.83" x2="270.84" y2= "549.78" />
    </g>
    <g>
     <line class="fil0 str0" x1="270.84" y1="549.78" x2="246.62" y2= "591.74" />
    </g>
    <g>
     <line class="fil0 str0" x1="270.84" y1="633.69" x2="246.62" y2= "675.64" />
    </g>
    <g>
     <line class="fil0 str0" x1="270.84" y1="214.16" x2="295.06" y2= "256.12" />
    </g>
    <g>
     <polyline class="fil0 str0" points="270.84,381.97 295.06,423.93 270.84,465.88 "/>
    </g>
    <g>
     <line class="fil0 str0" x1="295.06" y1="591.74" x2="270.84" y2= "633.69" />
    </g>
    <g>
     <line class="fil0 str0" x1="319.28" y1="130.26" x2="295.06" y2= "172.21" />
    </g>
    <g>
     <line class="fil0 str0" x1="295.06" y1="172.21" x2="319.28" y2= "214.16" />
    </g>
    <g>
     <polyline class="fil0 str0" points="295.06,256.12 319.28,298.07 295.06,340.02 "/>
    </g>
    <g>
     <line class="fil0 str0" x1="295.06" y1="340.02" x2="319.28" y2= "381.97" />
    </g>
    <g>
     <line class="fil0 str0" x1="295.06" y1="423.93" x2="319.28" y2= "465.88" />
    </g>
    <g>
     <line class="fil0 str0" x1="319.28" y1="465.88" x2="295.06" y2= "507.83" />
    </g>
    <g>
     <line class="fil0 str0" x1="295.06" y1="507.83" x2="319.28" y2= "549.78" />
    </g>
    <g>
     <line class="fil0 str0" x1="319.28" y1="549.78" x2="295.06" y2= "591.74" />
    </g>
    <g>
     <line class="fil0 str0" x1="343.5" y1="88.31" x2="319.28" y2= "130.26" />
    </g>
    <g>
     <polyline class="fil0 str0" points="319.28,214.16 343.5,256.12 319.28,298.07 "/>
    </g>
    <g>
     <line class="fil0 str0" x1="319.28" y1="381.97" x2="343.5" y2= "423.93" />
    </g>
    <g>
     <line class="fil0 str0" x1="343.5" y1="591.74" x2="319.28" y2= "633.69" />
    </g>
    <g>
     <line class="fil0 str0" x1="367.72" y1="130.26" x2="343.5" y2= "172.21" />
    </g>
    <g>
     <line class="fil0 str0" x1="343.5" y1="172.21" x2="367.72" y2= "214.16" />
    </g>
    <g>
     <line class="fil0 str0" x1="343.5" y1="507.83" x2="367.72" y2= "549.78" />
    </g>
    <g>
     <line class="fil0 str0" x1="367.72" y1="633.69" x2="343.5" y2= "675.64" />
    </g>
    <g>
     <polyline class="fil0 str0" points="367.72,46.36 391.94,88.31 367.72,130.26 "/>
    </g>
    <g>
     <line class="fil0 str0" x1="391.94" y1="4.4" x2="416.16" y2= "46.36" />
    </g>
    <g>
     <line class="fil0 str0" x1="391.94" y1="172.21" x2="416.16" y2= "214.16" />
    </g>
    <g>
     <line class="fil0 str0" x1="391.94" y1="591.74" x2="416.16" y2= "633.69" />
    </g>
    <g>
     <line class="fil0 str0" x1="440.38" y1="88.31" x2="416.16" y2= "130.26" />
    </g>
    <g>
     <line class="fil0 str0" x1="416.16" y1="130.26" x2="440.38" y2= "172.21" />
    </g>
    <g>
     <line class="fil0 str0" x1="440.38" y1="172.21" x2="416.16" y2= "214.16" />
    </g>
    <g>
     <line class="fil0 str0" x1="416.16" y1="214.16" x2="440.38" y2= "256.12" />
    </g>
    <g>
     <line class="fil0 str0" x1="440.38" y1="507.83" x2="416.16" y2= "549.78" />
    </g>
    <g>
     <line class="fil0 str0" x1="440.38" y1="256.12" x2="464.61" y2= "298.07" />
    </g>
    <g>
     <line class="fil0 str0" x1="464.61" y1="381.97" x2="440.38" y2= "423.93" />
    </g>
    <g>
     <polyline class="fil0 str0" points="464.61,549.78 440.38,591.74 464.61,633.69 "/>
    </g>
    <g>
     <line class="fil0 str0" x1="488.83" y1="88.31" x2="464.61" y2= "130.26" />
    </g>
    <g>
     <line class="fil0 str0" x1="464.61" y1="130.26" x2="488.83" y2= "172.21" />
    </g>
    <g>
     <line class="fil0 str0" x1="488.83" y1="172.21" x2="464.61" y2= "214.16" />
    </g>
    <g>
     <line class="fil0 str0" x1="464.61" y1="214.16" x2="488.83" y2= "256.12" />
    </g>
    <g>
     <line class="fil0 str0" x1="464.61" y1="298.07" x2="488.83" y2= "340.02" />
    </g>
    <g>
     <line class="fil0 str0" x1="488.83" y1="340.02" x2="464.61" y2= "381.97" />
    </g>
    <g>
     <line class="fil0 str0" x1="488.83" y1="423.93" x2="464.61" y2= "465.88" />
    </g>
    <g>
     <line class="fil0 str0" x1="464.61" y1="465.88" x2="488.83" y2= "507.83" />
    </g>
    <g>
     <line class="fil0 str0" x1="464.61" y1="633.69" x2="488.83" y2= "675.64" />
    </g>
    <g>
     <line class="fil0 str0" x1="488.83" y1="507.83" x2="513.05" y2= "549.78" />
    </g>
    <g>
     <polyline class="fil0 str0" points="513.05,549.78 488.83,591.74 513.05,633.69 "/>
    </g>
    <g>
     <polyline class="fil0 str0" points="513.05,46.36 537.27,88.31 513.05,130.26 "/>
    </g>
    <g>
     <line class="fil0 str0" x1="513.05" y1="130.26" x2="537.27" y2= "172.21" />
    </g>
    <g>
     <polyline class="fil0 str0" points="513.05,214.16 537.27,256.12 513.05,298.07 "/>
    </g>
    <g>
     <polyline class="fil0 str0" points="513.05,381.97 537.27,423.93 513.05,465.88 "/>
    </g>
    <g>
     <line class="fil0 str0" x1="537.27" y1="172.21" x2="561.49" y2= "214.16" />
    </g>
    <g>
     <line class="fil0 str0" x1="537.27" y1="507.83" x2="561.49" y2= "549.78" />
    </g>
    <g>
     <line class="fil0 str0" x1="561.49" y1="549.78" x2="537.27" y2= "591.74" />
    </g>
    <g>
     <line class="fil0 str0" x1="561.49" y1="633.69" x2="537.27" y2= "675.64" />
    </g>
    <g>
     <polyline class="fil0 str0" points="561.49,46.36 585.71,88.31 561.49,130.26 "/>
    </g>
    <g>
     <line class="fil0 str0" x1="561.49" y1="130.26" x2="585.71" y2= "172.21" />
    </g>
    <g>
     <line class="fil0 str0" x1="585.71" y1="340.02" x2="561.49" y2= "381.97" />
    </g>
    <g>
     <line class="fil0 str0" x1="561.49" y1="381.97" x2="585.71" y2= "423.93" />
    </g>
    <g>
     <polyline class="fil0 str0" points="561.49,549.78 585.71,591.74 561.49,633.69 "/>
    </g>
    <g>
     <line class="fil0 str0" x1="585.71" y1="4.4" x2="609.93" y2= "46.36" />
    </g>
    <g>
     <line class="fil0 str0" x1="609.93" y1="298.07" x2="585.71" y2= "340.02" />
    </g>
    <g>
     <line class="fil0 str0" x1="609.93" y1="633.69" x2="585.71" y2= "675.64" />
    </g>
    <g>
     <line class="fil0 str0" x1="609.93" y1="46.36" x2="634.15" y2= "88.31" />
    </g>
    <g>
     <line class="fil0 str0" x1="609.93" y1="130.26" x2="634.15" y2= "172.21" />
    </g>
    <g>
     <line class="fil0 str0" x1="634.15" y1="256.12" x2="609.93" y2= "298.07" />
    </g>
    <g>
     <line class="fil0 str0" x1="634.15" y1="340.02" x2="609.93" y2= "381.97" />
    </g>
    <g>
     <line class="fil0 str0" x1="634.15" y1="423.93" x2="609.93" y2= "465.88" />
    </g>
    <g>
     <line class="fil0 str0" x1="634.15" y1="507.83" x2="609.93" y2= "549.78" />
    </g>
    <g>
     <line class="fil0 str0" x1="634.15" y1="591.74" x2="609.93" y2= "633.69" />
    </g>
    <g>
     <line class="fil0 str0" x1="634.15" y1="88.31" x2="658.37" y2= "130.26" />
    </g>
    <g>
     <line class="fil0 str0" x1="658.37" y1="298.07" x2="634.15" y2= "340.02" />
    </g>
    <g>
     <line class="fil0 str0" x1="634.15" y1="340.02" x2="658.37" y2= "381.97" />
    </g>
    <g>
     <line class="fil0 str0" x1="658.37" y1="381.97" x2="634.15" y2= "423.93" />
    </g>
    <g>
     <line class="fil0 str0" x1="658.37" y1="549.78" x2="634.15" y2= "591.74" />
    </g>
    <g>
     <line class="fil0 str0" x1="658.37" y1="130.26" x2="682.6" y2= "172.21" />
    </g>
    <g>
     <line class="fil0 str0" x1="658.37" y1="214.16" x2="682.6" y2= "256.12" />
    </g>
    <g>
     <line class="fil0 str0" x1="658.37" y1="381.97" x2="682.6" y2= "423.93" />
    </g>
    <g>
     <line class="fil0 str0" x1="658.37" y1="465.88" x2="682.6" y2= "507.83" />
    </g>
    <g>
     <line class="fil0 str0" x1="682.6" y1="507.83" x2="658.37" y2= "549.78" />
    </g>
    <g>
     <line class="fil0 str0" x1="682.6" y1="172.21" x2="706.82" y2= "214.16" />
    </g>
    <g>
     <polyline class="fil0 str0" points="682.6,256.12 706.82,298.07 682.6,340.02 "/>
    </g>
    <g>
     <line class="fil0 str0" x1="706.82" y1="465.88" x2="682.6" y2= "507.83" />
    </g>
    <g>
     <line class="fil0 str0" x1="706.82" y1="214.16" x2="731.04" y2= "256.12" />
    </g>
    <g>
     <line class="fil0 str0" x1="706.82" y1="298.07" x2="731.04" y2= "340.02" />
    </g>
    <g>
     <line class="fil0 str0" x1="731.04" y1="340.02" x2="706.82" y2= "381.97" />
    </g>
    <g>
     <line class="fil0 str0" x1="731.04" y1="423.93" x2="706.82" y2= "465.88" />
    </g>
    <g>
     <line class="fil0 str0" x1="731.04" y1="256.12" x2="755.26" y2= "298.07" />
    </g>
    <g>
     <line class="fil0 str0" x1="755.26" y1="381.97" x2="731.04" y2= "423.93" />
    </g>
    <g>
     <line class="fil0 str0" x1="755.26" y1="298.07" x2="779.48" y2= "340.02" />
    </g>
    <g>
     <line class="fil0 str0" x1="779.48" y1="340.02" x2="755.26" y2= "381.97" />
    </g>
   </g>
  </g>
  <g id="hex8.svg_0">
   <g>
    <g>
     <line class="fil0 str1" x1="198.17" y1="4.4" x2="391.94" y2= "4.4" />
    </g>
    <g>
     <line class="fil0 str1" x1="440.38" y1="4.4" x2="585.71" y2= "4.4" />
    </g>
    <g>
     <line class="fil0 str1" x1="222.39" y1="46.36" x2="367.72" y2= "46.36" />
    </g>
    <g>
     <line class="fil0 str1" x1="416.16" y1="46.36" x2="513.05" y2= "46.36" />
    </g>
    <g>
     <line class="fil0 str1" x1="246.62" y1="88.31" x2="295.06" y2= "88.31" />
    </g>
    <g>
     <line class="fil0 str1" x1="585.71" y1="88.31" x2="634.15" y2= "88.31" />
    </g>
    <g>
     <line class="fil0 str1" x1="125.51" y1="130.26" x2="173.95" y2= "130.26" />
    </g>
    <g>
     <line class="fil0 str1" x1="222.39" y1="130.26" x2="270.84" y2= "130.26" />
    </g>
    <g>
     <line class="fil0 str1" x1="367.72" y1="130.26" x2="416.16" y2= "130.26" />
    </g>
    <g>
     <line class="fil0 str1" x1="246.62" y1="172.21" x2="295.06" y2= "172.21" />
    </g>
    <g>
     <line class="fil0 str1" x1="488.83" y1="172.21" x2="537.27" y2= "172.21" />
    </g>
    <g>
     <line class="fil0 str1" x1="585.71" y1="172.21" x2="634.15" y2= "172.21" />
    </g>
    <g>
     <line class="fil0 str1" x1="77.07" y1="214.16" x2="125.51" y2= "214.16" />
    </g>
    <g>
     <line class="fil0 str1" x1="561.49" y1="214.16" x2="658.37" y2= "214.16" />
    </g>
    <g>
     <line class="fil0 str1" x1="343.5" y1="256.12" x2="440.38" y2= "256.12" />
    </g>
    <g>
     <line class="fil0 str1" x1="537.27" y1="256.12" x2="634.15" y2= "256.12" />
    </g>
    <g>
     <line class="fil0 str1" x1="125.51" y1="298.07" x2="222.39" y2= "298.07" />
    </g>
    <g>
     <line class="fil0 str1" x1="561.49" y1="298.07" x2="609.93" y2= "298.07" />
    </g>
    <g>
     <line class="fil0 str1" x1="488.83" y1="340.02" x2="585.71" y2= "340.02" />
    </g>
    <g>
     <line class="fil0 str1" x1="391.94" y1="423.93" x2="440.38" y2= "423.93" />
    </g>
    <g>
     <line class="fil0 str1" x1="537.27" y1="423.93" x2="634.15" y2= "423.93" />
    </g>
    <g>
     <line class="fil0 str1" x1="682.6" y1="423.93" x2="731.04" y2= "423.93" />
    </g>
    <g>
     <line class="fil0 str1" x1="125.51" y1="465.88" x2="173.95" y2= "465.88" />
    </g>
    <g>
     <line class="fil0 str1" x1="367.72" y1="465.88" x2="464.61" y2= "465.88" />
    </g>
    <g>
     <line class="fil0 str1" x1="561.49" y1="465.88" x2="609.93" y2= "465.88" />
    </g>
    <g>
     <line class="fil0 str1" x1="149.73" y1="507.83" x2="246.62" y2= "507.83" />
    </g>
    <g>
     <line class="fil0 str1" x1="391.94" y1="507.83" x2="440.38" y2= "507.83" />
    </g>
    <g>
     <line class="fil0 str1" x1="488.83" y1="507.83" x2="634.15" y2= "507.83" />
    </g>
    <g>
     <line class="fil0 str1" x1="319.28" y1="549.78" x2="416.16" y2= "549.78" />
    </g>
    <g>
     <line class="fil0 str1" x1="149.73" y1="591.74" x2="198.17" y2= "591.74" />
    </g>
    <g>
     <line class="fil0 str1" x1="343.5" y1="591.74" x2="440.38" y2= "591.74" />
    </g>
    <g>
     <line class="fil0 str1" x1="173.95" y1="633.69" x2="222.39" y2= "633.69" />
    </g>
    <g>
     <line class="fil0 str1" x1="198.17" y1="675.64" x2="585.71" y2= "675.64" />
    </g>
    <g>
     <line class="fil0 str1" x1="28.62" y1="298.07" x2="4.4" y2= "340.02" />
    </g>
    <g>
     <line class="fil0 str1" x1="4.4" y1="340.02" x2="28.62" y2= "381.97" />
    </g>
    <g>
     <line class="fil0 str1" x1="52.85" y1="256.12" x2="28.62" y2= "298.07" />
    </g>
    <g>
     <line class="fil0 str1" x1="28.62" y1="381.97" x2="52.85" y2= "423.93" />
    </g>
    <g>
     <line class="fil0 str1" x1="77.07" y1="214.16" x2="52.85" y2= "256.12" />
    </g>
    <g>
     <line class="fil0 str1" x1="77.07" y1="298.07" x2="52.85" y2= "340.02" />
    </g>
    <g>
     <line class="fil0 str1" x1="52.85" y1="423.93" x2="77.07" y2= "465.88" />
    </g>
    <g>
     <line class="fil0 str1" x1="101.29" y1="172.21" x2="77.07" y2= "214.16" />
    </g>
    <g>
     <line class="fil0 str1" x1="101.29" y1="256.12" x2="77.07" y2= "298.07" />
    </g>
    <g>
     <line class="fil0 str1" x1="101.29" y1="340.02" x2="77.07" y2= "381.97" />
    </g>
    <g>
     <line class="fil0 str1" x1="77.07" y1="381.97" x2="101.29" y2= "423.93" />
    </g>
    <g>
     <line class="fil0 str1" x1="77.07" y1="465.88" x2="101.29" y2= "507.83" />
    </g>
    <g>
     <line class="fil0 str1" x1="125.51" y1="130.26" x2="101.29" y2= "172.21" />
    </g>
    <g>
     <line class="fil0 str1" x1="101.29" y1="256.12" x2="125.51" y2= "298.07" />
    </g>
    <g>
     <polyline class="fil0 str1" points="125.51,381.97 101.29,423.93 125.51,465.88 "/>
    </g>
    <g>
     <line class="fil0 str1" x1="125.51" y1="465.88" x2="101.29" y2= "507.83" />
    </g>
    <g>
     <line class="fil0 str1" x1="101.29" y1="507.83" x2="125.51" y2= "549.78" />
    </g>
    <g>
     <line class="fil0 str1" x1="149.73" y1="88.31" x2="125.51" y2= "130.26" />
    </g>
    <g>
     <line class="fil0 str1" x1="149.73" y1="172.21" x2="125.51" y2= "214.16" />
    </g>
    <g>
     <line class="fil0 str1" x1="125.51" y1="214.16" x2="149.73" y2= "256.12" />
    </g>
    <g>
     <line class="fil0 str1" x1="125.51" y1="298.07" x2="149.73" y2= "340.02" />
    </g>
    <g>
     <line class="fil0 str1" x1="149.73" y1="340.02" x2="125.51" y2= "381.97" />
    </g>
    <g>
     <line class="fil0 str1" x1="125.51" y1="549.78" x2="149.73" y2= "591.74" />
    </g>
    <g>
     <line class="fil0 str1" x1="173.95" y1="46.36" x2="149.73" y2= "88.31" />
    </g>
    <g>
     <line class="fil0 str1" x1="173.95" y1="381.97" x2="149.73" y2= "423.93" />
    </g>
    <g>
     <line class="fil0 str1" x1="149.73" y1="591.74" x2="173.95" y2= "633.69" />
    </g>
    <g>
     <line class="fil0 str1" x1="198.17" y1="4.4" x2="173.95" y2= "46.36" />
    </g>
    <g>
     <line class="fil0 str1" x1="198.17" y1="88.31" x2="173.95" y2= "130.26" />
    </g>
    <g>
     <polyline class="fil0 str1" points="173.95,214.16 198.17,256.12 173.95,298.07 "/>
    </g>
    <g>
     <line class="fil0 str1" x1="198.17" y1="340.02" x2="173.95" y2= "381.97" />
    </g>
    <g>
     <line class="fil0 str1" x1="198.17" y1="423.93" x2="173.95" y2= "465.88" />
    </g>
    <g>
     <line class="fil0 str1" x1="198.17" y1="507.83" x2="173.95" y2= "549.78" />
    </g>
    <g>
     <line class="fil0 str1" x1="173.95" y1="633.69" x2="198.17" y2= "675.64" />
    </g>
    <g>
     <line class="fil0 str1" x1="222.39" y1="130.26" x2="198.17" y2= "172.21" />
    </g>
    <g>
     <line class="fil0 str1" x1="198.17" y1="340.02" x2="222.39" y2= "381.97" />
    </g>
    <g>
     <line class="fil0 str1" x1="222.39" y1="549.78" x2="198.17" y2= "591.74" />
    </g>
    <g>
     <polyline class="fil0 str1" points="222.39,46.36 246.62,88.31 222.39,130.26 "/>
    </g>
    <g>
     <line class="fil0 str1" x1="246.62" y1="172.21" x2="222.39" y2= "214.16" />
    </g>
    <g>
     <line class="fil0 str1" x1="222.39" y1="214.16" x2="246.62" y2= "256.12" />
    </g>
    <g>
     <polyline class="fil0 str1" points="222.39,381.97 246.62,423.93 222.39,465.88 "/>
    </g>
    <g>
     <line class="fil0 str1" x1="222.39" y1="465.88" x2="246.62" y2= "507.83" />
    </g>
    <g>
     <line class="fil0 str1" x1="246.62" y1="591.74" x2="222.39" y2= "633.69" />
    </g>
    <g>
     <line class="fil0 str1" x1="270.84" y1="298.07" x2="246.62" y2= "340.02" />
    </g>
    <g>
     <line class="fil0 str1" x1="246.62" y1="340.02" x2="270.84" y2= "381.97" />
    </g>
    <g>
     <line class="fil0 str1" x1="246.62" y1="507.83" x2="270.84" y2= "549.78" />
    </g>
    <g>
     <line class="fil0 str1" x1="270.84" y1="549.78" x2="246.62" y2= "591.74" />
    </g>
    <g>
     <line class="fil0 str1" x1="270.84" y1="633.69" x2="246.62" y2= "675.64" />
    </g>
    <g>
     <line class="fil0 str1" x1="270.84" y1="214.16" x2="295.06" y2= "256.12" />
    </g>
    <g>
     <polyline class="fil0 str1" points="270.84,381.97 295.06,423.93 270.84,465.88 "/>
    </g>
    <g>
     <line class="fil0 str1" x1="295.06" y1="591.74" x2="270.84" y2= "633.69" />
    </g>
    <g>
     <line class="fil0 str1" x1="319.28" y1="130.26" x2="295.06" y2= "172.21" />
    </g>
    <g>
     <line class="fil0 str1" x1="295.06" y1="172.21" x2="319.28" y2= "214.16" />
    </g>
    <g>
     <polyline class="fil0 str1" points="295.06,256.12 319.28,298.07 295.06,340.02 "/>
    </g>
    <g>
     <line class="fil0 str1" x1="295.06" y1="340.02" x2="319.28" y2= "381.97" />
    </g>
    <g>
     <line class="fil0 str1" x1="295.06" y1="423.93" x2="319.28" y2= "465.88" />
    </g>
    <g>
     <line class="fil0 str1" x1="319.28" y1="465.88" x2="295.06" y2= "507.83" />
    </g>
    <g>
     <line class="fil0 str1" x1="295.06" y1="507.83" x2="319.28" y2= "549.78" />
    </g>
    <g>
     <line class="fil0 str1" x1="319.28" y1="549.78" x2="295.06" y2= "591.74" />
    </g>
    <g>
     <line class="fil0 str1" x1="343.5" y1="88.31" x2="319.28" y2= "130.26" />
    </g>
    <g>
     <polyline class="fil0 str1" points="319.28,214.16 343.5,256.12 319.28,298.07 "/>
    </g>
    <g>
     <line class="fil0 str1" x1="319.28" y1="381.97" x2="343.5" y2= "423.93" />
    </g>
    <g>
     <line class="fil0 str1" x1="343.5" y1="591.74" x2="319.28" y2= "633.69" />
    </g>
    <g>
     <line class="fil0 str1" x1="367.72" y1="130.26" x2="343.5" y2= "172.21" />
    </g>
    <g>
     <line class="fil0 str1" x1="343.5" y1="172.21" x2="367.72" y2= "214.16" />
    </g>
    <g>
     <line class="fil0 str1" x1="343.5" y1="507.83" x2="367.72" y2= "549.78" />
    </g>
    <g>
     <line class="fil0 str1" x1="367.72" y1="633.69" x2="343.5" y2= "675.64" />
    </g>
    <g>
     <polyline class="fil0 str1" points="367.72,46.36 391.94,88.31 367.72,130.26 "/>
    </g>
    <g>
     <line class="fil0 str1" x1="391.94" y1="4.4" x2="416.16" y2= "46.36" />
    </g>
    <g>
     <line class="fil0 str1" x1="391.94" y1="172.21" x2="416.16" y2= "214.16" />
    </g>
    <g>
     <line class="fil0 str1" x1="391.94" y1="591.74" x2="416.16" y2= "633.69" />
    </g>
    <g>
     <line class="fil0 str1" x1="440.38" y1="88.31" x2="416.16" y2= "130.26" />
    </g>
    <g>
     <line class="fil0 str1" x1="416.16" y1="130.26" x2="440.38" y2= "172.21" />
    </g>
    <g>
     <line class="fil0 str1" x1="440.38" y1="172.21" x2="416.16" y2= "214.16" />
    </g>
    <g>
     <line class="fil0 str1" x1="416.16" y1="214.16" x2="440.38" y2= "256.12" />
    </g>
    <g>
     <line class="fil0 str1" x1="440.38" y1="507.83" x2="416.16" y2= "549.78" />
    </g>
    <g>
     <line class="fil0 str1" x1="440.38" y1="256.12" x2="464.61" y2= "298.07" />
    </g>
    <g>
     <line class="fil0 str1" x1="464.61" y1="381.97" x2="440.38" y2= "423.93" />
    </g>
    <g>
     <polyline class="fil0 str1" points="464.61,549.78 440.38,591.74 464.61,633.69 "/>
    </g>
    <g>
     <line class="fil0 str1" x1="488.83" y1="88.31" x2="464.61" y2= "130.26" />
    </g>
    <g>
     <line class="fil0 str1" x1="464.61" y1="130.26" x2="488.83" y2= "172.21" />
    </g>
    <g>
     <line class="fil0 str1" x1="488.83" y1="172.21" x2="464.61" y2= "214.16" />
    </g>
    <g>
     <line class="fil0 str1" x1="464.61" y1="214.16" x2="488.83" y2= "256.12" />
    </g>
    <g>
     <line class="fil0 str1" x1="464.61" y1="298.07" x2="488.83" y2= "340.02" />
    </g>
    <g>
     <line class="fil0 str1" x1="488.83" y1="340.02" x2="464.61" y2= "381.97" />
    </g>
    <g>
     <line class="fil0 str1" x1="488.83" y1="423.93" x2="464.61" y2= "465.88" />
    </g>
    <g>
     <line class="fil0 str1" x1="464.61" y1="465.88" x2="488.83" y2= "507.83" />
    </g>
    <g>
     <line class="fil0 str1" x1="464.61" y1="633.69" x2="488.83" y2= "675.64" />
    </g>
    <g>
     <line class="fil0 str1" x1="488.83" y1="507.83" x2="513.05" y2= "549.78" />
    </g>
    <g>
     <polyline class="fil0 str1" points="513.05,549.78 488.83,591.74 513.05,633.69 "/>
    </g>
    <g>
     <polyline class="fil0 str1" points="513.05,46.36 537.27,88.31 513.05,130.26 "/>
    </g>
    <g>
     <line class="fil0 str1" x1="513.05" y1="130.26" x2="537.27" y2= "172.21" />
    </g>
    <g>
     <polyline class="fil0 str1" points="513.05,214.16 537.27,256.12 513.05,298.07 "/>
    </g>
    <g>
     <polyline class="fil0 str1" points="513.05,381.97 537.27,423.93 513.05,465.88 "/>
    </g>
    <g>
     <line class="fil0 str1" x1="537.27" y1="172.21" x2="561.49" y2= "214.16" />
    </g>
    <g>
     <line class="fil0 str1" x1="537.27" y1="507.83" x2="561.49" y2= "549.78" />
    </g>
    <g>
     <line class="fil0 str1" x1="561.49" y1="549.78" x2="537.27" y2= "591.74" />
    </g>
    <g>
     <line class="fil0 str1" x1="561.49" y1="633.69" x2="537.27" y2= "675.64" />
    </g>
    <g>
     <polyline class="fil0 str1" points="561.49,46.36 585.71,88.31 561.49,130.26 "/>
    </g>
    <g>
     <line class="fil0 str1" x1="561.49" y1="130.26" x2="585.71" y2= "172.21" />
    </g>
    <g>
     <line class="fil0 str1" x1="585.71" y1="340.02" x2="561.49" y2= "381.97" />
    </g>
    <g>
     <line class="fil0 str1" x1="561.49" y1="381.97" x2="585.71" y2= "423.93" />
    </g>
    <g>
     <polyline class="fil0 str1" points="561.49,549.78 585.71,591.74 561.49,633.69 "/>
    </g>
    <g>
     <line class="fil0 str1" x1="585.71" y1="4.4" x2="609.93" y2= "46.36" />
    </g>
    <g>
     <line class="fil0 str1" x1="609.93" y1="298.07" x2="585.71" y2= "340.02" />
    </g>
    <g>
     <line class="fil0 str1" x1="609.93" y1="633.69" x2="585.71" y2= "675.64" />
    </g>
    <g>
     <line class="fil0 str1" x1="609.93" y1="46.36" x2="634.15" y2= "88.31" />
    </g>
    <g>
     <line class="fil0 str1" x1="609.93" y1="130.26" x2="634.15" y2= "172.21" />
    </g>
    <g>
     <line class="fil0 str1" x1="634.15" y1="256.12" x2="609.93" y2= "298.07" />
    </g>
    <g>
     <line class="fil0 str1" x1="634.15" y1="340.02" x2="609.93" y2= "381.97" />
    </g>
    <g>
     <line class="fil0 str1" x1="634.15" y1="423.93" x2="609.93" y2= "465.88" />
    </g>
    <g>
     <line class="fil0 str1" x1="634.15" y1="507.83" x2="609.93" y2= "549.78" />
    </g>
    <g>
     <line class="fil0 str1" x1="634.15" y1="591.74" x2="609.93" y2= "633.69" />
    </g>
    <g>
     <line class="fil0 str1" x1="634.15" y1="88.31" x2="658.37" y2= "130.26" />
    </g>
    <g>
     <line class="fil0 str1" x1="658.37" y1="298.07" x2="634.15" y2= "340.02" />
    </g>
    <g>
     <line class="fil0 str1" x1="634.15" y1="340.02" x2="658.37" y2= "381.97" />
    </g>
    <g>
     <line class="fil0 str1" x1="658.37" y1="381.97" x2="634.15" y2= "423.93" />
    </g>
    <g>
     <line class="fil0 str1" x1="658.37" y1="549.78" x2="634.15" y2= "591.74" />
    </g>
    <g>
     <line class="fil0 str1" x1="658.37" y1="130.26" x2="682.6" y2= "172.21" />
    </g>
    <g>
     <line class="fil0 str1" x1="658.37" y1="214.16" x2="682.6" y2= "256.12" />
    </g>
    <g>
     <line class="fil0 str1" x1="658.37" y1="381.97" x2="682.6" y2= "423.93" />
    </g>
    <g>
     <line class="fil0 str1" x1="658.37" y1="465.88" x2="682.6" y2= "507.83" />
    </g>
    <g>
     <line class="fil0 str1" x1="682.6" y1="507.83" x2="658.37" y2= "549.78" />
    </g>
    <g>
     <line class="fil0 str1" x1="682.6" y1="172.21" x2="706.82" y2= "214.16" />
    </g>
    <g>
     <polyline class="fil0 str1" points="682.6,256.12 706.82,298.07 682.6,340.02 "/>
    </g>
    <g>
     <line class="fil0 str1" x1="706.82" y1="465.88" x2="682.6" y2= "507.83" />
    </g>
    <g>
     <line class="fil0 str1" x1="706.82" y1="214.16" x2="731.04" y2= "256.12" />
    </g>
    <g>
     <line class="fil0 str1" x1="706.82" y1="298.07" x2="731.04" y2= "340.02" />
    </g>
    <g>
     <line class="fil0 str1" x1="731.04" y1="340.02" x2="706.82" y2= "381.97" />
    </g>
    <g>
     <line class="fil0 str1" x1="731.04" y1="423.93" x2="706.82" y2= "465.88" />
    </g>
    <g>
     <line class="fil0 str1" x1="731.04" y1="256.12" x2="755.26" y2= "298.07" />
    </g>
    <g>
     <line class="fil0 str1" x1="755.26" y1="381.97" x2="731.04" y2= "423.93" />
    </g>
    <g>
     <line class="fil0 str1" x1="755.26" y1="298.07" x2="779.48" y2= "340.02" />
    </g>
    <g>
     <line class="fil0 str1" x1="779.48" y1="340.02" x2="755.26" y2= "381.97" />
    </g>
   </g>
  </g>
 </g>
</svg>
