<?xml version="1.0" encoding="UTF-8"?>
<!DOCTYPE svg PUBLIC "-//W3C//DTD SVG 1.1//EN" "http://www.w3.org/Graphics/SVG/1.1/DTD/svg11.dtd">
<!-- Creator: CorelDRAW 2018 (64-Bit) -->
<svg xmlns="http://www.w3.org/2000/svg" xml:space="preserve" width="3.70833in" height="3.21709in" version="1.1" style="shape-rendering:geometricPrecision; text-rendering:geometricPrecision; image-rendering:optimizeQuality; fill-rule:evenodd; clip-rule:evenodd"
viewBox="0 0 496.72 430.92"
 xmlns:xlink="http://www.w3.org/1999/xlink">
 <defs>
  <style type="text/css">
   <![CDATA[
    .str0 {stroke:black;stroke-width:5.58;stroke-linecap:round;stroke-linejoin:round;stroke-miterlimit:2.61313}
    .str1 {stroke:yellow;stroke-width:3.72;stroke-linecap:round;stroke-linejoin:round;stroke-miterlimit:2.61313}
    .fil0 {fill:none}
   ]]>
  </style>
 </defs>
 <g id="Layer_x0020_1">
  <metadata id="CorelCorpID_0Corel-Layer"/>
  <g id="hex9.svg">
   <g>
    <g>
     <line class="fil0 str0" x1="125.58" y1="2.79" x2="248.36" y2= "2.79" />
    </g>
    <g>
     <line class="fil0 str0" x1="279.06" y1="2.79" x2="371.15" y2= "2.79" />
    </g>
    <g>
     <line class="fil0 str0" x1="140.92" y1="29.37" x2="202.32" y2= "29.37" />
    </g>
    <g>
     <line class="fil0 str0" x1="263.71" y1="29.37" x2="294.41" y2= "29.37" />
    </g>
    <g>
     <line class="fil0 str0" x1="355.8" y1="29.37" x2="386.5" y2= "29.37" />
    </g>
    <g>
     <line class="fil0 str0" x1="186.97" y1="55.96" x2="279.06" y2= "55.96" />
    </g>
    <g>
     <line class="fil0 str0" x1="340.45" y1="55.96" x2="371.15" y2= "55.96" />
    </g>
    <g>
     <line class="fil0 str0" x1="110.23" y1="82.54" x2="140.92" y2= "82.54" />
    </g>
    <g>
     <line class="fil0 str0" x1="202.32" y1="82.54" x2="233.01" y2= "82.54" />
    </g>
    <g>
     <line class="fil0 str0" x1="94.88" y1="109.13" x2="125.58" y2= "109.13" />
    </g>
    <g>
     <line class="fil0 str0" x1="217.67" y1="109.13" x2="248.36" y2= "109.13" />
    </g>
    <g>
     <line class="fil0 str0" x1="279.06" y1="109.13" x2="309.75" y2= "109.13" />
    </g>
    <g>
     <line class="fil0 str0" x1="48.84" y1="135.71" x2="79.53" y2= "135.71" />
    </g>
    <g>
     <line class="fil0 str0" x1="140.92" y1="135.71" x2="171.62" y2= "135.71" />
    </g>
    <g>
     <line class="fil0 str0" x1="233.01" y1="135.71" x2="325.1" y2= "135.71" />
    </g>
    <g>
     <line class="fil0 str0" x1="417.19" y1="135.71" x2="447.89" y2= "135.71" />
    </g>
    <g>
     <line class="fil0 str0" x1="33.49" y1="162.29" x2="94.88" y2= "162.29" />
    </g>
    <g>
     <line class="fil0 str0" x1="156.27" y1="162.29" x2="186.97" y2= "162.29" />
    </g>
    <g>
     <line class="fil0 str0" x1="217.67" y1="162.29" x2="279.06" y2= "162.29" />
    </g>
    <g>
     <line class="fil0 str0" x1="340.45" y1="162.29" x2="432.54" y2= "162.29" />
    </g>
    <g>
     <line class="fil0 str0" x1="18.14" y1="188.88" x2="48.84" y2= "188.88" />
    </g>
    <g>
     <line class="fil0 str0" x1="140.92" y1="188.88" x2="171.62" y2= "188.88" />
    </g>
    <g>
     <line class="fil0 str0" x1="325.1" y1="188.88" x2="355.8" y2= "188.88" />
    </g>
    <g>
     <line class="fil0 str0" x1="156.27" y1="215.46" x2="186.97" y2= "215.46" />
    </g>
    <g>
     <line class="fil0 str0" x1="309.75" y1="215.46" x2="340.45" y2= "215.46" />
    </g>
    <g>
     <line class="fil0 str0" x1="125.58" y1="268.63" x2="156.27" y2= "268.63" />
    </g>
    <g>
     <line class="fil0 str0" x1="248.36" y1="268.63" x2="279.06" y2= "268.63" />
    </g>
    <g>
     <line class="fil0 str0" x1="79.53" y1="295.21" x2="110.23" y2= "295.21" />
    </g>
    <g>
     <line class="fil0 str0" x1="171.62" y1="295.21" x2="202.32" y2= "295.21" />
    </g>
    <g>
     <line class="fil0 str0" x1="233.01" y1="295.21" x2="294.41" y2= "295.21" />
    </g>
    <g>
     <line class="fil0 str0" x1="156.27" y1="321.8" x2="186.97" y2= "321.8" />
    </g>
    <g>
     <line class="fil0 str0" x1="217.67" y1="321.8" x2="248.36" y2= "321.8" />
    </g>
    <g>
     <line class="fil0 str0" x1="279.06" y1="321.8" x2="309.75" y2= "321.8" />
    </g>
    <g>
     <line class="fil0 str0" x1="340.45" y1="321.8" x2="371.15" y2= "321.8" />
    </g>
    <g>
     <line class="fil0 str0" x1="401.84" y1="321.8" x2="432.54" y2= "321.8" />
    </g>
    <g>
     <line class="fil0 str0" x1="325.1" y1="348.38" x2="386.5" y2= "348.38" />
    </g>
    <g>
     <line class="fil0 str0" x1="125.58" y1="374.96" x2="156.27" y2= "374.96" />
    </g>
    <g>
     <line class="fil0 str0" x1="186.97" y1="374.96" x2="217.67" y2= "374.96" />
    </g>
    <g>
     <line class="fil0 str0" x1="340.45" y1="374.96" x2="371.15" y2= "374.96" />
    </g>
    <g>
     <line class="fil0 str0" x1="140.92" y1="401.55" x2="171.62" y2= "401.55" />
    </g>
    <g>
     <line class="fil0 str0" x1="202.32" y1="401.55" x2="233.01" y2= "401.55" />
    </g>
    <g>
     <line class="fil0 str0" x1="294.41" y1="401.55" x2="325.1" y2= "401.55" />
    </g>
    <g>
     <line class="fil0 str0" x1="355.8" y1="401.55" x2="386.5" y2= "401.55" />
    </g>
    <g>
     <line class="fil0 str0" x1="125.58" y1="428.13" x2="371.15" y2= "428.13" />
    </g>
    <g>
     <line class="fil0 str0" x1="18.14" y1="188.88" x2="2.79" y2= "215.46" />
    </g>
    <g>
     <line class="fil0 str0" x1="2.79" y1="215.46" x2="18.14" y2= "242.05" />
    </g>
    <g>
     <line class="fil0 str0" x1="33.49" y1="162.29" x2="18.14" y2= "188.88" />
    </g>
    <g>
     <line class="fil0 str0" x1="18.14" y1="242.05" x2="33.49" y2= "268.63" />
    </g>
    <g>
     <line class="fil0 str0" x1="48.84" y1="135.71" x2="33.49" y2= "162.29" />
    </g>
    <g>
     <line class="fil0 str0" x1="33.49" y1="215.46" x2="48.84" y2= "242.05" />
    </g>
    <g>
     <line class="fil0 str0" x1="33.49" y1="268.63" x2="48.84" y2= "295.21" />
    </g>
    <g>
     <line class="fil0 str0" x1="64.18" y1="109.13" x2="48.84" y2= "135.71" />
    </g>
    <g>
     <line class="fil0 str0" x1="48.84" y1="188.88" x2="64.18" y2= "215.46" />
    </g>
    <g>
     <line class="fil0 str0" x1="48.84" y1="242.05" x2="64.18" y2= "268.63" />
    </g>
    <g>
     <line class="fil0 str0" x1="48.84" y1="295.21" x2="64.18" y2= "321.8" />
    </g>
    <g>
     <line class="fil0 str0" x1="79.53" y1="82.54" x2="64.18" y2= "109.13" />
    </g>
    <g>
     <line class="fil0 str0" x1="64.18" y1="215.46" x2="79.53" y2= "242.05" />
    </g>
    <g>
     <line class="fil0 str0" x1="64.18" y1="268.63" x2="79.53" y2= "295.21" />
    </g>
    <g>
     <line class="fil0 str0" x1="64.18" y1="321.8" x2="79.53" y2= "348.38" />
    </g>
    <g>
     <line class="fil0 str0" x1="94.88" y1="55.96" x2="79.53" y2= "82.54" />
    </g>
    <g>
     <line class="fil0 str0" x1="79.53" y1="82.54" x2="94.88" y2= "109.13" />
    </g>
    <g>
     <line class="fil0 str0" x1="79.53" y1="188.88" x2="94.88" y2= "215.46" />
    </g>
    <g>
     <line class="fil0 str0" x1="79.53" y1="348.38" x2="94.88" y2= "374.96" />
    </g>
    <g>
     <line class="fil0 str0" x1="110.23" y1="29.37" x2="94.88" y2= "55.96" />
    </g>
    <g>
     <polyline class="fil0 str0" points="94.88,162.29 110.23,188.88 94.88,215.46 "/>
    </g>
    <g>
     <line class="fil0 str0" x1="94.88" y1="215.46" x2="110.23" y2= "242.05" />
    </g>
    <g>
     <line class="fil0 str0" x1="110.23" y1="242.05" x2="94.88" y2= "268.63" />
    </g>
    <g>
     <line class="fil0 str0" x1="94.88" y1="321.8" x2="110.23" y2= "348.38" />
    </g>
    <g>
     <line class="fil0 str0" x1="94.88" y1="374.96" x2="110.23" y2= "401.55" />
    </g>
    <g>
     <line class="fil0 str0" x1="125.58" y1="2.79" x2="110.23" y2= "29.37" />
    </g>
    <g>
     <line class="fil0 str0" x1="125.58" y1="55.96" x2="110.23" y2= "82.54" />
    </g>
    <g>
     <line class="fil0 str0" x1="125.58" y1="109.13" x2="110.23" y2= "135.71" />
    </g>
    <g>
     <polyline class="fil0 str0" points="110.23,242.05 125.58,268.63 110.23,295.21 "/>
    </g>
    <g>
     <line class="fil0 str0" x1="110.23" y1="295.21" x2="125.58" y2= "321.8" />
    </g>
    <g>
     <line class="fil0 str0" x1="110.23" y1="348.38" x2="125.58" y2= "374.96" />
    </g>
    <g>
     <line class="fil0 str0" x1="110.23" y1="401.55" x2="125.58" y2= "428.13" />
    </g>
    <g>
     <polyline class="fil0 str0" points="140.92,135.71 125.58,162.29 140.92,188.88 125.58,215.46 "/>
    </g>
    <g>
     <line class="fil0 str0" x1="140.92" y1="295.21" x2="125.58" y2= "321.8" />
    </g>
    <g>
     <line class="fil0 str0" x1="125.58" y1="321.8" x2="140.92" y2= "348.38" />
    </g>
    <g>
     <polyline class="fil0 str0" points="140.92,29.37 156.27,55.96 140.92,82.54 "/>
    </g>
    <g>
     <line class="fil0 str0" x1="140.92" y1="82.54" x2="156.27" y2= "109.13" />
    </g>
    <g>
     <line class="fil0 str0" x1="156.27" y1="215.46" x2="140.92" y2= "242.05" />
    </g>
    <g>
     <line class="fil0 str0" x1="140.92" y1="348.38" x2="156.27" y2= "374.96" />
    </g>
    <g>
     <line class="fil0 str0" x1="156.27" y1="109.13" x2="171.62" y2= "135.71" />
    </g>
    <g>
     <polyline class="fil0 str0" points="171.62,242.05 156.27,268.63 171.62,295.21 "/>
    </g>
    <g>
     <line class="fil0 str0" x1="171.62" y1="295.21" x2="156.27" y2= "321.8" />
    </g>
    <g>
     <line class="fil0 str0" x1="186.97" y1="55.96" x2="171.62" y2= "82.54" />
    </g>
    <g>
     <line class="fil0 str0" x1="171.62" y1="82.54" x2="186.97" y2= "109.13" />
    </g>
    <g>
     <line class="fil0 str0" x1="186.97" y1="162.29" x2="171.62" y2= "188.88" />
    </g>
    <g>
     <polyline class="fil0 str0" points="171.62,348.38 186.97,374.96 171.62,401.55 186.97,428.13 "/>
    </g>
    <g>
     <line class="fil0 str0" x1="202.32" y1="135.71" x2="186.97" y2= "162.29" />
    </g>
    <g>
     <line class="fil0 str0" x1="202.32" y1="188.88" x2="186.97" y2= "215.46" />
    </g>
    <g>
     <line class="fil0 str0" x1="186.97" y1="215.46" x2="202.32" y2= "242.05" />
    </g>
    <g>
     <line class="fil0 str0" x1="202.32" y1="242.05" x2="186.97" y2= "268.63" />
    </g>
    <g>
     <line class="fil0 str0" x1="186.97" y1="321.8" x2="202.32" y2= "348.38" />
    </g>
    <g>
     <line class="fil0 str0" x1="202.32" y1="82.54" x2="217.67" y2= "109.13" />
    </g>
    <g>
     <line class="fil0 str0" x1="217.67" y1="109.13" x2="202.32" y2= "135.71" />
    </g>
    <g>
     <line class="fil0 str0" x1="217.67" y1="162.29" x2="202.32" y2= "188.88" />
    </g>
    <g>
     <polyline class="fil0 str0" points="202.32,242.05 217.67,268.63 202.32,295.21 "/>
    </g>
    <g>
     <polyline class="fil0 str0" points="233.01,348.38 217.67,374.96 233.01,401.55 "/>
    </g>
    <g>
     <polyline class="fil0 str0" points="248.36,2.79 233.01,29.37 248.36,55.96 "/>
    </g>
    <g>
     <line class="fil0 str0" x1="248.36" y1="321.8" x2="233.01" y2= "348.38" />
    </g>
    <g>
     <line class="fil0 str0" x1="263.71" y1="82.54" x2="248.36" y2= "109.13" />
    </g>
    <g>
     <polyline class="fil0 str0" points="263.71,348.38 248.36,374.96 263.71,401.55 248.36,428.13 "/>
    </g>
    <g>
     <line class="fil0 str0" x1="279.06" y1="2.79" x2="263.71" y2= "29.37" />
    </g>
    <g>
     <line class="fil0 str0" x1="279.06" y1="55.96" x2="263.71" y2= "82.54" />
    </g>
    <g>
     <line class="fil0 str0" x1="263.71" y1="82.54" x2="279.06" y2= "109.13" />
    </g>
    <g>
     <line class="fil0 str0" x1="279.06" y1="321.8" x2="263.71" y2= "348.38" />
    </g>
    <g>
     <line class="fil0 str0" x1="279.06" y1="162.29" x2="294.41" y2= "188.88" />
    </g>
    <g>
     <line class="fil0 str0" x1="294.41" y1="242.05" x2="279.06" y2= "268.63" />
    </g>
    <g>
     <polyline class="fil0 str0" points="279.06,374.96 294.41,401.55 279.06,428.13 "/>
    </g>
    <g>
     <polyline class="fil0 str0" points="294.41,29.37 309.75,55.96 294.41,82.54 "/>
    </g>
    <g>
     <line class="fil0 str0" x1="294.41" y1="188.88" x2="309.75" y2= "215.46" />
    </g>
    <g>
     <line class="fil0 str0" x1="309.75" y1="215.46" x2="294.41" y2= "242.05" />
    </g>
    <g>
     <polyline class="fil0 str0" points="294.41,242.05 309.75,268.63 294.41,295.21 "/>
    </g>
    <g>
     <line class="fil0 str0" x1="309.75" y1="321.8" x2="294.41" y2= "348.38" />
    </g>
    <g>
     <line class="fil0 str0" x1="309.75" y1="2.79" x2="325.1" y2= "29.37" />
    </g>
    <g>
     <line class="fil0 str0" x1="325.1" y1="82.54" x2="309.75" y2= "109.13" />
    </g>
    <g>
     <line class="fil0 str0" x1="309.75" y1="162.29" x2="325.1" y2= "188.88" />
    </g>
    <g>
     <line class="fil0 str0" x1="325.1" y1="295.21" x2="309.75" y2= "321.8" />
    </g>
    <g>
     <line class="fil0 str0" x1="325.1" y1="348.38" x2="309.75" y2= "374.96" />
    </g>
    <g>
     <line class="fil0 str0" x1="325.1" y1="29.37" x2="340.45" y2= "55.96" />
    </g>
    <g>
     <line class="fil0 str0" x1="325.1" y1="82.54" x2="340.45" y2= "109.13" />
    </g>
    <g>
     <line class="fil0 str0" x1="325.1" y1="135.71" x2="340.45" y2= "162.29" />
    </g>
    <g>
     <line class="fil0 str0" x1="340.45" y1="215.46" x2="325.1" y2= "242.05" />
    </g>
    <g>
     <line class="fil0 str0" x1="340.45" y1="268.63" x2="325.1" y2= "295.21" />
    </g>
    <g>
     <line class="fil0 str0" x1="340.45" y1="374.96" x2="325.1" y2= "401.55" />
    </g>
    <g>
     <line class="fil0 str0" x1="340.45" y1="109.13" x2="355.8" y2= "135.71" />
    </g>
    <g>
     <polyline class="fil0 str0" points="355.8,242.05 340.45,268.63 355.8,295.21 "/>
    </g>
    <g>
     <line class="fil0 str0" x1="371.15" y1="55.96" x2="355.8" y2= "82.54" />
    </g>
    <g>
     <line class="fil0 str0" x1="355.8" y1="135.71" x2="371.15" y2= "162.29" />
    </g>
    <g>
     <line class="fil0 str0" x1="355.8" y1="188.88" x2="371.15" y2= "215.46" />
    </g>
    <g>
     <line class="fil0 str0" x1="355.8" y1="295.21" x2="371.15" y2= "321.8" />
    </g>
    <g>
     <line class="fil0 str0" x1="371.15" y1="2.79" x2="386.5" y2= "29.37" />
    </g>
    <g>
     <line class="fil0 str0" x1="386.5" y1="82.54" x2="371.15" y2= "109.13" />
    </g>
    <g>
     <line class="fil0 str0" x1="371.15" y1="109.13" x2="386.5" y2= "135.71" />
    </g>
    <g>
     <line class="fil0 str0" x1="371.15" y1="162.29" x2="386.5" y2= "188.88" />
    </g>
    <g>
     <line class="fil0 str0" x1="371.15" y1="215.46" x2="386.5" y2= "242.05" />
    </g>
    <g>
     <polyline class="fil0 str0" points="386.5,242.05 371.15,268.63 386.5,295.21 "/>
    </g>
    <g>
     <line class="fil0 str0" x1="386.5" y1="401.55" x2="371.15" y2= "428.13" />
    </g>
    <g>
     <polyline class="fil0 str0" points="386.5,29.37 401.84,55.96 386.5,82.54 "/>
    </g>
    <g>
     <line class="fil0 str0" x1="386.5" y1="188.88" x2="401.84" y2= "215.46" />
    </g>
    <g>
     <line class="fil0 str0" x1="386.5" y1="295.21" x2="401.84" y2= "321.8" />
    </g>
    <g>
     <line class="fil0 str0" x1="401.84" y1="321.8" x2="386.5" y2= "348.38" />
    </g>
    <g>
     <line class="fil0 str0" x1="401.84" y1="374.96" x2="386.5" y2= "401.55" />
    </g>
    <g>
     <line class="fil0 str0" x1="401.84" y1="55.96" x2="417.19" y2= "82.54" />
    </g>
    <g>
     <line class="fil0 str0" x1="417.19" y1="82.54" x2="401.84" y2= "109.13" />
    </g>
    <g>
     <line class="fil0 str0" x1="401.84" y1="162.29" x2="417.19" y2= "188.88" />
    </g>
    <g>
     <line class="fil0 str0" x1="401.84" y1="215.46" x2="417.19" y2= "242.05" />
    </g>
    <g>
     <polyline class="fil0 str0" points="417.19,242.05 401.84,268.63 417.19,295.21 "/>
    </g>
    <g>
     <line class="fil0 str0" x1="417.19" y1="348.38" x2="401.84" y2= "374.96" />
    </g>
    <g>
     <line class="fil0 str0" x1="417.19" y1="82.54" x2="432.54" y2= "109.13" />
    </g>
    <g>
     <line class="fil0 str0" x1="432.54" y1="321.8" x2="417.19" y2= "348.38" />
    </g>
    <g>
     <line class="fil0 str0" x1="432.54" y1="109.13" x2="447.89" y2= "135.71" />
    </g>
    <g>
     <polyline class="fil0 str0" points="432.54,162.29 447.89,188.88 432.54,215.46 "/>
    </g>
    <g>
     <polyline class="fil0 str0" points="447.89,242.05 432.54,268.63 447.89,295.21 "/>
    </g>
    <g>
     <line class="fil0 str0" x1="447.89" y1="295.21" x2="432.54" y2= "321.8" />
    </g>
    <g>
     <line class="fil0 str0" x1="447.89" y1="135.71" x2="463.24" y2= "162.29" />
    </g>
    <g>
     <line class="fil0 str0" x1="463.24" y1="215.46" x2="447.89" y2= "242.05" />
    </g>
    <g>
     <line class="fil0 str0" x1="463.24" y1="268.63" x2="447.89" y2= "295.21" />
    </g>
    <g>
     <line class="fil0 str0" x1="463.24" y1="162.29" x2="478.58" y2= "188.88" />
    </g>
    <g>
     <line class="fil0 str0" x1="478.58" y1="242.05" x2="463.24" y2= "268.63" />
    </g>
    <g>
     <line class="fil0 str0" x1="478.58" y1="188.88" x2="493.93" y2= "215.46" />
    </g>
    <g>
     <line class="fil0 str0" x1="493.93" y1="215.46" x2="478.58" y2= "242.05" />
    </g>
   </g>
  </g>
  <g id="hex9.svg_0">
   <g>
    <g>
     <line class="fil0 str1" x1="125.58" y1="2.79" x2="248.36" y2= "2.79" />
    </g>
    <g>
     <line class="fil0 str1" x1="279.06" y1="2.79" x2="371.15" y2= "2.79" />
    </g>
    <g>
     <line class="fil0 str1" x1="140.92" y1="29.37" x2="202.32" y2= "29.37" />
    </g>
    <g>
     <line class="fil0 str1" x1="263.71" y1="29.37" x2="294.41" y2= "29.37" />
    </g>
    <g>
     <line class="fil0 str1" x1="355.8" y1="29.37" x2="386.5" y2= "29.37" />
    </g>
    <g>
     <line class="fil0 str1" x1="186.97" y1="55.96" x2="279.06" y2= "55.96" />
    </g>
    <g>
     <line class="fil0 str1" x1="340.45" y1="55.96" x2="371.15" y2= "55.96" />
    </g>
    <g>
     <line class="fil0 str1" x1="110.23" y1="82.54" x2="140.92" y2= "82.54" />
    </g>
    <g>
     <line class="fil0 str1" x1="202.32" y1="82.54" x2="233.01" y2= "82.54" />
    </g>
    <g>
     <line class="fil0 str1" x1="94.88" y1="109.13" x2="125.58" y2= "109.13" />
    </g>
    <g>
     <line class="fil0 str1" x1="217.67" y1="109.13" x2="248.36" y2= "109.13" />
    </g>
    <g>
     <line class="fil0 str1" x1="279.06" y1="109.13" x2="309.75" y2= "109.13" />
    </g>
    <g>
     <line class="fil0 str1" x1="48.84" y1="135.71" x2="79.53" y2= "135.71" />
    </g>
    <g>
     <line class="fil0 str1" x1="140.92" y1="135.71" x2="171.62" y2= "135.71" />
    </g>
    <g>
     <line class="fil0 str1" x1="233.01" y1="135.71" x2="325.1" y2= "135.71" />
    </g>
    <g>
     <line class="fil0 str1" x1="417.19" y1="135.71" x2="447.89" y2= "135.71" />
    </g>
    <g>
     <line class="fil0 str1" x1="33.49" y1="162.29" x2="94.88" y2= "162.29" />
    </g>
    <g>
     <line class="fil0 str1" x1="156.27" y1="162.29" x2="186.97" y2= "162.29" />
    </g>
    <g>
     <line class="fil0 str1" x1="217.67" y1="162.29" x2="279.06" y2= "162.29" />
    </g>
    <g>
     <line class="fil0 str1" x1="340.45" y1="162.29" x2="432.54" y2= "162.29" />
    </g>
    <g>
     <line class="fil0 str1" x1="18.14" y1="188.88" x2="48.84" y2= "188.88" />
    </g>
    <g>
     <line class="fil0 str1" x1="140.92" y1="188.88" x2="171.62" y2= "188.88" />
    </g>
    <g>
     <line class="fil0 str1" x1="325.1" y1="188.88" x2="355.8" y2= "188.88" />
    </g>
    <g>
     <line class="fil0 str1" x1="156.27" y1="215.46" x2="186.97" y2= "215.46" />
    </g>
    <g>
     <line class="fil0 str1" x1="309.75" y1="215.46" x2="340.45" y2= "215.46" />
    </g>
    <g>
     <line class="fil0 str1" x1="125.58" y1="268.63" x2="156.27" y2= "268.63" />
    </g>
    <g>
     <line class="fil0 str1" x1="248.36" y1="268.63" x2="279.06" y2= "268.63" />
    </g>
    <g>
     <line class="fil0 str1" x1="79.53" y1="295.21" x2="110.23" y2= "295.21" />
    </g>
    <g>
     <line class="fil0 str1" x1="171.62" y1="295.21" x2="202.32" y2= "295.21" />
    </g>
    <g>
     <line class="fil0 str1" x1="233.01" y1="295.21" x2="294.41" y2= "295.21" />
    </g>
    <g>
     <line class="fil0 str1" x1="156.27" y1="321.8" x2="186.97" y2= "321.8" />
    </g>
    <g>
     <line class="fil0 str1" x1="217.67" y1="321.8" x2="248.36" y2= "321.8" />
    </g>
    <g>
     <line class="fil0 str1" x1="279.06" y1="321.8" x2="309.75" y2= "321.8" />
    </g>
    <g>
     <line class="fil0 str1" x1="340.45" y1="321.8" x2="371.15" y2= "321.8" />
    </g>
    <g>
     <line class="fil0 str1" x1="401.84" y1="321.8" x2="432.54" y2= "321.8" />
    </g>
    <g>
     <line class="fil0 str1" x1="325.1" y1="348.38" x2="386.5" y2= "348.38" />
    </g>
    <g>
     <line class="fil0 str1" x1="125.58" y1="374.96" x2="156.27" y2= "374.96" />
    </g>
    <g>
     <line class="fil0 str1" x1="186.97" y1="374.96" x2="217.67" y2= "374.96" />
    </g>
    <g>
     <line class="fil0 str1" x1="340.45" y1="374.96" x2="371.15" y2= "374.96" />
    </g>
    <g>
     <line class="fil0 str1" x1="140.92" y1="401.55" x2="171.62" y2= "401.55" />
    </g>
    <g>
     <line class="fil0 str1" x1="202.32" y1="401.55" x2="233.01" y2= "401.55" />
    </g>
    <g>
     <line class="fil0 str1" x1="294.41" y1="401.55" x2="325.1" y2= "401.55" />
    </g>
    <g>
     <line class="fil0 str1" x1="355.8" y1="401.55" x2="386.5" y2= "401.55" />
    </g>
    <g>
     <line class="fil0 str1" x1="125.58" y1="428.13" x2="371.15" y2= "428.13" />
    </g>
    <g>
     <line class="fil0 str1" x1="18.14" y1="188.88" x2="2.79" y2= "215.46" />
    </g>
    <g>
     <line class="fil0 str1" x1="2.79" y1="215.46" x2="18.14" y2= "242.05" />
    </g>
    <g>
     <line class="fil0 str1" x1="33.49" y1="162.29" x2="18.14" y2= "188.88" />
    </g>
    <g>
     <line class="fil0 str1" x1="18.14" y1="242.05" x2="33.49" y2= "268.63" />
    </g>
    <g>
     <line class="fil0 str1" x1="48.84" y1="135.71" x2="33.49" y2= "162.29" />
    </g>
    <g>
     <line class="fil0 str1" x1="33.49" y1="215.46" x2="48.84" y2= "242.05" />
    </g>
    <g>
     <line class="fil0 str1" x1="33.49" y1="268.63" x2="48.84" y2= "295.21" />
    </g>
    <g>
     <line class="fil0 str1" x1="64.18" y1="109.13" x2="48.84" y2= "135.71" />
    </g>
    <g>
     <line class="fil0 str1" x1="48.84" y1="188.88" x2="64.18" y2= "215.46" />
    </g>
    <g>
     <line class="fil0 str1" x1="48.84" y1="242.05" x2="64.18" y2= "268.63" />
    </g>
    <g>
     <line class="fil0 str1" x1="48.84" y1="295.21" x2="64.18" y2= "321.8" />
    </g>
    <g>
     <line class="fil0 str1" x1="79.53" y1="82.54" x2="64.18" y2= "109.13" />
    </g>
    <g>
     <line class="fil0 str1" x1="64.18" y1="215.46" x2="79.53" y2= "242.05" />
    </g>
    <g>
     <line class="fil0 str1" x1="64.18" y1="268.63" x2="79.53" y2= "295.21" />
    </g>
    <g>
     <line class="fil0 str1" x1="64.18" y1="321.8" x2="79.53" y2= "348.38" />
    </g>
    <g>
     <line class="fil0 str1" x1="94.88" y1="55.96" x2="79.53" y2= "82.54" />
    </g>
    <g>
     <line class="fil0 str1" x1="79.53" y1="82.54" x2="94.88" y2= "109.13" />
    </g>
    <g>
     <line class="fil0 str1" x1="79.53" y1="188.88" x2="94.88" y2= "215.46" />
    </g>
    <g>
     <line class="fil0 str1" x1="79.53" y1="348.38" x2="94.88" y2= "374.96" />
    </g>
    <g>
     <line class="fil0 str1" x1="110.23" y1="29.37" x2="94.88" y2= "55.96" />
    </g>
    <g>
     <polyline class="fil0 str1" points="94.88,162.29 110.23,188.88 94.88,215.46 "/>
    </g>
    <g>
     <line class="fil0 str1" x1="94.88" y1="215.46" x2="110.23" y2= "242.05" />
    </g>
    <g>
     <line class="fil0 str1" x1="110.23" y1="242.05" x2="94.88" y2= "268.63" />
    </g>
    <g>
     <line class="fil0 str1" x1="94.88" y1="321.8" x2="110.23" y2= "348.38" />
    </g>
    <g>
     <line class="fil0 str1" x1="94.88" y1="374.96" x2="110.23" y2= "401.55" />
    </g>
    <g>
     <line class="fil0 str1" x1="125.58" y1="2.79" x2="110.23" y2= "29.37" />
    </g>
    <g>
     <line class="fil0 str1" x1="125.58" y1="55.96" x2="110.23" y2= "82.54" />
    </g>
    <g>
     <line class="fil0 str1" x1="125.58" y1="109.13" x2="110.23" y2= "135.71" />
    </g>
    <g>
     <polyline class="fil0 str1" points="110.23,242.05 125.58,268.63 110.23,295.21 "/>
    </g>
    <g>
     <line class="fil0 str1" x1="110.23" y1="295.21" x2="125.58" y2= "321.8" />
    </g>
    <g>
     <line class="fil0 str1" x1="110.23" y1="348.38" x2="125.58" y2= "374.96" />
    </g>
    <g>
     <line class="fil0 str1" x1="110.23" y1="401.55" x2="125.58" y2= "428.13" />
    </g>
    <g>
     <polyline class="fil0 str1" points="140.92,135.71 125.58,162.29 140.92,188.88 125.58,215.46 "/>
    </g>
    <g>
     <line class="fil0 str1" x1="140.92" y1="295.21" x2="125.58" y2= "321.8" />
    </g>
    <g>
     <line class="fil0 str1" x1="125.58" y1="321.8" x2="140.92" y2= "348.38" />
    </g>
    <g>
     <polyline class="fil0 str1" points="140.92,29.37 156.27,55.96 140.92,82.54 "/>
    </g>
    <g>
     <line class="fil0 str1" x1="140.92" y1="82.54" x2="156.27" y2= "109.13" />
    </g>
    <g>
     <line class="fil0 str1" x1="156.27" y1="215.46" x2="140.92" y2= "242.05" />
    </g>
    <g>
     <line class="fil0 str1" x1="140.92" y1="348.38" x2="156.27" y2= "374.96" />
    </g>
    <g>
     <line class="fil0 str1" x1="156.27" y1="109.13" x2="171.62" y2= "135.71" />
    </g>
    <g>
     <polyline class="fil0 str1" points="171.62,242.05 156.27,268.63 171.62,295.21 "/>
    </g>
    <g>
     <line class="fil0 str1" x1="171.62" y1="295.21" x2="156.27" y2= "321.8" />
    </g>
    <g>
     <line class="fil0 str1" x1="186.97" y1="55.96" x2="171.62" y2= "82.54" />
    </g>
    <g>
     <line class="fil0 str1" x1="171.62" y1="82.54" x2="186.97" y2= "109.13" />
    </g>
    <g>
     <line class="fil0 str1" x1="186.97" y1="162.29" x2="171.62" y2= "188.88" />
    </g>
    <g>
     <polyline class="fil0 str1" points="171.62,348.38 186.97,374.96 171.62,401.55 186.97,428.13 "/>
    </g>
    <g>
     <line class="fil0 str1" x1="202.32" y1="135.71" x2="186.97" y2= "162.29" />
    </g>
    <g>
     <line class="fil0 str1" x1="202.32" y1="188.88" x2="186.97" y2= "215.46" />
    </g>
    <g>
     <line class="fil0 str1" x1="186.97" y1="215.46" x2="202.32" y2= "242.05" />
    </g>
    <g>
     <line class="fil0 str1" x1="202.32" y1="242.05" x2="186.97" y2= "268.63" />
    </g>
    <g>
     <line class="fil0 str1" x1="186.97" y1="321.8" x2="202.32" y2= "348.38" />
    </g>
    <g>
     <line class="fil0 str1" x1="202.32" y1="82.54" x2="217.67" y2= "109.13" />
    </g>
    <g>
     <line class="fil0 str1" x1="217.67" y1="109.13" x2="202.32" y2= "135.71" />
    </g>
    <g>
     <line class="fil0 str1" x1="217.67" y1="162.29" x2="202.32" y2= "188.88" />
    </g>
    <g>
     <polyline class="fil0 str1" points="202.32,242.05 217.67,268.63 202.32,295.21 "/>
    </g>
    <g>
     <polyline class="fil0 str1" points="233.01,348.38 217.67,374.96 233.01,401.55 "/>
    </g>
    <g>
     <polyline class="fil0 str1" points="248.36,2.79 233.01,29.37 248.36,55.96 "/>
    </g>
    <g>
     <line class="fil0 str1" x1="248.36" y1="321.8" x2="233.01" y2= "348.38" />
    </g>
    <g>
     <line class="fil0 str1" x1="263.71" y1="82.54" x2="248.36" y2= "109.13" />
    </g>
    <g>
     <polyline class="fil0 str1" points="263.71,348.38 248.36,374.96 263.71,401.55 248.36,428.13 "/>
    </g>
    <g>
     <line class="fil0 str1" x1="279.06" y1="2.79" x2="263.71" y2= "29.37" />
    </g>
    <g>
     <line class="fil0 str1" x1="279.06" y1="55.96" x2="263.71" y2= "82.54" />
    </g>
    <g>
     <line class="fil0 str1" x1="263.71" y1="82.54" x2="279.06" y2= "109.13" />
    </g>
    <g>
     <line class="fil0 str1" x1="279.06" y1="321.8" x2="263.71" y2= "348.38" />
    </g>
    <g>
     <line class="fil0 str1" x1="279.06" y1="162.29" x2="294.41" y2= "188.88" />
    </g>
    <g>
     <line class="fil0 str1" x1="294.41" y1="242.05" x2="279.06" y2= "268.63" />
    </g>
    <g>
     <polyline class="fil0 str1" points="279.06,374.96 294.41,401.55 279.06,428.13 "/>
    </g>
    <g>
     <polyline class="fil0 str1" points="294.41,29.37 309.75,55.96 294.41,82.54 "/>
    </g>
    <g>
     <line class="fil0 str1" x1="294.41" y1="188.88" x2="309.75" y2= "215.46" />
    </g>
    <g>
     <line class="fil0 str1" x1="309.75" y1="215.46" x2="294.41" y2= "242.05" />
    </g>
    <g>
     <polyline class="fil0 str1" points="294.41,242.05 309.75,268.63 294.41,295.21 "/>
    </g>
    <g>
     <line class="fil0 str1" x1="309.75" y1="321.8" x2="294.41" y2= "348.38" />
    </g>
    <g>
     <line class="fil0 str1" x1="309.75" y1="2.79" x2="325.1" y2= "29.37" />
    </g>
    <g>
     <line class="fil0 str1" x1="325.1" y1="82.54" x2="309.75" y2= "109.13" />
    </g>
    <g>
     <line class="fil0 str1" x1="309.75" y1="162.29" x2="325.1" y2= "188.88" />
    </g>
    <g>
     <line class="fil0 str1" x1="325.1" y1="295.21" x2="309.75" y2= "321.8" />
    </g>
    <g>
     <line class="fil0 str1" x1="325.1" y1="348.38" x2="309.75" y2= "374.96" />
    </g>
    <g>
     <line class="fil0 str1" x1="325.1" y1="29.37" x2="340.45" y2= "55.96" />
    </g>
    <g>
     <line class="fil0 str1" x1="325.1" y1="82.54" x2="340.45" y2= "109.13" />
    </g>
    <g>
     <line class="fil0 str1" x1="325.1" y1="135.71" x2="340.45" y2= "162.29" />
    </g>
    <g>
     <line class="fil0 str1" x1="340.45" y1="215.46" x2="325.1" y2= "242.05" />
    </g>
    <g>
     <line class="fil0 str1" x1="340.45" y1="268.63" x2="325.1" y2= "295.21" />
    </g>
    <g>
     <line class="fil0 str1" x1="340.45" y1="374.96" x2="325.1" y2= "401.55" />
    </g>
    <g>
     <line class="fil0 str1" x1="340.45" y1="109.13" x2="355.8" y2= "135.71" />
    </g>
    <g>
     <polyline class="fil0 str1" points="355.8,242.05 340.45,268.63 355.8,295.21 "/>
    </g>
    <g>
     <line class="fil0 str1" x1="371.15" y1="55.96" x2="355.8" y2= "82.54" />
    </g>
    <g>
     <line class="fil0 str1" x1="355.8" y1="135.71" x2="371.15" y2= "162.29" />
    </g>
    <g>
     <line class="fil0 str1" x1="355.8" y1="188.88" x2="371.15" y2= "215.46" />
    </g>
    <g>
     <line class="fil0 str1" x1="355.8" y1="295.21" x2="371.15" y2= "321.8" />
    </g>
    <g>
     <line class="fil0 str1" x1="371.15" y1="2.79" x2="386.5" y2= "29.37" />
    </g>
    <g>
     <line class="fil0 str1" x1="386.5" y1="82.54" x2="371.15" y2= "109.13" />
    </g>
    <g>
     <line class="fil0 str1" x1="371.15" y1="109.13" x2="386.5" y2= "135.71" />
    </g>
    <g>
     <line class="fil0 str1" x1="371.15" y1="162.29" x2="386.5" y2= "188.88" />
    </g>
    <g>
     <line class="fil0 str1" x1="371.15" y1="215.46" x2="386.5" y2= "242.05" />
    </g>
    <g>
     <polyline class="fil0 str1" points="386.5,242.05 371.15,268.63 386.5,295.21 "/>
    </g>
    <g>
     <line class="fil0 str1" x1="386.5" y1="401.55" x2="371.15" y2= "428.13" />
    </g>
    <g>
     <polyline class="fil0 str1" points="386.5,29.37 401.84,55.96 386.5,82.54 "/>
    </g>
    <g>
     <line class="fil0 str1" x1="386.5" y1="188.88" x2="401.84" y2= "215.46" />
    </g>
    <g>
     <line class="fil0 str1" x1="386.5" y1="295.21" x2="401.84" y2= "321.8" />
    </g>
    <g>
     <line class="fil0 str1" x1="401.84" y1="321.8" x2="386.5" y2= "348.38" />
    </g>
    <g>
     <line class="fil0 str1" x1="401.84" y1="374.96" x2="386.5" y2= "401.55" />
    </g>
    <g>
     <line class="fil0 str1" x1="401.84" y1="55.96" x2="417.19" y2= "82.54" />
    </g>
    <g>
     <line class="fil0 str1" x1="417.19" y1="82.54" x2="401.84" y2= "109.13" />
    </g>
    <g>
     <line class="fil0 str1" x1="401.84" y1="162.29" x2="417.19" y2= "188.88" />
    </g>
    <g>
     <line class="fil0 str1" x1="401.84" y1="215.46" x2="417.19" y2= "242.05" />
    </g>
    <g>
     <polyline class="fil0 str1" points="417.19,242.05 401.84,268.63 417.19,295.21 "/>
    </g>
    <g>
     <line class="fil0 str1" x1="417.19" y1="348.38" x2="401.84" y2= "374.96" />
    </g>
    <g>
     <line class="fil0 str1" x1="417.19" y1="82.54" x2="432.54" y2= "109.13" />
    </g>
    <g>
     <line class="fil0 str1" x1="432.54" y1="321.8" x2="417.19" y2= "348.38" />
    </g>
    <g>
     <line class="fil0 str1" x1="432.54" y1="109.13" x2="447.89" y2= "135.71" />
    </g>
    <g>
     <polyline class="fil0 str1" points="432.54,162.29 447.89,188.88 432.54,215.46 "/>
    </g>
    <g>
     <polyline class="fil0 str1" points="447.89,242.05 432.54,268.63 447.89,295.21 "/>
    </g>
    <g>
     <line class="fil0 str1" x1="447.89" y1="295.21" x2="432.54" y2= "321.8" />
    </g>
    <g>
     <line class="fil0 str1" x1="447.89" y1="135.71" x2="463.24" y2= "162.29" />
    </g>
    <g>
     <line class="fil0 str1" x1="463.24" y1="215.46" x2="447.89" y2= "242.05" />
    </g>
    <g>
     <line class="fil0 str1" x1="463.24" y1="268.63" x2="447.89" y2= "295.21" />
    </g>
    <g>
     <line class="fil0 str1" x1="463.24" y1="162.29" x2="478.58" y2= "188.88" />
    </g>
    <g>
     <line class="fil0 str1" x1="478.58" y1="242.05" x2="463.24" y2= "268.63" />
    </g>
    <g>
     <line class="fil0 str1" x1="478.58" y1="188.88" x2="493.93" y2= "215.46" />
    </g>
    <g>
     <line class="fil0 str1" x1="493.93" y1="215.46" x2="478.58" y2= "242.05" />
    </g>
   </g>
  </g>
 </g>
</svg>
