<?xml version="1.0" encoding="UTF-8"?>
<!DOCTYPE svg PUBLIC "-//W3C//DTD SVG 1.1//EN" "http://www.w3.org/Graphics/SVG/1.1/DTD/svg11.dtd">
<!-- Creator: CorelDRAW 2018 (64-Bit) -->
<svg xmlns="http://www.w3.org/2000/svg" xml:space="preserve" width="2.54166in" height="2.54166in" version="1.1" style="shape-rendering:geometricPrecision; text-rendering:geometricPrecision; image-rendering:optimizeQuality; fill-rule:evenodd; clip-rule:evenodd"
viewBox="0 0 155.78 155.78"
 xmlns:xlink="http://www.w3.org/1999/xlink">
 <defs>
  <style type="text/css">
   <![CDATA[
    .str4 {stroke:red;stroke-width:1.28;stroke-linecap:square;stroke-linejoin:round;stroke-miterlimit:2.61313}
    .str1 {stroke:#337768;stroke-width:2.55;stroke-miterlimit:2.61313}
    .str3 {stroke:#AFEEA8;stroke-width:1.7;stroke-miterlimit:2.61313}
    .str0 {stroke:#337768;stroke-width:2.55;stroke-linecap:square;stroke-miterlimit:2.61313}
    .str2 {stroke:#AFEEA8;stroke-width:1.7;stroke-linecap:square;stroke-miterlimit:2.61313}
    .fil0 {fill:none}
   ]]>
  </style>
 </defs>
 <g id="Layer_x0020_1">
  <metadata id="CorelCorpID_0Corel-Layer"/>
  <g id="_2126501911616">
   <g>
    <g>
     <path class="fil0 str0" d="M67.05 88.72c-2.87,-2.87 -4.49,-6.77 -4.49,-10.83 0,-8.46 6.86,-15.32 15.32,-15.32 8.46,0 15.32,6.86 15.32,15.32 0,8.46 -6.86,15.32 -15.32,15.32"/>
    </g>
    <g>
     <path class="fil0 str0" d="M54.29 87.66c-1.28,-3.09 -1.94,-6.42 -1.94,-9.77 0,-14.1 11.44,-25.54 25.54,-25.54 3.35,0 6.68,0.66 9.77,1.95"/>
    </g>
    <g>
     <path class="fil0 str0" d="M95.95 59.83c4.79,4.79 7.48,11.29 7.48,18.06"/>
    </g>
    <g>
     <path class="fil0 str0" d="M101.48 87.66c-1.28,3.1 -3.17,5.92 -5.54,8.28"/>
    </g>
    <g>
     <path class="fil0 str0" d="M87.66 101.48c-3.09,1.28 -6.42,1.94 -9.77,1.94 -6.77,0 -13.27,-2.69 -18.06,-7.48"/>
    </g>
    <g>
     <path class="fil0 str0" d="M52.61 52.61c6.7,-6.7 15.8,-10.47 25.28,-10.47 14.46,0 27.5,8.72 33.03,22.07"/>
    </g>
    <g>
     <path class="fil0 str0" d="M113.64 77.89c-0,14.46 -8.72,27.5 -22.07,33.03"/>
    </g>
    <g>
     <path class="fil0 str0" d="M77.89 113.64c-4.69,-0 -9.35,-0.93 -13.68,-2.72"/>
    </g>
    <g>
     <path class="fil0 str0" d="M68.92 32.8c2.95,-0.59 5.96,-0.88 8.97,-0.88 9.09,0 17.98,2.69 25.54,7.74"/>
    </g>
    <g>
     <path class="fil0 str0" d="M116.11 52.35c5.05,7.56 7.75,16.45 7.75,25.54 0,6.03 -1.2,12.02 -3.5,17.59"/>
    </g>
    <g>
     <path class="fil0 str0" d="M103.43 116.11c-7.56,5.05 -16.45,7.75 -25.54,7.75"/>
    </g>
    <g>
     <path class="fil0 str0" d="M60.3 120.36c-2.78,-1.15 -5.45,-2.58 -7.95,-4.25"/>
    </g>
    <g>
     <path class="fil0 str0" d="M39.67 103.43c-1.67,-2.5 -3.09,-5.17 -4.24,-7.95"/>
    </g>
    <g>
     <path class="fil0 str0" d="M31.92 77.89c0,-9.09 2.69,-17.98 7.74,-25.54"/>
    </g>
    <g>
     <path class="fil0 str0" d="M45.38 45.38c2.13,-2.13 4.47,-4.05 6.96,-5.72"/>
    </g>
    <g>
     <path class="fil0 str0" d="M66.93 22.79c3.6,-0.72 7.28,-1.08 10.96,-1.08"/>
    </g>
    <g>
     <path class="fil0 str0" d="M99.39 25.98c3.4,1.41 6.66,3.15 9.72,5.19"/>
    </g>
    <g>
     <path class="fil0 str0" d="M117.61 38.16c2.6,2.6 4.95,5.46 6.99,8.51"/>
    </g>
    <g>
     <path class="fil0 str0" d="M129.79 56.39c2.82,6.81 4.28,14.13 4.28,21.5 0,18.76 -9.37,36.3 -24.97,46.72"/>
    </g>
    <g>
     <path class="fil0 str0" d="M99.39 129.79c-3.39,1.4 -6.94,2.49 -10.54,3.2"/>
    </g>
    <g>
     <path class="fil0 str0" d="M46.68 124.6c-3.05,-2.03 -5.91,-4.39 -8.51,-6.99"/>
    </g>
    <g>
     <path class="fil0 str0" d="M31.17 109.1c-4.1,-6.12 -6.96,-13.02 -8.39,-20.25"/>
    </g>
    <g>
     <path class="fil0 str0" d="M31.17 46.68c6.17,-9.24 14.95,-16.44 25.21,-20.69"/>
    </g>
    <g>
     <path class="fil0 str0" d="M77.89 11.49c4.34,0 8.7,0.43 12.95,1.27"/>
    </g>
    <g>
     <path class="fil0 str0" d="M114.78 22.68c3.61,2.4 6.99,5.18 10.06,8.26"/>
    </g>
    <g>
     <path class="fil0 str0" d="M143.01 64.93c0.85,4.26 1.28,8.61 1.28,12.95"/>
    </g>
    <g>
     <path class="fil0 str0" d="M139.23 103.3c-3.34,8.05 -8.23,15.38 -14.39,21.54"/>
    </g>
    <g>
     <path class="fil0 str0" d="M114.78 133.09c-10.92,7.3 -23.76,11.19 -36.89,11.19"/>
    </g>
    <g>
     <path class="fil0 str0" d="M52.48 139.23c-12.13,-5.03 -22.51,-13.53 -29.8,-24.45"/>
    </g>
    <g>
     <path class="fil0 str0" d="M16.55 103.3c-1.66,-4.01 -2.94,-8.2 -3.78,-12.46"/>
    </g>
    <g>
     <path class="fil0 str0" d="M12.77 64.93c1.69,-8.54 5.07,-16.7 9.91,-23.94"/>
    </g>
    <g>
     <path class="fil0 str0" d="M52.48 16.55c4.01,-1.66 8.2,-2.94 12.46,-3.78"/>
    </g>
    <g>
     <path class="fil0 str0" d="M92.83 2.75c35.84,7.12 61.66,38.6 61.66,75.14 0,42.3 -34.31,76.61 -76.61,76.61 -42.3,0 -76.61,-34.31 -76.61,-76.61 0,-42.3 34.31,-76.61 76.61,-76.61"/>
    </g>
   </g>
   <g>
    <g>
     <line class="fil0 str1" x1="77.89" y1="1.28" x2="77.89" y2= "11.49" />
    </g>
    <g>
     <line class="fil0 str1" x1="77.89" y1="21.71" x2="77.89" y2= "31.92" />
    </g>
    <g>
     <line class="fil0 str1" x1="90.84" y1="12.77" x2="88.85" y2= "22.79" />
    </g>
    <g>
     <line class="fil0 str1" x1="107.21" y1="7.11" x2="103.3" y2= "16.55" />
    </g>
    <g>
     <line class="fil0 str1" x1="114.78" y1="22.68" x2="103.43" y2= "39.67" />
    </g>
    <g>
     <line class="fil0 str1" x1="132.06" y1="23.72" x2="124.84" y2= "30.94" />
    </g>
    <g>
     <line class="fil0 str1" x1="117.61" y1="38.16" x2="103.17" y2= "52.61" />
    </g>
    <g>
     <line class="fil0 str1" x1="133.09" y1="41" x2="116.11" y2= "52.35" />
    </g>
    <g>
     <line class="fil0 str1" x1="148.67" y1="48.57" x2="129.79" y2= "56.39" />
    </g>
    <g>
     <line class="fil0 str1" x1="144.28" y1="77.89" x2="134.07" y2= "77.89" />
    </g>
    <g>
     <line class="fil0 str1" x1="113.64" y1="77.89" x2="103.42" y2= "77.89" />
    </g>
    <g>
     <line class="fil0 str1" x1="153.03" y1="92.83" x2="143.01" y2= "90.84" />
    </g>
    <g>
     <line class="fil0 str1" x1="139.23" y1="103.3" x2="129.79" y2= "99.39" />
    </g>
    <g>
     <line class="fil0 str1" x1="120.36" y1="95.48" x2="110.92" y2= "91.57" />
    </g>
    <g>
     <line class="fil0 str1" x1="124.6" y1="109.1" x2="116.11" y2= "103.43" />
    </g>
    <g>
     <line class="fil0 str1" x1="110.39" y1="110.39" x2="88.72" y2= "88.72" />
    </g>
    <g>
     <line class="fil0 str1" x1="114.78" y1="133.09" x2="103.43" y2= "116.11" />
    </g>
    <g>
     <line class="fil0 str1" x1="90.84" y1="143.01" x2="88.85" y2= "132.99" />
    </g>
    <g>
     <line class="fil0 str1" x1="77.89" y1="134.07" x2="77.89" y2= "103.42" />
    </g>
    <g>
     <line class="fil0 str1" x1="62.94" y1="153.03" x2="68.92" y2= "122.97" />
    </g>
    <g>
     <line class="fil0 str1" x1="52.48" y1="139.23" x2="64.21" y2= "110.92" />
    </g>
    <g>
     <line class="fil0 str1" x1="38.16" y1="117.61" x2="67.05" y2= "88.72" />
    </g>
    <g>
     <line class="fil0 str1" x1="22.68" y1="114.78" x2="39.67" y2= "103.43" />
    </g>
    <g>
     <line class="fil0 str1" x1="7.11" y1="107.21" x2="16.55" y2= "103.3" />
    </g>
    <g>
     <line class="fil0 str1" x1="35.42" y1="95.48" x2="54.29" y2= "87.66" />
    </g>
    <g>
     <line class="fil0 str1" x1="22.79" y1="88.85" x2="32.8" y2= "86.86" />
    </g>
    <g>
     <line class="fil0 str1" x1="1.28" y1="77.89" x2="42.14" y2= "77.89" />
    </g>
    <g>
     <line class="fil0 str1" x1="12.77" y1="64.93" x2="22.79" y2= "66.93" />
    </g>
    <g>
     <line class="fil0 str1" x1="25.98" y1="56.39" x2="35.42" y2= "60.3" />
    </g>
    <g>
     <line class="fil0 str1" x1="44.86" y1="64.21" x2="54.29" y2= "68.12" />
    </g>
    <g>
     <line class="fil0 str1" x1="22.68" y1="41" x2="31.17" y2= "46.68" />
    </g>
    <g>
     <line class="fil0 str1" x1="23.72" y1="23.72" x2="30.94" y2= "30.94" />
    </g>
    <g>
     <line class="fil0 str1" x1="38.16" y1="38.16" x2="45.38" y2= "45.38" />
    </g>
    <g>
     <line class="fil0 str1" x1="41" y1="22.68" x2="46.68" y2= "31.17" />
    </g>
    <g>
     <line class="fil0 str1" x1="56.39" y1="25.98" x2="64.21" y2= "44.86" />
    </g>
    <g>
     <line class="fil0 str1" x1="64.93" y1="12.77" x2="66.93" y2= "22.79" />
    </g>
   </g>
  </g>
  <g>
   <g>
    <g>
     <path class="fil0 str2" d="M67.05 88.72c-2.87,-2.87 -4.49,-6.77 -4.49,-10.83 0,-8.46 6.86,-15.32 15.32,-15.32 8.46,0 15.32,6.86 15.32,15.32 0,8.46 -6.86,15.32 -15.32,15.32"/>
    </g>
    <g>
     <path class="fil0 str2" d="M54.29 87.66c-1.28,-3.09 -1.94,-6.42 -1.94,-9.77 0,-14.1 11.44,-25.54 25.54,-25.54 3.35,0 6.68,0.66 9.77,1.95"/>
    </g>
    <g>
     <path class="fil0 str2" d="M95.95 59.83c4.79,4.79 7.48,11.29 7.48,18.06"/>
    </g>
    <g>
     <path class="fil0 str2" d="M101.48 87.66c-1.28,3.1 -3.17,5.92 -5.54,8.28"/>
    </g>
    <g>
     <path class="fil0 str2" d="M87.66 101.48c-3.09,1.28 -6.42,1.94 -9.77,1.94 -6.77,0 -13.27,-2.69 -18.06,-7.48"/>
    </g>
    <g>
     <path class="fil0 str2" d="M52.61 52.61c6.7,-6.7 15.8,-10.47 25.28,-10.47 14.46,0 27.5,8.72 33.03,22.07"/>
    </g>
    <g>
     <path class="fil0 str2" d="M113.64 77.89c-0,14.46 -8.72,27.5 -22.07,33.03"/>
    </g>
    <g>
     <path class="fil0 str2" d="M77.89 113.64c-4.69,-0 -9.35,-0.93 -13.68,-2.72"/>
    </g>
    <g>
     <path class="fil0 str2" d="M68.92 32.8c2.95,-0.59 5.96,-0.88 8.97,-0.88 9.09,0 17.98,2.69 25.54,7.74"/>
    </g>
    <g>
     <path class="fil0 str2" d="M116.11 52.35c5.05,7.56 7.75,16.45 7.75,25.54 0,6.03 -1.2,12.02 -3.5,17.59"/>
    </g>
    <g>
     <path class="fil0 str2" d="M103.43 116.11c-7.56,5.05 -16.45,7.75 -25.54,7.75"/>
    </g>
    <g>
     <path class="fil0 str2" d="M60.3 120.36c-2.78,-1.15 -5.45,-2.58 -7.95,-4.25"/>
    </g>
    <g>
     <path class="fil0 str2" d="M39.67 103.43c-1.67,-2.5 -3.09,-5.17 -4.24,-7.95"/>
    </g>
    <g>
     <path class="fil0 str2" d="M31.92 77.89c0,-9.09 2.69,-17.98 7.74,-25.54"/>
    </g>
    <g>
     <path class="fil0 str2" d="M45.38 45.38c2.13,-2.13 4.47,-4.05 6.96,-5.72"/>
    </g>
    <g>
     <path class="fil0 str2" d="M66.93 22.79c3.6,-0.72 7.28,-1.08 10.96,-1.08"/>
    </g>
    <g>
     <path class="fil0 str2" d="M99.39 25.98c3.4,1.41 6.66,3.15 9.72,5.19"/>
    </g>
    <g>
     <path class="fil0 str2" d="M117.61 38.16c2.6,2.6 4.95,5.46 6.99,8.51"/>
    </g>
    <g>
     <path class="fil0 str2" d="M129.79 56.39c2.82,6.81 4.28,14.13 4.28,21.5 0,18.76 -9.37,36.3 -24.97,46.72"/>
    </g>
    <g>
     <path class="fil0 str2" d="M99.39 129.79c-3.39,1.4 -6.94,2.49 -10.54,3.2"/>
    </g>
    <g>
     <path class="fil0 str2" d="M46.68 124.6c-3.05,-2.03 -5.91,-4.39 -8.51,-6.99"/>
    </g>
    <g>
     <path class="fil0 str2" d="M31.17 109.1c-4.1,-6.12 -6.96,-13.02 -8.39,-20.25"/>
    </g>
    <g>
     <path class="fil0 str2" d="M31.17 46.68c6.17,-9.24 14.95,-16.44 25.21,-20.69"/>
    </g>
    <g>
     <path class="fil0 str2" d="M77.89 11.49c4.34,0 8.7,0.43 12.95,1.27"/>
    </g>
    <g>
     <path class="fil0 str2" d="M114.78 22.68c3.61,2.4 6.99,5.18 10.06,8.26"/>
    </g>
    <g>
     <path class="fil0 str2" d="M143.01 64.93c0.85,4.26 1.28,8.61 1.28,12.95"/>
    </g>
    <g>
     <path class="fil0 str2" d="M139.23 103.3c-3.34,8.05 -8.23,15.38 -14.39,21.54"/>
    </g>
    <g>
     <path class="fil0 str2" d="M114.78 133.09c-10.92,7.3 -23.76,11.19 -36.89,11.19"/>
    </g>
    <g>
     <path class="fil0 str2" d="M52.48 139.23c-12.13,-5.03 -22.51,-13.53 -29.8,-24.45"/>
    </g>
    <g>
     <path class="fil0 str2" d="M16.55 103.3c-1.66,-4.01 -2.94,-8.2 -3.78,-12.46"/>
    </g>
    <g>
     <path class="fil0 str2" d="M12.77 64.93c1.69,-8.54 5.07,-16.7 9.91,-23.94"/>
    </g>
    <g>
     <path class="fil0 str2" d="M52.48 16.55c4.01,-1.66 8.2,-2.94 12.46,-3.78"/>
    </g>
    <g>
     <path class="fil0 str2" d="M92.83 2.75c35.84,7.12 61.66,38.6 61.66,75.14 0,42.3 -34.31,76.61 -76.61,76.61 -42.3,0 -76.61,-34.31 -76.61,-76.61 0,-42.3 34.31,-76.61 76.61,-76.61"/>
    </g>
   </g>
   <g>
    <g>
     <line class="fil0 str3" x1="77.89" y1="1.28" x2="77.89" y2= "11.49" />
    </g>
    <g>
     <line class="fil0 str3" x1="77.89" y1="21.71" x2="77.89" y2= "31.92" />
    </g>
    <g>
     <line class="fil0 str3" x1="90.84" y1="12.77" x2="88.85" y2= "22.79" />
    </g>
    <g>
     <line class="fil0 str3" x1="107.21" y1="7.11" x2="103.3" y2= "16.55" />
    </g>
    <g>
     <line class="fil0 str3" x1="114.78" y1="22.68" x2="103.43" y2= "39.67" />
    </g>
    <g>
     <line class="fil0 str3" x1="132.06" y1="23.72" x2="124.84" y2= "30.94" />
    </g>
    <g>
     <line class="fil0 str3" x1="117.61" y1="38.16" x2="103.17" y2= "52.61" />
    </g>
    <g>
     <line class="fil0 str3" x1="133.09" y1="41" x2="116.11" y2= "52.35" />
    </g>
    <g>
     <line class="fil0 str3" x1="148.67" y1="48.57" x2="129.79" y2= "56.39" />
    </g>
    <g>
     <line class="fil0 str3" x1="144.28" y1="77.89" x2="134.07" y2= "77.89" />
    </g>
    <g>
     <line class="fil0 str3" x1="113.64" y1="77.89" x2="103.42" y2= "77.89" />
    </g>
    <g>
     <line class="fil0 str3" x1="153.03" y1="92.83" x2="143.01" y2= "90.84" />
    </g>
    <g>
     <line class="fil0 str3" x1="139.23" y1="103.3" x2="129.79" y2= "99.39" />
    </g>
    <g>
     <line class="fil0 str3" x1="120.36" y1="95.48" x2="110.92" y2= "91.57" />
    </g>
    <g>
     <line class="fil0 str3" x1="124.6" y1="109.1" x2="116.11" y2= "103.43" />
    </g>
    <g>
     <line class="fil0 str3" x1="110.39" y1="110.39" x2="88.72" y2= "88.72" />
    </g>
    <g>
     <line class="fil0 str3" x1="114.78" y1="133.09" x2="103.43" y2= "116.11" />
    </g>
    <g>
     <line class="fil0 str3" x1="90.84" y1="143.01" x2="88.85" y2= "132.99" />
    </g>
    <g>
     <line class="fil0 str3" x1="77.89" y1="134.07" x2="77.89" y2= "103.42" />
    </g>
    <g>
     <line class="fil0 str3" x1="62.94" y1="153.03" x2="68.92" y2= "122.97" />
    </g>
    <g>
     <line class="fil0 str3" x1="52.48" y1="139.23" x2="64.21" y2= "110.92" />
    </g>
    <g>
     <line class="fil0 str3" x1="38.16" y1="117.61" x2="67.05" y2= "88.72" />
    </g>
    <g>
     <line class="fil0 str3" x1="22.68" y1="114.78" x2="39.67" y2= "103.43" />
    </g>
    <g>
     <line class="fil0 str3" x1="7.11" y1="107.21" x2="16.55" y2= "103.3" />
    </g>
    <g>
     <line class="fil0 str3" x1="35.42" y1="95.48" x2="54.29" y2= "87.66" />
    </g>
    <g>
     <line class="fil0 str3" x1="22.79" y1="88.85" x2="32.8" y2= "86.86" />
    </g>
    <g>
     <line class="fil0 str3" x1="1.28" y1="77.89" x2="42.14" y2= "77.89" />
    </g>
    <g>
     <line class="fil0 str3" x1="12.77" y1="64.93" x2="22.79" y2= "66.93" />
    </g>
    <g>
     <line class="fil0 str3" x1="25.98" y1="56.39" x2="35.42" y2= "60.3" />
    </g>
    <g>
     <line class="fil0 str3" x1="44.86" y1="64.21" x2="54.29" y2= "68.12" />
    </g>
    <g>
     <line class="fil0 str3" x1="22.68" y1="41" x2="31.17" y2= "46.68" />
    </g>
    <g>
     <line class="fil0 str3" x1="23.72" y1="23.72" x2="30.94" y2= "30.94" />
    </g>
    <g>
     <line class="fil0 str3" x1="38.16" y1="38.16" x2="45.38" y2= "45.38" />
    </g>
    <g>
     <line class="fil0 str3" x1="41" y1="22.68" x2="46.68" y2= "31.17" />
    </g>
    <g>
     <line class="fil0 str3" x1="56.39" y1="25.98" x2="64.21" y2= "44.86" />
    </g>
    <g>
     <line class="fil0 str3" x1="64.93" y1="12.77" x2="66.93" y2= "22.79" />
    </g>
   </g>
  </g>
  <path class="fil0 str4" d="M85.58 1.05l-0.5 5.08c4.65,0.45 9.28,1.38 13.75,2.74l-5.93 19.55c-3.19,-0.96 -6.5,-1.63 -9.82,-1.96l1 -10.16c-1.99,-0.2 -4,-0.3 -6.01,-0.3 -2,0 -4.02,0.1 -6.01,0.29l-1 -10.16c-9.33,0.91 -18.42,3.68 -26.7,8.1l4.81 9.01c3.53,-1.89 7.27,-3.44 11.1,-4.6l5.93 19.55c3.84,-1.16 7.85,-1.76 11.86,-1.76 9.45,0 18.62,3.28 25.92,9.27l12.96 -15.79c3.1,2.54 5.95,5.4 8.5,8.5l7.89 -6.48c2.97,3.62 5.59,7.54 7.79,11.66l-18.02 9.63c3.95,7.4 6.03,15.68 6.03,24.08 0,8.4 -2.08,16.67 -6.03,24.07l-9.01 -4.81c-1.26,2.35 -2.75,4.59 -4.45,6.66l7.89 6.48c-2.12,2.58 -4.5,4.96 -7.08,7.08l-6.48 -7.9c-5.19,4.26 -11.36,7.18 -17.95,8.49l-1.99 -10.02c3.94,-0.78 7.71,-2.34 11.05,-4.57l-5.68 -8.49c-3.36,2.25 -7.31,3.44 -11.35,3.44 -2.68,0 -5.34,-0.53 -7.82,-1.56l1.96 -4.72"/>
 </g>
</svg>
