<?xml version="1.0" encoding="UTF-8"?>
<!DOCTYPE svg PUBLIC "-//W3C//DTD SVG 1.1//EN" "http://www.w3.org/Graphics/SVG/1.1/DTD/svg11.dtd">
<!-- Creator: CorelDRAW 2018 (64-Bit) -->
<svg xmlns="http://www.w3.org/2000/svg" xml:space="preserve" width="3.37499in" height="3.37499in" version="1.1" style="shape-rendering:geometricPrecision; text-rendering:geometricPrecision; image-rendering:optimizeQuality; fill-rule:evenodd; clip-rule:evenodd"
viewBox="0 0 649.29 649.29"
 xmlns:xlink="http://www.w3.org/1999/xlink">
 <defs>
  <style type="text/css">
   <![CDATA[
    .str4 {stroke:red;stroke-width:4.01;stroke-linecap:square;stroke-linejoin:round;stroke-miterlimit:2.61313}
    .str1 {stroke:#337768;stroke-width:8.02;stroke-miterlimit:2.61313}
    .str3 {stroke:#AFEEA8;stroke-width:5.34;stroke-miterlimit:2.61313}
    .str0 {stroke:#337768;stroke-width:8.02;stroke-linecap:square;stroke-miterlimit:2.61313}
    .str2 {stroke:#AFEEA8;stroke-width:5.34;stroke-linecap:square;stroke-miterlimit:2.61313}
    .fil0 {fill:none}
   ]]>
  </style>
 </defs>
 <g id="Layer_x0020_1">
  <metadata id="CorelCorpID_0Corel-Layer"/>
  <g id="_2126557984368">
   <g>
    <g>
     <path class="fil0 str0" d="M279.3 369.99c-12.02,-12.02 -18.78,-28.34 -18.78,-45.35 0,-35.41 28.72,-64.13 64.13,-64.13 35.41,0 64.13,28.72 64.13,64.13 0,35.41 -28.72,64.13 -64.13,64.13"/>
    </g>
    <g>
     <path class="fil0 str0" d="M287.83 235.78c11.66,-4.82 24.19,-7.32 36.81,-7.32"/>
    </g>
    <g>
     <path class="fil0 str0" d="M361.46 235.78c11.67,4.83 22.28,11.93 31.21,20.85"/>
    </g>
    <g>
     <path class="fil0 str0" d="M420.84 324.64c-0,25.51 -10.15,49.99 -28.17,68.02"/>
    </g>
    <g>
     <path class="fil0 str0" d="M324.64 420.84c-38.89,-0 -73.98,-23.45 -88.86,-59.38"/>
    </g>
    <g>
     <path class="fil0 str0" d="M228.45 324.64c0,-25.51 10.15,-49.99 28.17,-68.02"/>
    </g>
    <g>
     <path class="fil0 str0" d="M275.56 206.15c15.54,-6.43 32.25,-9.76 49.08,-9.76"/>
    </g>
    <g>
     <path class="fil0 str0" d="M373.73 206.15c47.9,19.85 79.17,66.63 79.17,118.49 0,16.83 -3.33,33.54 -9.77,49.09"/>
    </g>
    <g>
     <path class="fil0 str0" d="M373.73 443.14c-15.54,6.43 -32.25,9.76 -49.08,9.76 -16.83,0 -33.54,-3.33 -49.09,-9.77"/>
    </g>
    <g>
     <path class="fil0 str0" d="M233.95 415.33c-24.03,-24.04 -37.56,-56.68 -37.56,-90.69"/>
    </g>
    <g>
     <path class="fil0 str0" d="M324.64 164.33c21.04,0 41.92,4.17 61.36,12.21"/>
    </g>
    <g>
     <path class="fil0 str0" d="M438.01 211.28c7.42,7.42 14.13,15.58 19.95,24.29"/>
    </g>
    <g>
     <path class="fil0 str0" d="M481.88 293.37c2.04,10.28 3.08,20.79 3.08,31.27 0,10.49 -1.04,21 -3.07,31.28"/>
    </g>
    <g>
     <path class="fil0 str0" d="M438.01 438.01c-30.04,30.04 -70.85,46.95 -113.36,46.95 -10.49,0 -21,-1.04 -31.28,-3.07"/>
    </g>
    <g>
     <path class="fil0 str0" d="M263.29 472.76c-9.7,-4.02 -19.01,-8.99 -27.72,-14.81"/>
    </g>
    <g>
     <path class="fil0 str0" d="M167.41 355.92c-2.04,-10.28 -3.08,-20.79 -3.08,-31.28"/>
    </g>
    <g>
     <path class="fil0 str0" d="M167.41 293.37c2.03,-10.28 5.12,-20.39 9.13,-30.08"/>
    </g>
    <g>
     <path class="fil0 str0" d="M191.34 235.58c23.6,-35.35 60.33,-59.9 102.02,-68.18"/>
    </g>
    <g>
     <path class="fil0 str0" d="M287.11 135.96c12.33,-2.45 24.94,-3.7 37.53,-3.7"/>
    </g>
    <g>
     <path class="fil0 str0" d="M398.27 146.91c35.15,14.57 65.21,39.21 86.35,70.85"/>
    </g>
    <g>
     <path class="fil0 str0" d="M502.38 251.02c4.8,11.62 8.51,23.76 10.96,36.09"/>
    </g>
    <g>
     <path class="fil0 str0" d="M517.03 324.64c-0,64.24 -32.08,124.29 -85.49,159.97"/>
    </g>
    <g>
     <path class="fil0 str0" d="M398.27 502.38c-23.31,9.64 -48.37,14.64 -73.62,14.64 -25.25,0 -50.31,-5 -73.63,-14.66"/>
    </g>
    <g>
     <path class="fil0 str0" d="M217.76 484.6c-20.98,-14.01 -39.07,-32.1 -53.09,-53.07"/>
    </g>
    <g>
     <path class="fil0 str0" d="M146.91 398.27c-4.8,-11.62 -8.51,-23.76 -10.96,-36.09"/>
    </g>
    <g>
     <path class="fil0 str0" d="M132.26 324.64c0,-77.79 46.9,-147.97 118.75,-177.73"/>
    </g>
    <g>
     <path class="fil0 str0" d="M238.75 117.28c27.2,-11.25 56.44,-17.08 85.89,-17.08 14.69,0 29.4,1.45 43.79,4.3"/>
    </g>
    <g>
     <path class="fil0 str0" d="M449.34 138.03c24.48,16.35 45.58,37.45 61.94,61.92"/>
    </g>
    <g>
     <path class="fil0 str0" d="M532 238.75c11.25,27.2 17.08,56.44 17.08,85.89 0,14.69 -1.45,29.4 -4.3,43.79"/>
    </g>
    <g>
     <path class="fil0 str0" d="M483.35 483.35c-20.82,20.83 -45.59,37.38 -72.8,48.64"/>
    </g>
    <g>
     <path class="fil0 str0" d="M368.43 544.78c-14.39,2.86 -29.1,4.31 -43.79,4.31"/>
    </g>
    <g>
     <path class="fil0 str0" d="M238.75 532.01c-13.58,-5.63 -26.62,-12.59 -38.81,-20.73"/>
    </g>
    <g>
     <path class="fil0 str0" d="M165.94 483.35c-20.83,-20.82 -37.38,-45.6 -48.64,-72.8"/>
    </g>
    <g>
     <path class="fil0 str0" d="M104.51 368.43c-2.86,-14.39 -4.31,-29.1 -4.31,-43.79"/>
    </g>
    <g>
     <path class="fil0 str0" d="M165.94 165.94c10.38,-10.39 21.81,-19.79 34,-27.92"/>
    </g>
    <g>
     <path class="fil0 str0" d="M226.48 87.66c31.08,-12.86 64.5,-19.53 98.16,-19.53"/>
    </g>
    <g>
     <path class="fil0 str0" d="M422.81 87.66c15.51,6.43 30.42,14.39 44.36,23.69"/>
    </g>
    <g>
     <path class="fil0 str0" d="M537.92 182.14c28.2,42.17 43.23,91.78 43.23,142.51 0,33.66 -6.67,67.08 -19.54,98.18"/>
    </g>
    <g>
     <path class="fil0 str0" d="M537.92 467.15c-47.56,71.22 -127.63,114 -213.28,114 -16.78,0 -33.6,-1.66 -50.04,-4.92"/>
    </g>
    <g>
     <path class="fil0 str0" d="M143.26 506.02c-11.87,-11.87 -22.61,-24.93 -31.91,-38.86"/>
    </g>
    <g>
     <path class="fil0 str0" d="M87.66 422.81c-6.4,-15.49 -11.35,-31.68 -14.61,-48.12"/>
    </g>
    <g>
     <path class="fil0 str0" d="M87.66 226.48c6.44,-15.52 14.39,-30.42 23.69,-44.36"/>
    </g>
    <g>
     <path class="fil0 str0" d="M296.36 37.46c9.37,-0.93 18.84,-1.39 28.28,-1.39 47.46,0 94.21,11.73 136.02,34.07"/>
    </g>
    <g>
     <path class="fil0 str0" d="M507.71 101.57c36.66,30.08 65.38,68.8 83.52,112.62"/>
    </g>
    <g>
     <path class="fil0 str0" d="M600.79 240.88c2.7,9.01 5.06,18.24 6.89,27.47"/>
    </g>
    <g>
     <path class="fil0 str0" d="M611.83 296.36c0.93,9.37 1.39,18.84 1.39,28.28"/>
    </g>
    <g>
     <path class="fil0 str0" d="M611.83 352.93c-0.9,9.38 -2.31,18.78 -4.14,28.01"/>
    </g>
    <g>
     <path class="fil0 str0" d="M600.79 408.41c-2.72,9.03 -5.97,17.98 -9.56,26.68"/>
    </g>
    <g>
     <path class="fil0 str0" d="M579.14 460.68c-8.87,16.62 -19.44,32.44 -31.42,47.02"/>
    </g>
    <g>
     <path class="fil0 str0" d="M528.7 528.7c-13.35,13.35 -28.04,25.44 -43.72,35.9"/>
    </g>
    <g>
     <path class="fil0 str0" d="M460.68 579.14c-16.64,8.88 -34.22,16.18 -52.26,21.64"/>
    </g>
    <g>
     <path class="fil0 str0" d="M380.94 607.67c-9.23,1.84 -18.64,3.25 -28.01,4.17"/>
    </g>
    <g>
     <path class="fil0 str0" d="M240.88 600.79c-9.03,-2.72 -17.98,-5.97 -26.68,-9.56"/>
    </g>
    <g>
     <path class="fil0 str0" d="M188.61 579.14c-16.62,-8.87 -32.44,-19.44 -47.02,-31.42"/>
    </g>
    <g>
     <path class="fil0 str0" d="M120.59 528.7c-6.66,-6.66 -13.04,-13.7 -19.03,-21"/>
    </g>
    <g>
     <path class="fil0 str0" d="M84.7 484.97c-15.76,-23.56 -27.99,-49.42 -36.2,-76.55"/>
    </g>
    <g>
     <path class="fil0 str0" d="M41.62 380.94c-3.68,-18.5 -5.54,-37.42 -5.54,-56.3"/>
    </g>
    <g>
     <path class="fil0 str0" d="M37.46 296.36c1.82,-18.78 5.59,-37.45 11.05,-55.49"/>
    </g>
    <g>
     <path class="fil0 str0" d="M58.04 214.21c3.61,-8.72 7.66,-17.28 12.1,-25.59"/>
    </g>
    <g>
     <path class="fil0 str0" d="M101.57 141.58c30.08,-36.66 68.8,-65.38 112.62,-83.52"/>
    </g>
    <g>
     <path class="fil0 str0" d="M356.07 5.55c164.06,16.11 289.21,154.21 289.21,319.09 0,177.05 -143.58,320.64 -320.64,320.64 -177.05,0 -320.64,-143.58 -320.64,-320.64 0,-177.05 143.58,-320.64 320.64,-320.64"/>
    </g>
   </g>
   <g>
    <g>
     <line class="fil0 str1" x1="324.64" y1="36.07" x2="324.64" y2= "68.14" />
    </g>
    <g>
     <line class="fil0 str1" x1="324.64" y1="100.2" x2="324.64" y2= "132.26" />
    </g>
    <g>
     <line class="fil0 str1" x1="324.64" y1="164.33" x2="324.64" y2= "196.39" />
    </g>
    <g>
     <line class="fil0 str1" x1="374.69" y1="73.06" x2="368.43" y2= "104.51" />
    </g>
    <g>
     <line class="fil0 str1" x1="362.18" y1="135.96" x2="355.92" y2= "167.41" />
    </g>
    <g>
     <line class="fil0 str1" x1="435.08" y1="58.04" x2="398.27" y2= "146.91" />
    </g>
    <g>
     <line class="fil0 str1" x1="386" y1="176.53" x2="373.73" y2= "206.15" />
    </g>
    <g>
     <line class="fil0 str1" x1="484.97" y1="84.7" x2="467.15" y2= "111.37" />
    </g>
    <g>
     <line class="fil0 str1" x1="431.53" y1="164.69" x2="413.71" y2= "191.34" />
    </g>
    <g>
     <line class="fil0 str1" x1="528.7" y1="120.59" x2="483.35" y2= "165.94" />
    </g>
    <g>
     <line class="fil0 str1" x1="438.01" y1="211.28" x2="415.33" y2= "233.95" />
    </g>
    <g>
     <line class="fil0 str1" x1="392.66" y1="256.63" x2="369.99" y2= "279.3" />
    </g>
    <g>
     <line class="fil0 str1" x1="511.26" y1="199.95" x2="484.6" y2= "217.76" />
    </g>
    <g>
     <line class="fil0 str1" x1="620.87" y1="201.94" x2="591.25" y2= "214.21" />
    </g>
    <g>
     <line class="fil0 str1" x1="561.63" y1="226.48" x2="532" y2= "238.75" />
    </g>
    <g>
     <line class="fil0 str1" x1="502.38" y1="251.02" x2="413.51" y2= "287.83" />
    </g>
    <g>
     <line class="fil0 str1" x1="607.67" y1="268.35" x2="576.22" y2= "274.6" />
    </g>
    <g>
     <line class="fil0 str1" x1="643.74" y1="293.22" x2="611.83" y2= "296.36" />
    </g>
    <g>
     <line class="fil0 str1" x1="517.03" y1="324.64" x2="484.96" y2= "324.64" />
    </g>
    <g>
     <line class="fil0 str1" x1="639.12" y1="387.2" x2="607.67" y2= "380.94" />
    </g>
    <g>
     <line class="fil0 str1" x1="620.87" y1="447.35" x2="591.25" y2= "435.08" />
    </g>
    <g>
     <line class="fil0 str1" x1="561.63" y1="422.81" x2="443.14" y2= "373.73" />
    </g>
    <g>
     <line class="fil0 str1" x1="564.58" y1="484.97" x2="511.26" y2= "449.34" />
    </g>
    <g>
     <line class="fil0 str1" x1="484.6" y1="431.53" x2="457.94" y2= "413.71" />
    </g>
    <g>
     <line class="fil0 str1" x1="438.01" y1="438.01" x2="369.99" y2= "369.99" />
    </g>
    <g>
     <line class="fil0 str1" x1="484.97" y1="564.58" x2="467.15" y2= "537.92" />
    </g>
    <g>
     <line class="fil0 str1" x1="431.53" y1="484.6" x2="413.71" y2= "457.94" />
    </g>
    <g>
     <line class="fil0 str1" x1="475.79" y1="607.42" x2="460.68" y2= "579.14" />
    </g>
    <g>
     <line class="fil0 str1" x1="410.54" y1="532.01" x2="398.27" y2= "502.38" />
    </g>
    <g>
     <line class="fil0 str1" x1="373.73" y1="443.14" x2="361.46" y2= "413.51" />
    </g>
    <g>
     <line class="fil0 str1" x1="380.94" y1="607.67" x2="368.43" y2= "544.78" />
    </g>
    <g>
     <line class="fil0 str1" x1="324.64" y1="645.28" x2="324.64" y2= "613.22" />
    </g>
    <g>
     <line class="fil0 str1" x1="324.64" y1="420.84" x2="324.64" y2= "388.77" />
    </g>
    <g>
     <line class="fil0 str1" x1="293.22" y1="643.74" x2="296.36" y2= "611.83" />
    </g>
    <g>
     <line class="fil0 str1" x1="268.35" y1="607.67" x2="293.37" y2= "481.88" />
    </g>
    <g>
     <line class="fil0 str1" x1="231.57" y1="631.48" x2="240.88" y2= "600.79" />
    </g>
    <g>
     <line class="fil0 str1" x1="214.21" y1="591.25" x2="238.75" y2= "532.01" />
    </g>
    <g>
     <line class="fil0 str1" x1="263.29" y1="472.76" x2="287.83" y2= "413.51" />
    </g>
    <g>
     <line class="fil0 str1" x1="164.32" y1="564.58" x2="182.14" y2= "537.92" />
    </g>
    <g>
     <line class="fil0 str1" x1="199.95" y1="511.26" x2="217.76" y2= "484.6" />
    </g>
    <g>
     <line class="fil0 str1" x1="121.23" y1="572.5" x2="141.58" y2= "547.72" />
    </g>
    <g>
     <line class="fil0 str1" x1="120.59" y1="528.7" x2="143.26" y2= "506.02" />
    </g>
    <g>
     <line class="fil0 str1" x1="188.61" y1="460.68" x2="233.95" y2= "415.33" />
    </g>
    <g>
     <line class="fil0 str1" x1="76.79" y1="528.05" x2="101.57" y2= "507.71" />
    </g>
    <g>
     <line class="fil0 str1" x1="164.68" y1="431.53" x2="191.34" y2= "413.71" />
    </g>
    <g>
     <line class="fil0 str1" x1="58.04" y1="435.08" x2="117.28" y2= "410.54" />
    </g>
    <g>
     <line class="fil0 str1" x1="146.91" y1="398.27" x2="176.53" y2= "386" />
    </g>
    <g>
     <line class="fil0 str1" x1="10.17" y1="387.2" x2="41.62" y2= "380.94" />
    </g>
    <g>
     <line class="fil0 str1" x1="73.06" y1="374.69" x2="167.41" y2= "355.92" />
    </g>
    <g>
     <line class="fil0 str1" x1="36.07" y1="324.64" x2="68.13" y2= "324.64" />
    </g>
    <g>
     <line class="fil0 str1" x1="164.33" y1="324.64" x2="260.52" y2= "324.64" />
    </g>
    <g>
     <line class="fil0 str1" x1="5.55" y1="293.22" x2="37.46" y2= "296.36" />
    </g>
    <g>
     <line class="fil0 str1" x1="41.62" y1="268.35" x2="104.51" y2= "280.86" />
    </g>
    <g>
     <line class="fil0 str1" x1="58.04" y1="214.21" x2="87.66" y2= "226.48" />
    </g>
    <g>
     <line class="fil0 str1" x1="117.28" y1="238.75" x2="206.15" y2= "275.56" />
    </g>
    <g>
     <line class="fil0 str1" x1="58.04" y1="146.51" x2="111.36" y2= "182.14" />
    </g>
    <g>
     <line class="fil0 str1" x1="138.02" y1="199.95" x2="164.68" y2= "217.76" />
    </g>
    <g>
     <line class="fil0 str1" x1="120.59" y1="120.59" x2="165.94" y2= "165.94" />
    </g>
    <g>
     <line class="fil0 str1" x1="211.28" y1="211.28" x2="256.63" y2= "256.63" />
    </g>
    <g>
     <line class="fil0 str1" x1="182.14" y1="111.37" x2="199.95" y2= "138.03" />
    </g>
    <g>
     <line class="fil0 str1" x1="214.21" y1="58.04" x2="226.48" y2= "87.66" />
    </g>
    <g>
     <line class="fil0 str1" x1="238.75" y1="117.28" x2="251.02" y2= "146.91" />
    </g>
    <g>
     <line class="fil0 str1" x1="275.56" y1="206.15" x2="287.83" y2= "235.78" />
    </g>
    <g>
     <line class="fil0 str1" x1="231.57" y1="17.81" x2="240.88" y2= "48.5" />
    </g>
    <g>
     <line class="fil0 str1" x1="262.09" y1="10.17" x2="268.35" y2= "41.62" />
    </g>
    <g>
     <line class="fil0 str1" x1="287.11" y1="135.96" x2="293.37" y2= "167.41" />
    </g>
   </g>
  </g>
  <g>
   <g>
    <g>
     <path class="fil0 str2" d="M279.3 369.99c-12.02,-12.02 -18.78,-28.34 -18.78,-45.35 0,-35.41 28.72,-64.13 64.13,-64.13 35.41,0 64.13,28.72 64.13,64.13 0,35.41 -28.72,64.13 -64.13,64.13"/>
    </g>
    <g>
     <path class="fil0 str2" d="M287.83 235.78c11.66,-4.82 24.19,-7.32 36.81,-7.32"/>
    </g>
    <g>
     <path class="fil0 str2" d="M361.46 235.78c11.67,4.83 22.28,11.93 31.21,20.85"/>
    </g>
    <g>
     <path class="fil0 str2" d="M420.84 324.64c-0,25.51 -10.15,49.99 -28.17,68.02"/>
    </g>
    <g>
     <path class="fil0 str2" d="M324.64 420.84c-38.89,-0 -73.98,-23.45 -88.86,-59.38"/>
    </g>
    <g>
     <path class="fil0 str2" d="M228.45 324.64c0,-25.51 10.15,-49.99 28.17,-68.02"/>
    </g>
    <g>
     <path class="fil0 str2" d="M275.56 206.15c15.54,-6.43 32.25,-9.76 49.08,-9.76"/>
    </g>
    <g>
     <path class="fil0 str2" d="M373.73 206.15c47.9,19.85 79.17,66.63 79.17,118.49 0,16.83 -3.33,33.54 -9.77,49.09"/>
    </g>
    <g>
     <path class="fil0 str2" d="M373.73 443.14c-15.54,6.43 -32.25,9.76 -49.08,9.76 -16.83,0 -33.54,-3.33 -49.09,-9.77"/>
    </g>
    <g>
     <path class="fil0 str2" d="M233.95 415.33c-24.03,-24.04 -37.56,-56.68 -37.56,-90.69"/>
    </g>
    <g>
     <path class="fil0 str2" d="M324.64 164.33c21.04,0 41.92,4.17 61.36,12.21"/>
    </g>
    <g>
     <path class="fil0 str2" d="M438.01 211.28c7.42,7.42 14.13,15.58 19.95,24.29"/>
    </g>
    <g>
     <path class="fil0 str2" d="M481.88 293.37c2.04,10.28 3.08,20.79 3.08,31.27 0,10.49 -1.04,21 -3.07,31.28"/>
    </g>
    <g>
     <path class="fil0 str2" d="M438.01 438.01c-30.04,30.04 -70.85,46.95 -113.36,46.95 -10.49,0 -21,-1.04 -31.28,-3.07"/>
    </g>
    <g>
     <path class="fil0 str2" d="M263.29 472.76c-9.7,-4.02 -19.01,-8.99 -27.72,-14.81"/>
    </g>
    <g>
     <path class="fil0 str2" d="M167.41 355.92c-2.04,-10.28 -3.08,-20.79 -3.08,-31.28"/>
    </g>
    <g>
     <path class="fil0 str2" d="M167.41 293.37c2.03,-10.28 5.12,-20.39 9.13,-30.08"/>
    </g>
    <g>
     <path class="fil0 str2" d="M191.34 235.58c23.6,-35.35 60.33,-59.9 102.02,-68.18"/>
    </g>
    <g>
     <path class="fil0 str2" d="M287.11 135.96c12.33,-2.45 24.94,-3.7 37.53,-3.7"/>
    </g>
    <g>
     <path class="fil0 str2" d="M398.27 146.91c35.15,14.57 65.21,39.21 86.35,70.85"/>
    </g>
    <g>
     <path class="fil0 str2" d="M502.38 251.02c4.8,11.62 8.51,23.76 10.96,36.09"/>
    </g>
    <g>
     <path class="fil0 str2" d="M517.03 324.64c-0,64.24 -32.08,124.29 -85.49,159.97"/>
    </g>
    <g>
     <path class="fil0 str2" d="M398.27 502.38c-23.31,9.64 -48.37,14.64 -73.62,14.64 -25.25,0 -50.31,-5 -73.63,-14.66"/>
    </g>
    <g>
     <path class="fil0 str2" d="M217.76 484.6c-20.98,-14.01 -39.07,-32.1 -53.09,-53.07"/>
    </g>
    <g>
     <path class="fil0 str2" d="M146.91 398.27c-4.8,-11.62 -8.51,-23.76 -10.96,-36.09"/>
    </g>
    <g>
     <path class="fil0 str2" d="M132.26 324.64c0,-77.79 46.9,-147.97 118.75,-177.73"/>
    </g>
    <g>
     <path class="fil0 str2" d="M238.75 117.28c27.2,-11.25 56.44,-17.08 85.89,-17.08 14.69,0 29.4,1.45 43.79,4.3"/>
    </g>
    <g>
     <path class="fil0 str2" d="M449.34 138.03c24.48,16.35 45.58,37.45 61.94,61.92"/>
    </g>
    <g>
     <path class="fil0 str2" d="M532 238.75c11.25,27.2 17.08,56.44 17.08,85.89 0,14.69 -1.45,29.4 -4.3,43.79"/>
    </g>
    <g>
     <path class="fil0 str2" d="M483.35 483.35c-20.82,20.83 -45.59,37.38 -72.8,48.64"/>
    </g>
    <g>
     <path class="fil0 str2" d="M368.43 544.78c-14.39,2.86 -29.1,4.31 -43.79,4.31"/>
    </g>
    <g>
     <path class="fil0 str2" d="M238.75 532.01c-13.58,-5.63 -26.62,-12.59 -38.81,-20.73"/>
    </g>
    <g>
     <path class="fil0 str2" d="M165.94 483.35c-20.83,-20.82 -37.38,-45.6 -48.64,-72.8"/>
    </g>
    <g>
     <path class="fil0 str2" d="M104.51 368.43c-2.86,-14.39 -4.31,-29.1 -4.31,-43.79"/>
    </g>
    <g>
     <path class="fil0 str2" d="M165.94 165.94c10.38,-10.39 21.81,-19.79 34,-27.92"/>
    </g>
    <g>
     <path class="fil0 str2" d="M226.48 87.66c31.08,-12.86 64.5,-19.53 98.16,-19.53"/>
    </g>
    <g>
     <path class="fil0 str2" d="M422.81 87.66c15.51,6.43 30.42,14.39 44.36,23.69"/>
    </g>
    <g>
     <path class="fil0 str2" d="M537.92 182.14c28.2,42.17 43.23,91.78 43.23,142.51 0,33.66 -6.67,67.08 -19.54,98.18"/>
    </g>
    <g>
     <path class="fil0 str2" d="M537.92 467.15c-47.56,71.22 -127.63,114 -213.28,114 -16.78,0 -33.6,-1.66 -50.04,-4.92"/>
    </g>
    <g>
     <path class="fil0 str2" d="M143.26 506.02c-11.87,-11.87 -22.61,-24.93 -31.91,-38.86"/>
    </g>
    <g>
     <path class="fil0 str2" d="M87.66 422.81c-6.4,-15.49 -11.35,-31.68 -14.61,-48.12"/>
    </g>
    <g>
     <path class="fil0 str2" d="M87.66 226.48c6.44,-15.52 14.39,-30.42 23.69,-44.36"/>
    </g>
    <g>
     <path class="fil0 str2" d="M296.36 37.46c9.37,-0.93 18.84,-1.39 28.28,-1.39 47.46,0 94.21,11.73 136.02,34.07"/>
    </g>
    <g>
     <path class="fil0 str2" d="M507.71 101.57c36.66,30.08 65.38,68.8 83.52,112.62"/>
    </g>
    <g>
     <path class="fil0 str2" d="M600.79 240.88c2.7,9.01 5.06,18.24 6.89,27.47"/>
    </g>
    <g>
     <path class="fil0 str2" d="M611.83 296.36c0.93,9.37 1.39,18.84 1.39,28.28"/>
    </g>
    <g>
     <path class="fil0 str2" d="M611.83 352.93c-0.9,9.38 -2.31,18.78 -4.14,28.01"/>
    </g>
    <g>
     <path class="fil0 str2" d="M600.79 408.41c-2.72,9.03 -5.97,17.98 -9.56,26.68"/>
    </g>
    <g>
     <path class="fil0 str2" d="M579.14 460.68c-8.87,16.62 -19.44,32.44 -31.42,47.02"/>
    </g>
    <g>
     <path class="fil0 str2" d="M528.7 528.7c-13.35,13.35 -28.04,25.44 -43.72,35.9"/>
    </g>
    <g>
     <path class="fil0 str2" d="M460.68 579.14c-16.64,8.88 -34.22,16.18 -52.26,21.64"/>
    </g>
    <g>
     <path class="fil0 str2" d="M380.94 607.67c-9.23,1.84 -18.64,3.25 -28.01,4.17"/>
    </g>
    <g>
     <path class="fil0 str2" d="M240.88 600.79c-9.03,-2.72 -17.98,-5.97 -26.68,-9.56"/>
    </g>
    <g>
     <path class="fil0 str2" d="M188.61 579.14c-16.62,-8.87 -32.44,-19.44 -47.02,-31.42"/>
    </g>
    <g>
     <path class="fil0 str2" d="M120.59 528.7c-6.66,-6.66 -13.04,-13.7 -19.03,-21"/>
    </g>
    <g>
     <path class="fil0 str2" d="M84.7 484.97c-15.76,-23.56 -27.99,-49.42 -36.2,-76.55"/>
    </g>
    <g>
     <path class="fil0 str2" d="M41.62 380.94c-3.68,-18.5 -5.54,-37.42 -5.54,-56.3"/>
    </g>
    <g>
     <path class="fil0 str2" d="M37.46 296.36c1.82,-18.78 5.59,-37.45 11.05,-55.49"/>
    </g>
    <g>
     <path class="fil0 str2" d="M58.04 214.21c3.61,-8.72 7.66,-17.28 12.1,-25.59"/>
    </g>
    <g>
     <path class="fil0 str2" d="M101.57 141.58c30.08,-36.66 68.8,-65.38 112.62,-83.52"/>
    </g>
    <g>
     <path class="fil0 str2" d="M356.07 5.55c164.06,16.11 289.21,154.21 289.21,319.09 0,177.05 -143.58,320.64 -320.64,320.64 -177.05,0 -320.64,-143.58 -320.64,-320.64 0,-177.05 143.58,-320.64 320.64,-320.64"/>
    </g>
   </g>
   <g>
    <g>
     <line class="fil0 str3" x1="324.64" y1="36.07" x2="324.64" y2= "68.14" />
    </g>
    <g>
     <line class="fil0 str3" x1="324.64" y1="100.2" x2="324.64" y2= "132.26" />
    </g>
    <g>
     <line class="fil0 str3" x1="324.64" y1="164.33" x2="324.64" y2= "196.39" />
    </g>
    <g>
     <line class="fil0 str3" x1="374.69" y1="73.06" x2="368.43" y2= "104.51" />
    </g>
    <g>
     <line class="fil0 str3" x1="362.18" y1="135.96" x2="355.92" y2= "167.41" />
    </g>
    <g>
     <line class="fil0 str3" x1="435.08" y1="58.04" x2="398.27" y2= "146.91" />
    </g>
    <g>
     <line class="fil0 str3" x1="386" y1="176.53" x2="373.73" y2= "206.15" />
    </g>
    <g>
     <line class="fil0 str3" x1="484.97" y1="84.7" x2="467.15" y2= "111.37" />
    </g>
    <g>
     <line class="fil0 str3" x1="431.53" y1="164.69" x2="413.71" y2= "191.34" />
    </g>
    <g>
     <line class="fil0 str3" x1="528.7" y1="120.59" x2="483.35" y2= "165.94" />
    </g>
    <g>
     <line class="fil0 str3" x1="438.01" y1="211.28" x2="415.33" y2= "233.95" />
    </g>
    <g>
     <line class="fil0 str3" x1="392.66" y1="256.63" x2="369.99" y2= "279.3" />
    </g>
    <g>
     <line class="fil0 str3" x1="511.26" y1="199.95" x2="484.6" y2= "217.76" />
    </g>
    <g>
     <line class="fil0 str3" x1="620.87" y1="201.94" x2="591.25" y2= "214.21" />
    </g>
    <g>
     <line class="fil0 str3" x1="561.63" y1="226.48" x2="532" y2= "238.75" />
    </g>
    <g>
     <line class="fil0 str3" x1="502.38" y1="251.02" x2="413.51" y2= "287.83" />
    </g>
    <g>
     <line class="fil0 str3" x1="607.67" y1="268.35" x2="576.22" y2= "274.6" />
    </g>
    <g>
     <line class="fil0 str3" x1="643.74" y1="293.22" x2="611.83" y2= "296.36" />
    </g>
    <g>
     <line class="fil0 str3" x1="517.03" y1="324.64" x2="484.96" y2= "324.64" />
    </g>
    <g>
     <line class="fil0 str3" x1="639.12" y1="387.2" x2="607.67" y2= "380.94" />
    </g>
    <g>
     <line class="fil0 str3" x1="620.87" y1="447.35" x2="591.25" y2= "435.08" />
    </g>
    <g>
     <line class="fil0 str3" x1="561.63" y1="422.81" x2="443.14" y2= "373.73" />
    </g>
    <g>
     <line class="fil0 str3" x1="564.58" y1="484.97" x2="511.26" y2= "449.34" />
    </g>
    <g>
     <line class="fil0 str3" x1="484.6" y1="431.53" x2="457.94" y2= "413.71" />
    </g>
    <g>
     <line class="fil0 str3" x1="438.01" y1="438.01" x2="369.99" y2= "369.99" />
    </g>
    <g>
     <line class="fil0 str3" x1="484.97" y1="564.58" x2="467.15" y2= "537.92" />
    </g>
    <g>
     <line class="fil0 str3" x1="431.53" y1="484.6" x2="413.71" y2= "457.94" />
    </g>
    <g>
     <line class="fil0 str3" x1="475.79" y1="607.42" x2="460.68" y2= "579.14" />
    </g>
    <g>
     <line class="fil0 str3" x1="410.54" y1="532.01" x2="398.27" y2= "502.38" />
    </g>
    <g>
     <line class="fil0 str3" x1="373.73" y1="443.14" x2="361.46" y2= "413.51" />
    </g>
    <g>
     <line class="fil0 str3" x1="380.94" y1="607.67" x2="368.43" y2= "544.78" />
    </g>
    <g>
     <line class="fil0 str3" x1="324.64" y1="645.28" x2="324.64" y2= "613.22" />
    </g>
    <g>
     <line class="fil0 str3" x1="324.64" y1="420.84" x2="324.64" y2= "388.77" />
    </g>
    <g>
     <line class="fil0 str3" x1="293.22" y1="643.74" x2="296.36" y2= "611.83" />
    </g>
    <g>
     <line class="fil0 str3" x1="268.35" y1="607.67" x2="293.37" y2= "481.88" />
    </g>
    <g>
     <line class="fil0 str3" x1="231.57" y1="631.48" x2="240.88" y2= "600.79" />
    </g>
    <g>
     <line class="fil0 str3" x1="214.21" y1="591.25" x2="238.75" y2= "532.01" />
    </g>
    <g>
     <line class="fil0 str3" x1="263.29" y1="472.76" x2="287.83" y2= "413.51" />
    </g>
    <g>
     <line class="fil0 str3" x1="164.32" y1="564.58" x2="182.14" y2= "537.92" />
    </g>
    <g>
     <line class="fil0 str3" x1="199.95" y1="511.26" x2="217.76" y2= "484.6" />
    </g>
    <g>
     <line class="fil0 str3" x1="121.23" y1="572.5" x2="141.58" y2= "547.72" />
    </g>
    <g>
     <line class="fil0 str3" x1="120.59" y1="528.7" x2="143.26" y2= "506.02" />
    </g>
    <g>
     <line class="fil0 str3" x1="188.61" y1="460.68" x2="233.95" y2= "415.33" />
    </g>
    <g>
     <line class="fil0 str3" x1="76.79" y1="528.05" x2="101.57" y2= "507.71" />
    </g>
    <g>
     <line class="fil0 str3" x1="164.68" y1="431.53" x2="191.34" y2= "413.71" />
    </g>
    <g>
     <line class="fil0 str3" x1="58.04" y1="435.08" x2="117.28" y2= "410.54" />
    </g>
    <g>
     <line class="fil0 str3" x1="146.91" y1="398.27" x2="176.53" y2= "386" />
    </g>
    <g>
     <line class="fil0 str3" x1="10.17" y1="387.2" x2="41.62" y2= "380.94" />
    </g>
    <g>
     <line class="fil0 str3" x1="73.06" y1="374.69" x2="167.41" y2= "355.92" />
    </g>
    <g>
     <line class="fil0 str3" x1="36.07" y1="324.64" x2="68.13" y2= "324.64" />
    </g>
    <g>
     <line class="fil0 str3" x1="164.33" y1="324.64" x2="260.52" y2= "324.64" />
    </g>
    <g>
     <line class="fil0 str3" x1="5.55" y1="293.22" x2="37.46" y2= "296.36" />
    </g>
    <g>
     <line class="fil0 str3" x1="41.62" y1="268.35" x2="104.51" y2= "280.86" />
    </g>
    <g>
     <line class="fil0 str3" x1="58.04" y1="214.21" x2="87.66" y2= "226.48" />
    </g>
    <g>
     <line class="fil0 str3" x1="117.28" y1="238.75" x2="206.15" y2= "275.56" />
    </g>
    <g>
     <line class="fil0 str3" x1="58.04" y1="146.51" x2="111.36" y2= "182.14" />
    </g>
    <g>
     <line class="fil0 str3" x1="138.02" y1="199.95" x2="164.68" y2= "217.76" />
    </g>
    <g>
     <line class="fil0 str3" x1="120.59" y1="120.59" x2="165.94" y2= "165.94" />
    </g>
    <g>
     <line class="fil0 str3" x1="211.28" y1="211.28" x2="256.63" y2= "256.63" />
    </g>
    <g>
     <line class="fil0 str3" x1="182.14" y1="111.37" x2="199.95" y2= "138.03" />
    </g>
    <g>
     <line class="fil0 str3" x1="214.21" y1="58.04" x2="226.48" y2= "87.66" />
    </g>
    <g>
     <line class="fil0 str3" x1="238.75" y1="117.28" x2="251.02" y2= "146.91" />
    </g>
    <g>
     <line class="fil0 str3" x1="275.56" y1="206.15" x2="287.83" y2= "235.78" />
    </g>
    <g>
     <line class="fil0 str3" x1="231.57" y1="17.81" x2="240.88" y2= "48.5" />
    </g>
    <g>
     <line class="fil0 str3" x1="262.09" y1="10.17" x2="268.35" y2= "41.62" />
    </g>
    <g>
     <line class="fil0 str3" x1="287.11" y1="135.96" x2="293.37" y2= "167.41" />
    </g>
   </g>
  </g>
  <path class="fil0 str4" d="M342.82 4.01l-0.79 16.01c-4.94,-0.22 -9.96,-0.37 -14.95,-0.37 -14.95,0 -29.93,1.15 -44.7,3.31l4.71 31.7c-17.64,2.61 -35.04,7 -51.81,12.99l-10.82 -30.2c-56.69,20.27 -106.19,56.98 -142.04,105.36l25.75 19.09c2.63,-3.55 5.39,-7.11 8.22,-10.53l49.58 40.67c17.32,-21.14 38.75,-38.72 62.87,-51.59l-15.12 -28.27c34.86,-18.62 73.82,-28.4 113.36,-28.4 7.87,0 15.77,0.38 23.58,1.15l3.14 -31.9c17.74,1.72 35.37,5.28 52.41,10.43l-27.93 92.04c11.03,3.34 21.77,7.8 31.93,13.23l-15.11 28.28c8.31,4.44 16.22,9.72 23.51,15.71l20.35 -24.78c17.88,14.66 32.76,32.78 43.65,53.19l56.55 -30.23c-7.39,-13.85 -16.2,-27.03 -26.18,-39.19l24.78 -20.35c19.84,24.17 35.41,51.65 45.92,81.1l30.2 -10.82c6.69,18.76 11.6,38.21 14.5,57.92l-31.7 4.71c1.92,13.21 2.95,26.61 2.95,39.99 0,40.29 -8.95,80.12 -26.15,116.52l28.97 13.71c-25.72,54.44 -67.11,100.1 -118.76,131.04l-16.48 -27.51c-22.96,13.75 -47.95,24.13 -73.9,30.62l7.8 31.09c-19.31,4.85 -39.17,7.79 -59.06,8.76l-1.58 -32.02c-4.42,0.19 -8.91,0.33 -13.37,0.33 -13.37,0 -26.78,-1.03 -39.99,-2.96l-4.7 31.73c-9.86,-1.46 -19.68,-3.4 -29.31,-5.82l7.78 -31.12c-4.28,-1.05 -8.64,-2.31 -12.9,-3.58l18.62 -61.35c-13.03,-3.95 -25.73,-9.22 -37.74,-15.63l15.11 -28.28c-10.16,-5.42 -19.82,-11.88 -28.74,-19.2l20.33 -24.79c3.65,3 7.46,5.83 11.37,8.44l17.82 -26.67c-24.75,-16.52 -41.93,-42.23 -47.72,-71.42l31.45 -6.25c5.21,26.25 23.22,48.18 47.94,58.41l6.14 -14.81"/>
 </g>
</svg>
