<?xml version="1.0" encoding="UTF-8"?>
<!DOCTYPE svg PUBLIC "-//W3C//DTD SVG 1.1//EN" "http://www.w3.org/Graphics/SVG/1.1/DTD/svg11.dtd">
<!-- Creator: CorelDRAW 2018 (64-Bit) -->
<svg xmlns="http://www.w3.org/2000/svg" xml:space="preserve" width="2.54166in" height="2.54166in" version="1.1" style="shape-rendering:geometricPrecision; text-rendering:geometricPrecision; image-rendering:optimizeQuality; fill-rule:evenodd; clip-rule:evenodd"
viewBox="0 0 181.72 181.72"
 xmlns:xlink="http://www.w3.org/1999/xlink">
 <defs>
  <style type="text/css">
   <![CDATA[
    .str4 {stroke:red;stroke-width:1.49;stroke-linecap:square;stroke-linejoin:round;stroke-miterlimit:2.61313}
    .str1 {stroke:#337768;stroke-width:2.98;stroke-miterlimit:2.61313}
    .str3 {stroke:#AFEEA8;stroke-width:1.99;stroke-miterlimit:2.61313}
    .str0 {stroke:#337768;stroke-width:2.98;stroke-linecap:square;stroke-miterlimit:2.61313}
    .str2 {stroke:#AFEEA8;stroke-width:1.99;stroke-linecap:square;stroke-miterlimit:2.61313}
    .fil0 {fill:none}
   ]]>
  </style>
 </defs>
 <g id="Layer_x0020_1">
  <metadata id="CorelCorpID_0Corel-Layer"/>
  <g id="_2126557973520">
   <g>
    <g>
     <path class="fil0 str0" d="M78.22 103.5c-3.35,-3.35 -5.24,-7.9 -5.24,-12.64 0,-9.87 8,-17.87 17.87,-17.87 9.87,0 17.87,8 17.87,17.87 0,9.87 -8,17.87 -17.87,17.87"/>
    </g>
    <g>
     <path class="fil0 str0" d="M63.34 102.26c-1.49,-3.61 -2.27,-7.49 -2.27,-11.4 0,-16.45 13.34,-29.79 29.79,-29.79"/>
    </g>
    <g>
     <path class="fil0 str0" d="M102.26 63.34c11.13,4.61 18.39,15.48 18.39,27.52 0,3.91 -0.77,7.79 -2.27,11.4"/>
    </g>
    <g>
     <path class="fil0 str0" d="M111.93 111.93c-5.58,5.58 -13.17,8.72 -21.07,8.72"/>
    </g>
    <g>
     <path class="fil0 str0" d="M79.46 118.38c-3.61,-1.5 -6.9,-3.69 -9.66,-6.46"/>
    </g>
    <g>
     <path class="fil0 str0" d="M90.86 49.15c5.47,0 10.91,1.08 15.96,3.18"/>
    </g>
    <g>
     <path class="fil0 str0" d="M129.39 74.9c2.09,5.05 3.17,10.49 3.17,15.96"/>
    </g>
    <g>
     <path class="fil0 str0" d="M129.39 106.82c-4.23,10.22 -12.36,18.34 -22.57,22.57"/>
    </g>
    <g>
     <path class="fil0 str0" d="M90.86 132.57c-23.03,-0 -41.71,-18.68 -41.71,-41.71 0,-11.06 4.4,-21.68 12.22,-29.49"/>
    </g>
    <g>
     <path class="fil0 str0" d="M41.32 70.34c8.3,-20.03 27.86,-33.1 49.54,-33.1 3.51,0 7.02,0.35 10.46,1.03"/>
    </g>
    <g>
     <path class="fil0 str0" d="M111.38 41.32c13.13,5.44 23.58,15.89 29.02,29.02"/>
    </g>
    <g>
     <path class="fil0 str0" d="M143.45 80.4c0.68,3.44 1.03,6.95 1.03,10.46 0,10.61 -3.14,20.98 -9.03,29.79"/>
    </g>
    <g>
     <path class="fil0 str0" d="M128.78 128.78c-2.48,2.48 -5.21,4.73 -8.12,6.67"/>
    </g>
    <g>
     <path class="fil0 str0" d="M111.38 140.4c-6.5,2.69 -13.48,4.08 -20.52,4.08 -3.51,0 -7.02,-0.35 -10.46,-1.03"/>
    </g>
    <g>
     <path class="fil0 str0" d="M61.07 135.45c-14.89,-9.94 -23.83,-26.68 -23.83,-44.59"/>
    </g>
    <g>
     <path class="fil0 str0" d="M65.78 30.31c7.94,-3.28 16.48,-4.99 25.08,-4.99 8.6,0 17.14,1.7 25.08,4.99"/>
    </g>
    <g>
     <path class="fil0 str0" d="M127.27 36.37c7.15,4.77 13.31,10.93 18.09,18.08"/>
    </g>
    <g>
     <path class="fil0 str0" d="M155.14 78.07c0.83,4.2 1.26,8.5 1.26,12.79 0,4.29 -0.42,8.59 -1.26,12.79"/>
    </g>
    <g>
     <path class="fil0 str0" d="M145.35 127.27c-9.65,14.45 -24.67,24.49 -41.71,27.87"/>
    </g>
    <g>
     <path class="fil0 str0" d="M90.86 156.4c-17.38,-0 -34.06,-6.91 -46.34,-19.2"/>
    </g>
    <g>
     <path class="fil0 str0" d="M30.31 115.94c-3.28,-7.94 -4.99,-16.48 -4.99,-25.08 0,-12.96 3.84,-25.64 11.04,-36.41"/>
    </g>
    <g>
     <path class="fil0 str0" d="M36.09 36.09c14.51,-14.52 34.23,-22.69 54.77,-22.69 15.32,0 30.3,4.54 43.03,13.05"/>
    </g>
    <g>
     <path class="fil0 str0" d="M155.26 47.83c8.51,12.73 13.05,27.71 13.05,43.03 0,10.17 -2.01,20.26 -5.9,29.65"/>
    </g>
    <g>
     <path class="fil0 str0" d="M155.26 133.89c-5.64,8.45 -12.92,15.73 -21.37,21.37"/>
    </g>
    <g>
     <path class="fil0 str0" d="M105.97 166.83c-4.96,0.99 -10.04,1.49 -15.11,1.49"/>
    </g>
    <g>
     <path class="fil0 str0" d="M26.46 133.89c-2.81,-4.21 -5.21,-8.71 -7.15,-13.39"/>
    </g>
    <g>
     <path class="fil0 str0" d="M13.41 90.86c0,-10.17 2.01,-20.26 5.9,-29.65"/>
    </g>
    <g>
     <path class="fil0 str0" d="M108.3 3.21c41.81,8.31 71.94,45.03 71.94,87.65 0,49.35 -40.02,89.37 -89.37,89.37 -49.35,0 -89.37,-40.02 -89.37,-89.37 0,-49.35 40.02,-89.37 89.37,-89.37"/>
    </g>
   </g>
   <g>
    <g>
     <line class="fil0 str1" x1="115.94" y1="30.31" x2="102.26" y2= "63.34" />
    </g>
    <g>
     <line class="fil0 str1" x1="133.89" y1="26.46" x2="127.27" y2= "36.37" />
    </g>
    <g>
     <line class="fil0 str1" x1="154.06" y1="27.67" x2="145.63" y2= "36.09" />
    </g>
    <g>
     <line class="fil0 str1" x1="128.78" y1="52.94" x2="120.35" y2= "61.37" />
    </g>
    <g>
     <line class="fil0 str1" x1="111.93" y1="69.8" x2="103.5" y2= "78.22" />
    </g>
    <g>
     <line class="fil0 str1" x1="155.26" y1="47.83" x2="145.35" y2= "54.45" />
    </g>
    <g>
     <line class="fil0 str1" x1="151.41" y1="65.78" x2="140.4" y2= "70.34" />
    </g>
    <g>
     <line class="fil0 str1" x1="144.48" y1="90.86" x2="132.57" y2= "90.86" />
    </g>
    <g>
     <line class="fil0 str1" x1="155.14" y1="103.65" x2="143.45" y2= "101.32" />
    </g>
    <g>
     <line class="fil0 str1" x1="162.42" y1="120.5" x2="151.41" y2= "115.94" />
    </g>
    <g>
     <line class="fil0 str1" x1="129.39" y1="106.82" x2="118.38" y2= "102.26" />
    </g>
    <g>
     <line class="fil0 str1" x1="165.17" y1="140.51" x2="155.26" y2= "133.89" />
    </g>
    <g>
     <line class="fil0 str1" x1="145.35" y1="127.27" x2="135.45" y2= "120.65" />
    </g>
    <g>
     <line class="fil0 str1" x1="128.78" y1="128.78" x2="120.35" y2= "120.35" />
    </g>
    <g>
     <line class="fil0 str1" x1="125.06" y1="173.43" x2="120.5" y2= "162.42" />
    </g>
    <g>
     <line class="fil0 str1" x1="105.97" y1="166.83" x2="103.65" y2= "155.14" />
    </g>
    <g>
     <line class="fil0 str1" x1="90.86" y1="168.32" x2="90.86" y2= "144.48" />
    </g>
    <g>
     <line class="fil0 str1" x1="90.86" y1="132.57" x2="90.86" y2= "108.74" />
    </g>
    <g>
     <line class="fil0 str1" x1="73.43" y1="178.52" x2="75.75" y2= "166.83" />
    </g>
    <g>
     <line class="fil0 str1" x1="61.22" y1="162.42" x2="74.9" y2= "129.39" />
    </g>
    <g>
     <line class="fil0 str1" x1="41.21" y1="165.17" x2="47.83" y2= "155.26" />
    </g>
    <g>
     <line class="fil0 str1" x1="27.67" y1="154.06" x2="44.52" y2= "137.2" />
    </g>
    <g>
     <line class="fil0 str1" x1="69.8" y1="111.93" x2="78.22" y2= "103.5" />
    </g>
    <g>
     <line class="fil0 str1" x1="26.46" y1="133.89" x2="46.28" y2= "120.65" />
    </g>
    <g>
     <line class="fil0 str1" x1="19.3" y1="120.5" x2="30.31" y2= "115.94" />
    </g>
    <g>
     <line class="fil0 str1" x1="52.33" y1="106.82" x2="63.34" y2= "102.26" />
    </g>
    <g>
     <line class="fil0 str1" x1="3.21" y1="108.3" x2="14.89" y2= "105.97" />
    </g>
    <g>
     <line class="fil0 str1" x1="26.58" y1="78.07" x2="38.27" y2= "80.4" />
    </g>
    <g>
     <line class="fil0 str1" x1="19.3" y1="61.22" x2="30.31" y2= "65.78" />
    </g>
    <g>
     <line class="fil0 str1" x1="16.55" y1="41.21" x2="26.46" y2= "47.83" />
    </g>
    <g>
     <line class="fil0 str1" x1="36.37" y1="54.45" x2="46.28" y2= "61.07" />
    </g>
    <g>
     <line class="fil0 str1" x1="36.09" y1="36.09" x2="44.52" y2= "44.52" />
    </g>
    <g>
     <line class="fil0 str1" x1="54.45" y1="36.37" x2="61.07" y2= "46.28" />
    </g>
    <g>
     <line class="fil0 str1" x1="61.22" y1="19.3" x2="65.78" y2= "30.31" />
    </g>
    <g>
     <line class="fil0 str1" x1="70.34" y1="41.32" x2="79.46" y2= "63.34" />
    </g>
   </g>
  </g>
  <g>
   <g>
    <g>
     <path class="fil0 str2" d="M78.22 103.5c-3.35,-3.35 -5.24,-7.9 -5.24,-12.64 0,-9.87 8,-17.87 17.87,-17.87 9.87,0 17.87,8 17.87,17.87 0,9.87 -8,17.87 -17.87,17.87"/>
    </g>
    <g>
     <path class="fil0 str2" d="M63.34 102.26c-1.49,-3.61 -2.27,-7.49 -2.27,-11.4 0,-16.45 13.34,-29.79 29.79,-29.79"/>
    </g>
    <g>
     <path class="fil0 str2" d="M102.26 63.34c11.13,4.61 18.39,15.48 18.39,27.52 0,3.91 -0.77,7.79 -2.27,11.4"/>
    </g>
    <g>
     <path class="fil0 str2" d="M111.93 111.93c-5.58,5.58 -13.17,8.72 -21.07,8.72"/>
    </g>
    <g>
     <path class="fil0 str2" d="M79.46 118.38c-3.61,-1.5 -6.9,-3.69 -9.66,-6.46"/>
    </g>
    <g>
     <path class="fil0 str2" d="M90.86 49.15c5.47,0 10.91,1.08 15.96,3.18"/>
    </g>
    <g>
     <path class="fil0 str2" d="M129.39 74.9c2.09,5.05 3.17,10.49 3.17,15.96"/>
    </g>
    <g>
     <path class="fil0 str2" d="M129.39 106.82c-4.23,10.22 -12.36,18.34 -22.57,22.57"/>
    </g>
    <g>
     <path class="fil0 str2" d="M90.86 132.57c-23.03,-0 -41.71,-18.68 -41.71,-41.71 0,-11.06 4.4,-21.68 12.22,-29.49"/>
    </g>
    <g>
     <path class="fil0 str2" d="M41.32 70.34c8.3,-20.03 27.86,-33.1 49.54,-33.1 3.51,0 7.02,0.35 10.46,1.03"/>
    </g>
    <g>
     <path class="fil0 str2" d="M111.38 41.32c13.13,5.44 23.58,15.89 29.02,29.02"/>
    </g>
    <g>
     <path class="fil0 str2" d="M143.45 80.4c0.68,3.44 1.03,6.95 1.03,10.46 0,10.61 -3.14,20.98 -9.03,29.79"/>
    </g>
    <g>
     <path class="fil0 str2" d="M128.78 128.78c-2.48,2.48 -5.21,4.73 -8.12,6.67"/>
    </g>
    <g>
     <path class="fil0 str2" d="M111.38 140.4c-6.5,2.69 -13.48,4.08 -20.52,4.08 -3.51,0 -7.02,-0.35 -10.46,-1.03"/>
    </g>
    <g>
     <path class="fil0 str2" d="M61.07 135.45c-14.89,-9.94 -23.83,-26.68 -23.83,-44.59"/>
    </g>
    <g>
     <path class="fil0 str2" d="M65.78 30.31c7.94,-3.28 16.48,-4.99 25.08,-4.99 8.6,0 17.14,1.7 25.08,4.99"/>
    </g>
    <g>
     <path class="fil0 str2" d="M127.27 36.37c7.15,4.77 13.31,10.93 18.09,18.08"/>
    </g>
    <g>
     <path class="fil0 str2" d="M155.14 78.07c0.83,4.2 1.26,8.5 1.26,12.79 0,4.29 -0.42,8.59 -1.26,12.79"/>
    </g>
    <g>
     <path class="fil0 str2" d="M145.35 127.27c-9.65,14.45 -24.67,24.49 -41.71,27.87"/>
    </g>
    <g>
     <path class="fil0 str2" d="M90.86 156.4c-17.38,-0 -34.06,-6.91 -46.34,-19.2"/>
    </g>
    <g>
     <path class="fil0 str2" d="M30.31 115.94c-3.28,-7.94 -4.99,-16.48 -4.99,-25.08 0,-12.96 3.84,-25.64 11.04,-36.41"/>
    </g>
    <g>
     <path class="fil0 str2" d="M36.09 36.09c14.51,-14.52 34.23,-22.69 54.77,-22.69 15.32,0 30.3,4.54 43.03,13.05"/>
    </g>
    <g>
     <path class="fil0 str2" d="M155.26 47.83c8.51,12.73 13.05,27.71 13.05,43.03 0,10.17 -2.01,20.26 -5.9,29.65"/>
    </g>
    <g>
     <path class="fil0 str2" d="M155.26 133.89c-5.64,8.45 -12.92,15.73 -21.37,21.37"/>
    </g>
    <g>
     <path class="fil0 str2" d="M105.97 166.83c-4.96,0.99 -10.04,1.49 -15.11,1.49"/>
    </g>
    <g>
     <path class="fil0 str2" d="M26.46 133.89c-2.81,-4.21 -5.21,-8.71 -7.15,-13.39"/>
    </g>
    <g>
     <path class="fil0 str2" d="M13.41 90.86c0,-10.17 2.01,-20.26 5.9,-29.65"/>
    </g>
    <g>
     <path class="fil0 str2" d="M108.3 3.21c41.81,8.31 71.94,45.03 71.94,87.65 0,49.35 -40.02,89.37 -89.37,89.37 -49.35,0 -89.37,-40.02 -89.37,-89.37 0,-49.35 40.02,-89.37 89.37,-89.37"/>
    </g>
   </g>
   <g>
    <g>
     <line class="fil0 str3" x1="115.94" y1="30.31" x2="102.26" y2= "63.34" />
    </g>
    <g>
     <line class="fil0 str3" x1="133.89" y1="26.46" x2="127.27" y2= "36.37" />
    </g>
    <g>
     <line class="fil0 str3" x1="154.06" y1="27.67" x2="145.63" y2= "36.09" />
    </g>
    <g>
     <line class="fil0 str3" x1="128.78" y1="52.94" x2="120.35" y2= "61.37" />
    </g>
    <g>
     <line class="fil0 str3" x1="111.93" y1="69.8" x2="103.5" y2= "78.22" />
    </g>
    <g>
     <line class="fil0 str3" x1="155.26" y1="47.83" x2="145.35" y2= "54.45" />
    </g>
    <g>
     <line class="fil0 str3" x1="151.41" y1="65.78" x2="140.4" y2= "70.34" />
    </g>
    <g>
     <line class="fil0 str3" x1="144.48" y1="90.86" x2="132.57" y2= "90.86" />
    </g>
    <g>
     <line class="fil0 str3" x1="155.14" y1="103.65" x2="143.45" y2= "101.32" />
    </g>
    <g>
     <line class="fil0 str3" x1="162.42" y1="120.5" x2="151.41" y2= "115.94" />
    </g>
    <g>
     <line class="fil0 str3" x1="129.39" y1="106.82" x2="118.38" y2= "102.26" />
    </g>
    <g>
     <line class="fil0 str3" x1="165.17" y1="140.51" x2="155.26" y2= "133.89" />
    </g>
    <g>
     <line class="fil0 str3" x1="145.35" y1="127.27" x2="135.45" y2= "120.65" />
    </g>
    <g>
     <line class="fil0 str3" x1="128.78" y1="128.78" x2="120.35" y2= "120.35" />
    </g>
    <g>
     <line class="fil0 str3" x1="125.06" y1="173.43" x2="120.5" y2= "162.42" />
    </g>
    <g>
     <line class="fil0 str3" x1="105.97" y1="166.83" x2="103.65" y2= "155.14" />
    </g>
    <g>
     <line class="fil0 str3" x1="90.86" y1="168.32" x2="90.86" y2= "144.48" />
    </g>
    <g>
     <line class="fil0 str3" x1="90.86" y1="132.57" x2="90.86" y2= "108.74" />
    </g>
    <g>
     <line class="fil0 str3" x1="73.43" y1="178.52" x2="75.75" y2= "166.83" />
    </g>
    <g>
     <line class="fil0 str3" x1="61.22" y1="162.42" x2="74.9" y2= "129.39" />
    </g>
    <g>
     <line class="fil0 str3" x1="41.21" y1="165.17" x2="47.83" y2= "155.26" />
    </g>
    <g>
     <line class="fil0 str3" x1="27.67" y1="154.06" x2="44.52" y2= "137.2" />
    </g>
    <g>
     <line class="fil0 str3" x1="69.8" y1="111.93" x2="78.22" y2= "103.5" />
    </g>
    <g>
     <line class="fil0 str3" x1="26.46" y1="133.89" x2="46.28" y2= "120.65" />
    </g>
    <g>
     <line class="fil0 str3" x1="19.3" y1="120.5" x2="30.31" y2= "115.94" />
    </g>
    <g>
     <line class="fil0 str3" x1="52.33" y1="106.82" x2="63.34" y2= "102.26" />
    </g>
    <g>
     <line class="fil0 str3" x1="3.21" y1="108.3" x2="14.89" y2= "105.97" />
    </g>
    <g>
     <line class="fil0 str3" x1="26.58" y1="78.07" x2="38.27" y2= "80.4" />
    </g>
    <g>
     <line class="fil0 str3" x1="19.3" y1="61.22" x2="30.31" y2= "65.78" />
    </g>
    <g>
     <line class="fil0 str3" x1="16.55" y1="41.21" x2="26.46" y2= "47.83" />
    </g>
    <g>
     <line class="fil0 str3" x1="36.37" y1="54.45" x2="46.28" y2= "61.07" />
    </g>
    <g>
     <line class="fil0 str3" x1="36.09" y1="36.09" x2="44.52" y2= "44.52" />
    </g>
    <g>
     <line class="fil0 str3" x1="54.45" y1="36.37" x2="61.07" y2= "46.28" />
    </g>
    <g>
     <line class="fil0 str3" x1="61.22" y1="19.3" x2="65.78" y2= "30.31" />
    </g>
    <g>
     <line class="fil0 str3" x1="70.34" y1="41.32" x2="79.46" y2= "63.34" />
    </g>
   </g>
  </g>
  <path class="fil0 str4" d="M100.12 2.66l-0.58 5.93c-2.71,-0.27 -5.45,-0.4 -8.18,-0.4 -24.97,0 -48.65,11.2 -64.48,30.5l18.42 15.12c2.47,-3.01 5.25,-5.79 8.26,-8.26l-7.56 -9.21c3.62,-2.97 7.54,-5.59 11.66,-7.79l5.62 10.51c8.64,-4.61 18.29,-7.04 28.09,-7.04 5.86,0 11.7,0.87 17.3,2.57l-3.46 11.4c-4.48,-1.35 -9.15,-2.05 -13.84,-2.05 -3.12,0 -6.24,0.31 -9.3,0.91l2.32 11.69c2.29,-0.46 4.64,-0.69 6.97,-0.69 2.34,0 4.68,0.23 6.97,0.69l-2.32 11.69c-1.53,-0.3 -3.09,-0.46 -4.65,-0.46 -13.16,0 -23.83,10.67 -23.83,23.83 0,4.71 1.4,9.32 4.02,13.24l-9.91 6.62c5.26,7.88 13.45,13.36 22.75,15.2l2.32 -11.69c-1.53,-0.3 -3.03,-0.76 -4.47,-1.36l2.28 -5.5"/>
 </g>
</svg>
