<?xml version="1.0" encoding="UTF-8"?>
<svg xmlns="http://www.w3.org/2000/svg" xmlns:xlink="http://www.w3.org/1999/xlink" viewBox="0 0 48 48" version="1.1" width="480px" height="480px">
<g id="surface1">
<path style=" fill:#FFC107;" d="M 36 36 L 12 36 L 7 16 L 17 24 L 24 11 L 31 24 L 41 16 Z "/>
<path style=" fill:#FF9800;" d="M 12 36 L 36 36 L 36 41 L 12 41 Z "/>
<path style=" fill:#FF9800;" d="M 26 9 C 26 10.105469 25.105469 11 24 11 C 22.894531 11 22 10.105469 22 9 C 22 7.894531 22.894531 7 24 7 C 25.105469 7 26 7.894531 26 9 Z "/>
<path style=" fill:#FF9800;" d="M 44 14 C 44 15.105469 43.105469 16 42 16 C 40.894531 16 40 15.105469 40 14 C 40 12.894531 40.894531 12 42 12 C 43.105469 12 44 12.894531 44 14 Z "/>
<path style=" fill:#FF9800;" d="M 8 14 C 8 15.105469 7.105469 16 6 16 C 4.894531 16 4 15.105469 4 14 C 4 12.894531 4.894531 12 6 12 C 7.105469 12 8 12.894531 8 14 Z "/>
</g>
</svg>
