<?xml version="1.0" encoding="UTF-8"?>
<!DOCTYPE svg PUBLIC "-//W3C//DTD SVG 1.1//EN" "http://www.w3.org/Graphics/SVG/1.1/DTD/svg11.dtd">
<!-- Creator: CorelDRAW 2018 (64-Bit) -->
<svg xmlns="http://www.w3.org/2000/svg" xml:space="preserve" width="3.37499in" height="3.37499in" version="1.1" style="shape-rendering:geometricPrecision; text-rendering:geometricPrecision; image-rendering:optimizeQuality; fill-rule:evenodd; clip-rule:evenodd"
viewBox="0 0 1088.37 1088.37"
 xmlns:xlink="http://www.w3.org/1999/xlink">
 <defs>
  <style type="text/css">
   <![CDATA[
    .str1 {stroke:#337768;stroke-width:13.44;stroke-miterlimit:2.61313}
    .str3 {stroke:#AFEEA8;stroke-width:8.96;stroke-miterlimit:2.61313}
    .str0 {stroke:#337768;stroke-width:13.44;stroke-linecap:square;stroke-miterlimit:2.61313}
    .str2 {stroke:#AFEEA8;stroke-width:8.96;stroke-linecap:square;stroke-miterlimit:2.61313}
    .fil0 {fill:none}
   ]]>
  </style>
 </defs>
 <g id="Layer_x0020_1">
  <metadata id="CorelCorpID_0Corel-Layer"/>
  <g id="_2422254150736">
   <g>
    <g>
     <path class="fil0 str0" d="M468.17 620.19c-20.14,-20.14 -31.48,-47.51 -31.48,-76.01 0,-59.35 48.14,-107.49 107.49,-107.49 59.36,0 107.49,48.14 107.49,107.49 0,59.36 -48.14,107.49 -107.49,107.49"/>
    </g>
    <g>
     <path class="fil0 str0" d="M395.22 605.89c-8.08,-19.54 -12.27,-40.54 -12.27,-61.71 0,-89.03 72.2,-161.24 161.24,-161.24 21.16,0 42.16,4.19 61.71,12.28"/>
    </g>
    <g>
     <path class="fil0 str0" d="M658.2 430.17c14.96,14.96 26.85,32.75 34.94,52.3"/>
    </g>
    <g>
     <path class="fil0 str0" d="M705.42 544.18c-0,89.03 -72.21,161.24 -161.24,161.24 -42.75,0 -83.8,-17.01 -114.01,-47.22"/>
    </g>
    <g>
     <path class="fil0 str0" d="M345.56 626.46c-10.77,-26.05 -16.36,-54.06 -16.36,-82.27 0,-118.71 96.27,-214.98 214.98,-214.98 118.71,0 214.99,96.27 214.99,214.98"/>
    </g>
    <g>
     <path class="fil0 str0" d="M742.8 626.46c-10.8,26.07 -26.65,49.8 -46.6,69.75"/>
    </g>
    <g>
     <path class="fil0 str0" d="M626.45 742.8c-26.05,10.77 -54.06,16.36 -82.27,16.36"/>
    </g>
    <g>
     <path class="fil0 str0" d="M544.18 275.45c148.39,0 268.73,120.34 268.73,268.73 0,35.27 -6.99,70.28 -20.47,102.85"/>
    </g>
    <g>
     <path class="fil0 str0" d="M734.21 734.21c-37.56,37.57 -85.5,63.19 -137.6,73.56"/>
    </g>
    <g>
     <path class="fil0 str0" d="M544.18 812.92c-71.26,-0 -139.66,-28.35 -190.02,-78.71"/>
    </g>
    <g>
     <path class="fil0 str0" d="M320.74 693.48c-9.76,-14.59 -18.09,-30.21 -24.82,-46.45"/>
    </g>
    <g>
     <path class="fil0 str0" d="M280.61 596.61c-3.42,-17.23 -5.16,-34.84 -5.16,-52.43 0,-71.26 28.35,-139.66 78.71,-190.02"/>
    </g>
    <g>
     <path class="fil0 str0" d="M394.88 320.74c29.29,-19.6 62.29,-33.28 96.87,-40.14"/>
    </g>
    <g>
     <path class="fil0 str0" d="M420.77 246.25c39.08,-16.16 81.09,-24.55 123.41,-24.55"/>
    </g>
    <g>
     <path class="fil0 str0" d="M723.34 276.05c35.17,23.49 65.48,53.8 88.99,88.96"/>
    </g>
    <g>
     <path class="fil0 str0" d="M866.66 544.18c-0,21.1 -2.09,42.24 -6.18,62.91"/>
    </g>
    <g>
     <path class="fil0 str0" d="M812.31 723.34c-35.42,53.04 -85.81,94.34 -144.71,118.75"/>
    </g>
    <g>
     <path class="fil0 str0" d="M607.1 860.47c-20.67,4.11 -41.81,6.19 -62.91,6.19 -63.78,0 -126.14,-18.9 -179.17,-54.33"/>
    </g>
    <g>
     <path class="fil0 str0" d="M316.16 772.21c-29.92,-29.92 -53.7,-65.51 -69.88,-104.61"/>
    </g>
    <g>
     <path class="fil0 str0" d="M221.7 544.18c0,-63.78 18.9,-126.14 54.33,-179.17"/>
    </g>
    <g>
     <path class="fil0 str0" d="M316.16 316.16c14.92,-14.93 31.34,-28.43 48.86,-40.12"/>
    </g>
    <g>
     <path class="fil0 str0" d="M688.16 196.6c22.76,9.44 44.62,21.11 65.06,34.75"/>
    </g>
    <g>
     <path class="fil0 str0" d="M810.21 278.15c52.59,52.59 88.47,119.69 102.98,192.63"/>
    </g>
    <g>
     <path class="fil0 str0" d="M913.18 617.58c-4.76,24.11 -12.02,47.86 -21.43,70.6"/>
    </g>
    <g>
     <path class="fil0 str0" d="M753.2 857c-41,27.44 -87.21,46.59 -135.62,56.19"/>
    </g>
    <g>
     <path class="fil0 str0" d="M196.6 688.16c-18.85,-45.59 -28.64,-94.6 -28.64,-143.98 0,-49.37 9.78,-98.38 28.66,-143.99"/>
    </g>
    <g>
     <path class="fil0 str0" d="M231.36 335.16c13.62,-20.45 29.38,-39.61 46.79,-57.02"/>
    </g>
    <g>
     <path class="fil0 str0" d="M335.16 231.36c20.43,-13.66 42.29,-25.33 65.03,-34.74"/>
    </g>
    <g>
     <path class="fil0 str0" d="M305.3 186.68c70.69,-47.27 153.84,-72.46 238.88,-72.46"/>
    </g>
    <g>
     <path class="fil0 str0" d="M628.07 122.47c55.33,10.95 108.14,32.84 155.01,64.18"/>
    </g>
    <g>
     <path class="fil0 str0" d="M901.69 305.3c15.61,23.34 28.95,48.33 39.71,74.31"/>
    </g>
    <g>
     <path class="fil0 str0" d="M965.89 460.3c5.48,27.56 8.26,55.75 8.26,83.88 0,85.04 -25.2,168.19 -72.44,238.9"/>
    </g>
    <g>
     <path class="fil0 str0" d="M848.22 848.22c-60.1,60.11 -136.79,101.1 -220.15,117.69"/>
    </g>
    <g>
     <path class="fil0 str0" d="M544.18 974.16c-28.14,-0 -56.32,-2.78 -83.88,-8.24"/>
    </g>
    <g>
     <path class="fil0 str0" d="M379.64 941.43c-26.01,-10.79 -50.99,-24.12 -74.35,-39.71"/>
    </g>
    <g>
     <path class="fil0 str0" d="M240.15 848.22c-19.9,-19.89 -37.9,-41.78 -53.49,-65.14"/>
    </g>
    <g>
     <path class="fil0 str0" d="M122.47 628.07c-5.48,-27.56 -8.26,-55.75 -8.26,-83.89"/>
    </g>
    <g>
     <path class="fil0 str0" d="M122.47 460.3c5.44,-27.56 13.73,-54.7 24.49,-80.68"/>
    </g>
    <g>
     <path class="fil0 str0" d="M403.77 81.29c45.46,-13.74 92.88,-20.83 140.42,-20.83 31.65,0 63.37,3.13 94.37,9.27"/>
    </g>
    <g>
     <path class="fil0 str0" d="M729.29 97.29c43.9,18.22 85.01,42.84 121.74,72.96"/>
    </g>
    <g>
     <path class="fil0 str0" d="M886.22 202.14c33.61,33.6 62.19,72.16 84.57,114.03"/>
    </g>
    <g>
     <path class="fil0 str0" d="M991.08 359.07c12.08,29.21 21.41,59.74 27.55,90.74"/>
    </g>
    <g>
     <path class="fil0 str0" d="M1025.57 496.77c1.56,15.7 2.33,31.59 2.33,47.41"/>
    </g>
    <g>
     <path class="fil0 str0" d="M1025.57 591.6c-1.51,15.72 -3.87,31.48 -6.94,46.96"/>
    </g>
    <g>
     <path class="fil0 str0" d="M991.08 729.3c-18.22,43.9 -42.85,85 -72.96,121.74"/>
    </g>
    <g>
     <path class="fil0 str0" d="M886.22 886.23c-22.38,22.38 -47,42.64 -73.28,60.18"/>
    </g>
    <g>
     <path class="fil0 str0" d="M772.21 970.79c-13.95,7.45 -28.3,14.24 -42.89,20.26"/>
    </g>
    <g>
     <path class="fil0 str0" d="M638.55 1018.61c-31,6.16 -62.72,9.29 -94.37,9.29 -63.48,0 -126.49,-12.58 -185.13,-36.85"/>
    </g>
    <g>
     <path class="fil0 str0" d="M316.16 970.79c-41.86,-22.37 -80.42,-50.96 -114.02,-84.56"/>
    </g>
    <g>
     <path class="fil0 str0" d="M97.28 729.3c-5.99,-14.56 -11.43,-29.56 -15.97,-44.68"/>
    </g>
    <g>
     <path class="fil0 str0" d="M69.76 638.55c-3.09,-15.47 -5.46,-31.24 -6.99,-46.95"/>
    </g>
    <g>
     <path class="fil0 str0" d="M60.46 544.18c0,-47.54 7.09,-94.96 20.85,-140.43"/>
    </g>
    <g>
     <path class="fil0 str0" d="M97.28 359.07c42.85,-103.37 120.21,-188.76 218.89,-241.5"/>
    </g>
    <g>
     <path class="fil0 str0" d="M596.86 9.31c275.01,27.01 484.78,258.5 484.78,534.88 0,296.78 -240.68,537.47 -537.47,537.47 -296.78,0 -537.46,-240.68 -537.46,-537.47 0,-296.78 240.68,-537.46 537.46,-537.46"/>
    </g>
   </g>
   <g>
    <g>
     <line class="fil0 str1" x1="544.18" y1="114.21" x2="544.18" y2= "167.96" />
    </g>
    <g>
     <line class="fil0 str1" x1="544.18" y1="221.7" x2="544.18" y2= "275.45" />
    </g>
    <g>
     <line class="fil0 str1" x1="638.55" y1="69.76" x2="607.1" y2= "227.9" />
    </g>
    <g>
     <line class="fil0 str1" x1="700.2" y1="29.86" x2="684.6" y2= "81.29" />
    </g>
    <g>
     <line class="fil0 str1" x1="667.59" y1="246.25" x2="647.02" y2= "295.91" />
    </g>
    <g>
     <line class="fil0 str1" x1="812.92" y1="141.99" x2="783.06" y2= "186.68" />
    </g>
    <g>
     <line class="fil0 str1" x1="753.2" y1="231.36" x2="723.34" y2= "276.05" />
    </g>
    <g>
     <line class="fil0 str1" x1="885.15" y1="128.72" x2="851.05" y2= "170.26" />
    </g>
    <g>
     <line class="fil0 str1" x1="886.22" y1="202.14" x2="810.21" y2= "278.15" />
    </g>
    <g>
     <line class="fil0 str1" x1="658.2" y1="430.17" x2="620.19" y2= "468.17" />
    </g>
    <g>
     <line class="fil0 str1" x1="946.38" y1="275.44" x2="901.69" y2= "305.3" />
    </g>
    <g>
     <line class="fil0 str1" x1="857" y1="335.16" x2="812.31" y2= "365.02" />
    </g>
    <g>
     <line class="fil0 str1" x1="842.11" y1="420.78" x2="792.46" y2= "441.34" />
    </g>
    <g>
     <line class="fil0 str1" x1="742.8" y1="461.91" x2="693.15" y2= "482.48" />
    </g>
    <g>
     <line class="fil0 str1" x1="1071.32" y1="439.33" x2="1018.61" y2= "449.81" />
    </g>
    <g>
     <line class="fil0 str1" x1="913.18" y1="470.79" x2="807.75" y2= "491.76" />
    </g>
    <g>
     <line class="fil0 str1" x1="1027.9" y1="544.18" x2="920.41" y2= "544.18" />
    </g>
    <g>
     <line class="fil0 str1" x1="1018.61" y1="638.55" x2="965.89" y2= "628.07" />
    </g>
    <g>
     <line class="fil0 str1" x1="913.18" y1="617.58" x2="860.47" y2= "607.1" />
    </g>
    <g>
     <line class="fil0 str1" x1="1058.51" y1="700.2" x2="1007.07" y2= "684.6" />
    </g>
    <g>
     <line class="fil0 str1" x1="991.08" y1="729.3" x2="941.43" y2= "708.73" />
    </g>
    <g>
     <line class="fil0 str1" x1="891.77" y1="688.16" x2="693.15" y2= "605.89" />
    </g>
    <g>
     <line class="fil0 str1" x1="901.69" y1="783.06" x2="767.63" y2= "693.48" />
    </g>
    <g>
     <line class="fil0 str1" x1="924.23" y1="924.23" x2="886.22" y2= "886.22" />
    </g>
    <g>
     <line class="fil0 str1" x1="848.22" y1="848.22" x2="810.21" y2= "810.22" />
    </g>
    <g>
     <line class="fil0 str1" x1="729.29" y1="991.08" x2="708.73" y2= "941.43" />
    </g>
    <g>
     <line class="fil0 str1" x1="667.59" y1="842.12" x2="605.89" y2= "693.15" />
    </g>
    <g>
     <line class="fil0 str1" x1="700.2" y1="1058.51" x2="684.6" y2= "1007.07" />
    </g>
    <g>
     <line class="fil0 str1" x1="638.55" y1="1018.61" x2="607.1" y2= "860.47" />
    </g>
    <g>
     <line class="fil0 str1" x1="544.18" y1="920.41" x2="544.18" y2= "866.66" />
    </g>
    <g>
     <line class="fil0 str1" x1="449.81" y1="1018.61" x2="470.78" y2= "913.18" />
    </g>
    <g>
     <line class="fil0 str1" x1="400.21" y1="891.77" x2="420.77" y2= "842.12" />
    </g>
    <g>
     <line class="fil0 str1" x1="461.91" y1="742.8" x2="482.48" y2= "693.15" />
    </g>
    <g>
     <line class="fil0 str1" x1="275.44" y1="946.38" x2="365.02" y2= "812.32" />
    </g>
    <g>
     <line class="fil0 str1" x1="202.14" y1="886.22" x2="278.15" y2= "810.22" />
    </g>
    <g>
     <line class="fil0 str1" x1="316.16" y1="772.21" x2="392.16" y2= "696.2" />
    </g>
    <g>
     <line class="fil0 str1" x1="430.17" y1="658.2" x2="468.17" y2= "620.19" />
    </g>
    <g>
     <line class="fil0 str1" x1="128.72" y1="885.15" x2="170.26" y2= "851.05" />
    </g>
    <g>
     <line class="fil0 str1" x1="141.98" y1="812.92" x2="276.05" y2= "723.34" />
    </g>
    <g>
     <line class="fil0 str1" x1="70.18" y1="797.54" x2="117.58" y2= "772.21" />
    </g>
    <g>
     <line class="fil0 str1" x1="97.28" y1="729.3" x2="146.94" y2= "708.73" />
    </g>
    <g>
     <line class="fil0 str1" x1="246.25" y1="667.59" x2="395.22" y2= "605.89" />
    </g>
    <g>
     <line class="fil0 str1" x1="29.86" y1="700.2" x2="81.29" y2= "684.6" />
    </g>
    <g>
     <line class="fil0 str1" x1="69.76" y1="638.55" x2="227.9" y2= "607.1" />
    </g>
    <g>
     <line class="fil0 str1" x1="69.76" y1="449.81" x2="122.47" y2= "460.3" />
    </g>
    <g>
     <line class="fil0 str1" x1="29.86" y1="388.17" x2="81.29" y2= "403.77" />
    </g>
    <g>
     <line class="fil0 str1" x1="146.94" y1="379.64" x2="196.6" y2= "400.21" />
    </g>
    <g>
     <line class="fil0 str1" x1="141.98" y1="275.44" x2="186.67" y2= "305.3" />
    </g>
    <g>
     <line class="fil0 str1" x1="231.36" y1="335.16" x2="320.74" y2= "394.88" />
    </g>
    <g>
     <line class="fil0 str1" x1="202.14" y1="202.14" x2="316.16" y2= "316.16" />
    </g>
    <g>
     <line class="fil0 str1" x1="305.3" y1="186.68" x2="335.16" y2= "231.36" />
    </g>
    <g>
     <line class="fil0 str1" x1="365.02" y1="276.05" x2="394.88" y2= "320.74" />
    </g>
    <g>
     <line class="fil0 str1" x1="338.5" y1="47.63" x2="379.64" y2= "146.94" />
    </g>
    <g>
     <line class="fil0 str1" x1="400.21" y1="196.6" x2="420.77" y2= "246.25" />
    </g>
    <g>
     <line class="fil0 str1" x1="441.34" y1="295.91" x2="461.91" y2= "345.56" />
    </g>
    <g>
     <line class="fil0 str1" x1="470.78" y1="175.19" x2="481.27" y2= "227.9" />
    </g>
   </g>
  </g>
  <g>
   <g>
    <g>
     <path class="fil0 str2" d="M468.17 620.19c-20.14,-20.14 -31.48,-47.51 -31.48,-76.01 0,-59.35 48.14,-107.49 107.49,-107.49 59.36,0 107.49,48.14 107.49,107.49 0,59.36 -48.14,107.49 -107.49,107.49"/>
    </g>
    <g>
     <path class="fil0 str2" d="M395.22 605.89c-8.08,-19.54 -12.27,-40.54 -12.27,-61.71 0,-89.03 72.2,-161.24 161.24,-161.24 21.16,0 42.16,4.19 61.71,12.28"/>
    </g>
    <g>
     <path class="fil0 str2" d="M658.2 430.17c14.96,14.96 26.85,32.75 34.94,52.3"/>
    </g>
    <g>
     <path class="fil0 str2" d="M705.42 544.18c-0,89.03 -72.21,161.24 -161.24,161.24 -42.75,0 -83.8,-17.01 -114.01,-47.22"/>
    </g>
    <g>
     <path class="fil0 str2" d="M345.56 626.46c-10.77,-26.05 -16.36,-54.06 -16.36,-82.27 0,-118.71 96.27,-214.98 214.98,-214.98 118.71,0 214.99,96.27 214.99,214.98"/>
    </g>
    <g>
     <path class="fil0 str2" d="M742.8 626.46c-10.8,26.07 -26.65,49.8 -46.6,69.75"/>
    </g>
    <g>
     <path class="fil0 str2" d="M626.45 742.8c-26.05,10.77 -54.06,16.36 -82.27,16.36"/>
    </g>
    <g>
     <path class="fil0 str2" d="M544.18 275.45c148.39,0 268.73,120.34 268.73,268.73 0,35.27 -6.99,70.28 -20.47,102.85"/>
    </g>
    <g>
     <path class="fil0 str2" d="M734.21 734.21c-37.56,37.57 -85.5,63.19 -137.6,73.56"/>
    </g>
    <g>
     <path class="fil0 str2" d="M544.18 812.92c-71.26,-0 -139.66,-28.35 -190.02,-78.71"/>
    </g>
    <g>
     <path class="fil0 str2" d="M320.74 693.48c-9.76,-14.59 -18.09,-30.21 -24.82,-46.45"/>
    </g>
    <g>
     <path class="fil0 str2" d="M280.61 596.61c-3.42,-17.23 -5.16,-34.84 -5.16,-52.43 0,-71.26 28.35,-139.66 78.71,-190.02"/>
    </g>
    <g>
     <path class="fil0 str2" d="M394.88 320.74c29.29,-19.6 62.29,-33.28 96.87,-40.14"/>
    </g>
    <g>
     <path class="fil0 str2" d="M420.77 246.25c39.08,-16.16 81.09,-24.55 123.41,-24.55"/>
    </g>
    <g>
     <path class="fil0 str2" d="M723.34 276.05c35.17,23.49 65.48,53.8 88.99,88.96"/>
    </g>
    <g>
     <path class="fil0 str2" d="M866.66 544.18c-0,21.1 -2.09,42.24 -6.18,62.91"/>
    </g>
    <g>
     <path class="fil0 str2" d="M812.31 723.34c-35.42,53.04 -85.81,94.34 -144.71,118.75"/>
    </g>
    <g>
     <path class="fil0 str2" d="M607.1 860.47c-20.67,4.11 -41.81,6.19 -62.91,6.19 -63.78,0 -126.14,-18.9 -179.17,-54.33"/>
    </g>
    <g>
     <path class="fil0 str2" d="M316.16 772.21c-29.92,-29.92 -53.7,-65.51 -69.88,-104.61"/>
    </g>
    <g>
     <path class="fil0 str2" d="M221.7 544.18c0,-63.78 18.9,-126.14 54.33,-179.17"/>
    </g>
    <g>
     <path class="fil0 str2" d="M316.16 316.16c14.92,-14.93 31.34,-28.43 48.86,-40.12"/>
    </g>
    <g>
     <path class="fil0 str2" d="M688.16 196.6c22.76,9.44 44.62,21.11 65.06,34.75"/>
    </g>
    <g>
     <path class="fil0 str2" d="M810.21 278.15c52.59,52.59 88.47,119.69 102.98,192.63"/>
    </g>
    <g>
     <path class="fil0 str2" d="M913.18 617.58c-4.76,24.11 -12.02,47.86 -21.43,70.6"/>
    </g>
    <g>
     <path class="fil0 str2" d="M753.2 857c-41,27.44 -87.21,46.59 -135.62,56.19"/>
    </g>
    <g>
     <path class="fil0 str2" d="M196.6 688.16c-18.85,-45.59 -28.64,-94.6 -28.64,-143.98 0,-49.37 9.78,-98.38 28.66,-143.99"/>
    </g>
    <g>
     <path class="fil0 str2" d="M231.36 335.16c13.62,-20.45 29.38,-39.61 46.79,-57.02"/>
    </g>
    <g>
     <path class="fil0 str2" d="M335.16 231.36c20.43,-13.66 42.29,-25.33 65.03,-34.74"/>
    </g>
    <g>
     <path class="fil0 str2" d="M305.3 186.68c70.69,-47.27 153.84,-72.46 238.88,-72.46"/>
    </g>
    <g>
     <path class="fil0 str2" d="M628.07 122.47c55.33,10.95 108.14,32.84 155.01,64.18"/>
    </g>
    <g>
     <path class="fil0 str2" d="M901.69 305.3c15.61,23.34 28.95,48.33 39.71,74.31"/>
    </g>
    <g>
     <path class="fil0 str2" d="M965.89 460.3c5.48,27.56 8.26,55.75 8.26,83.88 0,85.04 -25.2,168.19 -72.44,238.9"/>
    </g>
    <g>
     <path class="fil0 str2" d="M848.22 848.22c-60.1,60.11 -136.79,101.1 -220.15,117.69"/>
    </g>
    <g>
     <path class="fil0 str2" d="M544.18 974.16c-28.14,-0 -56.32,-2.78 -83.88,-8.24"/>
    </g>
    <g>
     <path class="fil0 str2" d="M379.64 941.43c-26.01,-10.79 -50.99,-24.12 -74.35,-39.71"/>
    </g>
    <g>
     <path class="fil0 str2" d="M240.15 848.22c-19.9,-19.89 -37.9,-41.78 -53.49,-65.14"/>
    </g>
    <g>
     <path class="fil0 str2" d="M122.47 628.07c-5.48,-27.56 -8.26,-55.75 -8.26,-83.89"/>
    </g>
    <g>
     <path class="fil0 str2" d="M122.47 460.3c5.44,-27.56 13.73,-54.7 24.49,-80.68"/>
    </g>
    <g>
     <path class="fil0 str2" d="M403.77 81.29c45.46,-13.74 92.88,-20.83 140.42,-20.83 31.65,0 63.37,3.13 94.37,9.27"/>
    </g>
    <g>
     <path class="fil0 str2" d="M729.29 97.29c43.9,18.22 85.01,42.84 121.74,72.96"/>
    </g>
    <g>
     <path class="fil0 str2" d="M886.22 202.14c33.61,33.6 62.19,72.16 84.57,114.03"/>
    </g>
    <g>
     <path class="fil0 str2" d="M991.08 359.07c12.08,29.21 21.41,59.74 27.55,90.74"/>
    </g>
    <g>
     <path class="fil0 str2" d="M1025.57 496.77c1.56,15.7 2.33,31.59 2.33,47.41"/>
    </g>
    <g>
     <path class="fil0 str2" d="M1025.57 591.6c-1.51,15.72 -3.87,31.48 -6.94,46.96"/>
    </g>
    <g>
     <path class="fil0 str2" d="M991.08 729.3c-18.22,43.9 -42.85,85 -72.96,121.74"/>
    </g>
    <g>
     <path class="fil0 str2" d="M886.22 886.23c-22.38,22.38 -47,42.64 -73.28,60.18"/>
    </g>
    <g>
     <path class="fil0 str2" d="M772.21 970.79c-13.95,7.45 -28.3,14.24 -42.89,20.26"/>
    </g>
    <g>
     <path class="fil0 str2" d="M638.55 1018.61c-31,6.16 -62.72,9.29 -94.37,9.29 -63.48,0 -126.49,-12.58 -185.13,-36.85"/>
    </g>
    <g>
     <path class="fil0 str2" d="M316.16 970.79c-41.86,-22.37 -80.42,-50.96 -114.02,-84.56"/>
    </g>
    <g>
     <path class="fil0 str2" d="M97.28 729.3c-5.99,-14.56 -11.43,-29.56 -15.97,-44.68"/>
    </g>
    <g>
     <path class="fil0 str2" d="M69.76 638.55c-3.09,-15.47 -5.46,-31.24 -6.99,-46.95"/>
    </g>
    <g>
     <path class="fil0 str2" d="M60.46 544.18c0,-47.54 7.09,-94.96 20.85,-140.43"/>
    </g>
    <g>
     <path class="fil0 str2" d="M97.28 359.07c42.85,-103.37 120.21,-188.76 218.89,-241.5"/>
    </g>
    <g>
     <path class="fil0 str2" d="M596.86 9.31c275.01,27.01 484.78,258.5 484.78,534.88 0,296.78 -240.68,537.47 -537.47,537.47 -296.78,0 -537.46,-240.68 -537.46,-537.47 0,-296.78 240.68,-537.46 537.46,-537.46"/>
    </g>
   </g>
   <g>
    <g>
     <line class="fil0 str3" x1="544.18" y1="114.21" x2="544.18" y2= "167.96" />
    </g>
    <g>
     <line class="fil0 str3" x1="544.18" y1="221.7" x2="544.18" y2= "275.45" />
    </g>
    <g>
     <line class="fil0 str3" x1="638.55" y1="69.76" x2="607.1" y2= "227.9" />
    </g>
    <g>
     <line class="fil0 str3" x1="700.2" y1="29.86" x2="684.6" y2= "81.29" />
    </g>
    <g>
     <line class="fil0 str3" x1="667.59" y1="246.25" x2="647.02" y2= "295.91" />
    </g>
    <g>
     <line class="fil0 str3" x1="812.92" y1="141.99" x2="783.06" y2= "186.68" />
    </g>
    <g>
     <line class="fil0 str3" x1="753.2" y1="231.36" x2="723.34" y2= "276.05" />
    </g>
    <g>
     <line class="fil0 str3" x1="885.15" y1="128.72" x2="851.05" y2= "170.26" />
    </g>
    <g>
     <line class="fil0 str3" x1="886.22" y1="202.14" x2="810.21" y2= "278.15" />
    </g>
    <g>
     <line class="fil0 str3" x1="658.2" y1="430.17" x2="620.19" y2= "468.17" />
    </g>
    <g>
     <line class="fil0 str3" x1="946.38" y1="275.44" x2="901.69" y2= "305.3" />
    </g>
    <g>
     <line class="fil0 str3" x1="857" y1="335.16" x2="812.31" y2= "365.02" />
    </g>
    <g>
     <line class="fil0 str3" x1="842.11" y1="420.78" x2="792.46" y2= "441.34" />
    </g>
    <g>
     <line class="fil0 str3" x1="742.8" y1="461.91" x2="693.15" y2= "482.48" />
    </g>
    <g>
     <line class="fil0 str3" x1="1071.32" y1="439.33" x2="1018.61" y2= "449.81" />
    </g>
    <g>
     <line class="fil0 str3" x1="913.18" y1="470.79" x2="807.75" y2= "491.76" />
    </g>
    <g>
     <line class="fil0 str3" x1="1027.9" y1="544.18" x2="920.41" y2= "544.18" />
    </g>
    <g>
     <line class="fil0 str3" x1="1018.61" y1="638.55" x2="965.89" y2= "628.07" />
    </g>
    <g>
     <line class="fil0 str3" x1="913.18" y1="617.58" x2="860.47" y2= "607.1" />
    </g>
    <g>
     <line class="fil0 str3" x1="1058.51" y1="700.2" x2="1007.07" y2= "684.6" />
    </g>
    <g>
     <line class="fil0 str3" x1="991.08" y1="729.3" x2="941.43" y2= "708.73" />
    </g>
    <g>
     <line class="fil0 str3" x1="891.77" y1="688.16" x2="693.15" y2= "605.89" />
    </g>
    <g>
     <line class="fil0 str3" x1="901.69" y1="783.06" x2="767.63" y2= "693.48" />
    </g>
    <g>
     <line class="fil0 str3" x1="924.23" y1="924.23" x2="886.22" y2= "886.22" />
    </g>
    <g>
     <line class="fil0 str3" x1="848.22" y1="848.22" x2="810.21" y2= "810.22" />
    </g>
    <g>
     <line class="fil0 str3" x1="729.29" y1="991.08" x2="708.73" y2= "941.43" />
    </g>
    <g>
     <line class="fil0 str3" x1="667.59" y1="842.12" x2="605.89" y2= "693.15" />
    </g>
    <g>
     <line class="fil0 str3" x1="700.2" y1="1058.51" x2="684.6" y2= "1007.07" />
    </g>
    <g>
     <line class="fil0 str3" x1="638.55" y1="1018.61" x2="607.1" y2= "860.47" />
    </g>
    <g>
     <line class="fil0 str3" x1="544.18" y1="920.41" x2="544.18" y2= "866.66" />
    </g>
    <g>
     <line class="fil0 str3" x1="449.81" y1="1018.61" x2="470.78" y2= "913.18" />
    </g>
    <g>
     <line class="fil0 str3" x1="400.21" y1="891.77" x2="420.77" y2= "842.12" />
    </g>
    <g>
     <line class="fil0 str3" x1="461.91" y1="742.8" x2="482.48" y2= "693.15" />
    </g>
    <g>
     <line class="fil0 str3" x1="275.44" y1="946.38" x2="365.02" y2= "812.32" />
    </g>
    <g>
     <line class="fil0 str3" x1="202.14" y1="886.22" x2="278.15" y2= "810.22" />
    </g>
    <g>
     <line class="fil0 str3" x1="316.16" y1="772.21" x2="392.16" y2= "696.2" />
    </g>
    <g>
     <line class="fil0 str3" x1="430.17" y1="658.2" x2="468.17" y2= "620.19" />
    </g>
    <g>
     <line class="fil0 str3" x1="128.72" y1="885.15" x2="170.26" y2= "851.05" />
    </g>
    <g>
     <line class="fil0 str3" x1="141.98" y1="812.92" x2="276.05" y2= "723.34" />
    </g>
    <g>
     <line class="fil0 str3" x1="70.18" y1="797.54" x2="117.58" y2= "772.21" />
    </g>
    <g>
     <line class="fil0 str3" x1="97.28" y1="729.3" x2="146.94" y2= "708.73" />
    </g>
    <g>
     <line class="fil0 str3" x1="246.25" y1="667.59" x2="395.22" y2= "605.89" />
    </g>
    <g>
     <line class="fil0 str3" x1="29.86" y1="700.2" x2="81.29" y2= "684.6" />
    </g>
    <g>
     <line class="fil0 str3" x1="69.76" y1="638.55" x2="227.9" y2= "607.1" />
    </g>
    <g>
     <line class="fil0 str3" x1="69.76" y1="449.81" x2="122.47" y2= "460.3" />
    </g>
    <g>
     <line class="fil0 str3" x1="29.86" y1="388.17" x2="81.29" y2= "403.77" />
    </g>
    <g>
     <line class="fil0 str3" x1="146.94" y1="379.64" x2="196.6" y2= "400.21" />
    </g>
    <g>
     <line class="fil0 str3" x1="141.98" y1="275.44" x2="186.67" y2= "305.3" />
    </g>
    <g>
     <line class="fil0 str3" x1="231.36" y1="335.16" x2="320.74" y2= "394.88" />
    </g>
    <g>
     <line class="fil0 str3" x1="202.14" y1="202.14" x2="316.16" y2= "316.16" />
    </g>
    <g>
     <line class="fil0 str3" x1="305.3" y1="186.68" x2="335.16" y2= "231.36" />
    </g>
    <g>
     <line class="fil0 str3" x1="365.02" y1="276.05" x2="394.88" y2= "320.74" />
    </g>
    <g>
     <line class="fil0 str3" x1="338.5" y1="47.63" x2="379.64" y2= "146.94" />
    </g>
    <g>
     <line class="fil0 str3" x1="400.21" y1="196.6" x2="420.77" y2= "246.25" />
    </g>
    <g>
     <line class="fil0 str3" x1="441.34" y1="295.91" x2="461.91" y2= "345.56" />
    </g>
    <g>
     <line class="fil0 str3" x1="470.78" y1="175.19" x2="481.27" y2= "227.9" />
    </g>
   </g>
  </g>
 </g>
</svg>
