<?xml version="1.0" encoding="UTF-8"?>
<!DOCTYPE svg PUBLIC "-//W3C//DTD SVG 1.1//EN" "http://www.w3.org/Graphics/SVG/1.1/DTD/svg11.dtd">
<!-- Creator: CorelDRAW 2018 (64-Bit) -->
<svg xmlns="http://www.w3.org/2000/svg" xml:space="preserve" width="2.54166in" height="2.54166in" version="1.1" style="shape-rendering:geometricPrecision; text-rendering:geometricPrecision; image-rendering:optimizeQuality; fill-rule:evenodd; clip-rule:evenodd"
viewBox="0 0 219.63 219.63"
 xmlns:xlink="http://www.w3.org/1999/xlink">
 <defs>
  <style type="text/css">
   <![CDATA[
    .str1 {stroke:#337768;stroke-width:3.6;stroke-miterlimit:2.61313}
    .str3 {stroke:#AFEEA8;stroke-width:2.4;stroke-miterlimit:2.61313}
    .str0 {stroke:#337768;stroke-width:3.6;stroke-linecap:square;stroke-miterlimit:2.61313}
    .str2 {stroke:#AFEEA8;stroke-width:2.4;stroke-linecap:square;stroke-miterlimit:2.61313}
    .fil0 {fill:none}
   ]]>
  </style>
 </defs>
 <g id="Layer_x0020_1">
  <metadata id="CorelCorpID_0Corel-Layer"/>
  <g id="_2422259776160">
   <g>
    <g>
     <path class="fil0 str0" d="M94.54 125.09c-4.05,-4.05 -6.33,-9.55 -6.33,-15.28 0,-11.93 9.67,-21.6 21.6,-21.6 11.93,0 21.6,9.67 21.6,21.6 0,11.93 -9.67,21.6 -21.6,21.6"/>
    </g>
    <g>
     <path class="fil0 str0" d="M84.35 84.36c6.75,-6.75 15.91,-10.55 25.46,-10.55 4.73,0 9.42,0.94 13.78,2.74"/>
    </g>
    <g>
     <path class="fil0 str0" d="M135.27 84.36c6.75,6.75 10.55,15.91 10.55,25.46"/>
    </g>
    <g>
     <path class="fil0 str0" d="M143.08 123.59c-1.81,4.37 -4.46,8.34 -7.8,11.68"/>
    </g>
    <g>
     <path class="fil0 str0" d="M123.59 143.08c-4.36,1.8 -9.05,2.74 -13.78,2.74 -14.56,0 -27.69,-8.78 -33.26,-22.22"/>
    </g>
    <g>
     <path class="fil0 str0" d="M73.81 109.81c0,-4.73 0.94,-9.42 2.74,-13.78"/>
    </g>
    <g>
     <path class="fil0 str0" d="M109.81 59.41c13.37,0 26.2,5.32 35.64,14.76"/>
    </g>
    <g>
     <path class="fil0 str0" d="M160.22 109.81c-0,6.61 -1.31,13.18 -3.84,19.29"/>
    </g>
    <g>
     <path class="fil0 str0" d="M145.46 145.46c-4.68,4.68 -10.24,8.39 -16.35,10.92"/>
    </g>
    <g>
     <path class="fil0 str0" d="M109.81 160.22c-13.37,-0 -26.2,-5.32 -35.64,-14.76"/>
    </g>
    <g>
     <path class="fil0 str0" d="M63.24 129.1c-2.53,-6.11 -3.84,-12.67 -3.84,-19.29"/>
    </g>
    <g>
     <path class="fil0 str0" d="M63.24 90.52c2.53,-6.11 6.25,-11.68 10.93,-16.35"/>
    </g>
    <g>
     <path class="fil0 str0" d="M85.01 49.94c7.85,-3.25 16.3,-4.93 24.8,-4.93 21.64,0 41.87,10.81 53.89,28.8"/>
    </g>
    <g>
     <path class="fil0 str0" d="M169.69 85.01c3.25,7.85 4.93,16.3 4.93,24.8"/>
    </g>
    <g>
     <path class="fil0 str0" d="M173.38 122.46c-0.82,4.15 -2.07,8.24 -3.69,12.16"/>
    </g>
    <g>
     <path class="fil0 str0" d="M163.7 145.82c-2.35,3.52 -5.06,6.82 -8.06,9.82"/>
    </g>
    <g>
     <path class="fil0 str0" d="M145.82 163.7c-10.66,7.12 -23.19,10.92 -36.01,10.92 -8.51,0 -16.95,-1.69 -24.8,-4.94"/>
    </g>
    <g>
     <path class="fil0 str0" d="M73.81 163.7c-17.99,-12.02 -28.8,-32.25 -28.8,-53.89 0,-8.51 1.69,-16.95 4.94,-24.8"/>
    </g>
    <g>
     <path class="fil0 str0" d="M55.93 73.81c2.35,-3.52 5.06,-6.82 8.06,-9.82"/>
    </g>
    <g>
     <path class="fil0 str0" d="M109.81 30.6c5.18,0 10.38,0.51 15.45,1.52"/>
    </g>
    <g>
     <path class="fil0 str0" d="M140.13 36.63c4.79,1.99 9.39,4.44 13.7,7.32"/>
    </g>
    <g>
     <path class="fil0 str0" d="M165.82 53.8c7.35,7.35 13.19,16.09 17.17,25.69"/>
    </g>
    <g>
     <path class="fil0 str0" d="M109.81 189.02c-5.18,-0 -10.38,-0.51 -15.45,-1.52"/>
    </g>
    <g>
     <path class="fil0 str0" d="M36.63 140.13c-1.98,-4.78 -3.51,-9.78 -4.51,-14.86"/>
    </g>
    <g>
     <path class="fil0 str0" d="M30.6 109.81c0,-5.18 0.51,-10.38 1.52,-15.45"/>
    </g>
    <g>
     <path class="fil0 str0" d="M36.63 79.5c1.99,-4.79 4.44,-9.39 7.32,-13.7"/>
    </g>
    <g>
     <path class="fil0 str0" d="M65.81 43.95c8.63,-5.78 18.36,-9.81 28.55,-11.83"/>
    </g>
    <g>
     <path class="fil0 str0" d="M18 128.08c-1.19,-6 -1.8,-12.14 -1.8,-18.26 0,-51.69 41.92,-93.61 93.61,-93.61"/>
    </g>
    <g>
     <path class="fil0 str0" d="M145.64 23.33c11.35,4.7 21.68,11.61 30.37,20.29"/>
    </g>
    <g>
     <path class="fil0 str0" d="M201.63 91.55c1.19,6 1.8,12.14 1.8,18.26 0,12.29 -2.43,24.48 -7.13,35.83"/>
    </g>
    <g>
     <path class="fil0 str0" d="M161.82 187.65c-5.08,3.4 -10.52,6.3 -16.18,8.64"/>
    </g>
    <g>
     <path class="fil0 str0" d="M128.08 201.63c-6,1.19 -12.14,1.8 -18.26,1.8"/>
    </g>
    <g>
     <path class="fil0 str0" d="M43.62 176.01c-8.69,-8.69 -15.59,-19.02 -20.29,-30.37"/>
    </g>
    <g>
     <path class="fil0 str0" d="M130.89 3.88c50.53,10.04 86.94,54.42 86.94,105.94 0,59.64 -48.37,108.01 -108.01,108.01 -59.64,0 -108.01,-48.37 -108.01,-108.01 0,-59.64 48.37,-108.01 108.01,-108.01"/>
    </g>
   </g>
   <g>
    <g>
     <line class="fil0 str1" x1="109.81" y1="59.41" x2="109.81" y2= "88.21" />
    </g>
    <g>
     <line class="fil0 str1" x1="130.89" y1="3.88" x2="125.27" y2= "32.13" />
    </g>
    <g>
     <line class="fil0 str1" x1="140.13" y1="36.63" x2="134.62" y2= "49.94" />
    </g>
    <g>
     <line class="fil0 str1" x1="176.01" y1="43.62" x2="165.82" y2= "53.8" />
    </g>
    <g>
     <line class="fil0 str1" x1="145.46" y1="74.17" x2="135.27" y2= "84.36" />
    </g>
    <g>
     <line class="fil0 str1" x1="199.62" y1="49.8" x2="187.65" y2= "57.81" />
    </g>
    <g>
     <line class="fil0 str1" x1="175.68" y1="65.81" x2="163.7" y2= "73.81" />
    </g>
    <g>
     <line class="fil0 str1" x1="209.61" y1="68.48" x2="182.99" y2= "79.5" />
    </g>
    <g>
     <line class="fil0 str1" x1="169.69" y1="85.01" x2="156.38" y2= "90.52" />
    </g>
    <g>
     <line class="fil0 str1" x1="201.63" y1="91.55" x2="173.38" y2= "97.17" />
    </g>
    <g>
     <line class="fil0 str1" x1="189.02" y1="109.81" x2="174.62" y2= "109.81" />
    </g>
    <g>
     <line class="fil0 str1" x1="160.22" y1="109.81" x2="145.82" y2= "109.81" />
    </g>
    <g>
     <line class="fil0 str1" x1="187.5" y1="125.27" x2="173.38" y2= "122.46" />
    </g>
    <g>
     <line class="fil0 str1" x1="196.3" y1="145.64" x2="143.08" y2= "123.59" />
    </g>
    <g>
     <line class="fil0 str1" x1="199.62" y1="169.82" x2="175.68" y2= "153.82" />
    </g>
    <g>
     <line class="fil0 str1" x1="186.19" y1="186.19" x2="176.01" y2= "176.01" />
    </g>
    <g>
     <line class="fil0 str1" x1="165.82" y1="165.82" x2="145.46" y2= "145.46" />
    </g>
    <g>
     <line class="fil0 str1" x1="161.82" y1="187.65" x2="145.82" y2= "163.7" />
    </g>
    <g>
     <line class="fil0 str1" x1="145.64" y1="196.3" x2="140.13" y2= "183" />
    </g>
    <g>
     <line class="fil0 str1" x1="129.1" y1="156.38" x2="123.59" y2= "143.08" />
    </g>
    <g>
     <line class="fil0 str1" x1="130.89" y1="215.75" x2="122.46" y2= "173.38" />
    </g>
    <g>
     <line class="fil0 str1" x1="109.81" y1="145.82" x2="109.81" y2= "131.42" />
    </g>
    <g>
     <line class="fil0 str1" x1="88.74" y1="215.75" x2="94.36" y2= "187.5" />
    </g>
    <g>
     <line class="fil0 str1" x1="73.99" y1="196.3" x2="85.01" y2= "169.69" />
    </g>
    <g>
     <line class="fil0 str1" x1="49.8" y1="199.62" x2="73.81" y2= "163.7" />
    </g>
    <g>
     <line class="fil0 str1" x1="43.62" y1="176.01" x2="53.8" y2= "165.82" />
    </g>
    <g>
     <line class="fil0 str1" x1="63.99" y1="155.64" x2="74.17" y2= "145.46" />
    </g>
    <g>
     <line class="fil0 str1" x1="43.95" y1="153.82" x2="55.93" y2= "145.82" />
    </g>
    <g>
     <line class="fil0 str1" x1="10.02" y1="151.15" x2="36.63" y2= "140.13" />
    </g>
    <g>
     <line class="fil0 str1" x1="63.24" y1="129.1" x2="76.55" y2= "123.59" />
    </g>
    <g>
     <line class="fil0 str1" x1="16.2" y1="109.81" x2="30.6" y2= "109.81" />
    </g>
    <g>
     <line class="fil0 str1" x1="73.81" y1="109.81" x2="88.21" y2= "109.81" />
    </g>
    <g>
     <line class="fil0 str1" x1="36.63" y1="79.5" x2="76.55" y2= "96.04" />
    </g>
    <g>
     <line class="fil0 str1" x1="43.62" y1="43.62" x2="74.17" y2= "74.17" />
    </g>
    <g>
     <line class="fil0 str1" x1="65.81" y1="43.95" x2="73.81" y2= "55.93" />
    </g>
    <g>
     <line class="fil0 str1" x1="85.01" y1="49.94" x2="90.52" y2= "63.24" />
    </g>
    <g>
     <line class="fil0 str1" x1="91.55" y1="18" x2="94.36" y2= "32.13" />
    </g>
   </g>
  </g>
  <g>
   <g>
    <g>
     <path class="fil0 str2" d="M94.54 125.09c-4.05,-4.05 -6.33,-9.55 -6.33,-15.28 0,-11.93 9.67,-21.6 21.6,-21.6 11.93,0 21.6,9.67 21.6,21.6 0,11.93 -9.67,21.6 -21.6,21.6"/>
    </g>
    <g>
     <path class="fil0 str2" d="M84.35 84.36c6.75,-6.75 15.91,-10.55 25.46,-10.55 4.73,0 9.42,0.94 13.78,2.74"/>
    </g>
    <g>
     <path class="fil0 str2" d="M135.27 84.36c6.75,6.75 10.55,15.91 10.55,25.46"/>
    </g>
    <g>
     <path class="fil0 str2" d="M143.08 123.59c-1.81,4.37 -4.46,8.34 -7.8,11.68"/>
    </g>
    <g>
     <path class="fil0 str2" d="M123.59 143.08c-4.36,1.8 -9.05,2.74 -13.78,2.74 -14.56,0 -27.69,-8.78 -33.26,-22.22"/>
    </g>
    <g>
     <path class="fil0 str2" d="M73.81 109.81c0,-4.73 0.94,-9.42 2.74,-13.78"/>
    </g>
    <g>
     <path class="fil0 str2" d="M109.81 59.41c13.37,0 26.2,5.32 35.64,14.76"/>
    </g>
    <g>
     <path class="fil0 str2" d="M160.22 109.81c-0,6.61 -1.31,13.18 -3.84,19.29"/>
    </g>
    <g>
     <path class="fil0 str2" d="M145.46 145.46c-4.68,4.68 -10.24,8.39 -16.35,10.92"/>
    </g>
    <g>
     <path class="fil0 str2" d="M109.81 160.22c-13.37,-0 -26.2,-5.32 -35.64,-14.76"/>
    </g>
    <g>
     <path class="fil0 str2" d="M63.24 129.1c-2.53,-6.11 -3.84,-12.67 -3.84,-19.29"/>
    </g>
    <g>
     <path class="fil0 str2" d="M63.24 90.52c2.53,-6.11 6.25,-11.68 10.93,-16.35"/>
    </g>
    <g>
     <path class="fil0 str2" d="M85.01 49.94c7.85,-3.25 16.3,-4.93 24.8,-4.93 21.64,0 41.87,10.81 53.89,28.8"/>
    </g>
    <g>
     <path class="fil0 str2" d="M169.69 85.01c3.25,7.85 4.93,16.3 4.93,24.8"/>
    </g>
    <g>
     <path class="fil0 str2" d="M173.38 122.46c-0.82,4.15 -2.07,8.24 -3.69,12.16"/>
    </g>
    <g>
     <path class="fil0 str2" d="M163.7 145.82c-2.35,3.52 -5.06,6.82 -8.06,9.82"/>
    </g>
    <g>
     <path class="fil0 str2" d="M145.82 163.7c-10.66,7.12 -23.19,10.92 -36.01,10.92 -8.51,0 -16.95,-1.69 -24.8,-4.94"/>
    </g>
    <g>
     <path class="fil0 str2" d="M73.81 163.7c-17.99,-12.02 -28.8,-32.25 -28.8,-53.89 0,-8.51 1.69,-16.95 4.94,-24.8"/>
    </g>
    <g>
     <path class="fil0 str2" d="M55.93 73.81c2.35,-3.52 5.06,-6.82 8.06,-9.82"/>
    </g>
    <g>
     <path class="fil0 str2" d="M109.81 30.6c5.18,0 10.38,0.51 15.45,1.52"/>
    </g>
    <g>
     <path class="fil0 str2" d="M140.13 36.63c4.79,1.99 9.39,4.44 13.7,7.32"/>
    </g>
    <g>
     <path class="fil0 str2" d="M165.82 53.8c7.35,7.35 13.19,16.09 17.17,25.69"/>
    </g>
    <g>
     <path class="fil0 str2" d="M109.81 189.02c-5.18,-0 -10.38,-0.51 -15.45,-1.52"/>
    </g>
    <g>
     <path class="fil0 str2" d="M36.63 140.13c-1.98,-4.78 -3.51,-9.78 -4.51,-14.86"/>
    </g>
    <g>
     <path class="fil0 str2" d="M30.6 109.81c0,-5.18 0.51,-10.38 1.52,-15.45"/>
    </g>
    <g>
     <path class="fil0 str2" d="M36.63 79.5c1.99,-4.79 4.44,-9.39 7.32,-13.7"/>
    </g>
    <g>
     <path class="fil0 str2" d="M65.81 43.95c8.63,-5.78 18.36,-9.81 28.55,-11.83"/>
    </g>
    <g>
     <path class="fil0 str2" d="M18 128.08c-1.19,-6 -1.8,-12.14 -1.8,-18.26 0,-51.69 41.92,-93.61 93.61,-93.61"/>
    </g>
    <g>
     <path class="fil0 str2" d="M145.64 23.33c11.35,4.7 21.68,11.61 30.37,20.29"/>
    </g>
    <g>
     <path class="fil0 str2" d="M201.63 91.55c1.19,6 1.8,12.14 1.8,18.26 0,12.29 -2.43,24.48 -7.13,35.83"/>
    </g>
    <g>
     <path class="fil0 str2" d="M161.82 187.65c-5.08,3.4 -10.52,6.3 -16.18,8.64"/>
    </g>
    <g>
     <path class="fil0 str2" d="M128.08 201.63c-6,1.19 -12.14,1.8 -18.26,1.8"/>
    </g>
    <g>
     <path class="fil0 str2" d="M43.62 176.01c-8.69,-8.69 -15.59,-19.02 -20.29,-30.37"/>
    </g>
    <g>
     <path class="fil0 str2" d="M130.89 3.88c50.53,10.04 86.94,54.42 86.94,105.94 0,59.64 -48.37,108.01 -108.01,108.01 -59.64,0 -108.01,-48.37 -108.01,-108.01 0,-59.64 48.37,-108.01 108.01,-108.01"/>
    </g>
   </g>
   <g>
    <g>
     <line class="fil0 str3" x1="109.81" y1="59.41" x2="109.81" y2= "88.21" />
    </g>
    <g>
     <line class="fil0 str3" x1="130.89" y1="3.88" x2="125.27" y2= "32.13" />
    </g>
    <g>
     <line class="fil0 str3" x1="140.13" y1="36.63" x2="134.62" y2= "49.94" />
    </g>
    <g>
     <line class="fil0 str3" x1="176.01" y1="43.62" x2="165.82" y2= "53.8" />
    </g>
    <g>
     <line class="fil0 str3" x1="145.46" y1="74.17" x2="135.27" y2= "84.36" />
    </g>
    <g>
     <line class="fil0 str3" x1="199.62" y1="49.8" x2="187.65" y2= "57.81" />
    </g>
    <g>
     <line class="fil0 str3" x1="175.68" y1="65.81" x2="163.7" y2= "73.81" />
    </g>
    <g>
     <line class="fil0 str3" x1="209.61" y1="68.48" x2="182.99" y2= "79.5" />
    </g>
    <g>
     <line class="fil0 str3" x1="169.69" y1="85.01" x2="156.38" y2= "90.52" />
    </g>
    <g>
     <line class="fil0 str3" x1="201.63" y1="91.55" x2="173.38" y2= "97.17" />
    </g>
    <g>
     <line class="fil0 str3" x1="189.02" y1="109.81" x2="174.62" y2= "109.81" />
    </g>
    <g>
     <line class="fil0 str3" x1="160.22" y1="109.81" x2="145.82" y2= "109.81" />
    </g>
    <g>
     <line class="fil0 str3" x1="187.5" y1="125.27" x2="173.38" y2= "122.46" />
    </g>
    <g>
     <line class="fil0 str3" x1="196.3" y1="145.64" x2="143.08" y2= "123.59" />
    </g>
    <g>
     <line class="fil0 str3" x1="199.62" y1="169.82" x2="175.68" y2= "153.82" />
    </g>
    <g>
     <line class="fil0 str3" x1="186.19" y1="186.19" x2="176.01" y2= "176.01" />
    </g>
    <g>
     <line class="fil0 str3" x1="165.82" y1="165.82" x2="145.46" y2= "145.46" />
    </g>
    <g>
     <line class="fil0 str3" x1="161.82" y1="187.65" x2="145.82" y2= "163.7" />
    </g>
    <g>
     <line class="fil0 str3" x1="145.64" y1="196.3" x2="140.13" y2= "183" />
    </g>
    <g>
     <line class="fil0 str3" x1="129.1" y1="156.38" x2="123.59" y2= "143.08" />
    </g>
    <g>
     <line class="fil0 str3" x1="130.89" y1="215.75" x2="122.46" y2= "173.38" />
    </g>
    <g>
     <line class="fil0 str3" x1="109.81" y1="145.82" x2="109.81" y2= "131.42" />
    </g>
    <g>
     <line class="fil0 str3" x1="88.74" y1="215.75" x2="94.36" y2= "187.5" />
    </g>
    <g>
     <line class="fil0 str3" x1="73.99" y1="196.3" x2="85.01" y2= "169.69" />
    </g>
    <g>
     <line class="fil0 str3" x1="49.8" y1="199.62" x2="73.81" y2= "163.7" />
    </g>
    <g>
     <line class="fil0 str3" x1="43.62" y1="176.01" x2="53.8" y2= "165.82" />
    </g>
    <g>
     <line class="fil0 str3" x1="63.99" y1="155.64" x2="74.17" y2= "145.46" />
    </g>
    <g>
     <line class="fil0 str3" x1="43.95" y1="153.82" x2="55.93" y2= "145.82" />
    </g>
    <g>
     <line class="fil0 str3" x1="10.02" y1="151.15" x2="36.63" y2= "140.13" />
    </g>
    <g>
     <line class="fil0 str3" x1="63.24" y1="129.1" x2="76.55" y2= "123.59" />
    </g>
    <g>
     <line class="fil0 str3" x1="16.2" y1="109.81" x2="30.6" y2= "109.81" />
    </g>
    <g>
     <line class="fil0 str3" x1="73.81" y1="109.81" x2="88.21" y2= "109.81" />
    </g>
    <g>
     <line class="fil0 str3" x1="36.63" y1="79.5" x2="76.55" y2= "96.04" />
    </g>
    <g>
     <line class="fil0 str3" x1="43.62" y1="43.62" x2="74.17" y2= "74.17" />
    </g>
    <g>
     <line class="fil0 str3" x1="65.81" y1="43.95" x2="73.81" y2= "55.93" />
    </g>
    <g>
     <line class="fil0 str3" x1="85.01" y1="49.94" x2="90.52" y2= "63.24" />
    </g>
    <g>
     <line class="fil0 str3" x1="91.55" y1="18" x2="94.36" y2= "32.13" />
    </g>
   </g>
  </g>
 </g>
</svg>
