<?xml version="1.0" encoding="UTF-8"?>
<!DOCTYPE svg PUBLIC "-//W3C//DTD SVG 1.1//EN" "http://www.w3.org/Graphics/SVG/1.1/DTD/svg11.dtd">
<!-- Creator: CorelDRAW 2018 (64-Bit) -->
<svg xmlns="http://www.w3.org/2000/svg" xml:space="preserve" width="3.37499in" height="3.37499in" version="1.1" style="shape-rendering:geometricPrecision; text-rendering:geometricPrecision; image-rendering:optimizeQuality; fill-rule:evenodd; clip-rule:evenodd"
viewBox="0 0 2376.38 2376.38"
 xmlns:xlink="http://www.w3.org/1999/xlink">
 <defs>
  <style type="text/css">
   <![CDATA[
    .str1 {stroke:#337768;stroke-width:29.34;stroke-miterlimit:2.61313}
    .str3 {stroke:#AFEEA8;stroke-width:19.56;stroke-miterlimit:2.61313}
    .str0 {stroke:#337768;stroke-width:29.34;stroke-linecap:square;stroke-miterlimit:2.61313}
    .str2 {stroke:#AFEEA8;stroke-width:19.56;stroke-linecap:square;stroke-miterlimit:2.61313}
    .fil0 {fill:none}
   ]]>
  </style>
 </defs>
 <g id="Layer_x0020_1">
  <metadata id="CorelCorpID_0Corel-Layer"/>
  <g id="_2422252283584">
   <g>
    <g>
     <path class="fil0 str0" d="M1022.23 1354.15c-43.98,-43.98 -68.74,-103.73 -68.74,-165.97 0,-129.6 105.1,-234.7 234.7,-234.7 129.6,0 234.71,105.1 234.71,234.7 0,129.6 -105.1,234.71 -234.71,234.71"/>
    </g>
    <g>
     <path class="fil0 str0" d="M1053.46 862.93c42.67,-17.64 88.52,-26.8 134.72,-26.8 194.4,0 352.06,157.66 352.06,352.05"/>
    </g>
    <g>
     <path class="fil0 str0" d="M1513.45 1322.92c-17.69,42.69 -43.65,81.55 -76.32,114.21"/>
    </g>
    <g>
     <path class="fil0 str0" d="M1322.92 1513.45c-42.67,17.64 -88.52,26.79 -134.73,26.79 -142.35,0 -270.77,-85.83 -325.23,-217.31"/>
    </g>
    <g>
     <path class="fil0 str0" d="M836.13 1188.19c0,-46.21 9.16,-92.06 26.82,-134.75"/>
    </g>
    <g>
     <path class="fil0 str0" d="M1188.19 718.78c259.2,0 469.41,210.21 469.41,469.4"/>
    </g>
    <g>
     <path class="fil0 str0" d="M1520.11 1520.12c-87.97,87.96 -207.45,137.48 -331.93,137.48 -124.47,0 -243.95,-49.52 -331.92,-137.48"/>
    </g>
    <g>
     <path class="fil0 str0" d="M754.51 1367.83c-23.52,-56.89 -35.73,-118.03 -35.73,-179.64"/>
    </g>
    <g>
     <path class="fil0 str0" d="M754.51 1008.56c47.66,-114.98 139.06,-206.39 254.02,-254.01"/>
    </g>
    <g>
     <path class="fil0 str0" d="M1073.72 612.7c37.61,-7.48 76.08,-11.27 114.47,-11.27"/>
    </g>
    <g>
     <path class="fil0 str0" d="M1302.66 612.7c37.61,7.42 74.64,18.74 110.1,33.43"/>
    </g>
    <g>
     <path class="fil0 str0" d="M1514.18 700.32c63.99,42.73 119.15,97.89 161.92,161.87"/>
    </g>
    <g>
     <path class="fil0 str0" d="M1763.68 1073.72c7.48,37.61 11.27,76.07 11.27,114.47 0,38.4 -3.8,76.86 -11.25,114.47"/>
    </g>
    <g>
     <path class="fil0 str0" d="M1730.29 1412.74c-44.45,107.19 -119.59,198.89 -216.09,263.36"/>
    </g>
    <g>
     <path class="fil0 str0" d="M1302.66 1763.68c-37.61,7.47 -76.08,11.27 -114.47,11.27 -116.04,0 -229.51,-34.39 -326,-98.86"/>
    </g>
    <g>
     <path class="fil0 str0" d="M646.09 1412.74c-29.4,-71.11 -44.66,-147.54 -44.66,-224.55 0,-155.59 61.89,-304.95 171.85,-414.9"/>
    </g>
    <g>
     <path class="fil0 str0" d="M862.2 700.32c31.86,-21.31 65.96,-39.5 101.41,-54.19"/>
    </g>
    <g>
     <path class="fil0 str0" d="M1686.07 690.31c65.34,65.32 117.26,143.03 152.59,228.39"/>
    </g>
    <g>
     <path class="fil0 str0" d="M1878.77 1325.56c-17.94,90.6 -53.78,177.08 -105.1,253.84"/>
    </g>
    <g>
     <path class="fil0 str0" d="M1579.38 1773.64c-38.23,25.56 -79.15,47.4 -121.7,65.02"/>
    </g>
    <g>
     <path class="fil0 str0" d="M1325.56 1878.78c-45.13,8.97 -91.29,13.53 -137.37,13.53 -46.07,0 -92.23,-4.55 -137.36,-13.5"/>
    </g>
    <g>
     <path class="fil0 str0" d="M797 1773.64c-195.5,-130.54 -312.93,-350.35 -312.93,-585.45"/>
    </g>
    <g>
     <path class="fil0 str0" d="M497.6 1050.83c8.91,-45.13 22.49,-89.57 40.12,-132.12"/>
    </g>
    <g>
     <path class="fil0 str0" d="M797 602.74c38.23,-25.57 79.15,-47.4 121.7,-65.03"/>
    </g>
    <g>
     <path class="fil0 str0" d="M1188.19 366.72c217.82,0 426.93,86.65 580.87,240.6"/>
    </g>
    <g>
     <path class="fil0 str0" d="M1871.21 731.81c59.91,89.53 101.73,190.42 122.69,296.12"/>
    </g>
    <g>
     <path class="fil0 str0" d="M1947.13 1502.56c-62.23,150.07 -167.44,278.44 -302.52,368.7"/>
    </g>
    <g>
     <path class="fil0 str0" d="M1502.55 1947.13c-49.6,20.5 -101.45,36.35 -154.1,46.78"/>
    </g>
    <g>
     <path class="fil0 str0" d="M1027.93 1993.87c-213.61,-42.39 -401.86,-168.15 -522.8,-349.27"/>
    </g>
    <g>
     <path class="fil0 str0" d="M366.72 1188.19c0.01,-53.75 5.32,-107.61 15.75,-160.26"/>
    </g>
    <g>
     <path class="fil0 str0" d="M429.25 873.83c104.95,-253.37 329.7,-437.9 598.68,-491.36"/>
    </g>
    <g>
     <path class="fil0 str0" d="M1371.34 267.41c60.17,11.87 119.43,29.98 176.16,53.48"/>
    </g>
    <g>
     <path class="fil0 str0" d="M1852.03 524.35c43.45,43.43 82.76,91.22 116.8,142.23"/>
    </g>
    <g>
     <path class="fil0 str0" d="M2108.97 1005.04c11.96,60.17 18.04,121.72 18.04,183.15"/>
    </g>
    <g>
     <path class="fil0 str0" d="M2108.97 1371.35c-23.91,120.8 -71.71,236.11 -140.13,338.46"/>
    </g>
    <g>
     <path class="fil0 str0" d="M1852.03 1852.04c-87.1,87.12 -190.71,156.34 -304.53,203.45"/>
    </g>
    <g>
     <path class="fil0 str0" d="M1188.19 2127.01c-248.94,-0.01 -487.92,-99.03 -663.85,-274.97"/>
    </g>
    <g>
     <path class="fil0 str0" d="M407.59 1709.77c-34.09,-50.97 -63.2,-105.53 -86.7,-162.27"/>
    </g>
    <g>
     <path class="fil0 str0" d="M249.37 1188.19c0,-123.21 24.42,-245.51 71.52,-359.32"/>
    </g>
    <g>
     <path class="fil0 str0" d="M524.34 524.35c43.43,-43.45 91.23,-82.76 142.23,-116.8"/>
    </g>
    <g>
     <path class="fil0 str0" d="M601.41 310.02c173.65,-116.1 377.89,-178 586.77,-178 69.11,0 138.36,6.83 206.05,20.24"/>
    </g>
    <g>
     <path class="fil0 str0" d="M1686.07 256.73c60.83,32.47 118.73,71.15 172.11,114.99"/>
    </g>
    <g>
     <path class="fil0 str0" d="M2066.37 601.42c38.35,57.34 71.1,118.71 97.53,182.54"/>
    </g>
    <g>
     <path class="fil0 str0" d="M2239.28 1084.67c3.41,34.28 5.08,68.97 5.08,103.52 0,69.11 -6.83,138.36 -20.24,206.05"/>
    </g>
    <g>
     <path class="fil0 str0" d="M2198.88 1494.78c-20.03,66.05 -46.72,130.39 -79.21,191.25"/>
    </g>
    <g>
     <path class="fil0 str0" d="M2066.37 1774.97c-57.58,86.3 -127.99,163.92 -208.19,229.69"/>
    </g>
    <g>
     <path class="fil0 str0" d="M1774.97 2066.37c-28.59,19.13 -58.5,37.06 -88.93,53.3"/>
    </g>
    <g>
     <path class="fil0 str0" d="M1592.37 2163.97c-127.99,52.93 -265.57,80.39 -404.18,80.39 -69.11,0 -138.35,-6.83 -206.04,-20.24"/>
    </g>
    <g>
     <path class="fil0 str0" d="M784.01 2163.97c-31.9,-13.22 -63.23,-28.05 -93.66,-44.3"/>
    </g>
    <g>
     <path class="fil0 str0" d="M441.36 1935.02c-98,-97.99 -175.89,-214.56 -228.88,-342.6"/>
    </g>
    <g>
     <path class="fil0 str0" d="M177.5 1494.78c-30,-99.26 -45.48,-202.8 -45.48,-306.59 0,-103.79 15.47,-207.33 45.52,-306.62"/>
    </g>
    <g>
     <path class="fil0 str0" d="M310.02 601.42c57.58,-86.31 127.99,-163.93 208.19,-229.69"/>
    </g>
    <g>
     <path class="fil0 str0" d="M1303.22 20.32c600.46,58.97 1058.49,564.42 1058.49,1167.87 0,648.01 -525.51,1173.52 -1173.52,1173.52 -648,0 -1173.52,-525.51 -1173.52,-1173.52 0,-648 525.51,-1173.52 1173.52,-1173.52"/>
    </g>
   </g>
   <g>
    <g>
     <line class="fil0 str1" x1="1188.19" y1="132.02" x2="1188.19" y2= "366.72" />
    </g>
    <g>
     <line class="fil0 str1" x1="1188.19" y1="484.08" x2="1188.19" y2= "601.43" />
    </g>
    <g>
     <line class="fil0 str1" x1="1348.45" y1="382.51" x2="1302.66" y2= "612.7" />
    </g>
    <g>
     <line class="fil0 str1" x1="1528.85" y1="65.2" x2="1494.78" y2= "177.5" />
    </g>
    <g>
     <line class="fil0 str1" x1="1637.28" y1="104" x2="1547.46" y2= "320.84" />
    </g>
    <g>
     <line class="fil0 str1" x1="1457.64" y1="537.67" x2="1367.83" y2= "754.51" />
    </g>
    <g>
     <line class="fil0 str1" x1="1774.97" y1="310.02" x2="1709.77" y2= "407.59" />
    </g>
    <g>
     <line class="fil0 str1" x1="1644.57" y1="505.17" x2="1514.18" y2= "700.32" />
    </g>
    <g>
     <line class="fil0 str1" x1="1932.67" y1="281.05" x2="1858.22" y2= "371.76" />
    </g>
    <g>
     <line class="fil0 str1" x1="1935.01" y1="441.37" x2="1769.05" y2= "607.33" />
    </g>
    <g>
     <line class="fil0 str1" x1="2095.34" y1="443.72" x2="2004.62" y2= "518.16" />
    </g>
    <g>
     <line class="fil0 str1" x1="2066.37" y1="601.42" x2="1968.79" y2= "666.61" />
    </g>
    <g>
     <line class="fil0 str1" x1="1871.21" y1="731.81" x2="1773.64" y2= "797.01" />
    </g>
    <g>
     <line class="fil0 str1" x1="2163.97" y1="784.01" x2="1947.13" y2= "873.83" />
    </g>
    <g>
     <line class="fil0 str1" x1="1838.71" y1="918.74" x2="1730.29" y2= "963.65" />
    </g>
    <g>
     <line class="fil0 str1" x1="2311.18" y1="847.54" x2="2198.88" y2= "881.6" />
    </g>
    <g>
     <line class="fil0 str1" x1="2339.17" y1="959.25" x2="2108.97" y2= "1005.04" />
    </g>
    <g>
     <line class="fil0 str1" x1="1993.87" y1="1027.93" x2="1878.77" y2= "1050.83" />
    </g>
    <g>
     <line class="fil0 str1" x1="2127.01" y1="1188.19" x2="1540.25" y2= "1188.19" />
    </g>
    <g>
     <line class="fil0 str1" x1="2224.07" y1="1394.24" x2="1878.77" y2= "1325.56" />
    </g>
    <g>
     <line class="fil0 str1" x1="2163.97" y1="1592.37" x2="2055.55" y2= "1547.46" />
    </g>
    <g>
     <line class="fil0 str1" x1="1730.29" y1="1412.74" x2="1513.45" y2= "1322.92" />
    </g>
    <g>
     <line class="fil0 str1" x1="2223.14" y1="1741.39" x2="2119.65" y2= "1686.07" />
    </g>
    <g>
     <line class="fil0 str1" x1="1935.01" y1="1935.02" x2="1852.03" y2= "1852.04" />
    </g>
    <g>
     <line class="fil0 str1" x1="1769.05" y1="1769.06" x2="1603.09" y2= "1603.1" />
    </g>
    <g>
     <line class="fil0 str1" x1="1437.13" y1="1437.13" x2="1354.15" y2= "1354.15" />
    </g>
    <g>
     <line class="fil0 str1" x1="1932.67" y1="2095.34" x2="1858.22" y2= "2004.62" />
    </g>
    <g>
     <line class="fil0 str1" x1="1709.77" y1="1968.79" x2="1644.57" y2= "1871.22" />
    </g>
    <g>
     <line class="fil0 str1" x1="1741.39" y1="2223.15" x2="1686.07" y2= "2119.65" />
    </g>
    <g>
     <line class="fil0 str1" x1="1592.37" y1="2163.97" x2="1547.46" y2= "2055.55" />
    </g>
    <g>
     <line class="fil0 str1" x1="1502.55" y1="1947.13" x2="1322.92" y2= "1513.45" />
    </g>
    <g>
     <line class="fil0 str1" x1="1371.34" y1="2108.97" x2="1325.56" y2= "1878.78" />
    </g>
    <g>
     <line class="fil0 str1" x1="1188.19" y1="2244.36" x2="1188.19" y2= "2009.66" />
    </g>
    <g>
     <line class="fil0 str1" x1="1027.93" y1="1993.87" x2="1050.82" y2= "1878.78" />
    </g>
    <g>
     <line class="fil0 str1" x1="847.53" y1="2311.19" x2="881.6" y2= "2198.89" />
    </g>
    <g>
     <line class="fil0 str1" x1="784.01" y1="2163.97" x2="828.92" y2= "2055.55" />
    </g>
    <g>
     <line class="fil0 str1" x1="873.83" y1="1947.13" x2="963.65" y2= "1730.29" />
    </g>
    <g>
     <line class="fil0 str1" x1="536.21" y1="2163.94" x2="601.41" y2= "2066.37" />
    </g>
    <g>
     <line class="fil0 str1" x1="443.71" y1="2095.34" x2="518.16" y2= "2004.62" />
    </g>
    <g>
     <line class="fil0 str1" x1="690.31" y1="1686.08" x2="773.29" y2= "1603.1" />
    </g>
    <g>
     <line class="fil0 str1" x1="939.25" y1="1437.13" x2="1022.23" y2= "1354.15" />
    </g>
    <g>
     <line class="fil0 str1" x1="310.02" y1="1774.97" x2="505.17" y2= "1644.58" />
    </g>
    <g>
     <line class="fil0 str1" x1="602.74" y1="1579.38" x2="700.31" y2= "1514.18" />
    </g>
    <g>
     <line class="fil0 str1" x1="429.25" y1="1502.56" x2="537.67" y2= "1457.64" />
    </g>
    <g>
     <line class="fil0 str1" x1="754.51" y1="1367.83" x2="862.93" y2= "1322.92" />
    </g>
    <g>
     <line class="fil0 str1" x1="65.2" y1="1528.85" x2="177.5" y2= "1494.78" />
    </g>
    <g>
     <line class="fil0 str1" x1="152.31" y1="1394.24" x2="382.51" y2= "1348.45" />
    </g>
    <g>
     <line class="fil0 str1" x1="249.37" y1="1188.19" x2="601.43" y2= "1188.19" />
    </g>
    <g>
     <line class="fil0 str1" x1="104" y1="739.1" x2="537.67" y2= "918.74" />
    </g>
    <g>
     <line class="fil0 str1" x1="754.51" y1="1008.56" x2="862.93" y2= "1053.47" />
    </g>
    <g>
     <line class="fil0 str1" x1="153.23" y1="635" x2="256.73" y2= "690.32" />
    </g>
    <g>
     <line class="fil0 str1" x1="407.59" y1="666.61" x2="505.17" y2= "731.81" />
    </g>
    <g>
     <line class="fil0 str1" x1="602.74" y1="797.01" x2="700.31" y2= "862.2" />
    </g>
    <g>
     <line class="fil0 str1" x1="441.36" y1="441.37" x2="524.34" y2= "524.35" />
    </g>
    <g>
     <line class="fil0 str1" x1="607.33" y1="607.33" x2="690.31" y2= "690.31" />
    </g>
    <g>
     <line class="fil0 str1" x1="939.25" y1="939.25" x2="1022.23" y2= "1022.23" />
    </g>
    <g>
     <line class="fil0 str1" x1="443.71" y1="281.05" x2="518.16" y2= "371.76" />
    </g>
    <g>
     <line class="fil0 str1" x1="784.01" y1="212.42" x2="828.92" y2= "320.84" />
    </g>
    <g>
     <line class="fil0 str1" x1="918.74" y1="537.67" x2="1053.46" y2= "862.93" />
    </g>
    <g>
     <line class="fil0 str1" x1="1005.03" y1="267.41" x2="1073.72" y2= "612.7" />
    </g>
   </g>
  </g>
  <g>
   <g>
    <g>
     <path class="fil0 str2" d="M1022.23 1354.15c-43.98,-43.98 -68.74,-103.73 -68.74,-165.97 0,-129.6 105.1,-234.7 234.7,-234.7 129.6,0 234.71,105.1 234.71,234.7 0,129.6 -105.1,234.71 -234.71,234.71"/>
    </g>
    <g>
     <path class="fil0 str2" d="M1053.46 862.93c42.67,-17.64 88.52,-26.8 134.72,-26.8 194.4,0 352.06,157.66 352.06,352.05"/>
    </g>
    <g>
     <path class="fil0 str2" d="M1513.45 1322.92c-17.69,42.69 -43.65,81.55 -76.32,114.21"/>
    </g>
    <g>
     <path class="fil0 str2" d="M1322.92 1513.45c-42.67,17.64 -88.52,26.79 -134.73,26.79 -142.35,0 -270.77,-85.83 -325.23,-217.31"/>
    </g>
    <g>
     <path class="fil0 str2" d="M836.13 1188.19c0,-46.21 9.16,-92.06 26.82,-134.75"/>
    </g>
    <g>
     <path class="fil0 str2" d="M1188.19 718.78c259.2,0 469.41,210.21 469.41,469.4"/>
    </g>
    <g>
     <path class="fil0 str2" d="M1520.11 1520.12c-87.97,87.96 -207.45,137.48 -331.93,137.48 -124.47,0 -243.95,-49.52 -331.92,-137.48"/>
    </g>
    <g>
     <path class="fil0 str2" d="M754.51 1367.83c-23.52,-56.89 -35.73,-118.03 -35.73,-179.64"/>
    </g>
    <g>
     <path class="fil0 str2" d="M754.51 1008.56c47.66,-114.98 139.06,-206.39 254.02,-254.01"/>
    </g>
    <g>
     <path class="fil0 str2" d="M1073.72 612.7c37.61,-7.48 76.08,-11.27 114.47,-11.27"/>
    </g>
    <g>
     <path class="fil0 str2" d="M1302.66 612.7c37.61,7.42 74.64,18.74 110.1,33.43"/>
    </g>
    <g>
     <path class="fil0 str2" d="M1514.18 700.32c63.99,42.73 119.15,97.89 161.92,161.87"/>
    </g>
    <g>
     <path class="fil0 str2" d="M1763.68 1073.72c7.48,37.61 11.27,76.07 11.27,114.47 0,38.4 -3.8,76.86 -11.25,114.47"/>
    </g>
    <g>
     <path class="fil0 str2" d="M1730.29 1412.74c-44.45,107.19 -119.59,198.89 -216.09,263.36"/>
    </g>
    <g>
     <path class="fil0 str2" d="M1302.66 1763.68c-37.61,7.47 -76.08,11.27 -114.47,11.27 -116.04,0 -229.51,-34.39 -326,-98.86"/>
    </g>
    <g>
     <path class="fil0 str2" d="M646.09 1412.74c-29.4,-71.11 -44.66,-147.54 -44.66,-224.55 0,-155.59 61.89,-304.95 171.85,-414.9"/>
    </g>
    <g>
     <path class="fil0 str2" d="M862.2 700.32c31.86,-21.31 65.96,-39.5 101.41,-54.19"/>
    </g>
    <g>
     <path class="fil0 str2" d="M1686.07 690.31c65.34,65.32 117.26,143.03 152.59,228.39"/>
    </g>
    <g>
     <path class="fil0 str2" d="M1878.77 1325.56c-17.94,90.6 -53.78,177.08 -105.1,253.84"/>
    </g>
    <g>
     <path class="fil0 str2" d="M1579.38 1773.64c-38.23,25.56 -79.15,47.4 -121.7,65.02"/>
    </g>
    <g>
     <path class="fil0 str2" d="M1325.56 1878.78c-45.13,8.97 -91.29,13.53 -137.37,13.53 -46.07,0 -92.23,-4.55 -137.36,-13.5"/>
    </g>
    <g>
     <path class="fil0 str2" d="M797 1773.64c-195.5,-130.54 -312.93,-350.35 -312.93,-585.45"/>
    </g>
    <g>
     <path class="fil0 str2" d="M497.6 1050.83c8.91,-45.13 22.49,-89.57 40.12,-132.12"/>
    </g>
    <g>
     <path class="fil0 str2" d="M797 602.74c38.23,-25.57 79.15,-47.4 121.7,-65.03"/>
    </g>
    <g>
     <path class="fil0 str2" d="M1188.19 366.72c217.82,0 426.93,86.65 580.87,240.6"/>
    </g>
    <g>
     <path class="fil0 str2" d="M1871.21 731.81c59.91,89.53 101.73,190.42 122.69,296.12"/>
    </g>
    <g>
     <path class="fil0 str2" d="M1947.13 1502.56c-62.23,150.07 -167.44,278.44 -302.52,368.7"/>
    </g>
    <g>
     <path class="fil0 str2" d="M1502.55 1947.13c-49.6,20.5 -101.45,36.35 -154.1,46.78"/>
    </g>
    <g>
     <path class="fil0 str2" d="M1027.93 1993.87c-213.61,-42.39 -401.86,-168.15 -522.8,-349.27"/>
    </g>
    <g>
     <path class="fil0 str2" d="M366.72 1188.19c0.01,-53.75 5.32,-107.61 15.75,-160.26"/>
    </g>
    <g>
     <path class="fil0 str2" d="M429.25 873.83c104.95,-253.37 329.7,-437.9 598.68,-491.36"/>
    </g>
    <g>
     <path class="fil0 str2" d="M1371.34 267.41c60.17,11.87 119.43,29.98 176.16,53.48"/>
    </g>
    <g>
     <path class="fil0 str2" d="M1852.03 524.35c43.45,43.43 82.76,91.22 116.8,142.23"/>
    </g>
    <g>
     <path class="fil0 str2" d="M2108.97 1005.04c11.96,60.17 18.04,121.72 18.04,183.15"/>
    </g>
    <g>
     <path class="fil0 str2" d="M2108.97 1371.35c-23.91,120.8 -71.71,236.11 -140.13,338.46"/>
    </g>
    <g>
     <path class="fil0 str2" d="M1852.03 1852.04c-87.1,87.12 -190.71,156.34 -304.53,203.45"/>
    </g>
    <g>
     <path class="fil0 str2" d="M1188.19 2127.01c-248.94,-0.01 -487.92,-99.03 -663.85,-274.97"/>
    </g>
    <g>
     <path class="fil0 str2" d="M407.59 1709.77c-34.09,-50.97 -63.2,-105.53 -86.7,-162.27"/>
    </g>
    <g>
     <path class="fil0 str2" d="M249.37 1188.19c0,-123.21 24.42,-245.51 71.52,-359.32"/>
    </g>
    <g>
     <path class="fil0 str2" d="M524.34 524.35c43.43,-43.45 91.23,-82.76 142.23,-116.8"/>
    </g>
    <g>
     <path class="fil0 str2" d="M601.41 310.02c173.65,-116.1 377.89,-178 586.77,-178 69.11,0 138.36,6.83 206.05,20.24"/>
    </g>
    <g>
     <path class="fil0 str2" d="M1686.07 256.73c60.83,32.47 118.73,71.15 172.11,114.99"/>
    </g>
    <g>
     <path class="fil0 str2" d="M2066.37 601.42c38.35,57.34 71.1,118.71 97.53,182.54"/>
    </g>
    <g>
     <path class="fil0 str2" d="M2239.28 1084.67c3.41,34.28 5.08,68.97 5.08,103.52 0,69.11 -6.83,138.36 -20.24,206.05"/>
    </g>
    <g>
     <path class="fil0 str2" d="M2198.88 1494.78c-20.03,66.05 -46.72,130.39 -79.21,191.25"/>
    </g>
    <g>
     <path class="fil0 str2" d="M2066.37 1774.97c-57.58,86.3 -127.99,163.92 -208.19,229.69"/>
    </g>
    <g>
     <path class="fil0 str2" d="M1774.97 2066.37c-28.59,19.13 -58.5,37.06 -88.93,53.3"/>
    </g>
    <g>
     <path class="fil0 str2" d="M1592.37 2163.97c-127.99,52.93 -265.57,80.39 -404.18,80.39 -69.11,0 -138.35,-6.83 -206.04,-20.24"/>
    </g>
    <g>
     <path class="fil0 str2" d="M784.01 2163.97c-31.9,-13.22 -63.23,-28.05 -93.66,-44.3"/>
    </g>
    <g>
     <path class="fil0 str2" d="M441.36 1935.02c-98,-97.99 -175.89,-214.56 -228.88,-342.6"/>
    </g>
    <g>
     <path class="fil0 str2" d="M177.5 1494.78c-30,-99.26 -45.48,-202.8 -45.48,-306.59 0,-103.79 15.47,-207.33 45.52,-306.62"/>
    </g>
    <g>
     <path class="fil0 str2" d="M310.02 601.42c57.58,-86.31 127.99,-163.93 208.19,-229.69"/>
    </g>
    <g>
     <path class="fil0 str2" d="M1303.22 20.32c600.46,58.97 1058.49,564.42 1058.49,1167.87 0,648.01 -525.51,1173.52 -1173.52,1173.52 -648,0 -1173.52,-525.51 -1173.52,-1173.52 0,-648 525.51,-1173.52 1173.52,-1173.52"/>
    </g>
   </g>
   <g>
    <g>
     <line class="fil0 str3" x1="1188.19" y1="132.02" x2="1188.19" y2= "366.72" />
    </g>
    <g>
     <line class="fil0 str3" x1="1188.19" y1="484.08" x2="1188.19" y2= "601.43" />
    </g>
    <g>
     <line class="fil0 str3" x1="1348.45" y1="382.51" x2="1302.66" y2= "612.7" />
    </g>
    <g>
     <line class="fil0 str3" x1="1528.85" y1="65.2" x2="1494.78" y2= "177.5" />
    </g>
    <g>
     <line class="fil0 str3" x1="1637.28" y1="104" x2="1547.46" y2= "320.84" />
    </g>
    <g>
     <line class="fil0 str3" x1="1457.64" y1="537.67" x2="1367.83" y2= "754.51" />
    </g>
    <g>
     <line class="fil0 str3" x1="1774.97" y1="310.02" x2="1709.77" y2= "407.59" />
    </g>
    <g>
     <line class="fil0 str3" x1="1644.57" y1="505.17" x2="1514.18" y2= "700.32" />
    </g>
    <g>
     <line class="fil0 str3" x1="1932.67" y1="281.05" x2="1858.22" y2= "371.76" />
    </g>
    <g>
     <line class="fil0 str3" x1="1935.01" y1="441.37" x2="1769.05" y2= "607.33" />
    </g>
    <g>
     <line class="fil0 str3" x1="2095.34" y1="443.72" x2="2004.62" y2= "518.16" />
    </g>
    <g>
     <line class="fil0 str3" x1="2066.37" y1="601.42" x2="1968.79" y2= "666.61" />
    </g>
    <g>
     <line class="fil0 str3" x1="1871.21" y1="731.81" x2="1773.64" y2= "797.01" />
    </g>
    <g>
     <line class="fil0 str3" x1="2163.97" y1="784.01" x2="1947.13" y2= "873.83" />
    </g>
    <g>
     <line class="fil0 str3" x1="1838.71" y1="918.74" x2="1730.29" y2= "963.65" />
    </g>
    <g>
     <line class="fil0 str3" x1="2311.18" y1="847.54" x2="2198.88" y2= "881.6" />
    </g>
    <g>
     <line class="fil0 str3" x1="2339.17" y1="959.25" x2="2108.97" y2= "1005.04" />
    </g>
    <g>
     <line class="fil0 str3" x1="1993.87" y1="1027.93" x2="1878.77" y2= "1050.83" />
    </g>
    <g>
     <line class="fil0 str3" x1="2127.01" y1="1188.19" x2="1540.25" y2= "1188.19" />
    </g>
    <g>
     <line class="fil0 str3" x1="2224.07" y1="1394.24" x2="1878.77" y2= "1325.56" />
    </g>
    <g>
     <line class="fil0 str3" x1="2163.97" y1="1592.37" x2="2055.55" y2= "1547.46" />
    </g>
    <g>
     <line class="fil0 str3" x1="1730.29" y1="1412.74" x2="1513.45" y2= "1322.92" />
    </g>
    <g>
     <line class="fil0 str3" x1="2223.14" y1="1741.39" x2="2119.65" y2= "1686.07" />
    </g>
    <g>
     <line class="fil0 str3" x1="1935.01" y1="1935.02" x2="1852.03" y2= "1852.04" />
    </g>
    <g>
     <line class="fil0 str3" x1="1769.05" y1="1769.06" x2="1603.09" y2= "1603.1" />
    </g>
    <g>
     <line class="fil0 str3" x1="1437.13" y1="1437.13" x2="1354.15" y2= "1354.15" />
    </g>
    <g>
     <line class="fil0 str3" x1="1932.67" y1="2095.34" x2="1858.22" y2= "2004.62" />
    </g>
    <g>
     <line class="fil0 str3" x1="1709.77" y1="1968.79" x2="1644.57" y2= "1871.22" />
    </g>
    <g>
     <line class="fil0 str3" x1="1741.39" y1="2223.15" x2="1686.07" y2= "2119.65" />
    </g>
    <g>
     <line class="fil0 str3" x1="1592.37" y1="2163.97" x2="1547.46" y2= "2055.55" />
    </g>
    <g>
     <line class="fil0 str3" x1="1502.55" y1="1947.13" x2="1322.92" y2= "1513.45" />
    </g>
    <g>
     <line class="fil0 str3" x1="1371.34" y1="2108.97" x2="1325.56" y2= "1878.78" />
    </g>
    <g>
     <line class="fil0 str3" x1="1188.19" y1="2244.36" x2="1188.19" y2= "2009.66" />
    </g>
    <g>
     <line class="fil0 str3" x1="1027.93" y1="1993.87" x2="1050.82" y2= "1878.78" />
    </g>
    <g>
     <line class="fil0 str3" x1="847.53" y1="2311.19" x2="881.6" y2= "2198.89" />
    </g>
    <g>
     <line class="fil0 str3" x1="784.01" y1="2163.97" x2="828.92" y2= "2055.55" />
    </g>
    <g>
     <line class="fil0 str3" x1="873.83" y1="1947.13" x2="963.65" y2= "1730.29" />
    </g>
    <g>
     <line class="fil0 str3" x1="536.21" y1="2163.94" x2="601.41" y2= "2066.37" />
    </g>
    <g>
     <line class="fil0 str3" x1="443.71" y1="2095.34" x2="518.16" y2= "2004.62" />
    </g>
    <g>
     <line class="fil0 str3" x1="690.31" y1="1686.08" x2="773.29" y2= "1603.1" />
    </g>
    <g>
     <line class="fil0 str3" x1="939.25" y1="1437.13" x2="1022.23" y2= "1354.15" />
    </g>
    <g>
     <line class="fil0 str3" x1="310.02" y1="1774.97" x2="505.17" y2= "1644.58" />
    </g>
    <g>
     <line class="fil0 str3" x1="602.74" y1="1579.38" x2="700.31" y2= "1514.18" />
    </g>
    <g>
     <line class="fil0 str3" x1="429.25" y1="1502.56" x2="537.67" y2= "1457.64" />
    </g>
    <g>
     <line class="fil0 str3" x1="754.51" y1="1367.83" x2="862.93" y2= "1322.92" />
    </g>
    <g>
     <line class="fil0 str3" x1="65.2" y1="1528.85" x2="177.5" y2= "1494.78" />
    </g>
    <g>
     <line class="fil0 str3" x1="152.31" y1="1394.24" x2="382.51" y2= "1348.45" />
    </g>
    <g>
     <line class="fil0 str3" x1="249.37" y1="1188.19" x2="601.43" y2= "1188.19" />
    </g>
    <g>
     <line class="fil0 str3" x1="104" y1="739.1" x2="537.67" y2= "918.74" />
    </g>
    <g>
     <line class="fil0 str3" x1="754.51" y1="1008.56" x2="862.93" y2= "1053.47" />
    </g>
    <g>
     <line class="fil0 str3" x1="153.23" y1="635" x2="256.73" y2= "690.32" />
    </g>
    <g>
     <line class="fil0 str3" x1="407.59" y1="666.61" x2="505.17" y2= "731.81" />
    </g>
    <g>
     <line class="fil0 str3" x1="602.74" y1="797.01" x2="700.31" y2= "862.2" />
    </g>
    <g>
     <line class="fil0 str3" x1="441.36" y1="441.37" x2="524.34" y2= "524.35" />
    </g>
    <g>
     <line class="fil0 str3" x1="607.33" y1="607.33" x2="690.31" y2= "690.31" />
    </g>
    <g>
     <line class="fil0 str3" x1="939.25" y1="939.25" x2="1022.23" y2= "1022.23" />
    </g>
    <g>
     <line class="fil0 str3" x1="443.71" y1="281.05" x2="518.16" y2= "371.76" />
    </g>
    <g>
     <line class="fil0 str3" x1="784.01" y1="212.42" x2="828.92" y2= "320.84" />
    </g>
    <g>
     <line class="fil0 str3" x1="918.74" y1="537.67" x2="1053.46" y2= "862.93" />
    </g>
    <g>
     <line class="fil0 str3" x1="1005.03" y1="267.41" x2="1073.72" y2= "612.7" />
    </g>
   </g>
  </g>
 </g>
</svg>
