<?xml version="1.0" encoding="UTF-8"?>
<!DOCTYPE svg PUBLIC "-//W3C//DTD SVG 1.1//EN" "http://www.w3.org/Graphics/SVG/1.1/DTD/svg11.dtd">
<!-- Creator: CorelDRAW 2018 (64-Bit) -->
<svg xmlns="http://www.w3.org/2000/svg" xml:space="preserve" width="3.37499in" height="3.37499in" version="1.1" style="shape-rendering:geometricPrecision; text-rendering:geometricPrecision; image-rendering:optimizeQuality; fill-rule:evenodd; clip-rule:evenodd"
viewBox="0 0 902.2 902.2"
 xmlns:xlink="http://www.w3.org/1999/xlink">
 <defs>
  <style type="text/css">
   <![CDATA[
    .str1 {stroke:#337768;stroke-width:11.14;stroke-miterlimit:2.61313}
    .str3 {stroke:#AFEEA8;stroke-width:7.43;stroke-miterlimit:2.61313}
    .str0 {stroke:#337768;stroke-width:11.14;stroke-linecap:square;stroke-miterlimit:2.61313}
    .str2 {stroke:#AFEEA8;stroke-width:7.43;stroke-linecap:square;stroke-miterlimit:2.61313}
    .fil0 {fill:none}
   ]]>
  </style>
 </defs>
 <g id="Layer_x0020_1">
  <metadata id="CorelCorpID_0Corel-Layer"/>
  <g id="_2422111684080">
   <g>
    <g>
     <path class="fil0 str0" d="M388.09 514.11c-16.7,-16.7 -26.1,-39.38 -26.1,-63.01 0,-49.2 39.9,-89.1 89.1,-89.1 49.2,0 89.11,39.9 89.11,89.1 0,49.2 -39.9,89.11 -89.11,89.11"/>
    </g>
    <g>
     <path class="fil0 str0" d="M502.25 327.62c32.74,13.57 58.77,39.6 72.33,72.33"/>
    </g>
    <g>
     <path class="fil0 str0" d="M574.59 502.25c-20.68,49.92 -69.44,82.51 -123.49,82.51"/>
    </g>
    <g>
     <path class="fil0 str0" d="M399.95 574.59c-16.21,-6.72 -30.96,-16.57 -43.36,-28.97"/>
    </g>
    <g>
     <path class="fil0 str0" d="M327.62 502.25c-6.7,-16.2 -10.17,-33.61 -10.17,-51.15 0,-17.54 3.48,-34.95 10.18,-51.15"/>
    </g>
    <g>
     <path class="fil0 str0" d="M356.59 356.59c12.4,-12.4 27.15,-22.26 43.36,-28.97"/>
    </g>
    <g>
     <path class="fil0 str0" d="M382.9 286.45c21.6,-8.93 44.81,-13.56 68.2,-13.56 98.41,0 178.21,79.81 178.21,178.21"/>
    </g>
    <g>
     <path class="fil0 str0" d="M615.75 519.3c-8.95,21.61 -22.09,41.28 -38.63,57.82"/>
    </g>
    <g>
     <path class="fil0 str0" d="M519.3 615.75c-21.6,8.93 -44.81,13.56 -68.2,13.56 -98.4,0 -178.21,-79.81 -178.21,-178.21"/>
    </g>
    <g>
     <path class="fil0 str0" d="M286.45 382.9c8.96,-21.61 22.1,-41.28 38.63,-57.82"/>
    </g>
    <g>
     <path class="fil0 str0" d="M293.58 293.58c41.75,-41.75 98.45,-65.25 157.52,-65.25"/>
    </g>
    <g>
     <path class="fil0 str0" d="M494.56 232.62c57.93,11.49 108.98,45.6 141.78,94.72"/>
    </g>
    <g>
     <path class="fil0 str0" d="M669.59 407.64c2.84,14.28 4.28,28.88 4.28,43.46 0,29.24 -5.79,58.25 -16.97,85.26"/>
    </g>
    <g>
     <path class="fil0 str0" d="M636.32 574.86c-32.79,49.12 -83.84,83.23 -141.76,94.73"/>
    </g>
    <g>
     <path class="fil0 str0" d="M451.1 673.87c-123.01,-0 -222.76,-99.76 -222.76,-222.77 0,-44.06 13.05,-87.13 37.53,-123.77"/>
    </g>
    <g>
     <path class="fil0 str0" d="M451.1 183.78c17.49,0 35.02,1.73 52.15,5.12"/>
    </g>
    <g>
     <path class="fil0 str0" d="M599.62 228.83c14.53,9.68 28.14,20.87 40.51,33.24"/>
    </g>
    <g>
     <path class="fil0 str0" d="M673.37 302.59c19.5,29.13 33.11,61.96 39.93,96.36"/>
    </g>
    <g>
     <path class="fil0 str0" d="M713.28 503.25c-6.81,34.4 -20.42,67.23 -39.9,96.37"/>
    </g>
    <g>
     <path class="fil0 str0" d="M553.4 698.07c-32.39,13.4 -67.22,20.35 -102.3,20.35"/>
    </g>
    <g>
     <path class="fil0 str0" d="M348.8 698.07c-32.42,-13.43 -61.92,-33.14 -86.73,-57.95"/>
    </g>
    <g>
     <path class="fil0 str0" d="M204.13 553.4c-13.4,-32.39 -20.35,-67.22 -20.35,-102.3"/>
    </g>
    <g>
     <path class="fil0 str0" d="M188.92 398.95c6.81,-34.4 20.42,-67.23 39.9,-96.37"/>
    </g>
    <g>
     <path class="fil0 str0" d="M390.26 145.22c19.99,-3.97 40.44,-5.99 60.84,-5.99 20.41,0 40.85,2.02 60.84,5.98"/>
    </g>
    <g>
     <path class="fil0 str0" d="M756.98 390.26c3.97,19.99 5.99,40.44 5.99,60.84"/>
    </g>
    <g>
     <path class="fil0 str0" d="M739.23 570.45c-39.85,96.19 -125.17,166.25 -227.29,186.54"/>
    </g>
    <g>
     <path class="fil0 str0" d="M390.26 756.98c-40.13,-7.94 -78.43,-23.82 -112.44,-46.55"/>
    </g>
    <g>
     <path class="fil0 str0" d="M230.57 671.63c-14.43,-14.43 -27.49,-30.31 -38.8,-47.25"/>
    </g>
    <g>
     <path class="fil0 str0" d="M139.23 451.1c0,-20.41 2.02,-40.85 5.98,-60.84"/>
    </g>
    <g>
     <path class="fil0 str0" d="M162.97 331.75c15.67,-37.82 38.67,-72.24 67.6,-101.18"/>
    </g>
    <g>
     <path class="fil0 str0" d="M154.74 253.08c66.08,-98.97 177.35,-158.41 296.36,-158.41 94.51,0 185.24,37.6 252.04,104.39"/>
    </g>
    <g>
     <path class="fil0 str0" d="M747.46 253.08c26,38.84 44.14,82.62 53.24,128.48"/>
    </g>
    <g>
     <path class="fil0 str0" d="M807.53 451.1c-0,46.78 -9.27,93.21 -27.15,136.42"/>
    </g>
    <g>
     <path class="fil0 str0" d="M747.46 649.12c-12.91,19.38 -27.83,37.52 -44.32,54.01"/>
    </g>
    <g>
     <path class="fil0 str0" d="M520.64 800.68c-22.84,4.54 -46.21,6.85 -69.54,6.85 -46.77,0 -93.21,-9.27 -136.41,-27.15"/>
    </g>
    <g>
     <path class="fil0 str0" d="M253.08 747.46c-19.38,-12.91 -37.52,-27.83 -54.01,-44.32"/>
    </g>
    <g>
     <path class="fil0 str0" d="M121.81 587.5c-17.86,-43.19 -27.13,-89.62 -27.13,-136.4 0,-23.32 2.31,-46.69 6.83,-69.53"/>
    </g>
    <g>
     <path class="fil0 str0" d="M334.7 67.39c37.68,-11.39 76.99,-17.27 116.4,-17.27 26.24,0 52.53,2.59 78.23,7.69"/>
    </g>
    <g>
     <path class="fil0 str0" d="M567.5 67.39c12.55,3.78 24.98,8.29 37.07,13.28"/>
    </g>
    <g>
     <path class="fil0 str0" d="M640.12 97.47c58.1,31.03 107.78,76.02 144.4,130.84"/>
    </g>
    <g>
     <path class="fil0 str0" d="M821.56 297.65c20.09,48.59 30.52,100.82 30.52,153.45"/>
    </g>
    <g>
     <path class="fil0 str0" d="M850.15 490.4c-7.71,78.92 -38.8,153.77 -89.07,215.06"/>
    </g>
    <g>
     <path class="fil0 str0" d="M734.64 734.64c-18.55,18.56 -38.96,35.35 -60.75,49.89"/>
    </g>
    <g>
     <path class="fil0 str0" d="M604.55 821.56c-36.35,15.05 -74.93,24.79 -114.14,28.61"/>
    </g>
    <g>
     <path class="fil0 str0" d="M451.1 852.08c-13.12,-0 -26.29,-0.64 -39.31,-1.91"/>
    </g>
    <g>
     <path class="fil0 str0" d="M372.87 844.38c-51.6,-10.21 -100.84,-30.63 -144.56,-59.85"/>
    </g>
    <g>
     <path class="fil0 str0" d="M196.72 761.06c-40.66,-33.33 -74.49,-74.55 -99.26,-120.95"/>
    </g>
    <g>
     <path class="fil0 str0" d="M80.64 604.55c-4.97,-12.07 -9.47,-24.51 -13.24,-37.04"/>
    </g>
    <g>
     <path class="fil0 str0" d="M52.05 411.8c6.44,-65.6 29.01,-128.66 65.63,-183.48"/>
    </g>
    <g>
     <path class="fil0 str0" d="M141.14 196.72c41.79,-50.95 95.59,-90.84 156.49,-116.05"/>
    </g>
    <g>
     <path class="fil0 str0" d="M494.77 7.71c227.97,22.39 401.86,214.28 401.86,443.38 0,246.02 -199.51,445.53 -445.53,445.53 -246.02,0 -445.53,-199.51 -445.53,-445.53 0,-246.02 199.51,-445.53 445.53,-445.53"/>
    </g>
   </g>
   <g>
    <g>
     <line class="fil0 str1" x1="451.1" y1="183.78" x2="451.1" y2= "228.34" />
    </g>
    <g>
     <line class="fil0 str1" x1="451.1" y1="272.89" x2="451.1" y2= "317.44" />
    </g>
    <g>
     <line class="fil0 str1" x1="511.94" y1="145.22" x2="503.25" y2= "188.92" />
    </g>
    <g>
     <line class="fil0 str1" x1="580.43" y1="24.75" x2="567.5" y2= "67.39" />
    </g>
    <g>
     <line class="fil0 str1" x1="604.55" y1="80.65" x2="536.35" y2= "245.29" />
    </g>
    <g>
     <line class="fil0 str1" x1="624.37" y1="191.79" x2="599.62" y2= "228.83" />
    </g>
    <g>
     <line class="fil0 str1" x1="703.13" y1="199.07" x2="640.12" y2= "262.08" />
    </g>
    <g>
     <line class="fil0 str1" x1="545.61" y1="356.59" x2="514.11" y2= "388.09" />
    </g>
    <g>
     <line class="fil0 str1" x1="784.5" y1="228.33" x2="673.37" y2= "302.59" />
    </g>
    <g>
     <line class="fil0 str1" x1="844.02" y1="241.08" x2="804.73" y2= "262.08" />
    </g>
    <g>
     <line class="fil0 str1" x1="780.4" y1="314.7" x2="739.23" y2= "331.75" />
    </g>
    <g>
     <line class="fil0 str1" x1="698.07" y1="348.8" x2="615.75" y2= "382.9" />
    </g>
    <g>
     <line class="fil0 str1" x1="756.98" y1="390.26" x2="713.28" y2= "398.95" />
    </g>
    <g>
     <line class="fil0 str1" x1="896.63" y1="451.1" x2="718.42" y2= "451.1" />
    </g>
    <g>
     <line class="fil0 str1" x1="629.31" y1="451.1" x2="584.76" y2= "451.1" />
    </g>
    <g>
     <line class="fil0 str1" x1="800.68" y1="520.64" x2="713.28" y2= "503.25" />
    </g>
    <g>
     <line class="fil0 str1" x1="698.07" y1="553.4" x2="615.75" y2= "519.3" />
    </g>
    <g>
     <line class="fil0 str1" x1="784.5" y1="673.87" x2="710.41" y2= "624.37" />
    </g>
    <g>
     <line class="fil0 str1" x1="766.14" y1="766.14" x2="734.64" y2= "734.64" />
    </g>
    <g>
     <line class="fil0 str1" x1="671.63" y1="671.63" x2="608.62" y2= "608.62" />
    </g>
    <g>
     <line class="fil0 str1" x1="577.12" y1="577.12" x2="545.61" y2= "545.61" />
    </g>
    <g>
     <line class="fil0 str1" x1="673.87" y1="784.5" x2="649.12" y2= "747.46" />
    </g>
    <g>
     <line class="fil0 str1" x1="599.62" y1="673.37" x2="574.86" y2= "636.32" />
    </g>
    <g>
     <line class="fil0 str1" x1="661.12" y1="844.03" x2="640.12" y2= "804.73" />
    </g>
    <g>
     <line class="fil0 str1" x1="604.55" y1="821.56" x2="570.45" y2= "739.23" />
    </g>
    <g>
     <line class="fil0 str1" x1="536.35" y1="656.91" x2="519.3" y2= "615.75" />
    </g>
    <g>
     <line class="fil0 str1" x1="451.1" y1="896.63" x2="451.1" y2= "673.87" />
    </g>
    <g>
     <line class="fil0 str1" x1="451.1" y1="584.76" x2="451.1" y2= "540.21" />
    </g>
    <g>
     <line class="fil0 str1" x1="390.26" y1="756.98" x2="398.95" y2= "713.28" />
    </g>
    <g>
     <line class="fil0 str1" x1="348.8" y1="698.07" x2="365.85" y2= "656.91" />
    </g>
    <g>
     <line class="fil0 str1" x1="382.9" y1="615.75" x2="399.95" y2= "574.59" />
    </g>
    <g>
     <line class="fil0 str1" x1="203.58" y1="821.55" x2="277.83" y2= "710.41" />
    </g>
    <g>
     <line class="fil0 str1" x1="230.57" y1="671.63" x2="262.08" y2= "640.13" />
    </g>
    <g>
     <line class="fil0 str1" x1="356.59" y1="545.61" x2="388.09" y2= "514.11" />
    </g>
    <g>
     <line class="fil0 str1" x1="117.7" y1="673.87" x2="191.79" y2= "624.37" />
    </g>
    <g>
     <line class="fil0 str1" x1="228.83" y1="599.62" x2="265.88" y2= "574.86" />
    </g>
    <g>
     <line class="fil0 str1" x1="39.48" y1="621.6" x2="80.64" y2= "604.55" />
    </g>
    <g>
     <line class="fil0 str1" x1="162.97" y1="570.45" x2="204.13" y2= "553.4" />
    </g>
    <g>
     <line class="fil0 str1" x1="57.83" y1="529.33" x2="145.22" y2= "511.95" />
    </g>
    <g>
     <line class="fil0 str1" x1="7.71" y1="494.77" x2="52.05" y2= "490.4" />
    </g>
    <g>
     <line class="fil0 str1" x1="5.57" y1="451.1" x2="94.67" y2= "451.1" />
    </g>
    <g>
     <line class="fil0 str1" x1="139.23" y1="451.1" x2="228.33" y2= "451.1" />
    </g>
    <g>
     <line class="fil0 str1" x1="317.44" y1="451.1" x2="361.99" y2= "451.1" />
    </g>
    <g>
     <line class="fil0 str1" x1="121.81" y1="314.7" x2="204.13" y2= "348.8" />
    </g>
    <g>
     <line class="fil0 str1" x1="245.29" y1="365.85" x2="286.45" y2= "382.9" />
    </g>
    <g>
     <line class="fil0 str1" x1="117.7" y1="228.33" x2="154.74" y2= "253.08" />
    </g>
    <g>
     <line class="fil0 str1" x1="106.7" y1="168.46" x2="141.14" y2= "196.72" />
    </g>
    <g>
     <line class="fil0 str1" x1="230.57" y1="230.58" x2="356.59" y2= "356.59" />
    </g>
    <g>
     <line class="fil0 str1" x1="253.08" y1="154.74" x2="302.59" y2= "228.83" />
    </g>
    <g>
     <line class="fil0 str1" x1="331.75" y1="162.97" x2="365.85" y2= "245.29" />
    </g>
    <g>
     <line class="fil0 str1" x1="372.87" y1="57.83" x2="381.57" y2= "101.52" />
    </g>
    <g>
     <line class="fil0 str1" x1="390.26" y1="145.22" x2="398.95" y2= "188.92" />
    </g>
   </g>
  </g>
  <g>
   <g>
    <g>
     <path class="fil0 str2" d="M388.09 514.11c-16.7,-16.7 -26.1,-39.38 -26.1,-63.01 0,-49.2 39.9,-89.1 89.1,-89.1 49.2,0 89.11,39.9 89.11,89.1 0,49.2 -39.9,89.11 -89.11,89.11"/>
    </g>
    <g>
     <path class="fil0 str2" d="M502.25 327.62c32.74,13.57 58.77,39.6 72.33,72.33"/>
    </g>
    <g>
     <path class="fil0 str2" d="M574.59 502.25c-20.68,49.92 -69.44,82.51 -123.49,82.51"/>
    </g>
    <g>
     <path class="fil0 str2" d="M399.95 574.59c-16.21,-6.72 -30.96,-16.57 -43.36,-28.97"/>
    </g>
    <g>
     <path class="fil0 str2" d="M327.62 502.25c-6.7,-16.2 -10.17,-33.61 -10.17,-51.15 0,-17.54 3.48,-34.95 10.18,-51.15"/>
    </g>
    <g>
     <path class="fil0 str2" d="M356.59 356.59c12.4,-12.4 27.15,-22.26 43.36,-28.97"/>
    </g>
    <g>
     <path class="fil0 str2" d="M382.9 286.45c21.6,-8.93 44.81,-13.56 68.2,-13.56 98.41,0 178.21,79.81 178.21,178.21"/>
    </g>
    <g>
     <path class="fil0 str2" d="M615.75 519.3c-8.95,21.61 -22.09,41.28 -38.63,57.82"/>
    </g>
    <g>
     <path class="fil0 str2" d="M519.3 615.75c-21.6,8.93 -44.81,13.56 -68.2,13.56 -98.4,0 -178.21,-79.81 -178.21,-178.21"/>
    </g>
    <g>
     <path class="fil0 str2" d="M286.45 382.9c8.96,-21.61 22.1,-41.28 38.63,-57.82"/>
    </g>
    <g>
     <path class="fil0 str2" d="M293.58 293.58c41.75,-41.75 98.45,-65.25 157.52,-65.25"/>
    </g>
    <g>
     <path class="fil0 str2" d="M494.56 232.62c57.93,11.49 108.98,45.6 141.78,94.72"/>
    </g>
    <g>
     <path class="fil0 str2" d="M669.59 407.64c2.84,14.28 4.28,28.88 4.28,43.46 0,29.24 -5.79,58.25 -16.97,85.26"/>
    </g>
    <g>
     <path class="fil0 str2" d="M636.32 574.86c-32.79,49.12 -83.84,83.23 -141.76,94.73"/>
    </g>
    <g>
     <path class="fil0 str2" d="M451.1 673.87c-123.01,-0 -222.76,-99.76 -222.76,-222.77 0,-44.06 13.05,-87.13 37.53,-123.77"/>
    </g>
    <g>
     <path class="fil0 str2" d="M451.1 183.78c17.49,0 35.02,1.73 52.15,5.12"/>
    </g>
    <g>
     <path class="fil0 str2" d="M599.62 228.83c14.53,9.68 28.14,20.87 40.51,33.24"/>
    </g>
    <g>
     <path class="fil0 str2" d="M673.37 302.59c19.5,29.13 33.11,61.96 39.93,96.36"/>
    </g>
    <g>
     <path class="fil0 str2" d="M713.28 503.25c-6.81,34.4 -20.42,67.23 -39.9,96.37"/>
    </g>
    <g>
     <path class="fil0 str2" d="M553.4 698.07c-32.39,13.4 -67.22,20.35 -102.3,20.35"/>
    </g>
    <g>
     <path class="fil0 str2" d="M348.8 698.07c-32.42,-13.43 -61.92,-33.14 -86.73,-57.95"/>
    </g>
    <g>
     <path class="fil0 str2" d="M204.13 553.4c-13.4,-32.39 -20.35,-67.22 -20.35,-102.3"/>
    </g>
    <g>
     <path class="fil0 str2" d="M188.92 398.95c6.81,-34.4 20.42,-67.23 39.9,-96.37"/>
    </g>
    <g>
     <path class="fil0 str2" d="M390.26 145.22c19.99,-3.97 40.44,-5.99 60.84,-5.99 20.41,0 40.85,2.02 60.84,5.98"/>
    </g>
    <g>
     <path class="fil0 str2" d="M756.98 390.26c3.97,19.99 5.99,40.44 5.99,60.84"/>
    </g>
    <g>
     <path class="fil0 str2" d="M739.23 570.45c-39.85,96.19 -125.17,166.25 -227.29,186.54"/>
    </g>
    <g>
     <path class="fil0 str2" d="M390.26 756.98c-40.13,-7.94 -78.43,-23.82 -112.44,-46.55"/>
    </g>
    <g>
     <path class="fil0 str2" d="M230.57 671.63c-14.43,-14.43 -27.49,-30.31 -38.8,-47.25"/>
    </g>
    <g>
     <path class="fil0 str2" d="M139.23 451.1c0,-20.41 2.02,-40.85 5.98,-60.84"/>
    </g>
    <g>
     <path class="fil0 str2" d="M162.97 331.75c15.67,-37.82 38.67,-72.24 67.6,-101.18"/>
    </g>
    <g>
     <path class="fil0 str2" d="M154.74 253.08c66.08,-98.97 177.35,-158.41 296.36,-158.41 94.51,0 185.24,37.6 252.04,104.39"/>
    </g>
    <g>
     <path class="fil0 str2" d="M747.46 253.08c26,38.84 44.14,82.62 53.24,128.48"/>
    </g>
    <g>
     <path class="fil0 str2" d="M807.53 451.1c-0,46.78 -9.27,93.21 -27.15,136.42"/>
    </g>
    <g>
     <path class="fil0 str2" d="M747.46 649.12c-12.91,19.38 -27.83,37.52 -44.32,54.01"/>
    </g>
    <g>
     <path class="fil0 str2" d="M520.64 800.68c-22.84,4.54 -46.21,6.85 -69.54,6.85 -46.77,0 -93.21,-9.27 -136.41,-27.15"/>
    </g>
    <g>
     <path class="fil0 str2" d="M253.08 747.46c-19.38,-12.91 -37.52,-27.83 -54.01,-44.32"/>
    </g>
    <g>
     <path class="fil0 str2" d="M121.81 587.5c-17.86,-43.19 -27.13,-89.62 -27.13,-136.4 0,-23.32 2.31,-46.69 6.83,-69.53"/>
    </g>
    <g>
     <path class="fil0 str2" d="M334.7 67.39c37.68,-11.39 76.99,-17.27 116.4,-17.27 26.24,0 52.53,2.59 78.23,7.69"/>
    </g>
    <g>
     <path class="fil0 str2" d="M567.5 67.39c12.55,3.78 24.98,8.29 37.07,13.28"/>
    </g>
    <g>
     <path class="fil0 str2" d="M640.12 97.47c58.1,31.03 107.78,76.02 144.4,130.84"/>
    </g>
    <g>
     <path class="fil0 str2" d="M821.56 297.65c20.09,48.59 30.52,100.82 30.52,153.45"/>
    </g>
    <g>
     <path class="fil0 str2" d="M850.15 490.4c-7.71,78.92 -38.8,153.77 -89.07,215.06"/>
    </g>
    <g>
     <path class="fil0 str2" d="M734.64 734.64c-18.55,18.56 -38.96,35.35 -60.75,49.89"/>
    </g>
    <g>
     <path class="fil0 str2" d="M604.55 821.56c-36.35,15.05 -74.93,24.79 -114.14,28.61"/>
    </g>
    <g>
     <path class="fil0 str2" d="M451.1 852.08c-13.12,-0 -26.29,-0.64 -39.31,-1.91"/>
    </g>
    <g>
     <path class="fil0 str2" d="M372.87 844.38c-51.6,-10.21 -100.84,-30.63 -144.56,-59.85"/>
    </g>
    <g>
     <path class="fil0 str2" d="M196.72 761.06c-40.66,-33.33 -74.49,-74.55 -99.26,-120.95"/>
    </g>
    <g>
     <path class="fil0 str2" d="M80.64 604.55c-4.97,-12.07 -9.47,-24.51 -13.24,-37.04"/>
    </g>
    <g>
     <path class="fil0 str2" d="M52.05 411.8c6.44,-65.6 29.01,-128.66 65.63,-183.48"/>
    </g>
    <g>
     <path class="fil0 str2" d="M141.14 196.72c41.79,-50.95 95.59,-90.84 156.49,-116.05"/>
    </g>
    <g>
     <path class="fil0 str2" d="M494.77 7.71c227.97,22.39 401.86,214.28 401.86,443.38 0,246.02 -199.51,445.53 -445.53,445.53 -246.02,0 -445.53,-199.51 -445.53,-445.53 0,-246.02 199.51,-445.53 445.53,-445.53"/>
    </g>
   </g>
   <g>
    <g>
     <line class="fil0 str3" x1="451.1" y1="183.78" x2="451.1" y2= "228.34" />
    </g>
    <g>
     <line class="fil0 str3" x1="451.1" y1="272.89" x2="451.1" y2= "317.44" />
    </g>
    <g>
     <line class="fil0 str3" x1="511.94" y1="145.22" x2="503.25" y2= "188.92" />
    </g>
    <g>
     <line class="fil0 str3" x1="580.43" y1="24.75" x2="567.5" y2= "67.39" />
    </g>
    <g>
     <line class="fil0 str3" x1="604.55" y1="80.65" x2="536.35" y2= "245.29" />
    </g>
    <g>
     <line class="fil0 str3" x1="624.37" y1="191.79" x2="599.62" y2= "228.83" />
    </g>
    <g>
     <line class="fil0 str3" x1="703.13" y1="199.07" x2="640.12" y2= "262.08" />
    </g>
    <g>
     <line class="fil0 str3" x1="545.61" y1="356.59" x2="514.11" y2= "388.09" />
    </g>
    <g>
     <line class="fil0 str3" x1="784.5" y1="228.33" x2="673.37" y2= "302.59" />
    </g>
    <g>
     <line class="fil0 str3" x1="844.02" y1="241.08" x2="804.73" y2= "262.08" />
    </g>
    <g>
     <line class="fil0 str3" x1="780.4" y1="314.7" x2="739.23" y2= "331.75" />
    </g>
    <g>
     <line class="fil0 str3" x1="698.07" y1="348.8" x2="615.75" y2= "382.9" />
    </g>
    <g>
     <line class="fil0 str3" x1="756.98" y1="390.26" x2="713.28" y2= "398.95" />
    </g>
    <g>
     <line class="fil0 str3" x1="896.63" y1="451.1" x2="718.42" y2= "451.1" />
    </g>
    <g>
     <line class="fil0 str3" x1="629.31" y1="451.1" x2="584.76" y2= "451.1" />
    </g>
    <g>
     <line class="fil0 str3" x1="800.68" y1="520.64" x2="713.28" y2= "503.25" />
    </g>
    <g>
     <line class="fil0 str3" x1="698.07" y1="553.4" x2="615.75" y2= "519.3" />
    </g>
    <g>
     <line class="fil0 str3" x1="784.5" y1="673.87" x2="710.41" y2= "624.37" />
    </g>
    <g>
     <line class="fil0 str3" x1="766.14" y1="766.14" x2="734.64" y2= "734.64" />
    </g>
    <g>
     <line class="fil0 str3" x1="671.63" y1="671.63" x2="608.62" y2= "608.62" />
    </g>
    <g>
     <line class="fil0 str3" x1="577.12" y1="577.12" x2="545.61" y2= "545.61" />
    </g>
    <g>
     <line class="fil0 str3" x1="673.87" y1="784.5" x2="649.12" y2= "747.46" />
    </g>
    <g>
     <line class="fil0 str3" x1="599.62" y1="673.37" x2="574.86" y2= "636.32" />
    </g>
    <g>
     <line class="fil0 str3" x1="661.12" y1="844.03" x2="640.12" y2= "804.73" />
    </g>
    <g>
     <line class="fil0 str3" x1="604.55" y1="821.56" x2="570.45" y2= "739.23" />
    </g>
    <g>
     <line class="fil0 str3" x1="536.35" y1="656.91" x2="519.3" y2= "615.75" />
    </g>
    <g>
     <line class="fil0 str3" x1="451.1" y1="896.63" x2="451.1" y2= "673.87" />
    </g>
    <g>
     <line class="fil0 str3" x1="451.1" y1="584.76" x2="451.1" y2= "540.21" />
    </g>
    <g>
     <line class="fil0 str3" x1="390.26" y1="756.98" x2="398.95" y2= "713.28" />
    </g>
    <g>
     <line class="fil0 str3" x1="348.8" y1="698.07" x2="365.85" y2= "656.91" />
    </g>
    <g>
     <line class="fil0 str3" x1="382.9" y1="615.75" x2="399.95" y2= "574.59" />
    </g>
    <g>
     <line class="fil0 str3" x1="203.58" y1="821.55" x2="277.83" y2= "710.41" />
    </g>
    <g>
     <line class="fil0 str3" x1="230.57" y1="671.63" x2="262.08" y2= "640.13" />
    </g>
    <g>
     <line class="fil0 str3" x1="356.59" y1="545.61" x2="388.09" y2= "514.11" />
    </g>
    <g>
     <line class="fil0 str3" x1="117.7" y1="673.87" x2="191.79" y2= "624.37" />
    </g>
    <g>
     <line class="fil0 str3" x1="228.83" y1="599.62" x2="265.88" y2= "574.86" />
    </g>
    <g>
     <line class="fil0 str3" x1="39.48" y1="621.6" x2="80.64" y2= "604.55" />
    </g>
    <g>
     <line class="fil0 str3" x1="162.97" y1="570.45" x2="204.13" y2= "553.4" />
    </g>
    <g>
     <line class="fil0 str3" x1="57.83" y1="529.33" x2="145.22" y2= "511.95" />
    </g>
    <g>
     <line class="fil0 str3" x1="7.71" y1="494.77" x2="52.05" y2= "490.4" />
    </g>
    <g>
     <line class="fil0 str3" x1="5.57" y1="451.1" x2="94.67" y2= "451.1" />
    </g>
    <g>
     <line class="fil0 str3" x1="139.23" y1="451.1" x2="228.33" y2= "451.1" />
    </g>
    <g>
     <line class="fil0 str3" x1="317.44" y1="451.1" x2="361.99" y2= "451.1" />
    </g>
    <g>
     <line class="fil0 str3" x1="121.81" y1="314.7" x2="204.13" y2= "348.8" />
    </g>
    <g>
     <line class="fil0 str3" x1="245.29" y1="365.85" x2="286.45" y2= "382.9" />
    </g>
    <g>
     <line class="fil0 str3" x1="117.7" y1="228.33" x2="154.74" y2= "253.08" />
    </g>
    <g>
     <line class="fil0 str3" x1="106.7" y1="168.46" x2="141.14" y2= "196.72" />
    </g>
    <g>
     <line class="fil0 str3" x1="230.57" y1="230.58" x2="356.59" y2= "356.59" />
    </g>
    <g>
     <line class="fil0 str3" x1="253.08" y1="154.74" x2="302.59" y2= "228.83" />
    </g>
    <g>
     <line class="fil0 str3" x1="331.75" y1="162.97" x2="365.85" y2= "245.29" />
    </g>
    <g>
     <line class="fil0 str3" x1="372.87" y1="57.83" x2="381.57" y2= "101.52" />
    </g>
    <g>
     <line class="fil0 str3" x1="390.26" y1="145.22" x2="398.95" y2= "188.92" />
    </g>
   </g>
  </g>
 </g>
</svg>
