<?xml version="1.0" encoding="UTF-8"?>
<!DOCTYPE svg PUBLIC "-//W3C//DTD SVG 1.1//EN" "http://www.w3.org/Graphics/SVG/1.1/DTD/svg11.dtd">
<!-- Creator: CorelDRAW 2018 (64-Bit) -->
<svg xmlns="http://www.w3.org/2000/svg" xml:space="preserve" width="3.37499in" height="3.37499in" version="1.1" style="shape-rendering:geometricPrecision; text-rendering:geometricPrecision; image-rendering:optimizeQuality; fill-rule:evenodd; clip-rule:evenodd"
viewBox="0 0 3637.07 3637.07"
 xmlns:xlink="http://www.w3.org/1999/xlink">
 <defs>
  <style type="text/css">
   <![CDATA[
    .str1 {stroke:#337768;stroke-width:44.9;stroke-miterlimit:2.61313}
    .str3 {stroke:#AFEEA8;stroke-width:29.94;stroke-miterlimit:2.61313}
    .str0 {stroke:#337768;stroke-width:44.9;stroke-linecap:square;stroke-miterlimit:2.61313}
    .str2 {stroke:#AFEEA8;stroke-width:29.94;stroke-linecap:square;stroke-miterlimit:2.61313}
    .fil0 {fill:none}
   ]]>
  </style>
 </defs>
 <g id="Layer_x0020_1">
  <metadata id="CorelCorpID_0Corel-Layer"/>
  <g id="_2422258422224">
   <g>
    <g>
     <path class="fil0 str0" d="M1564.53 2072.54c-67.32,-67.32 -105.21,-158.76 -105.21,-254.01 0,-198.34 160.86,-359.21 359.21,-359.21 198.36,0 359.22,160.86 359.22,359.21 0,198.36 -160.86,359.22 -359.22,359.22"/>
    </g>
    <g>
     <path class="fil0 str0" d="M1818.53 1279.71c70.71,0 140.9,14.01 206.23,41.05"/>
    </g>
    <g>
     <path class="fil0 str0" d="M2316.34 1612.34c27,65.3 41.01,135.48 41.01,206.19 0,70.72 -14.01,140.91 -41.05,206.23"/>
    </g>
    <g>
     <path class="fil0 str0" d="M2199.54 2199.54c-100.97,100.98 -238.13,157.81 -381.01,157.81"/>
    </g>
    <g>
     <path class="fil0 str0" d="M1612.33 2316.35c-201.25,-83.39 -332.62,-279.95 -332.62,-497.82"/>
    </g>
    <g>
     <path class="fil0 str0" d="M1154.79 2093.47c-36,-87.07 -54.68,-180.65 -54.68,-274.94 0,-396.7 321.72,-718.42 718.42,-718.42"/>
    </g>
    <g>
     <path class="fil0 str0" d="M2093.46 1154.79c268.34,111.18 443.5,373.25 443.5,663.74 0,190.51 -75.78,373.38 -210.42,508.02"/>
    </g>
    <g>
     <path class="fil0 str0" d="M1818.53 2536.97c-94.28,-0.01 -187.87,-18.69 -274.96,-54.74"/>
    </g>
    <g>
     <path class="fil0 str0" d="M1818.53 920.49c177.61,0 351.28,52.63 498.96,151.3"/>
    </g>
    <g>
     <path class="fil0 str0" d="M2453.54 1183.53c168.3,168.28 263.03,396.88 263.03,635 0,177.61 -52.63,351.28 -151.3,498.96"/>
    </g>
    <g>
     <path class="fil0 str0" d="M2453.54 2453.55c-41.54,41.55 -87.26,79.16 -136.06,111.72"/>
    </g>
    <g>
     <path class="fil0 str0" d="M2162.2 2648.22c-108.83,45 -225.81,68.35 -343.67,68.35 -58.75,0 -117.63,-5.81 -175.19,-17.21"/>
    </g>
    <g>
     <path class="fil0 str0" d="M1474.87 2648.22c-54.32,-22.54 -106.51,-50.38 -155.29,-82.95"/>
    </g>
    <g>
     <path class="fil0 str0" d="M1071.84 2317.46c-98.72,-147.66 -151.34,-321.32 -151.34,-498.94 0,-58.75 5.81,-117.63 17.21,-175.19"/>
    </g>
    <g>
     <path class="fil0 str0" d="M988.85 1474.87c22.54,-54.32 50.38,-106.51 82.95,-155.3"/>
    </g>
    <g>
     <path class="fil0 str0" d="M1474.87 988.85c54.23,-22.42 110.91,-39.74 168.47,-51.15"/>
    </g>
    <g>
     <path class="fil0 str0" d="M1608.3 761.59c69.08,-13.73 139.73,-20.7 210.23,-20.7"/>
    </g>
    <g>
     <path class="fil0 str0" d="M2028.77 761.59c208.92,41.53 401.14,144.28 551.78,294.92"/>
    </g>
    <g>
     <path class="fil0 str0" d="M2875.47 1608.3c13.73,69.07 20.7,139.72 20.7,210.23 0,141.43 -28.02,281.81 -82.1,412.46"/>
    </g>
    <g>
     <path class="fil0 str0" d="M2714.57 2417.25c-158.61,237.64 -405.56,402.62 -685.8,458.27"/>
    </g>
    <g>
     <path class="fil0 str0" d="M1818.53 2896.19c-141.42,-0.01 -281.81,-28.03 -412.45,-82.11"/>
    </g>
    <g>
     <path class="fil0 str0" d="M1056.52 2580.55c-49.87,-49.86 -95,-104.72 -134.07,-163.27"/>
    </g>
    <g>
     <path class="fil0 str0" d="M740.88 1818.53c0,-141.43 28.03,-281.81 82.1,-412.45"/>
    </g>
    <g>
     <path class="fil0 str0" d="M922.5 1219.83c118.36,-177.26 286.76,-315.27 483.58,-396.84"/>
    </g>
    <g>
     <path class="fil0 str0" d="M1818.53 561.27c165,0 328.78,32.7 481.2,95.78"/>
    </g>
    <g>
     <path class="fil0 str0" d="M2517.03 773.17c68.35,45.52 132.36,98.17 190.53,156.34"/>
    </g>
    <g>
     <path class="fil0 str0" d="M3051.63 1573.26c16.02,80.58 24.15,163.01 24.15,245.27"/>
    </g>
    <g>
     <path class="fil0 str0" d="M2980.09 2299.67c-31.54,76.04 -70.54,149.1 -116.12,217.41"/>
    </g>
    <g>
     <path class="fil0 str0" d="M2707.55 2707.55c-116.65,116.66 -255.4,209.37 -407.82,272.46"/>
    </g>
    <g>
     <path class="fil0 str0" d="M2063.81 3051.64c-80.59,16.02 -163.01,24.15 -245.28,24.15"/>
    </g>
    <g>
     <path class="fil0 str0" d="M1573.25 3051.64c-161.78,-32.03 -316.19,-96.03 -453.26,-187.67"/>
    </g>
    <g>
     <path class="fil0 str0" d="M929.52 2707.55c-116.66,-116.65 -209.37,-255.41 -272.46,-407.82"/>
    </g>
    <g>
     <path class="fil0 str0" d="M585.43 2063.82c-16.02,-80.59 -24.15,-163.02 -24.15,-245.29 0,-82.26 8.13,-164.69 24.1,-245.27"/>
    </g>
    <g>
     <path class="fil0 str0" d="M773.16 1120.04c91.58,-137.12 209.76,-255.31 346.83,-346.94"/>
    </g>
    <g>
     <path class="fil0 str0" d="M1337.4 656.98c75.92,-31.39 155.27,-55.64 235.86,-71.6"/>
    </g>
    <g>
     <path class="fil0 str0" d="M1538.21 409.28c92.1,-18.32 186.3,-27.61 280.31,-27.61"/>
    </g>
    <g>
     <path class="fil0 str0" d="M2098.85 409.28c184.89,36.59 361.37,109.74 518.02,214.47"/>
    </g>
    <g>
     <path class="fil0 str0" d="M3013.24 1020.26c157.95,236.24 242.15,514.1 242.15,798.27 0,94.03 -9.3,188.23 -27.54,280.32"/>
    </g>
    <g>
     <path class="fil0 str0" d="M2616.81 3013.25c-236.24,157.95 -514.1,242.15 -798.29,242.15 -94.01,0 -188.22,-9.3 -280.31,-27.54"/>
    </g>
    <g>
     <path class="fil0 str0" d="M1268.67 3146.03c-536.69,-222.35 -887,-746.51 -887,-1327.5 0,-284.17 84.2,-562.03 242.08,-798.33"/>
    </g>
    <g>
     <path class="fil0 str0" d="M1020.25 623.83c78.01,-52.18 161.51,-96.73 248.34,-132.7"/>
    </g>
    <g>
     <path class="fil0 str0" d="M1660.09 209.84c52.47,-5.21 105.56,-7.78 158.44,-7.78 52.89,0 105.97,2.57 158.47,7.7"/>
    </g>
    <g>
     <path class="fil0 str0" d="M2133.89 233.12c155.71,30.91 306.68,84.98 446.6,159.77"/>
    </g>
    <g>
     <path class="fil0 str0" d="M2716.6 474.49c87.88,58.53 170.18,126.22 244.97,201.01"/>
    </g>
    <g>
     <path class="fil0 str0" d="M3068.09 793.05c33.6,40.91 65.37,83.54 94.58,127.35"/>
    </g>
    <g>
     <path class="fil0 str0" d="M3244.14 1056.54c99.89,187.13 162.45,392.57 183.17,603.53"/>
    </g>
    <g>
     <path class="fil0 str0" d="M3435.01 1818.53c-0,52.88 -2.57,105.97 -7.7,158.46"/>
    </g>
    <g>
     <path class="fil0 str0" d="M3403.95 2133.89c-10.19,51.7 -23.41,103.41 -38.61,153.93"/>
    </g>
    <g>
     <path class="fil0 str0" d="M3311.96 2437.13c-20.23,48.83 -42.93,96.78 -67.79,143.35"/>
    </g>
    <g>
     <path class="fil0 str0" d="M3068.09 2844.02c-67.05,81.63 -142.44,157.02 -224.14,224.12"/>
    </g>
    <g>
     <path class="fil0 str0" d="M2716.6 3162.59c-43.75,29.28 -89.53,56.72 -136.11,81.58"/>
    </g>
    <g>
     <path class="fil0 str0" d="M2287.77 3365.41c-50.47,15.13 -102.17,28.35 -153.88,38.61"/>
    </g>
    <g>
     <path class="fil0 str0" d="M1976.97 3427.23c-52.47,5.21 -105.55,7.78 -158.44,7.78"/>
    </g>
    <g>
     <path class="fil0 str0" d="M1660.09 3427.23c-158.1,-15.31 -313.61,-54.59 -460.24,-115.37"/>
    </g>
    <g>
     <path class="fil0 str0" d="M793.05 3068.09c-81.63,-67.05 -157.02,-142.44 -224.12,-224.14"/>
    </g>
    <g>
     <path class="fil0 str0" d="M474.48 2716.6c-177.69,-265.77 -272.42,-578.37 -272.42,-898.08 0,-52.88 2.57,-105.96 7.7,-158.46"/>
    </g>
    <g>
     <path class="fil0 str0" d="M392.93 1056.54c49.7,-93.11 108.9,-181.72 176,-263.42"/>
    </g>
    <g>
     <path class="fil0 str0" d="M675.51 675.51c74.78,-74.81 157.08,-142.5 244.9,-201.11"/>
    </g>
    <g>
     <path class="fil0 str0" d="M1056.53 392.93c46.62,-24.9 94.57,-47.59 143.32,-67.73"/>
    </g>
    <g>
     <path class="fil0 str0" d="M1349.29 271.67c50.47,-15.14 102.18,-28.36 153.88,-38.62"/>
    </g>
    <g>
     <path class="fil0 str0" d="M1994.58 31.1c919.01,90.25 1620.03,863.85 1620.03,1787.43 0,991.78 -804.3,1796.09 -1796.09,1796.09 -991.77,0 -1796.07,-804.3 -1796.07,-1796.09 0,-991.77 804.3,-1796.07 1796.07,-1796.07"/>
    </g>
   </g>
   <g>
    <g>
     <line class="fil0 str1" x1="1818.53" y1="202.06" x2="1818.53" y2= "561.27" />
    </g>
    <g>
     <line class="fil0 str1" x1="1818.53" y1="740.89" x2="1818.53" y2= "920.49" />
    </g>
    <g>
     <line class="fil0 str1" x1="1818.53" y1="1279.71" x2="1818.53" y2= "1459.32" />
    </g>
    <g>
     <line class="fil0 str1" x1="2063.81" y1="585.43" x2="2028.77" y2= "761.59" />
    </g>
    <g>
     <line class="fil0 str1" x1="2437.13" y1="325.11" x2="2368.4" y2= "491.04" />
    </g>
    <g>
     <line class="fil0 str1" x1="2162.2" y1="988.85" x2="2093.46" y2= "1154.79" />
    </g>
    <g>
     <line class="fil0 str1" x1="2665.2" y1="234.53" x2="2580.53" y2= "392.93" />
    </g>
    <g>
     <line class="fil0 str1" x1="3088.56" y1="548.51" x2="2961.55" y2= "675.51" />
    </g>
    <g>
     <line class="fil0 str1" x1="2834.55" y1="802.52" x2="2453.54" y2= "1183.53" />
    </g>
    <g>
     <line class="fil0 str1" x1="2326.54" y1="1310.53" x2="2199.54" y2= "1437.53" />
    </g>
    <g>
     <line class="fil0 str1" x1="3162.58" y1="920.47" x2="2714.57" y2= "1219.83" />
    </g>
    <g>
     <line class="fil0 str1" x1="3146.03" y1="1268.67" x2="2814.15" y2= "1406.14" />
    </g>
    <g>
     <line class="fil0 str1" x1="3403.95" y1="1503.18" x2="3227.79" y2= "1538.22" />
    </g>
    <g>
     <line class="fil0 str1" x1="3051.63" y1="1573.26" x2="2875.47" y2= "1608.3" />
    </g>
    <g>
     <line class="fil0 str1" x1="3614.62" y1="1818.53" x2="3435.01" y2= "1818.53" />
    </g>
    <g>
     <line class="fil0 str1" x1="2357.36" y1="1818.53" x2="2177.75" y2= "1818.53" />
    </g>
    <g>
     <line class="fil0 str1" x1="3580.11" y1="2168.93" x2="3051.63" y2= "2063.82" />
    </g>
    <g>
     <line class="fil0 str1" x1="3311.96" y1="2437.13" x2="2814.15" y2= "2230.93" />
    </g>
    <g>
     <line class="fil0 str1" x1="2482.28" y1="2093.47" x2="2316.34" y2= "2024.74" />
    </g>
    <g>
     <line class="fil0 str1" x1="3311.92" y1="2816.39" x2="2863.9" y2= "2517.03" />
    </g>
    <g>
     <line class="fil0 str1" x1="2714.57" y1="2417.25" x2="2565.23" y2= "2317.46" />
    </g>
    <g>
     <line class="fil0 str1" x1="2961.55" y1="2961.56" x2="2707.55" y2= "2707.55" />
    </g>
    <g>
     <line class="fil0 str1" x1="2453.54" y1="2453.55" x2="2326.54" y2= "2326.55" />
    </g>
    <g>
     <line class="fil0 str1" x1="2957.96" y1="3206.93" x2="2844.02" y2= "3068.09" />
    </g>
    <g>
     <line class="fil0 str1" x1="2716.6" y1="3162.59" x2="2616.81" y2= "3013.25" />
    </g>
    <g>
     <line class="fil0 str1" x1="2505.87" y1="3477.9" x2="2437.13" y2= "3311.97" />
    </g>
    <g>
     <line class="fil0 str1" x1="2230.93" y1="2814.15" x2="2162.2" y2= "2648.22" />
    </g>
    <g>
     <line class="fil0 str1" x1="2093.46" y1="2482.28" x2="2024.73" y2= "2316.35" />
    </g>
    <g>
     <line class="fil0 str1" x1="2168.93" y1="3580.11" x2="2133.89" y2= "3403.95" />
    </g>
    <g>
     <line class="fil0 str1" x1="2063.81" y1="3051.64" x2="2028.77" y2= "2875.48" />
    </g>
    <g>
     <line class="fil0 str1" x1="1818.53" y1="3614.62" x2="1818.53" y2= "3255.41" />
    </g>
    <g>
     <line class="fil0 str1" x1="1818.53" y1="3075.8" x2="1818.53" y2= "2896.19" />
    </g>
    <g>
     <line class="fil0 str1" x1="1818.53" y1="2716.58" x2="1818.53" y2= "2536.97" />
    </g>
    <g>
     <line class="fil0 str1" x1="1818.53" y1="2357.36" x2="1818.53" y2= "2177.75" />
    </g>
    <g>
     <line class="fil0 str1" x1="1538.21" y1="3227.8" x2="1573.25" y2= "3051.64" />
    </g>
    <g>
     <line class="fil0 str1" x1="1199.93" y1="3311.97" x2="1268.67" y2= "3146.03" />
    </g>
    <g>
     <line class="fil0 str1" x1="1406.13" y1="2814.15" x2="1474.87" y2= "2648.22" />
    </g>
    <g>
     <line class="fil0 str1" x1="1543.6" y1="2482.28" x2="1612.33" y2= "2316.35" />
    </g>
    <g>
     <line class="fil0 str1" x1="971.86" y1="3402.54" x2="1056.53" y2= "3244.14" />
    </g>
    <g>
     <line class="fil0 str1" x1="920.47" y1="3162.59" x2="1020.25" y2= "3013.25" />
    </g>
    <g>
     <line class="fil0 str1" x1="1120.04" y1="2863.91" x2="1219.82" y2= "2714.57" />
    </g>
    <g>
     <line class="fil0 str1" x1="675.51" y1="2961.56" x2="929.52" y2= "2707.55" />
    </g>
    <g>
     <line class="fil0 str1" x1="1056.52" y1="2580.55" x2="1564.53" y2= "2072.54" />
    </g>
    <g>
     <line class="fil0 str1" x1="922.5" y1="2417.25" x2="1071.84" y2= "2317.46" />
    </g>
    <g>
     <line class="fil0 str1" x1="656.98" y1="2299.67" x2="822.91" y2= "2230.93" />
    </g>
    <g>
     <line class="fil0 str1" x1="585.43" y1="2063.82" x2="937.74" y2= "1993.73" />
    </g>
    <g>
     <line class="fil0 str1" x1="31.09" y1="1642.49" x2="209.84" y2= "1660.09" />
    </g>
    <g>
     <line class="fil0 str1" x1="233.12" y1="1503.18" x2="409.27" y2= "1538.22" />
    </g>
    <g>
     <line class="fil0 str1" x1="99.78" y1="1297.16" x2="271.66" y2= "1349.3" />
    </g>
    <g>
     <line class="fil0 str1" x1="325.1" y1="1199.94" x2="988.85" y2= "1474.87" />
    </g>
    <g>
     <line class="fil0 str1" x1="1154.79" y1="1543.61" x2="1320.72" y2= "1612.34" />
    </g>
    <g>
     <line class="fil0 str1" x1="234.53" y1="971.87" x2="392.93" y2= "1056.54" />
    </g>
    <g>
     <line class="fil0 str1" x1="623.82" y1="1020.26" x2="773.16" y2= "1120.04" />
    </g>
    <g>
     <line class="fil0 str1" x1="675.51" y1="675.51" x2="802.51" y2= "802.52" />
    </g>
    <g>
     <line class="fil0 str1" x1="1183.52" y1="1183.53" x2="1310.52" y2= "1310.53" />
    </g>
    <g>
     <line class="fil0 str1" x1="1437.53" y1="1437.53" x2="1564.53" y2= "1564.53" />
    </g>
    <g>
     <line class="fil0 str1" x1="820.68" y1="325.15" x2="920.47" y2= "474.49" />
    </g>
    <g>
     <line class="fil0 str1" x1="1020.25" y1="623.83" x2="1319.61" y2= "1071.84" />
    </g>
    <g>
     <line class="fil0 str1" x1="1199.93" y1="325.11" x2="1337.4" y2= "656.98" />
    </g>
    <g>
     <line class="fil0 str1" x1="1474.87" y1="988.85" x2="1612.33" y2= "1320.73" />
    </g>
    <g>
     <line class="fil0 str1" x1="1297.16" y1="99.79" x2="1349.29" y2= "271.67" />
    </g>
    <g>
     <line class="fil0 str1" x1="1503.17" y1="233.12" x2="1538.21" y2= "409.28" />
    </g>
    <g>
     <line class="fil0 str1" x1="1573.25" y1="585.43" x2="1643.34" y2= "937.75" />
    </g>
   </g>
  </g>
  <g>
   <g>
    <g>
     <path class="fil0 str2" d="M1564.53 2072.54c-67.32,-67.32 -105.21,-158.76 -105.21,-254.01 0,-198.34 160.86,-359.21 359.21,-359.21 198.36,0 359.22,160.86 359.22,359.21 0,198.36 -160.86,359.22 -359.22,359.22"/>
    </g>
    <g>
     <path class="fil0 str2" d="M1818.53 1279.71c70.71,0 140.9,14.01 206.23,41.05"/>
    </g>
    <g>
     <path class="fil0 str2" d="M2316.34 1612.34c27,65.3 41.01,135.48 41.01,206.19 0,70.72 -14.01,140.91 -41.05,206.23"/>
    </g>
    <g>
     <path class="fil0 str2" d="M2199.54 2199.54c-100.97,100.98 -238.13,157.81 -381.01,157.81"/>
    </g>
    <g>
     <path class="fil0 str2" d="M1612.33 2316.35c-201.25,-83.39 -332.62,-279.95 -332.62,-497.82"/>
    </g>
    <g>
     <path class="fil0 str2" d="M1154.79 2093.47c-36,-87.07 -54.68,-180.65 -54.68,-274.94 0,-396.7 321.72,-718.42 718.42,-718.42"/>
    </g>
    <g>
     <path class="fil0 str2" d="M2093.46 1154.79c268.34,111.18 443.5,373.25 443.5,663.74 0,190.51 -75.78,373.38 -210.42,508.02"/>
    </g>
    <g>
     <path class="fil0 str2" d="M1818.53 2536.97c-94.28,-0.01 -187.87,-18.69 -274.96,-54.74"/>
    </g>
    <g>
     <path class="fil0 str2" d="M1818.53 920.49c177.61,0 351.28,52.63 498.96,151.3"/>
    </g>
    <g>
     <path class="fil0 str2" d="M2453.54 1183.53c168.3,168.28 263.03,396.88 263.03,635 0,177.61 -52.63,351.28 -151.3,498.96"/>
    </g>
    <g>
     <path class="fil0 str2" d="M2453.54 2453.55c-41.54,41.55 -87.26,79.16 -136.06,111.72"/>
    </g>
    <g>
     <path class="fil0 str2" d="M2162.2 2648.22c-108.83,45 -225.81,68.35 -343.67,68.35 -58.75,0 -117.63,-5.81 -175.19,-17.21"/>
    </g>
    <g>
     <path class="fil0 str2" d="M1474.87 2648.22c-54.32,-22.54 -106.51,-50.38 -155.29,-82.95"/>
    </g>
    <g>
     <path class="fil0 str2" d="M1071.84 2317.46c-98.72,-147.66 -151.34,-321.32 -151.34,-498.94 0,-58.75 5.81,-117.63 17.21,-175.19"/>
    </g>
    <g>
     <path class="fil0 str2" d="M988.85 1474.87c22.54,-54.32 50.38,-106.51 82.95,-155.3"/>
    </g>
    <g>
     <path class="fil0 str2" d="M1474.87 988.85c54.23,-22.42 110.91,-39.74 168.47,-51.15"/>
    </g>
    <g>
     <path class="fil0 str2" d="M1608.3 761.59c69.08,-13.73 139.73,-20.7 210.23,-20.7"/>
    </g>
    <g>
     <path class="fil0 str2" d="M2028.77 761.59c208.92,41.53 401.14,144.28 551.78,294.92"/>
    </g>
    <g>
     <path class="fil0 str2" d="M2875.47 1608.3c13.73,69.07 20.7,139.72 20.7,210.23 0,141.43 -28.02,281.81 -82.1,412.46"/>
    </g>
    <g>
     <path class="fil0 str2" d="M2714.57 2417.25c-158.61,237.64 -405.56,402.62 -685.8,458.27"/>
    </g>
    <g>
     <path class="fil0 str2" d="M1818.53 2896.19c-141.42,-0.01 -281.81,-28.03 -412.45,-82.11"/>
    </g>
    <g>
     <path class="fil0 str2" d="M1056.52 2580.55c-49.87,-49.86 -95,-104.72 -134.07,-163.27"/>
    </g>
    <g>
     <path class="fil0 str2" d="M740.88 1818.53c0,-141.43 28.03,-281.81 82.1,-412.45"/>
    </g>
    <g>
     <path class="fil0 str2" d="M922.5 1219.83c118.36,-177.26 286.76,-315.27 483.58,-396.84"/>
    </g>
    <g>
     <path class="fil0 str2" d="M1818.53 561.27c165,0 328.78,32.7 481.2,95.78"/>
    </g>
    <g>
     <path class="fil0 str2" d="M2517.03 773.17c68.35,45.52 132.36,98.17 190.53,156.34"/>
    </g>
    <g>
     <path class="fil0 str2" d="M3051.63 1573.26c16.02,80.58 24.15,163.01 24.15,245.27"/>
    </g>
    <g>
     <path class="fil0 str2" d="M2980.09 2299.67c-31.54,76.04 -70.54,149.1 -116.12,217.41"/>
    </g>
    <g>
     <path class="fil0 str2" d="M2707.55 2707.55c-116.65,116.66 -255.4,209.37 -407.82,272.46"/>
    </g>
    <g>
     <path class="fil0 str2" d="M2063.81 3051.64c-80.59,16.02 -163.01,24.15 -245.28,24.15"/>
    </g>
    <g>
     <path class="fil0 str2" d="M1573.25 3051.64c-161.78,-32.03 -316.19,-96.03 -453.26,-187.67"/>
    </g>
    <g>
     <path class="fil0 str2" d="M929.52 2707.55c-116.66,-116.65 -209.37,-255.41 -272.46,-407.82"/>
    </g>
    <g>
     <path class="fil0 str2" d="M585.43 2063.82c-16.02,-80.59 -24.15,-163.02 -24.15,-245.29 0,-82.26 8.13,-164.69 24.1,-245.27"/>
    </g>
    <g>
     <path class="fil0 str2" d="M773.16 1120.04c91.58,-137.12 209.76,-255.31 346.83,-346.94"/>
    </g>
    <g>
     <path class="fil0 str2" d="M1337.4 656.98c75.92,-31.39 155.27,-55.64 235.86,-71.6"/>
    </g>
    <g>
     <path class="fil0 str2" d="M1538.21 409.28c92.1,-18.32 186.3,-27.61 280.31,-27.61"/>
    </g>
    <g>
     <path class="fil0 str2" d="M2098.85 409.28c184.89,36.59 361.37,109.74 518.02,214.47"/>
    </g>
    <g>
     <path class="fil0 str2" d="M3013.24 1020.26c157.95,236.24 242.15,514.1 242.15,798.27 0,94.03 -9.3,188.23 -27.54,280.32"/>
    </g>
    <g>
     <path class="fil0 str2" d="M2616.81 3013.25c-236.24,157.95 -514.1,242.15 -798.29,242.15 -94.01,0 -188.22,-9.3 -280.31,-27.54"/>
    </g>
    <g>
     <path class="fil0 str2" d="M1268.67 3146.03c-536.69,-222.35 -887,-746.51 -887,-1327.5 0,-284.17 84.2,-562.03 242.08,-798.33"/>
    </g>
    <g>
     <path class="fil0 str2" d="M1020.25 623.83c78.01,-52.18 161.51,-96.73 248.34,-132.7"/>
    </g>
    <g>
     <path class="fil0 str2" d="M1660.09 209.84c52.47,-5.21 105.56,-7.78 158.44,-7.78 52.89,0 105.97,2.57 158.47,7.7"/>
    </g>
    <g>
     <path class="fil0 str2" d="M2133.89 233.12c155.71,30.91 306.68,84.98 446.6,159.77"/>
    </g>
    <g>
     <path class="fil0 str2" d="M2716.6 474.49c87.88,58.53 170.18,126.22 244.97,201.01"/>
    </g>
    <g>
     <path class="fil0 str2" d="M3068.09 793.05c33.6,40.91 65.37,83.54 94.58,127.35"/>
    </g>
    <g>
     <path class="fil0 str2" d="M3244.14 1056.54c99.89,187.13 162.45,392.57 183.17,603.53"/>
    </g>
    <g>
     <path class="fil0 str2" d="M3435.01 1818.53c-0,52.88 -2.57,105.97 -7.7,158.46"/>
    </g>
    <g>
     <path class="fil0 str2" d="M3403.95 2133.89c-10.19,51.7 -23.41,103.41 -38.61,153.93"/>
    </g>
    <g>
     <path class="fil0 str2" d="M3311.96 2437.13c-20.23,48.83 -42.93,96.78 -67.79,143.35"/>
    </g>
    <g>
     <path class="fil0 str2" d="M3068.09 2844.02c-67.05,81.63 -142.44,157.02 -224.14,224.12"/>
    </g>
    <g>
     <path class="fil0 str2" d="M2716.6 3162.59c-43.75,29.28 -89.53,56.72 -136.11,81.58"/>
    </g>
    <g>
     <path class="fil0 str2" d="M2287.77 3365.41c-50.47,15.13 -102.17,28.35 -153.88,38.61"/>
    </g>
    <g>
     <path class="fil0 str2" d="M1976.97 3427.23c-52.47,5.21 -105.55,7.78 -158.44,7.78"/>
    </g>
    <g>
     <path class="fil0 str2" d="M1660.09 3427.23c-158.1,-15.31 -313.61,-54.59 -460.24,-115.37"/>
    </g>
    <g>
     <path class="fil0 str2" d="M793.05 3068.09c-81.63,-67.05 -157.02,-142.44 -224.12,-224.14"/>
    </g>
    <g>
     <path class="fil0 str2" d="M474.48 2716.6c-177.69,-265.77 -272.42,-578.37 -272.42,-898.08 0,-52.88 2.57,-105.96 7.7,-158.46"/>
    </g>
    <g>
     <path class="fil0 str2" d="M392.93 1056.54c49.7,-93.11 108.9,-181.72 176,-263.42"/>
    </g>
    <g>
     <path class="fil0 str2" d="M675.51 675.51c74.78,-74.81 157.08,-142.5 244.9,-201.11"/>
    </g>
    <g>
     <path class="fil0 str2" d="M1056.53 392.93c46.62,-24.9 94.57,-47.59 143.32,-67.73"/>
    </g>
    <g>
     <path class="fil0 str2" d="M1349.29 271.67c50.47,-15.14 102.18,-28.36 153.88,-38.62"/>
    </g>
    <g>
     <path class="fil0 str2" d="M1994.58 31.1c919.01,90.25 1620.03,863.85 1620.03,1787.43 0,991.78 -804.3,1796.09 -1796.09,1796.09 -991.77,0 -1796.07,-804.3 -1796.07,-1796.09 0,-991.77 804.3,-1796.07 1796.07,-1796.07"/>
    </g>
   </g>
   <g>
    <g>
     <line class="fil0 str3" x1="1818.53" y1="202.06" x2="1818.53" y2= "561.27" />
    </g>
    <g>
     <line class="fil0 str3" x1="1818.53" y1="740.89" x2="1818.53" y2= "920.49" />
    </g>
    <g>
     <line class="fil0 str3" x1="1818.53" y1="1279.71" x2="1818.53" y2= "1459.32" />
    </g>
    <g>
     <line class="fil0 str3" x1="2063.81" y1="585.43" x2="2028.77" y2= "761.59" />
    </g>
    <g>
     <line class="fil0 str3" x1="2437.13" y1="325.11" x2="2368.4" y2= "491.04" />
    </g>
    <g>
     <line class="fil0 str3" x1="2162.2" y1="988.85" x2="2093.46" y2= "1154.79" />
    </g>
    <g>
     <line class="fil0 str3" x1="2665.2" y1="234.53" x2="2580.53" y2= "392.93" />
    </g>
    <g>
     <line class="fil0 str3" x1="3088.56" y1="548.51" x2="2961.55" y2= "675.51" />
    </g>
    <g>
     <line class="fil0 str3" x1="2834.55" y1="802.52" x2="2453.54" y2= "1183.53" />
    </g>
    <g>
     <line class="fil0 str3" x1="2326.54" y1="1310.53" x2="2199.54" y2= "1437.53" />
    </g>
    <g>
     <line class="fil0 str3" x1="3162.58" y1="920.47" x2="2714.57" y2= "1219.83" />
    </g>
    <g>
     <line class="fil0 str3" x1="3146.03" y1="1268.67" x2="2814.15" y2= "1406.14" />
    </g>
    <g>
     <line class="fil0 str3" x1="3403.95" y1="1503.18" x2="3227.79" y2= "1538.22" />
    </g>
    <g>
     <line class="fil0 str3" x1="3051.63" y1="1573.26" x2="2875.47" y2= "1608.3" />
    </g>
    <g>
     <line class="fil0 str3" x1="3614.62" y1="1818.53" x2="3435.01" y2= "1818.53" />
    </g>
    <g>
     <line class="fil0 str3" x1="2357.36" y1="1818.53" x2="2177.75" y2= "1818.53" />
    </g>
    <g>
     <line class="fil0 str3" x1="3580.11" y1="2168.93" x2="3051.63" y2= "2063.82" />
    </g>
    <g>
     <line class="fil0 str3" x1="3311.96" y1="2437.13" x2="2814.15" y2= "2230.93" />
    </g>
    <g>
     <line class="fil0 str3" x1="2482.28" y1="2093.47" x2="2316.34" y2= "2024.74" />
    </g>
    <g>
     <line class="fil0 str3" x1="3311.92" y1="2816.39" x2="2863.9" y2= "2517.03" />
    </g>
    <g>
     <line class="fil0 str3" x1="2714.57" y1="2417.25" x2="2565.23" y2= "2317.46" />
    </g>
    <g>
     <line class="fil0 str3" x1="2961.55" y1="2961.56" x2="2707.55" y2= "2707.55" />
    </g>
    <g>
     <line class="fil0 str3" x1="2453.54" y1="2453.55" x2="2326.54" y2= "2326.55" />
    </g>
    <g>
     <line class="fil0 str3" x1="2957.96" y1="3206.93" x2="2844.02" y2= "3068.09" />
    </g>
    <g>
     <line class="fil0 str3" x1="2716.6" y1="3162.59" x2="2616.81" y2= "3013.25" />
    </g>
    <g>
     <line class="fil0 str3" x1="2505.87" y1="3477.9" x2="2437.13" y2= "3311.97" />
    </g>
    <g>
     <line class="fil0 str3" x1="2230.93" y1="2814.15" x2="2162.2" y2= "2648.22" />
    </g>
    <g>
     <line class="fil0 str3" x1="2093.46" y1="2482.28" x2="2024.73" y2= "2316.35" />
    </g>
    <g>
     <line class="fil0 str3" x1="2168.93" y1="3580.11" x2="2133.89" y2= "3403.95" />
    </g>
    <g>
     <line class="fil0 str3" x1="2063.81" y1="3051.64" x2="2028.77" y2= "2875.48" />
    </g>
    <g>
     <line class="fil0 str3" x1="1818.53" y1="3614.62" x2="1818.53" y2= "3255.41" />
    </g>
    <g>
     <line class="fil0 str3" x1="1818.53" y1="3075.8" x2="1818.53" y2= "2896.19" />
    </g>
    <g>
     <line class="fil0 str3" x1="1818.53" y1="2716.58" x2="1818.53" y2= "2536.97" />
    </g>
    <g>
     <line class="fil0 str3" x1="1818.53" y1="2357.36" x2="1818.53" y2= "2177.75" />
    </g>
    <g>
     <line class="fil0 str3" x1="1538.21" y1="3227.8" x2="1573.25" y2= "3051.64" />
    </g>
    <g>
     <line class="fil0 str3" x1="1199.93" y1="3311.97" x2="1268.67" y2= "3146.03" />
    </g>
    <g>
     <line class="fil0 str3" x1="1406.13" y1="2814.15" x2="1474.87" y2= "2648.22" />
    </g>
    <g>
     <line class="fil0 str3" x1="1543.6" y1="2482.28" x2="1612.33" y2= "2316.35" />
    </g>
    <g>
     <line class="fil0 str3" x1="971.86" y1="3402.54" x2="1056.53" y2= "3244.14" />
    </g>
    <g>
     <line class="fil0 str3" x1="920.47" y1="3162.59" x2="1020.25" y2= "3013.25" />
    </g>
    <g>
     <line class="fil0 str3" x1="1120.04" y1="2863.91" x2="1219.82" y2= "2714.57" />
    </g>
    <g>
     <line class="fil0 str3" x1="675.51" y1="2961.56" x2="929.52" y2= "2707.55" />
    </g>
    <g>
     <line class="fil0 str3" x1="1056.52" y1="2580.55" x2="1564.53" y2= "2072.54" />
    </g>
    <g>
     <line class="fil0 str3" x1="922.5" y1="2417.25" x2="1071.84" y2= "2317.46" />
    </g>
    <g>
     <line class="fil0 str3" x1="656.98" y1="2299.67" x2="822.91" y2= "2230.93" />
    </g>
    <g>
     <line class="fil0 str3" x1="585.43" y1="2063.82" x2="937.74" y2= "1993.73" />
    </g>
    <g>
     <line class="fil0 str3" x1="31.09" y1="1642.49" x2="209.84" y2= "1660.09" />
    </g>
    <g>
     <line class="fil0 str3" x1="233.12" y1="1503.18" x2="409.27" y2= "1538.22" />
    </g>
    <g>
     <line class="fil0 str3" x1="99.78" y1="1297.16" x2="271.66" y2= "1349.3" />
    </g>
    <g>
     <line class="fil0 str3" x1="325.1" y1="1199.94" x2="988.85" y2= "1474.87" />
    </g>
    <g>
     <line class="fil0 str3" x1="1154.79" y1="1543.61" x2="1320.72" y2= "1612.34" />
    </g>
    <g>
     <line class="fil0 str3" x1="234.53" y1="971.87" x2="392.93" y2= "1056.54" />
    </g>
    <g>
     <line class="fil0 str3" x1="623.82" y1="1020.26" x2="773.16" y2= "1120.04" />
    </g>
    <g>
     <line class="fil0 str3" x1="675.51" y1="675.51" x2="802.51" y2= "802.52" />
    </g>
    <g>
     <line class="fil0 str3" x1="1183.52" y1="1183.53" x2="1310.52" y2= "1310.53" />
    </g>
    <g>
     <line class="fil0 str3" x1="1437.53" y1="1437.53" x2="1564.53" y2= "1564.53" />
    </g>
    <g>
     <line class="fil0 str3" x1="820.68" y1="325.15" x2="920.47" y2= "474.49" />
    </g>
    <g>
     <line class="fil0 str3" x1="1020.25" y1="623.83" x2="1319.61" y2= "1071.84" />
    </g>
    <g>
     <line class="fil0 str3" x1="1199.93" y1="325.11" x2="1337.4" y2= "656.98" />
    </g>
    <g>
     <line class="fil0 str3" x1="1474.87" y1="988.85" x2="1612.33" y2= "1320.73" />
    </g>
    <g>
     <line class="fil0 str3" x1="1297.16" y1="99.79" x2="1349.29" y2= "271.67" />
    </g>
    <g>
     <line class="fil0 str3" x1="1503.17" y1="233.12" x2="1538.21" y2= "409.28" />
    </g>
    <g>
     <line class="fil0 str3" x1="1573.25" y1="585.43" x2="1643.34" y2= "937.75" />
    </g>
   </g>
  </g>
 </g>
</svg>
