<?xml version="1.0" encoding="UTF-8"?>
<!DOCTYPE svg PUBLIC "-//W3C//DTD SVG 1.1//EN" "http://www.w3.org/Graphics/SVG/1.1/DTD/svg11.dtd">
<!-- Creator: CorelDRAW 2018 (64-Bit) -->
<svg xmlns="http://www.w3.org/2000/svg" xml:space="preserve" width="2.54166in" height="2.54166in" version="1.1" style="shape-rendering:geometricPrecision; text-rendering:geometricPrecision; image-rendering:optimizeQuality; fill-rule:evenodd; clip-rule:evenodd"
viewBox="0 0 273.16 273.16"
 xmlns:xlink="http://www.w3.org/1999/xlink">
 <defs>
  <style type="text/css">
   <![CDATA[
    .str1 {stroke:#337768;stroke-width:4.48;stroke-miterlimit:2.61313}
    .str3 {stroke:#AFEEA8;stroke-width:2.99;stroke-miterlimit:2.61313}
    .str0 {stroke:#337768;stroke-width:4.48;stroke-linecap:square;stroke-miterlimit:2.61313}
    .str2 {stroke:#AFEEA8;stroke-width:2.99;stroke-linecap:square;stroke-miterlimit:2.61313}
    .fil0 {fill:none}
   ]]>
  </style>
 </defs>
 <g id="Layer_x0020_1">
  <metadata id="CorelCorpID_0Corel-Layer"/>
  <g id="_2422256169600">
   <g>
    <g>
     <path class="fil0 str0" d="M117.58 155.58c-5.04,-5.04 -7.87,-11.88 -7.87,-19 0,-14.84 12.03,-26.87 26.87,-26.87 14.84,0 26.87,12.03 26.87,26.87 0,14.84 -12.03,26.87 -26.87,26.87"/>
    </g>
    <g>
     <path class="fil0 str0" d="M104.92 104.92c8.39,-8.39 19.79,-13.12 31.66,-13.12"/>
    </g>
    <g>
     <path class="fil0 str0" d="M153.72 95.21c10.97,4.55 19.69,13.27 24.23,24.23"/>
    </g>
    <g>
     <path class="fil0 str0" d="M181.36 136.58c-0,18.11 -10.92,34.44 -27.64,41.37"/>
    </g>
    <g>
     <path class="fil0 str0" d="M136.58 181.36c-11.87,-0 -23.27,-4.72 -31.66,-13.12"/>
    </g>
    <g>
     <path class="fil0 str0" d="M91.8 136.58c0,-5.88 1.17,-11.71 3.41,-17.14"/>
    </g>
    <g>
     <path class="fil0 str0" d="M78.66 160.57c-3.14,-7.6 -4.77,-15.76 -4.77,-23.99 0,-34.62 28.07,-62.69 62.69,-62.69 8.23,0 16.39,1.63 23.99,4.78"/>
    </g>
    <g>
     <path class="fil0 str0" d="M180.91 92.25c11.75,11.75 18.36,27.71 18.36,44.33 0,8.23 -1.63,16.39 -4.78,23.99"/>
    </g>
    <g>
     <path class="fil0 str0" d="M160.57 194.5c-7.6,3.14 -15.76,4.77 -23.99,4.77 -16.62,0 -32.58,-6.61 -44.33,-18.36"/>
    </g>
    <g>
     <path class="fil0 str0" d="M57.52 152.31c-1.03,-5.17 -1.55,-10.45 -1.55,-15.73 0,-44.51 36.1,-80.61 80.61,-80.61 5.27,0 10.56,0.52 15.73,1.54"/>
    </g>
    <g>
     <path class="fil0 str0" d="M167.43 62.11c9.78,4.05 18.67,9.99 26.15,17.47"/>
    </g>
    <g>
     <path class="fil0 str0" d="M211.05 105.74c2.01,4.87 3.57,9.95 4.59,15.12"/>
    </g>
    <g>
     <path class="fil0 str0" d="M215.64 152.31c-7.49,37.71 -40.61,64.88 -79.06,64.88"/>
    </g>
    <g>
     <path class="fil0 str0" d="M105.74 211.05c-14.73,-6.11 -27.32,-16.43 -36.18,-29.69"/>
    </g>
    <g>
     <path class="fil0 str0" d="M155.8 39.96c6.31,1.25 12.53,3.15 18.49,5.61"/>
    </g>
    <g>
     <path class="fil0 str0" d="M191.32 54.67c16.2,10.82 28.82,26.22 36.28,44.21"/>
    </g>
    <g>
     <path class="fil0 str0" d="M233.21 117.36c1.26,6.31 1.89,12.77 1.89,19.22 0,19.48 -5.77,38.54 -16.6,54.74"/>
    </g>
    <g>
     <path class="fil0 str0" d="M191.32 218.5c-5.35,3.58 -11.07,6.63 -17.03,9.1"/>
    </g>
    <g>
     <path class="fil0 str0" d="M155.8 233.21c-6.31,1.25 -12.77,1.89 -19.22,1.89 -6.45,0 -12.91,-0.64 -19.22,-1.89"/>
    </g>
    <g>
     <path class="fil0 str0" d="M81.85 218.5c-5.36,-3.57 -10.37,-7.69 -14.93,-12.25"/>
    </g>
    <g>
     <path class="fil0 str0" d="M54.67 191.32c-10.83,-16.2 -16.6,-35.25 -16.6,-54.73"/>
    </g>
    <g>
     <path class="fil0 str0" d="M39.96 117.36c7.77,-39.07 38.34,-69.64 77.41,-77.41"/>
    </g>
    <g>
     <path class="fil0 str0" d="M71.9 39.77c19.14,-12.8 41.66,-19.62 64.69,-19.62 23.03,0 45.54,6.82 64.69,19.62"/>
    </g>
    <g>
     <path class="fil0 str0" d="M218.91 54.25c16.28,16.27 27.38,37.04 31.87,59.61"/>
    </g>
    <g>
     <path class="fil0 str0" d="M253.01 136.58c-0,15.28 -3.03,30.45 -8.87,44.56"/>
    </g>
    <g>
     <path class="fil0 str0" d="M218.91 218.91c-21.82,21.82 -51.46,34.1 -82.33,34.1 -23.03,0 -45.54,-6.82 -64.69,-19.62"/>
    </g>
    <g>
     <path class="fil0 str0" d="M54.25 218.91c-5.39,-5.39 -10.26,-11.31 -14.49,-17.64"/>
    </g>
    <g>
     <path class="fil0 str0" d="M29.01 181.14c-2.91,-7.03 -5.15,-14.38 -6.63,-21.84"/>
    </g>
    <g>
     <path class="fil0 str0" d="M20.15 136.58c0,-15.28 3.03,-30.45 8.87,-44.56"/>
    </g>
    <g>
     <path class="fil0 str0" d="M162.79 4.82c62.85,12.49 108.13,67.68 108.13,131.76 0,74.18 -60.16,134.34 -134.34,134.34 -74.18,0 -134.34,-60.16 -134.34,-134.34 0,-74.18 60.16,-134.34 134.34,-134.34"/>
    </g>
   </g>
   <g>
    <g>
     <line class="fil0 str1" x1="136.58" y1="20.15" x2="136.58" y2= "55.98" />
    </g>
    <g>
     <line class="fil0 str1" x1="174.28" y1="45.56" x2="160.57" y2= "78.66" />
    </g>
    <g>
     <line class="fil0 str1" x1="211.22" y1="24.88" x2="191.32" y2= "54.67" />
    </g>
    <g>
     <line class="fil0 str1" x1="180.91" y1="92.25" x2="155.58" y2= "117.58" />
    </g>
    <g>
     <line class="fil0 str1" x1="218.5" y1="81.85" x2="203.6" y2= "91.8" />
    </g>
    <g>
     <line class="fil0 str1" x1="211.05" y1="105.74" x2="194.5" y2= "112.59" />
    </g>
    <g>
     <line class="fil0 str1" x1="250.78" y1="113.87" x2="233.21" y2= "117.36" />
    </g>
    <g>
     <line class="fil0 str1" x1="217.19" y1="136.58" x2="199.28" y2= "136.58" />
    </g>
    <g>
     <line class="fil0 str1" x1="233.21" y1="155.8" x2="215.64" y2= "152.31" />
    </g>
    <g>
     <line class="fil0 str1" x1="260.7" y1="187.99" x2="244.15" y2= "181.14" />
    </g>
    <g>
     <line class="fil0 str1" x1="233.39" y1="201.27" x2="218.5" y2= "191.32" />
    </g>
    <g>
     <line class="fil0 str1" x1="218.91" y1="218.91" x2="155.58" y2= "155.58" />
    </g>
    <g>
     <line class="fil0 str1" x1="174.28" y1="227.6" x2="167.43" y2= "211.05" />
    </g>
    <g>
     <line class="fil0 str1" x1="159.3" y1="250.78" x2="155.8" y2= "233.21" />
    </g>
    <g>
     <line class="fil0 str1" x1="136.58" y1="199.28" x2="136.58" y2= "181.36" />
    </g>
    <g>
     <line class="fil0 str1" x1="117.36" y1="233.21" x2="120.86" y2= "215.64" />
    </g>
    <g>
     <line class="fil0 str1" x1="98.88" y1="227.6" x2="105.74" y2= "211.05" />
    </g>
    <g>
     <line class="fil0 str1" x1="54.25" y1="218.91" x2="66.92" y2= "206.25" />
    </g>
    <g>
     <line class="fil0 str1" x1="79.59" y1="193.58" x2="92.25" y2= "180.91" />
    </g>
    <g>
     <line class="fil0 str1" x1="104.92" y1="168.25" x2="117.58" y2= "155.58" />
    </g>
    <g>
     <line class="fil0 str1" x1="39.77" y1="201.27" x2="69.56" y2= "181.36" />
    </g>
    <g>
     <line class="fil0 str1" x1="12.46" y1="187.99" x2="29.01" y2= "181.14" />
    </g>
    <g>
     <line class="fil0 str1" x1="45.56" y1="174.28" x2="95.21" y2= "153.72" />
    </g>
    <g>
     <line class="fil0 str1" x1="2.24" y1="136.58" x2="38.06" y2= "136.58" />
    </g>
    <g>
     <line class="fil0 str1" x1="91.8" y1="136.58" x2="109.71" y2= "136.58" />
    </g>
    <g>
     <line class="fil0 str1" x1="39.96" y1="117.36" x2="57.52" y2= "120.86" />
    </g>
    <g>
     <line class="fil0 str1" x1="39.77" y1="71.9" x2="54.67" y2= "81.85" />
    </g>
    <g>
     <line class="fil0 str1" x1="41.59" y1="41.59" x2="54.25" y2= "54.25" />
    </g>
    <g>
     <line class="fil0 str1" x1="92.25" y1="92.25" x2="104.92" y2= "104.92" />
    </g>
   </g>
  </g>
  <g>
   <g>
    <g>
     <path class="fil0 str2" d="M117.58 155.58c-5.04,-5.04 -7.87,-11.88 -7.87,-19 0,-14.84 12.03,-26.87 26.87,-26.87 14.84,0 26.87,12.03 26.87,26.87 0,14.84 -12.03,26.87 -26.87,26.87"/>
    </g>
    <g>
     <path class="fil0 str2" d="M104.92 104.92c8.39,-8.39 19.79,-13.12 31.66,-13.12"/>
    </g>
    <g>
     <path class="fil0 str2" d="M153.72 95.21c10.97,4.55 19.69,13.27 24.23,24.23"/>
    </g>
    <g>
     <path class="fil0 str2" d="M181.36 136.58c-0,18.11 -10.92,34.44 -27.64,41.37"/>
    </g>
    <g>
     <path class="fil0 str2" d="M136.58 181.36c-11.87,-0 -23.27,-4.72 -31.66,-13.12"/>
    </g>
    <g>
     <path class="fil0 str2" d="M91.8 136.58c0,-5.88 1.17,-11.71 3.41,-17.14"/>
    </g>
    <g>
     <path class="fil0 str2" d="M78.66 160.57c-3.14,-7.6 -4.77,-15.76 -4.77,-23.99 0,-34.62 28.07,-62.69 62.69,-62.69 8.23,0 16.39,1.63 23.99,4.78"/>
    </g>
    <g>
     <path class="fil0 str2" d="M180.91 92.25c11.75,11.75 18.36,27.71 18.36,44.33 0,8.23 -1.63,16.39 -4.78,23.99"/>
    </g>
    <g>
     <path class="fil0 str2" d="M160.57 194.5c-7.6,3.14 -15.76,4.77 -23.99,4.77 -16.62,0 -32.58,-6.61 -44.33,-18.36"/>
    </g>
    <g>
     <path class="fil0 str2" d="M57.52 152.31c-1.03,-5.17 -1.55,-10.45 -1.55,-15.73 0,-44.51 36.1,-80.61 80.61,-80.61 5.27,0 10.56,0.52 15.73,1.54"/>
    </g>
    <g>
     <path class="fil0 str2" d="M167.43 62.11c9.78,4.05 18.67,9.99 26.15,17.47"/>
    </g>
    <g>
     <path class="fil0 str2" d="M211.05 105.74c2.01,4.87 3.57,9.95 4.59,15.12"/>
    </g>
    <g>
     <path class="fil0 str2" d="M215.64 152.31c-7.49,37.71 -40.61,64.88 -79.06,64.88"/>
    </g>
    <g>
     <path class="fil0 str2" d="M105.74 211.05c-14.73,-6.11 -27.32,-16.43 -36.18,-29.69"/>
    </g>
    <g>
     <path class="fil0 str2" d="M155.8 39.96c6.31,1.25 12.53,3.15 18.49,5.61"/>
    </g>
    <g>
     <path class="fil0 str2" d="M191.32 54.67c16.2,10.82 28.82,26.22 36.28,44.21"/>
    </g>
    <g>
     <path class="fil0 str2" d="M233.21 117.36c1.26,6.31 1.89,12.77 1.89,19.22 0,19.48 -5.77,38.54 -16.6,54.74"/>
    </g>
    <g>
     <path class="fil0 str2" d="M191.32 218.5c-5.35,3.58 -11.07,6.63 -17.03,9.1"/>
    </g>
    <g>
     <path class="fil0 str2" d="M155.8 233.21c-6.31,1.25 -12.77,1.89 -19.22,1.89 -6.45,0 -12.91,-0.64 -19.22,-1.89"/>
    </g>
    <g>
     <path class="fil0 str2" d="M81.85 218.5c-5.36,-3.57 -10.37,-7.69 -14.93,-12.25"/>
    </g>
    <g>
     <path class="fil0 str2" d="M54.67 191.32c-10.83,-16.2 -16.6,-35.25 -16.6,-54.73"/>
    </g>
    <g>
     <path class="fil0 str2" d="M39.96 117.36c7.77,-39.07 38.34,-69.64 77.41,-77.41"/>
    </g>
    <g>
     <path class="fil0 str2" d="M71.9 39.77c19.14,-12.8 41.66,-19.62 64.69,-19.62 23.03,0 45.54,6.82 64.69,19.62"/>
    </g>
    <g>
     <path class="fil0 str2" d="M218.91 54.25c16.28,16.27 27.38,37.04 31.87,59.61"/>
    </g>
    <g>
     <path class="fil0 str2" d="M253.01 136.58c-0,15.28 -3.03,30.45 -8.87,44.56"/>
    </g>
    <g>
     <path class="fil0 str2" d="M218.91 218.91c-21.82,21.82 -51.46,34.1 -82.33,34.1 -23.03,0 -45.54,-6.82 -64.69,-19.62"/>
    </g>
    <g>
     <path class="fil0 str2" d="M54.25 218.91c-5.39,-5.39 -10.26,-11.31 -14.49,-17.64"/>
    </g>
    <g>
     <path class="fil0 str2" d="M29.01 181.14c-2.91,-7.03 -5.15,-14.38 -6.63,-21.84"/>
    </g>
    <g>
     <path class="fil0 str2" d="M20.15 136.58c0,-15.28 3.03,-30.45 8.87,-44.56"/>
    </g>
    <g>
     <path class="fil0 str2" d="M162.79 4.82c62.85,12.49 108.13,67.68 108.13,131.76 0,74.18 -60.16,134.34 -134.34,134.34 -74.18,0 -134.34,-60.16 -134.34,-134.34 0,-74.18 60.16,-134.34 134.34,-134.34"/>
    </g>
   </g>
   <g>
    <g>
     <line class="fil0 str3" x1="136.58" y1="20.15" x2="136.58" y2= "55.98" />
    </g>
    <g>
     <line class="fil0 str3" x1="174.28" y1="45.56" x2="160.57" y2= "78.66" />
    </g>
    <g>
     <line class="fil0 str3" x1="211.22" y1="24.88" x2="191.32" y2= "54.67" />
    </g>
    <g>
     <line class="fil0 str3" x1="180.91" y1="92.25" x2="155.58" y2= "117.58" />
    </g>
    <g>
     <line class="fil0 str3" x1="218.5" y1="81.85" x2="203.6" y2= "91.8" />
    </g>
    <g>
     <line class="fil0 str3" x1="211.05" y1="105.74" x2="194.5" y2= "112.59" />
    </g>
    <g>
     <line class="fil0 str3" x1="250.78" y1="113.87" x2="233.21" y2= "117.36" />
    </g>
    <g>
     <line class="fil0 str3" x1="217.19" y1="136.58" x2="199.28" y2= "136.58" />
    </g>
    <g>
     <line class="fil0 str3" x1="233.21" y1="155.8" x2="215.64" y2= "152.31" />
    </g>
    <g>
     <line class="fil0 str3" x1="260.7" y1="187.99" x2="244.15" y2= "181.14" />
    </g>
    <g>
     <line class="fil0 str3" x1="233.39" y1="201.27" x2="218.5" y2= "191.32" />
    </g>
    <g>
     <line class="fil0 str3" x1="218.91" y1="218.91" x2="155.58" y2= "155.58" />
    </g>
    <g>
     <line class="fil0 str3" x1="174.28" y1="227.6" x2="167.43" y2= "211.05" />
    </g>
    <g>
     <line class="fil0 str3" x1="159.3" y1="250.78" x2="155.8" y2= "233.21" />
    </g>
    <g>
     <line class="fil0 str3" x1="136.58" y1="199.28" x2="136.58" y2= "181.36" />
    </g>
    <g>
     <line class="fil0 str3" x1="117.36" y1="233.21" x2="120.86" y2= "215.64" />
    </g>
    <g>
     <line class="fil0 str3" x1="98.88" y1="227.6" x2="105.74" y2= "211.05" />
    </g>
    <g>
     <line class="fil0 str3" x1="54.25" y1="218.91" x2="66.92" y2= "206.25" />
    </g>
    <g>
     <line class="fil0 str3" x1="79.59" y1="193.58" x2="92.25" y2= "180.91" />
    </g>
    <g>
     <line class="fil0 str3" x1="104.92" y1="168.25" x2="117.58" y2= "155.58" />
    </g>
    <g>
     <line class="fil0 str3" x1="39.77" y1="201.27" x2="69.56" y2= "181.36" />
    </g>
    <g>
     <line class="fil0 str3" x1="12.46" y1="187.99" x2="29.01" y2= "181.14" />
    </g>
    <g>
     <line class="fil0 str3" x1="45.56" y1="174.28" x2="95.21" y2= "153.72" />
    </g>
    <g>
     <line class="fil0 str3" x1="2.24" y1="136.58" x2="38.06" y2= "136.58" />
    </g>
    <g>
     <line class="fil0 str3" x1="91.8" y1="136.58" x2="109.71" y2= "136.58" />
    </g>
    <g>
     <line class="fil0 str3" x1="39.96" y1="117.36" x2="57.52" y2= "120.86" />
    </g>
    <g>
     <line class="fil0 str3" x1="39.77" y1="71.9" x2="54.67" y2= "81.85" />
    </g>
    <g>
     <line class="fil0 str3" x1="41.59" y1="41.59" x2="54.25" y2= "54.25" />
    </g>
    <g>
     <line class="fil0 str3" x1="92.25" y1="92.25" x2="104.92" y2= "104.92" />
    </g>
   </g>
  </g>
 </g>
</svg>
