<?xml version="1.0" encoding="UTF-8"?>
<!DOCTYPE svg PUBLIC "-//W3C//DTD SVG 1.1//EN" "http://www.w3.org/Graphics/SVG/1.1/DTD/svg11.dtd">
<!-- Creator: CorelDRAW 2018 (64-Bit) -->
<svg xmlns="http://www.w3.org/2000/svg" xml:space="preserve" width="2.54166in" height="2.54166in" version="1.1" style="shape-rendering:geometricPrecision; text-rendering:geometricPrecision; image-rendering:optimizeQuality; fill-rule:evenodd; clip-rule:evenodd"
viewBox="0 0 136.29 136.29"
 xmlns:xlink="http://www.w3.org/1999/xlink">
 <defs>
  <style type="text/css">
   <![CDATA[
    .str1 {stroke:#337768;stroke-width:2.23;stroke-miterlimit:2.61313}
    .str3 {stroke:#AFEEA8;stroke-width:1.49;stroke-miterlimit:2.61313}
    .str0 {stroke:#337768;stroke-width:2.23;stroke-linecap:square;stroke-miterlimit:2.61313}
    .str2 {stroke:#AFEEA8;stroke-width:1.49;stroke-linecap:square;stroke-miterlimit:2.61313}
    .fil0 {fill:none}
   ]]>
  </style>
 </defs>
 <g id="Layer_x0020_1">
  <metadata id="CorelCorpID_0Corel-Layer"/>
  <g id="_2422262706384">
   <g>
    <g>
     <path class="fil0 str0" d="M58.67 77.63c-2.51,-2.51 -3.93,-5.93 -3.93,-9.48 0,-7.4 6,-13.41 13.41,-13.41 7.4,0 13.41,6 13.41,13.41 0,7.4 -6,13.41 -13.41,13.41"/>
    </g>
    <g>
     <path class="fil0 str0" d="M52.35 52.35c4.19,-4.19 9.87,-6.54 15.8,-6.54 2.93,0 5.84,0.58 8.55,1.7"/>
    </g>
    <g>
     <path class="fil0 str0" d="M83.95 52.35c4.19,4.19 6.54,9.87 6.54,15.8 0,5.92 -2.36,11.61 -6.54,15.8"/>
    </g>
    <g>
     <path class="fil0 str0" d="M68.15 90.49c-2.93,-0 -5.84,-0.58 -8.55,-1.7"/>
    </g>
    <g>
     <path class="fil0 str0" d="M45.8 68.15c0,-2.93 0.58,-5.84 1.7,-8.55"/>
    </g>
    <g>
     <path class="fil0 str0" d="M97.05 56.18c1.57,3.79 2.38,7.87 2.38,11.97 0,4.11 -0.81,8.18 -2.38,11.97"/>
    </g>
    <g>
     <path class="fil0 str0" d="M90.27 90.27c-5.86,5.86 -13.82,9.16 -22.12,9.16 -12.65,0 -24.06,-7.63 -28.9,-19.31"/>
    </g>
    <g>
     <path class="fil0 str0" d="M36.87 68.15c0,-12.65 7.63,-24.06 19.31,-28.9"/>
    </g>
    <g>
     <path class="fil0 str0" d="M52.76 30.99c4.87,-2.02 10.11,-3.06 15.39,-3.06"/>
    </g>
    <g>
     <path class="fil0 str0" d="M75.99 28.7c5.17,1.02 10.11,3.07 14.5,6"/>
    </g>
    <g>
     <path class="fil0 str0" d="M105.3 52.76c1,2.43 1.78,4.97 2.29,7.54"/>
    </g>
    <g>
     <path class="fil0 str0" d="M108.36 68.15c-0,10.66 -4.24,20.9 -11.78,28.44"/>
    </g>
    <g>
     <path class="fil0 str0" d="M90.49 101.59c-6.61,4.42 -14.39,6.78 -22.34,6.78"/>
    </g>
    <g>
     <path class="fil0 str0" d="M60.3 107.59c-7.8,-1.55 -14.97,-5.38 -20.59,-11.01"/>
    </g>
    <g>
     <path class="fil0 str0" d="M34.71 90.49c-1.46,-2.18 -2.71,-4.52 -3.71,-6.95"/>
    </g>
    <g>
     <path class="fil0 str0" d="M28.7 75.99c-0.51,-2.58 -0.77,-5.21 -0.77,-7.85"/>
    </g>
    <g>
     <path class="fil0 str0" d="M28.7 60.3c1.02,-5.18 3.07,-10.11 6,-14.5"/>
    </g>
    <g>
     <path class="fil0 str0" d="M39.71 39.71c1.86,-1.86 3.91,-3.55 6.09,-5"/>
    </g>
    <g>
     <path class="fil0 str0" d="M27.28 40.84c9.11,-13.65 24.46,-21.85 40.87,-21.85 3.22,0 6.44,0.32 9.59,0.94"/>
    </g>
    <g>
     <path class="fil0 str0" d="M95.46 27.28c2.67,1.78 5.17,3.84 7.45,6.11"/>
    </g>
    <g>
     <path class="fil0 str0" d="M116.36 58.56c0.63,3.15 0.94,6.37 0.94,9.59 0,9.72 -2.88,19.23 -8.28,27.31"/>
    </g>
    <g>
     <path class="fil0 str0" d="M95.46 109.02c-5.36,3.58 -11.39,6.09 -17.72,7.34"/>
    </g>
    <g>
     <path class="fil0 str0" d="M68.15 117.3c-6.45,-0 -12.85,-1.28 -18.81,-3.75"/>
    </g>
    <g>
     <path class="fil0 str0" d="M40.84 109.02c-5.36,-3.58 -9.98,-8.2 -13.56,-13.56"/>
    </g>
    <g>
     <path class="fil0 str0" d="M22.73 86.96c-1.23,-2.97 -2.18,-6.07 -2.8,-9.22"/>
    </g>
    <g>
     <path class="fil0 str0" d="M18.99 68.15c0,-6.45 1.28,-12.85 3.75,-18.81"/>
    </g>
    <g>
     <path class="fil0 str0" d="M27.07 27.07c10.89,-10.89 25.67,-17.02 41.08,-17.02"/>
    </g>
    <g>
     <path class="fil0 str0" d="M79.48 11.17c27.18,5.4 46.76,29.27 46.76,56.98"/>
    </g>
    <g>
     <path class="fil0 str0" d="M121.82 90.38c-2.92,7.05 -7.2,13.46 -12.59,18.85"/>
    </g>
    <g>
     <path class="fil0 str0" d="M90.38 121.82c-7.04,2.91 -14.61,4.42 -22.23,4.42"/>
    </g>
    <g>
     <path class="fil0 str0" d="M56.81 125.12c-7.48,-1.48 -14.61,-4.44 -20.94,-8.67"/>
    </g>
    <g>
     <path class="fil0 str0" d="M27.07 109.22c-10.89,-10.89 -17.01,-25.67 -17.01,-41.08"/>
    </g>
    <g>
     <path class="fil0 str0" d="M14.48 45.92c1.46,-3.51 3.26,-6.89 5.37,-10.05"/>
    </g>
    <g>
     <path class="fil0 str0" d="M81.22 2.41c31.36,6.23 53.95,33.77 53.95,65.74 0,37.01 -30.02,67.03 -67.03,67.03 -37.01,0 -67.03,-30.02 -67.03,-67.03 0,-37.01 30.02,-67.03 67.03,-67.03"/>
    </g>
   </g>
   <g>
    <g>
     <line class="fil0 str1" x1="68.15" y1="27.93" x2="68.15" y2= "36.87" />
    </g>
    <g>
     <line class="fil0 str1" x1="79.48" y1="11.17" x2="77.74" y2= "19.94" />
    </g>
    <g>
     <line class="fil0 str1" x1="90.38" y1="14.48" x2="86.96" y2= "22.73" />
    </g>
    <g>
     <line class="fil0 str1" x1="83.54" y1="30.99" x2="76.7" y2= "47.5" />
    </g>
    <g>
     <line class="fil0 str1" x1="102.91" y1="33.39" x2="83.95" y2= "52.35" />
    </g>
    <g>
     <line class="fil0 str1" x1="116.45" y1="35.87" x2="101.59" y2= "45.8" />
    </g>
    <g>
     <line class="fil0 str1" x1="121.82" y1="45.92" x2="113.56" y2= "49.34" />
    </g>
    <g>
     <line class="fil0 str1" x1="105.3" y1="52.76" x2="97.05" y2= "56.18" />
    </g>
    <g>
     <line class="fil0 str1" x1="116.36" y1="58.56" x2="107.59" y2= "60.3" />
    </g>
    <g>
     <line class="fil0 str1" x1="133.89" y1="81.22" x2="116.36" y2= "77.74" />
    </g>
    <g>
     <line class="fil0 str1" x1="116.45" y1="100.42" x2="109.02" y2= "95.46" />
    </g>
    <g>
     <line class="fil0 str1" x1="102.91" y1="102.91" x2="83.95" y2= "83.95" />
    </g>
    <g>
     <line class="fil0 str1" x1="105.39" y1="123.88" x2="95.46" y2= "109.02" />
    </g>
    <g>
     <line class="fil0 str1" x1="80.12" y1="97.05" x2="76.7" y2= "88.79" />
    </g>
    <g>
     <line class="fil0 str1" x1="68.15" y1="135.18" x2="68.15" y2= "108.37" />
    </g>
    <g>
     <line class="fil0 str1" x1="68.15" y1="90.49" x2="68.15" y2= "81.55" />
    </g>
    <g>
     <line class="fil0 str1" x1="49.34" y1="113.56" x2="52.76" y2= "105.3" />
    </g>
    <g>
     <line class="fil0 str1" x1="56.18" y1="97.05" x2="59.6" y2= "88.79" />
    </g>
    <g>
     <line class="fil0 str1" x1="30.91" y1="123.88" x2="40.84" y2= "109.02" />
    </g>
    <g>
     <line class="fil0 str1" x1="52.35" y1="83.95" x2="58.67" y2= "77.63" />
    </g>
    <g>
     <line class="fil0 str1" x1="27.28" y1="95.46" x2="34.71" y2= "90.49" />
    </g>
    <g>
     <line class="fil0 str1" x1="14.48" y1="90.38" x2="22.73" y2= "86.96" />
    </g>
    <g>
     <line class="fil0 str1" x1="30.99" y1="83.54" x2="47.5" y2= "76.7" />
    </g>
    <g>
     <line class="fil0 str1" x1="19.94" y1="77.74" x2="28.7" y2= "75.99" />
    </g>
    <g>
     <line class="fil0 str1" x1="10.05" y1="68.15" x2="18.99" y2= "68.15" />
    </g>
    <g>
     <line class="fil0 str1" x1="27.93" y1="68.15" x2="54.74" y2= "68.15" />
    </g>
    <g>
     <line class="fil0 str1" x1="2.41" y1="55.07" x2="11.17" y2= "56.81" />
    </g>
    <g>
     <line class="fil0 str1" x1="19.94" y1="58.56" x2="28.7" y2= "60.3" />
    </g>
    <g>
     <line class="fil0 str1" x1="14.48" y1="45.92" x2="22.73" y2= "49.34" />
    </g>
    <g>
     <line class="fil0 str1" x1="19.84" y1="35.87" x2="27.28" y2= "40.84" />
    </g>
    <g>
     <line class="fil0 str1" x1="20.75" y1="20.75" x2="27.07" y2= "27.07" />
    </g>
    <g>
     <line class="fil0 str1" x1="39.71" y1="39.71" x2="52.35" y2= "52.35" />
    </g>
    <g>
     <line class="fil0 str1" x1="49.34" y1="22.73" x2="52.76" y2= "30.99" />
    </g>
   </g>
  </g>
  <g>
   <g>
    <g>
     <path class="fil0 str2" d="M58.67 77.63c-2.51,-2.51 -3.93,-5.93 -3.93,-9.48 0,-7.4 6,-13.41 13.41,-13.41 7.4,0 13.41,6 13.41,13.41 0,7.4 -6,13.41 -13.41,13.41"/>
    </g>
    <g>
     <path class="fil0 str2" d="M52.35 52.35c4.19,-4.19 9.87,-6.54 15.8,-6.54 2.93,0 5.84,0.58 8.55,1.7"/>
    </g>
    <g>
     <path class="fil0 str2" d="M83.95 52.35c4.19,4.19 6.54,9.87 6.54,15.8 0,5.92 -2.36,11.61 -6.54,15.8"/>
    </g>
    <g>
     <path class="fil0 str2" d="M68.15 90.49c-2.93,-0 -5.84,-0.58 -8.55,-1.7"/>
    </g>
    <g>
     <path class="fil0 str2" d="M45.8 68.15c0,-2.93 0.58,-5.84 1.7,-8.55"/>
    </g>
    <g>
     <path class="fil0 str2" d="M97.05 56.18c1.57,3.79 2.38,7.87 2.38,11.97 0,4.11 -0.81,8.18 -2.38,11.97"/>
    </g>
    <g>
     <path class="fil0 str2" d="M90.27 90.27c-5.86,5.86 -13.82,9.16 -22.12,9.16 -12.65,0 -24.06,-7.63 -28.9,-19.31"/>
    </g>
    <g>
     <path class="fil0 str2" d="M36.87 68.15c0,-12.65 7.63,-24.06 19.31,-28.9"/>
    </g>
    <g>
     <path class="fil0 str2" d="M52.76 30.99c4.87,-2.02 10.11,-3.06 15.39,-3.06"/>
    </g>
    <g>
     <path class="fil0 str2" d="M75.99 28.7c5.17,1.02 10.11,3.07 14.5,6"/>
    </g>
    <g>
     <path class="fil0 str2" d="M105.3 52.76c1,2.43 1.78,4.97 2.29,7.54"/>
    </g>
    <g>
     <path class="fil0 str2" d="M108.36 68.15c-0,10.66 -4.24,20.9 -11.78,28.44"/>
    </g>
    <g>
     <path class="fil0 str2" d="M90.49 101.59c-6.61,4.42 -14.39,6.78 -22.34,6.78"/>
    </g>
    <g>
     <path class="fil0 str2" d="M60.3 107.59c-7.8,-1.55 -14.97,-5.38 -20.59,-11.01"/>
    </g>
    <g>
     <path class="fil0 str2" d="M34.71 90.49c-1.46,-2.18 -2.71,-4.52 -3.71,-6.95"/>
    </g>
    <g>
     <path class="fil0 str2" d="M28.7 75.99c-0.51,-2.58 -0.77,-5.21 -0.77,-7.85"/>
    </g>
    <g>
     <path class="fil0 str2" d="M28.7 60.3c1.02,-5.18 3.07,-10.11 6,-14.5"/>
    </g>
    <g>
     <path class="fil0 str2" d="M39.71 39.71c1.86,-1.86 3.91,-3.55 6.09,-5"/>
    </g>
    <g>
     <path class="fil0 str2" d="M27.28 40.84c9.11,-13.65 24.46,-21.85 40.87,-21.85 3.22,0 6.44,0.32 9.59,0.94"/>
    </g>
    <g>
     <path class="fil0 str2" d="M95.46 27.28c2.67,1.78 5.17,3.84 7.45,6.11"/>
    </g>
    <g>
     <path class="fil0 str2" d="M116.36 58.56c0.63,3.15 0.94,6.37 0.94,9.59 0,9.72 -2.88,19.23 -8.28,27.31"/>
    </g>
    <g>
     <path class="fil0 str2" d="M95.46 109.02c-5.36,3.58 -11.39,6.09 -17.72,7.34"/>
    </g>
    <g>
     <path class="fil0 str2" d="M68.15 117.3c-6.45,-0 -12.85,-1.28 -18.81,-3.75"/>
    </g>
    <g>
     <path class="fil0 str2" d="M40.84 109.02c-5.36,-3.58 -9.98,-8.2 -13.56,-13.56"/>
    </g>
    <g>
     <path class="fil0 str2" d="M22.73 86.96c-1.23,-2.97 -2.18,-6.07 -2.8,-9.22"/>
    </g>
    <g>
     <path class="fil0 str2" d="M18.99 68.15c0,-6.45 1.28,-12.85 3.75,-18.81"/>
    </g>
    <g>
     <path class="fil0 str2" d="M27.07 27.07c10.89,-10.89 25.67,-17.02 41.08,-17.02"/>
    </g>
    <g>
     <path class="fil0 str2" d="M79.48 11.17c27.18,5.4 46.76,29.27 46.76,56.98"/>
    </g>
    <g>
     <path class="fil0 str2" d="M121.82 90.38c-2.92,7.05 -7.2,13.46 -12.59,18.85"/>
    </g>
    <g>
     <path class="fil0 str2" d="M90.38 121.82c-7.04,2.91 -14.61,4.42 -22.23,4.42"/>
    </g>
    <g>
     <path class="fil0 str2" d="M56.81 125.12c-7.48,-1.48 -14.61,-4.44 -20.94,-8.67"/>
    </g>
    <g>
     <path class="fil0 str2" d="M27.07 109.22c-10.89,-10.89 -17.01,-25.67 -17.01,-41.08"/>
    </g>
    <g>
     <path class="fil0 str2" d="M14.48 45.92c1.46,-3.51 3.26,-6.89 5.37,-10.05"/>
    </g>
    <g>
     <path class="fil0 str2" d="M81.22 2.41c31.36,6.23 53.95,33.77 53.95,65.74 0,37.01 -30.02,67.03 -67.03,67.03 -37.01,0 -67.03,-30.02 -67.03,-67.03 0,-37.01 30.02,-67.03 67.03,-67.03"/>
    </g>
   </g>
   <g>
    <g>
     <line class="fil0 str3" x1="68.15" y1="27.93" x2="68.15" y2= "36.87" />
    </g>
    <g>
     <line class="fil0 str3" x1="79.48" y1="11.17" x2="77.74" y2= "19.94" />
    </g>
    <g>
     <line class="fil0 str3" x1="90.38" y1="14.48" x2="86.96" y2= "22.73" />
    </g>
    <g>
     <line class="fil0 str3" x1="83.54" y1="30.99" x2="76.7" y2= "47.5" />
    </g>
    <g>
     <line class="fil0 str3" x1="102.91" y1="33.39" x2="83.95" y2= "52.35" />
    </g>
    <g>
     <line class="fil0 str3" x1="116.45" y1="35.87" x2="101.59" y2= "45.8" />
    </g>
    <g>
     <line class="fil0 str3" x1="121.82" y1="45.92" x2="113.56" y2= "49.34" />
    </g>
    <g>
     <line class="fil0 str3" x1="105.3" y1="52.76" x2="97.05" y2= "56.18" />
    </g>
    <g>
     <line class="fil0 str3" x1="116.36" y1="58.56" x2="107.59" y2= "60.3" />
    </g>
    <g>
     <line class="fil0 str3" x1="133.89" y1="81.22" x2="116.36" y2= "77.74" />
    </g>
    <g>
     <line class="fil0 str3" x1="116.45" y1="100.42" x2="109.02" y2= "95.46" />
    </g>
    <g>
     <line class="fil0 str3" x1="102.91" y1="102.91" x2="83.95" y2= "83.95" />
    </g>
    <g>
     <line class="fil0 str3" x1="105.39" y1="123.88" x2="95.46" y2= "109.02" />
    </g>
    <g>
     <line class="fil0 str3" x1="80.12" y1="97.05" x2="76.7" y2= "88.79" />
    </g>
    <g>
     <line class="fil0 str3" x1="68.15" y1="135.18" x2="68.15" y2= "108.37" />
    </g>
    <g>
     <line class="fil0 str3" x1="68.15" y1="90.49" x2="68.15" y2= "81.55" />
    </g>
    <g>
     <line class="fil0 str3" x1="49.34" y1="113.56" x2="52.76" y2= "105.3" />
    </g>
    <g>
     <line class="fil0 str3" x1="56.18" y1="97.05" x2="59.6" y2= "88.79" />
    </g>
    <g>
     <line class="fil0 str3" x1="30.91" y1="123.88" x2="40.84" y2= "109.02" />
    </g>
    <g>
     <line class="fil0 str3" x1="52.35" y1="83.95" x2="58.67" y2= "77.63" />
    </g>
    <g>
     <line class="fil0 str3" x1="27.28" y1="95.46" x2="34.71" y2= "90.49" />
    </g>
    <g>
     <line class="fil0 str3" x1="14.48" y1="90.38" x2="22.73" y2= "86.96" />
    </g>
    <g>
     <line class="fil0 str3" x1="30.99" y1="83.54" x2="47.5" y2= "76.7" />
    </g>
    <g>
     <line class="fil0 str3" x1="19.94" y1="77.74" x2="28.7" y2= "75.99" />
    </g>
    <g>
     <line class="fil0 str3" x1="10.05" y1="68.15" x2="18.99" y2= "68.15" />
    </g>
    <g>
     <line class="fil0 str3" x1="27.93" y1="68.15" x2="54.74" y2= "68.15" />
    </g>
    <g>
     <line class="fil0 str3" x1="2.41" y1="55.07" x2="11.17" y2= "56.81" />
    </g>
    <g>
     <line class="fil0 str3" x1="19.94" y1="58.56" x2="28.7" y2= "60.3" />
    </g>
    <g>
     <line class="fil0 str3" x1="14.48" y1="45.92" x2="22.73" y2= "49.34" />
    </g>
    <g>
     <line class="fil0 str3" x1="19.84" y1="35.87" x2="27.28" y2= "40.84" />
    </g>
    <g>
     <line class="fil0 str3" x1="20.75" y1="20.75" x2="27.07" y2= "27.07" />
    </g>
    <g>
     <line class="fil0 str3" x1="39.71" y1="39.71" x2="52.35" y2= "52.35" />
    </g>
    <g>
     <line class="fil0 str3" x1="49.34" y1="22.73" x2="52.76" y2= "30.99" />
    </g>
   </g>
  </g>
 </g>
</svg>
